**ABCDEFGHIJKLMNOPQRSTUVWXYZabcdefghijklmnopqrstuvwxyz**************************
**PARASOLID !"#$%&'()*+,-./:;<=>?@[\]^_`{|}~0123456789**************************
**PART1;
MC=AMD64;
MC_MODEL=AMD64 Family 23 Model 1 Stepping 2, AuthenticAMD;
MC_ID=unknown;
OS=Windows_NT;
OS_RELEASE=unknown;
FRU=CAD Exchanger 3.13.0 (cadexchanger.com);
APPL=unknown;
SITE=unknown;
USER=unknown;
FORMAT=text;
GUISE=transmit;
KEY=CAPPM3528X210N_CMP-054-000000-2;
FILE=CAPPM3528X210N_CMP-054-000000-2.x_t;
DATE=Sat Mar 11 00:30:25 2023;
**PART2;
SCH=SCH_1200000_12103;
USFLD_SIZE=0;
**PART3;
**END_OF_HEADER*****************************************************************
T51 : TRANSMIT FILE created by modeller version 120000017 SCH_1200000_121030 74
 3 1 3 0 2 246 473 12 2 162 0 3 0 0 0 0 1000.0 1.0e-08 0 0 0 1 0 1 1 12 14 20 18
 9 19 17 70 3 0 2 0 0 4 1 20 0 4 4 1 T74 20 4 1 0 5 0 0 0 0 0 0 0 0 0 0 0 0 0 0
 0 0 0 0 0 81 1 5 7 6 13 0 0 42 0 8 80 1 6 0 7 8001 0 0 0 0 3 5 0 0 0 FFFFTFTFFF
FFFF2 79 15 7 SDL/TYSA_COLOUR83 3 8 0.75 0.6299999952316284 0.1099999994039536 1
9 9 1 0 2 11 0 10 V13 10 2 0 2 0 0 0 0 9 13 19 11 3 0 2 0 9 12 S13 12 4 0 2 0 13
 0 0 11 0 14 13 5 5 1.0e-08 40 0 15 12 14 -0 0 40 0 10 50 14 6 0 13 41 0 0 +-0.0
01625 -0.001425 0.001555 0.9989495574738944 -2.4467207561401394e-16 -0.045823374
1960452 2.4492935982947066e-16 1.0 0.0 15 15 8 0 16 13 0 17 16 0 15 24 36 17 21
 19 0 78 +18 17 9 0 29 0 22 18 ?2 29 18 10 0 17 23 0 -0.001612601427904 0.001387
601427904 0.001825288871695 16 19 11 0 ?16 0 27 20 0 0 2 30 20 12 0 19 28 0 0 +-
0.001612601427904 -0.001375 0.001825288871695 2.4492935982947066e-16 1.0 0.0 17
 21 0 71 66 78 22 16 19 0 63 -18 22 13 0 36 17 25 23 ?2 29 23 14 0 22 26 18 -0.0
01612601427904 -0.001387601427904 0.001825288871695 17 24 0 15 30 16 25 29 27 0
 92 -18 25 15 0 35 22 31 26 ?2 29 26 16 0 25 32 23 -0.00165 0.001425 0.00101 16
 27 17 0 ?29 19 33 28 0 0 2 30 28 18 0 27 34 20 0 +-0.00162206646551 0.001397066
46551 0.001618951051882 0.0457753402888472 -0.0457753402888473 0.997902418296939
8 17 29 0 107 81 120 17 24 27 0 16 +17 30 0 15 36 24 31 35 33 0 50 -18 31 19 0 3
9 25 46 32 ?2 29 32 20 0 31 47 26 -0.00165 -0.001425 0.00101 16 33 21 0 ?35 27 3
7 34 0 0 2 30 34 22 0 33 38 28 0 +-0.00165 -0.001425 0.00101 2.4492935982947066e
-16 1.0 0.0 17 35 0 86 87 99 25 30 33 0 24 +17 36 0 15 16 30 22 39 37 0 21 +16 3
7 23 0 ?36 33 48 38 0 0 2 30 38 24 0 37 49 34 0 +-0.001625052384544 -0.001400052
384544 0.001553858016931 0.0457753402888473 0.0457753402888472 0.997902418296939
8 17 39 0 44 45 63 31 36 37 0 30 -14 40 25 42 1.0e-08 67 13 44 12 41 -0 0 67 13
 10 50 41 26 0 40 68 14 0 +-0.00165 -0.0014 0.001555 2.4467207561401394e-16 0.99
89495574738944 -0.0458233741960452 -1.0 2.4492935982947066e-16 0.0 81 1 42 27 6
 40 0 0 69 5 43 83 3 43 0.75 0.6299999952316284 0.1099999994039536 15 44 28 0 39
 40 0 17 45 0 44 51 39 46 50 48 0 56 +18 46 29 0 45 31 52 47 ?2 29 47 30 0 46 53
 32 0.00165 -0.001425 0.00101 16 48 31 0 ?45 37 54 49 0 0 2 30 49 32 0 48 55 38
 0 +-0.00165 -0.001425 0.00101 1.0 -2.4492935982947066e-16 0.0 17 50 0 128 102 1
35 31 45 48 0 99 -17 51 0 44 57 45 52 56 54 0 62 +18 52 33 0 51 46 58 53 ?2 29 5
3 34 0 52 59 47 0.0016 -0.001375 0.0021 16 54 35 0 ?51 48 60 55 0 0 2 30 55 36 0
 54 61 49 0 +0.00162159500461 -0.00139659500461 0.001629228899505 -0.04577534028
88472 0.0457753402888473 0.9979024182969398 17 56 0 152 153 147 46 51 54 0 135 -
17 57 0 44 63 51 58 62 60 0 66 -18 58 37 0 57 52 73 59 ?2 29 59 38 0 58 74 53 -0
.001325 -0.001375 0.0021 16 60 39 0 ?62 54 64 61 0 0 2 30 61 40 0 60 65 55 0 +-0
.00165 -0.001375 0.0021 1.0 -2.4492935982947066e-16 0.0 17 62 0 143 144 77 52 57
 60 0 147 +17 63 0 44 39 57 22 66 64 0 0 -16 64 41 0 ?66 60 75 65 0 0 2 30 65 42
 0 64 76 61 0 +-0.001617972667321 -0.001387836771959 0.001820158371295 0.7227636
322830528 0.0316683191393221 0.6903693572370504 17 66 0 71 72 21 58 63 64 0 77 +
14 67 43 69 1.0e-08 82 40 71 12 68 -0 0 82 40 10 50 68 44 0 67 83 41 0 +-0.00146
8800713952 -0.001375 0.001962644435847 0.6907157974897054 -1.6917657810325582e-1
6 -0.7231263285886916 2.4492935982947066e-16 1.0 0.0 81 1 69 45 6 67 0 0 84 42 7
0 83 3 70 0.75 0.6299999952316284 0.1099999994039536 15 71 46 0 72 67 0 17 72 0
 71 78 66 73 77 75 0 113 +18 73 47 0 81 58 88 74 ?2 29 74 48 0 73 89 59 -0.00132
5 0.001375 0.0021 16 75 49 0 ?72 64 79 76 0 0 2 30 76 50 0 75 80 65 0 +-0.001325
 -0.001375 0.0021 2.4492935982947066e-16 1.0 0.0 17 77 0 143 62 113 58 72 75 0 0
 -17 78 0 71 21 72 17 81 79 0 0 -16 79 51 0 ?81 75 90 80 0 0 2 30 80 52 0 79 91
 76 0 +-0.001586500691939 0.001386457808608 0.001850219772347 0.7227636322830528
 -0.0316683191393225 0.6903693572370504 17 81 0 107 108 29 73 78 79 0 72 +14 82
 53 84 1.0e-08 103 67 86 12 83 -0 0 103 67 10 50 83 54 0 82 104 68 0 +-0.00165 -
0.001425 1.0e-04 1.0 -2.4492935982947066e-16 0.0 0.0 0.0 1.0 81 1 84 55 6 82 0 0
 105 69 85 83 3 85 0.75 0.6299999952316284 0.1099999994039536 15 86 56 0 35 82 0
 17 87 0 86 93 35 88 92 90 0 173 -18 88 57 0 98 73 94 89 ?2 29 89 58 0 88 95 74
 -0.00165 0.001425 0.001 16 90 59 0 ?92 79 96 91 0 0 2 30 91 60 0 90 97 80 0 +-0
.00165 0.001425 1.0e-04 0.0 0.0 1.0 17 92 0 182 123 189 25 87 90 0 120 +17 93 0
 86 99 87 94 98 96 0 134 -18 94 61 0 102 88 109 95 ?2 29 95 62 0 94 110 89 -0.00
165 -0.001425 0.001 16 96 63 0 ?98 90 100 97 0 0 2 30 97 64 0 96 101 91 0 +-0.00
165 -0.001425 0.001 2.4492935982947066e-16 1.0 0.0 17 98 0 161 168 162 88 93 96
 0 87 +17 99 0 86 35 93 31 102 100 0 0 +16 100 65 0 ?99 96 111 101 0 0 2 30 101
 66 0 100 112 97 0 +-0.00165 -0.001425 1.0e-04 0.0 0.0 1.0 17 102 0 128 129 50 9
4 99 100 0 93 -14 103 67 105 1.0e-08 124 82 107 12 104 +0 0 124 82 10 50 104 68
 0 103 125 83 0 +-0.00165 0.0014 0.001555 2.4467207561401394e-16 0.9989495574738
944 0.0458233741960452 -1.0 2.4492935982947066e-16 0.0 81 1 105 69 6 103 0 0 126
 84 106 83 3 106 0.75 0.6299999952316284 0.1099999994039536 15 107 70 0 81 103 0
 17 108 0 107 114 81 109 113 111 0 144 +18 109 71 0 119 94 115 110 ?2 29 110 72
 0 109 116 95 0.0016 0.001375 0.0021 16 111 73 0 ?108 100 117 112 0 0 2 30 112 7
4 0 111 118 101 0 +-0.00165 0.001375 0.0021 1.0 -2.4492935982947066e-16 0.0 17 1
13 0 143 77 144 73 108 111 0 0 -17 114 0 107 120 108 115 119 117 0 153 -18 115 7
5 0 123 109 130 116 ?2 29 116 76 0 115 131 110 0.00165 0.001425 0.00101 16 117 7
7 0 ?119 111 121 118 0 0 2 30 118 78 0 117 122 112 0 +0.001618609085575 0.001393
609085575 0.001694321934456 -0.0457753402888473 -0.0457753402888472 0.9979024182
969398 17 119 0 152 147 153 109 114 117 0 108 +17 120 0 107 29 114 25 123 121 0
 0 -16 121 79 0 ?123 117 132 122 0 0 2 30 122 80 0 121 133 118 0 +-0.00165 0.001
425 0.00101 1.0 -2.4492935982947066e-16 0.0 17 123 0 182 183 92 115 120 121 0 11
4 +14 124 81 126 1.0e-08 139 103 128 12 125 -0 0 139 103 10 50 125 82 0 124 140
 104 0 +-0.00165 -0.001425 1.0e-04 2.4492935982947066e-16 1.0 0.0 0.0 0.0 1.0 81
 1 126 83 6 124 0 0 141 105 127 83 3 127 0.75 0.6299999952316284 0.1099999994039
536 15 128 84 0 50 124 0 17 129 0 128 135 102 130 134 132 0 201 +18 130 85 0 138
 115 166 131 ?2 29 131 86 0 130 167 116 0.00165 -0.001425 0.001 16 132 87 0 ?129
 121 136 133 0 0 2 30 133 88 0 132 137 122 0 +-0.00165 -0.001425 0.001 1.0 -2.44
92935982947066e-16 0.0 17 134 0 206 165 213 94 129 132 0 162 -17 135 0 128 50 12
9 46 138 136 0 156 +16 136 89 0 ?135 132 145 137 0 0 2 30 137 90 0 136 146 133 0
 +0.00165 -0.001425 1.0e-04 0.0 0.0 1.0 17 138 0 197 198 156 130 135 136 0 129 -
14 139 91 141 1.0e-08 148 124 143 12 140 +0 0 148 124 10 50 140 92 0 139 149 125
 0 +-0.00165 -0.001425 0.0021 0.0 0.0 1.0 1.0 -2.4492935982947066e-16 0.0 81 1 1
41 93 6 139 0 0 150 126 142 83 3 142 0.75 0.6299999952316284 0.1099999994039536
 15 143 94 0 62 139 0 17 144 0 143 113 62 109 147 145 0 0 +16 145 95 0 ?144 136
 154 146 0 0 2 30 146 96 0 145 155 137 0 +0.0016 -0.001425 0.0021 2.449293598294
7066e-16 1.0 0.0 17 147 0 152 56 119 52 144 145 0 0 -14 148 97 150 1.0e-08 157 1
39 152 12 149 +0 0 157 139 10 50 149 98 0 148 158 140 0 +0.001625 -0.001425 0.00
1555 0.9989495574738944 -2.4467207561401394e-16 0.0458233741960452 2.44929359829
47066e-16 1.0 0.0 81 1 150 99 6 148 0 0 159 141 151 83 3 151 0.75 0.629999995231
6284 0.1099999994039536 15 152 100 0 56 148 0 17 153 0 152 119 56 115 156 154 0
 188 +16 154 101 0 ?153 145 163 155 0 0 2 30 155 102 0 154 164 146 0 +0.00165 -0
.001425 0.00101 2.4492935982947066e-16 1.0 0.0 17 156 0 197 138 188 46 153 154 0
 0 -14 157 103 159 1.0e-08 178 148 161 12 158 +0 0 178 148 10 50 158 104 0 157 1
79 149 0 +-0.001625 -0.001425 5.5e-04 -0.9984603532054114 2.4455225512570858e-16
 -0.0554700196225429 2.4492935982947066e-16 1.0 0.0 81 1 159 105 6 157 0 0 180 1
50 160 83 3 160 0.75 0.6299999952316284 0.1099999994039536 15 161 106 0 162 157
 0 17 162 0 161 98 174 94 165 163 0 0 -16 163 107 0 ?165 154 171 164 0 0 2 30 16
4 108 0 163 172 155 0 +-0.001625076687117 -0.001400076687117 5.5138036809799998e
-04 0.0553848775621745 0.0553848775621744 -0.99692779611908 17 165 0 206 207 134
 166 162 163 0 174 +18 166 109 0 165 130 169 167 ?2 29 167 110 0 166 170 131 -0.
0016 -0.001375 1.0e-04 17 168 0 161 174 98 169 173 171 0 177 +18 169 111 0 168 1
66 184 170 ?2 29 170 112 0 169 185 167 -0.0016 0.001375 1.0e-04 16 171 113 0 ?16
8 163 175 172 0 0 2 30 172 114 0 171 176 164 0 +-0.001620705521472 0.00139570552
1472 4.72699386503e-04 0.0553848775621744 -0.0553848775621745 -0.99692779611908
 17 173 0 236 192 227 88 168 171 0 189 -17 174 0 161 162 168 166 177 175 0 212 -
16 175 115 0 ?177 171 186 176 0 0 2 30 176 116 0 175 187 172 0 +-0.0016 -0.00142
5 1.0e-04 2.4492935982947066e-16 1.0 0.0 17 177 0 221 222 212 169 174 175 0 227
 +14 178 117 180 1.0e-08 193 157 182 12 179 +0 0 193 157 10 50 179 118 0 178 194
 158 0 +-0.00165 0.001425 1.0e-04 2.4492935982947066e-16 1.0 0.0 0.0 0.0 1.0 81
 1 180 119 6 178 0 0 195 159 181 83 3 181 0.75 0.6299999952316284 0.109999999403
9536 15 182 120 0 183 178 0 17 183 0 182 189 123 184 188 186 0 192 -18 184 121 0
 183 169 208 185 ?2 29 185 122 0 184 209 170 0.00165 0.001425 0.001 16 186 123 0
 ?188 175 190 187 0 0 2 30 187 124 0 186 191 176 0 +0.00165 0.001425 1.0e-04 0.0
 0.0 1.0 17 188 0 197 156 198 115 183 186 0 0 +17 189 0 182 92 183 88 192 190 0
 0 -16 190 125 0 ?192 186 199 191 0 0 2 30 191 126 0 190 200 187 0 +-0.00165 0.0
01425 0.001 1.0 -2.4492935982947066e-16 0.0 17 192 0 236 237 173 184 189 190 0 1
98 +14 193 127 195 1.0e-08 202 178 197 12 194 +0 0 202 178 10 50 194 128 0 193 2
03 179 0 +0.00165 -0.001425 1.0e-04 1.0 -2.4492935982947066e-16 0.0 0.0 0.0 1.0
 81 1 195 129 6 193 0 0 204 180 196 83 3 196 0.75 0.6299999952316284 0.109999999
4039536 15 197 130 0 138 193 0 17 198 0 197 188 138 184 201 199 0 240 +16 199 13
1 0 ?198 190 210 200 0 0 2 30 200 132 0 199 211 191 0 +0.00165 -0.001425 0.001 2
.4492935982947066e-16 1.0 0.0 17 201 0 245 216 240 130 198 199 0 213 -14 202 133
 204 1.0e-08 217 193 206 12 203 +0 0 217 193 10 50 203 134 0 202 218 194 0 +-0.0
0165 -0.0014 5.5e-04 -2.4455225512570858e-16 -0.9984603532054114 -0.055470019622
5429 -1.0 2.4492935982947066e-16 0.0 81 1 204 135 6 202 0 0 219 195 205 83 3 205
 0.75 0.6299999952316284 0.1099999994039536 15 206 136 0 207 202 0 17 207 0 206
 213 165 208 212 210 0 228 +18 208 137 0 216 184 223 209 ?2 29 209 138 0 208 224
 185 0.0016 -0.001375 1.0e-04 16 210 139 0 ?207 199 214 211 0 0 2 30 211 140 0 2
10 215 200 0 +-0.00165 -0.001375 1.0e-04 1.0 -2.4492935982947066e-16 0.0 17 212
 0 221 177 228 166 207 210 0 0 -17 213 0 206 134 207 130 216 214 0 0 -16 214 141
 0 ?216 210 225 215 0 0 2 30 215 142 0 214 226 211 0 +0.001620015337423 -0.00139
5015337423 4.6027607361999996e-04 -0.0553848775621744 0.0553848775621745 -0.9969
2779611908 17 216 0 245 231 201 208 213 214 0 207 +14 217 143 219 1.0e-08 232 20
2 221 12 218 -0 0 232 202 10 50 218 144 0 217 233 203 0 +-0.00165 -0.001425 1.0e
-04 0.0 0.0 1.0 1.0 -2.4492935982947066e-16 0.0 81 1 219 145 6 217 0 0 234 204 2
20 83 3 220 0.75 0.6299999952316284 0.1099999994039536 15 221 146 0 222 217 0 17
 222 0 221 228 177 223 227 225 0 237 +18 223 147 0 231 208 0 224 ?2 29 224 148 0
 223 0 209 0.0016 0.001375 1.0e-04 16 225 149 0 ?222 214 229 226 0 0 2 30 226 15
0 0 225 230 215 0 +-0.00165 0.001375 1.0e-04 1.0 -2.4492935982947066e-16 0.0 17
 227 0 236 173 237 169 222 225 0 0 -17 228 0 221 212 222 208 231 229 0 0 -16 229
 151 0 ?231 225 238 230 0 0 2 30 230 152 0 229 239 226 0 +0.0016 -0.001425 1.0e-
04 2.4492935982947066e-16 1.0 0.0 17 231 0 245 240 216 223 228 229 0 222 +14 232
 153 234 1.0e-08 241 217 236 12 233 -0 0 241 217 10 50 233 154 0 232 242 218 0 +
-0.00165 0.0014 5.5e-04 -2.4455225512570858e-16 -0.9984603532054114 0.0554700196
225429 -1.0 2.4492935982947066e-16 0.0 81 1 234 155 6 232 0 0 243 219 235 83 3 2
35 0.75 0.6299999952316284 0.1099999994039536 15 236 156 0 173 232 0 17 237 0 23
6 227 192 223 240 238 0 0 +16 238 157 0 ?237 229 0 239 0 0 2 30 239 158 0 238 0
 230 0 +0.001615644171779 0.001390644171779 3.8159509202500002e-04 -0.0553848775
621745 -0.0553848775621744 -0.99692779611908 17 240 0 245 201 231 184 237 238 0
 0 -14 241 159 243 1.0e-08 0 232 245 12 242 -0 0 0 232 10 50 242 160 0 241 0 233
 0 +0.001625 -0.001425 5.5e-04 -0.9984603532054114 2.4455225512570858e-16 0.0554
700196225429 2.4492935982947066e-16 1.0 0.0 81 1 243 161 6 241 0 0 0 234 244 83
 3 244 0.75 0.6299999952316284 0.1099999994039536 15 245 162 0 231 241 0 12 246
 152 0 247 0 0 0 0 1000.0 1.0e-08 0 0 0 1 0 1 1 254 256 262 260 251 261 259 70 2
47 0 246 0 0 4 1 20 0 248 248 1 T74 20 248 1 0 249 0 0 0 0 0 0 0 0 0 0 0 0 0 0 0
 0 0 0 0 81 1 249 7 6 255 0 0 320 0 250 83 3 250 0.734000027179718 0.77300000190
73486 0.796999990940094 19 251 1 0 246 253 0 252 V13 252 2 0 246 0 0 0 0 251 255
 19 253 3 0 246 0 251 254 S13 254 4 0 246 0 255 0 0 253 0 14 255 5 249 1.0e-08 3
18 0 257 254 256 +0 0 318 0 252 50 256 6 0 255 319 0 0 +-0.001447 -0.0011 4.8200
000000000004e-04 -2.4492935982947004e-16 -1.0 1.017891714993e-31 -1.0 2.44929359
82947004e-16 0.0 15 257 8 0 258 255 0 17 258 0 257 266 314 259 263 261 0 271 -18
 259 9 0 258 0 264 260 ?246 29 260 10 0 259 265 0 -0.00165 -0.0011 0.001 16 261
 11 0 ?263 0 269 262 0 0 246 30 262 12 0 261 270 0 0 +-0.00175 -0.0011 0.001 1.0
 -2.4492935982947066e-16 0.0 17 263 0 322 335 331 264 258 261 0 314 +18 264 13 0
 263 259 267 265 ?246 29 265 14 0 264 268 260 -0.001 -0.0011 0.001 17 266 0 257
 272 258 267 271 269 0 277 +18 267 15 0 266 264 273 268 ?246 29 268 16 0 267 274
 265 -0.00175 -0.0011 9.0e-04 16 269 17 0 ?266 261 275 270 0 0 246 31 270 18 0 2
69 276 262 0 +-0.00165 -0.0011 9.0e-04 -2.4492935982947066e-16 -1.0 0.0 0.0 0.0
 1.0 1.0e-04 17 271 0 343 334 350 259 266 269 0 331 -17 272 0 257 278 266 273 27
7 275 0 283 -18 273 19 0 272 267 279 274 ?246 29 274 20 0 273 280 268 -0.00175 -
0.0011 1.0e-04 16 275 21 0 ?277 269 281 276 0 0 246 30 276 22 0 275 282 270 0 +-
0.00175 -0.0011 0.0 0.0 0.0 1.0 17 277 0 373 353 380 267 272 275 0 350 +17 278 0
 257 284 272 279 283 281 0 289 +18 279 23 0 278 273 285 280 ?246 29 280 24 0 279
 286 274 -0.00165 -0.0011 -1.3877787807810001e-20 16 281 25 0 ?278 275 287 282 0
 0 246 31 282 26 0 281 288 276 0 +-0.00165 -0.0011 1.0e-04 -2.4492935982947066e-
16 -1.0 0.0 0.0 0.0 1.0 1.0e-04 17 283 0 403 383 410 273 278 281 0 380 -17 284 0
 257 290 278 285 289 287 0 295 +18 285 27 0 284 279 291 286 ?246 29 286 28 0 285
 292 280 -9.0000000000000018e-04 -0.0011 0.0 16 287 29 0 ?284 281 293 288 0 0 24
6 30 288 30 0 287 294 282 0 +-0.00175 -0.0011 0.0 1.0 -2.4492935982947066e-16 0.
0 17 289 0 433 413 434 279 284 287 0 410 -17 290 0 257 296 284 291 295 293 0 301
 +18 291 31 0 290 285 297 292 ?246 29 292 32 0 291 298 286 -9.0000000000000018e-
04 -0.0011 1.0e-04 16 293 33 0 ?290 287 299 294 0 0 246 30 294 34 0 293 300 288
 0 +-9.0000000000000018e-04 -0.0011 0.0 0.0 0.0 1.0 17 295 0 463 437 458 285 290
 293 0 434 -17 296 0 257 302 290 297 301 299 0 307 -18 297 35 0 296 291 303 298
 ?246 29 298 36 0 297 304 292 -0.00165 -0.0011 1.0e-04 16 299 37 0 ?301 293 305
 300 0 0 246 30 300 38 0 299 306 294 0 +-0.00175 -0.0011 1.0e-04 1.0 -2.44929359
82947066e-16 0.0 17 301 0 448 455 424 291 296 299 0 458 +17 302 0 257 308 296 30
3 307 305 0 313 +18 303 39 0 302 297 309 304 ?246 29 304 40 0 303 310 298 -0.001
65 -0.0011 9.0e-04 16 305 41 0 ?302 299 311 306 0 0 246 30 306 42 0 305 312 300
 0 +-0.00165 -0.0011 0.0 0.0 0.0 1.0 17 307 0 418 419 394 297 302 305 0 424 -17
 308 0 257 314 302 309 313 311 0 317 +18 309 43 0 308 303 324 310 ?246 29 310 44
 0 309 325 304 -0.001 -0.0011 9.0e-04 16 311 45 0 ?308 305 315 312 0 0 246 30 31
2 46 0 311 316 306 0 +-0.00175 -0.0011 9.0e-04 1.0 -2.4492935982947066e-16 0.0 1
7 313 0 388 389 364 303 308 311 0 394 -17 314 0 257 258 308 264 317 315 0 338 +1
6 315 47 0 ?314 311 326 316 0 0 246 30 316 48 0 315 327 312 0 +-0.001 -0.0011 9.
0e-04 0.0 0.0 1.0 17 317 0 358 359 338 309 314 315 0 364 -14 318 49 320 1.0e-08
 339 255 322 254 319 +0 0 339 255 252 50 319 50 0 318 340 256 0 +-0.00175 -0.001
1 0.001 0.0 0.0 1.0 1.0 -2.4492935982947066e-16 0.0 81 1 320 51 6 318 0 0 341 24
9 321 83 3 321 0.734000027179718 0.7730000019073486 0.796999990940094 15 322 52
 0 323 318 0 17 323 0 322 331 335 324 328 326 0 334 -18 324 53 0 323 309 329 325
 ?246 29 325 54 0 324 330 310 -0.00165 0.0011 0.001 16 326 55 0 ?328 315 332 327
 0 0 246 30 327 56 0 326 333 316 0 +-0.00175 0.0011 0.001 1.0 -2.449293598294706
6e-16 0.0 17 328 0 472 368 349 329 323 326 0 335 +18 329 57 0 328 324 345 330 ?2
46 29 330 58 0 329 346 325 -0.9999999999999998e-03 0.0011 0.001 17 331 0 322 263
 323 259 334 332 0 0 -16 332 59 0 ?334 326 336 333 0 0 246 30 333 60 0 332 337 3
27 0 +-0.00165 -0.0011 0.001 2.4492935982947066e-16 1.0 0.0 17 334 0 343 344 271
 324 331 332 0 349 +17 335 0 322 323 263 329 338 336 0 365 +16 336 61 0 ?335 332
 347 337 0 0 246 30 337 62 0 336 348 333 0 +-0.001 -0.0011 0.001 2.4492935982947
066e-16 1.0 0.0 17 338 0 358 317 365 264 335 336 0 0 -14 339 63 341 1.0e-08 354
 318 343 254 340 +0 0 354 318 252 51 340 64 0 339 355 319 0 +-0.00165 -0.0011 9.
0e-04 2.4492935982947066e-16 1.0 0.0 1.0e-04 0.0 0.0 1.0 81 1 341 65 6 339 0 0 3
56 320 342 83 3 342 0.734000027179718 0.7730000019073486 0.796999990940094 15 34
3 66 0 334 339 0 17 344 0 343 350 334 345 349 347 0 353 +18 345 67 0 344 329 360
 346 ?246 29 346 68 0 345 361 330 -0.00175 0.0011 9.0e-04 16 347 69 0 ?344 336 3
51 348 0 0 246 31 348 70 0 347 352 337 0 +-0.00165 0.0011 9.0e-04 -2.44929359829
47066e-16 -1.0 0.0 0.0 0.0 1.0 1.0e-04 17 349 0 472 328 379 324 344 347 0 0 -17
 350 0 343 271 344 267 353 351 0 0 -16 351 71 0 ?353 347 362 352 0 0 246 30 352
 72 0 351 363 348 0 +-0.00175 -0.0011 9.0e-04 2.4492935982947066e-16 1.0 0.0 17
 353 0 373 374 277 345 350 351 0 379 +14 354 73 356 1.0e-08 369 339 358 254 355
 +0 0 369 339 252 50 355 74 0 354 370 340 0 +-0.001 -0.0011 9.0e-04 1.0 -2.44929
35982947066e-16 0.0 0.0 0.0 1.0 81 1 356 75 6 354 0 0 371 341 357 83 3 357 0.734
000027179718 0.7730000019073486 0.796999990940094 15 358 76 0 317 354 0 17 359 0
 358 365 317 360 364 362 0 368 +18 360 77 0 359 345 375 361 ?246 29 361 78 0 360
 376 346 -0.9999999999999998e-03 0.0011 9.0e-04 16 362 79 0 ?359 351 366 363 0 0
 246 30 363 80 0 362 367 352 0 +-0.001 -0.0011 9.0e-04 2.4492935982947066e-16 1.
0 0.0 17 364 0 388 313 395 309 359 362 0 0 -17 365 0 358 338 359 329 368 366 0 0
 +16 366 81 0 ?365 362 377 367 0 0 246 30 367 82 0 366 378 363 0 +-0.99999999999
99998e-03 0.0011 9.0e-04 0.0 0.0 1.0 17 368 0 472 398 328 360 365 366 0 395 -14
 369 83 371 1.0e-08 384 354 373 254 370 -0 0 384 354 252 50 370 84 0 369 385 355
 0 +-0.00175 -0.0011 0.0 1.0 -2.4492935982947066e-16 0.0 0.0 0.0 1.0 81 1 371 85
 6 369 0 0 386 356 372 83 3 372 0.734000027179718 0.7730000019073486 0.796999990
940094 15 373 86 0 353 369 0 17 374 0 373 380 353 375 379 377 0 409 -18 375 87 0
 383 360 390 376 ?246 29 376 88 0 375 391 361 -0.00175 0.0011 1.0e-04 16 377 89
 0 ?379 366 381 378 0 0 246 30 378 90 0 377 382 367 0 +-0.00175 0.0011 0.0 0.0 0
.0 1.0 17 379 0 472 349 409 345 374 377 0 0 +17 380 0 373 277 374 273 383 381 0
 0 -16 381 91 0 ?383 377 392 382 0 0 246 30 382 92 0 381 393 378 0 +-0.00175 -0.
0011 1.0e-04 2.4492935982947066e-16 1.0 0.0 17 383 0 403 404 283 375 380 381 0 3
74 +14 384 93 386 1.0e-08 399 369 388 254 385 -0 0 399 369 252 50 385 94 0 384 4
00 370 0 +-0.00175 -0.0011 9.0e-04 0.0 0.0 1.0 1.0 -2.4492935982947066e-16 0.0 8
1 1 386 95 6 384 0 0 401 371 387 83 3 387 0.734000027179718 0.7730000019073486 0
.796999990940094 15 388 96 0 364 384 0 17 389 0 388 395 313 390 394 392 0 425 +1
8 390 97 0 398 375 405 391 ?246 29 391 98 0 390 406 376 -0.00165 0.0011 9.0e-04
 16 392 99 0 ?389 381 396 393 0 0 246 30 393 100 0 392 397 382 0 +-0.00165 -0.00
11 9.0e-04 2.4492935982947066e-16 1.0 0.0 17 394 0 418 307 425 303 389 392 0 0 -
17 395 0 388 364 389 360 398 396 0 0 +16 396 101 0 ?395 392 407 397 0 0 246 30 3
97 102 0 396 408 393 0 +-0.00175 0.0011 9.0e-04 1.0 -2.4492935982947066e-16 0.0
 17 398 0 472 428 368 390 395 396 0 389 -14 399 103 401 1.0e-08 414 384 403 254
 400 +0 0 414 384 252 51 400 104 0 399 415 385 0 +-0.00165 -0.0011 1.0e-04 2.449
2935982947066e-16 1.0 0.0 1.0e-04 -1.0 2.4492935982947066e-16 0.0 81 1 401 105 6
 399 0 0 416 386 402 83 3 402 0.734000027179718 0.7730000019073486 0.79699999094
0094 15 403 106 0 383 399 0 17 404 0 403 410 383 405 409 407 0 413 +18 405 107 0
 404 390 420 406 ?246 29 406 108 0 405 421 391 -0.00165 0.0011 -1.38777878078100
01e-20 16 407 109 0 ?404 396 411 408 0 0 246 31 408 110 0 407 412 397 0 +-0.0016
5 0.0011 1.0e-04 -2.4492935982947066e-16 -1.0 0.0 0.0 0.0 1.0 1.0e-04 17 409 0 4
72 379 443 375 404 407 0 0 -17 410 0 403 283 404 279 413 411 0 0 -16 411 111 0 ?
413 407 422 412 0 0 246 30 412 112 0 411 423 408 0 +-0.00165 -0.0011 -1.38777878
07810001e-20 2.4492935982947066e-16 1.0 0.0 17 413 0 433 440 289 405 410 411 0 4
43 +14 414 113 416 1.0e-08 429 399 418 254 415 +0 0 429 399 252 50 415 114 0 414
 430 400 0 +-0.00165 -0.0011 0.0 1.0 -2.4492935982947066e-16 0.0 0.0 0.0 1.0 81
 1 416 115 6 414 0 0 431 401 417 83 3 417 0.734000027179718 0.7730000019073486 0
.796999990940094 15 418 116 0 307 414 0 17 419 0 418 425 307 420 424 422 0 428 -
18 420 117 0 419 405 438 421 ?246 29 421 118 0 420 439 406 -0.00165 0.0011 1.0e-
04 16 422 119 0 ?424 411 426 423 0 0 246 30 423 120 0 422 427 412 0 +-0.00165 -0
.0011 1.0e-04 -2.4492935982947066e-16 -1.0 0.0 17 424 0 448 301 449 297 419 422
 0 0 +17 425 0 418 394 419 390 428 426 0 0 +16 426 121 0 ?425 422 435 427 0 0 24
6 30 427 122 0 426 436 423 0 +-0.00165 0.0011 0.0 0.0 0.0 1.0 17 428 0 472 452 3
98 420 425 426 0 449 -14 429 123 431 1.0e-08 444 414 433 254 430 -0 0 444 414 25
2 50 430 124 0 429 445 415 0 +-0.00175 -0.0011 0.0 0.0 0.0 1.0 1.0 -2.4492935982
947066e-16 0.0 81 1 431 125 6 429 0 0 446 416 432 83 3 432 0.734000027179718 0.7
730000019073486 0.796999990940094 15 433 126 0 434 429 0 17 434 0 433 289 440 28
5 437 435 0 0 -16 435 127 0 ?437 426 441 436 0 0 246 30 436 128 0 435 442 427 0
 +-9.0000000000000018e-04 -0.0011 0.0 2.4492935982947066e-16 1.0 0.0 17 437 0 46
3 464 295 438 434 435 0 467 +18 438 129 0 440 420 453 439 ?246 29 439 130 0 438
 454 421 -8.9999999999999982e-04 0.0011 0.0 17 440 0 433 434 413 438 443 441 0 4
37 +16 441 131 0 ?440 435 450 442 0 0 246 30 442 132 0 441 451 436 0 +-0.00175 0
.0011 0.0 1.0 -2.4492935982947066e-16 0.0 17 443 0 472 409 467 405 440 441 0 0 -
14 444 133 446 1.0e-08 459 429 448 254 445 +0 0 459 429 252 50 445 134 0 444 460
 430 0 +-0.00175 -0.0011 1.0e-04 0.0 0.0 1.0 1.0 -2.4492935982947066e-16 0.0 81
 1 446 135 6 444 0 0 461 431 447 83 3 447 0.734000027179718 0.7730000019073486 0
.796999990940094 15 448 136 0 449 444 0 17 449 0 448 424 455 420 452 450 0 0 -16
 450 137 0 ?452 441 456 451 0 0 246 30 451 138 0 450 457 442 0 +-0.00175 0.0011
 1.0e-04 1.0 -2.4492935982947066e-16 0.0 17 452 0 472 467 428 453 449 450 0 455
 +18 453 139 0 452 438 0 454 ?246 29 454 140 0 453 0 439 -8.9999999999999982e-04
 0.0011 1.0e-04 17 455 0 448 449 301 453 458 456 0 464 +16 456 141 0 ?455 450 46
5 457 0 0 246 30 457 142 0 456 466 451 0 +-9.0000000000000018e-04 -0.0011 1.0e-0
4 2.4492935982947066e-16 1.0 0.0 17 458 0 463 295 464 291 455 456 0 0 -14 459 14
3 461 1.0e-08 468 444 463 254 460 +0 0 468 444 252 50 460 144 0 459 469 445 0 +-
9.0000000000000036e-04 -0.0011 0.0 1.0 -2.4492935982947066e-16 0.0 0.0 0.0 1.0 8
1 1 461 145 6 459 0 0 470 446 462 83 3 462 0.734000027179718 0.7730000019073486
 0.796999990940094 15 463 146 0 295 459 0 17 464 0 463 458 437 453 467 465 0 0 +
16 465 147 0 ?464 456 0 466 0 0 246 30 466 148 0 465 0 457 0 +-8.999999999999998
2e-04 0.0011 0.0 0.0 0.0 1.0 17 467 0 472 443 452 438 464 465 0 0 -14 468 149 47
0 1.0e-08 0 459 472 254 469 +0 0 0 459 252 50 469 150 0 468 0 460 0 +-0.001447 0
.0011 4.8200000000000004e-04 2.4492935982947244e-16 1.0 -6.8192601705599998e-34
 1.0 -2.4492935982947244e-16 0.0 81 1 470 151 6 468 0 0 0 461 471 83 3 471 0.734
000027179718 0.7730000019073486 0.796999990940094 15 472 152 0 443 468 0 12 473
 152 0 474 0 0 0 0 1000.0 1.0e-08 0 0 0 1 0 1 1 481 483 489 487 478 488 486 70 4
74 0 473 0 0 4 1 20 0 475 475 1 T74 20 475 1 0 476 0 0 0 0 0 0 0 0 0 0 0 0 0 0 0
 0 0 0 0 81 1 476 7 6 482 0 0 547 0 477 83 3 477 0.734000027179718 0.77300000190
73486 0.796999990940094 19 478 1 0 473 480 0 479 V13 479 2 0 473 0 0 0 0 478 482
 19 480 3 0 473 0 478 481 S13 481 4 0 473 0 482 0 0 480 0 14 482 5 476 1.0e-08 5
45 0 484 481 483 +0 0 545 0 479 50 483 6 0 482 546 0 0 +0.001402777777778 -0.001
1 4.8333333333299998e-04 -2.4492935982947066e-16 -1.0 0.0 0.0 0.0 -1.0 15 484 8
 0 485 482 0 17 485 0 484 493 541 486 490 488 0 498 +18 486 9 0 485 0 491 487 ?4
73 29 487 10 0 486 492 0 0.00165 -0.0011 -1.3877787807810001e-20 16 488 11 0 ?48
5 0 496 489 0 0 473 30 489 12 0 488 497 0 0 +7.9999999999999982e-04 -0.0011 0.0
 1.0 -2.4492935982947066e-16 0.0 17 490 0 549 550 562 491 485 488 0 541 -18 491
 13 0 490 486 494 492 ?473 29 492 14 0 491 495 487 7.9999999999999982e-04 -0.001
1 0.0 17 493 0 484 499 485 494 498 496 0 504 -18 494 15 0 493 491 500 495 ?473 2
9 495 16 0 494 501 492 0.00175 -0.0011 1.0e-04 16 496 17 0 ?498 488 502 497 0 0
 473 31 497 18 0 496 503 489 0 +0.00165 -0.0011 1.0e-04 2.4492935982947066e-16 1
.0 0.0 0.0 0.0 1.0 1.0e-04 17 498 0 570 565 577 486 493 496 0 562 +17 499 0 484
 505 493 500 504 502 0 607 +18 500 19 0 499 494 506 501 ?473 29 501 20 0 500 507
 495 0.00175 -0.0011 9.0e-04 16 502 21 0 ?499 496 508 503 0 0 473 30 503 22 0 50
2 509 497 0 +0.00175 -0.0011 0.0 0.0 0.0 1.0 17 504 0 600 580 607 494 499 502 0
 577 -17 505 0 484 511 499 506 510 508 0 516 +18 506 23 0 505 500 512 507 ?473 2
9 507 24 0 506 513 501 0.00165 -0.0011 0.001 16 508 25 0 ?505 502 514 509 0 0 47
3 31 509 26 0 508 515 503 0 +0.00165 -0.0011 9.0e-04 -2.4492935982947066e-16 -1.
0 0.0 0.0 0.0 1.0 1.0e-04 17 510 0 630 610 637 500 505 508 0 0 -17 511 0 484 517
 505 512 516 514 0 522 -18 512 27 0 511 506 518 513 ?473 29 513 28 0 512 519 507
 8.9999999999999982e-04 -0.0011 0.001 16 514 29 0 ?516 508 520 515 0 0 473 30 51
5 30 0 514 521 509 0 +0.00165 -0.0011 0.001 1.0 -2.4492935982947066e-16 0.0 17 5
16 0 660 640 667 506 511 514 0 637 +17 517 0 484 523 511 518 522 520 0 528 -18 5
18 31 0 517 512 524 519 ?473 29 519 32 0 518 525 513 8.9999999999999982e-04 -0.0
011 9.0e-04 16 520 33 0 ?522 514 526 521 0 0 473 30 521 34 0 520 527 515 0 +8.99
99999999999982e-04 -0.0011 9.0e-04 0.0 0.0 1.0 17 522 0 690 670 685 512 517 520
 0 667 +17 523 0 484 529 517 524 528 526 0 534 +18 524 35 0 523 518 530 525 ?473
 29 525 36 0 524 531 519 0.00165 -0.0011 9.0e-04 16 526 37 0 ?523 520 532 527 0
 0 473 30 527 38 0 526 533 521 0 +8.9999999999999982e-04 -0.0011 9.0e-04 1.0 -2.
4492935982947066e-16 0.0 17 528 0 675 682 651 518 523 526 0 685 -17 529 0 484 53
5 523 530 534 532 0 540 -18 530 39 0 621 524 536 531 ?473 29 531 40 0 530 537 52
5 0.00165 -0.0011 1.0e-04 16 532 41 0 ?534 526 538 533 0 0 473 30 533 42 0 532 5
39 527 0 +0.00165 -0.0011 0.0 0.0 0.0 1.0 17 534 0 645 646 621 524 529 532 0 651
 +17 535 0 484 541 529 536 540 538 0 544 -18 536 43 0 591 530 551 537 ?473 29 53
7 44 0 536 552 531 7.9999999999999982e-04 -0.0011 1.0e-04 16 538 45 0 ?540 532 5
42 539 0 0 473 30 539 46 0 538 543 533 0 +7.9999999999999982e-04 -0.0011 1.0e-04
 1.0 -2.4492935982947066e-16 0.0 17 540 0 615 616 591 530 535 538 0 0 +17 541 0
 484 485 535 491 544 542 0 555 -16 542 47 0 ?544 538 553 543 0 0 473 30 543 48 0
 542 554 539 0 +7.9999999999999982e-04 -0.0011 0.0 0.0 0.0 1.0 17 544 0 585 586
 555 536 541 542 0 0 +14 545 49 547 1.0e-08 566 482 549 481 546 +0 0 566 482 479
 50 546 50 0 545 567 483 0 +0.001275 -3.1228493378257505e-19 0.0 0.0 0.0 -1.0 -1
.0 2.4492935982947066e-16 0.0 81 1 547 51 6 545 0 0 568 476 548 83 3 548 0.73400
0027179718 0.7730000019073486 0.796999990940094 15 549 52 0 490 545 0 17 550 0 5
49 556 490 551 555 553 0 561 +18 551 53 0 592 536 557 552 ?473 29 552 54 0 551 5
58 537 8.0000000000000018e-04 0.0011 0.0 16 553 55 0 ?550 542 559 554 0 0 473 30
 554 56 0 553 560 543 0 +7.9999999999999982e-04 -0.0011 0.0 2.4492935982947066e-
16 1.0 0.0 17 555 0 585 544 592 491 550 553 0 0 -17 556 0 549 562 550 557 561 55
9 0 565 +18 557 57 0 556 551 572 558 ?473 29 558 58 0 557 573 552 0.00165 0.0011
 -1.3877787807810001e-20 16 559 59 0 ?556 553 563 560 0 0 473 30 560 60 0 559 56
4 554 0 +0.00165 0.0011 0.0 1.0 -2.4492935982947066e-16 0.0 17 561 0 699 595 576
 551 556 559 0 0 -17 562 0 549 490 556 486 565 563 0 0 -16 563 61 0 ?565 559 574
 564 0 0 473 30 564 62 0 563 575 560 0 +0.00165 -0.0011 -1.3877787807810001e-20
 2.4492935982947066e-16 1.0 0.0 17 565 0 570 571 498 557 562 563 0 576 +14 566 6
3 568 1.0e-08 581 545 570 481 567 +0 0 581 545 479 51 567 64 0 566 582 546 0 +0.
00165 -0.0011 1.0e-04 2.4492935982947066e-16 1.0 0.0 1.0e-04 1.0 -2.449293598294
7066e-16 0.0 81 1 568 65 6 566 0 0 583 547 569 83 3 569 0.734000027179718 0.7730
000019073486 0.796999990940094 15 570 66 0 498 566 0 17 571 0 570 577 565 572 57
6 574 0 580 -18 572 67 0 606 557 587 573 ?473 29 573 68 0 572 588 558 0.00175 0.
0011 1.0e-04 16 574 69 0 ?576 563 578 575 0 0 473 31 575 70 0 574 579 564 0 +0.0
0165 0.0011 1.0e-04 2.4492935982947066e-16 1.0 0.0 0.0 0.0 1.0 1.0e-04 17 576 0
 699 561 606 557 571 574 0 0 +17 577 0 570 498 571 494 580 578 0 0 -16 578 71 0
 ?580 574 589 579 0 0 473 30 579 72 0 578 590 575 0 +0.00175 -0.0011 1.0e-04 2.4
492935982947066e-16 1.0 0.0 17 580 0 600 601 504 572 577 578 0 0 +14 581 73 583
 1.0e-08 596 566 585 481 582 -0 0 596 566 479 50 582 74 0 581 597 567 0 +7.99999
99999999982e-04 -0.0011 0.0 1.0 -2.4492935982947066e-16 0.0 0.0 0.0 1.0 81 1 583
 75 6 581 0 0 598 568 584 83 3 584 0.734000027179718 0.7730000019073486 0.796999
990940094 15 585 76 0 586 581 0 17 586 0 585 592 544 587 591 589 0 622 +18 587 7
7 0 595 572 602 588 ?473 29 588 78 0 587 603 573 8.0000000000000018e-04 0.0011 1
.0e-04 16 589 79 0 ?586 578 593 590 0 0 473 30 590 80 0 589 594 579 0 +7.9999999
999999982e-04 -0.0011 1.0e-04 2.4492935982947066e-16 1.0 0.0 17 591 0 615 540 62
2 536 586 589 0 535 -17 592 0 585 555 586 551 595 593 0 550 -16 593 81 0 ?595 58
9 604 594 0 0 473 30 594 82 0 593 605 590 0 +8.0000000000000018e-04 0.0011 0.0 0
.0 0.0 1.0 17 595 0 699 625 561 587 592 593 0 586 +14 596 83 598 1.0e-08 611 581
 600 481 597 +0 0 611 581 479 50 597 84 0 596 612 582 0 +0.00175 -0.0011 0.0 1.0
 -2.4492935982947066e-16 0.0 0.0 0.0 1.0 81 1 598 85 6 596 0 0 613 583 599 83 3
 599 0.734000027179718 0.7730000019073486 0.796999990940094 15 600 86 0 504 596
 0 17 601 0 600 607 580 602 606 604 0 610 +18 602 87 0 601 587 617 603 ?473 29 6
03 88 0 602 618 588 0.00175 0.0011 9.0e-04 16 604 89 0 ?601 593 608 605 0 0 473
 30 605 90 0 604 609 594 0 +0.00175 0.0011 0.0 0.0 0.0 1.0 17 606 0 699 576 636
 572 601 604 0 571 -17 607 0 600 504 601 500 610 608 0 510 -16 608 91 0 ?610 604
 619 609 0 0 473 30 609 92 0 608 620 605 0 +0.00175 -0.0011 9.0e-04 2.4492935982
947066e-16 1.0 0.0 17 610 0 630 631 510 602 607 608 0 636 +14 611 93 613 1.0e-08
 626 596 615 481 612 +0 0 626 596 479 50 612 94 0 611 627 597 0 +7.9999999999999
982e-04 -0.0011 1.0e-04 0.0 0.0 1.0 1.0 -2.4492935982947066e-16 0.0 81 1 613 95
 6 611 0 0 628 598 614 83 3 614 0.734000027179718 0.7730000019073486 0.796999990
940094 15 615 96 0 591 611 0 17 616 0 615 622 540 617 621 619 0 625 +18 617 97 0
 616 602 632 618 ?473 29 618 98 0 617 633 603 0.00165 0.0011 1.0e-04 16 619 99 0
 ?616 608 623 620 0 0 473 30 620 100 0 619 624 609 0 +0.00165 -0.0011 1.0e-04 2.
4492935982947066e-16 1.0 0.0 17 621 0 645 534 652 530 616 619 0 529 -17 622 0 61
5 591 616 587 625 623 0 0 -16 623 101 0 ?625 619 634 624 0 0 473 30 624 102 0 62
3 635 620 0 +8.0000000000000018e-04 0.0011 1.0e-04 1.0 -2.4492935982947066e-16 0
.0 17 625 0 699 655 595 617 622 623 0 652 +14 626 103 628 1.0e-08 641 611 630 48
1 627 +0 0 641 611 479 51 627 104 0 626 642 612 0 +0.00165 -0.0011 9.0e-04 2.449
2935982947066e-16 1.0 0.0 1.0e-04 1.0 -2.4492935982947066e-16 0.0 81 1 628 105 6
 626 0 0 643 613 629 83 3 629 0.734000027179718 0.7730000019073486 0.79699999094
0094 15 630 106 0 610 626 0 17 631 0 630 637 610 632 636 634 0 640 +18 632 107 0
 631 617 647 633 ?473 29 633 108 0 632 648 618 0.00165 0.0011 0.001 16 634 109 0
 ?631 623 638 635 0 0 473 31 635 110 0 634 639 624 0 +0.00165 0.0011 9.0e-04 -2.
4492935982947066e-16 -1.0 0.0 0.0 0.0 1.0 1.0e-04 17 636 0 699 606 666 602 631 6
34 0 0 -17 637 0 630 510 631 506 640 638 0 0 -16 638 111 0 ?640 634 649 639 0 0
 473 30 639 112 0 638 650 635 0 +0.00165 -0.0011 0.001 2.4492935982947066e-16 1.
0 0.0 17 640 0 660 661 516 632 637 638 0 666 +14 641 113 643 1.0e-08 656 626 645
 481 642 -0 0 656 626 479 50 642 114 0 641 657 627 0 +0.00165 -0.0011 0.0 1.0 -2
.4492935982947066e-16 0.0 0.0 0.0 1.0 81 1 643 115 6 641 0 0 658 628 644 83 3 64
4 0.734000027179718 0.7730000019073486 0.796999990940094 15 645 116 0 646 641 0
 17 646 0 645 652 534 647 651 649 0 676 +18 647 117 0 655 632 662 648 ?473 29 64
8 118 0 647 663 633 0.00165 0.0011 9.0e-04 16 649 119 0 ?646 638 653 650 0 0 473
 30 650 120 0 649 654 639 0 +0.00165 -0.0011 9.0e-04 2.4492935982947066e-16 1.0
 0.0 17 651 0 675 528 676 524 646 649 0 0 -17 652 0 645 621 646 617 655 653 0 0
 -16 653 121 0 ?655 649 664 654 0 0 473 30 654 122 0 653 665 650 0 +0.00165 0.00
11 0.0 0.0 0.0 1.0 17 655 0 699 679 625 647 652 653 0 646 +14 656 123 658 1.0e-0
8 671 641 660 481 657 +0 0 671 641 479 50 657 124 0 656 672 642 0 +0.001325 -3.4
273177922691858e-19 0.001 0.0 0.0 1.0 1.0 -2.4492935982947066e-16 0.0 81 1 658 1
25 6 656 0 0 673 643 659 83 3 659 0.734000027179718 0.7730000019073486 0.7969999
90940094 15 660 126 0 516 656 0 17 661 0 660 667 640 662 666 664 0 670 -18 662 1
27 0 661 647 680 663 ?473 29 663 128 0 662 681 648 9.0000000000000018e-04 0.0011
 0.001 16 664 129 0 ?666 653 668 665 0 0 473 30 665 130 0 664 669 654 0 +0.00165
 0.0011 0.001 1.0 -2.4492935982947066e-16 0.0 17 666 0 699 636 694 632 661 664 0
 0 +17 667 0 660 516 661 512 670 668 0 0 -16 668 131 0 ?670 664 677 669 0 0 473
 30 669 132 0 668 678 665 0 +8.9999999999999982e-04 -0.0011 0.001 2.449293598294
7066e-16 1.0 0.0 17 670 0 690 691 522 662 667 668 0 694 +14 671 133 673 1.0e-08
 686 656 675 481 672 -0 0 686 656 479 50 672 134 0 671 687 657 0 +8.999999999999
9982e-04 -0.0011 9.0e-04 0.0 0.0 1.0 1.0 -2.4492935982947066e-16 0.0 81 1 673 13
5 6 671 0 0 688 658 674 83 3 674 0.734000027179718 0.7730000019073486 0.79699999
0940094 15 675 136 0 676 671 0 17 676 0 675 651 682 647 679 677 0 0 +16 677 137
 0 ?676 668 683 678 0 0 473 30 678 138 0 677 684 669 0 +9.0000000000000018e-04 0
.0011 9.0e-04 1.0 -2.4492935982947066e-16 0.0 17 679 0 699 694 655 680 676 677 0
 691 -18 680 139 0 682 662 0 681 ?473 29 681 140 0 680 0 663 9.0000000000000018e
-04 0.0011 9.0e-04 17 682 0 675 676 528 680 685 683 0 679 +16 683 141 0 ?682 677
 692 684 0 0 473 30 684 142 0 683 693 678 0 +8.9999999999999982e-04 -0.0011 9.0e
-04 2.4492935982947066e-16 1.0 0.0 17 685 0 690 522 691 518 682 683 0 0 -14 686
 143 688 1.0e-08 695 671 690 481 687 -0 0 695 671 479 50 687 144 0 686 696 672 0
 +8.9999999999999982e-04 -0.0011 9.0e-04 1.0 -2.4492935982947066e-16 0.0 0.0 0.0
 1.0 81 1 688 145 6 686 0 0 697 673 689 83 3 689 0.734000027179718 0.77300000190
73486 0.796999990940094 15 690 146 0 670 686 0 17 691 0 690 685 670 680 694 692
 0 0 -16 692 147 0 ?694 683 0 693 0 0 473 30 693 148 0 692 0 684 0 +9.0000000000
000018e-04 0.0011 9.0e-04 0.0 0.0 1.0 17 694 0 699 666 679 662 691 692 0 0 +14 6
95 149 697 1.0e-08 0 686 699 481 696 +0 0 0 686 479 50 696 150 0 695 0 687 0 +0.
001402777777778 0.0011 4.8333333333299998e-04 2.4492935982947035e-16 1.0 -1.4095
79429009e-32 1.0 -2.4492935982947035e-16 0.0 81 1 697 151 6 695 0 0 0 688 698 83
 3 698 0.734000027179718 0.7730000019073486 0.796999990940094 15 699 152 0 666 6
95 0 1 0 
