<svg width="55.99999976mm" height="64.99999954mm" viewBox="0 0 22047244 25590551"  version="1.1" xmlns="http://www.w3.org/2000/svg" xmlns:xlink="http://www.w3.org/1999/xlink">
<desc>
Origin 0 0 Bound 15700000 17150000 22047244 25590551
</desc>
<g fill-rule="evenodd" fill="rgb(128, 128, 0)" stroke="black" stroke-width="1" transform="translate(0, 25590551) scale(1, -1) translate(-15700000, -17150000)">
<path id="N" d="M 34874808.41 19329120.00 L 35274677.00 19329120.00 L 35312946.00 19313269.00 L 35321286.52 19293132.52 L 35336699.00 19308545.00 L 35374970.41 19324396.00 L 35474935.00 19324396.00 L 35513204.00 19308545.00 L 35613172.00 19208577.00 L 35629023.00 19170305.59 L 35629023.00 18724590.00 L 35674871.00 18724590.00 A 54118.70 54118.70 0 0 0 35674871.00 18616350.00 L 35474935.00 18616350.00 A 54118.70 54118.70 0 0 0 35474935.00 18724590.00 L 35520783.00 18724590.00 L 35520783.00 19147890.00 L 35452517.00 19216156.00 L 35397386.00 19216156.00 L 35313269.00 19132039.00 A 54121.84 54121.84 0 0 0 35236731.00 19208577.00 L 35249034.00 19220880.00 L 35005464.00 19220880.00 L 35312946.00 18913398.00 L 35328797.00 18875126.59 L 35328798.00 18775162.00 L 35312946.00 18736893.00 L 35212978.00 18636925.00 L 35174709.00 18621074.00 L 34974774.00 18621073.00 L 34936505.00 18636925.00 L 34836537.00 18736893.00 A 54121.84 54121.84 0 1 0 34913075.00 18813431.00 L 34997192.00 18729314.00 L 35152291.00 18729314.00 L 35220557.00 18797580.00 L 35220557.00 18852711.00 L 34836537.00 19236731.00 A 54119.43 54119.43 0 0 0 34874808.41 19329120.00  z"/>
<path id="N" d="M 35974776.41 19324396.00 L 36174709.00 19324396.00 L 36212978.00 19308545.00 L 36312946.00 19208577.00 L 36328797.00 19170305.59 L 36328797.00 19070341.00 L 36312946.00 19032072.00 L 36251247.00 18970373.00 L 36312946.00 18908674.00 L 36328797.00 18870402.59 L 36328797.00 18794520.55 L 36255844.00 18784916.00 L 36182051.37 18754350.37 L 36220557.00 18792856.00 L 36220557.00 18847987.00 L 36152291.00 18916253.00 L 36074741.00 18916253.00 A 54118.70 54118.70 0 0 0 36074741.00 19024493.00 L 36152291.00 19024493.00 L 36220557.00 19092759.00 L 36220557.00 19147890.00 L 36152291.00 19216156.00 L 35997192.00 19216156.00 L 35913075.00 19132039.00 A 54121.84 54121.84 0 1 0 35836537.00 19208577.00 L 35936505.00 19308545.00 L 35974776.41 19324396.00  z"/>
<path id="N" d="M 35261405.20 39987496.00 L 36250000.00 39987496.00 L 36280133.00 39975015.00 L 36292614.00 39944882.00 L 36292614.00 19645670.00 L 36280133.00 19615537.00 L 36250000.00 19603056.00 L 35250000.00 19603056.00 L 35238594.80 19607780.00 L 34250000.00 19607780.00 L 34219867.00 19620261.00 L 34207386.00 19650394.00 L 34207386.00 39949606.00 L 34219867.00 39979739.00 L 34250000.00 39992220.00 L 35250000.00 39992220.00 L 35261405.20 39987496.00  zM 36207386.00 38752662.00 L 35292614.00 38752662.00 L 35292614.00 19688284.00 L 36207386.00 19688284.00 L 36207386.00 38752662.00  zM 35207386.00 38757386.00 L 34292614.00 38757386.00 L 34292614.00 19693008.00 L 35207386.00 19693008.00 L 35207386.00 38757386.00  zM 35207386.00 39906992.00 L 34292614.00 39906992.00 L 34292614.00 38842614.00 L 35207386.00 38842614.00 L 35207386.00 39906992.00  zM 36207386.00 39902268.00 L 35292614.00 39902268.00 L 35292614.00 38837890.00 L 36207386.00 38837890.00 L 36207386.00 39902268.00  z"/>
<path id="N" d="M 34374970.41 19329120.00 L 34474935.00 19329120.00 L 34513204.00 19313269.00 L 34613172.00 19213301.00 L 34629023.00 19175029.59 L 34629023.00 18729314.00 L 34674871.00 18729314.00 A 54118.70 54118.70 0 0 0 34674871.00 18621074.00 L 34474935.00 18621074.00 A 54118.70 54118.70 0 0 0 34474935.00 18729314.00 L 34520783.00 18729314.00 L 34520783.00 19152614.00 L 34452517.00 19220880.00 L 34397386.00 19220880.00 L 34313269.00 19136763.00 A 54121.84 54121.84 0 0 0 34236731.00 19213301.00 L 34336699.00 19313269.00 L 34374970.41 19329120.00  z"/>
<path id="N" d="M 36438974.47 39295274.47 m -100354.75 0 a 100354.75 100354.75 0 1 1 200709.51 0a 100354.75 100354.75 0 1 1 -200709.51 0"/>
<path id="N" d="M 35438974.47 39299998.47 m -100354.75 0 a 100354.75 100354.75 0 1 1 200709.51 0a 100354.75 100354.75 0 1 1 -200709.51 0"/>
<path id="N" d="M 35913075.00 18808707.00 L 35997192.00 18724590.00 L 36128744.47 18724590.00 L 36060028.00 18671862.00 L 36017432.15 18616350.00 L 35974774.00 18616350.00 L 35936505.00 18632201.00 L 35836537.00 18732169.00 A 54119.43 54119.43 0 1 0 35913075.00 18808707.00  z"/>
</g>
</svg>
