<svg width="55.99999976mm" height="64.99999954mm" viewBox="0 0 22047244 25590551"  version="1.1" xmlns="http://www.w3.org/2000/svg" xmlns:xlink="http://www.w3.org/1999/xlink">
<desc>
Origin 0 0 Bound 15700000 17150000 22047244 25590551
</desc>
<g fill-rule="evenodd" fill="rgb(255, 0, 255)" stroke="black" stroke-width="1" transform="translate(0, 25590551) scale(1, -1) translate(-15700000, -17150000)">
<path id="N" d="M 37747244.00 17150000.00 L 15700000.00 17150000.00 L 15700000.00 42740551.00 L 37747244.00 42740551.00 L 37747244.00 17150000.00  zM 17077553.62 18363018.02 m -633575.98 0 a 633575.98 633575.98 0 1 1 1267151.97 0a 633575.98 633575.98 0 1 1 -1267151.97 0M 29049998.52 20300004.68 m -516579.32 0 a 516579.32 516579.32 0 1 1 1033158.64 0a 516579.32 516579.32 0 1 1 -1033158.64 0M 29049998.52 18300004.68 m -516579.32 0 a 516579.32 516579.32 0 1 1 1033158.64 0a 516579.32 516579.32 0 1 1 -1033158.64 0M 30507480.00 19757480.00 L 29592520.00 19757480.00 L 29592520.00 18842520.00 L 30507480.00 18842520.00 L 30507480.00 19757480.00  zM 31049998.52 18300004.68 m -516579.32 0 a 516579.32 516579.32 0 1 1 1033158.64 0a 516579.32 516579.32 0 1 1 -1033158.64 0M 31049998.52 20300004.68 m -516579.32 0 a 516579.32 516579.32 0 1 1 1033158.64 0a 516579.32 516579.32 0 1 1 -1033158.64 0M 34750000.12 22300002.43 m -315690.57 0 a 315690.57 315690.57 0 1 1 631381.15 0a 315690.57 315690.57 0 1 1 -631381.15 0M 34750000.12 20300002.43 m -315690.57 0 a 315690.57 315690.57 0 1 1 631381.15 0a 315690.57 315690.57 0 1 1 -631381.15 0M 34750000.12 21300002.43 m -315690.57 0 a 315690.57 315690.57 0 1 1 631381.15 0a 315690.57 315690.57 0 1 1 -631381.15 0M 34750000.12 24300002.43 m -315690.57 0 a 315690.57 315690.57 0 1 1 631381.15 0a 315690.57 315690.57 0 1 1 -631381.15 0M 34750000.12 26300002.43 m -315690.57 0 a 315690.57 315690.57 0 1 1 631381.15 0a 315690.57 315690.57 0 1 1 -631381.15 0M 34750000.12 27300002.43 m -315690.57 0 a 315690.57 315690.57 0 1 1 631381.15 0a 315690.57 315690.57 0 1 1 -631381.15 0M 34750000.12 28300002.43 m -315690.57 0 a 315690.57 315690.57 0 1 1 631381.15 0a 315690.57 315690.57 0 1 1 -631381.15 0M 36368892.62 18363018.02 m -633575.98 0 a 633575.98 633575.98 0 1 1 1267151.97 0a 633575.98 633575.98 0 1 1 -1267151.97 0M 35750000.12 20295278.43 m -315690.57 0 a 315690.57 315690.57 0 1 1 631381.15 0a 315690.57 315690.57 0 1 1 -631381.15 0M 35750000.12 21295278.43 m -315690.57 0 a 315690.57 315690.57 0 1 1 631381.15 0a 315690.57 315690.57 0 1 1 -631381.15 0M 35750000.12 22295278.43 m -315690.57 0 a 315690.57 315690.57 0 1 1 631381.15 0a 315690.57 315690.57 0 1 1 -631381.15 0M 35750000.12 23295278.43 m -315690.57 0 a 315690.57 315690.57 0 1 1 631381.15 0a 315690.57 315690.57 0 1 1 -631381.15 0M 34750000.12 23300002.43 m -315690.57 0 a 315690.57 315690.57 0 1 1 631381.15 0a 315690.57 315690.57 0 1 1 -631381.15 0M 35750000.12 24295278.43 m -315690.57 0 a 315690.57 315690.57 0 1 1 631381.15 0a 315690.57 315690.57 0 1 1 -631381.15 0M 35750000.12 25295278.43 m -315690.57 0 a 315690.57 315690.57 0 1 1 631381.15 0a 315690.57 315690.57 0 1 1 -631381.15 0M 34750000.12 25300002.43 m -315690.57 0 a 315690.57 315690.57 0 1 1 631381.15 0a 315690.57 315690.57 0 1 1 -631381.15 0M 35750000.12 26295278.43 m -315690.57 0 a 315690.57 315690.57 0 1 1 631381.15 0a 315690.57 315690.57 0 1 1 -631381.15 0M 35750000.12 27295278.43 m -315690.57 0 a 315690.57 315690.57 0 1 1 631381.15 0a 315690.57 315690.57 0 1 1 -631381.15 0M 35750000.12 28295278.43 m -315690.57 0 a 315690.57 315690.57 0 1 1 631381.15 0a 315690.57 315690.57 0 1 1 -631381.15 0M 17077553.62 41197664.02 m -633575.98 0 a 633575.98 633575.98 0 1 1 1267151.97 0a 633575.98 633575.98 0 1 1 -1267151.97 0M 34750000.12 36300002.43 m -315690.57 0 a 315690.57 315690.57 0 1 1 631381.15 0a 315690.57 315690.57 0 1 1 -631381.15 0M 34750000.12 32300002.43 m -315690.57 0 a 315690.57 315690.57 0 1 1 631381.15 0a 315690.57 315690.57 0 1 1 -631381.15 0M 34750000.12 33300002.43 m -315690.57 0 a 315690.57 315690.57 0 1 1 631381.15 0a 315690.57 315690.57 0 1 1 -631381.15 0M 34750000.12 37300002.43 m -315690.57 0 a 315690.57 315690.57 0 1 1 631381.15 0a 315690.57 315690.57 0 1 1 -631381.15 0M 35062992.00 39612992.00 L 34437008.00 39612992.00 L 34437008.00 38987008.00 L 35062992.00 38987008.00 L 35062992.00 39612992.00  zM 34750000.12 29300002.43 m -315690.57 0 a 315690.57 315690.57 0 1 1 631381.15 0a 315690.57 315690.57 0 1 1 -631381.15 0M 34750000.12 30300002.43 m -315690.57 0 a 315690.57 315690.57 0 1 1 631381.15 0a 315690.57 315690.57 0 1 1 -631381.15 0M 34750000.12 31300002.43 m -315690.57 0 a 315690.57 315690.57 0 1 1 631381.15 0a 315690.57 315690.57 0 1 1 -631381.15 0M 34750000.12 34300002.43 m -315690.57 0 a 315690.57 315690.57 0 1 1 631381.15 0a 315690.57 315690.57 0 1 1 -631381.15 0M 34750000.12 35300002.43 m -315690.57 0 a 315690.57 315690.57 0 1 1 631381.15 0a 315690.57 315690.57 0 1 1 -631381.15 0M 34750000.12 38300002.43 m -315690.57 0 a 315690.57 315690.57 0 1 1 631381.15 0a 315690.57 315690.57 0 1 1 -631381.15 0M 35750000.12 29295278.43 m -315690.57 0 a 315690.57 315690.57 0 1 1 631381.15 0a 315690.57 315690.57 0 1 1 -631381.15 0M 35750000.12 30295278.43 m -315690.57 0 a 315690.57 315690.57 0 1 1 631381.15 0a 315690.57 315690.57 0 1 1 -631381.15 0M 35750000.12 31295278.43 m -315690.57 0 a 315690.57 315690.57 0 1 1 631381.15 0a 315690.57 315690.57 0 1 1 -631381.15 0M 35750000.12 32295278.43 m -315690.57 0 a 315690.57 315690.57 0 1 1 631381.15 0a 315690.57 315690.57 0 1 1 -631381.15 0M 35750000.12 33295278.43 m -315690.57 0 a 315690.57 315690.57 0 1 1 631381.15 0a 315690.57 315690.57 0 1 1 -631381.15 0M 35750000.12 34295278.43 m -315690.57 0 a 315690.57 315690.57 0 1 1 631381.15 0a 315690.57 315690.57 0 1 1 -631381.15 0M 35750000.12 35295278.43 m -315690.57 0 a 315690.57 315690.57 0 1 1 631381.15 0a 315690.57 315690.57 0 1 1 -631381.15 0M 35750000.12 36295278.43 m -315690.57 0 a 315690.57 315690.57 0 1 1 631381.15 0a 315690.57 315690.57 0 1 1 -631381.15 0M 35750000.12 37295278.43 m -315690.57 0 a 315690.57 315690.57 0 1 1 631381.15 0a 315690.57 315690.57 0 1 1 -631381.15 0M 35750000.12 38295278.43 m -315690.57 0 a 315690.57 315690.57 0 1 1 631381.15 0a 315690.57 315690.57 0 1 1 -631381.15 0M 36062992.00 39608268.00 L 35437008.00 39608268.00 L 35437008.00 38982284.00 L 36062992.00 38982284.00 L 36062992.00 39608268.00  zM 36368892.62 41197664.02 m -633575.98 0 a 633575.98 633575.98 0 1 1 1267151.97 0a 633575.98 633575.98 0 1 1 -1267151.97 0"/>
</g>
</svg>
