<svg width="55.99999976mm" height="64.99999954mm" viewBox="0 0 22047244 25590551"  version="1.1" xmlns="http://www.w3.org/2000/svg" xmlns:xlink="http://www.w3.org/1999/xlink">
<desc>
Origin 0 0 Bound 15700000 17150000 22047244 25590551
</desc>
<g fill-rule="evenodd" fill="rgb(128, 0, 128)" stroke="black" stroke-width="1" transform="translate(0, 25590551) scale(1, -1) translate(-15700000, -17150000)">
<path id="N" d="M 37747244.00 17150000.00 L 15700000.00 17150000.00 L 15700000.00 42740551.00 L 37747244.00 42740551.00 L 37747244.00 17150000.00  zM 17077553.62 18363018.02 m -633575.98 0 a 633575.98 633575.98 0 1 1 1267151.97 0a 633575.98 633575.98 0 1 1 -1267151.97 0M 19325590.00 26778685.00 L 18439764.00 26778685.00 A 288514.96 288514.96 0 0 1 18439764.00 26201623.00 L 19325590.00 26201623.00 A 288514.96 288514.96 0 0 1 19325590.00 26778685.00  zM 19325590.00 28218063.00 L 18439764.00 28218063.00 A 288514.96 288514.96 0 0 1 18439764.00 27641001.00 L 19325590.00 27641001.00 A 288514.96 288514.96 0 0 1 19325590.00 28218063.00  zM 19325590.00 25991284.00 L 18439764.00 25991284.00 A 288522.30 288522.30 0 0 1 18439764.00 25414222.00 L 19325590.00 25414222.00 A 288522.30 288522.30 0 0 1 19325590.00 25991284.00  zM 29049998.52 20300004.68 m -516579.32 0 a 516579.32 516579.32 0 1 1 1033158.64 0a 516579.32 516579.32 0 1 1 -1033158.64 0M 29049998.52 18300004.68 m -516579.32 0 a 516579.32 516579.32 0 1 1 1033158.64 0a 516579.32 516579.32 0 1 1 -1033158.64 0M 30507480.00 19757480.00 L 29592520.00 19757480.00 L 29592520.00 18842520.00 L 30507480.00 18842520.00 L 30507480.00 19757480.00  zM 31049998.52 18300004.68 m -516579.32 0 a 516579.32 516579.32 0 1 1 1033158.64 0a 516579.32 516579.32 0 1 1 -1033158.64 0M 31049998.52 20300004.68 m -516579.32 0 a 516579.32 516579.32 0 1 1 1033158.64 0a 516579.32 516579.32 0 1 1 -1033158.64 0M 31801968.00 25481463.00 L 30798032.00 25481463.00 A 231446.07 231446.07 0 0 1 30798032.00 25018553.00 L 31801968.00 25018553.00 A 231446.07 231446.07 0 0 1 31801968.00 25481463.00  zM 31801968.00 26981460.00 L 30798032.00 26981460.00 A 231446.07 231446.07 0 0 1 30798032.00 26518550.00 L 31801968.00 26518550.00 A 231446.07 231446.07 0 0 1 31801968.00 26981460.00  zM 31801968.00 27481459.00 L 30798032.00 27481459.00 A 231446.07 231446.07 0 0 1 30798032.00 27018549.00 L 31801968.00 27018549.00 A 231446.07 231446.07 0 0 1 31801968.00 27481459.00  zM 31801968.00 28481457.00 L 30798032.00 28481457.00 A 231446.07 231446.07 0 0 1 30798032.00 28018547.00 L 31801968.00 28018547.00 A 231446.07 231446.07 0 0 1 31801968.00 28481457.00  zM 31801968.00 25981462.00 L 30798032.00 25981462.00 A 231446.07 231446.07 0 0 1 30798032.00 25518552.00 L 31801968.00 25518552.00 A 231446.07 231446.07 0 0 1 31801968.00 25981462.00  zM 31801968.00 27981458.00 L 30798032.00 27981458.00 A 231446.07 231446.07 0 0 1 30798032.00 27518548.00 L 31801968.00 27518548.00 A 231446.07 231446.07 0 0 1 31801968.00 27981458.00  zM 31801968.00 26481461.00 L 30798032.00 26481461.00 A 231446.07 231446.07 0 0 1 30798032.00 26018551.00 L 31801968.00 26018551.00 A 231446.07 231446.07 0 0 1 31801968.00 26481461.00  zM 34750000.12 24300002.43 m -315690.57 0 a 315690.57 315690.57 0 1 1 631381.15 0a 315690.57 315690.57 0 1 1 -631381.15 0M 36368892.62 18363018.02 m -633575.98 0 a 633575.98 633575.98 0 1 1 1267151.97 0a 633575.98 633575.98 0 1 1 -1267151.97 0M 35750000.12 20295278.43 m -315690.57 0 a 315690.57 315690.57 0 1 1 631381.15 0a 315690.57 315690.57 0 1 1 -631381.15 0M 34750000.12 20300002.43 m -315690.57 0 a 315690.57 315690.57 0 1 1 631381.15 0a 315690.57 315690.57 0 1 1 -631381.15 0M 34750000.12 21300002.43 m -315690.57 0 a 315690.57 315690.57 0 1 1 631381.15 0a 315690.57 315690.57 0 1 1 -631381.15 0M 35750000.12 21295278.43 m -315690.57 0 a 315690.57 315690.57 0 1 1 631381.15 0a 315690.57 315690.57 0 1 1 -631381.15 0M 34750000.12 22300002.43 m -315690.57 0 a 315690.57 315690.57 0 1 1 631381.15 0a 315690.57 315690.57 0 1 1 -631381.15 0M 35750000.12 22295278.43 m -315690.57 0 a 315690.57 315690.57 0 1 1 631381.15 0a 315690.57 315690.57 0 1 1 -631381.15 0M 34750000.12 23300002.43 m -315690.57 0 a 315690.57 315690.57 0 1 1 631381.15 0a 315690.57 315690.57 0 1 1 -631381.15 0M 35750000.12 23295278.43 m -315690.57 0 a 315690.57 315690.57 0 1 1 631381.15 0a 315690.57 315690.57 0 1 1 -631381.15 0M 35750000.12 24295278.43 m -315690.57 0 a 315690.57 315690.57 0 1 1 631381.15 0a 315690.57 315690.57 0 1 1 -631381.15 0M 35750000.12 25295278.43 m -315690.57 0 a 315690.57 315690.57 0 1 1 631381.15 0a 315690.57 315690.57 0 1 1 -631381.15 0M 34750000.12 25300002.43 m -315690.57 0 a 315690.57 315690.57 0 1 1 631381.15 0a 315690.57 315690.57 0 1 1 -631381.15 0M 35750000.12 26295278.43 m -315690.57 0 a 315690.57 315690.57 0 1 1 631381.15 0a 315690.57 315690.57 0 1 1 -631381.15 0M 34750000.12 26300002.43 m -315690.57 0 a 315690.57 315690.57 0 1 1 631381.15 0a 315690.57 315690.57 0 1 1 -631381.15 0M 35750000.12 27295278.43 m -315690.57 0 a 315690.57 315690.57 0 1 1 631381.15 0a 315690.57 315690.57 0 1 1 -631381.15 0M 34750000.12 27300002.43 m -315690.57 0 a 315690.57 315690.57 0 1 1 631381.15 0a 315690.57 315690.57 0 1 1 -631381.15 0M 35750000.12 28295278.43 m -315690.57 0 a 315690.57 315690.57 0 1 1 631381.15 0a 315690.57 315690.57 0 1 1 -631381.15 0M 19325590.00 29792865.00 L 18439764.00 29792865.00 A 288514.96 288514.96 0 1 1 18439764.00 29215803.00 L 19325590.00 29215803.00 A 288514.96 288514.96 0 1 1 19325590.00 29792865.00  zM 19325590.00 30580266.00 L 18439764.00 30580266.00 A 288522.30 288522.30 0 0 1 18439764.00 30003204.00 L 19325590.00 30003204.00 A 288522.30 288522.30 0 0 1 19325590.00 30580266.00  zM 17077553.62 41197664.02 m -633575.98 0 a 633575.98 633575.98 0 1 1 1267151.97 0a 633575.98 633575.98 0 1 1 -1267151.97 0M 19325590.00 29005464.00 L 18439764.00 29005464.00 A 288522.30 288522.30 0 0 1 18439764.00 28428402.00 L 19325590.00 28428402.00 A 288522.30 288522.30 0 0 1 19325590.00 29005464.00  zM 31801968.00 30481453.00 L 30798032.00 30481453.00 A 231446.07 231446.07 0 0 1 30798032.00 30018543.00 L 31801968.00 30018543.00 A 231446.07 231446.07 0 0 1 31801968.00 30481453.00  zM 31801968.00 28981456.00 L 30798032.00 28981456.00 A 231446.07 231446.07 0 0 1 30798032.00 28518546.00 L 31801968.00 28518546.00 A 231446.07 231446.07 0 0 1 31801968.00 28981456.00  zM 31801968.00 29481455.00 L 30798032.00 29481455.00 A 231446.07 231446.07 0 0 1 30798032.00 29018545.00 L 31801968.00 29018545.00 A 231446.07 231446.07 0 0 1 31801968.00 29481455.00  zM 31801968.00 29981454.00 L 30798032.00 29981454.00 A 231446.07 231446.07 0 0 1 30798032.00 29518544.00 L 31801968.00 29518544.00 A 231446.07 231446.07 0 0 1 31801968.00 29981454.00  zM 31801968.00 30981452.00 L 30798032.00 30981452.00 A 231446.07 231446.07 0 0 1 30798032.00 30518542.00 L 31801968.00 30518542.00 A 231446.07 231446.07 0 0 1 31801968.00 30981452.00  zM 34750000.12 28300002.43 m -315690.57 0 a 315690.57 315690.57 0 1 1 631381.15 0a 315690.57 315690.57 0 1 1 -631381.15 0M 34750000.12 30300002.43 m -315690.57 0 a 315690.57 315690.57 0 1 1 631381.15 0a 315690.57 315690.57 0 1 1 -631381.15 0M 34750000.12 31300002.43 m -315690.57 0 a 315690.57 315690.57 0 1 1 631381.15 0a 315690.57 315690.57 0 1 1 -631381.15 0M 34750000.12 33300002.43 m -315690.57 0 a 315690.57 315690.57 0 1 1 631381.15 0a 315690.57 315690.57 0 1 1 -631381.15 0M 34750000.12 34300002.43 m -315690.57 0 a 315690.57 315690.57 0 1 1 631381.15 0a 315690.57 315690.57 0 1 1 -631381.15 0M 34750000.12 36300002.43 m -315690.57 0 a 315690.57 315690.57 0 1 1 631381.15 0a 315690.57 315690.57 0 1 1 -631381.15 0M 34750000.12 37300002.43 m -315690.57 0 a 315690.57 315690.57 0 1 1 631381.15 0a 315690.57 315690.57 0 1 1 -631381.15 0M 35062992.00 39612992.00 L 34437008.00 39612992.00 L 34437008.00 38987008.00 L 35062992.00 38987008.00 L 35062992.00 39612992.00  zM 34750000.12 29300002.43 m -315690.57 0 a 315690.57 315690.57 0 1 1 631381.15 0a 315690.57 315690.57 0 1 1 -631381.15 0M 35750000.12 29295278.43 m -315690.57 0 a 315690.57 315690.57 0 1 1 631381.15 0a 315690.57 315690.57 0 1 1 -631381.15 0M 35750000.12 30295278.43 m -315690.57 0 a 315690.57 315690.57 0 1 1 631381.15 0a 315690.57 315690.57 0 1 1 -631381.15 0M 35750000.12 31295278.43 m -315690.57 0 a 315690.57 315690.57 0 1 1 631381.15 0a 315690.57 315690.57 0 1 1 -631381.15 0M 34750000.12 32300002.43 m -315690.57 0 a 315690.57 315690.57 0 1 1 631381.15 0a 315690.57 315690.57 0 1 1 -631381.15 0M 35750000.12 32295278.43 m -315690.57 0 a 315690.57 315690.57 0 1 1 631381.15 0a 315690.57 315690.57 0 1 1 -631381.15 0M 35750000.12 33295278.43 m -315690.57 0 a 315690.57 315690.57 0 1 1 631381.15 0a 315690.57 315690.57 0 1 1 -631381.15 0M 35750000.12 34295278.43 m -315690.57 0 a 315690.57 315690.57 0 1 1 631381.15 0a 315690.57 315690.57 0 1 1 -631381.15 0M 34750000.12 35300002.43 m -315690.57 0 a 315690.57 315690.57 0 1 1 631381.15 0a 315690.57 315690.57 0 1 1 -631381.15 0M 35750000.12 35295278.43 m -315690.57 0 a 315690.57 315690.57 0 1 1 631381.15 0a 315690.57 315690.57 0 1 1 -631381.15 0M 35750000.12 36295278.43 m -315690.57 0 a 315690.57 315690.57 0 1 1 631381.15 0a 315690.57 315690.57 0 1 1 -631381.15 0M 35750000.12 37295278.43 m -315690.57 0 a 315690.57 315690.57 0 1 1 631381.15 0a 315690.57 315690.57 0 1 1 -631381.15 0M 34750000.12 38300002.43 m -315690.57 0 a 315690.57 315690.57 0 1 1 631381.15 0a 315690.57 315690.57 0 1 1 -631381.15 0M 35750000.12 38295278.43 m -315690.57 0 a 315690.57 315690.57 0 1 1 631381.15 0a 315690.57 315690.57 0 1 1 -631381.15 0M 36062992.00 39608268.00 L 35437008.00 39608268.00 L 35437008.00 38982284.00 L 36062992.00 38982284.00 L 36062992.00 39608268.00  zM 36368892.62 41197664.02 m -633575.98 0 a 633575.98 633575.98 0 1 1 1267151.97 0a 633575.98 633575.98 0 1 1 -1267151.97 0"/>
</g>
</svg>
