<svg width="55.99999976mm" height="64.99999954mm" viewBox="0 0 22047244 25590551"  version="1.1" xmlns="http://www.w3.org/2000/svg" xmlns:xlink="http://www.w3.org/1999/xlink">
<desc>
Origin 0 0 Bound 15700000 17150000 22047244 25590551
</desc>
<g fill-rule="evenodd" fill="rgb(255, 255, 0)" stroke="black" stroke-width="1" transform="translate(0, 25590551) scale(1, -1) translate(-15700000, -17150000)">
<path id="N" d="M 29034839.00 21740686.00 L 28988991.00 21740686.00 L 28988992.00 21294968.00 L 28973140.00 21256699.00 L 28873172.00 21156731.00 L 28834903.00 21140880.00 L 28734936.00 21140879.00 L 28696667.00 21156731.00 L 28596699.00 21256699.00 A 54121.84 54121.84 0 0 0 28673237.00 21333237.00 L 28757354.00 21249120.00 L 28812485.00 21249120.00 L 28880751.00 21317386.00 L 28880751.00 21740686.00 L 28834903.00 21740686.00 A 54118.70 54118.70 0 0 0 28834903.00 21848926.00 L 29034839.00 21848926.00 A 54121.84 54121.84 0 0 0 29034839.00 21740686.00  z"/>
<path id="N" d="M 29388862.00 21794803.59 L 29388862.00 21249120.00 L 29434709.00 21249120.00 A 54118.70 54118.70 0 0 0 29434709.00 21140880.00 L 29234774.00 21140880.00 A 54118.70 54118.70 0 0 0 29234774.00 21249120.00 L 29280622.00 21249120.00 L 29280622.00 21664148.00 L 29273043.00 21656569.00 A 54121.84 54121.84 0 0 0 29196505.00 21733107.00 L 29296473.00 21833075.00 A 54119.43 54119.43 0 0 0 29388862.00 21794803.59  z"/>
<path id="N" d="M 18010459.00 25204809.00 L 18010459.00 25004874.00 A 54118.70 54118.70 0 0 0 17902219.00 25004874.00 L 17902219.00 25050722.00 L 17487191.00 25050722.00 L 17494770.00 25043143.00 A 54121.84 54121.84 0 0 0 17418232.00 24966605.00 L 17318264.00 25066573.00 A 54119.43 54119.43 0 0 0 17356535.41 25158962.00 L 17902219.00 25158962.00 L 17902219.00 25204809.00 A 54118.70 54118.70 0 0 0 18010459.00 25204809.00  z"/>
<path id="N" d="M 17894640.00 24843208.00 L 17994608.00 24743240.00 L 18010459.00 24704968.59 L 18010459.00 24505036.00 L 17994608.00 24466767.00 L 17894640.00 24366799.00 L 17856368.59 24350948.00 L 17356533.00 24350948.00 A 54118.70 54118.70 0 0 0 17356533.00 24459188.00 L 17833953.00 24459188.00 L 17902219.00 24527454.00 L 17902219.00 24682553.00 L 17833953.00 24750819.00 L 17356533.00 24750819.00 A 54118.70 54118.70 0 0 0 17356533.00 24859059.00 L 17856371.00 24859059.00 L 17894640.00 24843208.00  z"/>
<path id="N" d="M 31325633.00 17670330.00 L 31338114.00 17640197.00 L 31338114.00 14700000.00 L 31325633.00 14669867.00 L 31295500.00 14657386.00 L 28804500.00 14657386.00 L 28774367.00 14669867.00 L 28761886.00 14700000.00 L 28761886.00 17640197.00 L 28774367.00 17670330.00 L 28804500.00 17682811.00 L 28834633.00 17670330.00 L 28847114.00 17640197.00 L 28847114.00 14742614.00 L 31252886.00 14742614.00 L 31252886.00 17640197.00 L 31265367.00 17670330.00 L 31295500.00 17682811.00 L 31325633.00 17670330.00  z"/>
<path id="N" d="M 31541337.47 24600001.47 m -100354.75 0 a 100354.75 100354.75 0 1 1 200709.51 0a 100354.75 100354.75 0 1 1 -200709.51 0"/>
<path id="N" d="M 28534250.47 19316140.47 m -100354.75 0 a 100354.75 100354.75 0 1 1 200709.51 0a 100354.75 100354.75 0 1 1 -200709.51 0"/>
<path id="N" d="M 21607692.00 31655325.00 L 21620173.00 31625192.00 L 21607692.00 31595059.00 L 21577559.00 31582578.00 L 18835572.64 31582578.00 L 18811811.00 31572736.00 L 18781678.00 31585217.00 L 18769197.00 31615350.00 L 18769197.00 31625192.00 L 18781678.00 31655325.00 L 18811811.00 31667806.00 L 21577559.00 31667806.00 L 21607692.00 31655325.00  z"/>
<path id="N" d="M 31330526.00 24626585.00 L 31343007.00 24596452.00 L 31343007.00 24586610.00 L 31330526.00 24556477.00 L 31300393.00 24543996.00 L 28534645.00 24543996.00 L 28504512.00 24556477.00 L 28492031.00 24586610.00 L 28504512.00 24616743.00 L 28534645.00 24629224.00 L 31276631.36 24629224.00 L 31300393.00 24639066.00 L 31330526.00 24626585.00  z"/>
<path id="N" d="M 18885572.64 24879224.00 L 21627559.00 24879224.00 L 21657692.00 24866743.00 L 21670173.00 24836610.00 L 21657692.00 24806477.00 L 21627559.00 24793996.00 L 18861811.00 24793996.00 L 18831678.00 24806477.00 L 18819197.00 24836610.00 L 18819197.00 24846452.00 L 18831678.00 24876585.00 L 18861811.00 24889066.00 L 18885572.64 24879224.00  z"/>
<path id="N" d="M 31330526.00 31505325.00 L 31343007.00 31475192.00 L 31343007.00 31465350.00 L 31330526.00 31435217.00 L 31300393.00 31422736.00 L 31276631.36 31432578.00 L 28534645.00 31432578.00 L 28504512.00 31445059.00 L 28492031.00 31475192.00 L 28504512.00 31505325.00 L 28534645.00 31517806.00 L 31300393.00 31517806.00 L 31330526.00 31505325.00  z"/>
<path id="N" d="M 31325633.00 19670330.00 L 31338114.00 19640197.00 L 31338114.00 18959803.00 L 31325633.00 18929670.00 L 31295500.00 18917189.00 L 31265367.00 18929670.00 L 31252886.00 18959803.00 L 31252886.00 19640197.00 L 31265367.00 19670330.00 L 31295500.00 19682811.00 L 31325633.00 19670330.00  z"/>
<path id="N" d="M 30420330.00 20730133.00 L 30432811.00 20700000.00 L 30420330.00 20669867.00 L 30390197.00 20657386.00 L 29709803.00 20657386.00 L 29679670.00 20669867.00 L 29667189.00 20700000.00 L 29679670.00 20730133.00 L 29709803.00 20742614.00 L 30390197.00 20742614.00 L 30420330.00 20730133.00  z"/>
<path id="N" d="M 28834633.00 19670330.00 L 28847114.00 19640197.00 L 28847114.00 18959803.00 L 28834633.00 18929670.00 L 28804500.00 18917189.00 L 28774367.00 18929670.00 L 28761886.00 18959803.00 L 28761886.00 19640197.00 L 28774367.00 19670330.00 L 28804500.00 19682811.00 L 28834633.00 19670330.00  z"/>
</g>
</svg>
