<svg width="52.00000268mm" height="45.00000144mm" viewBox="0 0 20472442 17716536"  version="1.1" xmlns="http://www.w3.org/2000/svg" xmlns:xlink="http://www.w3.org/1999/xlink">
<desc>
Origin 0 0 Bound 2500 2499 20472442 17716536
</desc>
<g fill-rule="evenodd" fill="rgb(128, 128, 0)" stroke="black" stroke-width="1" transform="translate(0, 17716536) scale(1, -1) translate(-2500, -2499)">
<path id="N" d="M 10414190.00 16149333.00 L 10478380.00 16149333.00 L 10478380.00 16085143.00 L 10542571.00 16085143.00 L 10542571.00 16020952.00 L 10606761.00 16020952.00 L 10606761.00 15956762.00 L 10542571.00 15956762.00 L 10542571.00 16020952.00 L 10478380.00 16020952.00 L 10478380.00 16085143.00 L 10414190.00 16085143.00 L 10414190.00 16149333.00 L 10285809.00 16149333.00 L 10285809.00 16020952.00 L 10350000.00 16020952.00 L 10350000.00 15956762.00 L 10285809.00 15956762.00 L 10285809.00 15892572.00 L 10350000.00 15892572.00 L 10350000.00 15828381.00 L 10478380.00 15828381.00 L 10478380.00 15764191.00 L 10414190.00 15764191.00 L 10414190.00 15700000.00 L 10542571.00 15700000.00 L 10542571.00 15635810.00 L 10670952.00 15635810.00 L 10670952.00 15700000.00 L 10542571.00 15700000.00 L 10542571.00 15828381.00 L 10606761.00 15828381.00 L 10606761.00 15764191.00 L 10735142.00 15764191.00 L 10735142.00 15956762.00 L 10799332.00 15956762.00 L 10799332.00 15828381.00 L 10863523.00 15828381.00 L 10863523.00 15700000.00 L 10927713.00 15700000.00 L 10927713.00 15764191.00 L 11184474.00 15764191.00 L 11184474.00 15700000.00 L 10991903.00 15700000.00 L 10991903.00 15635810.00 L 11184474.00 15635810.00 L 11184474.00 15571620.00 L 11120284.00 15571620.00 L 11120284.00 15507429.00 L 11184474.00 15507429.00 L 11184474.00 15443239.00 L 11248665.00 15443239.00 L 11248665.00 15314858.00 L 11312855.00 15314858.00 L 11312855.00 15250668.00 L 11377045.00 15250668.00 L 11377045.00 15122287.00 L 11312855.00 15122287.00 L 11312855.00 15186478.00 L 11056094.00 15186478.00 L 11056094.00 15250668.00 L 10991903.00 15250668.00 L 10991903.00 15314858.00 L 10927713.00 15314858.00 L 10927713.00 15250668.00 L 10863523.00 15250668.00 L 10863523.00 15314858.00 L 10542571.00 15314858.00 L 10542571.00 15379049.00 L 10414190.00 15379049.00 L 10414190.00 15443239.00 L 10285809.00 15443239.09 L 10285809.00 15571620.00 L 10221619.00 15571620.00 L 10221619.00 15635810.00 L 10157429.00 15635810.00 L 10157429.00 15700000.00 L 10093238.00 15700000.00 L 10093238.00 15764191.00 L 10157429.00 15764191.00 L 10157429.00 15828381.00 L 10093238.00 15828381.00 L 10093238.00 15892572.00 L 9964858.00 15892572.00 L 9964858.00 16085143.00 L 10029048.00 16085143.00 L 10029048.00 16020952.00 L 10093238.00 16020952.00 L 10093238.00 15956762.00 L 10157429.00 15956762.00 L 10157429.00 16020952.00 L 10093238.00 16020952.00 L 10093238.00 16085143.00 L 10029048.00 16085143.00 L 10029048.00 16149333.00 L 10221619.00 16149333.00 L 10221619.00 16213523.00 L 10414190.00 16213523.00 L 10414190.00 16149333.00  zM 10285809.43 15892571.52 L 10221619.09 15892571.52 L 10221619.09 15828381.17 L 10285809.43 15828381.17 L 10285809.43 15892571.52  zM 10349999.78 15764190.83 L 10221619.09 15764190.83 L 10221619.09 15700000.48 L 10349999.78 15700000.48 L 10349999.78 15764190.83  zM 10735141.87 15571619.78 L 10606761.17 15571619.78 L 10606761.17 15507429.43 L 10735141.87 15507429.43 L 10735141.87 15571619.78  zM 10927712.91 15635810.13 L 10863522.57 15635810.13 L 10863522.57 15571619.78 L 10799332.22 15571619.78 L 10799332.22 15635810.13 L 10735141.87 15635810.13 L 10735141.87 15571619.78 L 10799332.22 15571619.78 L 10799332.22 15507429.43 L 10863522.57 15507429.43 L 10927712.91 15571619.78 L 10927712.91 15635810.13  zM 11056093.61 15507429.43 L 10927712.91 15507429.43 L 10927712.91 15443239.09 L 11056093.61 15443239.09 L 11056093.61 15379048.74 L 11120283.96 15379048.74 L 11120283.96 15443239.09 L 11056093.61 15443239.09 L 11056093.61 15507429.43  z"/>
<path id="N" d="M 11505426.00 11399247.00 L 11569616.00 11399247.00 L 11569616.00 11270866.00 L 11441236.00 11270866.00 L 11441236.00 11206676.00 L 11377045.00 11206676.00 L 11377045.00 11142486.00 L 11312855.00 11142486.00 L 11312855.00 11078295.00 L 11184474.00 11078295.00 L 11184474.00 11014105.00 L 11120284.00 11014105.00 L 11120284.00 10949915.00 L 11056094.00 10949915.00 L 11056094.00 10885724.00 L 10927713.00 10885724.00 L 10927713.00 10949915.00 L 10799332.00 10949915.00 L 10799332.00 10821534.00 L 10670952.00 10821534.00 L 10670952.00 10885724.00 L 10606761.00 10885724.00 L 10606761.00 10949915.00 L 10478380.00 10949915.00 L 10478380.00 10885724.00 L 10606761.00 10885724.00 L 10606761.00 10821534.00 L 10670952.00 10821534.00 L 10670952.00 10757344.00 L 10542571.00 10757344.00 L 10542571.00 10821534.00 L 10285809.00 10821534.00 L 10285809.00 10757344.00 L 10221619.00 10757344.00 L 10221619.00 10885724.00 L 10029048.00 10885724.00 L 10029048.00 10757344.00 L 9964858.00 10757344.00 L 9964858.00 10821534.00 L 9900667.00 10821534.00 L 9900667.00 10885724.00 L 9836477.00 10885724.00 L 9836477.00 10949915.00 L 9772287.00 10949915.00 L 9772287.00 11014105.00 L 9708096.00 11014105.00 L 9708096.00 11078295.00 L 9515525.00 11078295.00 L 9515525.00 11206676.00 L 9451335.00 11206676.00 L 9451335.00 11270866.00 L 9387145.00 11270866.00 L 9387145.00 11335057.00 L 9322954.00 11335057.00 L 9322954.00 11399247.00 L 9258764.00 11399247.00 L 9258764.00 11463438.00 L 9515525.00 11463438.00 L 9515525.00 11335057.00 L 9579716.00 11335057.00 L 9579716.00 11270866.00 L 9643906.00 11270866.00 L 9643906.00 11335057.00 L 9708096.00 11335057.00 L 9708096.00 11270866.00 L 9772287.00 11270866.00 L 9772287.00 11206676.00 L 9836477.00 11206676.00 L 9836477.00 11270866.00 L 9900667.00 11270866.00 L 9900667.00 11142486.00 L 10029048.00 11142486.00 L 10029048.00 11014105.00 L 10093238.00 11014105.00 L 10093238.00 11142486.00 L 10157429.00 11142486.00 L 10157429.00 11078295.00 L 10350000.00 11078295.00 L 10350000.00 10949915.00 L 10414190.00 10949915.00 L 10414190.00 11014105.00 L 10542571.00 11014105.00 L 10542571.00 11078295.00 L 10606761.00 11078295.00 L 10606761.00 11014105.00 L 10670952.00 11014105.00 L 10670952.00 11078295.00 L 10735142.00 11078295.00 L 10735142.00 11142486.00 L 10606761.00 11142486.00 L 10606761.00 11206676.00 L 10735142.00 11206676.00 L 10735142.00 11142486.00 L 10799332.00 11142486.00 L 10799332.00 11078295.00 L 10863523.00 11078295.00 L 10863523.00 11270866.00 L 10927713.00 11270866.00 L 10927713.00 11206676.00 L 10991903.00 11206676.00 L 10991903.00 11270866.00 L 11056094.00 11270866.00 L 11056094.00 11335057.00 L 11505426.00 11335057.00 L 11505426.00 11399247.00 L 11441236.00 11399247.00 L 11441236.00 11463438.00 L 11505426.00 11463438.00 L 11505426.00 11399247.00  zM 10991903.26 11142485.78 L 10927712.91 11142485.78 L 10927712.91 11078295.43 L 10991903.26 11078295.43 L 10991903.26 11142485.78  z"/>
<path id="N" d="M 9515525.00 15764191.00 L 9579716.00 15764191.00 L 9579716.00 15700000.00 L 9643906.00 15700000.00 L 9643906.00 15635810.00 L 9579716.00 15635810.00 L 9579716.00 15571620.00 L 9836477.00 15571620.00 L 9836477.00 15635810.00 L 9964858.00 15635810.00 L 9964858.00 15700000.00 L 10029048.00 15700000.00 L 10029048.00 15507429.00 L 9964858.00 15507429.00 L 9964858.00 15443239.00 L 10093238.00 15443239.00 L 10093238.00 15314858.00 L 10029048.00 15314858.00 L 10029048.00 15379049.00 L 9900667.00 15379049.00 L 9900667.00 15443239.00 L 9836477.00 15443239.00 L 9836477.00 15314858.00 L 9643906.00 15314858.00 L 9643905.96 15379049.00 L 9515525.00 15379049.00 L 9515525.00 15250668.00 L 9451335.00 15250668.00 L 9451335.00 15122287.00 L 9387145.00 15122287.00 L 9387145.00 14993907.00 L 9322954.00 14993907.00 L 9322954.00 14801336.00 L 9258764.00 14801336.00 L 9258764.00 14672955.00 L 9194574.00 14672955.00 L 9194574.00 14416194.00 L 9130383.00 14416194.00 L 9130383.00 14352003.00 L 9066193.00 14352003.00 L 9066193.00 14287813.00 L 9002002.00 14287813.00 L 9002002.00 14352003.00 L 8937812.00 14352003.00 L 8937812.00 14737145.00 L 9002002.00 14737145.00 L 9002002.00 14865526.00 L 8873622.00 14865526.00 L 8873622.00 14801336.00 L 8809431.00 14801336.00 L 8809431.00 14865526.00 L 8745241.00 14865526.00 L 8745241.00 14993907.00 L 8809431.00 14993907.00 L 8809431.00 15058097.00 L 8873622.00 15058097.00 L 8873622.00 15122287.00 L 8937812.00 15122287.00 L 8937812.00 15186478.00 L 9002002.00 15186478.00 L 9002002.00 15379049.00 L 9130383.00 15379049.00 L 9130383.00 15443239.00 L 9194574.00 15443239.00 L 9194574.00 15379049.00 L 9258764.00 15379049.00 L 9258764.00 15443239.00 L 9194574.00 15443239.00 L 9194574.00 15507429.00 L 9258764.00 15507429.00 L 9258764.00 15571620.00 L 9322954.00 15571620.00 L 9322954.00 15379049.00 L 9387145.00 15379049.00 L 9387145.00 15571620.00 L 9451335.00 15571620.00 L 9451335.00 15507429.00 L 9579716.00 15507429.00 L 9579716.00 15571620.00 L 9451335.00 15571620.00 L 9451335.00 15700000.00 L 9322954.00 15700000.00 L 9322954.00 15828381.00 L 9387145.00 15828381.00 L 9387145.00 15764191.00 L 9451335.00 15764191.00 L 9451335.00 15828381.00 L 9515525.00 15828381.00 L 9515525.00 15764191.00  zM 9130383.17 15058097.00 L 9066192.83 15058097.00 L 9066192.83 14993906.65 L 9130383.17 14993906.65 L 9130383.17 15058097.00  zM 9708096.30 15443239.09 L 9643905.96 15443239.09 L 9643906.00 15379048.74 L 9708096.30 15379048.74 L 9708096.30 15443239.09  zM 9772286.65 15507429.43 L 9708096.30 15507429.43 L 9708096.30 15443239.09 L 9772286.65 15443239.09 L 9772286.65 15507429.43  z"/>
<path id="N" d="M 11505426.00 15571620.00 L 11633807.00 15571620.00 L 11633807.00 15635810.00 L 11826378.00 15635810.00 L 11826378.00 15571620.00 L 11890568.00 15571620.00 L 11890568.00 15507429.00 L 11954758.00 15507429.00 L 11954758.00 15443239.00 L 12018949.00 15443239.00 L 12018949.00 15379049.00 L 12083139.00 15379049.00 L 12083139.00 15250668.00 L 12147330.00 15250668.00 L 12147330.00 15058097.00 L 12211520.00 15058097.00 L 12211520.00 14801336.00 L 12275710.00 14801336.00 L 12275710.00 14416194.00 L 12211520.00 14416194.00 L 12211520.00 14031051.00 L 12147330.00 14031051.00 L 12147330.00 14159432.00 L 12083139.00 14159432.00 L 12083139.00 14223622.00 L 12147330.00 14223622.00 L 12147330.00 14287813.00 L 12083139.00 14287813.00 L 12083139.00 14416194.00 L 12018949.00 14416194.00 L 12018949.00 14608765.00 L 11954758.00 14608765.00 L 11954758.00 14544574.00 L 11890568.00 14544574.00 L 11890568.00 14480384.00 L 11762187.00 14480384.00 L 11762187.00 14544574.00 L 11826378.00 14544574.00 L 11826378.00 14608765.00 L 11890568.00 14608765.00 L 11890568.00 14672955.00 L 11762187.00 14672955.00 L 11762187.00 14608765.00 L 11697997.00 14608765.00 L 11697997.00 14737145.00 L 11890568.00 14737145.00 L 11890568.00 14672955.00 L 11954758.00 14672955.00 L 11954758.00 14801336.00 L 12018949.00 14801336.00 L 12018949.00 14865526.00 L 11954758.00 14865526.00 L 11954758.00 14929716.00 L 12083139.00 14929716.00 L 12083139.00 14993907.00 L 12018949.00 14993907.00 L 12018949.00 15186478.00 L 12083139.00 15186478.00 L 12083139.00 15250668.00 L 12018949.00 15250668.00 L 12018949.00 15379049.00 L 11954758.00 15379049.00 L 11954758.00 15443239.00 L 11826378.00 15443239.00 L 11826378.00 15379049.00 L 11762187.00 15379049.00 L 11762187.00 15507429.00 L 11697997.00 15507429.00 L 11697997.00 15379049.00 L 11633807.00 15379049.00 L 11633807.00 15443239.00 L 11569616.00 15443239.00 L 11569616.00 15379049.00 L 11441236.00 15379049.00 L 11441236.00 15314858.00 L 11377045.00 15314858.00 L 11377045.00 15443239.00 L 11312855.00 15443239.00 L 11312855.00 15571620.00 L 11377045.00 15571620.00 L 11377045.00 15507429.00 L 11441236.00 15507429.00 L 11441236.00 15571620.00 L 11377045.00 15571620.00 L 11377045.00 15635810.00 L 11312855.00 15635810.00 L 11312855.00 15700000.00 L 11377045.00 15700000.00 L 11377045.00 15635810.00 L 11441236.00 15635810.00 L 11441236.00 15700000.00 L 11505426.00 15700000.00 L 11505426.00 15571620.00  zM 12147329.52 14608764.57 L 12083139.17 14608764.57 L 12083139.17 14544574.22 L 12147329.52 14544574.22 L 12147329.52 14608764.57  z"/>
<path id="N" d="M 10991903.00 13132387.00 L 11056094.00 13132387.00 L 11056094.00 13068196.00 L 10991903.00 13068196.00 L 10991903.00 13004006.00 L 11056094.00 13004006.00 L 11056094.00 12618864.00 L 11120284.00 12618864.00 L 11120284.00 12490483.00 L 11184474.00 12490483.00 L 11184474.00 12426293.00 L 11248665.00 12426293.00 L 11248665.00 12362102.00 L 11312855.00 12362102.00 L 11312855.00 12233722.00 L 11377045.00 12233722.00 L 11377045.00 12105341.00 L 10863523.00 12105341.00 L 10863523.00 12169531.00 L 10799332.00 12169531.00 L 10799332.00 12233722.00 L 10863523.00 12233722.00 L 10863523.00 12169531.00 L 11056094.00 12169531.00 L 11056094.00 12233722.00 L 11120284.00 12233722.00 L 11120284.00 12297912.00 L 10991903.00 12297912.00 L 10991903.00 12362102.00 L 11056094.00 12362102.00 L 11056094.00 12426293.00 L 10927713.00 12426293.00 L 10927713.00 12490483.00 L 10606761.00 12490483.00 L 10606761.00 12426293.00 L 10542571.00 12426293.00 L 10542571.00 12490483.00 L 10478380.00 12490483.00 L 10478380.00 12618864.00 L 10414190.00 12618864.00 L 10414190.00 12747244.00 L 10478380.00 12747244.00 L 10478380.00 12683054.00 L 10670952.00 12683054.00 L 10670952.00 12875625.00 L 10606761.00 12875625.00 L 10606761.00 12939816.00 L 10735142.00 12939816.00 L 10735142.00 12875625.00 L 10799332.00 12875625.00 L 10799332.00 12939816.00 L 10735142.00 12939816.00 L 10735142.00 13004006.00 L 10863523.00 13004006.00 L 10863523.00 12875625.00 L 10927713.00 12875625.00 L 10927713.00 13068196.00 L 10799332.00 13068196.00 L 10799332.00 13196577.00 L 10735142.00 13196577.00 L 10735142.00 13260767.00 L 10799332.00 13260767.00 L 10799332.00 13196577.00 L 10863523.00 13196577.00 L 10863523.00 13324958.00 L 10991903.00 13324958.00 L 10991903.00 13132387.00  zM 11056093.61 12554673.43 L 10991903.26 12554673.43 L 10991903.26 12490483.09 L 11056093.61 12490483.09 L 11056093.61 12554673.43  zM 11248664.65 12233721.70 L 11184474.30 12233721.70 L 11184474.30 12169531.35 L 11248664.65 12169531.35 L 11248664.65 12233721.70  zM 10606761.17 12618863.78 L 10542570.83 12618863.78 L 10542570.83 12554673.43 L 10606761.17 12554673.43 L 10606761.17 12618863.78  zM 10799332.22 12618863.78 L 10735141.87 12618863.78 L 10735141.87 12554673.43 L 10799332.22 12554673.43 L 10799332.22 12618863.78  zM 10927712.91 12618863.78 L 10863522.57 12618863.78 L 10863522.57 12554673.43 L 10927712.91 12554673.43 L 10927712.91 12618863.78  zM 10991903.26 12811434.83 L 10927712.91 12811434.83 L 10927712.91 12618863.78 L 10991903.26 12618863.78 L 10991903.26 12811434.83  z"/>
<path id="N" d="M 11633807.00 14159432.00 L 11697997.00 14159432.00 L 11697997.00 14095242.00 L 11762187.00 14095242.00 L 11762187.00 14223622.00 L 11826378.00 14223622.00 L 11826378.00 14159432.00 L 11890568.00 14159432.00 L 11890568.00 14031051.00 L 11954758.00 14031051.00 L 11954758.00 13902671.00 L 12018949.00 13902671.00 L 12018949.00 14031051.00 L 12147330.00 14031051.00 L 12147330.00 13966861.00 L 12211520.00 13966861.00 L 12211520.00 13774290.00 L 12275710.00 13774290.00 L 12275710.00 13710100.00 L 12211520.00 13710100.00 L 12211520.00 13453338.00 L 12147330.00 13453338.00 L 12147330.00 13260767.00 L 12083139.00 13260767.00 L 12083139.00 13710100.00 L 12147330.00 13710100.00 L 12147330.00 13838480.00 L 12083139.00 13838480.00 L 12083139.00 13774290.00 L 11954758.00 13774290.00 L 11954758.00 13902671.00 L 11890568.00 13902671.00 L 11890568.00 13966861.00 L 11826378.00 13966861.00 L 11826378.00 14031051.00 L 10927713.00 14031051.00 L 10927713.00 13966861.00 L 10863523.00 13966861.00 L 10863523.00 13902671.00 L 10799332.00 13902671.00 L 10799332.00 13774290.00 L 10863523.00 13774290.00 L 10863523.00 13710100.00 L 10927713.00 13710100.00 L 10927713.00 13645909.00 L 10863523.00 13645909.00 L 10863523.00 13517529.00 L 10735142.00 13517529.00 L 10735142.00 13710100.00 L 10670952.00 13710100.00 L 10670952.00 13774290.00 L 10735142.00 13774290.00 L 10735142.00 13838480.00 L 10670952.00 13838480.00 L 10670952.00 13902671.00 L 10542571.00 13902671.00 L 10542571.00 13966861.00 L 10735142.00 13966861.00 L 10735142.00 14031051.00 L 10670952.00 14031051.00 L 10670952.00 14095242.00 L 10735142.00 14095242.00 L 10735142.00 14031051.00 L 10863523.00 14031051.00 L 10863523.00 14159432.00 L 10799332.00 14159432.00 L 10799332.00 14223622.00 L 10863523.00 14223622.00 L 10863523.00 14159432.00 L 10927713.00 14159432.00 L 10927713.00 14223622.00 L 11056094.00 14223622.00 L 11056094.00 14095242.00 L 11120284.00 14095242.00 L 11120284.00 14223622.00 L 11377045.00 14223622.00 L 11377045.00 14287813.00 L 11633807.00 14287813.00 L 11633807.00 14159432.00  zM 11633807.00 14159432.00 L 11505426.00 14159432.00 L 11505426.00 14095242.00 L 11633807.00 14095242.00 L 11633807.00 14159432.00  z"/>
<path id="N" d="M 9257649.00 8906025.00 L 9388841.00 8774833.00 A 100357.91 100357.91 0 1 0 9246919.00 8632913.00 L 9145120.78 8734712.00 L 8965874.00 8734712.00 L 8893468.00 8662306.00 L 8893468.00 8614249.00 L 8965873.00 8541844.00 L 9055498.00 8541844.00 A 100353.26 100353.26 0 0 0 9055498.00 8341138.00 L 8965874.00 8341138.00 L 8893468.00 8268732.00 L 8893468.00 8220675.00 L 8965873.00 8148270.00 L 9145122.00 8148270.00 L 9246920.00 8250068.00 A 100348.62 100348.62 0 1 0 9388840.00 8108148.00 L 9257649.00 7976957.00 L 9225093.00 7955203.00 L 9186689.00 7947564.00 L 8924306.00 7947564.00 L 8885902.00 7955203.00 L 8853346.00 7976957.00 L 8722155.00 8108148.00 L 8700401.00 8140704.00 L 8692762.00 8179108.00 L 8692762.00 8310299.00 L 8700401.00 8348702.00 L 8722154.00 8381259.00 L 8782385.77 8441491.23 L 8722155.00 8501722.00 L 8700401.00 8534278.00 L 8692762.00 8572682.00 L 8692762.00 8703873.00 L 8700401.00 8742276.00 L 8722154.00 8774833.00 L 8853345.00 8906025.00 L 8885902.00 8927779.00 L 8924306.00 8935418.00 L 9186689.00 8935418.00 L 9225093.00 8927779.00 L 9257649.00 8906025.00  z"/>
<path id="N" d="M 9257650.00 10323043.00 L 9388841.00 10191851.00 L 9410594.00 10159294.00 L 9418233.00 10120891.00 L 9418233.00 9989700.00 L 9410594.00 9951296.00 L 9388840.00 9918740.00 L 9257649.00 9787549.00 L 9225093.00 9765795.00 L 9186689.00 9758156.00 L 8965874.00 9758156.00 L 8893468.00 9685750.00 L 8893468.00 9637693.00 L 8965873.00 9565288.00 L 9145122.00 9565288.00 L 9246920.00 9667086.00 A 100348.62 100348.62 0 1 0 9388840.00 9525166.00 L 9257649.00 9393975.00 L 9225093.00 9372221.00 L 9186689.00 9364582.00 L 8924306.00 9364582.00 L 8885902.00 9372221.00 L 8853346.00 9393975.00 L 8722155.00 9525166.00 L 8700401.00 9557722.00 L 8692762.00 9596126.00 L 8692762.00 9727317.00 L 8700401.00 9765720.00 L 8722154.00 9798277.00 L 8853345.00 9929469.00 L 8885902.00 9951223.00 L 8924306.00 9958862.00 L 9145122.00 9958862.00 L 9217527.00 10031267.00 L 9217527.00 10079324.00 L 9145121.00 10151730.00 L 8965874.22 10151730.00 L 8864076.00 10049931.00 A 100353.26 100353.26 0 0 0 8722154.00 10191851.00 L 8853346.00 10323043.00 L 8885902.00 10344797.00 L 8924306.00 10352436.00 L 9186689.00 10352436.00 L 9225093.00 10344797.00 L 9257650.00 10323043.00  z"/>
<path id="N" d="M 6896206.00 10323043.00 L 7027397.00 10191851.00 L 7049150.00 10159294.00 L 7056789.00 10120891.00 L 7056789.00 9989700.00 L 7049150.00 9951296.00 L 7027396.00 9918740.00 L 6896205.00 9787549.00 L 6863649.00 9765795.00 L 6825245.00 9758156.00 L 6604430.00 9758156.00 L 6532024.00 9685750.00 L 6532024.00 9637693.00 L 6604429.00 9565288.00 L 6783678.00 9565288.00 L 6885476.00 9667086.00 A 100348.62 100348.62 0 0 0 7027396.00 9525166.00 L 6896205.00 9393975.00 L 6863649.00 9372221.00 L 6825245.00 9364582.00 L 6562862.00 9364582.00 L 6524458.00 9372221.00 L 6491902.00 9393975.00 L 6360711.00 9525166.00 L 6338957.00 9557722.00 L 6331318.00 9596126.00 L 6331318.00 9727317.00 L 6338957.00 9765720.00 L 6360710.00 9798277.00 L 6491901.00 9929469.00 L 6524458.00 9951223.00 L 6562862.00 9958862.00 L 6783678.00 9958862.00 L 6856083.00 10031267.00 L 6856083.00 10079324.00 L 6783677.00 10151730.00 L 6604430.22 10151730.00 L 6502632.00 10049931.00 A 100353.26 100353.26 0 1 0 6360710.00 10191851.00 L 6491902.00 10323043.00 L 6524458.00 10344797.00 L 6562862.00 10352436.00 L 6825245.00 10352436.00 L 6863649.00 10344797.00 L 6896206.00 10323043.00  z"/>
<path id="N" d="M 13980538.00 10323043.00 L 14111729.00 10191851.00 L 14133482.00 10159294.00 L 14141121.00 10120891.00 L 14141121.00 9989700.00 L 14133482.00 9951296.00 L 14111728.00 9918740.00 L 13980537.00 9787549.00 L 13947981.00 9765795.00 L 13909577.00 9758156.00 L 13688762.00 9758156.00 L 13616356.00 9685750.00 L 13616356.00 9637693.00 L 13688761.00 9565288.00 L 13868010.00 9565288.00 L 13969808.00 9667086.00 A 100348.62 100348.62 0 1 0 14111728.00 9525166.00 L 13980537.00 9393975.00 L 13947981.00 9372221.00 L 13909577.00 9364582.00 L 13647194.00 9364582.00 L 13608790.00 9372221.00 L 13576234.00 9393975.00 L 13445043.00 9525166.00 L 13423289.00 9557722.00 L 13415650.00 9596126.00 L 13415650.00 9727317.00 L 13423289.00 9765720.00 L 13445042.00 9798277.00 L 13576233.00 9929469.00 L 13608790.00 9951223.00 L 13647194.00 9958862.00 L 13868010.00 9958862.00 L 13940415.00 10031267.00 L 13940415.00 10079324.00 L 13868009.00 10151730.00 L 13688762.22 10151730.00 L 13586964.00 10049931.00 A 100353.26 100353.26 0 0 0 13445042.00 10191851.00 L 13576234.00 10323043.00 L 13608790.00 10344797.00 L 13647194.00 10352436.00 L 13909577.00 10352436.00 L 13947981.00 10344797.00 L 13980538.00 10323043.00  z"/>
<path id="N" d="M 8873622.00 14352003.00 L 8937812.00 14352003.00 L 8937812.00 14287813.00 L 9002002.00 14287813.00 L 9002002.00 14223622.00 L 9066193.00 14223622.00 L 9066193.00 14159432.00 L 9002002.00 14159432.00 L 9002002.00 14223622.00 L 8873622.00 14223622.00 L 8873622.00 14159432.00 L 9002002.00 14159432.00 L 9002002.00 14095242.00 L 9066193.00 14095242.00 L 9066193.00 14031051.00 L 9130383.00 14031051.00 L 9130383.00 13902671.00 L 9002002.00 13902671.00 L 9002002.00 13774290.00 L 8937812.00 13774290.00 L 8937812.00 13389148.00 L 8873622.00 13389148.00 L 8873622.00 13453338.00 L 8809431.00 13453338.00 L 8809431.00 13581719.00 L 8745241.00 13581719.00 L 8745241.00 13774290.00 L 8681051.00 13774290.00 L 8681051.00 13838480.00 L 8809431.00 13838480.00 L 8809431.00 13902671.00 L 8681051.00 13902671.00 L 8681051.00 14031051.00 L 8745241.00 14031051.00 L 8745241.00 14287813.00 L 8681051.00 14287813.00 L 8681051.00 14352003.00 L 8745241.00 14352003.00 L 8745241.00 14480384.00 L 8873622.00 14480384.00 L 8873622.00 14352003.00  zM 8937812.13 13966861.09 L 8873621.78 13966861.09 L 8873621.78 13902670.74 L 8937812.13 13902670.74 L 8937812.13 13966861.09  zM 9002002.48 14095241.78 L 8937812.13 14095241.78 L 8937812.13 14031051.43 L 9002002.48 14031051.43 L 9002002.48 14095241.78  zM 8873621.78 14159432.13 L 8809431.43 14159432.13 L 8809431.43 14031051.43 L 8873621.78 14031051.43 L 8873621.78 14159432.13  z"/>
<path id="N" d="M 10093238.00 14287813.00 L 10221619.00 14287813.00 L 10221619.00 14223622.00 L 10157429.00 14223622.00 L 10157429.00 14159432.00 L 10221619.00 14159432.00 L 10221619.00 14095242.00 L 10285809.00 14095242.00 L 10285809.00 14031051.00 L 10350000.00 14031051.00 L 10350000.00 13966861.00 L 10478380.00 13966861.00 L 10478380.00 13902671.00 L 10414190.00 13902671.00 L 10414190.00 13710100.00 L 10350000.00 13710100.00 L 10350000.00 13517529.00 L 10285809.00 13517529.00 L 10285809.00 13645909.00 L 10221619.00 13645909.00 L 10221619.00 13710100.00 L 10285809.00 13710100.00 L 10285809.00 13774290.00 L 10350000.00 13774290.00 L 10350000.00 13966861.00 L 10285809.00 13966861.00 L 10285809.00 14031051.00 L 10093238.00 14031051.00 L 10093238.00 14095242.00 L 9836477.00 14095242.00 L 9836477.00 14159432.00 L 9708096.00 14159432.00 L 9708096.00 14223622.00 L 9579716.00 14223622.00 L 9579716.00 14159432.00 L 9194574.00 14159432.00 L 9194574.00 14287813.00 L 9258764.00 14287813.00 L 9258764.00 14223622.00 L 9322954.00 14223622.00 L 9322954.00 14287813.00 L 9451335.00 14287813.00 L 9451335.00 14223622.00 L 9515525.00 14223622.00 L 9515525.00 14352003.00 L 9964858.00 14352003.00 L 9964858.00 14287813.00 L 10029048.00 14287813.00 L 10029048.00 14352003.00 L 10093238.00 14352003.00 L 10093238.00 14287813.00  z"/>
<path id="N" d="M 11619094.00 8906025.00 L 11750285.00 8774833.00 A 100357.91 100357.91 0 1 0 11608364.00 8632913.00 L 11506565.00 8734712.00 L 11327318.22 8734712.00 L 11254912.00 8662305.22 L 11254912.00 8614249.00 L 11750284.00 8118877.00 A 100348.62 100348.62 0 0 0 11679324.00 7947564.00 L 11154559.00 7947564.00 A 100353.26 100353.26 0 0 0 11154559.00 8148270.00 L 11437051.00 8148270.00 L 11083599.00 8501722.00 L 11061845.00 8534278.00 L 11054206.00 8572682.00 L 11054206.00 8703873.00 L 11061845.00 8742276.00 L 11083598.00 8774833.00 L 11214790.00 8906025.00 L 11247346.00 8927779.00 L 11285750.00 8935418.00 L 11548133.00 8935418.00 L 11586537.00 8927779.00 L 11619094.00 8906025.00  z"/>
<path id="N" d="M 10044798.00 8906025.00 L 10175989.00 8774833.00 A 100357.91 100357.91 0 1 0 10034068.00 8632913.00 L 9932269.00 8734712.00 L 9753022.22 8734712.00 L 9680616.00 8662305.22 L 9680616.00 8614249.00 L 10175988.00 8118877.00 A 100348.62 100348.62 0 0 0 10105028.00 7947564.00 L 9580263.00 7947564.00 A 100353.26 100353.26 0 1 0 9580263.00 8148270.00 L 9862755.00 8148270.00 L 9509303.00 8501722.00 L 9487549.00 8534278.00 L 9479910.00 8572682.00 L 9479910.00 8703873.00 L 9487549.00 8742276.00 L 9509302.00 8774833.00 L 9640494.00 8906025.00 L 9673050.00 8927779.00 L 9711454.00 8935418.00 L 9973837.00 8935418.00 L 10012241.00 8927779.00 L 10044798.00 8906025.00  z"/>
<path id="N" d="M 8631085.00 10252083.00 L 8631085.00 9464935.00 A 100353.26 100353.26 0 0 0 8530732.00 9364582.00 L 8005967.00 9364582.00 A 100353.26 100353.26 0 0 0 8005967.00 9565288.00 L 8430379.00 9565288.00 L 8430379.00 9758156.00 L 8268350.00 9758156.00 A 100353.26 100353.26 0 0 0 8268350.00 9958862.00 L 8430379.00 9958862.00 L 8430379.00 10151730.00 L 8005967.00 10151730.00 A 100353.26 100353.26 0 0 0 8005967.00 10352436.00 L 8530732.00 10352436.00 A 100354.75 100354.75 0 0 0 8631085.00 10252083.00  z"/>
<path id="N" d="M 12566825.00 10252083.00 L 12566825.00 9464935.00 A 100353.26 100353.26 0 1 0 12366119.00 9464935.00 L 12366119.00 9626964.00 L 12245656.89 9626964.00 L 12012667.00 9393975.00 A 100353.26 100353.26 0 1 0 11870747.00 9535895.00 L 11996573.74 9661721.26 L 11870746.00 9787549.00 L 11848993.00 9820106.00 L 11841354.00 9858509.00 L 11841354.00 10120891.00 L 11848993.00 10159294.00 L 11870746.00 10191851.00 L 12001937.00 10323043.00 L 12034494.00 10344797.00 L 12072898.00 10352436.00 L 12466472.00 10352436.00 A 100354.75 100354.75 0 0 0 12566825.00 10252083.00  zM 12366119.00 10151730.00 L 12114466.00 10151730.00 L 12042060.00 10079324.00 L 12042060.00 9900076.78 L 12114466.22 9827670.00 L 12366119.00 9827670.00 L 12366119.00 10151730.00  z"/>
<path id="N" d="M 10205381.00 10252083.00 L 10205381.00 9464935.00 A 100353.26 100353.26 0 1 0 10004675.00 9464935.00 L 10004675.00 9758156.00 L 9680616.00 9758156.00 L 9680616.00 9464935.00 A 100353.26 100353.26 0 0 0 9479910.00 9464935.00 L 9479910.00 10252083.00 A 100353.26 100353.26 0 0 0 9680616.00 10252083.00 L 9680616.00 9958862.00 L 10004675.00 9958862.00 L 10004675.00 10252083.00 A 100353.26 100353.26 0 0 0 10205381.00 10252083.00  z"/>
<path id="N" d="M 11569616.00 13902671.00 L 11633807.00 13902671.00 L 11633807.00 13838480.00 L 11697997.00 13838480.00 L 11697997.00 13774290.00 L 11633807.00 13774290.00 L 11633807.00 13645909.00 L 11697997.00 13645909.00 L 11697997.00 13581719.00 L 11633807.00 13581719.00 L 11633807.00 13645909.00 L 11569616.00 13645909.00 L 11569616.00 13710100.00 L 11505426.00 13710100.00 L 11505426.00 13581719.00 L 11248665.00 13581719.00 L 11248665.00 13645909.00 L 11184474.00 13645909.00 L 11184474.00 13710100.00 L 10991903.00 13710100.00 L 10991903.00 13774290.00 L 11184474.00 13774290.00 L 11184474.00 13838480.00 L 11248665.00 13838480.00 L 11248665.00 13902671.00 L 11120284.00 13902671.00 L 11120284.00 13966861.00 L 11441236.00 13966861.00 L 11441236.00 13902671.00 L 11505426.00 13902671.00 L 11505426.00 13966861.00 L 11569616.00 13966861.00 L 11569616.00 13902671.00  zM 11505426.04 13838480.39 L 11441235.70 13838480.39 L 11377045.35 13774290.04 L 11377045.35 13645909.35 L 11441235.70 13645909.35 L 11441235.70 13774290.04 L 11505426.04 13774290.04 L 11505426.04 13838480.39  z"/>
<path id="N" d="M 10093238.00 13260767.00 L 10157429.00 13260767.00 L 10157429.00 13196577.00 L 10093238.00 13196577.00 L 10093238.00 13260767.00 L 10029048.00 13260767.00 L 10029048.00 13196577.00 L 10093238.00 13196577.00 L 10093238.00 13068196.00 L 10029048.00 13068196.00 L 10029048.00 13004006.00 L 10157429.00 13004006.00 L 10157429.00 13068196.00 L 10221619.00 13068196.00 L 10221619.00 13004006.00 L 10285809.00 13004006.00 L 10285809.00 12875625.00 L 10350000.00 12875625.00 L 10350000.00 12811435.00 L 10285809.00 12811435.00 L 10285809.00 12683054.00 L 10221619.00 12683054.00 L 10221619.00 12618864.00 L 10157429.00 12618864.00 L 10157429.00 12747244.00 L 10093238.00 12747244.00 L 10093238.00 12811435.00 L 10029048.00 12811435.00 L 10029048.00 13004006.00 L 9964858.00 13004006.00 L 9964858.00 13132387.00 L 10029048.00 13132387.00 L 10029048.00 13196577.00 L 9964858.00 13196577.00 L 9964858.00 13324958.00 L 10093238.00 13324958.00 L 10093238.00 13260767.00  z"/>
<path id="N" d="M 10029048.00 12233722.00 L 10414190.00 12233722.00 L 10414190.00 12169531.00 L 10606761.00 12169531.00 L 10606761.00 12233722.00 L 10670952.00 12233722.00 L 10670952.00 12169531.00 L 10735142.00 12169531.00 L 10735142.00 12105341.00 L 10799332.00 12105341.00 L 10799332.00 12041151.00 L 10670952.00 12041151.00 L 10670952.00 12105341.00 L 10542571.00 12105341.00 L 10542571.00 12041151.00 L 10350000.00 12041151.00 L 10350000.00 12105341.00 L 9772287.00 12105341.00 L 9772287.00 12041151.00 L 9643906.00 12041151.00 L 9643906.00 12105341.00 L 9515525.00 12105341.00 L 9515525.00 12169531.00 L 9643906.00 12169531.00 L 9643906.00 12105341.00 L 9708096.00 12105341.00 L 9708096.00 12169531.00 L 9643906.00 12169531.00 L 9643906.00 12297912.00 L 9708096.00 12297912.00 L 9708096.00 12169531.00 L 9772287.00 12169531.00 L 9772287.00 12233722.00 L 9964858.00 12233722.00 L 9964858.00 12297912.00 L 10029048.00 12297912.00 L 10029048.00 12233722.00  z"/>
<path id="N" d="M 11487902.00 10323043.00 L 11750284.00 10060660.00 L 11772038.00 10028103.00 L 11779677.00 9989700.00 L 11779677.00 9464935.00 A 100353.26 100353.26 0 1 0 11578971.00 9464935.00 L 11578971.00 9758156.00 L 11254912.00 9758156.00 L 11254912.00 9464935.00 A 100353.26 100353.26 0 1 0 11054206.00 9464935.00 L 11054206.00 9989700.00 L 11061845.00 10028103.00 L 11083598.00 10060660.00 L 11345982.00 10323043.00 A 100348.62 100348.62 0 0 0 11487902.00 10323043.00  zM 11416942.00 10110162.73 L 11265641.85 9958862.00 L 11568242.15 9958862.00 L 11416942.00 10110162.73  z"/>
<path id="N" d="M 10831945.00 8906025.00 L 10963137.00 8774833.00 L 10984890.00 8742276.00 L 10992529.00 8703873.00 L 10992529.00 8179108.00 L 10984890.00 8140704.00 L 10963136.00 8108148.00 L 10831945.00 7976957.00 L 10799389.00 7955203.00 L 10760985.00 7947564.00 L 10498602.00 7947564.00 L 10460198.00 7955203.00 L 10427642.00 7976957.00 L 10296451.00 8108148.00 L 10274697.00 8140704.00 L 10267058.00 8179108.00 L 10267058.00 8703873.00 L 10274697.00 8742276.00 L 10296450.00 8774833.00 L 10427641.00 8906025.00 L 10460198.00 8927779.00 L 10498602.00 8935418.00 L 10760985.00 8935418.00 L 10799389.00 8927779.00 L 10831945.00 8906025.00  zM 10719416.78 8734712.00 L 10540170.00 8734712.00 L 10467764.00 8662306.00 L 10467764.00 8220675.00 L 10540169.00 8148270.00 L 10719418.00 8148270.00 L 10791823.00 8220675.00 L 10791823.00 8662305.22 L 10719416.78 8734712.00  z"/>
<path id="N" d="M 9900667.00 13966861.00 L 9964858.00 13966861.00 L 9964858.00 13774290.00 L 9900667.00 13774290.00 L 9900667.00 13710100.00 L 9836477.00 13710100.00 L 9836477.00 13645909.00 L 9772287.00 13645909.00 L 9772287.00 13710100.00 L 9708096.00 13710100.00 L 9708096.00 13774290.00 L 9579716.00 13774290.00 L 9579716.00 13710100.00 L 9643906.00 13710100.00 L 9643906.00 13645909.00 L 9579716.00 13645909.00 L 9579716.00 13710100.00 L 9387145.00 13710100.00 L 9387145.00 13774290.00 L 9451335.00 13774290.00 L 9451335.00 13838480.00 L 9387145.00 13838480.00 L 9387145.00 13966861.00 L 9515525.00 13966861.00 L 9515525.00 14031051.00 L 9900667.00 14031051.00 L 9900667.00 13966861.00  zM 9900667.00 13966861.00 L 9836477.00 13966861.00 L 9836477.00 13902671.00 L 9900667.00 13902671.00 L 9900667.00 13966861.00  z"/>
<path id="N" d="M 13253620.00 10151730.00 L 13091591.00 10151730.00 L 13091591.00 9464935.00 A 100353.26 100353.26 0 0 0 12890885.00 9464935.00 L 12890885.00 10151730.00 L 12728855.00 10151730.00 A 100353.26 100353.26 0 0 0 12728855.00 10352436.00 L 13253620.00 10352436.00 A 100354.75 100354.75 0 0 0 13253620.00 10151730.00  z"/>
<path id="N" d="M 10892176.00 10151730.00 L 10730147.00 10151730.00 L 10730147.00 9464935.00 A 100353.26 100353.26 0 1 0 10529441.00 9464935.00 L 10529441.00 10151730.00 L 10367411.00 10151730.00 A 100353.26 100353.26 0 0 0 10367411.00 10352436.00 L 10892176.00 10352436.00 A 100354.75 100354.75 0 0 0 10892176.00 10151730.00  z"/>
<path id="N" d="M 7843937.00 10252083.00 L 7843937.00 9464935.00 A 100353.26 100353.26 0 0 0 7743584.00 9364582.00 L 7350010.00 9364582.00 L 7311606.00 9372221.00 L 7279050.00 9393975.00 L 7147859.00 9525166.00 L 7126105.00 9557722.00 L 7118466.00 9596126.00 L 7118466.00 10120891.00 L 7126105.00 10159294.00 L 7147858.00 10191851.00 L 7279050.00 10323043.00 L 7311606.00 10344797.00 L 7350010.00 10352436.00 L 7743584.00 10352436.00 A 100354.75 100354.75 0 0 0 7843937.00 10252083.00  zM 7643231.00 10151730.00 L 7391578.22 10151730.00 L 7319172.00 10079323.22 L 7319172.00 9637693.00 L 7391577.00 9565288.00 L 7643231.00 9565288.00 L 7643231.00 10151730.00  z"/>
<path id="N" d="M 2111028.41 4975575.00 L 2510897.00 4975575.00 A 54118.70 54118.70 0 0 0 2510897.00 4867335.00 L 2241684.00 4867335.00 L 2549166.00 4559853.00 L 2565017.00 4521581.59 L 2565018.00 4421617.00 L 2549166.00 4383348.00 L 2449198.00 4283380.00 L 2410929.00 4267529.00 L 2210994.00 4267528.00 L 2172725.00 4283380.00 L 2072757.00 4383348.00 A 54121.84 54121.84 0 0 0 2149295.00 4459886.00 L 2233412.00 4375769.00 L 2388511.00 4375769.00 L 2456777.00 4444035.00 L 2456777.00 4499166.00 L 2072757.00 4883186.00 A 54119.43 54119.43 0 0 0 2111028.41 4975575.00  z"/>
<path id="N" d="M 17463485.41 5104021.00 L 17563450.00 5104021.00 L 17601719.00 5088170.00 L 17701687.00 4988202.00 L 17717538.00 4949930.59 L 17717538.00 4504215.00 L 17763386.00 4504215.00 A 54118.70 54118.70 0 0 0 17763386.00 4395975.00 L 17563450.00 4395975.00 A 54118.70 54118.70 0 1 0 17563450.00 4504215.00 L 17609298.00 4504215.00 L 17609298.00 4927515.00 L 17541032.00 4995781.00 L 17485901.00 4995781.00 L 17401784.00 4911664.00 A 54121.84 54121.84 0 1 0 17325246.00 4988202.00 L 17425214.00 5088170.00 L 17463485.41 5104021.00  z"/>
<path id="N" d="M 1611190.41 4975575.00 L 1711155.00 4975575.00 L 1749424.00 4959724.00 L 1849392.00 4859756.00 L 1865243.00 4821484.59 L 1865243.00 4375769.00 L 1911091.00 4375769.00 A 54118.70 54118.70 0 0 0 1911091.00 4267529.00 L 1711155.00 4267529.00 A 54118.70 54118.70 0 0 0 1711155.00 4375769.00 L 1757003.00 4375769.00 L 1757003.00 4799069.00 L 1688737.00 4867335.00 L 1633606.00 4867335.00 L 1549489.00 4783218.00 A 54121.84 54121.84 0 0 0 1472951.00 4859756.00 L 1572919.00 4959724.00 L 1611190.41 4975575.00  z"/>
<path id="N" d="M 18163256.00 4995781.00 L 18117409.00 4995781.00 L 18117410.00 4450095.00 A 54122.11 54122.11 0 0 0 18025020.00 4411826.00 L 17925052.00 4511794.00 A 54121.84 54121.84 0 1 0 18009169.00 4580753.00 L 18009169.00 4995781.00 L 17963321.00 4995781.00 A 54118.70 54118.70 0 0 0 17963321.00 5104021.00 L 18163256.00 5104021.00 A 54121.84 54121.84 0 1 0 18163256.00 4995781.00  z"/>
<path id="N" d="M 9836477.00 15956762.00 L 9772287.00 15956762.00 L 9772287.00 15892572.00 L 9708096.00 15892572.00 L 9708096.00 15828381.00 L 9836477.00 15828381.00 L 9836477.00 15700000.00 L 9772287.00 15700000.00 L 9772287.00 15764191.00 L 9708096.00 15764191.00 L 9708096.00 15828381.00 L 9643906.00 15828381.00 L 9643906.00 15764191.00 L 9708096.00 15764191.00 L 9708096.00 15700000.00 L 9643906.00 15700000.00 L 9643906.00 15764191.00 L 9579716.00 15764191.00 L 9579716.00 15956762.00 L 9708096.00 15956762.00 L 9708096.00 16085143.00 L 9836477.00 16085143.00 L 9836477.00 15956762.00  z"/>
<path id="N" d="M 18327377.00 13396275.00 L 18339858.00 13366142.00 L 18339858.00 5326772.00 L 18327377.00 5296639.00 L 18297244.00 5284158.00 L 17175196.00 5284158.00 L 17145063.00 5296639.00 L 17132582.00 5326772.00 L 17132582.00 12846457.00 L 17145063.00 12876590.00 L 17175196.00 12889071.00 L 17205329.00 12876590.00 L 17217810.00 12846457.00 L 17217810.00 5369386.00 L 18254630.00 5369386.00 L 18254630.00 13323528.00 L 17736220.00 13323528.00 L 17706087.00 13336009.00 L 17693606.00 13366142.00 L 17706087.00 13396275.00 L 17736220.00 13408756.00 L 18297244.00 13408756.00 L 18327377.00 13396275.00  z"/>
<path id="N" d="M 3327377.00 13396275.00 L 3339858.00 13366142.00 L 3339858.00 5326772.00 L 3327377.00 5296639.00 L 3297244.00 5284158.00 L 2175196.00 5284158.00 L 2145063.00 5296639.00 L 2132582.00 5326772.00 L 2132582.00 12846457.00 L 2145063.00 12876590.00 L 2175196.00 12889071.00 L 2205329.00 12876590.00 L 2217810.00 12846457.00 L 2217810.00 5369386.00 L 3254630.00 5369386.00 L 3254630.00 13323528.00 L 2736220.00 13323528.00 L 2706087.00 13336009.00 L 2693606.00 13366142.00 L 2706087.00 13396275.00 L 2736220.00 13408756.00 L 3297244.00 13408756.00 L 3327377.00 13396275.00  z"/>
<path id="N" d="M 10670952.00 16149333.00 L 10927713.00 16149333.00 L 10927713.00 16085143.00 L 10735142.00 16085143.00 L 10735142.00 16020952.00 L 10606761.00 16020952.00 L 10606761.00 16085143.00 L 10542571.00 16085143.00 L 10542571.00 16149333.00 L 10478380.00 16149333.00 L 10478380.00 16213523.00 L 10542571.00 16213523.00 L 10542571.00 16149333.00 L 10606761.00 16149333.00 L 10606761.00 16085143.00 L 10670952.00 16085143.00 L 10670952.00 16149333.00 L 10606761.00 16149333.00 L 10606761.00 16213523.00 L 10670952.00 16213523.00 L 10670952.00 16149333.00  z"/>
<path id="N" d="M 10157429.00 12554673.00 L 10221619.00 12554673.00 L 10221619.00 12426293.00 L 10157429.00 12426293.00 L 10157429.00 12490483.00 L 10093238.00 12490483.00 L 10093238.00 12554673.00 L 10029048.00 12554673.00 L 10029048.00 12490483.00 L 9964858.00 12490483.00 L 9964858.00 12426293.00 L 9900667.00 12426293.00 L 9900667.00 12490483.00 L 9836477.00 12490483.00 L 9836477.00 12554673.00 L 9964858.00 12554673.00 L 9964858.00 12618864.00 L 10157429.00 12618864.00 L 10157429.00 12554673.00  z"/>
<path id="N" d="M 10670952.00 15058097.00 L 10735142.00 15058097.00 L 10735142.00 14929716.00 L 10863523.00 14929716.00 L 10863523.00 14865526.00 L 10735142.00 14865526.00 L 10735142.00 14929716.00 L 10606761.00 14929716.00 L 10606761.00 14993907.00 L 10670952.00 14993907.00 L 10670952.00 15058097.00 L 10606761.00 15058097.00 L 10606761.00 15122287.00 L 10670952.00 15122287.00 L 10670952.00 15058097.00  z"/>
<path id="N" d="M 10991903.00 15122287.00 L 11056094.00 15122287.00 L 11056094.00 14993907.00 L 11184474.00 14993907.00 L 11184474.00 14929716.00 L 11120284.00 14929716.00 L 11120284.00 14801336.00 L 11056094.00 14801336.00 L 11056094.00 14865526.00 L 10991903.00 14865526.00 L 10991903.00 15122287.00 L 10927713.00 15122287.00 L 10927713.00 15186478.00 L 10991903.00 15186478.00 L 10991903.00 15122287.00  z"/>
<path id="N" d="M 10414190.00 11848580.00 L 10606761.00 11848580.00 L 10606761.00 11784389.00 L 10414190.00 11784389.00 L 10414190.00 11720199.00 L 10350000.00 11720199.00 L 10350000.00 11784389.00 L 10221619.00 11784389.00 L 10221619.00 11848580.00 L 10350000.00 11848580.00 L 10350000.00 11912770.00 L 10414190.00 11912770.00 L 10414190.00 11848580.00  z"/>
<path id="N" d="M 8745241.00 14801336.00 L 8809431.00 14801336.00 L 8809431.00 14544574.00 L 8745241.00 14544574.00 L 8745241.00 14672955.00 L 8681051.00 14672955.00 L 8681051.00 14608765.00 L 8616860.00 14608765.00 L 8616860.00 14737145.00 L 8681051.00 14737145.00 L 8681051.00 14865526.00 L 8745241.00 14865526.00 L 8745241.00 14801336.00  z"/>
<path id="N" d="M 11505426.00 15828381.00 L 11569616.00 15828381.00 L 11569616.00 15764191.00 L 11633807.00 15764191.00 L 11633807.00 15700000.00 L 11505426.00 15700000.00 L 11505426.00 15764191.00 L 11441236.00 15764191.00 L 11441236.00 15892572.00 L 11505426.00 15892572.00 L 11505426.00 15828381.00  z"/>
<path id="N" d="M 8937812.00 12747244.00 L 8873622.00 12747244.00 L 8873622.00 12683054.00 L 8937812.00 12683054.00 L 8937812.00 12554673.00 L 8873622.00 12554673.00 L 8873622.00 12618864.00 L 8809431.00 12618864.00 L 8809431.00 12811435.00 L 8937812.00 12811435.00 L 8937812.00 12747244.00  z"/>
<path id="N" d="M 10478380.00 15956762.00 L 10542571.00 15956762.00 L 10542571.00 15892572.00 L 10478380.00 15892572.00 L 10478380.00 15956762.00 L 10414190.00 15956762.00 L 10414190.00 16020952.00 L 10478380.00 16020952.00 L 10478380.00 15956762.00  z"/>
<path id="N" d="M 11312855.00 13068196.00 L 11377045.00 13068196.00 L 11377045.00 13004006.00 L 11312855.00 13004006.00 L 11312855.00 13068196.00 L 11248665.00 13068196.00 L 11248665.00 13132387.00 L 11312855.00 13132387.00 L 11312855.00 13068196.00  z"/>
<path id="N" d="M 11633807.00 14929716.00 L 11762187.00 14929716.00 L 11762187.00 14865526.00 L 11633807.00 14865526.00 L 11633807.00 14929716.00 L 11569616.00 14929716.00 L 11569616.00 14993907.00 L 11633807.00 14993907.00 L 11633807.00 14929716.00  z"/>
<path id="N" d="M 10157429.00 13838480.00 L 10221619.00 13838480.00 L 10221619.00 13774290.00 L 10029048.00 13774290.00 L 10029048.00 13838480.00 L 10093238.00 13838480.00 L 10093238.00 13902671.00 L 10157429.00 13902671.00 L 10157429.00 13838480.00  z"/>
<path id="N" d="M 10735142.00 13068196.00 L 10670952.00 13068196.00 L 10670952.00 13004006.00 L 10606761.00 13004006.00 L 10606761.00 13132387.00 L 10735142.00 13132387.00 L 10735142.00 13068196.00  z"/>
<path id="N" d="M 10285809.43 15443239.00 L 10285809.43 15314858.39 L 10157428.74 15314858.39 L 10157428.74 15379048.74 L 10221619.09 15379048.74 L 10221619.09 15443239.09 L 10285809.43 15443239.00  z"/>
<path id="N" d="M 9964858.00 15764191.00 L 9900667.00 15764191.00 L 9900667.00 15828381.00 L 9836477.00 15828381.00 L 9836477.00 15892572.00 L 9964858.00 15892572.00 L 9964858.00 15764191.00  z"/>
<path id="N" d="M 8937812.00 12233722.00 L 8809431.00 12233722.00 L 8809431.00 12426293.00 L 8873622.00 12426293.00 L 8873622.00 12490483.00 L 8937812.00 12490483.00 L 8937812.00 12233722.00  z"/>
<path id="N" d="M 11377045.00 15892572.00 L 11312855.00 15892572.00 L 11312855.00 15956762.00 L 11184474.00 15956762.00 L 11184474.00 16020952.00 L 11377045.00 16020952.00 L 11377045.00 15892572.00  z"/>
<path id="N" d="M 11826378.00 13068196.00 L 11697997.00 13068196.00 L 11697997.00 13132387.00 L 11826378.00 13132387.00 L 11826378.00 13068196.00  z"/>
<path id="N" d="M 12018949.00 13004006.00 L 11954758.00 13004006.00 L 11954758.00 13132387.00 L 12018949.00 13132387.00 L 12018949.00 13004006.00  z"/>
<path id="N" d="M 10799332.00 12297912.00 L 10542571.00 12297912.00 L 10542571.00 12362102.00 L 10799332.00 12362102.00 L 10799332.00 12297912.00  z"/>
<path id="N" d="M 11505426.00 14929716.00 L 11377045.00 14929716.00 L 11377045.00 14993907.00 L 11505426.00 14993907.00 L 11505426.00 14929716.00  z"/>
<path id="N" d="M 11312855.00 14993907.00 L 11248665.00 14993907.00 L 11248665.00 15058097.00 L 11312855.00 15058097.00 L 11312855.00 14993907.00  z"/>
<path id="N" d="M 10478380.00 15250668.00 L 10414190.00 15250668.00 L 10414190.00 15314858.00 L 10478380.00 15314858.00 L 10478380.00 15250668.00  z"/>
<path id="N" d="M 11954758.00 15186478.00 L 11890568.00 15186478.00 L 11890568.00 15250668.00 L 11954758.00 15250668.00 L 11954758.00 15186478.00  z"/>
<path id="N" d="M 11697997.00 12811435.00 L 11633807.00 12811435.00 L 11633807.00 12875625.00 L 11697997.00 12875625.00 L 11697997.00 12811435.00  z"/>
<path id="N" d="M 9836477.00 12297912.00 L 9772287.00 12297912.00 L 9772287.00 12362102.00 L 9836477.00 12362102.00 L 9836477.00 12297912.00  z"/>
<path id="N" d="M 11890568.00 12490483.00 L 11826378.00 12490483.00 L 11826378.00 12554673.00 L 11890568.00 12554673.00 L 11890568.00 12490483.00  z"/>
<path id="N" d="M 11633807.00 11912770.00 L 11569616.00 11912770.00 L 11569616.00 11976960.00 L 11633807.00 11976960.00 L 11633807.00 11912770.00  z"/>
<path id="N" d="M 9130383.00 11976960.00 L 9066193.00 11976960.00 L 9066193.00 12041151.00 L 9130383.00 12041151.00 L 9130383.00 11976960.00  z"/>
<path id="N" d="M 11633807.00 13132387.00 L 11569616.00 13132387.00 L 11569616.00 13196577.00 L 11633807.00 13196577.00 L 11633807.00 13132387.00  z"/>
<path id="N" d="M 9194574.00 14095242.00 L 9130383.00 14095242.00 L 9130383.00 14159432.00 L 9194574.00 14159432.00 L 9194574.00 14095242.00  z"/>
<path id="N" d="M 9130383.00 11784389.00 L 9066193.00 11784389.00 L 9066193.00 11848580.00 L 9130383.00 11848580.00 L 9130383.00 11784389.00  z"/>
<path id="N" d="M 10542571.00 11912770.00 L 10478380.00 11912770.00 L 10478380.00 11976960.00 L 10542571.00 11976960.00 L 10542571.00 11912770.00  z"/>
<path id="N" d="M 11890568.00 12683054.00 L 11826378.00 12683054.00 L 11826378.00 12747244.00 L 11890568.00 12747244.00 L 11890568.00 12683054.00  z"/>
<path id="N" d="M 11697997.00 12939816.00 L 11633807.00 12939816.00 L 11633807.00 13004006.00 L 11697997.00 13004006.00 L 11697997.00 12939816.00  z"/>
<path id="N" d="M 10799332.00 14095242.00 L 10735142.00 14095242.00 L 10735142.00 14159432.00 L 10799332.00 14159432.00 L 10799332.00 14095242.00  z"/>
<path id="N" d="M 11890568.00 14865526.00 L 11826378.00 14865526.00 L 11826378.00 14929716.00 L 11890568.00 14929716.00 L 11890568.00 14865526.00  z"/>
<path id="N" d="M 11890568.00 12939816.00 L 11826378.00 12939816.00 L 11826378.00 13004006.00 L 11890568.00 13004006.00 L 11890568.00 12939816.00  z"/>
<path id="N" d="M 10221619.00 13324958.00 L 10157429.00 13324958.00 L 10157429.00 13389148.00 L 10221619.00 13389148.00 L 10221619.00 13324958.00  z"/>
<path id="N" d="M 11890568.00 12811435.00 L 11826378.00 12811435.00 L 11826378.00 12875625.00 L 11890568.00 12875625.00 L 11890568.00 12811435.00  z"/>
<path id="N" d="M 11890568.00 12233722.00 L 11826378.00 12233722.00 L 11826378.00 12297912.00 L 11890568.00 12297912.00 L 11890568.00 12233722.00  z"/>
<path id="N" d="M 10478380.00 11142486.00 L 10414190.00 11142486.00 L 10414190.00 11206676.00 L 10478380.00 11206676.00 L 10478380.00 11142486.00  z"/>
<path id="N" d="M 11762187.00 11912770.00 L 11697997.00 11912770.00 L 11697997.00 11976960.00 L 11762187.00 11976960.00 L 11762187.00 11912770.00  z"/>
<path id="N" d="M 10927713.00 13389148.00 L 10863523.00 13389148.00 L 10863523.00 13453338.00 L 10927713.00 13453338.00 L 10927713.00 13389148.00  z"/>
<path id="N" d="M 10927713.00 13774290.00 L 10863523.00 13774290.00 L 10863523.00 13838480.00 L 10927713.00 13838480.00 L 10927713.00 13774290.00  z"/>
<path id="N" d="M 9002002.00 12105341.00 L 8937812.00 12105341.00 L 8937812.00 12169531.00 L 9002002.00 12169531.00 L 9002002.00 12105341.00  z"/>
<path id="N" d="M 11633807.00 12490483.00 L 11569616.00 12490483.00 L 11569616.00 12554673.00 L 11633807.00 12554673.00 L 11633807.00 12490483.00  z"/>
<path id="N" d="M 11954758.00 12041151.00 L 11890568.00 12041151.00 L 11890568.00 12169531.00 L 11954758.00 12169531.00 L 11954758.00 12041151.00  z"/>
<path id="N" d="M 11120284.00 15956762.00 L 11056094.00 15956762.00 L 11056094.00 16085143.00 L 11120284.00 16085143.00 L 11120284.00 15956762.00  z"/>
<path id="N" d="M 10414190.00 12490483.00 L 10350000.00 12490483.00 L 10350000.00 12618864.00 L 10414190.00 12618864.00 L 10414190.00 12490483.00  z"/>
<path id="N" d="M 9194574.00 11591818.00 L 9130383.00 11591818.00 L 9130383.00 11656009.00 L 9194574.00 11656009.00 L 9194574.00 11591818.00  z"/>
<path id="N" d="M 11056094.00 14737145.00 L 10991903.00 14737145.00 L 10991903.00 14801336.00 L 11056094.00 14801336.00 L 11056094.00 14737145.00  z"/>
<path id="N" d="M 11762187.00 12618864.00 L 11633807.00 12618864.00 L 11633807.00 12683054.00 L 11762187.00 12683054.00 L 11762187.00 12618864.00  z"/>
<path id="N" d="M 8681051.00 14416194.00 L 8616860.00 14416194.00 L 8616860.00 14544574.00 L 8681051.00 14544574.00 L 8681051.00 14416194.00  z"/>
<path id="N" d="M 10478380.00 12875625.00 L 10350000.00 12875625.00 L 10350000.00 12939816.00 L 10478380.00 12939816.00 L 10478380.00 12875625.00  z"/>
<path id="N" d="M 11569616.00 13068196.00 L 11441236.00 13068196.00 L 11441236.00 13132387.00 L 11569616.00 13132387.00 L 11569616.00 13068196.00  z"/>
<path id="N" d="M 11312855.00 14737145.00 L 11248665.00 14737145.00 L 11248665.00 14865526.00 L 11312855.00 14865526.00 L 11312855.00 14737145.00  z"/>
<path id="N" d="M 10863523.00 15186478.00 L 10735142.00 15186478.00 L 10735142.00 15250668.00 L 10863523.00 15250668.00 L 10863523.00 15186478.00  z"/>
<path id="N" d="M 11890568.00 11912770.00 L 11826378.00 11912770.00 L 11826378.00 12041151.00 L 11890568.00 12041151.00 L 11890568.00 11912770.00  z"/>
<path id="N" d="M 10542571.00 15122287.00 L 10478380.00 15122287.00 L 10478380.00 15186478.00 L 10542571.00 15186478.00 L 10542571.00 15122287.00  z"/>
<path id="N" d="M 10542571.00 11206676.00 L 10478380.00 11206676.00 L 10478380.00 11270866.00 L 10542571.00 11270866.00 L 10542571.00 11206676.00  z"/>
<path id="N" d="M 11569616.00 14737145.00 L 11505426.00 14737145.00 L 11505426.00 14801336.00 L 11569616.00 14801336.00 L 11569616.00 14737145.00  z"/>
<path id="N" d="M 11633807.00 14801336.00 L 11569616.00 14801336.00 L 11569616.00 14865526.00 L 11633807.00 14865526.00 L 11633807.00 14801336.00  z"/>
<path id="N" d="M 11248665.00 13004006.00 L 11184474.00 13004006.00 L 11184474.00 13068196.00 L 11248665.00 13068196.00 L 11248665.00 13004006.00  z"/>
<path id="N" d="M 10285809.00 13453338.00 L 10221619.00 13453338.00 L 10221619.00 13517529.00 L 10285809.00 13517529.00 L 10285809.00 13453338.00  z"/>
<path id="N" d="M 11954758.00 14352003.00 L 11890568.00 14352003.00 L 11890568.00 14416194.00 L 11954758.00 14416194.00 L 11954758.00 14352003.00  z"/>
<path id="N" d="M 10542571.00 13260767.00 L 10478380.00 13260767.00 L 10478380.00 13324958.00 L 10542571.00 13324958.00 L 10542571.00 13260767.00  z"/>
<path id="N" d="M 12018949.00 12747244.00 L 11954758.00 12747244.00 L 11954758.00 12811435.00 L 12018949.00 12811435.00 L 12018949.00 12747244.00  z"/>
<path id="N" d="M 11248665.00 11976960.00 L 11184474.00 11976960.00 L 11184474.00 12041151.00 L 11248665.00 12041151.00 L 11248665.00 11976960.00  z"/>
<path id="N" d="M 9964858.00 12811435.00 L 9900667.00 12811435.00 L 9900667.00 12875625.00 L 9964858.00 12875625.00 L 9964858.00 12811435.00  z"/>
<path id="N" d="M 9900667.00 12362102.00 L 9836477.00 12362102.00 L 9836477.00 12426293.00 L 9900667.00 12426293.00 L 9900667.00 12362102.00  z"/>
<path id="N" d="M 10863523.00 15956762.00 L 10799332.00 15956762.00 L 10799332.00 16020952.00 L 10863523.00 16020952.00 L 10863523.00 15956762.00  z"/>
</g>
</svg>
