<svg width="52.00000268mm" height="45.00000144mm" viewBox="0 0 20472442 17716536"  version="1.1" xmlns="http://www.w3.org/2000/svg" xmlns:xlink="http://www.w3.org/1999/xlink">
<desc>
Origin 0 0 Bound 2500 2499 20472442 17716536
</desc>
<g fill-rule="evenodd" fill="rgb(0, 0, 255)" stroke="black" stroke-width="1" transform="translate(0, 17716536) scale(1, -1) translate(-2500, -2499)">
<path id="N" d="M 2736218.85 11846455.85 m -230814.01 0 a 230814.01 230814.01 0 1 1 461628.02 0a 230814.01 230814.01 0 1 1 -461628.02 0M 2736219.13 11846458.07 m -150528.93 0 a 150528.93 150528.93 0 1 1 301057.86 0a 150528.93 150528.93 0 1 1 -301057.86 0"/>
<path id="N" d="M 2962598.00 12620079.00 L 2509842.00 12620079.00 L 2509842.00 13072835.00 L 2962598.00 13072835.00 L 2962598.00 12620079.00  zM 2736219.13 12846458.07 m -150528.93 0 a 150528.93 150528.93 0 1 1 301057.86 0a 150528.93 150528.93 0 1 1 -301057.86 0"/>
<path id="N" d="M 8169290.26 3185037.65 m -337534.65 0 a 337534.65 337534.65 0 1 1 675069.30 0a 337534.65 337534.65 0 1 1 -675069.30 0M 8169292.22 3185035.65 m -220780.35 0 a 220780.35 220780.35 0 1 1 441560.70 0a 220780.35 220780.35 0 1 1 -441560.70 0"/>
<path id="N" d="M 5413384.26 3185037.65 m -337534.65 0 a 337534.65 337534.65 0 1 1 675069.30 0a 337534.65 337534.65 0 1 1 -675069.30 0M 5413386.22 3185035.65 m -220780.35 0 a 220780.35 220780.35 0 1 1 441560.70 0a 220780.35 220780.35 0 1 1 -441560.70 0"/>
<path id="N" d="M 5413384.26 5940943.65 m -337534.65 0 a 337534.65 337534.65 0 1 1 675069.30 0a 337534.65 337534.65 0 1 1 -675069.30 0M 5413386.22 5940941.65 m -220780.35 0 a 220780.35 220780.35 0 1 1 441560.70 0a 220780.35 220780.35 0 1 1 -441560.70 0"/>
<path id="N" d="M 8169290.26 5940943.65 m -337534.65 0 a 337534.65 337534.65 0 1 1 675069.30 0a 337534.65 337534.65 0 1 1 -675069.30 0M 8169292.22 5940941.65 m -220780.35 0 a 220780.35 220780.35 0 1 1 441560.70 0a 220780.35 220780.35 0 1 1 -441560.70 0"/>
<path id="N" d="M 13681093.93 3185024.95 m -337548.83 0 a 337548.83 337548.83 0 1 1 675097.65 0a 337548.83 337548.83 0 1 1 -675097.65 0M 13681103.22 3185035.65 m -220780.35 0 a 220780.35 220780.35 0 1 1 441560.70 0a 220780.35 220780.35 0 1 1 -441560.70 0"/>
<path id="N" d="M 10925187.93 3185024.95 m -337548.83 0 a 337548.83 337548.83 0 1 1 675097.65 0a 337548.83 337548.83 0 1 1 -675097.65 0M 10925197.22 3185035.65 m -220780.35 0 a 220780.35 220780.35 0 1 1 441560.70 0a 220780.35 220780.35 0 1 1 -441560.70 0"/>
<path id="N" d="M 10925187.93 5940930.95 m -337548.83 0 a 337548.83 337548.83 0 1 1 675097.65 0a 337548.83 337548.83 0 1 1 -675097.65 0M 10925197.22 5940941.65 m -220780.35 0 a 220780.35 220780.35 0 1 1 441560.70 0a 220780.35 220780.35 0 1 1 -441560.70 0"/>
<path id="N" d="M 13681093.93 5940930.95 m -337548.83 0 a 337548.83 337548.83 0 1 1 675097.65 0a 337548.83 337548.83 0 1 1 -675097.65 0M 13681103.22 5940941.65 m -220780.35 0 a 220780.35 220780.35 0 1 1 441560.70 0a 220780.35 220780.35 0 1 1 -441560.70 0"/>
<path id="N" d="M 17736218.85 8846455.85 m -230814.01 0 a 230814.01 230814.01 0 1 1 461628.02 0a 230814.01 230814.01 0 1 1 -461628.02 0M 17736219.13 8846458.07 m -150528.93 0 a 150528.93 150528.93 0 1 1 301057.86 0a 150528.93 150528.93 0 1 1 -301057.86 0"/>
<path id="N" d="M 2736218.85 8846455.85 m -230814.01 0 a 230814.01 230814.01 0 1 1 461628.02 0a 230814.01 230814.01 0 1 1 -461628.02 0M 2736219.13 8846458.07 m -150528.93 0 a 150528.93 150528.93 0 1 1 301057.86 0a 150528.93 150528.93 0 1 1 -301057.86 0"/>
<path id="N" d="M 2736218.85 10846455.85 m -230814.01 0 a 230814.01 230814.01 0 1 1 461628.02 0a 230814.01 230814.01 0 1 1 -461628.02 0M 2736219.13 10846458.07 m -150528.93 0 a 150528.93 150528.93 0 1 1 301057.86 0a 150528.93 150528.93 0 1 1 -301057.86 0"/>
<path id="N" d="M 17736218.85 7846455.85 m -230814.01 0 a 230814.01 230814.01 0 1 1 461628.02 0a 230814.01 230814.01 0 1 1 -461628.02 0M 17736219.13 7846458.07 m -150528.93 0 a 150528.93 150528.93 0 1 1 301057.86 0a 150528.93 150528.93 0 1 1 -301057.86 0"/>
<path id="N" d="M 2736218.85 7846455.85 m -230814.01 0 a 230814.01 230814.01 0 1 1 461628.02 0a 230814.01 230814.01 0 1 1 -461628.02 0M 2736219.13 7846458.07 m -150528.93 0 a 150528.93 150528.93 0 1 1 301057.86 0a 150528.93 150528.93 0 1 1 -301057.86 0"/>
<path id="N" d="M 2736218.85 9846455.85 m -230814.01 0 a 230814.01 230814.01 0 1 1 461628.02 0a 230814.01 230814.01 0 1 1 -461628.02 0M 2736219.13 9846458.07 m -150528.93 0 a 150528.93 150528.93 0 1 1 301057.86 0a 150528.93 150528.93 0 1 1 -301057.86 0"/>
<path id="N" d="M 17736218.85 6846455.85 m -230814.01 0 a 230814.01 230814.01 0 1 1 461628.02 0a 230814.01 230814.01 0 1 1 -461628.02 0M 17736219.13 6846458.07 m -150528.93 0 a 150528.93 150528.93 0 1 1 301057.86 0a 150528.93 150528.93 0 1 1 -301057.86 0"/>
<path id="N" d="M 2736218.85 6846455.85 m -230814.01 0 a 230814.01 230814.01 0 1 1 461628.02 0a 230814.01 230814.01 0 1 1 -461628.02 0M 2736219.13 6846458.07 m -150528.93 0 a 150528.93 150528.93 0 1 1 301057.86 0a 150528.93 150528.93 0 1 1 -301057.86 0"/>
<path id="N" d="M 17736218.85 10846455.85 m -230814.01 0 a 230814.01 230814.01 0 1 1 461628.02 0a 230814.01 230814.01 0 1 1 -461628.02 0M 17736219.13 10846458.07 m -150528.93 0 a 150528.93 150528.93 0 1 1 301057.86 0a 150528.93 150528.93 0 1 1 -301057.86 0"/>
<path id="N" d="M 17736218.85 9846455.85 m -230814.01 0 a 230814.01 230814.01 0 1 1 461628.02 0a 230814.01 230814.01 0 1 1 -461628.02 0M 17736219.13 9846458.07 m -150528.93 0 a 150528.93 150528.93 0 1 1 301057.86 0a 150528.93 150528.93 0 1 1 -301057.86 0"/>
<path id="N" d="M 17736218.85 11846455.85 m -230814.01 0 a 230814.01 230814.01 0 1 1 461628.02 0a 230814.01 230814.01 0 1 1 -461628.02 0M 17736219.13 11846458.07 m -150528.93 0 a 150528.93 150528.93 0 1 1 301057.86 0a 150528.93 150528.93 0 1 1 -301057.86 0"/>
<path id="N" d="M 17962598.00 12620079.00 L 17509842.00 12620079.00 L 17509842.00 13072835.00 L 17962598.00 13072835.00 L 17962598.00 12620079.00  zM 17736219.13 12846458.07 m -150528.93 0 a 150528.93 150528.93 0 1 1 301057.86 0a 150528.93 150528.93 0 1 1 -301057.86 0"/>
<path id="N" d="M 20600000.00 16600000.00 L 20600000.00 1213482.25 L 20549999.52 1186860.39 L 20539018.00 1194198.00 L 20500000.00 1201959.00 L 0.00 1201959.00 L 0.00 16632824.00 L 20500000.00 16632824.00 L 20539018.00 16640585.00 L 20551245.11 16648754.89 L 20600000.00 16600000.00  zM 2515352.88 5796457.00 L 2411726.20 5796457.00 L 2432084.00 5720480.00 A 329197.42 329197.42 0 0 1 2610243.00 5542321.00 L 2686220.00 5521963.20 L 2686220.00 5625589.88 L 2647892.00 5633214.00 L 2573011.00 5683248.00 L 2522977.00 5758129.00 L 2515352.88 5796457.00  zM 3060713.80 5796457.00 L 2957087.12 5796457.00 L 2949463.00 5758129.00 L 2899429.00 5683248.00 L 2824548.00 5633214.00 L 2786220.00 5625589.88 L 2786220.00 5521963.20 L 2862197.00 5542321.00 A 329197.42 329197.42 0 0 1 3040356.00 5720480.00 L 3060713.80 5796457.00  zM 5413385.00 3185032.52 m -438401.94 0 a 438401.94 438401.94 0 1 1 876803.88 0a 438401.94 438401.94 0 1 1 -876803.88 0M 6460387.53 3135039.00 L 6356693.00 3135039.00 L 6356693.00 3127817.00 A 438394.74 438394.74 0 0 1 6734116.00 2750394.00 L 6741338.00 2750394.00 L 6741338.00 2854088.53 L 6703978.00 2859007.00 A 337548.83 337548.83 0 0 0 6465306.00 3097679.00 L 6460387.53 3135039.00  zM 6741338.00 3619684.00 L 6734116.00 3619684.00 A 438394.74 438394.74 0 0 1 6356693.00 3242261.00 L 6356693.00 3235039.00 L 6460387.53 3235039.00 L 6465306.00 3272399.00 A 337534.65 337534.65 0 0 0 6703978.00 3511071.00 L 6741338.00 3515989.47 L 6741338.00 3619684.00  zM 6791339.22 3185035.65 m -220780.35 0 a 220780.35 220780.35 0 1 1 441560.70 0a 220780.35 220780.35 0 1 1 -441560.70 0M 7225983.00 3135039.00 L 7122288.47 3135039.00 L 7117370.00 3097679.00 A 337534.65 337534.65 0 0 0 6878698.00 2859007.00 L 6841338.00 2854088.53 L 6841338.00 2750394.00 L 6848560.00 2750394.00 A 438394.74 438394.74 0 0 1 7225983.00 3127817.00 L 7225983.00 3135039.00  zM 6848560.00 3619684.00 L 6841338.00 3619684.00 L 6841338.00 3515989.47 L 6878698.00 3511071.00 A 337548.83 337548.83 0 0 0 7117370.00 3272399.00 L 7122288.47 3235039.00 L 7225983.00 3235039.00 L 7225983.00 3242261.00 A 438394.74 438394.74 0 0 1 6848560.00 3619684.00  zM 6460387.53 5890945.00 L 6356693.00 5890945.00 L 6356693.00 5883723.00 A 438394.74 438394.74 0 0 1 6734116.00 5506300.00 L 6741338.00 5506300.00 L 6741338.00 5609994.53 L 6703978.00 5614913.00 A 337548.83 337548.83 0 0 0 6465306.00 5853585.00 L 6460387.53 5890945.00  zM 8169291.00 3185032.52 m -438401.94 0 a 438401.94 438401.94 0 1 1 876803.88 0a 438401.94 438401.94 0 1 1 -876803.88 0M 9216293.53 3135039.00 L 9112599.00 3135039.00 L 9112599.00 3127817.00 A 438394.74 438394.74 0 0 1 9490022.00 2750394.00 L 9497244.00 2750394.00 L 9497244.00 2854088.53 L 9459884.00 2859007.00 A 337548.83 337548.83 0 0 0 9221212.00 3097679.00 L 9216293.53 3135039.00  zM 9497244.00 3619684.00 L 9490022.00 3619684.00 A 438394.74 438394.74 0 0 1 9112599.00 3242261.00 L 9112599.00 3235039.00 L 9216293.53 3235039.00 L 9221212.00 3272399.00 A 337534.65 337534.65 0 0 0 9459884.00 3511071.00 L 9497244.00 3515989.47 L 9497244.00 3619684.00  zM 7225983.00 5890945.00 L 7122288.47 5890945.00 L 7117370.00 5853585.00 A 337534.65 337534.65 0 0 0 6878698.00 5614913.00 L 6841338.00 5609994.53 L 6841338.00 5506300.00 L 6848560.00 5506300.00 A 438394.74 438394.74 0 0 1 7225983.00 5883723.00 L 7225983.00 5890945.00  zM 9216293.53 5890945.00 L 9112599.00 5890945.00 L 9112599.00 5883723.00 A 438394.74 438394.74 0 0 1 9490022.00 5506300.00 L 9497244.00 5506300.00 L 9497244.00 5609994.53 L 9459884.00 5614913.00 A 337548.83 337548.83 0 0 0 9221212.00 5853585.00 L 9216293.53 5890945.00  zM 9547245.22 3185035.65 m -220780.35 0 a 220780.35 220780.35 0 1 1 441560.70 0a 220780.35 220780.35 0 1 1 -441560.70 0M 9981889.00 3135039.00 L 9878194.47 3135039.00 L 9873276.00 3097679.00 A 337534.65 337534.65 0 0 0 9634604.00 2859007.00 L 9597244.00 2854088.53 L 9597244.00 2750394.00 L 9604466.00 2750394.00 A 438394.74 438394.74 0 0 1 9981889.00 3127817.00 L 9981889.00 3135039.00  zM 9604466.00 3619684.00 L 9597244.00 3619684.00 L 9597244.00 3515989.47 L 9634604.00 3511071.00 A 337548.83 337548.83 0 0 0 9873276.00 3272399.00 L 9878194.47 3235039.00 L 9981889.00 3235039.00 L 9981889.00 3242261.00 A 438394.74 438394.74 0 0 1 9604466.00 3619684.00  zM 9981889.00 5890945.00 L 9878194.47 5890945.00 L 9873276.00 5853585.00 A 337534.65 337534.65 0 0 0 9634604.00 5614913.00 L 9597244.00 5609994.53 L 9597244.00 5506300.00 L 9604466.00 5506300.00 A 438394.74 438394.74 0 0 1 9981889.00 5883723.00 L 9981889.00 5890945.00  zM 2686220.00 6170950.80 L 2610243.00 6150593.00 A 329197.42 329197.42 0 0 1 2432084.00 5972434.00 L 2411726.20 5896457.00 L 2515352.88 5896457.00 L 2522977.00 5934785.00 L 2573011.00 6009666.00 L 2647892.00 6059700.00 L 2686220.00 6067324.12 L 2686220.00 6170950.80  zM 2736219.13 5846458.07 m -150528.93 0 a 150528.93 150528.93 0 1 1 301057.86 0a 150528.93 150528.93 0 1 1 -301057.86 0M 2786220.00 6170950.80 L 2786220.00 6067324.12 L 2824548.00 6059700.00 L 2899429.00 6009666.00 L 2949463.00 5934785.00 L 2957087.12 5896457.00 L 3060713.80 5896457.00 L 3040356.00 5972434.00 A 329197.42 329197.42 0 0 1 2862197.00 6150593.00 L 2786220.00 6170950.80  zM 5413385.00 5940938.52 m -438401.94 0 a 438401.94 438401.94 0 1 1 876803.88 0a 438401.94 438401.94 0 1 1 -876803.88 0M 6741338.00 6375590.00 L 6734116.00 6375590.00 A 438394.74 438394.74 0 0 1 6356693.00 5998167.00 L 6356693.00 5990945.00 L 6460387.53 5990945.00 L 6465306.00 6028305.00 A 337534.65 337534.65 0 0 0 6703978.00 6266977.00 L 6741338.00 6271895.47 L 6741338.00 6375590.00  zM 6791339.22 5940941.65 m -220780.35 0 a 220780.35 220780.35 0 1 1 441560.70 0a 220780.35 220780.35 0 1 1 -441560.70 0M 8169291.00 5940938.52 m -438401.94 0 a 438401.94 438401.94 0 1 1 876803.88 0a 438401.94 438401.94 0 1 1 -876803.88 0M 9497244.00 6375590.00 L 9490022.00 6375590.00 A 438394.74 438394.74 0 0 1 9112599.00 5998167.00 L 9112599.00 5990945.00 L 9216293.53 5990945.00 L 9221212.00 6028305.00 A 337534.65 337534.65 0 0 0 9459884.00 6266977.00 L 9497244.00 6271895.47 L 9497244.00 6375590.00  zM 9547245.22 5940941.65 m -220780.35 0 a 220780.35 220780.35 0 1 1 441560.70 0a 220780.35 220780.35 0 1 1 -441560.70 0M 2736220.00 6846455.58 m -329195.65 0 a 329195.65 329195.65 0 1 1 658391.29 0a 329195.65 329195.65 0 1 1 -658391.29 0M 2736220.00 7846455.58 m -329195.65 0 a 329195.65 329195.65 0 1 1 658391.29 0a 329195.65 329195.65 0 1 1 -658391.29 0M 2736220.00 9846455.58 m -329195.65 0 a 329195.65 329195.65 0 1 1 658391.29 0a 329195.65 329195.65 0 1 1 -658391.29 0M 2736220.00 10846455.58 m -329195.65 0 a 329195.65 329195.65 0 1 1 658391.29 0a 329195.65 329195.65 0 1 1 -658391.29 0M 2736220.00 11846455.58 m -329195.65 0 a 329195.65 329195.65 0 1 1 658391.29 0a 329195.65 329195.65 0 1 1 -658391.29 0M 2736220.00 8846455.58 m -329195.65 0 a 329195.65 329195.65 0 1 1 658391.29 0a 329195.65 329195.65 0 1 1 -658391.29 0M 3062598.00 13172835.00 L 2409842.00 13172835.00 L 2409842.00 12520079.00 L 3062598.00 12520079.00 L 3062598.00 13172835.00  zM 6848560.00 6375590.00 L 6841338.00 6375590.00 L 6841338.00 6271895.47 L 6878698.00 6266977.00 A 337548.83 337548.83 0 0 0 7117370.00 6028305.00 L 7122288.47 5990945.00 L 7225983.00 5990945.00 L 7225983.00 5998167.00 A 438394.74 438394.74 0 0 1 6848560.00 6375590.00  zM 9604466.00 6375590.00 L 9597244.00 6375590.00 L 9597244.00 6271895.47 L 9634604.00 6266977.00 A 337548.83 337548.83 0 0 0 9873276.00 6028305.00 L 9878194.47 5990945.00 L 9981889.00 5990945.00 L 9981889.00 5998167.00 A 438394.74 438394.74 0 0 1 9604466.00 6375590.00  zM 10925196.00 3185032.52 m -438401.94 0 a 438401.94 438401.94 0 1 1 876803.88 0a 438401.94 438401.94 0 1 1 -876803.88 0M 11972198.53 3135039.00 L 11868504.00 3135039.00 L 11868504.00 3127817.00 A 438394.74 438394.74 0 0 1 12245927.00 2750394.00 L 12253149.00 2750394.00 L 12253149.00 2854088.53 L 12215789.00 2859007.00 A 337534.65 337534.65 0 0 0 11977117.00 3097679.00 L 11972198.53 3135039.00  zM 12303150.22 3185035.65 m -220780.35 0 a 220780.35 220780.35 0 1 1 441560.70 0a 220780.35 220780.35 0 1 1 -441560.70 0M 12253149.00 3619684.00 L 12245927.00 3619684.00 A 438394.74 438394.74 0 0 1 11868504.00 3242261.00 L 11868504.00 3235039.00 L 11972198.53 3235039.00 L 11977117.00 3272399.00 A 337534.65 337534.65 0 0 0 12215789.00 3511071.00 L 12253149.00 3515989.47 L 12253149.00 3619684.00  zM 11972198.53 5890945.00 L 11868504.00 5890945.00 L 11868504.00 5883723.00 A 438394.74 438394.74 0 0 1 12245927.00 5506300.00 L 12253149.00 5506300.00 L 12253149.00 5609994.53 L 12215789.00 5614913.00 A 337534.65 337534.65 0 0 0 11977117.00 5853585.00 L 11972198.53 5890945.00  zM 12737794.00 3135039.00 L 12634099.47 3135039.00 L 12629181.00 3097679.00 A 337534.65 337534.65 0 0 0 12390509.00 2859007.00 L 12353149.00 2854088.53 L 12353149.00 2750394.00 L 12360371.00 2750394.00 A 438394.74 438394.74 0 0 1 12737794.00 3127817.00 L 12737794.00 3135039.00  zM 13681102.00 3185032.52 m -438401.94 0 a 438401.94 438401.94 0 1 1 876803.88 0a 438401.94 438401.94 0 1 1 -876803.88 0M 12360371.00 3619684.00 L 12353149.00 3619684.00 L 12353149.00 3515989.47 L 12390509.00 3511071.00 A 337534.65 337534.65 0 0 0 12629181.00 3272399.00 L 12634099.47 3235039.00 L 12737794.00 3235039.00 L 12737794.00 3242261.00 A 438394.74 438394.74 0 0 1 12360371.00 3619684.00  zM 12737794.00 5890945.00 L 12634099.47 5890945.00 L 12629181.00 5853585.00 A 337534.65 337534.65 0 0 0 12390509.00 5614913.00 L 12353149.00 5609994.53 L 12353149.00 5506300.00 L 12360371.00 5506300.00 A 438394.74 438394.74 0 0 1 12737794.00 5883723.00 L 12737794.00 5890945.00  zM 14728104.53 3135039.00 L 14624410.00 3135039.00 L 14624410.00 3127817.00 A 438394.74 438394.74 0 0 1 15001833.00 2750394.00 L 15009055.00 2750394.00 L 15009055.00 2854088.53 L 14971695.00 2859007.00 A 337534.65 337534.65 0 0 0 14733023.00 3097679.00 L 14728104.53 3135039.00  zM 15059056.22 3185035.65 m -220780.35 0 a 220780.35 220780.35 0 1 1 441560.70 0a 220780.35 220780.35 0 1 1 -441560.70 0M 15009055.00 3619684.00 L 15001833.00 3619684.00 A 438394.74 438394.74 0 0 1 14624410.00 3242261.00 L 14624410.00 3235039.00 L 14728104.53 3235039.00 L 14733023.00 3272399.00 A 337534.65 337534.65 0 0 0 14971695.00 3511071.00 L 15009055.00 3515989.47 L 15009055.00 3619684.00  zM 15116277.00 3619684.00 L 15109055.00 3619684.00 L 15109055.00 3515989.47 L 15146415.00 3511071.00 A 337534.65 337534.65 0 0 0 15385087.00 3272399.00 L 15390005.47 3235039.00 L 15493700.00 3235039.00 L 15493700.00 3242261.00 A 438394.74 438394.74 0 0 1 15116277.00 3619684.00  zM 14728104.53 5890945.00 L 14624410.00 5890945.00 L 14624410.00 5883723.00 A 438394.74 438394.74 0 0 1 15001833.00 5506300.00 L 15009055.00 5506300.00 L 15009055.00 5609994.53 L 14971695.00 5614913.00 A 337534.65 337534.65 0 0 0 14733023.00 5853585.00 L 14728104.53 5890945.00  zM 15493700.00 3135039.00 L 15390005.47 3135039.00 L 15385087.00 3097679.00 A 337534.65 337534.65 0 0 0 15146415.00 2859007.00 L 15109055.00 2854088.53 L 15109055.00 2750394.00 L 15116277.00 2750394.00 A 438394.74 438394.74 0 0 1 15493700.00 3127817.00 L 15493700.00 3135039.00  zM 17515352.88 5796457.00 L 17411726.20 5796457.00 L 17432084.00 5720480.00 A 329197.42 329197.42 0 0 1 17610243.00 5542321.00 L 17686220.00 5521963.20 L 17686220.00 5625589.88 L 17647892.00 5633214.00 L 17573011.00 5683248.00 L 17522977.00 5758129.00 L 17515352.88 5796457.00  zM 15493700.00 5890945.00 L 15390005.47 5890945.00 L 15385087.00 5853585.00 A 337534.65 337534.65 0 0 0 15146415.00 5614913.00 L 15109055.00 5609994.53 L 15109055.00 5506300.00 L 15116277.00 5506300.00 A 438394.74 438394.74 0 0 1 15493700.00 5883723.00 L 15493700.00 5890945.00  zM 18060713.80 5796457.00 L 17957087.12 5796457.00 L 17949463.00 5758129.00 L 17899429.00 5683248.00 L 17824548.00 5633214.00 L 17786220.00 5625589.88 L 17786220.00 5521963.20 L 17862197.00 5542321.00 A 329197.42 329197.42 0 0 1 18040356.00 5720480.00 L 18060713.80 5796457.00  zM 10925196.00 5940938.52 m -438401.94 0 a 438401.94 438401.94 0 1 1 876803.88 0a 438401.94 438401.94 0 1 1 -876803.88 0M 12253149.00 6375590.00 L 12245927.00 6375590.00 A 438394.74 438394.74 0 0 1 11868504.00 5998167.00 L 11868504.00 5990945.00 L 11972198.53 5990945.00 L 11977117.00 6028305.00 A 337534.65 337534.65 0 0 0 12215789.00 6266977.00 L 12253149.00 6271895.47 L 12253149.00 6375590.00  zM 12303150.22 5940941.65 m -220780.35 0 a 220780.35 220780.35 0 1 1 441560.70 0a 220780.35 220780.35 0 1 1 -441560.70 0M 12360371.00 6375590.00 L 12353149.00 6375590.00 L 12353149.00 6271895.47 L 12390509.00 6266977.00 A 337534.65 337534.65 0 0 0 12629181.00 6028305.00 L 12634099.47 5990945.00 L 12737794.00 5990945.00 L 12737794.00 5998167.00 A 438394.74 438394.74 0 0 1 12360371.00 6375590.00  zM 13681102.00 5940938.52 m -438401.94 0 a 438401.94 438401.94 0 1 1 876803.88 0a 438401.94 438401.94 0 1 1 -876803.88 0M 15059056.22 5940941.65 m -220780.35 0 a 220780.35 220780.35 0 1 1 441560.70 0a 220780.35 220780.35 0 1 1 -441560.70 0M 17686220.00 6170950.80 L 17610243.00 6150593.00 A 329197.42 329197.42 0 0 1 17432084.00 5972434.00 L 17411726.20 5896457.00 L 17515352.88 5896457.00 L 17522977.00 5934785.00 L 17573011.00 6009666.00 L 17647892.00 6059700.00 L 17686220.00 6067324.12 L 17686220.00 6170950.80  zM 17736219.13 5846458.07 m -150528.93 0 a 150528.93 150528.93 0 1 1 301057.86 0a 150528.93 150528.93 0 1 1 -301057.86 0M 17786220.00 6170950.80 L 17786220.00 6067324.12 L 17824548.00 6059700.00 L 17899429.00 6009666.00 L 17949463.00 5934785.00 L 17957087.12 5896457.00 L 18060713.80 5896457.00 L 18040356.00 5972434.00 A 329197.42 329197.42 0 0 1 17862197.00 6150593.00 L 17786220.00 6170950.80  zM 15009055.00 6375590.00 L 15001833.00 6375590.00 A 438394.74 438394.74 0 0 1 14624410.00 5998167.00 L 14624410.00 5990945.00 L 14728104.53 5990945.00 L 14733023.00 6028305.00 A 337534.65 337534.65 0 0 0 14971695.00 6266977.00 L 15009055.00 6271895.47 L 15009055.00 6375590.00  zM 15116277.00 6375590.00 L 15109055.00 6375590.00 L 15109055.00 6271895.47 L 15146415.00 6266977.00 A 337534.65 337534.65 0 0 0 15385087.00 6028305.00 L 15390005.47 5990945.00 L 15493700.00 5990945.00 L 15493700.00 5998167.00 A 438394.74 438394.74 0 0 1 15116277.00 6375590.00  zM 17736220.00 6846455.58 m -329195.65 0 a 329195.65 329195.65 0 1 1 658391.29 0a 329195.65 329195.65 0 1 1 -658391.29 0M 17736220.00 7846455.58 m -329195.65 0 a 329195.65 329195.65 0 1 1 658391.29 0a 329195.65 329195.65 0 1 1 -658391.29 0M 17736220.00 8846455.58 m -329195.65 0 a 329195.65 329195.65 0 1 1 658391.29 0a 329195.65 329195.65 0 1 1 -658391.29 0M 17736220.00 9846455.58 m -329195.65 0 a 329195.65 329195.65 0 1 1 658391.29 0a 329195.65 329195.65 0 1 1 -658391.29 0M 17736220.00 10846455.58 m -329195.65 0 a 329195.65 329195.65 0 1 1 658391.29 0a 329195.65 329195.65 0 1 1 -658391.29 0M 17736220.00 11846455.58 m -329195.65 0 a 329195.65 329195.65 0 1 1 658391.29 0a 329195.65 329195.65 0 1 1 -658391.29 0M 18062598.00 13172835.00 L 17409842.00 13172835.00 L 17409842.00 12520079.00 L 18062598.00 12520079.00 L 18062598.00 13172835.00  z"/>
</g>
</svg>
