<svg width="52.00000268mm" height="45.00000144mm" viewBox="0 0 20472442 17716536"  version="1.1" xmlns="http://www.w3.org/2000/svg" xmlns:xlink="http://www.w3.org/1999/xlink">
<desc>
Origin 0 0 Bound 2500 2499 20472442 17716536
</desc>
<g fill-rule="evenodd" fill="rgb(255, 0, 255)" stroke="black" stroke-width="1" transform="translate(0, 17716536) scale(1, -1) translate(-2500, -2499)">
<path id="N" d="M 20465270.00 16818982.00 L 20474939.00 16734782.00 L 20474940.00 986751.00 L 20465271.00 902550.00 A 1114230.58 1114230.58 0 0 0 18495740.00 424238.00 L 18448529.00 494626.00 L 18394970.00 567829.00 A 1110984.28 1110984.28 0 0 1 16603196.00 494625.00 L 16552543.00 419108.00 A 1114719.03 1114719.03 0 0 0 14808516.00 419108.00 L 14757863.00 494626.00 L 14704305.00 567830.00 A 1111013.67 1111013.67 0 0 1 12912529.00 494625.00 L 12861876.00 419108.00 A 1114719.03 1114719.03 0 0 0 11117849.00 419108.00 L 11067196.00 494626.00 L 11013637.00 567829.00 A 1110984.28 1110984.28 0 0 1 9221863.00 494625.00 L 9171211.00 419107.00 A 1114698.70 1114698.70 0 0 0 7427182.00 419107.00 L 7376529.00 494626.00 L 7322970.00 567829.00 A 1110984.28 1110984.28 0 0 1 5531196.00 494625.00 L 5480543.00 419108.00 A 1114719.03 1114719.03 0 0 0 3736516.00 419108.00 L 3685861.00 494626.00 L 3631381.00 568985.00 A 1111004.11 1111004.11 0 0 1 1821242.00 464855.00 L 1779028.00 397357.00 A 987450.67 987450.67 0 0 0 2499.00 907139.00 L 2499.00 16814394.00 A 987529.15 987529.15 0 0 0 1779030.00 17324176.00 L 1821243.00 17256678.00 L 1873322.00 17180618.00 A 1111004.37 1111004.37 0 0 1 3685862.00 17226909.00 L 3736515.00 17302426.00 A 1114719.03 1114719.03 0 0 0 5480543.00 17302425.00 L 5531196.00 17226909.00 L 5584755.00 17153706.00 A 1111015.87 1111015.87 0 0 1 7376529.00 17226909.00 L 7427182.00 17302426.00 A 1114719.03 1114719.03 0 0 0 9171210.00 17302425.00 L 9221863.00 17226908.00 L 9275422.00 17153705.00 A 1111015.87 1111015.87 0 0 1 11067196.00 17226908.00 L 11117848.00 17302426.00 A 1114719.03 1114719.03 0 0 0 12861876.00 17302425.00 L 12912530.00 17226908.00 L 12966089.00 17153705.00 A 1111015.87 1111015.87 0 0 1 14757862.00 17226909.00 L 14808515.00 17302426.00 A 1114719.03 1114719.03 0 0 0 16552543.00 17302425.00 L 16603196.00 17226909.00 L 16656755.00 17153706.00 A 1111015.87 1111015.87 0 0 1 18448529.00 17226909.00 L 18495741.00 17297295.00 A 1114223.31 1114223.31 0 0 0 20465270.00 16818982.00  zM 2736218.81 5846458.80 m -250882.20 0 a 250882.20 250882.20 0 1 1 501764.39 0a 250882.20 250882.20 0 1 1 -501764.39 0M 5413385.73 3185039.56 m -357386.44 0 a 357386.44 357386.44 0 1 1 714772.87 0a 357386.44 357386.44 0 1 1 -714772.87 0M 6791339.70 3185032.23 m -357393.77 0 a 357393.77 357393.77 0 1 1 714787.55 0a 357393.77 357393.77 0 1 1 -714787.55 0M 5413385.73 5940945.56 m -357386.44 0 a 357386.44 357386.44 0 1 1 714772.87 0a 357386.44 357386.44 0 1 1 -714772.87 0M 8169291.73 3185039.56 m -357386.44 0 a 357386.44 357386.44 0 1 1 714772.87 0a 357386.44 357386.44 0 1 1 -714772.87 0M 6791339.70 5940938.23 m -357393.77 0 a 357393.77 357393.77 0 1 1 714787.55 0a 357393.77 357393.77 0 1 1 -714787.55 0M 9547245.70 3185032.23 m -357393.77 0 a 357393.77 357393.77 0 1 1 714787.55 0a 357393.77 357393.77 0 1 1 -714787.55 0M 8169291.73 5940945.56 m -357386.44 0 a 357386.44 357386.44 0 1 1 714772.87 0a 357386.44 357386.44 0 1 1 -714772.87 0M 2736218.81 6846458.80 m -250882.20 0 a 250882.20 250882.20 0 1 1 501764.39 0a 250882.20 250882.20 0 1 1 -501764.39 0M 2736218.81 8846458.80 m -250882.20 0 a 250882.20 250882.20 0 1 1 501764.39 0a 250882.20 250882.20 0 1 1 -501764.39 0M 2736218.81 7846458.80 m -250882.20 0 a 250882.20 250882.20 0 1 1 501764.39 0a 250882.20 250882.20 0 1 1 -501764.39 0M 9547245.70 5940938.23 m -357393.77 0 a 357393.77 357393.77 0 1 1 714787.55 0a 357393.77 357393.77 0 1 1 -714787.55 0M 2736218.81 9846458.80 m -250882.20 0 a 250882.20 250882.20 0 1 1 501764.39 0a 250882.20 250882.20 0 1 1 -501764.39 0M 2736218.81 10846458.80 m -250882.20 0 a 250882.20 250882.20 0 1 1 501764.39 0a 250882.20 250882.20 0 1 1 -501764.39 0M 2736218.81 11846458.80 m -250882.20 0 a 250882.20 250882.20 0 1 1 501764.39 0a 250882.20 250882.20 0 1 1 -501764.39 0M 2982283.00 13092520.00 L 2490157.00 13092520.00 L 2490157.00 12600394.00 L 2982283.00 12600394.00 L 2982283.00 13092520.00  zM 10925197.70 3185032.23 m -357393.77 0 a 357393.77 357393.77 0 1 1 714787.55 0a 357393.77 357393.77 0 1 1 -714787.55 0M 12303149.73 3185039.56 m -357386.44 0 a 357386.44 357386.44 0 1 1 714772.87 0a 357386.44 357386.44 0 1 1 -714772.87 0M 10925197.70 5940938.23 m -357393.77 0 a 357393.77 357393.77 0 1 1 714787.55 0a 357393.77 357393.77 0 1 1 -714787.55 0M 12303149.73 5940945.56 m -357386.44 0 a 357386.44 357386.44 0 1 1 714772.87 0a 357386.44 357386.44 0 1 1 -714772.87 0M 13681103.70 3185032.23 m -357393.77 0 a 357393.77 357393.77 0 1 1 714787.55 0a 357393.77 357393.77 0 1 1 -714787.55 0M 15059055.73 3185039.56 m -357386.44 0 a 357386.44 357386.44 0 1 1 714772.87 0a 357386.44 357386.44 0 1 1 -714772.87 0M 15059055.73 5940945.56 m -357386.44 0 a 357386.44 357386.44 0 1 1 714772.87 0a 357386.44 357386.44 0 1 1 -714772.87 0M 17736218.81 5846458.80 m -250882.20 0 a 250882.20 250882.20 0 1 1 501764.39 0a 250882.20 250882.20 0 1 1 -501764.39 0M 13681103.70 5940938.23 m -357393.77 0 a 357393.77 357393.77 0 1 1 714787.55 0a 357393.77 357393.77 0 1 1 -714787.55 0M 17736218.81 6846458.80 m -250882.20 0 a 250882.20 250882.20 0 1 1 501764.39 0a 250882.20 250882.20 0 1 1 -501764.39 0M 17736218.81 7846458.80 m -250882.20 0 a 250882.20 250882.20 0 1 1 501764.39 0a 250882.20 250882.20 0 1 1 -501764.39 0M 17736218.81 8846458.80 m -250882.20 0 a 250882.20 250882.20 0 1 1 501764.39 0a 250882.20 250882.20 0 1 1 -501764.39 0M 17736218.81 9846458.80 m -250882.20 0 a 250882.20 250882.20 0 1 1 501764.39 0a 250882.20 250882.20 0 1 1 -501764.39 0M 17736218.81 10846458.80 m -250882.20 0 a 250882.20 250882.20 0 1 1 501764.39 0a 250882.20 250882.20 0 1 1 -501764.39 0M 17736218.81 11846458.80 m -250882.20 0 a 250882.20 250882.20 0 1 1 501764.39 0a 250882.20 250882.20 0 1 1 -501764.39 0M 17982283.00 13092520.00 L 17490157.00 13092520.00 L 17490157.00 12600394.00 L 17982283.00 12600394.00 L 17982283.00 13092520.00  z"/>
</g>
</svg>
