<svg width="52.00000268mm" height="45.00000144mm" viewBox="0 0 20472442 17716536"  version="1.1" xmlns="http://www.w3.org/2000/svg" xmlns:xlink="http://www.w3.org/1999/xlink">
<desc>
Origin 0 0 Bound 2500 2499 20472442 17716536
</desc>
<g fill-rule="evenodd" fill="rgb(255, 0, 0)" stroke="black" stroke-width="1" transform="translate(0, 17716536) scale(1, -1) translate(-2500, -2499)">
<path id="N" d="M 10550000.00 11850000.00 L 9900000.00 11850000.00 L 9900000.00 8191236.00 L 11583848.00 8191236.00 L 11583848.00 7000000.00 L 16250000.00 7000000.00 L 16250000.00 1250000.00 L 4250000.00 1250000.00 L 4250000.00 7000000.00 L 9221862.97 7000000.00 L 9250000.69 12248041.00 L 10550000.00 12248041.00 L 10550000.00 11850000.00  zM 5082434.53 3135039.00 L 4978740.00 3135039.00 L 4978740.00 3127817.00 A 438394.74 438394.74 0 0 1 5356163.00 2750394.00 L 5363385.00 2750394.00 L 5363385.00 2854088.53 L 5326025.00 2859007.00 A 337534.65 337534.65 0 0 0 5087353.00 3097679.00 L 5082434.53 3135039.00  zM 5413386.22 3185035.65 m -220780.35 0 a 220780.35 220780.35 0 1 1 441560.70 0a 220780.35 220780.35 0 1 1 -441560.70 0M 5363385.00 3619684.00 L 5356163.00 3619684.00 A 438394.74 438394.74 0 0 1 4978740.00 3242261.00 L 4978740.00 3235039.00 L 5082434.53 3235039.00 L 5087353.00 3272399.00 A 337534.65 337534.65 0 0 0 5326025.00 3511071.00 L 5363385.00 3515989.47 L 5363385.00 3619684.00  zM 5848030.00 3135039.00 L 5744335.47 3135039.00 L 5739417.00 3097679.00 A 337534.65 337534.65 0 0 0 5500745.00 2859007.00 L 5463385.00 2854088.53 L 5463385.00 2750394.00 L 5470607.00 2750394.00 A 438394.74 438394.74 0 0 1 5848030.00 3127817.00 L 5848030.00 3135039.00  zM 5470607.00 3619684.00 L 5463385.00 3619684.00 L 5463385.00 3515989.47 L 5500745.00 3511071.00 A 337534.65 337534.65 0 0 0 5739417.00 3272399.00 L 5744335.47 3235039.00 L 5848030.00 3235039.00 L 5848030.00 3242261.00 A 438394.74 438394.74 0 0 1 5470607.00 3619684.00  zM 6791338.00 3185032.52 m -438401.94 0 a 438401.94 438401.94 0 1 1 876803.88 0a 438401.94 438401.94 0 1 1 -876803.88 0M 5082434.53 5890945.00 L 4978740.00 5890945.00 L 4978740.00 5883723.00 A 438394.74 438394.74 0 0 1 5356163.00 5506300.00 L 5363385.00 5506300.00 L 5363385.00 5609994.53 L 5326025.00 5614913.00 A 337534.65 337534.65 0 0 0 5087353.00 5853585.00 L 5082434.53 5890945.00  zM 5413386.22 5940941.65 m -220780.35 0 a 220780.35 220780.35 0 1 1 441560.70 0a 220780.35 220780.35 0 1 1 -441560.70 0M 5363385.00 6375590.00 L 5356163.00 6375590.00 A 438394.74 438394.74 0 0 1 4978740.00 5998167.00 L 4978740.00 5990945.00 L 5082434.53 5990945.00 L 5087353.00 6028305.00 A 337534.65 337534.65 0 0 0 5326025.00 6266977.00 L 5363385.00 6271895.47 L 5363385.00 6375590.00  zM 5848030.00 5890945.00 L 5744335.47 5890945.00 L 5739417.00 5853585.00 A 337534.65 337534.65 0 0 0 5500745.00 5614913.00 L 5463385.00 5609994.53 L 5463385.00 5506300.00 L 5470607.00 5506300.00 A 438394.74 438394.74 0 0 1 5848030.00 5883723.00 L 5848030.00 5890945.00  zM 5470607.00 6375590.00 L 5463385.00 6375590.00 L 5463385.00 6271895.47 L 5500745.00 6266977.00 A 337534.65 337534.65 0 0 0 5739417.00 6028305.00 L 5744335.47 5990945.00 L 5848030.00 5990945.00 L 5848030.00 5998167.00 A 438394.74 438394.74 0 0 1 5470607.00 6375590.00  zM 6791338.00 5940938.52 m -438401.94 0 a 438401.94 438401.94 0 1 1 876803.88 0a 438401.94 438401.94 0 1 1 -876803.88 0M 7838340.53 3135039.00 L 7734646.00 3135039.00 L 7734646.00 3127817.00 A 438394.74 438394.74 0 0 1 8112069.00 2750394.00 L 8119291.00 2750394.00 L 8119291.00 2854088.53 L 8081931.00 2859007.00 A 337534.65 337534.65 0 0 0 7843259.00 3097679.00 L 7838340.53 3135039.00  zM 8169292.22 3185035.65 m -220780.35 0 a 220780.35 220780.35 0 1 1 441560.70 0a 220780.35 220780.35 0 1 1 -441560.70 0M 8119291.00 3619684.00 L 8112069.00 3619684.00 A 438394.74 438394.74 0 0 1 7734646.00 3242261.00 L 7734646.00 3235039.00 L 7838340.53 3235039.00 L 7843259.00 3272399.00 A 337534.65 337534.65 0 0 0 8081931.00 3511071.00 L 8119291.00 3515989.47 L 8119291.00 3619684.00  zM 8603936.00 3135039.00 L 8500241.47 3135039.00 L 8495323.00 3097679.00 A 337534.65 337534.65 0 0 0 8256651.00 2859007.00 L 8219291.00 2854088.53 L 8219291.00 2750394.00 L 8226513.00 2750394.00 A 438394.74 438394.74 0 0 1 8603936.00 3127817.00 L 8603936.00 3135039.00  zM 8226513.00 3619684.00 L 8219291.00 3619684.00 L 8219291.00 3515989.47 L 8256651.00 3511071.00 A 337534.65 337534.65 0 0 0 8495323.00 3272399.00 L 8500241.47 3235039.00 L 8603936.00 3235039.00 L 8603936.00 3242261.00 A 438394.74 438394.74 0 0 1 8226513.00 3619684.00  zM 9547244.00 3185032.52 m -438401.94 0 a 438401.94 438401.94 0 1 1 876803.88 0a 438401.94 438401.94 0 1 1 -876803.88 0M 7838340.53 5890945.00 L 7734646.00 5890945.00 L 7734646.00 5883723.00 A 438394.74 438394.74 0 0 1 8112069.00 5506300.00 L 8119291.00 5506300.00 L 8119291.00 5609994.53 L 8081931.00 5614913.00 A 337534.65 337534.65 0 0 0 7843259.00 5853585.00 L 7838340.53 5890945.00  zM 8169292.22 5940941.65 m -220780.35 0 a 220780.35 220780.35 0 1 1 441560.70 0a 220780.35 220780.35 0 1 1 -441560.70 0M 8119291.00 6375590.00 L 8112069.00 6375590.00 A 438394.74 438394.74 0 0 1 7734646.00 5998167.00 L 7734646.00 5990945.00 L 7838340.53 5990945.00 L 7843259.00 6028305.00 A 337534.65 337534.65 0 0 0 8081931.00 6266977.00 L 8119291.00 6271895.47 L 8119291.00 6375590.00  zM 8603936.00 5890945.00 L 8500241.47 5890945.00 L 8495323.00 5853585.00 A 337534.65 337534.65 0 0 0 8256651.00 5614913.00 L 8219291.00 5609994.53 L 8219291.00 5506300.00 L 8226513.00 5506300.00 A 438394.74 438394.74 0 0 1 8603936.00 5883723.00 L 8603936.00 5890945.00  zM 8226513.00 6375590.00 L 8219291.00 6375590.00 L 8219291.00 6271895.47 L 8256651.00 6266977.00 A 337534.65 337534.65 0 0 0 8495323.00 6028305.00 L 8500241.47 5990945.00 L 8603936.00 5990945.00 L 8603936.00 5998167.00 A 438394.74 438394.74 0 0 1 8226513.00 6375590.00  zM 9547244.00 5940938.52 m -438401.94 0 a 438401.94 438401.94 0 1 1 876803.88 0a 438401.94 438401.94 0 1 1 -876803.88 0M 10594245.53 3135039.00 L 10490551.00 3135039.00 L 10490551.00 3127817.00 A 438394.74 438394.74 0 0 1 10867974.00 2750394.00 L 10875196.00 2750394.00 L 10875196.00 2854088.53 L 10837836.00 2859007.00 A 337548.83 337548.83 0 0 0 10599164.00 3097679.00 L 10594245.53 3135039.00  zM 10925197.22 3185035.65 m -220780.35 0 a 220780.35 220780.35 0 1 1 441560.70 0a 220780.35 220780.35 0 1 1 -441560.70 0M 10875196.00 3619684.00 L 10867974.00 3619684.00 A 438394.74 438394.74 0 0 1 10490551.00 3242261.00 L 10490551.00 3235039.00 L 10594245.53 3235039.00 L 10599164.00 3272399.00 A 337534.65 337534.65 0 0 0 10837836.00 3511071.00 L 10875196.00 3515989.47 L 10875196.00 3619684.00  zM 11359841.00 3135039.00 L 11256146.47 3135039.00 L 11251228.00 3097679.00 A 337534.65 337534.65 0 0 0 11012556.00 2859007.00 L 10975196.00 2854088.53 L 10975196.00 2750394.00 L 10982418.00 2750394.00 A 438394.74 438394.74 0 0 1 11359841.00 3127817.00 L 11359841.00 3135039.00  zM 10982418.00 3619684.00 L 10975196.00 3619684.00 L 10975196.00 3515989.47 L 11012556.00 3511071.00 A 337548.83 337548.83 0 0 0 11251228.00 3272399.00 L 11256146.47 3235039.00 L 11359841.00 3235039.00 L 11359841.00 3242261.00 A 438394.74 438394.74 0 0 1 10982418.00 3619684.00  zM 12303149.00 3185032.52 m -438401.94 0 a 438401.94 438401.94 0 1 1 876803.88 0a 438401.94 438401.94 0 1 1 -876803.88 0M 10594245.53 5890945.00 L 10490551.00 5890945.00 L 10490551.00 5883723.00 A 438394.74 438394.74 0 0 1 10867974.00 5506300.00 L 10875196.00 5506300.00 L 10875196.00 5609994.53 L 10837836.00 5614913.00 A 337548.83 337548.83 0 0 0 10599164.00 5853585.00 L 10594245.53 5890945.00  zM 10925197.22 5940941.65 m -220780.35 0 a 220780.35 220780.35 0 1 1 441560.70 0a 220780.35 220780.35 0 1 1 -441560.70 0M 10875196.00 6375590.00 L 10867974.00 6375590.00 A 438394.74 438394.74 0 0 1 10490551.00 5998167.00 L 10490551.00 5990945.00 L 10594245.53 5990945.00 L 10599164.00 6028305.00 A 337534.65 337534.65 0 0 0 10837836.00 6266977.00 L 10875196.00 6271895.47 L 10875196.00 6375590.00  zM 11359841.00 5890945.00 L 11256146.47 5890945.00 L 11251228.00 5853585.00 A 337534.65 337534.65 0 0 0 11012556.00 5614913.00 L 10975196.00 5609994.53 L 10975196.00 5506300.00 L 10982418.00 5506300.00 A 438394.74 438394.74 0 0 1 11359841.00 5883723.00 L 11359841.00 5890945.00  zM 10982418.00 6375590.00 L 10975196.00 6375590.00 L 10975196.00 6271895.47 L 11012556.00 6266977.00 A 337548.83 337548.83 0 0 0 11251228.00 6028305.00 L 11256146.47 5990945.00 L 11359841.00 5990945.00 L 11359841.00 5998167.00 A 438394.74 438394.74 0 0 1 10982418.00 6375590.00  zM 12303149.00 5940938.52 m -438401.94 0 a 438401.94 438401.94 0 1 1 876803.88 0a 438401.94 438401.94 0 1 1 -876803.88 0M 13350151.53 3135039.00 L 13246457.00 3135039.00 L 13246457.00 3127817.00 A 438394.74 438394.74 0 0 1 13623880.00 2750394.00 L 13631102.00 2750394.00 L 13631102.00 2854088.53 L 13593742.00 2859007.00 A 337548.83 337548.83 0 0 0 13355070.00 3097679.00 L 13350151.53 3135039.00  zM 13681103.22 3185035.65 m -220780.35 0 a 220780.35 220780.35 0 1 1 441560.70 0a 220780.35 220780.35 0 1 1 -441560.70 0M 13631102.00 3619684.00 L 13623880.00 3619684.00 A 438394.74 438394.74 0 0 1 13246457.00 3242261.00 L 13246457.00 3235039.00 L 13350151.53 3235039.00 L 13355070.00 3272399.00 A 337534.65 337534.65 0 0 0 13593742.00 3511071.00 L 13631102.00 3515989.47 L 13631102.00 3619684.00  zM 14115747.00 3135039.00 L 14012052.47 3135039.00 L 14007134.00 3097679.00 A 337534.65 337534.65 0 0 0 13768462.00 2859007.00 L 13731102.00 2854088.53 L 13731102.00 2750394.00 L 13738324.00 2750394.00 A 438394.74 438394.74 0 0 1 14115747.00 3127817.00 L 14115747.00 3135039.00  zM 13738324.00 3619684.00 L 13731102.00 3619684.00 L 13731102.00 3515989.47 L 13768462.00 3511071.00 A 337548.83 337548.83 0 0 0 14007134.00 3272399.00 L 14012052.47 3235039.00 L 14115747.00 3235039.00 L 14115747.00 3242261.00 A 438394.74 438394.74 0 0 1 13738324.00 3619684.00  zM 15059055.00 3185032.52 m -438401.94 0 a 438401.94 438401.94 0 1 1 876803.88 0a 438401.94 438401.94 0 1 1 -876803.88 0M 13350151.53 5890945.00 L 13246457.00 5890945.00 L 13246457.00 5883723.00 A 438394.74 438394.74 0 0 1 13623880.00 5506300.00 L 13631102.00 5506300.00 L 13631102.00 5609994.53 L 13593742.00 5614913.00 A 337548.83 337548.83 0 0 0 13355070.00 5853585.00 L 13350151.53 5890945.00  zM 13681103.22 5940941.65 m -220780.35 0 a 220780.35 220780.35 0 1 1 441560.70 0a 220780.35 220780.35 0 1 1 -441560.70 0M 13631102.00 6375590.00 L 13623880.00 6375590.00 A 438394.74 438394.74 0 0 1 13246457.00 5998167.00 L 13246457.00 5990945.00 L 13350151.53 5990945.00 L 13355070.00 6028305.00 A 337534.65 337534.65 0 0 0 13593742.00 6266977.00 L 13631102.00 6271895.47 L 13631102.00 6375590.00  zM 14115747.00 5890945.00 L 14012052.47 5890945.00 L 14007134.00 5853585.00 A 337534.65 337534.65 0 0 0 13768462.00 5614913.00 L 13731102.00 5609994.53 L 13731102.00 5506300.00 L 13738324.00 5506300.00 A 438394.74 438394.74 0 0 1 14115747.00 5883723.00 L 14115747.00 5890945.00  zM 13738324.00 6375590.00 L 13731102.00 6375590.00 L 13731102.00 6271895.47 L 13768462.00 6266977.00 A 337548.83 337548.83 0 0 0 14007134.00 6028305.00 L 14012052.47 5990945.00 L 14115747.00 5990945.00 L 14115747.00 5998167.00 A 438394.74 438394.74 0 0 1 13738324.00 6375590.00  zM 15059055.00 5940938.52 m -438401.94 0 a 438401.94 438401.94 0 1 1 876803.88 0a 438401.94 438401.94 0 1 1 -876803.88 0"/>
<path id="N" d="M 12851575.00 15093307.00 L 12497245.00 15093307.00 L 12497245.00 15147463.00 L 10263183.00 15147463.00 L 8502537.00 13386817.00 L 8502537.00 11300000.00 L 9100000.00 11300000.00 L 9100000.00 11040000.00 L 9135000.00 11040000.00 L 9135000.00 10560000.00 L 9100000.00 10560000.00 L 9100000.00 10147892.07 L 9107537.00 10110000.00 L 9107537.00 10050000.00 L 9100000.00 10012108.58 L 9100000.00 9550000.00 L 5200000.00 9550000.00 L 3450000.00 11300000.00 L 2000000.00 11300000.00 L 2000000.00 13500000.00 L 3550000.00 13500000.00 L 5785070.00 11300000.00 L 8197463.00 11300000.00 L 8197463.00 13450000.00 L 8209074.00 13508374.00 L 8242140.00 13557860.00 L 10092140.00 15407860.00 L 10141626.00 15440926.00 L 10200000.00 15452537.00 L 12497245.00 15452537.00 L 12497245.00 15506693.00 L 12851575.00 15506693.00 L 12851575.00 15093307.00  zM 2515352.88 11796457.00 L 2411726.20 11796457.00 L 2432084.00 11720480.00 A 329197.42 329197.42 0 0 1 2610243.00 11542321.00 L 2686220.00 11521963.20 L 2686220.00 11625589.88 L 2647892.00 11633214.00 L 2573011.00 11683248.00 L 2522977.00 11758129.00 L 2515352.88 11796457.00  zM 2736219.13 11846458.07 m -150528.93 0 a 150528.93 150528.93 0 1 1 301057.86 0a 150528.93 150528.93 0 1 1 -301057.86 0M 2686220.00 12170950.80 L 2610243.00 12150593.00 A 329197.42 329197.42 0 0 1 2432084.00 11972434.00 L 2411726.20 11896457.00 L 2515352.88 11896457.00 L 2522977.00 11934785.00 L 2573011.00 12009666.00 L 2647892.00 12059700.00 L 2686220.00 12067324.12 L 2686220.00 12170950.80  zM 3060713.80 11796457.00 L 2957087.12 11796457.00 L 2949463.00 11758129.00 L 2899429.00 11683248.00 L 2824548.00 11633214.00 L 2786220.00 11625589.88 L 2786220.00 11521963.20 L 2862197.00 11542321.00 A 329197.42 329197.42 0 0 1 3040356.00 11720480.00 L 3060713.80 11796457.00  zM 2786220.00 12170950.80 L 2786220.00 12067324.12 L 2824548.00 12059700.00 L 2899429.00 12009666.00 L 2949463.00 11934785.00 L 2957087.12 11896457.00 L 3060713.80 11896457.00 L 3040356.00 11972434.00 A 329197.42 329197.42 0 0 1 2862197.00 12150593.00 L 2786220.00 12170950.80  zM 2509842.00 12796457.00 L 2409842.00 12796457.00 L 2409842.00 12520079.00 L 2686220.00 12520079.00 L 2686220.00 12620079.00 L 2509842.00 12620079.00 L 2509842.00 12796457.00  zM 2736219.13 12846458.07 m -150528.93 0 a 150528.93 150528.93 0 1 1 301057.86 0a 150528.93 150528.93 0 1 1 -301057.86 0M 2686220.00 13172835.00 L 2409842.00 13172835.00 L 2409842.00 12896457.00 L 2509842.00 12896457.00 L 2509842.00 13072835.00 L 2686220.00 13072835.00 L 2686220.00 13172835.00  zM 3062598.00 12796457.00 L 2962598.00 12796457.00 L 2962598.00 12620079.00 L 2786220.00 12620079.00 L 2786220.00 12520079.00 L 3062598.00 12520079.00 L 3062598.00 12796457.00  zM 3062598.00 13172835.00 L 2786220.00 13172835.00 L 2786220.00 13072835.00 L 2962598.00 13072835.00 L 2962598.00 12896457.00 L 3062598.00 12896457.00 L 3062598.00 13172835.00  z"/>
<path id="N" d="M 15059054.26 3185037.65 m -337534.65 0 a 337534.65 337534.65 0 1 1 675069.30 0a 337534.65 337534.65 0 1 1 -675069.30 0M 15059056.22 3185035.65 m -220780.35 0 a 220780.35 220780.35 0 1 1 441560.70 0a 220780.35 220780.35 0 1 1 -441560.70 0"/>
<path id="N" d="M 15059054.26 5940943.65 m -337534.65 0 a 337534.65 337534.65 0 1 1 675069.30 0a 337534.65 337534.65 0 1 1 -675069.30 0M 15059056.22 5940941.65 m -220780.35 0 a 220780.35 220780.35 0 1 1 441560.70 0a 220780.35 220780.35 0 1 1 -441560.70 0"/>
<path id="N" d="M 12303148.26 5940943.65 m -337534.65 0 a 337534.65 337534.65 0 1 1 675069.30 0a 337534.65 337534.65 0 1 1 -675069.30 0M 12303150.22 5940941.65 m -220780.35 0 a 220780.35 220780.35 0 1 1 441560.70 0a 220780.35 220780.35 0 1 1 -441560.70 0"/>
<path id="N" d="M 12303148.26 3185037.65 m -337534.65 0 a 337534.65 337534.65 0 1 1 675069.30 0a 337534.65 337534.65 0 1 1 -675069.30 0M 12303150.22 3185035.65 m -220780.35 0 a 220780.35 220780.35 0 1 1 441560.70 0a 220780.35 220780.35 0 1 1 -441560.70 0"/>
<path id="N" d="M 6791329.93 5940930.95 m -337548.83 0 a 337548.83 337548.83 0 1 1 675097.65 0a 337548.83 337548.83 0 1 1 -675097.65 0M 6791339.22 5940941.65 m -220780.35 0 a 220780.35 220780.35 0 1 1 441560.70 0a 220780.35 220780.35 0 1 1 -441560.70 0"/>
<path id="N" d="M 9547235.93 5940930.95 m -337548.83 0 a 337548.83 337548.83 0 1 1 675097.65 0a 337548.83 337548.83 0 1 1 -675097.65 0M 9547245.22 5940941.65 m -220780.35 0 a 220780.35 220780.35 0 1 1 441560.70 0a 220780.35 220780.35 0 1 1 -441560.70 0"/>
<path id="N" d="M 9547235.93 3185024.95 m -337548.83 0 a 337548.83 337548.83 0 1 1 675097.65 0a 337548.83 337548.83 0 1 1 -675097.65 0M 9547245.22 3185035.65 m -220780.35 0 a 220780.35 220780.35 0 1 1 441560.70 0a 220780.35 220780.35 0 1 1 -441560.70 0"/>
<path id="N" d="M 6791329.93 3185024.95 m -337548.83 0 a 337548.83 337548.83 0 1 1 675097.65 0a 337548.83 337548.83 0 1 1 -675097.65 0M 6791339.22 3185035.65 m -220780.35 0 a 220780.35 220780.35 0 1 1 441560.70 0a 220780.35 220780.35 0 1 1 -441560.70 0"/>
<path id="N" d="M 2736218.85 5846455.85 m -230814.01 0 a 230814.01 230814.01 0 1 1 461628.02 0a 230814.01 230814.01 0 1 1 -461628.02 0M 2736219.13 5846458.07 m -150528.93 0 a 150528.93 150528.93 0 1 1 301057.86 0a 150528.93 150528.93 0 1 1 -301057.86 0"/>
<path id="N" d="M 17736218.85 5846455.85 m -230814.01 0 a 230814.01 230814.01 0 1 1 461628.02 0a 230814.01 230814.01 0 1 1 -461628.02 0M 17736219.13 5846458.07 m -150528.93 0 a 150528.93 150528.93 0 1 1 301057.86 0a 150528.93 150528.93 0 1 1 -301057.86 0"/>
<path id="N" d="M 12800000.00 11447463.00 L 12350000.00 11447463.00 L 12291627.00 11459074.00 L 12245152.68 11490127.00 L 12123425.00 11490127.00 L 12108509.00 11496305.00 L 12102331.00 11511221.00 L 12102331.00 11688779.00 L 12108509.00 11703695.00 L 12123425.00 11709873.00 L 12245152.68 11709873.00 L 12291627.00 11740926.00 L 12350000.00 11752537.00 L 12800000.00 11752537.00 A 152536.45 152536.45 0 0 0 12800000.00 11447463.00  z"/>
<path id="N" d="M 16151574.00 9543307.00 L 16102537.00 9543307.00 L 16102537.00 9250000.00 A 152537.16 152537.16 0 1 0 15797463.00 9250000.00 L 15797244.00 9956693.00 L 16151574.00 9956693.00 L 16151574.00 9543307.00  z"/>
<path id="N" d="M 10550000.00 12350000.00 L 9250000.00 12350000.00 L 9250000.00 12750000.00 L 10550000.00 12750000.00 L 10550000.00 12350000.00  z"/>
<path id="N" d="M 2736218.85 9846455.85 m -230814.01 0 a 230814.01 230814.01 0 1 1 461628.02 0a 230814.01 230814.01 0 1 1 -461628.02 0M 2736219.13 9846458.07 m -150528.93 0 a 150528.93 150528.93 0 1 1 301057.86 0a 150528.93 150528.93 0 1 1 -301057.86 0"/>
<path id="N" d="M 17736218.85 6846455.85 m -230814.01 0 a 230814.01 230814.01 0 1 1 461628.02 0a 230814.01 230814.01 0 1 1 -461628.02 0M 17736219.13 6846458.07 m -150528.93 0 a 150528.93 150528.93 0 1 1 301057.86 0a 150528.93 150528.93 0 1 1 -301057.86 0"/>
<path id="N" d="M 17736218.85 8846455.85 m -230814.01 0 a 230814.01 230814.01 0 1 1 461628.02 0a 230814.01 230814.01 0 1 1 -461628.02 0M 17736219.13 8846458.07 m -150528.93 0 a 150528.93 150528.93 0 1 1 301057.86 0a 150528.93 150528.93 0 1 1 -301057.86 0"/>
<path id="N" d="M 2736218.85 8846455.85 m -230814.01 0 a 230814.01 230814.01 0 1 1 461628.02 0a 230814.01 230814.01 0 1 1 -461628.02 0M 2736219.13 8846458.07 m -150528.93 0 a 150528.93 150528.93 0 1 1 301057.86 0a 150528.93 150528.93 0 1 1 -301057.86 0"/>
<path id="N" d="M 2736218.85 10846455.85 m -230814.01 0 a 230814.01 230814.01 0 1 1 461628.02 0a 230814.01 230814.01 0 1 1 -461628.02 0M 2736219.13 10846458.07 m -150528.93 0 a 150528.93 150528.93 0 1 1 301057.86 0a 150528.93 150528.93 0 1 1 -301057.86 0"/>
<path id="N" d="M 2736218.85 6846455.85 m -230814.01 0 a 230814.01 230814.01 0 1 1 461628.02 0a 230814.01 230814.01 0 1 1 -461628.02 0M 2736219.13 6846458.07 m -150528.93 0 a 150528.93 150528.93 0 1 1 301057.86 0a 150528.93 150528.93 0 1 1 -301057.86 0"/>
<path id="N" d="M 17736218.85 7846455.85 m -230814.01 0 a 230814.01 230814.01 0 1 1 461628.02 0a 230814.01 230814.01 0 1 1 -461628.02 0M 17736219.13 7846458.07 m -150528.93 0 a 150528.93 150528.93 0 1 1 301057.86 0a 150528.93 150528.93 0 1 1 -301057.86 0"/>
<path id="N" d="M 2736218.85 7846455.85 m -230814.01 0 a 230814.01 230814.01 0 1 1 461628.02 0a 230814.01 230814.01 0 1 1 -461628.02 0M 2736219.13 7846458.07 m -150528.93 0 a 150528.93 150528.93 0 1 1 301057.86 0a 150528.93 150528.93 0 1 1 -301057.86 0"/>
<path id="N" d="M 16302756.00 15452537.00 L 18000000.00 15452537.00 L 18058374.00 15440926.00 L 18107860.00 15407860.00 L 19307860.00 14207860.00 L 19340926.00 14158373.00 L 19352537.00 14100000.00 L 19352537.00 11310237.00 L 19340926.00 11251864.00 L 19307860.00 11202377.00 L 17964528.85 9859045.85 L 17967033.00 9846457.00 A 230814.94 230814.94 0 0 0 17736220.00 9615644.00 L 17682432.82 9626343.22 L 17656588.00 9609074.00 L 17598214.00 9597463.00 L 16702755.00 9597463.00 L 16702755.00 9543307.00 L 16348425.00 9543307.00 L 16348425.00 9956693.00 L 16538419.77 9956693.00 L 16553149.00 9959623.00 L 16567878.23 9956693.00 L 16702755.00 9956693.00 L 16702755.00 9902537.00 L 17516562.30 9902537.00 L 17522977.00 9934785.00 A 230814.01 230814.01 0 0 0 17736220.00 10077270.00 L 17748808.85 10074765.85 L 19047463.00 11373420.00 L 19047463.00 14036817.00 L 17936817.00 15147463.00 L 16302756.00 15147463.00 L 16302756.00 15093307.00 L 15948426.00 15093307.00 L 15948426.00 15506693.00 L 16302756.00 15506693.00 L 16302756.00 15452537.00  zM 17736219.13 9846458.07 m -150528.93 0 a 150528.93 150528.93 0 1 1 301057.86 0a 150528.93 150528.93 0 1 1 -301057.86 0"/>
<path id="N" d="M 11700000.00 9050000.00 L 10001959.00 9050000.00 L 10001959.00 11748041.00 L 10550000.00 11748041.00 L 10559848.76 11750000.00 L 11700000.00 11750000.00 L 11700000.00 9050000.00  z"/>
<path id="N" d="M 14769172.00 13657860.00 L 16428038.00 11998994.00 L 17565880.18 11998994.00 L 17573011.00 12009666.00 A 230814.94 230814.94 0 1 0 17573011.00 11683248.00 L 17565880.18 11693920.00 L 16364855.00 11693920.00 L 16306481.00 11705531.00 L 16256995.00 11738597.00 L 14598129.00 13397463.00 L 12918300.00 13397463.00 L 12597669.00 13076832.00 L 12597669.00 13011221.00 L 12591491.00 12996305.00 L 12576575.00 12990127.00 L 12453117.40 12990127.00 L 12446456.00 12988802.00 L 12439794.60 12990127.00 L 12123425.00 12990127.00 L 12108509.00 12996305.00 L 12102331.00 13011221.00 L 12102331.00 13188779.00 L 12108509.00 13203695.00 L 12123425.00 13209873.00 L 12312318.80 13209873.00 L 12338596.00 13249199.00 L 12747257.00 13657860.00 L 12796743.00 13690926.00 L 12855117.00 13702537.00 L 14661312.00 13702537.00 L 14719686.00 13690926.00 L 14769172.00 13657860.00  zM 17736219.13 11846458.07 m -150528.93 0 a 150528.93 150528.93 0 1 1 301057.86 0a 150528.93 150528.93 0 1 1 -301057.86 0"/>
<path id="N" d="M 15307860.00 14457860.00 L 16766726.00 12998994.00 L 17509842.00 12998994.00 L 17509842.00 13072835.00 L 17962598.00 13072835.00 L 17962598.00 12620079.00 L 17509842.00 12620079.00 L 17509842.00 12693920.00 L 16703543.00 12693920.00 L 16645169.00 12705531.00 L 16595683.00 12738597.00 L 15136817.00 14197463.00 L 11651371.00 14197463.00 L 10530740.00 13076832.00 L 10530740.00 13011221.00 L 10524562.00 12996305.00 L 10509646.00 12990127.00 L 10388918.00 12990127.00 L 10349592.00 12950801.00 L 10300106.00 12917735.00 L 10174354.00 12893863.00 L 9620909.00 12893863.00 L 9620909.00 12887640.00 L 9279091.00 12887640.00 L 9279091.00 13205160.00 L 9620909.00 13205160.00 L 9620909.00 13198937.00 L 10039609.30 13198937.00 L 10041580.00 13203695.00 L 10056496.00 13209873.00 L 10178223.62 13209873.00 L 10224697.00 13240926.00 L 10273002.26 13250534.26 L 11480328.00 14457860.00 L 11529814.00 14490926.00 L 11588188.00 14502537.00 L 15200000.00 14502537.00 L 15258374.00 14490926.00 L 15307860.00 14457860.00  zM 17736219.13 12846458.07 m -150528.93 0 a 150528.93 150528.93 0 1 1 301057.86 0a 150528.93 150528.93 0 1 1 -301057.86 0"/>
<path id="N" d="M 15751575.00 15093307.00 L 15397245.00 15093307.00 L 15397245.00 15147463.00 L 13402756.00 15147463.00 L 13402756.00 15093307.00 L 13048426.00 15093307.00 L 13048426.00 15506693.00 L 13402756.00 15506693.00 L 13402756.00 15452537.00 L 15397245.00 15452537.00 L 15397245.00 15506693.00 L 15751575.00 15506693.00 L 15751575.00 15093307.00  z"/>
<path id="N" d="M 12454847.32 12709873.00 L 12576575.00 12709873.00 L 12591491.00 12703695.00 L 12597669.00 12688779.00 L 12597669.00 12511221.00 L 12591491.00 12496305.00 L 12576575.00 12490127.00 L 12502537.00 12490127.00 L 12502537.00 12252537.00 L 14650001.00 12252537.00 L 14708375.00 12240926.00 L 14757861.00 12207860.00 L 15966727.00 10998994.00 L 17565880.18 10998994.00 L 17573011.00 11009666.00 A 230814.94 230814.94 0 1 0 17573011.00 10683248.00 L 17565880.18 10693920.00 L 15903544.00 10693920.00 L 15845171.00 10705531.00 L 15795684.00 10738597.00 L 14586818.00 11947463.00 L 12350000.00 11947463.00 L 12291627.00 11959074.00 L 12245152.68 11990127.00 L 12123425.00 11990127.00 L 12108509.00 11996305.00 L 12102331.00 12011221.00 L 12102331.00 12188779.00 L 12108509.00 12203695.00 L 12123425.00 12209873.00 L 12197463.00 12209873.00 L 12197463.00 12490127.00 L 12123425.00 12490127.00 L 12108509.00 12496305.00 L 12102331.00 12511221.00 L 12102331.00 12688779.00 L 12108509.00 12703695.00 L 12123425.00 12709873.00 L 12245152.68 12709873.00 A 147896.92 147896.92 0 0 0 12454847.32 12709873.00  zM 17736219.13 10846458.07 m -150528.93 0 a 150528.93 150528.93 0 1 1 301057.86 0a 150528.93 150528.93 0 1 1 -301057.86 0"/>
</g>
</svg>
