<svg width="52.00000014mm" height="115.00000114mm" viewBox="0 0 20472441 45275591"  version="1.1" xmlns="http://www.w3.org/2000/svg" xmlns:xlink="http://www.w3.org/1999/xlink">
<desc>
Origin 0 0 Bound 3937008 3937008 20472441 45275591
</desc>
<g fill-rule="evenodd" fill="rgb(0, 128, 0)" stroke="black" stroke-width="1" transform="translate(0, 45275591) scale(1, -1) translate(-3937008, -3937008)">
<path id="N" d="M 23149606.00 49011630.00 L 23232746.00 49009147.00 L 23315373.00 48999368.00 A 1059651.06 1059651.06 0 0 0 24209041.00 47958445.00 L 24208481.00 5196849.00 L 24205998.00 5113710.00 L 24196219.00 5031083.00 A 1059651.06 1059651.06 0 0 0 23155302.00 4137415.00 L 5196850.00 4137976.00 L 5113710.00 4140459.00 L 5031083.00 4150238.00 A 1059600.94 1059600.94 0 0 0 4137416.00 5191161.00 L 4137976.00 47952755.00 L 4140458.00 48035896.00 L 4150237.00 48118523.00 A 1059651.06 1059651.06 0 0 0 5191161.00 49012191.00 L 23149606.00 49011630.00  zM 4889935.07 6061590.93 L 4875449.00 6045782.00 A 830750.29 830750.29 0 0 1 4875449.00 4977840.00 L 4889935.07 4962031.07 L 4961487.35 5033583.35 L 4947668.00 5048831.00 A 729689.97 729689.97 0 0 0 4947668.00 5974791.00 L 4961487.35 5990038.65 L 4889935.07 6061590.93  zM 5990038.65 4961487.35 L 5974791.00 4947668.00 A 729689.97 729689.97 0 0 0 5048831.00 4947668.00 L 5033583.35 4961487.35 L 4962031.07 4889935.07 L 4977840.00 4875449.00 A 830750.29 830750.29 0 0 1 6045782.00 4875449.00 L 6061590.93 4889935.07 L 5990038.65 4961487.35  zM 6133686.93 6061590.93 L 6062134.65 5990038.65 L 6075954.00 5974791.00 A 729689.97 729689.97 0 0 0 6075954.00 5048831.00 L 6062134.65 5033583.35 L 6133686.93 4962031.07 L 6148173.00 4977840.00 A 830750.29 830750.29 0 0 1 6148173.00 6045782.00 L 6133686.93 6061590.93  zM 8331887.27 5240896.73 L 8322950.00 5230896.00 A 574924.22 574924.22 0 0 1 8322950.00 4513984.00 L 8331887.27 4503983.27 L 8403417.53 4575513.53 L 8371296.00 4620384.00 L 8345597.00 4666883.00 A 473813.13 473813.13 0 0 0 8403417.53 5169366.47 L 8331887.27 5240896.73  zM 9069366.47 4503417.53 L 9024496.00 4471296.00 L 8977997.00 4445597.00 A 473813.13 473813.13 0 0 0 8475513.53 4503417.53 L 8403983.27 4431887.27 L 8413984.00 4422950.00 A 574924.22 574924.22 0 0 1 9130896.00 4422950.00 L 9140896.73 4431887.27 L 9069366.47 4503417.53  zM 9212992.73 5240896.73 L 9141462.47 5169366.47 L 9173584.00 5124496.00 L 9199283.00 5077997.00 A 473813.13 473813.13 0 0 0 9141462.47 4575513.53 L 9212992.73 4503983.27 L 9221930.00 4513984.00 A 574924.22 574924.22 0 0 1 9221930.00 5230896.00 L 9212992.73 5240896.73  zM 8413984.00 5321930.00 L 8403983.27 5312992.73 L 8475513.53 5241462.47 L 8520384.00 5273584.00 L 8566883.00 5299283.00 A 473813.13 473813.13 0 0 0 9069366.47 5241462.47 L 9140896.73 5312992.73 L 9130896.00 5321930.00 A 574924.22 574924.22 0 0 1 8413984.00 5321930.00  zM 4977840.00 6148173.00 L 4962031.07 6133686.93 L 5033583.35 6062134.65 L 5048831.00 6075954.00 A 729689.97 729689.97 0 0 0 5974791.00 6075954.00 L 5990038.65 6062134.65 L 6061590.93 6133686.93 L 6045782.00 6148173.00 A 830750.29 830750.29 0 0 1 4977840.00 6148173.00  zM 9069366.47 6530977.53 L 9024496.00 6498856.00 L 8977997.00 6473157.00 A 473813.13 473813.13 0 0 0 8475513.53 6530977.53 L 8403983.27 6459447.27 L 8413984.00 6450510.00 A 574924.22 574924.22 0 0 1 9130896.00 6450510.00 L 9140896.73 6459447.27 L 9069366.47 6530977.53  zM 10039373.00 6216136.00 L 10000000.00 6242444.73 L 9945359.00 6270415.00 A 415838.81 415838.81 0 1 1 10039373.00 6216136.00  zM 9212992.73 7268456.73 L 9141462.47 7196926.47 L 9173584.00 7152056.00 L 9199283.00 7105557.00 A 473813.13 473813.13 0 0 0 9141462.47 6603073.53 L 9212992.73 6531543.27 L 9221930.00 6541544.00 A 574924.22 574924.22 0 0 1 9221930.00 7258456.00 L 9212992.73 7268456.73  zM 8331887.27 7268456.73 L 8322950.00 7258456.00 A 574924.22 574924.22 0 0 1 8322950.00 6541544.00 L 8331887.27 6531543.27 L 8403417.53 6603073.53 L 8371296.00 6647944.00 L 8345597.00 6694443.00 A 473813.13 473813.13 0 0 0 8403417.53 7196926.47 L 8331887.27 7268456.73  zM 8413984.00 7349490.00 L 8403983.27 7340552.73 L 8475513.53 7269022.47 L 8520384.00 7301144.00 L 8566883.00 7326843.00 A 473813.13 473813.13 0 0 0 9069366.47 7269022.47 L 9140896.73 7340552.73 L 9130896.00 7349490.00 A 574924.22 574924.22 0 0 1 8413984.00 7349490.00  zM 4952354.00 11533745.00 A 140060.94 140060.94 0 1 1 4979675.00 11531054.00 L 4952354.00 11533745.00  zM 11096926.47 4503417.53 L 11052056.00 4471296.00 L 11005557.00 4445597.00 A 473813.13 473813.13 0 0 0 10503073.53 4503417.53 L 10431543.27 4431887.27 L 10441544.00 4422950.00 A 574924.22 574924.22 0 0 1 11158456.00 4422950.00 L 11168456.73 4431887.27 L 11096926.47 4503417.53  zM 10359447.27 5240896.73 L 10350510.00 5230896.00 A 574924.22 574924.22 0 0 1 10350510.00 4513984.00 L 10359447.27 4503983.27 L 10430977.53 4575513.53 L 10398856.00 4620384.00 L 10373157.00 4666883.00 A 473813.13 473813.13 0 0 0 10430977.53 5169366.47 L 10359447.27 5240896.73  zM 11240552.73 5240896.73 L 11169022.47 5169366.47 L 11201144.00 5124496.00 L 11226843.00 5077997.00 A 473813.13 473813.13 0 0 0 11169022.47 4575513.53 L 11240552.73 4503983.27 L 11249490.00 4513984.00 A 574924.22 574924.22 0 0 1 11249490.00 5230896.00 L 11240552.73 5240896.73  zM 10441544.00 5321930.00 L 10431543.27 5312992.73 L 10503073.53 5241462.47 L 10547944.00 5273584.00 L 10594443.00 5299283.00 A 473813.13 473813.13 0 0 0 11096926.47 5241462.47 L 11168456.73 5312992.73 L 11158456.00 5321930.00 A 574924.22 574924.22 0 0 1 10441544.00 5321930.00  zM 11096926.47 6530977.53 L 11052056.00 6498856.00 L 11005557.00 6473157.00 A 473813.13 473813.13 0 0 0 10503073.53 6530977.53 L 10431543.27 6459447.27 L 10441544.00 6450510.00 A 574924.22 574924.22 0 0 1 11158456.00 6450510.00 L 11168456.73 6459447.27 L 11096926.47 6530977.53  zM 10359447.27 7268456.73 L 10350510.00 7258456.00 A 574924.22 574924.22 0 0 1 10350510.00 6541544.00 L 10359447.27 6531543.27 L 10430977.53 6603073.53 L 10398856.00 6647944.00 L 10373157.00 6694443.00 A 473813.13 473813.13 0 0 0 10430977.53 7196926.47 L 10359447.27 7268456.73  zM 11240552.73 7268456.73 L 11169022.47 7196926.47 L 11201144.00 7152056.00 L 11226843.00 7105557.00 A 473813.13 473813.13 0 0 0 11169022.47 6603073.53 L 11240552.73 6531543.27 L 11249490.00 6541544.00 A 574924.22 574924.22 0 0 1 11249490.00 7258456.00 L 11240552.73 7268456.73  zM 10441544.00 7349490.00 L 10431543.27 7340552.73 L 10503073.53 7269022.47 L 10547944.00 7301144.00 L 10594443.00 7326843.00 A 473813.13 473813.13 0 0 0 11096926.47 7269022.47 L 11168456.73 7340552.73 L 11158456.00 7349490.00 A 574924.22 574924.22 0 0 1 10441544.00 7349490.00  zM 11023624.37 8661400.06 m -140060.94 0 a 140060.94 140060.94 0 1 1 280121.87 0a 140060.94 140060.94 0 1 1 -280121.87 0M 12850002.37 10211006.06 m -140060.94 0 a 140060.94 140060.94 0 1 1 280121.87 0a 140060.94 140060.94 0 1 1 -280121.87 0M 11690947.37 10759038.06 m -140060.94 0 a 140060.94 140060.94 0 1 1 280121.87 0a 140060.94 140060.94 0 1 1 -280121.87 0M 11877188.37 11049983.06 m -140060.94 0 a 140060.94 140060.94 0 1 1 280121.87 0a 140060.94 140060.94 0 1 1 -280121.87 0M 13900002.37 11699983.06 m -140060.94 0 a 140060.94 140060.94 0 1 1 280121.87 0a 140060.94 140060.94 0 1 1 -280121.87 0M 5550002.37 12758453.06 m -140060.94 0 a 140060.94 140060.94 0 1 1 280121.87 0a 140060.94 140060.94 0 1 1 -280121.87 0M 5759057.37 13249983.06 m -140060.94 0 a 140060.94 140060.94 0 1 1 280121.87 0a 140060.94 140060.94 0 1 1 -280121.87 0M 6150002.37 14399983.06 m -140060.94 0 a 140060.94 140060.94 0 1 1 280121.87 0a 140060.94 140060.94 0 1 1 -280121.87 0M 9000002.37 14399983.06 m -140060.94 0 a 140060.94 140060.94 0 1 1 280121.87 0a 140060.94 140060.94 0 1 1 -280121.87 0M 6673232.99 16185003.87 m -301752.13 0 a 301752.13 301752.13 0 1 1 603504.26 0a 301752.13 301752.13 0 1 1 -603504.26 0M 6673232.99 17185003.87 m -301752.13 0 a 301752.13 301752.13 0 1 1 603504.26 0a 301752.13 301752.13 0 1 1 -603504.26 0M 9950000.00 14840044.00 A 140060.94 140060.94 0 1 1 9977321.00 14837353.00 L 9950000.00 14840044.00  zM 11900002.37 11799983.06 m -140060.94 0 a 140060.94 140060.94 0 1 1 280121.87 0a 140060.94 140060.94 0 1 1 -280121.87 0M 12164905.37 11914886.06 m -140060.94 0 a 140060.94 140060.94 0 1 1 280121.87 0a 140060.94 140060.94 0 1 1 -280121.87 0M 13042602.37 12646358.06 m -140060.94 0 a 140060.94 140060.94 0 1 1 280121.87 0a 140060.94 140060.94 0 1 1 -280121.87 0M 11350002.37 14499983.06 m -140060.94 0 a 140060.94 140060.94 0 1 1 280121.87 0a 140060.94 140060.94 0 1 1 -280121.87 0M 10500002.37 14799983.06 m -140060.94 0 a 140060.94 140060.94 0 1 1 280121.87 0a 140060.94 140060.94 0 1 1 -280121.87 0M 12259956.00 15000000.00 L 12261043.76 14988956.24 L 12250000.00 14990044.00 A 140060.94 140060.94 0 1 1 12390044.00 14850000.00 L 12388956.24 14861043.76 L 12400000.00 14859956.00 A 140060.94 140060.94 0 1 1 12259956.00 15000000.00  zM 13700000.00 19150980.00 L 13150000.00 19150980.00 L 13130491.00 19147099.00 L 13113952.00 19136048.00 L 12363952.00 18386048.00 L 12352901.00 18369509.00 L 12349020.00 18350000.00 L 12349020.00 17623076.00 L 12086048.00 17886048.00 L 12069509.00 17897099.00 L 12050000.00 17900980.00 L 11600000.00 17900980.00 L 11580491.00 17897099.00 L 11563951.00 17886048.00 L 11163952.00 17486048.00 L 11152901.00 17469509.00 L 11149020.00 17450000.00 L 11149020.00 16071116.93 L 10963952.00 15886048.00 L 10952901.00 15869509.00 L 10949020.00 15850000.00 L 10949020.00 15150000.00 L 10952901.00 15130491.00 L 10963952.00 15113952.00 L 11190377.24 14887526.19 A 137092.61 137092.61 0 1 1 11227998.00 14849723.00 L 11363951.00 14713952.00 L 11380491.00 14702901.00 L 11400000.00 14699020.00 L 11800000.00 14699020.00 L 11819509.00 14702901.00 L 11836048.00 14713952.00 L 12571116.00 15449020.00 L 12750000.00 15449020.00 L 12769509.00 15452901.00 L 12786048.00 15463952.00 L 12875015.87 15552919.42 L 12879767.00 15537256.00 A 140073.58 140073.58 0 1 1 13136087.83 15649020.00 L 13278884.00 15649020.00 L 13713952.00 15213952.00 A 50975.79 50975.79 0 0 1 13786048.00 15286048.00 L 13336048.00 15736048.00 L 13319509.00 15747099.00 L 13300000.00 15750980.00 L 12950000.00 15750980.00 L 12930491.00 15747099.00 L 12913952.00 15736049.00 L 12728883.93 15550980.00 L 12550000.00 15550980.00 L 12530491.00 15547099.00 L 12513952.00 15536048.00 L 11778884.00 14800980.00 L 11421116.96 14800980.00 L 11050980.00 15171116.04 L 11050980.00 15828883.93 L 11236049.00 16013952.00 L 11247099.00 16030491.00 L 11250980.00 16050000.00 L 11250980.00 17428883.96 L 11621116.96 17799020.00 L 12028884.00 17799020.00 L 13399020.00 16428884.00 L 13399020.00 16150000.00 L 13402901.00 16130491.00 L 13413952.00 16113952.00 L 14013952.00 15513952.00 A 50975.79 50975.79 0 0 1 14086048.00 15586048.00 L 13500980.00 16171116.00 L 13500980.00 16426923.01 L 13513952.00 16413951.00 L 13530491.00 16402901.00 L 13550000.00 16399020.00 L 13628884.00 16399020.00 L 14263952.00 15763952.00 A 50982.36 50982.36 0 0 1 14336048.00 15836048.00 L 13686048.00 16486048.00 L 13669509.00 16497099.00 L 13650000.00 16500980.00 L 13571116.99 16500980.00 L 12450980.00 17621116.01 L 12450980.00 18328884.00 L 13171116.00 19049020.00 L 13678884.00 19049020.00 L 14699020.00 18028884.00 L 14699020.00 17821116.00 L 14263952.00 17386048.00 L 14252901.00 17369509.00 L 14249020.00 17350000.00 L 14249020.00 16971116.93 L 14063952.00 16786048.00 L 14052901.00 16769509.00 L 14049020.00 16750000.00 L 14049020.00 16550000.00 L 14052901.00 16530491.00 L 14063952.00 16513952.00 L 14538951.00 16038952.00 A 50980.44 50980.44 0 1 1 14611048.00 16111049.00 L 14150980.00 16571116.03 L 14150980.00 16728883.93 L 14336049.00 16913952.00 L 14347099.00 16930491.00 L 14350980.00 16950000.00 L 14350980.00 17328884.00 L 14786048.00 17763952.00 L 14797099.00 17780491.00 L 14800980.00 17800000.00 L 14800980.00 18050000.00 L 14797099.00 18069509.00 L 14786048.00 18086048.00 L 13736048.00 19136048.00 L 13719509.00 19147099.00 L 13700000.00 19150980.00  zM 13300002.37 12499983.06 m -140060.94 0 a 140060.94 140060.94 0 1 1 280121.87 0a 140060.94 140060.94 0 1 1 -280121.87 0M 14050002.37 13573211.06 m -140060.94 0 a 140060.94 140060.94 0 1 1 280121.87 0a 140060.94 140060.94 0 1 1 -280121.87 0M 14968910.37 12518891.06 m -140060.94 0 a 140060.94 140060.94 0 1 1 280121.87 0a 140060.94 140060.94 0 1 1 -280121.87 0M 15600002.37 12149983.06 m -140060.94 0 a 140060.94 140060.94 0 1 1 280121.87 0a 140060.94 140060.94 0 1 1 -280121.87 0M 13317888.37 14250792.06 m -140060.94 0 a 140060.94 140060.94 0 1 1 280121.87 0a 140060.94 140060.94 0 1 1 -280121.87 0M 13650002.37 14249983.06 m -140060.94 0 a 140060.94 140060.94 0 1 1 280121.87 0a 140060.94 140060.94 0 1 1 -280121.87 0M 14520616.00 15203593.00 L 14516027.39 15188465.37 L 14500000.00 15190044.00 L 14472679.00 15187353.00 L 14446407.00 15179384.00 L 14437612.82 15174683.07 A 134880.71 134880.71 0 0 1 14399026.00 15249026.00 A 140073.58 140073.58 0 1 1 14353593.00 15020616.00 L 14362387.18 15025316.93 L 14369526.15 15000000.00 L 14383558.00 14972196.00 L 14400974.00 14950974.00 A 140073.58 140073.58 0 0 1 14629384.00 14996407.00 L 14633972.61 15011534.63 L 14650000.00 15009956.00 A 140060.94 140060.94 0 1 1 14520616.00 15203593.00  zM 14850002.37 16199983.06 m -140060.94 0 a 140060.94 140060.94 0 1 1 280121.87 0a 140060.94 140060.94 0 1 1 -280121.87 0M 16000002.37 15349983.06 m -140060.94 0 a 140060.94 140060.94 0 1 1 280121.87 0a 140060.94 140060.94 0 1 1 -280121.87 0M 16050002.37 15849983.06 m -140060.94 0 a 140060.94 140060.94 0 1 1 280121.87 0a 140060.94 140060.94 0 1 1 -280121.87 0M 15550002.37 16599983.06 m -140060.94 0 a 140060.94 140060.94 0 1 1 280121.87 0a 140060.94 140060.94 0 1 1 -280121.87 0M 14764154.37 17421243.06 m -140060.94 0 a 140060.94 140060.94 0 1 1 280121.87 0a 140060.94 140060.94 0 1 1 -280121.87 0M 16141734.37 17421243.06 m -140060.94 0 a 140060.94 140060.94 0 1 1 280121.87 0a 140060.94 140060.94 0 1 1 -280121.87 0M 16914360.41 4350551.12 L 16900052.00 4341783.00 A 217790.26 217790.26 0 0 0 16702310.00 4341783.00 L 16688001.59 4350551.12 L 16614554.34 4277103.64 A 315554.05 315554.05 0 0 1 16987807.66 4277103.64 L 16914360.41 4350551.12  zM 17059904.36 5194893.66 L 16986456.88 5121446.41 L 16995225.00 5107138.00 A 217790.26 217790.26 0 0 0 17018962.00 5008267.00 L 17018962.00 4535827.00 A 217765.36 217765.36 0 0 0 16995225.00 4436956.00 L 16986456.88 4422647.59 L 17059904.36 4349200.34 A 315554.05 315554.05 0 0 1 17120275.00 4535827.00 L 17120275.00 5000000.00 L 17116346.00 5058184.00 A 319131.89 319131.89 0 0 1 17059904.36 5194893.66  zM 16542457.64 5194893.66 A 315554.05 315554.05 0 0 1 16482087.00 5008267.00 L 16482087.00 4535827.00 A 319108.89 319108.89 0 0 1 16542457.64 4349200.34 L 16615905.12 4422647.59 L 16607137.00 4436956.00 A 217790.26 217790.26 0 0 0 16583400.00 4535827.00 L 16583400.00 5000000.00 L 16586081.00 5042335.00 L 16594059.00 5075565.00 L 16607137.00 5107138.00 L 16615905.12 5121446.41 L 16542457.64 5194893.66  zM 16614554.34 5266990.36 L 16688001.59 5193542.88 L 16702310.00 5202311.00 A 217790.26 217790.26 0 0 0 16900052.00 5202311.00 L 16914360.41 5193542.88 L 16987807.66 5266990.36 A 315554.05 315554.05 0 0 1 16614554.34 5266990.36  zM 16914360.41 6074961.12 L 16900052.00 6066193.00 A 217790.26 217790.26 0 0 0 16702310.00 6066193.00 L 16688001.59 6074961.12 L 16614554.34 6001513.64 A 315554.05 315554.05 0 0 1 16987807.66 6001513.64 L 16914360.41 6074961.12  zM 17059904.36 6761823.66 L 16986456.88 6688376.41 L 16995225.00 6674068.00 A 217790.26 217790.26 0 0 0 17018962.00 6575197.00 L 17018962.00 6260237.00 A 217765.36 217765.36 0 0 0 16995225.00 6161366.00 L 16986456.88 6147057.59 L 17059904.36 6073610.34 A 315554.05 315554.05 0 0 1 17120275.00 6260237.00 L 17120275.00 6575197.00 A 319108.89 319108.89 0 0 1 17059904.36 6761823.66  zM 17870475.37 6049983.06 m -140060.94 0 a 140060.94 140060.94 0 1 1 280121.87 0a 140060.94 140060.94 0 1 1 -280121.87 0M 19942457.64 5194893.66 A 315554.05 315554.05 0 0 1 19882087.00 5008267.00 L 19882087.00 4535827.00 A 319108.89 319108.89 0 0 1 19942457.64 4349200.34 L 20015905.12 4422647.59 L 20007137.00 4436956.00 A 217790.26 217790.26 0 0 0 19983400.00 4535827.00 L 19983400.00 5000000.00 L 20000000.00 5000000.00 L 20000000.00 5089907.80 L 20007137.00 5107138.00 L 20015905.12 5121446.41 L 19942457.64 5194893.66  zM 20014554.34 5266990.36 L 20088001.59 5193542.88 L 20102310.00 5202311.00 A 217790.26 217790.26 0 0 0 20300052.00 5202311.00 L 20314360.41 5193542.88 L 20387807.66 5266990.36 A 315554.05 315554.05 0 0 1 20014554.34 5266990.36  zM 19150002.37 6049983.06 m -140060.94 0 a 140060.94 140060.94 0 1 1 280121.87 0a 140060.94 140060.94 0 1 1 -280121.87 0M 20311004.41 6121740.12 L 20296696.00 6112972.00 A 217790.26 217790.26 0 0 0 20098954.00 6112972.00 L 20084645.59 6121740.12 L 20011198.34 6048292.64 A 315554.05 315554.05 0 0 1 20384451.66 6048292.64 L 20311004.41 6121740.12  zM 20314360.41 4350551.12 L 20300052.00 4341783.00 A 217790.26 217790.26 0 0 0 20102310.00 4341783.00 L 20088001.59 4350551.12 L 20014554.34 4277103.64 A 315554.05 315554.05 0 0 1 20387807.66 4277103.64 L 20314360.41 4350551.12  zM 20459904.36 5194893.66 L 20386456.88 5121446.41 L 20395225.00 5107138.00 A 217790.26 217790.26 0 0 0 20418962.00 5008267.00 L 20418962.00 4535827.00 A 217765.36 217765.36 0 0 0 20395225.00 4436956.00 L 20386456.88 4422647.59 L 20459904.36 4349200.34 A 315554.05 315554.05 0 0 1 20520275.00 4535827.00 L 20520275.00 5000000.00 L 20516346.00 5058184.00 A 319131.89 319131.89 0 0 1 20459904.36 5194893.66  zM 22834646.00 6242612.00 A 730809.92 730809.92 0 1 1 22906277.00 6239093.00 L 22834646.00 6242612.00  zM 16542457.64 6761823.66 A 315554.05 315554.05 0 0 1 16482087.00 6575197.00 L 16482087.00 6260237.00 A 319108.89 319108.89 0 0 1 16542457.64 6073610.34 L 16615905.12 6147057.59 L 16607137.00 6161366.00 A 217790.26 217790.26 0 0 0 16583400.00 6260237.00 L 16583400.00 6575197.00 A 217765.36 217765.36 0 0 0 16607137.00 6674068.00 L 16615905.12 6688376.41 L 16542457.64 6761823.66  zM 16614554.34 6833920.36 L 16688001.59 6760472.88 L 16702310.00 6769241.00 A 217790.26 217790.26 0 0 0 16900052.00 6769241.00 L 16914360.41 6760472.88 L 16987807.66 6833920.36 A 315554.05 315554.05 0 0 1 16614554.34 6833920.36  zM 17125986.37 8267700.06 m -140060.94 0 a 140060.94 140060.94 0 1 1 280121.87 0a 140060.94 140060.94 0 1 1 -280121.87 0M 19939101.64 6808602.66 A 315554.05 315554.05 0 0 1 19878731.00 6621976.00 L 19878731.00 6307016.00 A 319108.89 319108.89 0 0 1 19939101.64 6120389.34 L 20012549.12 6193836.59 L 20003781.00 6208145.00 A 217790.26 217790.26 0 0 0 19980044.00 6307016.00 L 19980044.00 6621976.00 L 19982725.00 6656044.00 L 19990703.00 6689274.00 L 20000000.00 6711718.88 L 20012549.12 6735155.41 L 19939101.64 6808602.66  zM 16150002.37 10299983.06 m -140060.94 0 a 140060.94 140060.94 0 1 1 280121.87 0a 140060.94 140060.94 0 1 1 -280121.87 0M 17550002.37 8999983.06 m -140060.94 0 a 140060.94 140060.94 0 1 1 280121.87 0a 140060.94 140060.94 0 1 1 -280121.87 0M 20100000.00 10340044.00 A 140060.94 140060.94 0 1 1 20127321.00 10337353.00 L 20100000.00 10340044.00  zM 20456548.36 6808602.66 L 20383100.88 6735155.41 L 20391869.00 6720847.00 A 217790.26 217790.26 0 0 0 20415606.00 6621976.00 L 20415606.00 6307016.00 A 217765.36 217765.36 0 0 0 20391869.00 6208145.00 L 20383100.88 6193836.59 L 20456548.36 6120389.34 A 315554.05 315554.05 0 0 1 20516919.00 6307016.00 L 20516919.00 6621976.00 A 319108.89 319108.89 0 0 1 20456548.36 6808602.66  zM 20011198.34 6880699.36 L 20084645.59 6807251.88 L 20098954.00 6816020.00 A 217790.26 217790.26 0 0 0 20296696.00 6816020.00 L 20311004.41 6807251.88 L 20384451.66 6880699.36 A 315554.05 315554.05 0 0 1 20011198.34 6880699.36  zM 20177167.37 8169274.06 m -140060.94 0 a 140060.94 140060.94 0 1 1 280121.87 0a 140060.94 140060.94 0 1 1 -280121.87 0M 21100002.37 9199983.06 m -140060.94 0 a 140060.94 140060.94 0 1 1 280121.87 0a 140060.94 140060.94 0 1 1 -280121.87 0M 21000002.37 9649983.06 m -140060.94 0 a 140060.94 140060.94 0 1 1 280121.87 0a 140060.94 140060.94 0 1 1 -280121.87 0M 21150002.37 10299983.06 m -140060.94 0 a 140060.94 140060.94 0 1 1 280121.87 0a 140060.94 140060.94 0 1 1 -280121.87 0M 17027747.37 11122216.06 m -140060.94 0 a 140060.94 140060.94 0 1 1 280121.87 0a 140060.94 140060.94 0 1 1 -280121.87 0M 17400002.37 11899983.06 m -140060.94 0 a 140060.94 140060.94 0 1 1 280121.87 0a 140060.94 140060.94 0 1 1 -280121.87 0M 19050002.37 10349983.06 m -140060.94 0 a 140060.94 140060.94 0 1 1 280121.87 0a 140060.94 140060.94 0 1 1 -280121.87 0M 18809057.37 11509038.06 m -140060.94 0 a 140060.94 140060.94 0 1 1 280121.87 0a 140060.94 140060.94 0 1 1 -280121.87 0M 17700002.37 12599983.06 m -140060.94 0 a 140060.94 140060.94 0 1 1 280121.87 0a 140060.94 140060.94 0 1 1 -280121.87 0M 18050002.37 13599983.06 m -140060.94 0 a 140060.94 140060.94 0 1 1 280121.87 0a 140060.94 140060.94 0 1 1 -280121.87 0M 17800002.37 14649983.06 m -140060.94 0 a 140060.94 140060.94 0 1 1 280121.87 0a 140060.94 140060.94 0 1 1 -280121.87 0M 19094490.37 10826755.06 m -140060.94 0 a 140060.94 140060.94 0 1 1 280121.87 0a 140060.94 140060.94 0 1 1 -280121.87 0M 19190947.37 11318881.06 m -140060.94 0 a 140060.94 140060.94 0 1 1 280121.87 0a 140060.94 140060.94 0 1 1 -280121.87 0M 21075357.37 11534601.06 m -140060.94 0 a 140060.94 140060.94 0 1 1 280121.87 0a 140060.94 140060.94 0 1 1 -280121.87 0M 19881890.00 13132170.00 A 140060.94 140060.94 0 1 1 19909211.00 13129479.00 L 19881890.00 13132170.00  zM 21161419.37 11986597.06 m -140060.94 0 a 140060.94 140060.94 0 1 1 280121.87 0a 140060.94 140060.94 0 1 1 -280121.87 0M 22440947.37 14271637.06 m -140060.94 0 a 140060.94 140060.94 0 1 1 280121.87 0a 140060.94 140060.94 0 1 1 -280121.87 0M 16240159.37 16141715.06 m -140060.94 0 a 140060.94 140060.94 0 1 1 280121.87 0a 140060.94 140060.94 0 1 1 -280121.87 0M 16932600.37 15683932.06 m -140060.94 0 a 140060.94 140060.94 0 1 1 280121.87 0a 140060.94 140060.94 0 1 1 -280121.87 0M 17421262.37 17027542.06 m -140060.94 0 a 140060.94 140060.94 0 1 1 280121.87 0a 140060.94 140060.94 0 1 1 -280121.87 0M 17716537.37 17322818.06 m -140060.94 0 a 140060.94 140060.94 0 1 1 280121.87 0a 140060.94 140060.94 0 1 1 -280121.87 0M 17286610.16 17597896.71 L 17277346.00 17590294.00 A 140073.58 140073.58 0 1 1 17475398.00 17590294.00 L 17460315.84 17602671.29 L 17469580.00 17610274.00 A 140073.58 140073.58 0 1 1 17286610.16 17597896.71  zM 17782247.37 17921422.06 m -140060.94 0 a 140060.94 140060.94 0 1 1 280121.87 0a 140060.94 140060.94 0 1 1 -280121.87 0M 18152013.00 17431628.00 L 18168739.55 17440569.18 L 18166856.00 17421446.00 A 140060.94 140060.94 0 1 1 18253307.00 17550830.00 L 18236580.45 17541888.82 L 18238464.00 17561012.00 A 140060.94 140060.94 0 1 1 18152013.00 17431628.00  zM 19000002.37 15399983.06 m -140060.94 0 a 140060.94 140060.94 0 1 1 280121.87 0a 140060.94 140060.94 0 1 1 -280121.87 0M 20650002.37 17049983.06 m -140060.94 0 a 140060.94 140060.94 0 1 1 280121.87 0a 140060.94 140060.94 0 1 1 -280121.87 0M 21673232.99 16185003.87 m -301752.13 0 a 301752.13 301752.13 0 1 1 603504.26 0a 301752.13 301752.13 0 1 1 -603504.26 0M 19261503.37 17618093.06 m -140060.94 0 a 140060.94 140060.94 0 1 1 280121.87 0a 140060.94 140060.94 0 1 1 -280121.87 0M 21673232.99 17185003.87 m -301752.13 0 a 301752.13 301752.13 0 1 1 603504.26 0a 301752.13 301752.13 0 1 1 -603504.26 0M 21673232.99 18185003.87 m -301752.13 0 a 301752.13 301752.13 0 1 1 603504.26 0a 301752.13 301752.13 0 1 1 -603504.26 0M 6673232.99 19185003.87 m -301752.13 0 a 301752.13 301752.13 0 1 1 603504.26 0a 301752.13 301752.13 0 1 1 -603504.26 0M 6673232.99 20185003.87 m -301752.13 0 a 301752.13 301752.13 0 1 1 603504.26 0a 301752.13 301752.13 0 1 1 -603504.26 0M 6673232.99 21185003.87 m -301752.13 0 a 301752.13 301752.13 0 1 1 603504.26 0a 301752.13 301752.13 0 1 1 -603504.26 0M 6499925.63 21939640.26 L 6427631.66 21867346.34 A 396443.89 396443.89 0 0 1 6569274.00 21797078.00 A 401626.86 401626.86 0 0 1 6918824.15 21867346.17 L 6846530.21 21939640.16 L 6809749.00 21917101.00 A 300709.09 300709.09 0 0 0 6499925.63 21939640.26  zM 4429136.37 23031479.06 m -140060.94 0 a 140060.94 140060.94 0 1 1 280121.87 0a 140060.94 140060.94 0 1 1 -280121.87 0M 6355535.34 22430635.34 A 396498.90 396498.90 0 0 1 6285267.00 22288993.00 A 401626.86 401626.86 0 0 1 6355535.34 21939442.66 L 6427829.26 22011736.63 L 6405290.00 22048518.00 A 300709.09 300709.09 0 0 0 6427829.26 22358341.37 L 6355535.34 22430635.34  zM 6427631.66 22502731.66 L 6499925.63 22430437.74 L 6536707.00 22452977.00 A 300709.09 300709.09 0 0 0 6846530.21 22430437.84 L 6918824.15 22502731.83 A 396444.70 396444.70 0 0 1 6777182.00 22573000.00 A 401626.86 401626.86 0 0 1 6427631.66 22502731.66  zM 6673232.99 18185003.87 m -301752.13 0 a 301752.13 301752.13 0 1 1 603504.26 0a 301752.13 301752.13 0 1 1 -603504.26 0M 6990920.83 22430635.15 L 6918626.84 22358341.21 L 6941166.00 22321560.00 A 300709.09 300709.09 0 0 0 6918626.84 22011736.79 L 6990920.83 21939442.85 A 396499.71 396499.71 0 0 1 7061189.00 22081085.00 A 401626.86 401626.86 0 0 1 6991876.00 22429546.00 L 6990920.83 22430635.15  zM 8953940.13 20899970.15 m -278051.85 0 a 278051.85 278051.85 0 1 1 556103.71 0a 278051.85 278051.85 0 1 1 -556103.71 0M 11946066.13 20899970.15 m -278051.85 0 a 278051.85 278051.85 0 1 1 556103.71 0a 278051.85 278051.85 0 1 1 -556103.71 0M 6673232.99 23185003.87 m -301752.13 0 a 301752.13 301752.13 0 1 1 603504.26 0a 301752.13 301752.13 0 1 1 -603504.26 0M 9721194.91 26282957.55 L 9649315.87 26211078.55 L 9656807.00 26204509.00 A 466745.85 466745.85 0 0 1 10225083.00 26204509.00 L 10232573.94 26211078.38 L 10160694.93 26282957.44 L 10123710.00 26258245.00 L 10080828.00 26237097.00 A 365559.54 365559.54 0 0 0 9721194.91 26282957.55  zM 12795278.37 23818881.06 m -140060.94 0 a 140060.94 140060.94 0 1 1 280121.87 0a 140060.94 140060.94 0 1 1 -280121.87 0M 6965288.91 26282957.55 L 6893409.87 26211078.55 L 6900901.00 26204509.00 A 466745.85 466745.85 0 0 1 7469177.00 26204509.00 L 7476667.94 26211078.38 L 7404788.93 26282957.44 L 7367804.00 26258245.00 L 7324922.00 26237097.00 A 365559.54 365559.54 0 0 0 6965288.91 26282957.55  zM 6821313.55 26866433.13 L 6814744.00 26858942.00 A 466687.92 466687.92 0 0 1 6814744.00 26290666.00 L 6821313.55 26283174.87 L 6893192.52 26355053.88 L 6868480.00 26392038.00 L 6847332.00 26434921.00 A 365559.54 365559.54 0 0 0 6893192.52 26794554.12 L 6821313.55 26866433.13  zM 7548764.62 26866432.94 L 7476885.59 26794553.95 L 7501598.00 26757570.00 L 7522746.00 26714687.00 A 365559.54 365559.54 0 0 0 7476885.59 26355054.05 L 7548764.62 26283175.06 L 7555334.00 26290666.00 A 466687.92 466687.92 0 0 1 7555334.00 26858942.00 L 7548764.62 26866432.94  zM 9577219.55 26866433.13 L 9570650.00 26858942.00 A 466687.92 466687.92 0 0 1 9570650.00 26290666.00 L 9577219.55 26283174.87 L 9649098.52 26355053.88 L 9624386.00 26392038.00 L 9603238.00 26434921.00 A 365559.54 365559.54 0 0 0 9649098.52 26794554.12 L 9577219.55 26866433.13  zM 6900901.00 26945099.00 L 6893409.87 26938529.45 L 6965288.91 26866650.45 L 7002274.00 26891363.00 L 7045156.00 26912511.00 A 365559.54 365559.54 0 0 0 7404788.93 26866650.56 L 7476667.94 26938529.62 L 7469177.00 26945099.00 A 466745.85 466745.85 0 0 1 6900901.00 26945099.00  zM 7185044.66 27952703.15 m -366586.85 0 a 366586.85 366586.85 0 1 1 733173.70 0a 366586.85 366586.85 0 1 1 -733173.70 0M 7185044.66 29330656.15 m -366586.85 0 a 366586.85 366586.85 0 1 1 733173.70 0a 366586.85 366586.85 0 1 1 -733173.70 0M 9656807.00 26945099.00 L 9649315.87 26938529.45 L 9721194.91 26866650.45 L 9758180.00 26891363.00 L 9801062.00 26912511.00 A 365559.54 365559.54 0 0 0 10160694.93 26866650.56 L 10232573.94 26938529.62 L 10225083.00 26945099.00 A 466745.85 466745.85 0 0 1 9656807.00 26945099.00  zM 9940950.66 27952703.15 m -366586.85 0 a 366586.85 366586.85 0 1 1 733173.70 0a 366586.85 366586.85 0 1 1 -733173.70 0M 9940950.66 29330656.15 m -366586.85 0 a 366586.85 366586.85 0 1 1 733173.70 0a 366586.85 366586.85 0 1 1 -733173.70 0M 10304670.62 26866432.94 L 10232791.59 26794553.95 L 10257504.00 26757570.00 L 10278652.00 26714687.00 A 365559.54 365559.54 0 0 0 10232791.59 26355054.05 L 10304670.62 26283175.06 L 10311240.00 26290666.00 A 466687.92 466687.92 0 0 1 10311240.00 26858942.00 L 10304670.62 26866432.94  zM 12598427.37 28826161.06 m -140060.94 0 a 140060.94 140060.94 0 1 1 280121.87 0a 140060.94 140060.94 0 1 1 -280121.87 0M 12893701.00 26674323.22 A 138090.28 138090.28 0 0 1 12696850.50 26674322.81 A 138091.93 138091.93 0 1 1 12696850.50 26475285.19 A 138091.93 138091.93 0 0 1 12893701.00 26475284.78 A 138090.28 138090.28 0 1 1 12893701.00 26674323.22  zM 14468506.37 19783448.06 m -140060.94 0 a 140060.94 140060.94 0 1 1 280121.87 0a 140060.94 140060.94 0 1 1 -280121.87 0M 14186615.00 20218784.00 A 140060.94 140060.94 0 1 1 14213936.00 20216093.00 L 14186615.00 20218784.00  zM 14468506.37 20373999.06 m -140060.94 0 a 140060.94 140060.94 0 1 1 280121.87 0a 140060.94 140060.94 0 1 1 -280121.87 0M 14271656.37 21062975.06 m -140060.94 0 a 140060.94 140060.94 0 1 1 280121.87 0a 140060.94 140060.94 0 1 1 -280121.87 0M 14840947.37 19499983.06 m -140060.94 0 a 140060.94 140060.94 0 1 1 280121.87 0a 140060.94 140060.94 0 1 1 -280121.87 0M 15059055.00 19923509.00 A 140060.94 140060.94 0 1 1 15086376.00 19920818.00 L 15059055.00 19923509.00  zM 16873555.00 20011274.00 L 16852464.38 20000000.00 L 16828122.00 19980916.00 L 16810706.00 19959694.00 A 140009.76 140009.76 0 1 1 16873555.00 20011274.00  zM 16929136.37 18405495.06 m -140060.94 0 a 140060.94 140060.94 0 1 1 280121.87 0a 140060.94 140060.94 0 1 1 -280121.87 0M 18110238.37 18700770.06 m -140060.94 0 a 140060.94 140060.94 0 1 1 280121.87 0a 140060.94 140060.94 0 1 1 -280121.87 0M 19192729.37 18307256.06 m -140060.94 0 a 140060.94 140060.94 0 1 1 280121.87 0a 140060.94 140060.94 0 1 1 -280121.87 0M 20124721.00 20166340.00 A 140060.94 140060.94 0 1 1 20152042.00 20163649.00 L 20124721.00 20166340.00  zM 21673232.99 19185003.87 m -301752.13 0 a 301752.13 301752.13 0 1 1 603504.26 0a 301752.13 301752.13 0 1 1 -603504.26 0M 21673232.99 20185003.87 m -301752.13 0 a 301752.13 301752.13 0 1 1 603504.26 0a 301752.13 301752.13 0 1 1 -603504.26 0M 21673232.99 21185003.87 m -301752.13 0 a 301752.13 301752.13 0 1 1 603504.26 0a 301752.13 301752.13 0 1 1 -603504.26 0M 14468506.37 24999983.06 m -140060.94 0 a 140060.94 140060.94 0 1 1 280121.87 0a 140060.94 140060.94 0 1 1 -280121.87 0M 17125986.37 23720455.06 m -140060.94 0 a 140060.94 140060.94 0 1 1 280121.87 0a 140060.94 140060.94 0 1 1 -280121.87 0M 18296293.37 25885810.06 m -140060.94 0 a 140060.94 140060.94 0 1 1 280121.87 0a 140060.94 140060.94 0 1 1 -280121.87 0M 18405516.66 26673175.15 m -366586.85 0 a 366586.85 366586.85 0 1 1 733173.70 0a 366586.85 366586.85 0 1 1 -733173.70 0M 19980315.00 21793587.00 A 140060.94 140060.94 0 1 1 20007636.00 21790896.00 L 19980315.00 21793587.00  zM 21673232.99 22185003.87 m -301752.13 0 a 301752.13 301752.13 0 1 1 603504.26 0a 301752.13 301752.13 0 1 1 -603504.26 0M 21673232.99 23185003.87 m -301752.13 0 a 301752.13 301752.13 0 1 1 603504.26 0a 301752.13 301752.13 0 1 1 -603504.26 0M 15649608.37 28248014.06 m -140060.94 0 a 140060.94 140060.94 0 1 1 280121.87 0a 140060.94 140060.94 0 1 1 -280121.87 0M 18405516.66 29429081.15 m -366586.85 0 a 366586.85 366586.85 0 1 1 733173.70 0a 366586.85 366586.85 0 1 1 -733173.70 0M 18405516.66 28051128.15 m -366586.85 0 a 366586.85 366586.85 0 1 1 733173.70 0a 366586.85 366586.85 0 1 1 -733173.70 0M 21161422.66 26673175.15 m -366586.85 0 a 366586.85 366586.85 0 1 1 733173.70 0a 366586.85 366586.85 0 1 1 -733173.70 0M 21161422.66 28051128.15 m -366586.85 0 a 366586.85 366586.85 0 1 1 733173.70 0a 366586.85 366586.85 0 1 1 -733173.70 0M 21161422.66 29429081.15 m -366586.85 0 a 366586.85 366586.85 0 1 1 733173.70 0a 366586.85 366586.85 0 1 1 -733173.70 0M 7185044.66 30708608.15 m -366586.85 0 a 366586.85 366586.85 0 1 1 733173.70 0a 366586.85 366586.85 0 1 1 -733173.70 0M 7185044.66 32086561.15 m -366586.85 0 a 366586.85 366586.85 0 1 1 733173.70 0a 366586.85 366586.85 0 1 1 -733173.70 0M 7185044.66 33464514.15 m -366586.85 0 a 366586.85 366586.85 0 1 1 733173.70 0a 366586.85 366586.85 0 1 1 -733173.70 0M 9940950.66 32086561.15 m -366586.85 0 a 366586.85 366586.85 0 1 1 733173.70 0a 366586.85 366586.85 0 1 1 -733173.70 0M 9940950.66 30708608.15 m -366586.85 0 a 366586.85 366586.85 0 1 1 733173.70 0a 366586.85 366586.85 0 1 1 -733173.70 0M 12106301.37 31791322.06 m -140060.94 0 a 140060.94 140060.94 0 1 1 280121.87 0a 140060.94 140060.94 0 1 1 -280121.87 0M 9940950.66 33464514.15 m -366586.85 0 a 366586.85 366586.85 0 1 1 733173.70 0a 366586.85 366586.85 0 1 1 -733173.70 0M 14172134.78 30509842.00 A 138090.28 138090.28 0 1 1 14371173.22 30509842.00 A 138090.28 138090.28 0 1 1 14172134.78 30509842.00  zM 12598427.37 34448802.06 m -140060.94 0 a 140060.94 140060.94 0 1 1 280121.87 0a 140060.94 140060.94 0 1 1 -280121.87 0M 14960633.37 34645653.06 m -140060.94 0 a 140060.94 140060.94 0 1 1 280121.87 0a 140060.94 140060.94 0 1 1 -280121.87 0M 15255908.37 34645653.06 m -140060.94 0 a 140060.94 140060.94 0 1 1 280121.87 0a 140060.94 140060.94 0 1 1 -280121.87 0M 14844189.00 35018750.00 L 14834166.18 35000000.00 L 14823278.00 34968267.00 A 140036.89 140036.89 0 1 1 14844189.00 35018750.00  zM 15139464.00 35018750.00 L 15129441.18 35000000.00 L 15118553.00 34968267.00 A 140036.89 140036.89 0 1 1 15139464.00 35018750.00  zM 15255908.37 35236204.06 m -140060.94 0 a 140060.94 140060.94 0 1 1 280121.87 0a 140060.94 140060.94 0 1 1 -280121.87 0M 5990038.65 39607156.35 L 5974791.00 39593337.00 A 729689.97 729689.97 0 0 0 5048831.00 39593337.00 L 5033583.35 39607156.35 L 4962031.07 39535604.07 L 4977840.00 39521118.00 A 830750.29 830750.29 0 0 1 6045782.00 39521118.00 L 6061590.93 39535604.07 L 5990038.65 39607156.35  zM 6133686.93 40707259.93 L 6062134.65 40635707.65 L 6075954.00 40620460.00 A 729689.97 729689.97 0 0 0 6075954.00 39694500.00 L 6062134.65 39679252.35 L 6133686.93 39607700.07 L 6148173.00 39623509.00 A 830750.29 830750.29 0 0 1 6314217.00 39942476.00 L 6326970.30 40000000.00 L 6339362.00 40085079.00 A 830733.43 830733.43 0 0 1 6148173.00 40691451.00 L 6133686.93 40707259.93  zM 14960633.37 35236204.06 m -140060.94 0 a 140060.94 140060.94 0 1 1 280121.87 0a 140060.94 140060.94 0 1 1 -280121.87 0M 14960633.37 35531480.06 m -140060.94 0 a 140060.94 140060.94 0 1 1 280121.87 0a 140060.94 140060.94 0 1 1 -280121.87 0M 15255908.37 35531480.06 m -140060.94 0 a 140060.94 140060.94 0 1 1 280121.87 0a 140060.94 140060.94 0 1 1 -280121.87 0M 15551184.37 35531480.06 m -140060.94 0 a 140060.94 140060.94 0 1 1 280121.87 0a 140060.94 140060.94 0 1 1 -280121.87 0M 15059055.00 40199099.00 A 140060.94 140060.94 0 1 1 15086376.00 40196408.00 L 15059055.00 40199099.00  zM 4889935.07 40707259.93 L 4875449.00 40691451.00 A 830750.29 830750.29 0 0 1 4875449.00 39623509.00 L 4889935.07 39607700.07 L 4961487.35 39679252.35 L 4947668.00 39694500.00 A 729689.97 729689.97 0 0 0 4947668.00 40620460.00 L 4961487.35 40635707.65 L 4889935.07 40707259.93  zM 4977840.00 40793842.00 L 4962031.07 40779355.93 L 5033583.35 40707803.65 L 5048831.00 40721623.00 A 729689.97 729689.97 0 0 0 5974791.00 40721623.00 L 5990038.65 40707803.65 L 6061590.93 40779355.93 L 6045782.00 40793842.00 A 830750.29 830750.29 0 0 1 4977840.00 40793842.00  zM 10050000.00 42163735.00 A 346820.34 346820.34 0 1 1 10095267.00 42160768.00 L 10050000.00 42163735.00  zM 10050000.00 45047768.00 A 297756.52 297756.52 0 1 1 10096581.00 45044102.00 L 10050000.00 45047768.00  zM 14098424.49 41918893.06 m -593062.94 0 a 593062.94 593062.94 0 1 1 1186125.89 0a 593062.94 593062.94 0 1 1 -1186125.89 0M 14059057.37 46244078.06 m -140060.94 0 a 140060.94 140060.94 0 1 1 280121.87 0a 140060.94 140060.94 0 1 1 -280121.87 0M 18405516.66 30807033.15 m -366586.85 0 a 366586.85 366586.85 0 1 1 733173.70 0a 366586.85 366586.85 0 1 1 -733173.70 0M 18405516.66 32184986.15 m -366586.85 0 a 366586.85 366586.85 0 1 1 733173.70 0a 366586.85 366586.85 0 1 1 -733173.70 0M 18185760.91 33271146.55 L 18113881.87 33199267.55 L 18121373.00 33192698.00 A 466745.85 466745.85 0 0 1 18689649.00 33192698.00 L 18697139.94 33199267.38 L 18625260.93 33271146.44 L 18588276.00 33246434.00 L 18545394.00 33225286.00 A 365559.54 365559.54 0 0 0 18185760.91 33271146.55  zM 18041785.55 33854622.13 L 18035216.00 33847131.00 A 466745.85 466745.85 0 0 1 18035216.00 33278855.00 L 18041785.55 33271363.87 L 18113664.55 33343242.91 L 18088952.00 33380228.00 L 18067804.00 33423110.00 A 365559.54 365559.54 0 0 0 18113664.55 33782743.09 L 18041785.55 33854622.13  zM 15551184.37 34645653.06 m -140060.94 0 a 140060.94 140060.94 0 1 1 280121.87 0a 140060.94 140060.94 0 1 1 -280121.87 0M 18121373.00 33933288.00 L 18113881.87 33926718.45 L 18185760.91 33854839.45 L 18222746.00 33879552.00 L 18265628.00 33900700.00 A 365559.54 365559.54 0 0 0 18625260.93 33854839.56 L 18697139.94 33926718.62 L 18689649.00 33933288.00 A 466745.85 466745.85 0 0 1 18121373.00 33933288.00  zM 18769236.62 33854621.94 L 18697357.56 33782742.93 L 18722070.00 33745758.00 L 18743218.00 33702876.00 A 365559.54 365559.54 0 0 0 18697357.56 33343243.07 L 18769236.62 33271364.06 L 18775806.00 33278855.00 A 466745.85 466745.85 0 0 1 18775806.00 33847131.00 L 18769236.62 33854621.94  zM 21161422.66 30807033.15 m -366586.85 0 a 366586.85 366586.85 0 1 1 733173.70 0a 366586.85 366586.85 0 1 1 -733173.70 0M 21161422.66 32184986.15 m -366586.85 0 a 366586.85 366586.85 0 1 1 733173.70 0a 366586.85 366586.85 0 1 1 -733173.70 0M 20941666.91 33271146.55 L 20869787.87 33199267.55 L 20877279.00 33192698.00 A 466745.85 466745.85 0 0 1 21445555.00 33192698.00 L 21453045.94 33199267.38 L 21381166.93 33271146.44 L 21344182.00 33246434.00 L 21301300.00 33225286.00 A 365559.54 365559.54 0 0 0 20941666.91 33271146.55  zM 20797691.55 33854622.13 L 20791122.00 33847131.00 A 466745.85 466745.85 0 0 1 20791122.00 33278855.00 L 20797691.55 33271363.87 L 20869570.55 33343242.91 L 20844858.00 33380228.00 L 20823710.00 33423110.00 A 365559.54 365559.54 0 0 0 20869570.55 33782743.09 L 20797691.55 33854622.13  zM 20877279.00 33933288.00 L 20869787.87 33926718.45 L 20941666.91 33854839.45 L 20978652.00 33879552.00 L 21021534.00 33900700.00 A 365559.54 365559.54 0 0 0 21381166.93 33854839.56 L 21453045.94 33926718.62 L 21445555.00 33933288.00 A 466745.85 466745.85 0 0 1 20877279.00 33933288.00  zM 21525142.62 33854621.94 L 21453263.56 33782742.93 L 21477976.00 33745758.00 L 21499124.00 33702876.00 A 365559.54 365559.54 0 0 0 21453263.56 33343243.07 L 21525142.62 33271364.06 L 21531712.00 33278855.00 A 466745.85 466745.85 0 0 1 21531712.00 33847131.00 L 21525142.62 33854621.94  zM 15846459.37 34645653.06 m -140060.94 0 a 140060.94 140060.94 0 1 1 280121.87 0a 140060.94 140060.94 0 1 1 -280121.87 0M 15434740.00 35018750.00 L 15424717.18 35000000.00 L 15413829.00 34968267.00 A 140036.89 140036.89 0 1 1 15434740.00 35018750.00  zM 15730015.00 35018750.00 L 15719992.18 35000000.00 L 15709104.00 34968267.00 A 140036.89 140036.89 0 1 1 15730015.00 35018750.00  zM 15846459.37 35236204.06 m -140060.94 0 a 140060.94 140060.94 0 1 1 280121.87 0a 140060.94 140060.94 0 1 1 -280121.87 0M 15551184.37 35236204.06 m -140060.94 0 a 140060.94 140060.94 0 1 1 280121.87 0a 140060.94 140060.94 0 1 1 -280121.87 0M 15846459.37 35531480.06 m -140060.94 0 a 140060.94 140060.94 0 1 1 280121.87 0a 140060.94 140060.94 0 1 1 -280121.87 0M 16059057.37 40043290.06 m -140060.94 0 a 140060.94 140060.94 0 1 1 280121.87 0a 140060.94 140060.94 0 1 1 -280121.87 0M 16059057.37 38106282.06 m -140060.94 0 a 140060.94 140060.94 0 1 1 280121.87 0a 140060.94 140060.94 0 1 1 -280121.87 0M 18110238.37 36614156.06 m -140060.94 0 a 140060.94 140060.94 0 1 1 280121.87 0a 140060.94 140060.94 0 1 1 -280121.87 0M 22212770.07 40707259.93 L 22198284.00 40691451.00 A 830750.29 830750.29 0 0 1 22198284.00 39623509.00 L 22212770.07 39607700.07 L 22284322.35 39679252.35 L 22270503.00 39694500.00 A 729689.97 729689.97 0 0 0 22270503.00 40620460.00 L 22284322.35 40635707.65 L 22212770.07 40707259.93  zM 23312873.65 39607156.35 L 23297626.00 39593337.00 A 729689.97 729689.97 0 0 0 22371666.00 39593337.00 L 22356418.35 39607156.35 L 22284866.07 39535604.07 L 22300675.00 39521118.00 A 830750.29 830750.29 0 0 1 23368617.00 39521118.00 L 23384425.93 39535604.07 L 23312873.65 39607156.35  zM 23456521.93 40707259.93 L 23384969.65 40635707.65 L 23398789.00 40620460.00 A 729689.97 729689.97 0 0 0 23398789.00 39694500.00 L 23384969.65 39679252.35 L 23456521.93 39607700.07 L 23471008.00 39623509.00 A 830750.29 830750.29 0 0 1 23637052.00 39942476.00 L 23649805.30 40000000.00 L 23662197.00 40085079.00 A 830733.43 830733.43 0 0 1 23471008.00 40691451.00 L 23456521.93 40707259.93  zM 22300675.00 40793842.00 L 22284866.07 40779355.93 L 22356418.35 40707803.65 L 22371666.00 40721623.00 A 729689.97 729689.97 0 0 0 23297626.00 40721623.00 L 23312873.65 40707803.65 L 23384425.93 40779355.93 L 23368617.00 40793842.00 A 830750.29 830750.29 0 0 1 22300675.00 40793842.00  z"/>
</g>
</svg>
