<svg width="52.00000014mm" height="115.00000114mm" viewBox="0 0 20472441 45275591"  version="1.1" xmlns="http://www.w3.org/2000/svg" xmlns:xlink="http://www.w3.org/1999/xlink">
<desc>
Origin 0 0 Bound 3937008 3937008 20472441 45275591
</desc>
<g fill-rule="evenodd" fill="rgb(255, 0, 255)" stroke="black" stroke-width="1" transform="translate(0, 45275591) scale(1, -1) translate(-3937008, -3937008)">
<path id="N" d="M 23232179.00 49212597.00 A 1262634.71 1262634.71 0 0 0 24409447.00 48035329.00 L 24409447.00 5114274.00 A 1262502.26 1262502.26 0 0 0 23232179.00 3937007.00 L 5114275.00 3937009.00 A 1262557.60 1262557.60 0 0 0 3937009.00 5114275.00 L 3937007.00 48035329.00 A 1262634.71 1262634.71 0 0 0 5114275.00 49212597.00 L 23232179.00 49212597.00  zM 5511812.54 5511802.16 m -810999.84 0 a 810999.84 810999.84 0 1 1 1621999.67 0a 810999.84 810999.84 0 1 1 -1621999.67 0M 7183465.00 8502207.00 L 6317323.00 8502207.00 A 258108.52 258108.52 0 1 1 6317323.00 7985981.00 L 7183465.00 7985981.00 A 258108.52 258108.52 0 0 1 7183465.00 8502207.00  zM 8772437.62 4872454.42 m -583503.58 0 a 583503.58 583503.58 0 1 1 1167007.17 0a 583503.58 583503.58 0 1 1 -1167007.17 0M 8772437.62 6900014.42 m -583503.58 0 a 583503.58 583503.58 0 1 1 1167007.17 0a 583503.58 583503.58 0 1 1 -1167007.17 0M 9786216.05 5886234.19 m -496358.81 0 a 496358.81 496358.81 0 1 1 992717.61 0a 496358.81 496358.81 0 1 1 -992717.61 0M 7183465.00 9289609.00 L 6317323.00 9289609.00 A 258108.52 258108.52 0 0 1 6317323.00 8773383.00 L 7183465.00 8773383.00 A 258108.52 258108.52 0 0 1 7183465.00 9289609.00  zM 7183465.00 10077011.00 L 6317323.00 10077011.00 A 258108.52 258108.52 0 1 1 6317323.00 9560785.00 L 7183465.00 9560785.00 A 258108.52 258108.52 0 0 1 7183465.00 10077011.00  zM 7183465.00 10864412.00 L 6317323.00 10864412.00 A 258108.52 258108.52 0 1 1 6317323.00 10348186.00 L 7183465.00 10348186.00 A 258108.52 258108.52 0 0 1 7183465.00 10864412.00  zM 7183465.00 11651814.00 L 6317323.00 11651814.00 A 258108.52 258108.52 0 1 1 6317323.00 11135588.00 L 7183465.00 11135588.00 A 258108.52 258108.52 0 0 1 7183465.00 11651814.00  zM 10799997.62 4872454.42 m -583503.58 0 a 583503.58 583503.58 0 1 1 1167007.17 0a 583503.58 583503.58 0 1 1 -1167007.17 0M 10799997.62 6900014.42 m -583503.58 0 a 583503.58 583503.58 0 1 1 1167007.17 0a 583503.58 583503.58 0 1 1 -1167007.17 0M 13482677.00 8502207.00 L 12616535.00 8502207.00 A 258108.52 258108.52 0 1 1 12616535.00 7985981.00 L 13482677.00 7985981.00 A 258108.52 258108.52 0 1 1 13482677.00 8502207.00  zM 13482677.00 9289609.00 L 12616535.00 9289609.00 A 258108.52 258108.52 0 0 1 12616535.00 8773383.00 L 13482677.00 8773383.00 A 258108.52 258108.52 0 1 1 13482677.00 9289609.00  zM 13482677.00 10077011.00 L 12616535.00 10077011.00 A 258108.52 258108.52 0 1 1 12616535.00 9560785.00 L 13482677.00 9560785.00 A 258108.52 258108.52 0 1 1 13482677.00 10077011.00  zM 13482677.00 10864412.00 L 12616535.00 10864412.00 A 258108.52 258108.52 0 1 1 12616535.00 10348186.00 L 13482677.00 10348186.00 A 258108.52 258108.52 0 1 1 13482677.00 10864412.00  zM 13482677.00 11651814.00 L 12616535.00 11651814.00 A 258108.52 258108.52 0 1 1 12616535.00 11135588.00 L 13482677.00 11135588.00 A 258108.52 258108.52 0 1 1 13482677.00 11651814.00  zM 13482677.00 12439215.00 L 12616535.00 12439215.00 A 258108.52 258108.52 0 1 1 12616535.00 11922989.00 L 13482677.00 11922989.00 A 258108.52 258108.52 0 1 1 13482677.00 12439215.00  zM 7183465.00 13226617.00 L 6317323.00 13226617.00 A 258108.52 258108.52 0 1 1 6317323.00 12710391.00 L 7183465.00 12710391.00 A 258108.52 258108.52 0 1 1 7183465.00 13226617.00  zM 7183465.00 14014019.00 L 6317323.00 14014019.00 A 258108.52 258108.52 0 0 1 6317323.00 13497793.00 L 7183465.00 13497793.00 A 258108.52 258108.52 0 0 1 7183465.00 14014019.00  zM 6673227.86 16185040.28 m -327604.72 0 a 327604.72 327604.72 0 1 1 655209.45 0a 327604.72 327604.72 0 1 1 -655209.45 0M 7183465.00 12439215.00 L 6317323.00 12439215.00 A 258108.52 258108.52 0 1 1 6317323.00 11922989.00 L 7183465.00 11922989.00 A 258108.52 258108.52 0 0 1 7183465.00 12439215.00  zM 11601553.00 15038626.00 L 11166099.00 15038626.00 L 11166099.00 14661374.00 L 11601553.00 14661374.00 L 11601553.00 15038626.00  zM 12133901.00 15038626.00 L 11698447.00 15038626.00 L 11698447.00 14661374.00 L 12133901.00 14661374.00 L 12133901.00 15038626.00  zM 12120909.00 15512360.00 L 11779091.00 15512360.00 L 11779091.00 15194840.00 L 12120909.00 15194840.00 L 12120909.00 15512360.00  zM 12120909.00 16005160.00 L 11779091.00 16005160.00 L 11779091.00 15687640.00 L 12120909.00 15687640.00 L 12120909.00 16005160.00  zM 12570909.00 16005160.00 L 12229091.00 16005160.00 L 12229091.00 15687640.00 L 12570909.00 15687640.00 L 12570909.00 16005160.00  zM 13482677.00 14014019.00 L 12616535.00 14014019.00 A 258108.52 258108.52 0 0 1 12616535.00 13497793.00 L 13482677.00 13497793.00 A 258108.52 258108.52 0 1 1 13482677.00 14014019.00  zM 13482677.00 13226617.00 L 12616535.00 13226617.00 A 258108.52 258108.52 0 1 1 12616535.00 12710391.00 L 13482677.00 12710391.00 A 258108.52 258108.52 0 1 1 13482677.00 13226617.00  zM 14569095.00 13437832.00 L 13992323.00 13437832.00 L 13955411.00 13422542.00 L 13940121.00 13385630.00 L 13940121.00 13214370.00 L 13955411.00 13177458.00 L 13992323.00 13162168.00 L 14569095.00 13162168.00 L 14606007.00 13177458.00 L 14621297.00 13214370.00 L 14621297.00 13385630.00 L 14606007.00 13422542.00 L 14569095.00 13437832.00  zM 14569095.00 13937832.00 L 13992323.00 13937832.00 L 13955411.00 13922542.00 L 13940121.00 13885630.00 L 13940121.00 13714370.00 L 13955411.00 13677458.00 L 13992323.00 13662168.00 L 14569095.00 13662168.00 L 14606007.00 13677458.00 L 14621297.00 13714370.00 L 14621297.00 13885630.00 L 14606007.00 13922542.00 L 14569095.00 13937832.00  zM 12570909.00 15512360.00 L 12229091.00 15512360.00 L 12229091.00 15194840.00 L 12570909.00 15194840.00 L 12570909.00 15512360.00  zM 13212360.00 14970909.00 L 12894840.00 14970909.00 L 12894840.00 14629091.00 L 13212360.00 14629091.00 L 13212360.00 14970909.00  zM 13705160.00 14970909.00 L 13387640.00 14970909.00 L 13387640.00 14629091.00 L 13705160.00 14629091.00 L 13705160.00 14970909.00  zM 14569095.00 14937832.00 L 13992323.00 14937832.00 L 13955411.00 14922542.00 L 13940121.00 14885630.00 L 13940121.00 14714370.00 L 13955411.00 14677458.00 L 13992323.00 14662168.00 L 14569095.00 14662168.00 L 14606007.00 14677458.00 L 14621297.00 14714370.00 L 14621297.00 14885630.00 L 14606007.00 14922542.00 L 14569095.00 14937832.00  zM 16580404.00 5008268.00 L 16580404.00 4535826.00 A 220780.35 220780.35 0 0 1 17021958.00 4535826.00 L 17021958.00 5008268.00 A 220780.35 220780.35 0 0 1 16580404.00 5008268.00  zM 16580404.00 6575197.00 L 16580404.00 6260237.00 A 220780.35 220780.35 0 0 1 17021958.00 6260237.00 L 17021958.00 6575197.00 A 220780.35 220780.35 0 0 1 16580404.00 6575197.00  zM 19980404.00 5008268.00 L 19980404.00 4535826.00 A 220780.35 220780.35 0 1 1 20421958.00 4535826.00 L 20421958.00 5008268.00 A 220780.35 220780.35 0 1 1 19980404.00 5008268.00  zM 19977048.00 6621976.00 L 19977048.00 6307016.00 A 220780.35 220780.35 0 0 1 20418602.00 6307016.00 L 20418602.00 6621976.00 A 220780.35 220780.35 0 1 1 19977048.00 6621976.00  zM 20771653.00 9688976.00 L 20141733.00 9688976.00 L 20141733.00 9334646.00 L 20771653.00 9334646.00 L 20771653.00 9688976.00  zM 14526378.00 11271259.00 L 14073622.00 11271259.00 L 14073622.00 10877559.00 L 14526378.00 10877559.00 L 14526378.00 11271259.00  zM 14526378.00 11822440.00 L 14073622.00 11822440.00 L 14073622.00 11428740.00 L 14526378.00 11428740.00 L 14526378.00 11822440.00  zM 16633857.00 9822834.00 L 16043307.00 9822834.00 L 16043307.00 9271654.00 L 16633857.00 9271654.00 L 16633857.00 9822834.00  zM 16456693.00 11460630.00 L 16043307.00 11460630.00 L 16043307.00 11027560.00 L 16456693.00 11027560.00 L 16456693.00 11460630.00  zM 22834647.54 5511802.16 m -810999.84 0 a 810999.84 810999.84 0 1 1 1621999.67 0a 810999.84 810999.84 0 1 1 -1621999.67 0M 22303148.00 7539369.00 L 21515748.00 7539369.00 L 21515748.00 6948819.00 L 22303148.00 6948819.00 L 22303148.00 7539369.00  zM 20929133.00 9255905.00 L 20299213.00 9255905.00 L 20299213.00 8901575.00 L 20929133.00 8901575.00 L 20929133.00 9255905.00  zM 20929133.00 10122047.00 L 20299213.00 10122047.00 L 20299213.00 9767717.00 L 20929133.00 9767717.00 L 20929133.00 10122047.00  zM 21007873.00 10555118.00 L 20377953.00 10555118.00 L 20377953.00 10200788.00 L 21007873.00 10200788.00 L 21007873.00 10555118.00  zM 20929133.00 10988189.00 L 20299213.00 10988189.00 L 20299213.00 10633859.00 L 20929133.00 10633859.00 L 20929133.00 10988189.00  zM 21007873.00 11421260.00 L 20377953.00 11421260.00 L 20377953.00 11066930.00 L 21007873.00 11066930.00 L 21007873.00 11421260.00  zM 20929133.00 11854331.00 L 20299213.00 11854331.00 L 20299213.00 11500001.00 L 20929133.00 11500001.00 L 20929133.00 11854331.00  zM 16633857.00 12066929.00 L 16043307.00 12066929.00 L 16043307.00 11515749.00 L 16633857.00 11515749.00 L 16633857.00 12066929.00  zM 14569095.00 14437832.00 L 13992323.00 14437832.00 L 13955411.00 14422542.00 L 13940121.00 14385630.00 L 13940121.00 14214370.00 L 13955411.00 14177458.00 L 13992323.00 14162168.00 L 14569095.00 14162168.00 L 14606007.00 14177458.00 L 14621297.00 14214370.00 L 14621297.00 14385630.00 L 14606007.00 14422542.00 L 14569095.00 14437832.00  zM 17407677.00 13937832.00 L 16830905.00 13937832.00 L 16793993.00 13922542.00 L 16778703.00 13885630.00 L 16778703.00 13714370.00 L 16793993.00 13677458.00 L 16830905.00 13662168.00 L 17407677.00 13662168.00 L 17444589.00 13677458.00 L 17459879.00 13714370.00 L 17459879.00 13885630.00 L 17444589.00 13922542.00 L 17407677.00 13937832.00  zM 14762360.00 15620909.00 L 14444840.00 15620909.00 L 14444840.00 15279091.00 L 14762360.00 15279091.00 L 14762360.00 15620909.00  zM 15255160.00 15620909.00 L 14937640.00 15620909.00 L 14937640.00 15279091.00 L 15255160.00 15279091.00 L 15255160.00 15620909.00  zM 15370909.00 16062360.00 L 15029091.00 16062360.00 L 15029091.00 15744840.00 L 15370909.00 15744840.00 L 15370909.00 16062360.00  zM 15370909.00 16555160.00 L 15029091.00 16555160.00 L 15029091.00 16237640.00 L 15370909.00 16237640.00 L 15370909.00 16555160.00  zM 16466535.00 16653543.00 L 16013779.00 16653543.00 L 16013779.00 16259843.00 L 16466535.00 16259843.00 L 16466535.00 16653543.00  zM 16466535.00 17204724.00 L 16013779.00 17204724.00 L 16013779.00 16811024.00 L 16466535.00 16811024.00 L 16466535.00 17204724.00  zM 17407677.00 13437832.00 L 16830905.00 13437832.00 L 16793993.00 13422542.00 L 16778703.00 13385630.00 L 16778703.00 13214370.00 L 16793993.00 13177458.00 L 16830905.00 13162168.00 L 17407677.00 13162168.00 L 17444589.00 13177458.00 L 17459879.00 13214370.00 L 17459879.00 13385630.00 L 17444589.00 13422542.00 L 17407677.00 13437832.00  zM 17407677.00 14437832.00 L 16830905.00 14437832.00 L 16793993.00 14422542.00 L 16778703.00 14385630.00 L 16778703.00 14214370.00 L 16793993.00 14177458.00 L 16830905.00 14162168.00 L 17407677.00 14162168.00 L 17444589.00 14177458.00 L 17459879.00 14214370.00 L 17459879.00 14385630.00 L 17444589.00 14422542.00 L 17407677.00 14437832.00  zM 17407677.00 14937832.00 L 16830905.00 14937832.00 L 16793993.00 14922542.00 L 16778703.00 14885630.00 L 16778703.00 14714370.00 L 16793993.00 14677458.00 L 16830905.00 14662168.00 L 17407677.00 14662168.00 L 17444589.00 14677458.00 L 17459879.00 14714370.00 L 17459879.00 14885630.00 L 17444589.00 14922542.00 L 17407677.00 14937832.00  zM 17440944.00 15482284.00 L 17047244.00 15482284.00 L 17047244.00 15029528.00 L 17440944.00 15029528.00 L 17440944.00 15482284.00  zM 20929133.00 12287402.00 L 20299213.00 12287402.00 L 20299213.00 11933072.00 L 20929133.00 11933072.00 L 20929133.00 12287402.00  zM 21909448.00 12716535.00 L 21122048.00 12716535.00 L 21122048.00 12125985.00 L 21909448.00 12125985.00 L 21909448.00 12716535.00  zM 17992125.00 15482284.00 L 17598425.00 15482284.00 L 17598425.00 15029528.00 L 17992125.00 15029528.00 L 17992125.00 15482284.00  zM 21673227.86 16185040.28 m -327604.72 0 a 327604.72 327604.72 0 1 1 655209.45 0a 327604.72 327604.72 0 1 1 -655209.45 0M 6673227.86 17185040.28 m -327604.72 0 a 327604.72 327604.72 0 1 1 655209.45 0a 327604.72 327604.72 0 1 1 -655209.45 0M 6673227.86 18185040.28 m -327604.72 0 a 327604.72 327604.72 0 1 1 655209.45 0a 327604.72 327604.72 0 1 1 -655209.45 0M 6673227.86 19185040.28 m -327604.72 0 a 327604.72 327604.72 0 1 1 655209.45 0a 327604.72 327604.72 0 1 1 -655209.45 0M 10318925.00 19006802.00 L 10053923.00 19006802.00 A 106801.81 106801.81 0 0 1 10053923.00 18793198.00 L 10318925.00 18793198.00 A 106801.81 106801.81 0 0 1 10318925.00 19006802.00  zM 11250827.00 19378766.00 L 10776325.00 19378766.00 L 10776325.00 19169266.00 L 11250827.00 19169266.00 L 11250827.00 19378766.00  zM 6673227.86 20185040.28 m -327604.72 0 a 327604.72 327604.72 0 1 1 655209.45 0a 327604.72 327604.72 0 1 1 -655209.45 0M 6673227.86 21185040.28 m -327604.72 0 a 327604.72 327604.72 0 1 1 655209.45 0a 327604.72 327604.72 0 1 1 -655209.45 0M 6673227.86 22185040.28 m -327604.72 0 a 327604.72 327604.72 0 1 1 655209.45 0a 327604.72 327604.72 0 1 1 -655209.45 0M 8953934.17 20900009.88 m -307741.12 0 a 307741.12 307741.12 0 1 1 615482.25 0a 307741.12 307741.12 0 1 1 -615482.25 0M 11146077.00 18632786.00 L 10881075.00 18632786.00 A 106801.81 106801.81 0 0 1 10881075.00 18419182.00 L 11146077.00 18419182.00 A 106801.81 106801.81 0 0 1 11146077.00 18632786.00  zM 11946060.17 20900009.88 m -307741.12 0 a 307741.12 307741.12 0 1 1 615482.25 0a 307741.12 307741.12 0 1 1 -615482.25 0M 13887797.00 22391731.00 L 13622049.00 22391731.00 L 13622049.00 22293307.00 L 13887797.00 22293307.00 L 13887797.00 22391731.00  zM 14124016.00 22431102.00 L 14025592.00 22431102.00 L 14025592.00 22204724.00 L 14124016.00 22204724.00 L 14124016.00 22431102.00  zM 13887797.00 22588582.00 L 13622049.00 22588582.00 L 13622049.00 22490158.00 L 13887797.00 22490158.00 L 13887797.00 22588582.00  zM 13887797.00 22785432.00 L 13622049.00 22785432.00 L 13622049.00 22687008.00 L 13887797.00 22687008.00 L 13887797.00 22785432.00  zM 13887797.00 22982282.00 L 13622049.00 22982282.00 L 13622049.00 22883858.00 L 13887797.00 22883858.00 L 13887797.00 22982282.00  zM 13887797.00 23179133.00 L 13622049.00 23179133.00 L 13622049.00 23080709.00 L 13887797.00 23080709.00 L 13887797.00 23179133.00  zM 16555118.00 18631890.00 L 16161418.00 18631890.00 L 16161418.00 18179134.00 L 16555118.00 18179134.00 L 16555118.00 18631890.00  zM 16269685.00 19803149.00 L 15816929.00 19803149.00 L 15816929.00 19409449.00 L 16269685.00 19409449.00 L 16269685.00 19803149.00  zM 16269685.00 20354330.00 L 15816929.00 20354330.00 L 15816929.00 19960630.00 L 16269685.00 19960630.00 L 16269685.00 20354330.00  zM 15187008.00 21377952.00 L 14734252.00 21377952.00 L 14734252.00 20984252.00 L 15187008.00 20984252.00 L 15187008.00 21377952.00  zM 16564961.00 20885826.00 L 16112205.00 20885826.00 L 16112205.00 20492126.00 L 16564961.00 20492126.00 L 16564961.00 20885826.00  zM 14596457.00 21377952.00 L 14143701.00 21377952.00 L 14143701.00 20984252.00 L 14596457.00 20984252.00 L 14596457.00 21377952.00  zM 14596457.00 21929133.00 L 14143701.00 21929133.00 L 14143701.00 21535433.00 L 14596457.00 21535433.00 L 14596457.00 21929133.00  zM 15187008.00 21929133.00 L 14734252.00 21929133.00 L 14734252.00 21535433.00 L 15187008.00 21535433.00 L 15187008.00 21929133.00  zM 16564961.00 21437007.00 L 16112205.00 21437007.00 L 16112205.00 21043307.00 L 16564961.00 21043307.00 L 16564961.00 21437007.00  zM 14320867.00 22431102.00 L 14222443.00 22431102.00 L 14222443.00 22204724.00 L 14320867.00 22204724.00 L 14320867.00 22431102.00  zM 14517717.00 22431102.00 L 14419293.00 22431102.00 L 14419293.00 22204724.00 L 14517717.00 22204724.00 L 14517717.00 22431102.00  zM 14714568.00 22431102.00 L 14616144.00 22431102.00 L 14616144.00 22204724.00 L 14714568.00 22204724.00 L 14714568.00 22431102.00  zM 15118111.00 22391731.00 L 14852363.00 22391731.00 L 14852363.00 22293307.00 L 15118111.00 22293307.00 L 15118111.00 22391731.00  zM 15118111.00 22588582.00 L 14852363.00 22588582.00 L 14852363.00 22490158.00 L 15118111.00 22490158.00 L 15118111.00 22588582.00  zM 15118111.00 22785432.00 L 14852363.00 22785432.00 L 14852363.00 22687008.00 L 15118111.00 22687008.00 L 15118111.00 22785432.00  zM 15118111.00 22982282.00 L 14852363.00 22982282.00 L 14852363.00 22883858.00 L 15118111.00 22883858.00 L 15118111.00 22982282.00  zM 15118111.00 23179133.00 L 14852363.00 23179133.00 L 14852363.00 23080709.00 L 15118111.00 23080709.00 L 15118111.00 23179133.00  zM 16656716.00 18013824.00 L 16336570.00 17693678.00 L 16614958.00 17415290.00 L 16935104.00 17735436.00 L 16656716.00 18013824.00  zM 17046460.00 17624080.00 L 16726314.00 17303934.00 L 17004702.00 17025546.00 L 17324848.00 17345692.00 L 17046460.00 17624080.00  zM 17106299.00 18631890.00 L 16712599.00 18631890.00 L 16712599.00 18179134.00 L 17106299.00 18179134.00 L 17106299.00 18631890.00  zM 16793419.00 19718336.00 L 16675104.00 19600021.00 L 16786459.00 19488666.00 L 16904774.00 19606981.00 L 16793419.00 19718336.00  zM 17002211.00 19641780.00 L 16890856.00 19530425.00 L 17009171.00 19412110.00 L 17120526.00 19523465.00 L 17002211.00 19641780.00  zM 16654225.00 19857530.00 L 16535910.00 19739215.00 L 16647265.00 19627860.00 L 16765580.00 19746175.00 L 16654225.00 19857530.00  zM 16570709.00 20073282.00 L 16459354.00 19961927.00 L 16577669.00 19843612.00 L 16689024.00 19954967.00 L 16570709.00 20073282.00  zM 17141405.00 19780974.00 L 17030050.00 19669619.00 L 17148365.00 19551304.00 L 17259720.00 19662659.00 L 17141405.00 19780974.00  zM 17211003.00 20135920.00 L 17092688.00 20017605.00 L 17204043.00 19906250.00 L 17322358.00 20024565.00 L 17211003.00 20135920.00  zM 18828740.00 18326771.00 L 18375984.00 18326771.00 L 18375984.00 17933071.00 L 18828740.00 17933071.00 L 18828740.00 18326771.00  zM 18828740.00 18877952.00 L 18375984.00 18877952.00 L 18375984.00 18484252.00 L 18828740.00 18484252.00 L 18828740.00 18877952.00  zM 17280599.00 19920168.00 L 17169244.00 19808813.00 L 17287559.00 19690498.00 L 17398914.00 19801853.00 L 17280599.00 19920168.00  zM 18828740.00 19960629.00 L 18375984.00 19960629.00 L 18375984.00 19566929.00 L 18828740.00 19566929.00 L 18828740.00 19960629.00  zM 18828740.00 19409448.00 L 18375984.00 19409448.00 L 18375984.00 19015748.00 L 18828740.00 19015748.00 L 18828740.00 19409448.00  zM 21673227.86 17185040.28 m -327604.72 0 a 327604.72 327604.72 0 1 1 655209.45 0a 327604.72 327604.72 0 1 1 -655209.45 0M 21673227.86 18185040.28 m -327604.72 0 a 327604.72 327604.72 0 1 1 655209.45 0a 327604.72 327604.72 0 1 1 -655209.45 0M 21673227.86 19185040.28 m -327604.72 0 a 327604.72 327604.72 0 1 1 655209.45 0a 327604.72 327604.72 0 1 1 -655209.45 0M 16709903.00 20212476.00 L 16598548.00 20101121.00 L 16716863.00 19982806.00 L 16828218.00 20094161.00 L 16709903.00 20212476.00  zM 16849097.00 20351670.00 L 16737742.00 20240315.00 L 16856057.00 20122000.00 L 16967412.00 20233355.00 L 16849097.00 20351670.00  zM 17071809.00 20275114.00 L 16953494.00 20156799.00 L 17064849.00 20045444.00 L 17183164.00 20163759.00 L 17071809.00 20275114.00  zM 17493744.00 20876927.00 L 17151926.00 20876927.00 L 17151926.00 20559407.00 L 17493744.00 20559407.00 L 17493744.00 20876927.00  zM 17001618.00 20876927.00 L 16659800.00 20876927.00 L 16659800.00 20559407.00 L 17001618.00 20559407.00 L 17001618.00 20876927.00  zM 17001618.00 21369727.00 L 16659800.00 21369727.00 L 16659800.00 21052207.00 L 17001618.00 21052207.00 L 17001618.00 21369727.00  zM 17493744.00 21369727.00 L 17151926.00 21369727.00 L 17151926.00 21052207.00 L 17493744.00 21052207.00 L 17493744.00 21369727.00  zM 18041339.00 21437007.00 L 17588583.00 21437007.00 L 17588583.00 21043307.00 L 18041339.00 21043307.00 L 18041339.00 21437007.00  zM 18041339.00 20885826.00 L 17588583.00 20885826.00 L 17588583.00 20492126.00 L 18041339.00 20492126.00 L 18041339.00 20885826.00  zM 20108268.00 22716535.00 L 19655512.00 22716535.00 L 19655512.00 22322835.00 L 20108268.00 22322835.00 L 20108268.00 22716535.00  zM 20108268.00 22165354.00 L 19655512.00 22165354.00 L 19655512.00 21771654.00 L 20108268.00 21771654.00 L 20108268.00 22165354.00  zM 20797244.00 22716535.00 L 20344488.00 22716535.00 L 20344488.00 22322835.00 L 20797244.00 22322835.00 L 20797244.00 22716535.00  zM 21673227.86 20185040.28 m -327604.72 0 a 327604.72 327604.72 0 1 1 655209.45 0a 327604.72 327604.72 0 1 1 -655209.45 0M 21673227.86 21185040.28 m -327604.72 0 a 327604.72 327604.72 0 1 1 655209.45 0a 327604.72 327604.72 0 1 1 -655209.45 0M 20797244.00 22165354.00 L 20344488.00 22165354.00 L 20344488.00 21771654.00 L 20797244.00 21771654.00 L 20797244.00 22165354.00  zM 21673227.86 22185040.28 m -327604.72 0 a 327604.72 327604.72 0 1 1 655209.45 0a 327604.72 327604.72 0 1 1 -655209.45 0M 6998031.00 23509842.00 L 6348425.00 23509842.00 L 6348425.00 22860236.00 L 6998031.00 22860236.00 L 6998031.00 23509842.00  zM 7185035.62 26574817.46 m -421903.54 0 a 421903.54 421903.54 0 1 1 843807.09 0a 421903.54 421903.54 0 1 1 -843807.09 0M 9940941.62 26574817.46 m -421903.54 0 a 421903.54 421903.54 0 1 1 843807.09 0a 421903.54 421903.54 0 1 1 -843807.09 0M 11655804.00 28023916.00 L 11230608.00 28023916.00 L 11230608.00 27602656.00 L 11655804.00 27602656.00 L 11655804.00 28023916.00  zM 12242418.00 28023916.00 L 11817222.00 28023916.00 L 11817222.00 27602656.00 L 12242418.00 27602656.00 L 12242418.00 28023916.00  zM 7185036.58 27952763.12 m -421910.88 0 a 421910.88 421910.88 0 1 1 843821.76 0a 421910.88 421910.88 0 1 1 -843821.76 0M 7185035.62 29330723.46 m -421903.54 0 a 421903.54 421903.54 0 1 1 843807.09 0a 421903.54 421903.54 0 1 1 -843807.09 0M 9940942.58 27952763.12 m -421910.88 0 a 421910.88 421910.88 0 1 1 843821.76 0a 421910.88 421910.88 0 1 1 -843821.76 0M 9940941.62 29330723.46 m -421903.54 0 a 421903.54 421903.54 0 1 1 843807.09 0a 421903.54 421903.54 0 1 1 -843807.09 0M 13364217.00 24046218.00 L 13022399.00 24046218.00 L 13022399.00 23728698.00 L 13364217.00 23728698.00 L 13364217.00 24046218.00  zM 13364217.00 24539018.00 L 13022399.00 24539018.00 L 13022399.00 24221498.00 L 13364217.00 24221498.00 L 13364217.00 24539018.00  zM 12893701.00 27006199.00 L 12539371.00 27006199.00 L 12539371.00 26651869.00 L 12893701.00 26651869.00 L 12893701.00 27006199.00  zM 13641732.00 27006199.00 L 13287402.00 27006199.00 L 13287402.00 26651869.00 L 13641732.00 26651869.00 L 13641732.00 27006199.00  zM 13267716.00 27951081.00 L 12913386.00 27951081.00 L 12913386.00 27596751.00 L 13267716.00 27596751.00 L 13267716.00 27951081.00  zM 13809055.00 29212599.00 L 13356299.00 29212599.00 L 13356299.00 28818899.00 L 13809055.00 28818899.00 L 13809055.00 29212599.00  zM 12609210.00 29993744.00 L 12291690.00 29993744.00 L 12291690.00 29651926.00 L 12609210.00 29651926.00 L 12609210.00 29993744.00  zM 13102010.00 29993744.00 L 12784490.00 29993744.00 L 12784490.00 29651926.00 L 13102010.00 29651926.00 L 13102010.00 29993744.00  zM 13887797.00 23375983.00 L 13622049.00 23375983.00 L 13622049.00 23277559.00 L 13887797.00 23277559.00 L 13887797.00 23375983.00  zM 13887797.00 23572834.00 L 13622049.00 23572834.00 L 13622049.00 23474410.00 L 13887797.00 23474410.00 L 13887797.00 23572834.00  zM 13887797.00 23769684.00 L 13622049.00 23769684.00 L 13622049.00 23671260.00 L 13887797.00 23671260.00 L 13887797.00 23769684.00  zM 13887797.00 23966534.00 L 13622049.00 23966534.00 L 13622049.00 23868110.00 L 13887797.00 23868110.00 L 13887797.00 23966534.00  zM 13887797.00 24163385.00 L 13622049.00 24163385.00 L 13622049.00 24064961.00 L 13887797.00 24064961.00 L 13887797.00 24163385.00  zM 14124016.00 24251968.00 L 14025592.00 24251968.00 L 14025592.00 24025590.00 L 14124016.00 24025590.00 L 14124016.00 24251968.00  zM 14320867.00 24251968.00 L 14222443.00 24251968.00 L 14222443.00 24025590.00 L 14320867.00 24025590.00 L 14320867.00 24251968.00  zM 14517717.00 24251968.00 L 14419293.00 24251968.00 L 14419293.00 24025590.00 L 14517717.00 24025590.00 L 14517717.00 24251968.00  zM 14714568.00 24251968.00 L 14616144.00 24251968.00 L 14616144.00 24025590.00 L 14714568.00 24025590.00 L 14714568.00 24251968.00  zM 13955668.00 24804767.00 L 13638148.00 24804767.00 L 13638148.00 24462949.00 L 13955668.00 24462949.00 L 13955668.00 24804767.00  zM 14448468.00 24804767.00 L 14130948.00 24804767.00 L 14130948.00 24462949.00 L 14448468.00 24462949.00 L 14448468.00 24804767.00  zM 15014567.00 24960236.00 L 14620867.00 24960236.00 L 14620867.00 24507480.00 L 15014567.00 24507480.00 L 15014567.00 24960236.00  zM 14578446.00 27045569.00 L 14224116.00 27045569.00 L 14224116.00 26612499.00 L 14578446.00 26612499.00 L 14578446.00 27045569.00  zM 13809055.00 28661418.00 L 13356299.00 28661418.00 L 13356299.00 28267718.00 L 13809055.00 28267718.00 L 13809055.00 28661418.00  zM 14498031.00 28661417.00 L 14045275.00 28661417.00 L 14045275.00 28267717.00 L 14498031.00 28267717.00 L 14498031.00 28661417.00  zM 14498031.00 29212598.00 L 14045275.00 29212598.00 L 14045275.00 28818898.00 L 14498031.00 28818898.00 L 14498031.00 29212598.00  zM 14901574.00 30403543.00 L 14625984.00 30403543.00 L 14625984.00 29950787.00 L 14901574.00 29950787.00 L 14901574.00 30403543.00  zM 15118111.00 23375983.00 L 14852363.00 23375983.00 L 14852363.00 23277559.00 L 15118111.00 23277559.00 L 15118111.00 23375983.00  zM 15118111.00 23572834.00 L 14852363.00 23572834.00 L 14852363.00 23474410.00 L 15118111.00 23474410.00 L 15118111.00 23572834.00  zM 15118111.00 23966534.00 L 14852363.00 23966534.00 L 14852363.00 23868110.00 L 15118111.00 23868110.00 L 15118111.00 23966534.00  zM 15118111.00 23769684.00 L 14852363.00 23769684.00 L 14852363.00 23671260.00 L 15118111.00 23671260.00 L 15118111.00 23769684.00  zM 15914217.00 23696218.00 L 15572399.00 23696218.00 L 15572399.00 23378698.00 L 15914217.00 23378698.00 L 15914217.00 23696218.00  zM 15118111.00 24163385.00 L 14852363.00 24163385.00 L 14852363.00 24064961.00 L 15118111.00 24064961.00 L 15118111.00 24163385.00  zM 15914217.00 24189018.00 L 15572399.00 24189018.00 L 15572399.00 23871498.00 L 15914217.00 23871498.00 L 15914217.00 24189018.00  zM 15565748.00 24960236.00 L 15172048.00 24960236.00 L 15172048.00 24507480.00 L 15565748.00 24507480.00 L 15565748.00 24960236.00  zM 15168997.00 27045569.00 L 14814667.00 27045569.00 L 14814667.00 26612499.00 L 15168997.00 26612499.00 L 15168997.00 27045569.00  zM 17598425.00 25647931.00 L 16653543.00 25647931.00 L 16653543.00 24899901.00 L 17598425.00 24899901.00 L 17598425.00 25647931.00  zM 17598425.00 26789663.00 L 16653543.00 26789663.00 L 16653543.00 26041633.00 L 17598425.00 26041633.00 L 17598425.00 26789663.00  zM 16368110.00 28858267.00 L 15915354.00 28858267.00 L 15915354.00 28464567.00 L 16368110.00 28464567.00 L 16368110.00 28858267.00  zM 18405507.62 28051195.46 m -421903.54 0 a 421903.54 421903.54 0 1 1 843807.09 0a 421903.54 421903.54 0 1 1 -843807.09 0M 21998031.00 23509842.00 L 21348425.00 23509842.00 L 21348425.00 22860236.00 L 21998031.00 22860236.00 L 21998031.00 23509842.00  zM 18405508.58 26673235.12 m -421910.88 0 a 421910.88 421910.88 0 1 1 843821.76 0a 421910.88 421910.88 0 1 1 -843821.76 0M 21579724.00 27091536.00 L 20743110.00 27091536.00 L 20743110.00 26254922.00 L 21579724.00 26254922.00 L 21579724.00 27091536.00  zM 21161413.62 28051195.46 m -421903.54 0 a 421903.54 421903.54 0 1 1 843807.09 0a 421903.54 421903.54 0 1 1 -843807.09 0M 14989960.00 28848424.00 L 14783268.00 28848424.00 L 14783268.00 28651574.00 L 14989960.00 28651574.00 L 14989960.00 28848424.00  zM 14989960.00 29104330.00 L 14783268.00 29104330.00 L 14783268.00 28907480.00 L 14989960.00 28907480.00 L 14989960.00 29104330.00  zM 15423228.00 28828739.00 L 15088582.00 28828739.00 L 15088582.00 28671259.00 L 15423228.00 28671259.00 L 15423228.00 28828739.00  zM 15728542.00 28848424.00 L 15521850.00 28848424.00 L 15521850.00 28651574.00 L 15728542.00 28651574.00 L 15728542.00 28848424.00  zM 15728542.00 29104330.00 L 15521850.00 29104330.00 L 15521850.00 28907480.00 L 15728542.00 28907480.00 L 15728542.00 29104330.00  zM 14989960.00 29360236.00 L 14783268.00 29360236.00 L 14783268.00 29163386.00 L 14989960.00 29163386.00 L 14989960.00 29360236.00  zM 15501968.00 29340551.00 L 15009842.00 29340551.00 L 15009842.00 28927165.00 L 15501968.00 28927165.00 L 15501968.00 29340551.00  zM 15728542.00 29360236.00 L 15521850.00 29360236.00 L 15521850.00 29163386.00 L 15728542.00 29163386.00 L 15728542.00 29360236.00  zM 15893188.00 30180905.00 L 15493976.00 30180905.00 L 15493976.00 29661615.00 L 15893188.00 29661615.00 L 15893188.00 30180905.00  zM 16903192.00 28849368.00 L 16561374.00 28849368.00 L 16561374.00 28531848.00 L 16903192.00 28531848.00 L 16903192.00 28849368.00  zM 16903192.00 29342168.00 L 16561374.00 29342168.00 L 16561374.00 29024648.00 L 16903192.00 29024648.00 L 16903192.00 29342168.00  zM 16368110.00 29409448.00 L 15915354.00 29409448.00 L 15915354.00 29015748.00 L 16368110.00 29015748.00 L 16368110.00 29409448.00  zM 17183188.00 30180905.00 L 16783976.00 30180905.00 L 16783976.00 29661615.00 L 17183188.00 29661615.00 L 17183188.00 30180905.00  zM 17493743.00 28849368.00 L 17151925.00 28849368.00 L 17151925.00 28531848.00 L 17493743.00 28531848.00 L 17493743.00 28849368.00  zM 17493743.00 29342168.00 L 17151925.00 29342168.00 L 17151925.00 29024648.00 L 17493743.00 29024648.00 L 17493743.00 29342168.00  zM 18405508.58 29429141.12 m -421910.88 0 a 421910.88 421910.88 0 1 1 843821.76 0a 421910.88 421910.88 0 1 1 -843821.76 0M 21161414.58 29429141.12 m -421910.88 0 a 421910.88 421910.88 0 1 1 843821.76 0a 421910.88 421910.88 0 1 1 -843821.76 0M 7185035.62 30708675.46 m -421903.54 0 a 421903.54 421903.54 0 1 1 843807.09 0a 421903.54 421903.54 0 1 1 -843807.09 0M 7185036.58 32086621.12 m -421910.88 0 a 421910.88 421910.88 0 1 1 843821.76 0a 421910.88 421910.88 0 1 1 -843821.76 0M 9940941.62 30708675.46 m -421903.54 0 a 421903.54 421903.54 0 1 1 843807.09 0a 421903.54 421903.54 0 1 1 -843807.09 0M 9940942.58 32086621.12 m -421910.88 0 a 421910.88 421910.88 0 1 1 843821.76 0a 421910.88 421910.88 0 1 1 -843821.76 0M 11730610.38 31773323.09 m -140500.91 0 a 140500.91 140500.91 0 1 1 281001.82 0a 140500.91 140500.91 0 1 1 -281001.82 0M 12037401.00 30728346.00 L 11584645.00 30728346.00 L 11584645.00 30334646.00 L 12037401.00 30334646.00 L 12037401.00 30728346.00  zM 12037401.00 31279527.00 L 11584645.00 31279527.00 L 11584645.00 30885827.00 L 12037401.00 30885827.00 L 12037401.00 31279527.00  zM 12526535.00 31535197.00 L 12347165.00 31535197.00 L 12347165.00 31035827.00 L 12526535.00 31035827.00 L 12526535.00 31535197.00  zM 12618110.00 32116142.00 L 12224410.00 32116142.00 L 12224410.00 31663386.00 L 12618110.00 31663386.00 L 12618110.00 32116142.00  zM 12526535.00 30775197.00 L 12347165.00 30775197.00 L 12347165.00 30275827.00 L 12526535.00 30275827.00 L 12526535.00 30775197.00  zM 13046535.00 30775197.00 L 12867165.00 30775197.00 L 12867165.00 30275827.00 L 13046535.00 30275827.00 L 13046535.00 30775197.00  zM 14005905.00 30728347.00 L 13553149.00 30728347.00 L 13553149.00 30334647.00 L 14005905.00 30334647.00 L 14005905.00 30728347.00  zM 14005905.00 31279528.00 L 13553149.00 31279528.00 L 13553149.00 30885828.00 L 14005905.00 30885828.00 L 14005905.00 31279528.00  zM 12786535.00 31535197.00 L 12607165.00 31535197.00 L 12607165.00 31035827.00 L 12786535.00 31035827.00 L 12786535.00 31535197.00  zM 13046535.00 31535197.00 L 12867165.00 31535197.00 L 12867165.00 31035827.00 L 13046535.00 31035827.00 L 13046535.00 31535197.00  zM 13169291.00 32116142.00 L 12775591.00 32116142.00 L 12775591.00 31663386.00 L 13169291.00 31663386.00 L 13169291.00 32116142.00  zM 13779530.38 31773322.09 m -140500.91 0 a 140500.91 140500.91 0 1 1 281001.82 0a 140500.91 140500.91 0 1 1 -281001.82 0M 7603346.00 33882875.00 L 6766732.00 33882875.00 L 6766732.00 33046261.00 L 7603346.00 33046261.00 L 7603346.00 33882875.00  zM 9940941.62 33464581.46 m -421903.54 0 a 421903.54 421903.54 0 1 1 843807.09 0a 421903.54 421903.54 0 1 1 -843807.09 0M 11841792.00 34958523.00 L 11322422.00 34958523.00 L 11322422.00 34559153.00 L 11841792.00 34559153.00 L 11841792.00 34958523.00  zM 12401577.38 32619778.09 m -140500.91 0 a 140500.91 140500.91 0 1 1 281001.82 0a 140500.91 140500.91 0 1 1 -281001.82 0M 11841792.00 36248523.00 L 11322422.00 36248523.00 L 11322422.00 35849153.00 L 11841792.00 35849153.00 L 11841792.00 36248523.00  zM 12788349.00 35049960.00 L 12268979.00 35049960.00 L 12268979.00 34650590.00 L 12788349.00 34650590.00 L 12788349.00 35049960.00  zM 13799213.00 34781789.00 L 13366143.00 34781789.00 L 13366143.00 34427459.00 L 13799213.00 34427459.00 L 13799213.00 34781789.00  zM 12788349.00 36339960.00 L 12268979.00 36339960.00 L 12268979.00 35940590.00 L 12788349.00 35940590.00 L 12788349.00 36339960.00  zM 13799213.00 35372340.00 L 13366143.00 35372340.00 L 13366143.00 35018010.00 L 13799213.00 35018010.00 L 13799213.00 35372340.00  zM 13753587.00 36428107.00 L 13411769.00 36428107.00 L 13411769.00 36110587.00 L 13753587.00 36110587.00 L 13753587.00 36428107.00  zM 13753587.00 36920907.00 L 13411769.00 36920907.00 L 13411769.00 36603387.00 L 13753587.00 36603387.00 L 13753587.00 36920907.00  zM 11515750.38 36811018.09 m -140500.91 0 a 140500.91 140500.91 0 1 1 281001.82 0a 140500.91 140500.91 0 1 1 -281001.82 0M 10502756.00 41029528.00 L 9597244.00 41029528.00 L 9597244.00 39257874.00 L 10502756.00 39257874.00 L 10502756.00 41029528.00  zM 5511812.54 40157471.16 m -810999.84 0 a 810999.84 810999.84 0 1 1 1621999.67 0a 810999.84 810999.84 0 1 1 -1621999.67 0M 10049998.81 41816930.80 m -250882.20 0 a 250882.20 250882.20 0 1 1 501764.39 0a 250882.20 250882.20 0 1 1 -501764.39 0M 10050000.36 44750000.47 m -200706.53 0 a 200706.53 200706.53 0 1 1 401413.05 0a 200706.53 200706.53 0 1 1 -401413.05 0M 10502756.00 47486220.00 L 9597244.00 47486220.00 L 9597244.00 45714566.00 L 10502756.00 45714566.00 L 10502756.00 47486220.00  zM 14527558.00 31269685.00 L 14251968.00 31269685.00 L 14251968.00 30816929.00 L 14527558.00 30816929.00 L 14527558.00 31269685.00  zM 15275590.00 31269685.00 L 15000000.00 31269685.00 L 15000000.00 30816929.00 L 15275590.00 30816929.00 L 15275590.00 31269685.00  zM 16903193.00 30817872.00 L 16561375.00 30817872.00 L 16561375.00 30500352.00 L 16903193.00 30500352.00 L 16903193.00 30817872.00  zM 16903193.00 31310672.00 L 16561375.00 31310672.00 L 16561375.00 30993152.00 L 16903193.00 30993152.00 L 16903193.00 31310672.00  zM 14550985.00 34877931.00 L 14097835.00 34877931.00 L 14067853.00 34865512.00 L 14055434.00 34835530.00 L 14055434.00 34657972.00 L 14067853.00 34627990.00 L 14097835.00 34615571.00 L 14550985.00 34615571.00 L 14580967.00 34627990.00 L 14593386.00 34657972.00 L 14593386.00 34835530.00 L 14580967.00 34865512.00 L 14550985.00 34877931.00  zM 14550985.00 35377931.00 L 14097835.00 35377931.00 L 14067853.00 35365512.00 L 14055434.00 35335530.00 L 14055434.00 35157972.00 L 14067853.00 35127990.00 L 14097835.00 35115571.00 L 14550985.00 35115571.00 L 14580967.00 35127990.00 L 14593386.00 35157972.00 L 14593386.00 35335530.00 L 14580967.00 35365512.00 L 14550985.00 35377931.00  zM 14550985.00 35877931.00 L 14097835.00 35877931.00 L 14067853.00 35865512.00 L 14055434.00 35835530.00 L 14055434.00 35657972.00 L 14067853.00 35627990.00 L 14097835.00 35615571.00 L 14550985.00 35615571.00 L 14580967.00 35627990.00 L 14593386.00 35657972.00 L 14593386.00 35835530.00 L 14580967.00 35865512.00 L 14550985.00 35877931.00  zM 16617914.00 34877931.00 L 16164764.00 34877931.00 L 16134782.00 34865512.00 L 16122363.00 34835530.00 L 16122363.00 34657972.00 L 16134782.00 34627990.00 L 16164764.00 34615571.00 L 16617914.00 34615571.00 L 16647896.00 34627990.00 L 16660315.00 34657972.00 L 16660315.00 34835530.00 L 16647896.00 34865512.00 L 16617914.00 34877931.00  zM 16617914.00 35377931.00 L 16164764.00 35377931.00 L 16134782.00 35365512.00 L 16122363.00 35335530.00 L 16122363.00 35157972.00 L 16134782.00 35127990.00 L 16164764.00 35115571.00 L 16617914.00 35115571.00 L 16647896.00 35127990.00 L 16660315.00 35157972.00 L 16660315.00 35335530.00 L 16647896.00 35365512.00 L 16617914.00 35377931.00  zM 17493740.00 30817873.00 L 17151922.00 30817873.00 L 17151922.00 30500353.00 L 17493740.00 30500353.00 L 17493740.00 30817873.00  zM 18405508.58 30807093.12 m -421910.88 0 a 421910.88 421910.88 0 1 1 843821.76 0a 421910.88 421910.88 0 1 1 -843821.76 0M 17493740.00 31310673.00 L 17151922.00 31310673.00 L 17151922.00 30993153.00 L 17493740.00 30993153.00 L 17493740.00 31310673.00  zM 18405508.58 33562999.12 m -421910.88 0 a 421910.88 421910.88 0 1 1 843821.76 0a 421910.88 421910.88 0 1 1 -843821.76 0M 18405507.62 32185053.46 m -421903.54 0 a 421903.54 421903.54 0 1 1 843807.09 0a 421903.54 421903.54 0 1 1 -843807.09 0M 21161414.58 33562999.12 m -421910.88 0 a 421910.88 421910.88 0 1 1 843821.76 0a 421910.88 421910.88 0 1 1 -843821.76 0M 21161414.58 30807093.12 m -421910.88 0 a 421910.88 421910.88 0 1 1 843821.76 0a 421910.88 421910.88 0 1 1 -843821.76 0M 21161413.62 32185053.46 m -421903.54 0 a 421903.54 421903.54 0 1 1 843807.09 0a 421903.54 421903.54 0 1 1 -843807.09 0M 14550985.00 36377931.00 L 14097835.00 36377931.00 L 14067853.00 36365512.00 L 14055434.00 36335530.00 L 14055434.00 36157972.00 L 14067853.00 36127990.00 L 14097835.00 36115571.00 L 14550985.00 36115571.00 L 14580967.00 36127990.00 L 14593386.00 36157972.00 L 14593386.00 36335530.00 L 14580967.00 36365512.00 L 14550985.00 36377931.00  zM 14479289.00 38261460.00 L 14161769.00 38261460.00 L 14161769.00 37919642.00 L 14479289.00 37919642.00 L 14479289.00 38261460.00  zM 14972089.00 38261460.00 L 14654569.00 38261460.00 L 14654569.00 37919642.00 L 14972089.00 37919642.00 L 14972089.00 38261460.00  zM 16447793.00 38261460.00 L 16130273.00 38261460.00 L 16130273.00 37919642.00 L 16447793.00 37919642.00 L 16447793.00 38261460.00  zM 16617914.00 35877931.00 L 16164764.00 35877931.00 L 16134782.00 35865512.00 L 16122363.00 35835530.00 L 16122363.00 35657972.00 L 16134782.00 35627990.00 L 16164764.00 35615571.00 L 16617914.00 35615571.00 L 16647896.00 35627990.00 L 16660315.00 35657972.00 L 16660315.00 35835530.00 L 16647896.00 35865512.00 L 16617914.00 35877931.00  zM 17814963.38 35826766.09 m -140500.91 0 a 140500.91 140500.91 0 1 1 281001.82 0a 140500.91 140500.91 0 1 1 -281001.82 0M 16617914.00 36377931.00 L 16164764.00 36377931.00 L 16134782.00 36365512.00 L 16122363.00 36335530.00 L 16122363.00 36157972.00 L 16134782.00 36127990.00 L 16164764.00 36115571.00 L 16617914.00 36115571.00 L 16647896.00 36127990.00 L 16660315.00 36157972.00 L 16660315.00 36335530.00 L 16647896.00 36365512.00 L 16617914.00 36377931.00  zM 16940593.00 38261460.00 L 16623073.00 38261460.00 L 16623073.00 37919642.00 L 16940593.00 37919642.00 L 16940593.00 38261460.00  zM 14479289.00 40229964.00 L 14161769.00 40229964.00 L 14161769.00 39888146.00 L 14479289.00 39888146.00 L 14479289.00 40229964.00  zM 14972089.00 40229964.00 L 14654569.00 40229964.00 L 14654569.00 39888146.00 L 14972089.00 39888146.00 L 14972089.00 40229964.00  zM 14098422.02 41918903.86 m -496366.14 0 a 496366.14 496366.14 0 1 1 992732.28 0a 496366.14 496366.14 0 1 1 -992732.28 0M 14479289.00 46430752.00 L 14161769.00 46430752.00 L 14161769.00 46088934.00 L 14479289.00 46088934.00 L 14479289.00 46430752.00  zM 16447793.00 40229964.00 L 16130273.00 40229964.00 L 16130273.00 39888146.00 L 16447793.00 39888146.00 L 16447793.00 40229964.00  zM 14972089.00 46430752.00 L 14654569.00 46430752.00 L 14654569.00 46088934.00 L 14972089.00 46088934.00 L 14972089.00 46430752.00  zM 16940593.00 40229964.00 L 16623073.00 40229964.00 L 16623073.00 39888146.00 L 16940593.00 39888146.00 L 16940593.00 40229964.00  zM 22834647.54 40157471.16 m -810999.84 0 a 810999.84 810999.84 0 1 1 1621999.67 0a 810999.84 810999.84 0 1 1 -1621999.67 0"/>
</g>
</svg>
