<svg width="52.00000014mm" height="115.00000114mm" viewBox="0 0 20472441 45275591"  version="1.1" xmlns="http://www.w3.org/2000/svg" xmlns:xlink="http://www.w3.org/1999/xlink">
<desc>
Origin 0 0 Bound 3937008 3937008 20472441 45275591
</desc>
<g fill-rule="evenodd" fill="rgb(128, 0, 128)" stroke="black" stroke-width="1" transform="translate(0, 45275591) scale(1, -1) translate(-3937008, -3937008)">
<path id="N" d="M 23232179.00 49212597.00 A 1262634.71 1262634.71 0 0 0 24409447.00 48035329.00 L 24409447.00 5114274.00 A 1262502.26 1262502.26 0 0 0 23232179.00 3937007.00 L 5114275.00 3937009.00 A 1262557.60 1262557.60 0 0 0 3937009.00 5114275.00 L 3937007.00 48035329.00 A 1262634.71 1262634.71 0 0 0 5114275.00 49212597.00 L 23232179.00 49212597.00  zM 5511812.54 5511802.16 m -810999.84 0 a 810999.84 810999.84 0 1 1 1621999.67 0a 810999.84 810999.84 0 1 1 -1621999.67 0M 8772437.62 4872454.42 m -583503.58 0 a 583503.58 583503.58 0 1 1 1167007.17 0a 583503.58 583503.58 0 1 1 -1167007.17 0M 8772437.62 6900014.42 m -583503.58 0 a 583503.58 583503.58 0 1 1 1167007.17 0a 583503.58 583503.58 0 1 1 -1167007.17 0M 9786216.05 5886234.19 m -496358.81 0 a 496358.81 496358.81 0 1 1 992717.61 0a 496358.81 496358.81 0 1 1 -992717.61 0M 10866535.00 8831890.00 L 10433465.00 8831890.00 L 10433465.00 8477560.00 L 10866535.00 8477560.00 L 10866535.00 8831890.00  zM 10209056.00 8939763.00 L 9559450.00 8939763.00 L 9559450.00 8388583.00 L 10209056.00 8388583.00 L 10209056.00 8939763.00  zM 7079134.00 8939763.00 L 6429528.00 8939763.00 L 6429528.00 8388583.00 L 7079134.00 8388583.00 L 7079134.00 8939763.00  zM 7079134.00 10711417.00 L 6429528.00 10711417.00 L 6429528.00 10160237.00 L 7079134.00 10160237.00 L 7079134.00 10711417.00  zM 7079134.00 11639763.00 L 6429528.00 11639763.00 L 6429528.00 11088583.00 L 7079134.00 11088583.00 L 7079134.00 11639763.00  zM 10209056.00 10711417.00 L 9559450.00 10711417.00 L 9559450.00 10160237.00 L 10209056.00 10160237.00 L 10209056.00 10711417.00  zM 10209056.00 11639763.00 L 9559450.00 11639763.00 L 9559450.00 11088583.00 L 10209056.00 11088583.00 L 10209056.00 11639763.00  zM 10799997.62 4872454.42 m -583503.58 0 a 583503.58 583503.58 0 1 1 1167007.17 0a 583503.58 583503.58 0 1 1 -1167007.17 0M 10799997.62 6900014.42 m -583503.58 0 a 583503.58 583503.58 0 1 1 1167007.17 0a 583503.58 583503.58 0 1 1 -1167007.17 0M 10866535.00 9422441.00 L 10433465.00 9422441.00 L 10433465.00 9068111.00 L 10866535.00 9068111.00 L 10866535.00 9422441.00  zM 13200636.00 12063342.00 L 12762175.00 11624881.00 L 12873530.00 11513526.00 L 13311991.00 11951987.00 L 13200636.00 12063342.00  zM 13339831.00 11924147.00 L 12901370.00 11485686.00 L 13012725.00 11374331.00 L 13451186.00 11812792.00 L 13339831.00 11924147.00  zM 13479025.00 11784953.00 L 13040564.00 11346492.00 L 13151919.00 11235137.00 L 13590380.00 11673598.00 L 13479025.00 11784953.00  zM 11317178.00 12208880.00 L 11092658.00 11984360.00 L 11334360.00 11742658.00 L 11558880.00 11967178.00 L 11317178.00 12208880.00  zM 11665640.00 12557342.00 L 11441120.00 12332822.00 L 11682822.00 12091120.00 L 11907342.00 12315640.00 L 11665640.00 12557342.00  zM 12783054.00 12480925.00 L 12344593.00 12042464.00 L 12455948.00 11931109.00 L 12894409.00 12369570.00 L 12783054.00 12480925.00  zM 12922248.00 12341730.00 L 12483787.00 11903269.00 L 12595142.00 11791914.00 L 13033603.00 12230375.00 L 12922248.00 12341730.00  zM 13061442.00 12202536.00 L 12622981.00 11764075.00 L 12734336.00 11652720.00 L 13172797.00 12091181.00 L 13061442.00 12202536.00  zM 14870909.00 8862360.00 L 14529091.00 8862360.00 L 14529091.00 8544840.00 L 14870909.00 8544840.00 L 14870909.00 8862360.00  zM 15620909.00 8862360.00 L 15279091.00 8862360.00 L 15279091.00 8544840.00 L 15620909.00 8544840.00 L 15620909.00 8862360.00  zM 16421260.00 7676378.00 L 16027560.00 7676378.00 L 16027560.00 7223622.00 L 16421260.00 7223622.00 L 16421260.00 7676378.00  zM 15620909.00 9355160.00 L 15279091.00 9355160.00 L 15279091.00 9037640.00 L 15620909.00 9037640.00 L 15620909.00 9355160.00  zM 16170909.00 9355160.00 L 15829091.00 9355160.00 L 15829091.00 9037640.00 L 16170909.00 9037640.00 L 16170909.00 9355160.00  zM 16170909.00 8862360.00 L 15829091.00 8862360.00 L 15829091.00 8544840.00 L 16170909.00 8544840.00 L 16170909.00 8862360.00  zM 14870909.00 9355160.00 L 14529091.00 9355160.00 L 14529091.00 9037640.00 L 14870909.00 9037640.00 L 14870909.00 9355160.00  zM 15288550.00 9975428.00 L 14850089.00 9536967.00 L 14961444.00 9425612.00 L 15399905.00 9864073.00 L 15288550.00 9975428.00  zM 15149356.00 10114622.00 L 14710895.00 9676161.00 L 14822250.00 9564806.00 L 15260711.00 10003267.00 L 15149356.00 10114622.00  zM 15427745.00 9836233.00 L 14989284.00 9397772.00 L 15100639.00 9286417.00 L 15539100.00 9724878.00 L 15427745.00 9836233.00  zM 16068317.00 9836233.00 L 15956962.00 9724878.00 L 16395423.00 9286417.00 L 16506778.00 9397772.00 L 16068317.00 9836233.00  zM 14314191.00 10949787.00 L 13875730.00 10511326.00 L 13987085.00 10399971.00 L 14425546.00 10838432.00 L 14314191.00 10949787.00  zM 14453385.00 10810593.00 L 14014924.00 10372132.00 L 14126279.00 10260777.00 L 14564740.00 10699238.00 L 14453385.00 10810593.00  zM 14592579.00 10671399.00 L 14154118.00 10232938.00 L 14265473.00 10121583.00 L 14703934.00 10560044.00 L 14592579.00 10671399.00  zM 14870967.00 10393011.00 L 14432506.00 9954550.00 L 14543861.00 9843195.00 L 14982322.00 10281656.00 L 14870967.00 10393011.00  zM 15010162.00 10253816.00 L 14571701.00 9815355.00 L 14683056.00 9704000.00 L 15121517.00 10142461.00 L 15010162.00 10253816.00  zM 14731774.00 10532205.00 L 14293313.00 10093744.00 L 14404668.00 9982389.00 L 14843129.00 10420850.00 L 14731774.00 10532205.00  zM 14035802.00 11228176.00 L 13597341.00 10789715.00 L 13708696.00 10678360.00 L 14147157.00 11116821.00 L 14035802.00 11228176.00  zM 14174996.00 11088982.00 L 13736535.00 10650521.00 L 13847890.00 10539166.00 L 14286351.00 10977627.00 L 14174996.00 11088982.00  zM 13896608.00 11367371.00 L 13458147.00 10928910.00 L 13569502.00 10817555.00 L 14007963.00 11256016.00 L 13896608.00 11367371.00  zM 13618220.00 11645759.00 L 13179759.00 11207298.00 L 13291114.00 11095943.00 L 13729575.00 11534404.00 L 13618220.00 11645759.00  zM 13757414.00 11506565.00 L 13318953.00 11068104.00 L 13430308.00 10956749.00 L 13868769.00 11395210.00 L 13757414.00 11506565.00  zM 7079134.00 13411417.00 L 6429528.00 13411417.00 L 6429528.00 12860237.00 L 7079134.00 12860237.00 L 7079134.00 13411417.00  zM 8162360.00 13870909.00 L 7844840.00 13870909.00 L 7844840.00 13529091.00 L 8162360.00 13529091.00 L 8162360.00 13870909.00  zM 8655160.00 13870909.00 L 8337640.00 13870909.00 L 8337640.00 13529091.00 L 8655160.00 13529091.00 L 8655160.00 13870909.00  zM 8131890.00 14516535.00 L 7777560.00 14516535.00 L 7777560.00 14083465.00 L 8131890.00 14083465.00 L 8131890.00 14516535.00  zM 8722441.00 14516535.00 L 8368111.00 14516535.00 L 8368111.00 14083465.00 L 8722441.00 14083465.00 L 8722441.00 14516535.00  zM 6673227.86 16185040.28 m -327604.72 0 a 327604.72 327604.72 0 1 1 655209.45 0a 327604.72 327604.72 0 1 1 -655209.45 0M 10209056.00 13411417.00 L 9559450.00 13411417.00 L 9559450.00 12860237.00 L 10209056.00 12860237.00 L 10209056.00 13411417.00  zM 10967178.00 12558880.00 L 10742658.00 12334360.00 L 10984360.00 12092658.00 L 11208880.00 12317178.00 L 10967178.00 12558880.00  zM 11315640.00 12907342.00 L 11091120.00 12682822.00 L 11332822.00 12441120.00 L 11557342.00 12665640.00 L 11315640.00 12907342.00  zM 11091209.00 15912718.00 L 10837282.00 15658791.00 L 11104017.00 15392056.00 L 11357944.00 15645983.00 L 11091209.00 15912718.00  zM 11304017.00 17207944.00 L 11037282.00 16941209.00 L 11291209.00 16687282.00 L 11557944.00 16954017.00 L 11304017.00 17207944.00  zM 12226277.00 13037701.00 L 11787816.00 12599240.00 L 11899171.00 12487885.00 L 12337632.00 12926346.00 L 12226277.00 13037701.00  zM 12365471.00 12898507.00 L 11927010.00 12460046.00 L 12038365.00 12348691.00 L 12476826.00 12787152.00 L 12365471.00 12898507.00  zM 12504665.00 12759313.00 L 12066204.00 12320852.00 L 12177559.00 12209497.00 L 12616020.00 12647958.00 L 12504665.00 12759313.00  zM 12087082.00 13176896.00 L 11648621.00 12738435.00 L 11759976.00 12627080.00 L 12198437.00 13065541.00 L 12087082.00 13176896.00  zM 11759976.00 14144574.00 L 11648621.00 14033219.00 L 12087082.00 13594758.00 L 12198437.00 13706113.00 L 11759976.00 14144574.00  zM 11899171.00 14283769.00 L 11787816.00 14172414.00 L 12226277.00 13733953.00 L 12337632.00 13845308.00 L 11899171.00 14283769.00  zM 12038365.00 14422963.00 L 11927010.00 14311608.00 L 12365471.00 13873147.00 L 12476826.00 13984502.00 L 12038365.00 14422963.00  zM 11495983.00 15507944.00 L 11242056.00 15254017.00 L 11508791.00 14987282.00 L 11762718.00 15241209.00 L 11495983.00 15507944.00  zM 12044323.00 16132966.00 L 11654580.00 15743223.00 L 11988645.00 15409158.00 L 12378388.00 15798901.00 L 12044323.00 16132966.00  zM 11598901.00 16578388.00 L 11209158.00 16188645.00 L 11543223.00 15854580.00 L 11932966.00 16244323.00 L 11598901.00 16578388.00  zM 12211355.00 17190842.00 L 11821612.00 16801099.00 L 12155677.00 16467034.00 L 12545420.00 16856777.00 L 12211355.00 17190842.00  zM 12643860.00 12620118.00 L 12205399.00 12181657.00 L 12316754.00 12070302.00 L 12755215.00 12508763.00 L 12643860.00 12620118.00  zM 12177559.00 14562157.00 L 12066204.00 14450802.00 L 12504665.00 14012341.00 L 12616020.00 14123696.00 L 12177559.00 14562157.00  zM 12316754.00 14701352.00 L 12205399.00 14589997.00 L 12643860.00 14151536.00 L 12755215.00 14262891.00 L 12316754.00 14701352.00  zM 12455948.00 14840545.00 L 12344593.00 14729190.00 L 12783054.00 14290729.00 L 12894409.00 14402084.00 L 12455948.00 14840545.00  zM 12595142.00 14979740.00 L 12483787.00 14868385.00 L 12922248.00 14429924.00 L 13033603.00 14541279.00 L 12595142.00 14979740.00  zM 12734336.00 15118934.00 L 12622981.00 15007579.00 L 13061442.00 14569118.00 L 13172797.00 14680473.00 L 12734336.00 15118934.00  zM 12873530.00 15258128.00 L 12762175.00 15146773.00 L 13200636.00 14708312.00 L 13311991.00 14819667.00 L 12873530.00 15258128.00  zM 13012725.00 15397323.00 L 12901370.00 15285968.00 L 13339831.00 14847507.00 L 13451186.00 14958862.00 L 13012725.00 15397323.00  zM 13151919.00 15536517.00 L 13040564.00 15425162.00 L 13479025.00 14986701.00 L 13590380.00 15098056.00 L 13151919.00 15536517.00  zM 13291114.00 15675711.00 L 13179759.00 15564356.00 L 13618220.00 15125895.00 L 13729575.00 15237250.00 L 13291114.00 15675711.00  zM 13430308.00 15814905.00 L 13318953.00 15703550.00 L 13757414.00 15265089.00 L 13868769.00 15376444.00 L 13430308.00 15814905.00  zM 12656777.00 16745420.00 L 12267034.00 16355677.00 L 12601099.00 16021612.00 L 12990842.00 16411355.00 L 12656777.00 16745420.00  zM 13569502.00 15954099.00 L 13458147.00 15842744.00 L 13896608.00 15404283.00 L 14007963.00 15515638.00 L 13569502.00 15954099.00  zM 13708696.00 16093294.00 L 13597341.00 15981939.00 L 14035802.00 15543478.00 L 14147157.00 15654833.00 L 13708696.00 16093294.00  zM 13847890.00 16232488.00 L 13736535.00 16121133.00 L 14174996.00 15682672.00 L 14286351.00 15794027.00 L 13847890.00 16232488.00  zM 13987085.00 16371683.00 L 13875730.00 16260328.00 L 14314191.00 15821867.00 L 14425546.00 15933222.00 L 13987085.00 16371683.00  zM 14126279.00 16510877.00 L 14014924.00 16399522.00 L 14453385.00 15961061.00 L 14564740.00 16072416.00 L 14126279.00 16510877.00  zM 14265473.00 16650071.00 L 14154118.00 16538716.00 L 14592579.00 16100255.00 L 14703934.00 16211610.00 L 14265473.00 16650071.00  zM 14404668.00 16789265.00 L 14293313.00 16677910.00 L 14731774.00 16239449.00 L 14843129.00 16350804.00 L 14404668.00 16789265.00  zM 14543861.00 16928459.00 L 14432506.00 16817104.00 L 14870967.00 16378643.00 L 14982322.00 16489998.00 L 14543861.00 16928459.00  zM 14683056.00 17067654.00 L 14571701.00 16956299.00 L 15010162.00 16517838.00 L 15121517.00 16629193.00 L 14683056.00 17067654.00  zM 14822250.00 17206848.00 L 14710895.00 17095493.00 L 15149356.00 16657032.00 L 15260711.00 16768387.00 L 14822250.00 17206848.00  zM 16580404.00 5008268.00 L 16580404.00 4535826.00 A 220780.35 220780.35 0 0 1 17021958.00 4535826.00 L 17021958.00 5008268.00 A 220780.35 220780.35 0 0 1 16580404.00 5008268.00  zM 16580404.00 6575197.00 L 16580404.00 6260237.00 A 220780.35 220780.35 0 0 1 17021958.00 6260237.00 L 17021958.00 6575197.00 A 220780.35 220780.35 0 0 1 16580404.00 6575197.00  zM 18484252.00 6894094.00 L 18326772.00 6894094.00 L 18326772.00 6405906.00 L 18484252.00 6405906.00 L 18484252.00 6894094.00  zM 17893701.00 6894094.00 L 17736221.00 6894094.00 L 17736221.00 6405906.00 L 17893701.00 6405906.00 L 17893701.00 6894094.00  zM 18287401.00 6894094.00 L 18129921.00 6894094.00 L 18129921.00 6405906.00 L 18287401.00 6405906.00 L 18287401.00 6894094.00  zM 18681102.00 6894094.00 L 18523622.00 6894094.00 L 18523622.00 6405906.00 L 18681102.00 6405906.00 L 18681102.00 6894094.00  zM 17381890.00 6894094.00 L 17106299.00 6894094.00 L 17106299.00 6405906.00 L 17381890.00 6405906.00 L 17381890.00 6894094.00  zM 17696850.00 6894094.00 L 17421260.00 6894094.00 L 17421260.00 6405906.00 L 17696850.00 6405906.00 L 17696850.00 6894094.00  zM 18090551.00 6894094.00 L 17933071.00 6894094.00 L 17933071.00 6405906.00 L 18090551.00 6405906.00 L 18090551.00 6894094.00  zM 16972441.00 7676378.00 L 16578741.00 7676378.00 L 16578741.00 7223622.00 L 16972441.00 7223622.00 L 16972441.00 7676378.00  zM 16207512.00 9975428.00 L 16096157.00 9864073.00 L 16534618.00 9425612.00 L 16645973.00 9536967.00 L 16207512.00 9975428.00  zM 16346706.00 10114622.00 L 16235351.00 10003267.00 L 16673812.00 9564806.00 L 16785167.00 9676161.00 L 16346706.00 10114622.00  zM 16485900.00 10253816.00 L 16374545.00 10142461.00 L 16813006.00 9704000.00 L 16924361.00 9815355.00 L 16485900.00 10253816.00  zM 16625095.00 10393011.00 L 16513740.00 10281656.00 L 16952201.00 9843195.00 L 17063556.00 9954550.00 L 16625095.00 10393011.00  zM 16764288.00 10532205.00 L 16652933.00 10420850.00 L 17091394.00 9982389.00 L 17202749.00 10093744.00 L 16764288.00 10532205.00  zM 16903483.00 10671399.00 L 16792128.00 10560044.00 L 17230589.00 10121583.00 L 17341944.00 10232938.00 L 16903483.00 10671399.00  zM 17042677.00 10810593.00 L 16931322.00 10699238.00 L 17369783.00 10260777.00 L 17481138.00 10372132.00 L 17042677.00 10810593.00  zM 17181871.00 10949787.00 L 17070516.00 10838432.00 L 17508977.00 10399971.00 L 17620332.00 10511326.00 L 17181871.00 10949787.00  zM 17321066.00 11088982.00 L 17209711.00 10977627.00 L 17648172.00 10539166.00 L 17759527.00 10650521.00 L 17321066.00 11088982.00  zM 17460260.00 11228176.00 L 17348905.00 11116821.00 L 17787366.00 10678360.00 L 17898721.00 10789715.00 L 17460260.00 11228176.00  zM 17599454.00 11367371.00 L 17488099.00 11256016.00 L 17926560.00 10817555.00 L 18037915.00 10928910.00 L 17599454.00 11367371.00  zM 17738648.00 11506565.00 L 17627293.00 11395210.00 L 18065754.00 10956749.00 L 18177109.00 11068104.00 L 17738648.00 11506565.00  zM 19271653.00 6894094.00 L 19114173.00 6894094.00 L 19114173.00 6405906.00 L 19271653.00 6405906.00 L 19271653.00 6894094.00  zM 19586614.00 6894094.00 L 19311024.00 6894094.00 L 19311024.00 6405906.00 L 19586614.00 6405906.00 L 19586614.00 6894094.00  zM 19901575.00 6894094.00 L 19625984.00 6894094.00 L 19625984.00 6405906.00 L 19901575.00 6405906.00 L 19901575.00 6894094.00  zM 19980404.00 5008268.00 L 19980404.00 4535826.00 A 220780.35 220780.35 0 1 1 20421958.00 4535826.00 L 20421958.00 5008268.00 A 220780.35 220780.35 0 1 1 19980404.00 5008268.00  zM 19977048.00 6621976.00 L 19977048.00 6307016.00 A 220780.35 220780.35 0 0 1 20418602.00 6307016.00 L 20418602.00 6621976.00 A 220780.35 220780.35 0 1 1 19977048.00 6621976.00  zM 22834647.54 5511802.16 m -810999.84 0 a 810999.84 810999.84 0 1 1 1621999.67 0a 810999.84 810999.84 0 1 1 -1621999.67 0M 18877953.00 6894094.00 L 18720473.00 6894094.00 L 18720473.00 6405906.00 L 18877953.00 6405906.00 L 18877953.00 6894094.00  zM 19074803.00 6894094.00 L 18917323.00 6894094.00 L 18917323.00 6405906.00 L 19074803.00 6405906.00 L 19074803.00 6894094.00  zM 20972440.00 7676378.00 L 20578740.00 7676378.00 L 20578740.00 7223622.00 L 20972440.00 7223622.00 L 20972440.00 7676378.00  zM 20421259.00 7676378.00 L 20027559.00 7676378.00 L 20027559.00 7223622.00 L 20421259.00 7223622.00 L 20421259.00 7676378.00  zM 21671259.00 9476378.00 L 21277559.00 9476378.00 L 21277559.00 9023622.00 L 21671259.00 9023622.00 L 21671259.00 9476378.00  zM 20520909.00 9528534.00 L 20179091.00 9528534.00 L 20179091.00 9211014.00 L 20520909.00 9211014.00 L 20520909.00 9528534.00  zM 20520909.00 10021334.00 L 20179091.00 10021334.00 L 20179091.00 9703814.00 L 20520909.00 9703814.00 L 20520909.00 10021334.00  zM 20538626.00 10767727.00 L 20161374.00 10767727.00 L 20161374.00 10332273.00 L 20538626.00 10332273.00 L 20538626.00 10767727.00  zM 22222440.00 9476378.00 L 21828740.00 9476378.00 L 21828740.00 9023622.00 L 22222440.00 9023622.00 L 22222440.00 9476378.00  zM 21671259.00 10138878.00 L 21277559.00 10138878.00 L 21277559.00 9686122.00 L 21671259.00 9686122.00 L 21671259.00 10138878.00  zM 22222440.00 10138878.00 L 21828740.00 10138878.00 L 21828740.00 9686122.00 L 22222440.00 9686122.00 L 22222440.00 10138878.00  zM 20538626.00 11300075.00 L 20161374.00 11300075.00 L 20161374.00 10864621.00 L 20538626.00 10864621.00 L 20538626.00 11300075.00  zM 21671259.00 10801378.00 L 21277559.00 10801378.00 L 21277559.00 10348622.00 L 21671259.00 10348622.00 L 21671259.00 10801378.00  zM 21671259.00 11463878.00 L 21277559.00 11463878.00 L 21277559.00 11011122.00 L 21671259.00 11011122.00 L 21671259.00 11463878.00  zM 22222440.00 10801378.00 L 21828740.00 10801378.00 L 21828740.00 10348622.00 L 22222440.00 10348622.00 L 22222440.00 10801378.00  zM 22222440.00 11463878.00 L 21828740.00 11463878.00 L 21828740.00 11011122.00 L 22222440.00 11011122.00 L 22222440.00 11463878.00  zM 17877842.00 11645759.00 L 17766487.00 11534404.00 L 18204948.00 11095943.00 L 18316303.00 11207298.00 L 17877842.00 11645759.00  zM 18017037.00 11784953.00 L 17905682.00 11673598.00 L 18344143.00 11235137.00 L 18455498.00 11346492.00 L 18017037.00 11784953.00  zM 18156231.00 11924147.00 L 18044876.00 11812792.00 L 18483337.00 11374331.00 L 18594692.00 11485686.00 L 18156231.00 11924147.00  zM 18295426.00 12063342.00 L 18184071.00 11951987.00 L 18622532.00 11513526.00 L 18733887.00 11624881.00 L 18295426.00 12063342.00  zM 18434620.00 12202536.00 L 18323265.00 12091181.00 L 18761726.00 11652720.00 L 18873081.00 11764075.00 L 18434620.00 12202536.00  zM 18573814.00 12341730.00 L 18462459.00 12230375.00 L 18900920.00 11791914.00 L 19012275.00 11903269.00 L 18573814.00 12341730.00  zM 18713008.00 12480925.00 L 18601653.00 12369570.00 L 19040114.00 11931109.00 L 19151469.00 12042464.00 L 18713008.00 12480925.00  zM 18852202.00 12620118.00 L 18740847.00 12508763.00 L 19179308.00 12070302.00 L 19290663.00 12181657.00 L 18852202.00 12620118.00  zM 18991397.00 12759313.00 L 18880042.00 12647958.00 L 19318503.00 12209497.00 L 19429858.00 12320852.00 L 18991397.00 12759313.00  zM 19318503.00 14562157.00 L 18880042.00 14123696.00 L 18991397.00 14012341.00 L 19429858.00 14450802.00 L 19318503.00 14562157.00  zM 19457697.00 14422963.00 L 19019236.00 13984502.00 L 19130591.00 13873147.00 L 19569052.00 14311608.00 L 19457697.00 14422963.00  zM 19130591.00 12898507.00 L 19019236.00 12787152.00 L 19457697.00 12348691.00 L 19569052.00 12460046.00 L 19130591.00 12898507.00  zM 20062360.00 12320909.00 L 19744840.00 12320909.00 L 19744840.00 11979091.00 L 20062360.00 11979091.00 L 20062360.00 12320909.00  zM 19269785.00 13037701.00 L 19158430.00 12926346.00 L 19596891.00 12487885.00 L 19708246.00 12599240.00 L 19269785.00 13037701.00  zM 19408980.00 13176896.00 L 19297625.00 13065541.00 L 19736086.00 12627080.00 L 19847441.00 12738435.00 L 19408980.00 13176896.00  zM 19736086.00 14144574.00 L 19297625.00 13706113.00 L 19408980.00 13594758.00 L 19847441.00 14033219.00 L 19736086.00 14144574.00  zM 19596891.00 14283769.00 L 19158430.00 13845308.00 L 19269785.00 13733953.00 L 19708246.00 14172414.00 L 19596891.00 14283769.00  zM 20555160.00 12320909.00 L 20237640.00 12320909.00 L 20237640.00 11979091.00 L 20555160.00 11979091.00 L 20555160.00 12320909.00  zM 20312360.00 12920909.00 L 19994840.00 12920909.00 L 19994840.00 12579091.00 L 20312360.00 12579091.00 L 20312360.00 12920909.00  zM 20805160.00 12920909.00 L 20487640.00 12920909.00 L 20487640.00 12579091.00 L 20805160.00 12579091.00 L 20805160.00 12920909.00  zM 21671259.00 12126378.00 L 21277559.00 12126378.00 L 21277559.00 11673622.00 L 21671259.00 11673622.00 L 21671259.00 12126378.00  zM 22222440.00 12126378.00 L 21828740.00 12126378.00 L 21828740.00 11673622.00 L 22222440.00 11673622.00 L 22222440.00 12126378.00  zM 17926560.00 15954099.00 L 17488099.00 15515638.00 L 17599454.00 15404283.00 L 18037915.00 15842744.00 L 17926560.00 15954099.00  zM 17787366.00 16093294.00 L 17348905.00 15654833.00 L 17460260.00 15543478.00 L 17898721.00 15981939.00 L 17787366.00 16093294.00  zM 17648172.00 16232488.00 L 17209711.00 15794027.00 L 17321066.00 15682672.00 L 17759527.00 16121133.00 L 17648172.00 16232488.00  zM 17230589.00 16650071.00 L 16792128.00 16211610.00 L 16903483.00 16100255.00 L 17341944.00 16538716.00 L 17230589.00 16650071.00  zM 17369783.00 16510877.00 L 16931322.00 16072416.00 L 17042677.00 15961061.00 L 17481138.00 16399522.00 L 17369783.00 16510877.00  zM 17508977.00 16371683.00 L 17070516.00 15933222.00 L 17181871.00 15821867.00 L 17620332.00 16260328.00 L 17508977.00 16371683.00  zM 17091394.00 16789265.00 L 16652933.00 16350804.00 L 16764288.00 16239449.00 L 17202749.00 16677910.00 L 17091394.00 16789265.00  zM 16952201.00 16928459.00 L 16513740.00 16489998.00 L 16625095.00 16378643.00 L 17063556.00 16817104.00 L 16952201.00 16928459.00  zM 16813006.00 17067654.00 L 16374545.00 16629193.00 L 16485900.00 16517838.00 L 16924361.00 16956299.00 L 16813006.00 17067654.00  zM 16534618.00 17346042.00 L 16096157.00 16907581.00 L 16207512.00 16796226.00 L 16645973.00 17234687.00 L 16534618.00 17346042.00  zM 16673812.00 17206848.00 L 16235351.00 16768387.00 L 16346706.00 16657032.00 L 16785167.00 17095493.00 L 16673812.00 17206848.00  zM 18065754.00 15814905.00 L 17627293.00 15376444.00 L 17738648.00 15265089.00 L 18177109.00 15703550.00 L 18065754.00 15814905.00  zM 18204948.00 15675711.00 L 17766487.00 15237250.00 L 17877842.00 15125895.00 L 18316303.00 15564356.00 L 18204948.00 15675711.00  zM 18344143.00 15536517.00 L 17905682.00 15098056.00 L 18017037.00 14986701.00 L 18455498.00 15425162.00 L 18344143.00 15536517.00  zM 18483337.00 15397323.00 L 18044876.00 14958862.00 L 18156231.00 14847507.00 L 18594692.00 15285968.00 L 18483337.00 15397323.00  zM 18622532.00 15258128.00 L 18184071.00 14819667.00 L 18295426.00 14708312.00 L 18733887.00 15146773.00 L 18622532.00 15258128.00  zM 19040114.00 14840545.00 L 18601653.00 14402084.00 L 18713008.00 14290729.00 L 19151469.00 14729190.00 L 19040114.00 14840545.00  zM 18900920.00 14979740.00 L 18462459.00 14541279.00 L 18573814.00 14429924.00 L 19012275.00 14868385.00 L 18900920.00 14979740.00  zM 18761726.00 15118934.00 L 18323265.00 14680473.00 L 18434620.00 14569118.00 L 18873081.00 15007579.00 L 18761726.00 15118934.00  zM 19179308.00 14701352.00 L 18740847.00 14262891.00 L 18852202.00 14151536.00 L 19290663.00 14589997.00 L 19179308.00 14701352.00  zM 21673227.86 16185040.28 m -327604.72 0 a 327604.72 327604.72 0 1 1 655209.45 0a 327604.72 327604.72 0 1 1 -655209.45 0M 6673227.86 18185040.28 m -327604.72 0 a 327604.72 327604.72 0 1 1 655209.45 0a 327604.72 327604.72 0 1 1 -655209.45 0M 6673227.86 19185040.28 m -327604.72 0 a 327604.72 327604.72 0 1 1 655209.45 0a 327604.72 327604.72 0 1 1 -655209.45 0M 6673227.86 20185040.28 m -327604.72 0 a 327604.72 327604.72 0 1 1 655209.45 0a 327604.72 327604.72 0 1 1 -655209.45 0M 6673227.86 17185040.28 m -327604.72 0 a 327604.72 327604.72 0 1 1 655209.45 0a 327604.72 327604.72 0 1 1 -655209.45 0M 11708791.00 17612718.00 L 11442056.00 17345983.00 L 11695983.00 17092056.00 L 11962718.00 17358791.00 L 11708791.00 17612718.00  zM 12491209.00 18662718.00 L 12237282.00 18408791.00 L 12504017.00 18142056.00 L 12757944.00 18395983.00 L 12491209.00 18662718.00  zM 6673227.86 21185040.28 m -327604.72 0 a 327604.72 327604.72 0 1 1 655209.45 0a 327604.72 327604.72 0 1 1 -655209.45 0M 6673227.86 22185040.28 m -327604.72 0 a 327604.72 327604.72 0 1 1 655209.45 0a 327604.72 327604.72 0 1 1 -655209.45 0M 6998031.00 23509842.00 L 6348425.00 23509842.00 L 6348425.00 22860236.00 L 6998031.00 22860236.00 L 6998031.00 23509842.00  zM 8953934.17 20900009.88 m -307741.12 0 a 307741.12 307741.12 0 1 1 615482.25 0a 307741.12 307741.12 0 1 1 -615482.25 0M 11946060.17 20900009.88 m -307741.12 0 a 307741.12 307741.12 0 1 1 615482.25 0a 307741.12 307741.12 0 1 1 -615482.25 0M 13340659.00 17741757.00 L 13062271.00 17463369.00 L 13563369.00 16962271.00 L 13841757.00 17240659.00 L 13340659.00 17741757.00  zM 12895983.00 18257944.00 L 12642056.00 18004017.00 L 12908791.00 17737282.00 L 13162718.00 17991209.00 L 12895983.00 18257944.00  zM 13191209.00 19262718.00 L 12937282.00 19008791.00 L 13204017.00 18742056.00 L 13457944.00 18995983.00 L 13191209.00 19262718.00  zM 14036631.00 18437729.00 L 13758243.00 18159341.00 L 14259341.00 17658243.00 L 14537729.00 17936631.00 L 14036631.00 18437729.00  zM 14961444.00 17346042.00 L 14850089.00 17234687.00 L 15288550.00 16796226.00 L 15399905.00 16907581.00 L 14961444.00 17346042.00  zM 13595983.00 18857944.00 L 13342056.00 18604017.00 L 13608791.00 18337282.00 L 13862718.00 18591209.00 L 13595983.00 18857944.00  zM 15100639.00 17485237.00 L 14989284.00 17373882.00 L 15427745.00 16935421.00 L 15539100.00 17046776.00 L 15100639.00 17485237.00  zM 16017366.00 17628895.00 L 15675548.00 17628895.00 L 15675548.00 17311375.00 L 16017366.00 17311375.00 L 16017366.00 17628895.00  zM 16017366.00 18121695.00 L 15675548.00 18121695.00 L 15675548.00 17804175.00 L 16017366.00 17804175.00 L 16017366.00 18121695.00  zM 15684252.00 19072833.00 L 15231496.00 19072833.00 L 15231496.00 18679133.00 L 15684252.00 18679133.00 L 15684252.00 19072833.00  zM 15684252.00 19624014.00 L 15231496.00 19624014.00 L 15231496.00 19230314.00 L 15684252.00 19230314.00 L 15684252.00 19624014.00  zM 9173229.00 24931102.00 L 8779529.00 24931102.00 L 8779529.00 24478346.00 L 9173229.00 24478346.00 L 9173229.00 24931102.00  zM 8730315.00 25423228.00 L 8336615.00 25423228.00 L 8336615.00 24970472.00 L 8730315.00 24970472.00 L 8730315.00 25423228.00  zM 7185035.62 26574817.46 m -421903.54 0 a 421903.54 421903.54 0 1 1 843807.09 0a 421903.54 421903.54 0 1 1 -843807.09 0M 9724410.00 24931102.00 L 9330710.00 24931102.00 L 9330710.00 24478346.00 L 9724410.00 24478346.00 L 9724410.00 24931102.00  zM 9281496.00 25423228.00 L 8887796.00 25423228.00 L 8887796.00 24970472.00 L 9281496.00 24970472.00 L 9281496.00 25423228.00  zM 9940941.62 26574817.46 m -421903.54 0 a 421903.54 421903.54 0 1 1 843807.09 0a 421903.54 421903.54 0 1 1 -843807.09 0M 12106301.38 24821153.09 m -140500.91 0 a 140500.91 140500.91 0 1 1 281001.82 0a 140500.91 140500.91 0 1 1 -281001.82 0M 12332677.00 25708661.00 L 11879921.00 25708661.00 L 11879921.00 25314961.00 L 12332677.00 25314961.00 L 12332677.00 25708661.00  zM 13425196.00 25925196.00 L 12992126.00 25925196.00 L 12992126.00 25649606.00 L 13425196.00 25649606.00 L 13425196.00 25925196.00  zM 12332677.00 26259842.00 L 11879921.00 26259842.00 L 11879921.00 25866142.00 L 12332677.00 25866142.00 L 12332677.00 26259842.00  zM 13425196.00 26299212.00 L 12992126.00 26299212.00 L 12992126.00 26023622.00 L 13425196.00 26023622.00 L 13425196.00 26299212.00  zM 13425196.00 25551181.00 L 12992126.00 25551181.00 L 12992126.00 25275591.00 L 13425196.00 25275591.00 L 13425196.00 25551181.00  zM 14370078.00 25551181.00 L 13937008.00 25551181.00 L 13937008.00 25275591.00 L 14370078.00 25275591.00 L 14370078.00 25551181.00  zM 15088583.00 26259842.00 L 14635827.00 26259842.00 L 14635827.00 25866142.00 L 15088583.00 25866142.00 L 15088583.00 26259842.00  zM 14370078.00 26299212.00 L 13937008.00 26299212.00 L 13937008.00 26023622.00 L 14370078.00 26023622.00 L 14370078.00 26299212.00  zM 13627638.00 27635645.00 L 13309370.00 27635645.00 L 13274477.00 27621192.00 L 13260024.00 27586299.00 L 13260024.00 26941259.00 L 13274477.00 26906366.00 L 13309370.00 26891913.00 L 13627638.00 26891913.00 L 13662531.00 26906366.00 L 13676984.00 26941259.00 L 13676984.00 27586299.00 L 13662531.00 27621192.00 L 13627638.00 27635645.00  zM 14836103.00 27635986.00 L 14467047.00 27635986.00 L 14428990.00 27620222.00 L 14413226.00 27582165.00 L 14413226.00 26945393.00 L 14428990.00 26907336.00 L 14467047.00 26891572.00 L 14836103.00 26891572.00 L 14874160.00 26907336.00 L 14889924.00 26945393.00 L 14889924.00 27582165.00 L 14874160.00 27620222.00 L 14836103.00 27635986.00  zM 15088583.00 25708661.00 L 14635827.00 25708661.00 L 14635827.00 25314961.00 L 15088583.00 25314961.00 L 15088583.00 25708661.00  zM 15875984.00 25708660.00 L 15423228.00 25708660.00 L 15423228.00 25314960.00 L 15875984.00 25314960.00 L 15875984.00 25708660.00  zM 15875984.00 26259841.00 L 15423228.00 26259841.00 L 15423228.00 25866141.00 L 15875984.00 25866141.00 L 15875984.00 26259841.00  zM 15862205.00 26968503.00 L 15625985.00 26968503.00 L 15625985.00 26791339.00 L 15862205.00 26791339.00 L 15862205.00 26968503.00  zM 15862205.00 27224408.00 L 15625985.00 27224408.00 L 15625985.00 27047244.00 L 15862205.00 27047244.00 L 15862205.00 27224408.00  zM 16395423.00 17485237.00 L 15956962.00 17046776.00 L 16068317.00 16935421.00 L 16506778.00 17373882.00 L 16395423.00 17485237.00  zM 17561921.00 17951664.00 L 17443606.00 17833349.00 L 17554961.00 17721994.00 L 17673276.00 17840309.00 L 17561921.00 17951664.00  zM 17631517.00 18167416.00 L 17520162.00 18056061.00 L 17638477.00 17937746.00 L 17749832.00 18049101.00 L 17631517.00 18167416.00  zM 17701115.00 17812470.00 L 17582800.00 17694155.00 L 17694155.00 17582800.00 L 17812470.00 17701115.00 L 17701115.00 17812470.00  zM 17840309.00 17673276.00 L 17721994.00 17554961.00 L 17833349.00 17443606.00 L 17951664.00 17561921.00 L 17840309.00 17673276.00  zM 17770711.00 18306610.00 L 17659356.00 18195255.00 L 17777671.00 18076940.00 L 17889026.00 18188295.00 L 17770711.00 18306610.00  zM 16334252.00 19072833.00 L 15881496.00 19072833.00 L 15881496.00 18679133.00 L 16334252.00 18679133.00 L 16334252.00 19072833.00  zM 17789019.00 18809998.00 L 17447201.00 18809998.00 L 17447201.00 18492478.00 L 17789019.00 18492478.00 L 17789019.00 18809998.00  zM 17789019.00 19302798.00 L 17447201.00 19302798.00 L 17447201.00 18985278.00 L 17789019.00 18985278.00 L 17789019.00 19302798.00  zM 16334252.00 19624014.00 L 15881496.00 19624014.00 L 15881496.00 19230314.00 L 16334252.00 19230314.00 L 16334252.00 19624014.00  zM 16066929.00 21696850.00 L 15775591.00 21696850.00 L 15775591.00 20598426.00 L 16066929.00 20598426.00 L 16066929.00 21696850.00  zM 18049101.00 17749832.00 L 17937746.00 17638477.00 L 18056061.00 17520162.00 L 18167416.00 17631517.00 L 18049101.00 17749832.00  zM 18188295.00 17889026.00 L 18076940.00 17777671.00 L 18195255.00 17659356.00 L 18306610.00 17770711.00 L 18188295.00 17889026.00  zM 18132617.00 18243972.00 L 18014302.00 18125657.00 L 18125657.00 18014302.00 L 18243972.00 18132617.00 L 18132617.00 18243972.00  zM 17993423.00 18383166.00 L 17875108.00 18264851.00 L 17986463.00 18153496.00 L 18104778.00 18271811.00 L 17993423.00 18383166.00  zM 18281145.00 18809998.00 L 17939327.00 18809998.00 L 17939327.00 18492478.00 L 18281145.00 18492478.00 L 18281145.00 18809998.00  zM 18281145.00 19302798.00 L 17939327.00 19302798.00 L 17939327.00 18985278.00 L 18281145.00 18985278.00 L 18281145.00 19302798.00  zM 18271811.00 18104778.00 L 18153496.00 17986463.00 L 18264851.00 17875108.00 L 18383166.00 17993423.00 L 18271811.00 18104778.00  zM 21673227.86 19185040.28 m -327604.72 0 a 327604.72 327604.72 0 1 1 655209.45 0a 327604.72 327604.72 0 1 1 -655209.45 0M 21673227.86 17185040.28 m -327604.72 0 a 327604.72 327604.72 0 1 1 655209.45 0a 327604.72 327604.72 0 1 1 -655209.45 0M 21673227.86 18185040.28 m -327604.72 0 a 327604.72 327604.72 0 1 1 655209.45 0a 327604.72 327604.72 0 1 1 -655209.45 0M 21673227.86 20185040.28 m -327604.72 0 a 327604.72 327604.72 0 1 1 655209.45 0a 327604.72 327604.72 0 1 1 -655209.45 0M 16566929.00 21696850.00 L 16275591.00 21696850.00 L 16275591.00 20598426.00 L 16566929.00 20598426.00 L 16566929.00 21696850.00  zM 17066929.00 21696850.00 L 16775591.00 21696850.00 L 16775591.00 20598426.00 L 17066929.00 20598426.00 L 17066929.00 21696850.00  zM 17566929.00 21696850.00 L 17275591.00 21696850.00 L 17275591.00 20598426.00 L 17566929.00 20598426.00 L 17566929.00 21696850.00  zM 18066929.00 21696850.00 L 17775591.00 21696850.00 L 17775591.00 20598426.00 L 18066929.00 20598426.00 L 18066929.00 21696850.00  zM 18566929.00 21696850.00 L 18275591.00 21696850.00 L 18275591.00 20598426.00 L 18566929.00 20598426.00 L 18566929.00 21696850.00  zM 19066929.00 21696850.00 L 18775591.00 21696850.00 L 18775591.00 20598426.00 L 19066929.00 20598426.00 L 19066929.00 21696850.00  zM 20442914.00 21929134.00 L 20049214.00 21929134.00 L 20049214.00 21476378.00 L 20442914.00 21476378.00 L 20442914.00 21929134.00  zM 20994095.00 21929134.00 L 20600395.00 21929134.00 L 20600395.00 21476378.00 L 20994095.00 21476378.00 L 20994095.00 21929134.00  zM 21673227.86 21185040.28 m -327604.72 0 a 327604.72 327604.72 0 1 1 655209.45 0a 327604.72 327604.72 0 1 1 -655209.45 0M 20442914.00 22814961.00 L 20049214.00 22814961.00 L 20049214.00 22362205.00 L 20442914.00 22362205.00 L 20442914.00 22814961.00  zM 21673227.86 22185040.28 m -327604.72 0 a 327604.72 327604.72 0 1 1 655209.45 0a 327604.72 327604.72 0 1 1 -655209.45 0M 16566929.00 23299212.00 L 16275591.00 23299212.00 L 16275591.00 22200788.00 L 16566929.00 22200788.00 L 16566929.00 23299212.00  zM 17066929.00 23299212.00 L 16775591.00 23299212.00 L 16775591.00 22200788.00 L 17066929.00 22200788.00 L 17066929.00 23299212.00  zM 17566929.00 23299212.00 L 17275591.00 23299212.00 L 17275591.00 22200788.00 L 17566929.00 22200788.00 L 17566929.00 23299212.00  zM 16066929.00 23299212.00 L 15775591.00 23299212.00 L 15775591.00 22200788.00 L 16066929.00 22200788.00 L 16066929.00 23299212.00  zM 18066929.00 23299212.00 L 17775591.00 23299212.00 L 17775591.00 22200788.00 L 18066929.00 22200788.00 L 18066929.00 23299212.00  zM 18405508.58 26673235.12 m -421910.88 0 a 421910.88 421910.88 0 1 1 843821.76 0a 421910.88 421910.88 0 1 1 -843821.76 0M 18566929.00 23299212.00 L 18275591.00 23299212.00 L 18275591.00 22200788.00 L 18566929.00 22200788.00 L 18566929.00 23299212.00  zM 19066929.00 23299212.00 L 18775591.00 23299212.00 L 18775591.00 22200788.00 L 19066929.00 22200788.00 L 19066929.00 23299212.00  zM 20994095.00 22814961.00 L 20600395.00 22814961.00 L 20600395.00 22362205.00 L 20994095.00 22362205.00 L 20994095.00 22814961.00  zM 21998031.00 23509842.00 L 21348425.00 23509842.00 L 21348425.00 22860236.00 L 21998031.00 22860236.00 L 21998031.00 23509842.00  zM 21579724.00 27091536.00 L 20743110.00 27091536.00 L 20743110.00 26254922.00 L 21579724.00 26254922.00 L 21579724.00 27091536.00  zM 7185036.58 27952763.12 m -421910.88 0 a 421910.88 421910.88 0 1 1 843821.76 0a 421910.88 421910.88 0 1 1 -843821.76 0M 7185035.62 29330723.46 m -421903.54 0 a 421903.54 421903.54 0 1 1 843807.09 0a 421903.54 421903.54 0 1 1 -843807.09 0M 7185035.62 30708675.46 m -421903.54 0 a 421903.54 421903.54 0 1 1 843807.09 0a 421903.54 421903.54 0 1 1 -843807.09 0M 9940942.58 27952763.12 m -421910.88 0 a 421910.88 421910.88 0 1 1 843821.76 0a 421910.88 421910.88 0 1 1 -843821.76 0M 9940941.62 29330723.46 m -421903.54 0 a 421903.54 421903.54 0 1 1 843807.09 0a 421903.54 421903.54 0 1 1 -843807.09 0M 9940941.62 30708675.46 m -421903.54 0 a 421903.54 421903.54 0 1 1 843807.09 0a 421903.54 421903.54 0 1 1 -843807.09 0M 7185036.58 32086621.12 m -421910.88 0 a 421910.88 421910.88 0 1 1 843821.76 0a 421910.88 421910.88 0 1 1 -843821.76 0M 7603346.00 33882875.00 L 6766732.00 33882875.00 L 6766732.00 33046261.00 L 7603346.00 33046261.00 L 7603346.00 33882875.00  zM 9940942.58 32086621.12 m -421910.88 0 a 421910.88 421910.88 0 1 1 843821.76 0a 421910.88 421910.88 0 1 1 -843821.76 0M 12288281.00 31279528.00 L 11835525.00 31279528.00 L 11835525.00 30885828.00 L 12288281.00 30885828.00 L 12288281.00 31279528.00  zM 9940941.62 33464581.46 m -421903.54 0 a 421903.54 421903.54 0 1 1 843807.09 0a 421903.54 421903.54 0 1 1 -843807.09 0M 12504833.38 29768449.09 m -140500.91 0 a 140500.91 140500.91 0 1 1 281001.82 0a 140500.91 140500.91 0 1 1 -281001.82 0M 14232283.00 28996061.00 L 13917323.00 28996061.00 L 13917323.00 28681101.00 L 14232283.00 28681101.00 L 14232283.00 28996061.00  zM 14232283.00 28405510.00 L 13917323.00 28405510.00 L 13917323.00 28090550.00 L 14232283.00 28090550.00 L 14232283.00 28405510.00  zM 12288281.00 30728347.00 L 11835525.00 30728347.00 L 11835525.00 30334647.00 L 12288281.00 30334647.00 L 12288281.00 30728347.00  zM 13097042.00 30551181.00 L 12663972.00 30551181.00 L 12663972.00 30275591.00 L 13097042.00 30275591.00 L 13097042.00 30551181.00  zM 14041924.00 30551181.00 L 13608854.00 30551181.00 L 13608854.00 30275591.00 L 14041924.00 30275591.00 L 14041924.00 30551181.00  zM 13097042.00 30925196.00 L 12663972.00 30925196.00 L 12663972.00 30649606.00 L 13097042.00 30649606.00 L 13097042.00 30925196.00  zM 14041924.00 31299212.00 L 13608854.00 31299212.00 L 13608854.00 31023622.00 L 14041924.00 31023622.00 L 14041924.00 31299212.00  zM 14870371.00 30728347.00 L 14417615.00 30728347.00 L 14417615.00 30334647.00 L 14870371.00 30334647.00 L 14870371.00 30728347.00  zM 13097042.00 31299212.00 L 12663972.00 31299212.00 L 12663972.00 31023622.00 L 13097042.00 31023622.00 L 13097042.00 31299212.00  zM 13627637.00 32753756.00 L 13309369.00 32753756.00 L 13274476.00 32739303.00 L 13260023.00 32704410.00 L 13260023.00 32059370.00 L 13274476.00 32024477.00 L 13309369.00 32010024.00 L 13627637.00 32010024.00 L 13662530.00 32024477.00 L 13676983.00 32059370.00 L 13676983.00 32704410.00 L 13662530.00 32739303.00 L 13627637.00 32753756.00  zM 15862205.00 27736219.00 L 15625985.00 27736219.00 L 15625985.00 27559055.00 L 15862205.00 27559055.00 L 15862205.00 27736219.00  zM 15482283.00 28464565.00 L 15029527.00 28464565.00 L 15029527.00 28070865.00 L 15482283.00 28070865.00 L 15482283.00 28464565.00  zM 15482283.00 29015746.00 L 15029527.00 29015746.00 L 15029527.00 28622046.00 L 15482283.00 28622046.00 L 15482283.00 29015746.00  zM 14870371.00 31279528.00 L 14417615.00 31279528.00 L 14417615.00 30885828.00 L 14870371.00 30885828.00 L 14870371.00 31279528.00  zM 15875983.00 30858853.00 L 15423227.00 30858853.00 L 15423227.00 30465153.00 L 15875983.00 30465153.00 L 15875983.00 30858853.00  zM 15875983.00 30307672.00 L 15423227.00 30307672.00 L 15423227.00 29913972.00 L 15875983.00 29913972.00 L 15875983.00 30307672.00  zM 14836102.00 32754097.00 L 14467046.00 32754097.00 L 14428989.00 32738333.00 L 14413225.00 32700276.00 L 14413225.00 32063504.00 L 14428989.00 32025447.00 L 14467046.00 32009683.00 L 14836102.00 32009683.00 L 14874159.00 32025447.00 L 14889923.00 32063504.00 L 14889923.00 32700276.00 L 14874159.00 32738333.00 L 14836102.00 32754097.00  zM 15797243.00 32407773.00 L 15561023.00 32407773.00 L 15561023.00 32230609.00 L 15797243.00 32230609.00 L 15797243.00 32407773.00  zM 15797243.00 32151867.00 L 15561023.00 32151867.00 L 15561023.00 31974703.00 L 15797243.00 31974703.00 L 15797243.00 32151867.00  zM 15797243.00 31895962.00 L 15561023.00 31895962.00 L 15561023.00 31718798.00 L 15797243.00 31718798.00 L 15797243.00 31895962.00  zM 15797243.00 32663678.00 L 15561023.00 32663678.00 L 15561023.00 32486514.00 L 15797243.00 32486514.00 L 15797243.00 32663678.00  zM 15862205.00 27480314.00 L 15625985.00 27480314.00 L 15625985.00 27303150.00 L 15862205.00 27303150.00 L 15862205.00 27480314.00  zM 16399606.00 27915354.00 L 16190946.00 27915354.00 L 16190946.00 27765747.00 L 16027559.00 27765747.00 L 16027559.00 26761811.00 L 16190946.00 26761811.00 L 16190946.00 26612204.00 L 16399606.00 26612204.00 L 16399606.00 26761811.00 L 16846457.00 26761811.00 L 16846457.00 26781496.00 L 16964567.00 26781496.00 L 16964567.00 26978346.00 L 16846457.00 26978346.00 L 16846457.00 27037401.00 L 16964567.00 27037401.00 L 16964567.00 27234251.00 L 16846457.00 27234251.00 L 16846457.00 27293307.00 L 16964567.00 27293307.00 L 16964567.00 27490157.00 L 16846457.00 27490157.00 L 16846457.00 27549212.00 L 16964567.00 27549212.00 L 16964567.00 27746062.00 L 16846457.00 27746062.00 L 16846457.00 27765747.00 L 16399606.00 27765747.00 L 16399606.00 27915354.00  zM 18405507.62 28051195.46 m -421903.54 0 a 421903.54 421903.54 0 1 1 843807.09 0a 421903.54 421903.54 0 1 1 -843807.09 0M 18405508.58 29429141.12 m -421910.88 0 a 421910.88 421910.88 0 1 1 843821.76 0a 421910.88 421910.88 0 1 1 -843821.76 0M 21161413.62 28051195.46 m -421903.54 0 a 421903.54 421903.54 0 1 1 843807.09 0a 421903.54 421903.54 0 1 1 -843807.09 0M 21161414.58 29429141.12 m -421910.88 0 a 421910.88 421910.88 0 1 1 843821.76 0a 421910.88 421910.88 0 1 1 -843821.76 0M 16334644.00 32842813.00 L 16125984.00 32842813.00 L 16125984.00 32693206.00 L 15962597.00 32693206.00 L 15962597.00 31689270.00 L 16125984.00 31689270.00 L 16125984.00 31539663.00 L 16334644.00 31539663.00 L 16334644.00 31689270.00 L 16781495.00 31689270.00 L 16781495.00 31708955.00 L 16899605.00 31708955.00 L 16899605.00 31905805.00 L 16781495.00 31905805.00 L 16781495.00 31964860.00 L 16899605.00 31964860.00 L 16899605.00 32161710.00 L 16781495.00 32161710.00 L 16781495.00 32220766.00 L 16899605.00 32220766.00 L 16899605.00 32417616.00 L 16781495.00 32417616.00 L 16781495.00 32476671.00 L 16899605.00 32476671.00 L 16899605.00 32673521.00 L 16781495.00 32673521.00 L 16781495.00 32693206.00 L 16334644.00 32693206.00 L 16334644.00 32842813.00  zM 18405507.62 32185053.46 m -421903.54 0 a 421903.54 421903.54 0 1 1 843807.09 0a 421903.54 421903.54 0 1 1 -843807.09 0M 18405508.58 30807093.12 m -421910.88 0 a 421910.88 421910.88 0 1 1 843821.76 0a 421910.88 421910.88 0 1 1 -843821.76 0M 21161414.58 30807093.12 m -421910.88 0 a 421910.88 421910.88 0 1 1 843821.76 0a 421910.88 421910.88 0 1 1 -843821.76 0M 21161413.62 32185053.46 m -421903.54 0 a 421903.54 421903.54 0 1 1 843807.09 0a 421903.54 421903.54 0 1 1 -843807.09 0M 5511812.54 40157471.16 m -810999.84 0 a 810999.84 810999.84 0 1 1 1621999.67 0a 810999.84 810999.84 0 1 1 -1621999.67 0M 10049998.81 41816930.80 m -250882.20 0 a 250882.20 250882.20 0 1 1 501764.39 0a 250882.20 250882.20 0 1 1 -501764.39 0M 11838278.00 39370079.00 L 11838278.00 38779527.00 A 220780.35 220780.35 0 1 1 12279832.00 38779527.00 L 12279832.00 39370079.00 A 220780.35 220780.35 0 1 1 11838278.00 39370079.00  zM 12838278.00 39370079.00 L 12838278.00 38779527.00 A 220780.35 220780.35 0 1 1 13279832.00 38779527.00 L 13279832.00 39370079.00 A 220780.35 220780.35 0 1 1 12838278.00 39370079.00  zM 13838278.00 39370079.00 L 13838278.00 38779527.00 A 220780.35 220780.35 0 1 1 14279832.00 38779527.00 L 14279832.00 39370079.00 A 220780.35 220780.35 0 1 1 13838278.00 39370079.00  zM 14098422.02 41918903.86 m -496366.14 0 a 496366.14 496366.14 0 1 1 992732.28 0a 496366.14 496366.14 0 1 1 -992732.28 0M 15264073.00 33986221.00 L 14870373.00 33986221.00 L 14870373.00 33533465.00 L 15264073.00 33533465.00 L 15264073.00 33986221.00  zM 15815254.00 33986221.00 L 15421554.00 33986221.00 L 15421554.00 33533465.00 L 15815254.00 33533465.00 L 15815254.00 33986221.00  zM 16496062.00 34015748.00 L 16181102.00 34015748.00 L 16181102.00 33700788.00 L 16496062.00 33700788.00 L 16496062.00 34015748.00  zM 14838278.00 39370079.00 L 14838278.00 38779527.00 A 220780.35 220780.35 0 1 1 15279832.00 38779527.00 L 15279832.00 39370079.00 A 220780.35 220780.35 0 1 1 14838278.00 39370079.00  zM 15838278.00 39370079.00 L 15838278.00 38779527.00 A 220780.35 220780.35 0 1 1 16279832.00 38779527.00 L 16279832.00 39370079.00 A 220780.35 220780.35 0 1 1 15838278.00 39370079.00  zM 17086613.00 34015748.00 L 16771653.00 34015748.00 L 16771653.00 33700788.00 L 17086613.00 33700788.00 L 17086613.00 34015748.00  zM 18405508.58 33562999.12 m -421910.88 0 a 421910.88 421910.88 0 1 1 843821.76 0a 421910.88 421910.88 0 1 1 -843821.76 0M 21161414.58 33562999.12 m -421910.88 0 a 421910.88 421910.88 0 1 1 843821.76 0a 421910.88 421910.88 0 1 1 -843821.76 0M 16838278.00 39370079.00 L 16838278.00 38779527.00 A 220780.35 220780.35 0 1 1 17279832.00 38779527.00 L 17279832.00 39370079.00 A 220780.35 220780.35 0 1 1 16838278.00 39370079.00  zM 22938189.00 43140945.00 L 22623229.00 43140945.00 L 22623229.00 42825985.00 L 22938189.00 42825985.00 L 22938189.00 43140945.00  zM 22834647.54 40157471.16 m -810999.84 0 a 810999.84 810999.84 0 1 1 1621999.67 0a 810999.84 810999.84 0 1 1 -1621999.67 0M 22938189.00 43574015.00 L 22623229.00 43574015.00 L 22623229.00 43259055.00 L 22938189.00 43259055.00 L 22938189.00 43574015.00  zM 23658661.00 43574015.00 L 23343701.00 43574015.00 L 23343701.00 43259055.00 L 23658661.00 43259055.00 L 23658661.00 43574015.00  zM 23658661.00 43140945.00 L 23343701.00 43140945.00 L 23343701.00 42825985.00 L 23658661.00 42825985.00 L 23658661.00 43140945.00  zM 22938189.00 44157611.00 L 22623229.00 44157611.00 L 22623229.00 43842651.00 L 22938189.00 43842651.00 L 22938189.00 44157611.00  zM 23658661.00 44157611.00 L 23343701.00 44157611.00 L 23343701.00 43842651.00 L 23658661.00 43842651.00 L 23658661.00 44157611.00  zM 10050000.36 44750000.47 m -200706.53 0 a 200706.53 200706.53 0 1 1 401413.05 0a 200706.53 200706.53 0 1 1 -401413.05 0M 11838278.00 45472441.00 L 11838278.00 44881889.00 A 220780.35 220780.35 0 0 1 12279832.00 44881889.00 L 12279832.00 45472441.00 A 220780.35 220780.35 0 0 1 11838278.00 45472441.00  zM 12838278.00 45472441.00 L 12838278.00 44881889.00 A 220780.35 220780.35 0 0 1 13279832.00 44881889.00 L 13279832.00 45472441.00 A 220780.35 220780.35 0 0 1 12838278.00 45472441.00  zM 13838278.00 45472441.00 L 13838278.00 44881889.00 A 220780.35 220780.35 0 0 1 14279832.00 44881889.00 L 14279832.00 45472441.00 A 220780.35 220780.35 0 0 1 13838278.00 45472441.00  zM 14838278.00 45472441.00 L 14838278.00 44881889.00 A 220780.35 220780.35 0 0 1 15279832.00 44881889.00 L 15279832.00 45472441.00 A 220780.35 220780.35 0 0 1 14838278.00 45472441.00  zM 15838278.00 45472441.00 L 15838278.00 44881889.00 A 220780.35 220780.35 0 0 1 16279832.00 44881889.00 L 16279832.00 45472441.00 A 220780.35 220780.35 0 0 1 15838278.00 45472441.00  zM 16838278.00 45472441.00 L 16838278.00 44881889.00 A 220780.35 220780.35 0 0 1 17279832.00 44881889.00 L 17279832.00 45472441.00 A 220780.35 220780.35 0 0 1 16838278.00 45472441.00  zM 22938189.00 46624013.00 L 22623229.00 46624013.00 L 22623229.00 46309053.00 L 22938189.00 46309053.00 L 22938189.00 46624013.00  zM 22938189.00 46190943.00 L 22623229.00 46190943.00 L 22623229.00 45875983.00 L 22938189.00 45875983.00 L 22938189.00 46190943.00  zM 22938189.00 45174277.00 L 22623229.00 45174277.00 L 22623229.00 44859317.00 L 22938189.00 44859317.00 L 22938189.00 45174277.00  zM 22938189.00 45607347.00 L 22623229.00 45607347.00 L 22623229.00 45292387.00 L 22938189.00 45292387.00 L 22938189.00 45607347.00  zM 22938189.00 44590681.00 L 22623229.00 44590681.00 L 22623229.00 44275721.00 L 22938189.00 44275721.00 L 22938189.00 44590681.00  zM 23658661.00 44590681.00 L 23343701.00 44590681.00 L 23343701.00 44275721.00 L 23658661.00 44275721.00 L 23658661.00 44590681.00  zM 23658661.00 45174277.00 L 23343701.00 45174277.00 L 23343701.00 44859317.00 L 23658661.00 44859317.00 L 23658661.00 45174277.00  zM 23658661.00 45607347.00 L 23343701.00 45607347.00 L 23343701.00 45292387.00 L 23658661.00 45292387.00 L 23658661.00 45607347.00  zM 23658661.00 46190943.00 L 23343701.00 46190943.00 L 23343701.00 45875983.00 L 23658661.00 45875983.00 L 23658661.00 46190943.00  zM 23658661.00 46624013.00 L 23343701.00 46624013.00 L 23343701.00 46309053.00 L 23658661.00 46309053.00 L 23658661.00 46624013.00  zM 23582677.00 47303149.00 L 23267717.00 47303149.00 L 23267717.00 46988189.00 L 23582677.00 46988189.00 L 23582677.00 47303149.00  zM 22992126.00 47303149.00 L 22677166.00 47303149.00 L 22677166.00 46988189.00 L 22992126.00 46988189.00 L 22992126.00 47303149.00  zM 23032333.00 48004357.00 L 22742947.00 48004357.00 L 22742947.00 47664935.00 L 23032333.00 47664935.00 L 23032333.00 48004357.00  zM 23516895.00 48004357.00 L 23227509.00 48004357.00 L 23227509.00 47664935.00 L 23516895.00 47664935.00 L 23516895.00 48004357.00  z"/>
</g>
</svg>
