**ABCDEFGHIJKLMNOPQRSTUVWXYZabcdefghijklmnopqrstuvwxyz**************************
**PARASOLID !"#$%&'()*+,-./:;<=>?@[\]^_`{|}~0123456789**************************
**PART1;
MC=AMD64;
MC_MODEL=AMD64 Family 23 Model 1 Stepping 2, AuthenticAMD;
MC_ID=unknown;
OS=Windows_NT;
OS_RELEASE=unknown;
FRU=CAD Exchanger 3.23.0 (cadexchanger.com);
APPL=unknown;
SITE=unknown;
USER=unknown;
FORMAT=text;
GUISE=transmit;
KEY=CAPR51-254-508X318X736_CMP-001-02166-1;
FILE=CAPR51-254-508X318X736_CMP-001-02166-1.x_t;
DATE=Thu Feb  8 22:35:04 2024;
**PART2;
SCH=SCH_1200000_12103;
USFLD_SIZE=0;
**PART3;
**END_OF_HEADER*****************************************************************
T51 : TRANSMIT FILE created by modeller version 120000017 SCH_1200000_121030 74
 3 1 3 0 2 42 80 12 2 26 0 3 0 0 0 0 1000.0 1.0e-08 0 0 0 1 0 1 1 12 14 20 18 9
 19 17 70 3 0 2 0 0 4 1 20 0 4 4 1 T74 20 4 1 0 5 0 0 0 0 0 0 0 0 0 0 0 0 0 0 0
 0 0 0 0 81 1 5 7 6 13 0 0 34 0 8 80 1 6 0 7 8001 0 0 0 0 3 5 0 0 0 FFFFTFTFFFFF
FF2 79 15 7 SDL/TYSA_COLOUR83 3 8 1.0 1.0 0.501960813999176 19 9 1 0 2 11 0 10 V
13 10 2 0 2 0 0 0 0 9 13 19 11 3 0 2 0 9 12 S13 12 4 0 2 0 13 0 0 11 0 14 13 5 5
 1.0e-08 32 0 15 12 14 +0 0 32 0 10 51 14 6 0 13 33 0 0 +0.00127008128 1.2192000
00001225e-07 -5.81279e-04 0.0 1.224646799147353e-16 1.0 2.999994000000001e-04 1.
0 0.0 0.0 15 15 8 0 16 13 0 17 16 0 15 22 27 17 21 19 0 21 +18 17 9 0 16 0 23 18
 ?2 29 18 10 0 17 24 0 0.00157008068 1.219200000001225e-07 -5.81279e-04 16 19 11
 0 ?16 0 25 20 0 0 2 31 20 12 0 19 26 0 0 +0.00127008128 1.219200000001225e-07 -
5.81279e-04 0.0 -1.224646799147353e-16 -1.0 1.0 0.0 0.0 2.999994000000001e-04 17
 21 0 36 21 21 17 16 19 0 27 -17 22 0 15 28 16 23 27 25 0 31 +18 23 13 0 22 17 0
 24 ?2 29 24 14 0 23 0 18 0.00157008068 1.219199999992652e-07 -0.00758128024 16
 25 15 0 ?22 19 29 26 0 0 2 30 26 16 0 25 30 20 0 +0.00157008068 1.2192000000012
25e-07 -5.81279e-04 0.0 -1.224646799147353e-16 -1.0 17 27 0 15 16 28 17 22 25 0
 0 -17 28 0 15 27 22 23 31 29 0 0 -16 29 17 0 ?31 25 0 30 0 0 2 31 30 18 0 29 0
 26 0 +0.00127008128 1.219199999992652e-07 -0.00758128024 0.0 -1.224646799147353
e-16 -1.0 1.0 0.0 0.0 2.999994000000001e-04 17 31 0 41 31 31 23 28 29 0 28 +14 3
2 19 34 1.0e-08 37 13 36 12 33 -0 0 37 13 10 50 33 20 0 32 38 14 0 +0.0012700812
8 1.219200000001347e-07 -5.81279e-04 0.0 -1.224646799147353e-16 -1.0 1.0 0.0 0.0
 81 1 34 21 6 32 0 0 39 5 35 83 3 35 1.0 1.0 0.501960813999176 15 36 22 0 21 32
 0 14 37 23 39 1.0e-08 0 32 41 12 38 +0 0 0 32 10 50 38 24 0 37 0 33 0 +0.001270
08128 1.219199999992775e-07 -0.00758128024 0.0 -1.224646799147353e-16 -1.0 1.0 0
.0 0.0 81 1 39 25 6 37 0 0 0 34 40 83 3 40 1.0 1.0 0.501960813999176 15 41 26 0
 31 37 0 12 42 26 0 43 0 0 0 0 1000.0 1.0e-08 0 0 0 1 0 1 1 50 52 58 56 47 57 55
 70 43 0 42 0 0 4 1 20 0 44 44 1 T74 20 44 1 0 45 0 0 0 0 0 0 0 0 0 0 0 0 0 0 0
 0 0 0 0 81 1 45 7 6 51 0 0 72 0 46 83 3 46 1.0 1.0 0.501960813999176 19 47 1 0
 42 49 0 48 V13 48 2 0 42 0 0 0 0 47 51 19 49 3 0 42 0 47 50 S13 50 4 0 42 0 51
 0 0 49 0 14 51 5 45 1.0e-08 70 0 53 50 52 +0 0 70 0 48 51 52 6 0 51 71 0 0 +-0.
00126991872 4.064000000012247e-08 -5.81279e-04 0.0 1.224646799147353e-16 1.0 2.9
99994000000001e-04 1.0 0.0 0.0 15 53 8 0 54 51 0 17 54 0 53 60 65 55 59 57 0 59
 +18 55 9 0 54 0 61 56 ?42 29 56 10 0 55 62 0 -9.699193199999998e-04 4.064000000
012247e-08 -5.81279e-04 16 57 11 0 ?54 0 63 58 0 0 42 31 58 12 0 57 64 0 0 +-0.0
0126991872 4.064000000012247e-08 -5.81279e-04 0.0 -1.224646799147353e-16 -1.0 1.
0 0.0 0.0 2.999994000000001e-04 17 59 0 74 59 59 55 54 57 0 65 -17 60 0 53 66 54
 61 65 63 0 69 +18 61 13 0 60 55 0 62 ?42 29 62 14 0 61 0 56 -9.699193199999998e
-04 4.063999999926521e-08 -0.00758128024 16 63 15 0 ?60 57 67 64 0 0 42 30 64 16
 0 63 68 58 0 +-9.699193199999998e-04 4.064000000012247e-08 -5.81279e-04 0.0 -1.
224646799147353e-16 -1.0 17 65 0 53 54 66 55 60 63 0 0 -17 66 0 53 65 60 61 69 6
7 0 0 -16 67 17 0 ?69 63 0 68 0 0 42 31 68 18 0 67 0 64 0 +-0.00126991872 4.0639
99999926521e-08 -0.00758128024 0.0 -1.224646799147353e-16 -1.0 1.0 0.0 0.0 2.999
994000000001e-04 17 69 0 79 69 69 61 66 67 0 66 +14 70 19 72 1.0e-08 75 51 74 50
 71 -0 0 75 51 48 50 71 20 0 70 76 52 0 +-0.00126991872 4.064000000013471e-08 -5
.81279e-04 0.0 -1.224646799147353e-16 -1.0 1.0 0.0 0.0 81 1 72 21 6 70 0 0 77 45
 73 83 3 73 1.0 1.0 0.501960813999176 15 74 22 0 59 70 0 14 75 23 77 1.0e-08 0 7
0 79 50 76 +0 0 0 70 48 50 76 24 0 75 0 71 0 +-0.00126991872 4.063999999927746e-
08 -0.00758128024 0.0 -1.224646799147353e-16 -1.0 1.0 0.0 0.0 81 1 77 25 6 75 0
 0 0 72 78 83 3 78 1.0 1.0 0.501960813999176 15 79 26 0 69 75 0 12 80 68 0 81 0
 0 0 0 1000.0 1.0e-08 0 0 0 1 0 1 1 88 90 96 94 85 95 93 70 81 0 80 0 0 4 1 20 0
 82 82 1 T74 20 82 1 0 83 0 0 0 0 0 0 0 0 0 0 0 0 0 0 0 0 0 0 0 81 1 83 7 6 89 0
 0 118 0 84 83 3 84 0.501960813999176 0.501960813999176 0.501960813999176 19 85
 1 0 80 87 0 86 V13 86 2 0 80 0 0 0 0 85 89 19 87 3 0 80 0 85 88 S13 88 4 0 80 0
 89 0 0 87 0 14 89 5 83 1.0e-08 116 0 91 88 90 +0 0 116 0 86 50 90 6 0 89 117 0
 0 +-0.00254 0.00158999936 0.0 1.224646799147353e-16 1.0 0.0 1.0 -1.224646799147
353e-16 0.0 15 91 8 0 92 89 0 17 92 0 91 100 112 93 97 95 0 105 +18 93 9 0 92 0
 98 94 ?80 29 94 10 0 93 99 0 -0.00254 0.00158999936 0.00736000052 16 95 11 0 ?9
2 0 103 96 0 0 80 30 96 12 0 95 104 0 0 +-0.00254 0.00158999936 0.0 0.0 0.0 1.0
 17 97 0 162 167 163 98 92 95 0 112 -18 98 13 0 97 93 101 99 ?80 29 99 14 0 98 1
02 94 -0.00254 0.00158999936 0.0 17 100 0 91 106 92 101 105 103 0 111 +18 101 15
 0 100 98 107 102 ?80 29 102 16 0 101 108 99 0.00254 0.00158999936 0.00736000052
 16 103 17 0 ?100 95 109 104 0 0 80 30 104 18 0 103 110 96 0 +-0.00254 0.0015899
9936 0.00736000052 1.0 -1.224646799147353e-16 0.0 17 105 0 180 166 126 93 100 10
3 0 163 -17 106 0 91 112 100 107 111 109 0 115 -18 107 19 0 106 101 122 108 ?80
 29 108 20 0 107 123 102 0.00254 0.00158999936 0.0 16 109 21 0 ?111 103 113 110
 0 0 80 30 110 22 0 109 114 104 0 +0.00254 0.00158999936 0.0 0.0 0.0 1.0 17 111
 0 120 121 133 101 106 109 0 126 +17 112 0 91 92 106 98 115 113 0 170 -16 113 23
 0 ?115 109 124 114 0 0 80 30 114 24 0 113 125 110 0 +-0.00254 0.00158999936 0.0
 1.0 -1.224646799147353e-16 0.0 17 115 0 175 136 170 107 112 113 0 133 +14 116 2
5 118 1.0e-08 137 89 120 88 117 +0 0 137 89 86 50 117 26 0 116 138 90 0 +0.00254
 0.00158999936 0.0 1.0 -1.224646799147353e-16 0.0 -1.224646799147353e-16 -1.0 0.
0 81 1 118 27 6 116 0 0 139 83 119 83 3 119 0.501960813999176 0.501960813999176
 0.501960813999176 15 120 28 0 111 116 0 17 121 0 120 127 111 122 126 124 0 132
 +18 122 29 0 121 107 128 123 ?80 29 123 30 0 122 129 108 0.00254 -0.00158999936
 0.00736000052 16 124 31 0 ?121 113 130 125 0 0 80 30 125 32 0 124 131 114 0 +0.
00254 0.00158999936 0.00736000052 -1.224646799147353e-16 -1.0 0.0 17 126 0 180 1
05 147 101 121 124 0 0 -17 127 0 120 133 121 128 132 130 0 136 -18 128 33 0 127
 122 143 129 ?80 29 129 34 0 128 144 123 0.00254 -0.00158999936 0.0 16 130 35 0
 ?132 124 134 131 0 0 80 30 131 36 0 130 135 125 0 +0.00254 -0.00158999936 0.0 0
.0 0.0 1.0 17 132 0 141 142 154 122 127 130 0 147 +17 133 0 120 111 127 107 136
 134 0 0 -16 134 37 0 ?136 130 145 135 0 0 80 30 135 38 0 134 146 131 0 +0.00254
 0.00158999936 0.0 -1.224646799147353e-16 -1.0 0.0 17 136 0 175 157 115 128 133
 134 0 154 +14 137 39 139 1.0e-08 158 116 141 88 138 +0 0 158 116 86 50 138 40 0
 137 159 117 0 +0.00254 -0.00158999936 0.0 -1.224646799147353e-16 -1.0 0.0 -1.0
 1.224646799147353e-16 0.0 81 1 139 41 6 137 0 0 160 118 140 83 3 140 0.50196081
3999176 0.501960813999176 0.501960813999176 15 141 42 0 132 137 0 17 142 0 141 1
48 132 143 147 145 0 153 +18 143 43 0 142 128 149 144 ?80 29 144 44 0 143 150 12
9 -0.00254 -0.00158999936 0.00736000052 16 145 45 0 ?142 134 151 146 0 0 80 30 1
46 46 0 145 152 135 0 +0.00254 -0.00158999936 0.00736000052 -1.0 1.2246467991473
53e-16 0.0 17 147 0 180 126 166 122 142 145 0 0 -17 148 0 141 154 142 149 153 15
1 0 157 -18 149 47 0 148 143 0 150 ?80 29 150 48 0 149 0 144 -0.00254 -0.0015899
9936 0.0 16 151 49 0 ?153 145 155 152 0 0 80 30 152 50 0 151 156 146 0 +-0.00254
 -0.00158999936 0.0 0.0 0.0 1.0 17 153 0 162 163 167 143 148 151 0 166 +17 154 0
 141 132 148 128 157 155 0 0 -16 155 51 0 ?157 151 164 156 0 0 80 30 156 52 0 15
5 165 152 0 +0.00254 -0.00158999936 0.0 -1.0 1.224646799147353e-16 0.0 17 157 0
 175 170 136 149 154 155 0 167 +14 158 53 160 1.0e-08 171 137 162 88 159 +0 0 17
1 137 86 50 159 54 0 158 172 138 0 +-0.00254 -0.00158999936 0.0 -1.0 1.224646799
147353e-16 0.0 1.224646799147353e-16 1.0 0.0 81 1 160 55 6 158 0 0 173 139 161 8
3 3 161 0.501960813999176 0.501960813999176 0.501960813999176 15 162 56 0 153 15
8 0 17 163 0 162 97 153 93 166 164 0 0 +16 164 57 0 ?163 155 168 165 0 0 80 30 1
65 58 0 164 169 156 0 +-0.00254 -0.00158999936 0.00736000052 1.224646799147353e-
16 1.0 0.0 17 166 0 180 147 105 143 163 164 0 0 -17 167 0 162 153 97 149 170 168
 0 0 -16 168 59 0 ?170 164 0 169 0 0 80 30 169 60 0 168 0 165 0 +-0.00254 -0.001
58999936 0.0 1.224646799147353e-16 1.0 0.0 17 170 0 175 115 157 98 167 168 0 0 +
14 171 61 173 1.0e-08 176 158 175 88 172 +0 0 176 158 86 50 172 62 0 171 177 159
 0 +8.78986810812329e-34 7.177471997839e-18 0.0 0.0 0.0 -1.0 1.0 -1.224646799147
353e-16 0.0 81 1 173 63 6 171 0 0 178 160 174 83 3 174 0.501960813999176 0.50196
0813999176 0.501960813999176 15 175 64 0 115 171 0 14 176 65 178 1.0e-08 0 171 1
80 88 177 -0 0 0 171 86 50 177 66 0 176 0 172 0 +8.78986810812329e-34 7.17747199
7839e-18 0.00736000052 0.0 0.0 -1.0 1.0 -1.224646799147353e-16 0.0 81 1 178 67 6
 176 0 0 0 173 179 83 3 179 0.501960813999176 0.501960813999176 0.50196081399917
6 15 180 68 0 166 176 0 1 0 
