<svg width="55.99999976mm" height="64.99999954mm" viewBox="0 0 22047244 25590551"  version="1.1" xmlns="http://www.w3.org/2000/svg" xmlns:xlink="http://www.w3.org/1999/xlink">
<desc>
Origin 0 0 Bound 15722441 13637008 22047244 25590551
</desc>
<g fill-rule="evenodd" fill="rgb(255, 0, 0)" stroke="black" stroke-width="1" transform="translate(0, 25590551) scale(1, -1) translate(-15722441, -13637008)">
<path id="N" d="M 22046063.00 18653150.00 L 21927953.00 18653150.00 L 21927953.00 19046850.00 L 22046063.00 19046850.00 L 22046063.00 18653150.00  z"/>
<path id="N" d="M 35772433.64 18782268.96 m -315709.31 0 a 315709.31 315709.31 0 1 1 631418.63 0a 315709.31 315709.31 0 1 1 -631418.63 0M 35772441.92 18782281.47 m -208737.53 0 a 208737.53 208737.53 0 1 1 417475.06 0a 208737.53 208737.53 0 1 1 -417475.06 0"/>
<path id="N" d="M 18502755.00 18653150.00 L 18384645.00 18653150.00 L 18384645.00 19046850.00 L 18502755.00 19046850.00 L 18502755.00 18653150.00  z"/>
<path id="N" d="M 22439764.00 18653150.00 L 22321654.00 18653150.00 L 22321654.00 19046850.00 L 22439764.00 19046850.00 L 22439764.00 18653150.00  z"/>
<path id="N" d="M 35772433.64 30782268.96 m -315709.31 0 a 315709.31 315709.31 0 1 1 631418.63 0a 315709.31 315709.31 0 1 1 -631418.63 0M 35772441.92 30782281.47 m -208737.53 0 a 208737.53 208737.53 0 1 1 417475.06 0a 208737.53 208737.53 0 1 1 -417475.06 0"/>
<path id="N" d="M 21258662.00 18653150.00 L 21140552.00 18653150.00 L 21140552.00 19046850.00 L 21258662.00 19046850.00 L 21258662.00 18653150.00  z"/>
<path id="N" d="M 35772433.64 25782268.96 m -315709.31 0 a 315709.31 315709.31 0 1 1 631418.63 0a 315709.31 315709.31 0 1 1 -631418.63 0M 35772441.92 25782281.47 m -208737.53 0 a 208737.53 208737.53 0 1 1 417475.06 0a 208737.53 208737.53 0 1 1 -417475.06 0"/>
<path id="N" d="M 36045839.00 23624437.00 L 36028900.55 23602362.22 L 36788269.00 22842994.00 L 36804120.00 22804725.00 L 36804121.00 16458579.00 L 36788269.00 16420310.00 L 36229690.00 15861731.00 L 36191418.59 15845880.00 L 33900000.00 15845879.00 L 33861730.29 15861732.71 L 32527581.01 17195881.00 L 30158269.00 17195881.00 L 30158269.00 17132895.00 L 30147966.00 17108020.00 L 30123091.00 17097717.00 L 29928091.00 17097717.00 L 29903216.00 17108020.00 L 29892913.00 17132895.00 L 29892913.00 17367107.00 L 29903216.00 17391982.00 L 29928091.00 17402285.00 L 30123091.00 17402285.00 L 30147966.00 17391982.00 L 30158269.00 17367107.00 L 30158269.00 17304121.00 L 32549999.00 17304122.00 L 32588268.00 17288270.00 L 33922417.01 15954120.00 L 36169003.00 15954120.00 L 36695880.00 16480997.00 L 36695880.00 22782307.98 L 35952362.49 23525824.73 L 35930287.00 23508886.00 A 315690.57 315690.57 0 1 0 36045839.00 23624437.00  zM 35772441.92 23782281.47 m -208737.53 0 a 208737.53 208737.53 0 1 1 417475.06 0a 208737.53 208737.53 0 1 1 -417475.06 0"/>
<path id="N" d="M 17321653.00 18653150.00 L 17203543.00 18653150.00 L 17203543.00 19046850.00 L 17321653.00 19046850.00 L 17321653.00 18653150.00  z"/>
<path id="N" d="M 34467505.00 28705301.00 L 34466815.40 28710539.00 L 33775376.00 28710539.00 L 27226980.59 22162143.59 L 27240673.00 22093307.00 L 27240673.00 21089371.00 A 190667.29 190667.29 0 0 0 26859329.00 21089371.00 L 26859329.00 22093307.00 A 190667.29 190667.29 0 0 0 27118835.92 22270286.92 L 33689629.00 28841080.00 L 33714437.00 28857656.00 L 33743701.00 28863477.00 L 34466815.40 28863477.00 L 34467505.00 28868715.00 A 315695.14 315695.14 0 1 0 34467505.00 28705301.00  zM 34772441.92 28787005.47 m -208737.53 0 a 208737.53 208737.53 0 1 1 417475.06 0a 208737.53 208737.53 0 1 1 -417475.06 0"/>
<path id="N" d="M 34469168.06 29701286.00 L 34266124.00 29701286.00 L 26726981.59 22162143.59 L 26740674.00 22093307.00 L 26740674.00 21089371.00 A 190667.29 190667.29 0 1 0 26359330.00 21089371.00 L 26359330.00 22093307.00 A 190667.29 190667.29 0 0 0 26618836.92 22270286.92 L 34180377.00 29831827.00 L 34205185.00 29848403.00 L 34234449.00 29854224.00 L 34465597.21 29854224.00 L 34467505.00 29868715.00 A 315695.14 315695.14 0 1 0 34469168.06 29701286.00  zM 34772441.92 29787005.47 m -208737.53 0 a 208737.53 208737.53 0 1 1 417475.06 0a 208737.53 208737.53 0 1 1 -417475.06 0"/>
<path id="N" d="M 32091158.00 39086677.00 L 32096245.84 39048031.00 L 32381436.00 39048031.00 L 32381436.00 37394489.00 L 32025643.57 37394489.00 L 32013689.00 37377104.00 L 31950715.00 37330294.00 L 31944455.00 37327701.00 L 31944455.00 37276268.00 L 31946042.00 37264214.00 L 31944491.00 37252433.00 L 31945113.00 37240563.00 L 31931636.00 37069328.00 L 31926712.00 37046164.00 L 31924237.00 37022613.00 L 31879874.00 36839026.00 L 31875305.82 36832189.26 L 31869523.00 36810607.00 L 31803791.00 36651917.00 L 31791949.00 36631407.00 L 31782318.00 36609774.00 L 31692572.00 36463321.00 L 31677666.00 36444914.00 L 31664769.00 36425054.00 L 31557763.00 36298342.00 L 31544382.00 36286489.00 L 31537150.00 36277064.00 L 31529111.00 36270896.00 L 31522937.00 36262849.00 L 31513506.00 36255612.00 L 31505557.00 36246784.00 L 31374946.00 36135231.00 L 31355086.00 36122334.00 L 31336679.00 36107428.00 L 31190225.00 36017682.00 L 31168593.00 36008051.00 L 31148083.00 35996209.00 L 31040526.57 35951657.36 L 31035258.00 35948137.00 L 31029043.24 35946900.78 L 30989393.00 35930477.00 L 30966515.00 35924347.00 L 30944406.00 35915860.00 L 30777387.00 35875763.00 L 30753835.00 35873288.00 L 30730672.00 35868364.00 L 30559436.00 35854887.00 L 30547567.00 35855509.00 L 30535786.00 35853958.00 L 30523732.00 35855545.00 L 30419148.65 35855545.00 L 30412935.00 35854309.00 L 30406721.35 35855545.00 L 30122298.65 35855545.00 L 30116085.00 35854309.00 L 30109871.35 35855545.00 L 29825448.65 35855545.00 L 29819235.00 35854309.00 L 29813021.35 35855545.00 L 29528598.65 35855545.00 L 29522385.00 35854309.00 L 29516171.35 35855545.00 L 29231748.65 35855545.00 L 29225535.00 35854309.00 L 29219321.35 35855545.00 L 28948730.00 35855545.00 L 28827630.00 35843617.00 L 28714083.00 35809173.00 L 28609445.00 35753243.00 L 28515378.00 35676045.00 L 28477566.98 35638234.00 L 28474049.00 35632969.00 L 28468783.98 35629451.01 L 28267662.23 35428329.38 L 28264144.00 35423064.00 L 28258878.60 35419545.76 L 28057757.48 35218424.76 L 28054239.00 35213159.00 L 28048973.23 35209640.50 L 27847850.72 35008518.12 L 27844334.00 35003255.00 L 27839070.86 34999738.27 L 27637948.99 34798616.51 L 27634430.00 34793350.00 L 27629163.47 34789831.00 L 27428042.23 34588709.88 L 27424525.00 34583446.00 L 27419261.11 34579928.76 L 27218137.48 34378805.26 L 27214620.00 34373541.00 L 27209355.73 34370023.51 L 27008235.75 34168903.65 L 27004716.00 34163636.00 L 26999448.34 34160116.24 L 26843081.46 34003749.46 L 26842464.00 33716222.65 L 26843700.00 33710009.00 L 26842464.00 33703795.35 L 26842464.00 33565749.00 L 26836672.00 33506944.00 L 26817575.00 33410935.00 L 26811224.00 33392225.00 L 26807370.00 33372849.00 L 26798633.00 33355132.00 L 26792282.00 33336422.00 L 26781305.00 33319993.00 L 26772567.00 33302275.00 L 26718182.00 33220882.00 L 26705153.00 33206025.00 L 26694179.00 33189601.00 L 26679329.00 33176578.00 L 26666299.00 33161720.00 L 26649866.00 33150740.00 L 26635017.00 33137718.00 L 26553625.00 33083333.00 L 26535908.00 33074596.00 L 26519478.00 33063618.00 L 26500768.00 33057267.00 L 26483051.00 33048530.00 L 26463675.00 33044676.00 L 26444965.00 33038325.00 L 26348956.00 33019228.00 L 26329247.00 33017936.00 L 26309867.00 33014081.00 L 26290151.00 33015373.00 L 26270435.00 33014081.00 L 26251055.00 33017936.00 L 26236632.32 33018881.46 L 26135337.00 33038325.00 L 26116627.00 33044676.00 L 26097251.00 33048530.00 L 26079534.00 33057267.00 L 26060824.00 33063618.00 L 26044395.00 33074595.00 L 26026677.00 33083333.00 L 25945284.00 33137718.00 L 25930427.00 33150747.00 L 25914003.00 33161721.00 L 25900980.00 33176571.00 L 25886122.00 33189601.00 L 25875142.00 33206034.00 L 25862120.00 33220883.00 L 25807735.00 33302275.00 L 25798998.00 33319992.00 L 25788020.00 33336422.00 L 25781669.00 33355132.00 L 25772932.00 33372849.00 L 25769078.00 33392225.00 L 25762727.00 33410935.00 L 25743210.50 33513345.48 L 25734537.00 33469740.00 A 250884.37 250884.37 0 0 0 25251866.00 33565749.00 L 25251866.00 34451575.00 A 250882.20 250882.20 0 0 0 25734537.00 34547584.00 L 25743210.50 34503978.52 L 25762727.00 34606389.00 L 25769078.00 34625099.00 L 25772932.00 34644475.00 L 25781669.00 34662192.00 L 25788020.00 34680902.00 L 25798997.00 34697331.00 L 25807735.00 34715049.00 L 25862120.00 34796442.00 L 25875149.00 34811299.00 L 25886123.00 34827723.00 L 25900973.00 34840746.00 L 25914003.00 34855604.00 L 25930436.00 34866584.00 L 25945285.00 34879606.00 L 26026677.00 34933991.00 L 26044394.00 34942728.00 L 26060824.00 34953706.00 L 26079534.00 34960057.00 L 26097251.00 34968794.00 L 26108642.00 34971341.00 L 26135337.00 34978999.00 L 26231346.00 34998096.00 L 26251055.00 34999388.00 L 26270435.00 35003243.00 L 26290151.00 35001951.00 L 26309867.00 35003243.00 L 26329247.00 34999388.00 L 26348956.00 34998096.00 L 26444965.00 34978999.00 L 26463675.00 34972648.00 L 26483051.00 34968794.00 L 26500768.00 34960057.00 L 26519478.00 34953706.00 L 26535907.00 34942729.00 L 26553625.00 34933991.00 L 26615975.00 34892330.00 L 26666225.08 34942580.08 L 26669741.00 34947842.00 L 26675002.92 34951357.92 L 26876127.07 35152482.07 L 26879645.00 35157747.00 L 26884909.93 35161264.93 L 27086032.07 35362387.07 L 27089550.00 35367652.00 L 27094814.93 35371169.93 L 27295939.08 35572294.08 L 27299455.00 35577556.00 L 27304716.92 35581071.92 L 27505841.07 35782196.07 L 27509359.00 35787461.00 L 27514623.93 35790978.93 L 27715746.07 35992101.07 L 27719264.00 35997366.00 L 27724528.93 36000883.93 L 27925650.07 36202005.07 L 27929168.00 36207270.00 L 27951152.00 36227507.00 L 27958552.00 36237151.00 L 27967983.00 36244388.00 L 27975932.00 36253216.00 L 28106543.00 36364769.00 L 28126403.00 36377666.00 L 28144810.00 36392572.00 L 28291264.00 36482318.00 L 28312896.00 36491949.00 L 28333406.00 36503791.00 L 28448240.41 36551357.29 L 28453505.00 36554875.00 L 28459715.07 36556110.29 L 28492096.00 36569523.00 L 28514974.00 36575653.00 L 28537083.00 36584140.00 L 28704102.00 36624237.00 L 28727654.00 36626712.00 L 28750817.00 36631636.00 L 28922053.00 36645113.00 L 28933922.00 36644491.00 L 28945703.00 36646042.00 L 28957757.00 36644455.00 L 29070249.35 36644455.00 L 29076463.00 36645691.00 L 29082676.65 36644455.00 L 29367099.35 36644455.00 L 29373313.00 36645691.00 L 29379526.65 36644455.00 L 29663949.35 36644455.00 L 29670163.00 36645691.00 L 29676376.65 36644455.00 L 29960799.35 36644455.00 L 29967013.00 36645691.00 L 29973226.65 36644455.00 L 30257649.35 36644455.00 L 30263863.00 36645691.00 L 30270076.65 36644455.00 L 30532759.00 36644455.00 L 30653859.00 36656383.00 L 30767406.00 36690827.00 L 30872044.00 36746757.00 L 30966115.00 36823958.00 L 30976045.00 36833889.00 L 31053243.00 36927956.00 L 31109173.00 37032594.00 L 31143617.00 37146141.00 L 31155545.00 37267241.00 L 31155545.00 37327701.00 L 31149285.00 37330294.00 A 301451.62 301451.62 0 0 0 30998571.00 37591339.00 L 30997335.00 37613497.00 L 30998571.00 37619710.65 L 30998571.00 37904133.35 L 30997335.00 37910347.00 L 30998571.00 37916560.65 L 30998571.00 38200983.35 L 30997335.00 38207197.00 L 30998571.00 38213410.65 L 30998571.00 38497833.35 L 30997335.00 38504047.00 L 30998571.00 38510260.65 L 30998571.00 38794683.35 L 30997335.00 38800897.00 L 30998571.00 38807110.65 L 30998571.00 39008661.00 L 31008842.00 39086677.00 L 31033945.07 39147281.00 L 31202518.31 39147281.00 L 31225856.38 39111191.62 L 31221260.00 39087400.36 L 31221260.00 39067213.63 L 31207686.00 39046899.00 L 31200080.00 39008661.00 L 31200080.00 37591339.00 L 31207686.00 37553101.00 L 31221260.00 37532786.37 L 31221260.00 37512599.00 L 31241447.37 37512599.00 L 31261762.00 37499025.00 L 31300000.00 37491419.00 L 31355014.00 37491419.00 L 31355014.00 37264214.00 L 31356777.01 37255350.49 L 31342131.00 37106649.00 L 31296171.00 36955140.00 L 31221536.00 36815508.00 L 31126745.22 36700003.88 L 31119231.00 36694983.00 L 31105017.00 36680769.00 L 31099996.12 36673254.78 L 30984492.00 36578464.00 L 30844860.00 36503829.00 L 30693351.00 36457869.00 L 30544649.51 36443222.99 L 30535786.00 36444986.00 L 28945178.91 36444881.75 A 1193205.57 1193205.57 0 0 1 28100720.00 36094983.00 L 26642594.87 34636857.87 L 26578223.56 34643198.01 L 26550634.00 34684489.00 L 26523066.00 34712057.00 L 26441673.00 34766443.00 L 26405654.00 34781362.00 L 26309645.92 34800458.62 L 26270657.00 34800459.00 L 26174649.00 34781362.00 L 26138625.99 34766439.99 L 26057237.00 34712058.00 L 26029669.00 34684490.00 L 25975283.00 34603097.00 L 25960364.00 34567078.00 L 25941267.00 34471068.00 L 25939347.00 34451575.00 L 25939347.00 33565749.00 L 25941267.00 33546256.00 L 25960364.00 33450247.00 L 25975286.01 33414223.99 L 26029668.00 33332835.00 L 26057236.00 33305267.00 L 26138629.00 33250881.00 L 26174648.00 33235962.00 L 26270656.08 33216865.38 L 26309645.00 33216865.00 L 26405653.00 33235962.00 L 26441676.01 33250884.01 L 26523065.00 33305266.00 L 26550633.00 33332834.00 L 26605019.00 33414227.00 L 26619938.00 33450246.00 L 26639035.00 33546256.00 L 26640955.00 33565749.00 L 26640955.00 34083714.00 L 28376472.00 35819231.00 L 28381492.88 35826745.22 L 28496997.00 35921536.00 L 28636629.00 35996171.00 L 28788138.00 36042131.00 L 28936839.49 36056777.01 L 28945703.00 36055014.00 L 30536310.09 36055118.25 A 1193205.57 1193205.57 0 0 1 31380769.00 36405017.00 L 31395282.89 36419679.82 A 1193227.21 1193227.21 0 0 1 31744986.00 37264214.00 L 31744986.00 37491419.00 L 31800000.00 37491419.00 L 31838238.00 37499025.00 L 31849940.00 37506844.14 L 31849940.00 39048031.00 L 31891557.61 39048031.00 L 31878740.00 39067213.63 L 31878740.77 39087400.36 L 31874143.62 39111191.62 L 31897481.69 39147281.00 L 32066054.93 39147281.00 L 32091158.00 39086677.00  z"/>
<path id="N" d="M 35772433.64 29782268.96 m -315709.31 0 a 315709.31 315709.31 0 1 1 631418.63 0a 315709.31 315709.31 0 1 1 -631418.63 0M 35772441.92 29782281.47 m -208737.53 0 a 208737.53 208737.53 0 1 1 417475.06 0a 208737.53 208737.53 0 1 1 -417475.06 0"/>
<path id="N" d="M 34772433.64 16786992.96 m -315709.31 0 a 315709.31 315709.31 0 1 1 631418.63 0a 315709.31 315709.31 0 1 1 -631418.63 0M 34772441.92 16787005.47 m -208737.53 0 a 208737.53 208737.53 0 1 1 417475.06 0a 208737.53 208737.53 0 1 1 -417475.06 0"/>
<path id="N" d="M 34772433.64 31786992.96 m -315709.31 0 a 315709.31 315709.31 0 1 1 631418.63 0a 315709.31 315709.31 0 1 1 -631418.63 0M 34772441.92 31787005.47 m -208737.53 0 a 208737.53 208737.53 0 1 1 417475.06 0a 208737.53 208737.53 0 1 1 -417475.06 0"/>
<path id="N" d="M 35772433.64 26782268.96 m -315709.31 0 a 315709.31 315709.31 0 1 1 631418.63 0a 315709.31 315709.31 0 1 1 -631418.63 0M 35772441.92 26782281.47 m -208737.53 0 a 208737.53 208737.53 0 1 1 417475.06 0a 208737.53 208737.53 0 1 1 -417475.06 0"/>
<path id="N" d="M 35772433.64 33782268.96 m -315709.31 0 a 315709.31 315709.31 0 1 1 631418.63 0a 315709.31 315709.31 0 1 1 -631418.63 0M 35772441.92 33782281.47 m -208737.53 0 a 208737.53 208737.53 0 1 1 417475.06 0a 208737.53 208737.53 0 1 1 -417475.06 0"/>
<path id="N" d="M 35772433.64 19782268.96 m -315709.31 0 a 315709.31 315709.31 0 1 1 631418.63 0a 315709.31 315709.31 0 1 1 -631418.63 0M 35772441.92 19782281.47 m -208737.53 0 a 208737.53 208737.53 0 1 1 417475.06 0a 208737.53 208737.53 0 1 1 -417475.06 0"/>
<path id="N" d="M 25742611.77 17499992.07 m -258122.37 0 a 258122.37 258122.37 0 1 1 516244.75 0a 258122.37 258122.37 0 1 1 -516244.75 0M 25742616.59 17500001.48 m -160563.52 0 a 160563.52 160563.52 0 1 1 321127.04 0a 160563.52 160563.52 0 1 1 -321127.04 0"/>
<path id="N" d="M 35772433.64 21782268.96 m -315709.31 0 a 315709.31 315709.31 0 1 1 631418.63 0a 315709.31 315709.31 0 1 1 -631418.63 0M 35772441.92 21782281.47 m -208737.53 0 a 208737.53 208737.53 0 1 1 417475.06 0a 208737.53 208737.53 0 1 1 -417475.06 0"/>
<path id="N" d="M 27199993.77 17499992.07 m -258122.37 0 a 258122.37 258122.37 0 1 1 516244.75 0a 258122.37 258122.37 0 1 1 -516244.75 0M 27199998.59 17500001.48 m -160563.52 0 a 160563.52 160563.52 0 1 1 321127.04 0a 160563.52 160563.52 0 1 1 -321127.04 0"/>
<path id="N" d="M 34772433.64 23786992.96 m -315709.31 0 a 315709.31 315709.31 0 1 1 631418.63 0a 315709.31 315709.31 0 1 1 -631418.63 0M 34772441.92 23787005.47 m -208737.53 0 a 208737.53 208737.53 0 1 1 417475.06 0a 208737.53 208737.53 0 1 1 -417475.06 0"/>
<path id="N" d="M 28767814.00 34451575.00 L 28767814.00 33565749.00 A 250882.20 250882.20 0 0 0 28266046.00 33565749.00 L 28266046.00 34451575.00 A 250882.20 250882.20 0 0 0 28767814.00 34451575.00  z"/>
<path id="N" d="M 25740676.00 22093307.00 L 25740676.00 21089371.00 A 190667.29 190667.29 0 1 0 25359332.00 21089371.00 L 25359332.00 22093307.00 A 190667.29 190667.29 0 0 0 25740676.00 22093307.00  z"/>
<path id="N" d="M 27980413.00 34451575.00 L 27980413.00 33565749.00 A 250882.20 250882.20 0 0 0 27478645.00 33565749.00 L 27478645.00 34451575.00 A 250882.20 250882.20 0 0 0 27980413.00 34451575.00  z"/>
<path id="N" d="M 30740666.00 22093307.00 L 30740666.00 21089371.00 A 190667.29 190667.29 0 0 0 30359322.00 21089371.00 L 30359322.00 22093307.00 A 190667.29 190667.29 0 0 0 30740666.00 22093307.00  z"/>
<path id="N" d="M 20471260.00 18653150.00 L 20353150.00 18653150.00 L 20353150.00 19046850.00 L 20471260.00 19046850.00 L 20471260.00 18653150.00  z"/>
<path id="N" d="M 21652363.00 18653150.00 L 21534253.00 18653150.00 L 21534253.00 19046850.00 L 21652363.00 19046850.00 L 21652363.00 18653150.00  z"/>
<path id="N" d="M 22833465.00 18653150.00 L 22715355.00 18653150.00 L 22715355.00 19046850.00 L 22833465.00 19046850.00 L 22833465.00 18653150.00  z"/>
<path id="N" d="M 19290157.00 18653150.00 L 19172047.00 18653150.00 L 19172047.00 19046850.00 L 19290157.00 19046850.00 L 19290157.00 18653150.00  z"/>
<path id="N" d="M 34605846.00 37394489.00 L 34074350.00 37394489.00 L 34074350.00 39048031.00 L 34605846.00 39048031.00 L 34605846.00 37394489.00  z"/>
<path id="N" d="M 35772433.64 16782268.96 m -315709.31 0 a 315709.31 315709.31 0 1 1 631418.63 0a 315709.31 315709.31 0 1 1 -631418.63 0M 35772441.92 16782281.47 m -208737.53 0 a 208737.53 208737.53 0 1 1 417475.06 0a 208737.53 208737.53 0 1 1 -417475.06 0"/>
<path id="N" d="M 34549212.00 24563779.00 L 34536916.34 24579803.14 L 34505940.00 24572838.00 L 34480982.00 24572838.00 L 31269579.00 21361435.00 L 31269579.00 20393110.00 L 31263758.00 20363846.00 L 31247182.00 20339038.00 L 30754072.00 19845928.00 L 30729264.00 19829352.00 L 30700000.00 19823531.00 L 29450001.00 19823531.00 L 29420737.00 19829352.00 L 29395929.00 19845928.00 L 28995925.00 20245932.00 L 28979349.00 20270740.00 L 28973528.00 20300004.00 L 28973528.00 20915553.01 L 28915172.00 20954546.00 L 28873839.00 21016404.00 L 28859325.00 21089371.00 L 28859325.00 22093307.00 A 190667.29 190667.29 0 0 0 29240669.00 22093307.00 L 29240669.00 21089371.00 A 190667.29 190667.29 0 0 0 29126466.00 20915553.01 L 29126466.00 20331679.00 L 29481676.00 19976469.00 L 30668325.00 19976469.00 L 31116641.00 20424785.00 L 31116641.00 21393110.00 L 31122462.00 21422374.00 L 31139038.00 21447182.00 L 34395235.00 24703379.00 L 34420043.00 24719955.00 L 34449307.00 24725776.00 L 34464809.40 24725776.00 L 34456748.00 24787008.00 A 315697.91 315697.91 0 1 0 34549212.00 24563779.00  zM 34772441.92 24787005.47 m -208737.53 0 a 208737.53 208737.53 0 1 1 417475.06 0a 208737.53 208737.53 0 1 1 -417475.06 0"/>
<path id="N" d="M 32799741.00 35108403.00 L 34044666.02 33863477.00 L 34466815.40 33863477.00 L 34467505.00 33868715.00 A 315695.14 315695.14 0 1 0 34467505.00 33705301.00 L 34466815.40 33710539.00 L 34012992.00 33710539.00 L 33983729.00 33716360.00 L 33958917.99 33732939.01 L 32713994.02 34977862.00 L 29423874.00 34977862.00 L 29380800.00 34934788.00 L 29380800.00 34687248.67 L 29400340.00 34683362.00 A 250884.37 250884.37 0 0 0 29555215.00 34451575.00 L 29555215.00 33565749.00 A 250882.20 250882.20 0 0 0 29053447.00 33565749.00 L 29053447.00 34451575.00 A 250882.20 250882.20 0 0 0 29208322.00 34683362.00 L 29227862.00 34687248.67 L 29227862.00 34966463.00 L 29233683.00 34995727.00 L 29250259.00 35020535.00 L 29338127.00 35108403.00 L 29362935.00 35124979.00 L 29392199.00 35130800.00 L 32745669.00 35130800.00 L 32774933.00 35124979.00 L 32799741.00 35108403.00  zM 34772441.92 33787005.47 m -208737.53 0 a 208737.53 208737.53 0 1 1 417475.06 0a 208737.53 208737.53 0 1 1 -417475.06 0"/>
<path id="N" d="M 35772433.64 22782268.96 m -315709.31 0 a 315709.31 315709.31 0 1 1 631418.63 0a 315709.31 315709.31 0 1 1 -631418.63 0M 35772441.92 22782281.47 m -208737.53 0 a 208737.53 208737.53 0 1 1 417475.06 0a 208737.53 208737.53 0 1 1 -417475.06 0"/>
<path id="N" d="M 35772433.64 28782268.96 m -315709.31 0 a 315709.31 315709.31 0 1 1 631418.63 0a 315709.31 315709.31 0 1 1 -631418.63 0M 35772441.92 28782281.47 m -208737.53 0 a 208737.53 208737.53 0 1 1 417475.06 0a 208737.53 208737.53 0 1 1 -417475.06 0"/>
<path id="N" d="M 35772433.64 32782268.96 m -315709.31 0 a 315709.31 315709.31 0 1 1 631418.63 0a 315709.31 315709.31 0 1 1 -631418.63 0M 35772441.92 32782281.47 m -208737.53 0 a 208737.53 208737.53 0 1 1 417475.06 0a 208737.53 208737.53 0 1 1 -417475.06 0"/>
<path id="N" d="M 35772433.64 34782268.96 m -315709.31 0 a 315709.31 315709.31 0 1 1 631418.63 0a 315709.31 315709.31 0 1 1 -631418.63 0M 35772441.92 34782281.47 m -208737.53 0 a 208737.53 208737.53 0 1 1 417475.06 0a 208737.53 208737.53 0 1 1 -417475.06 0"/>
<path id="N" d="M 36085433.00 35469292.00 L 35459449.00 35469292.00 L 35459449.00 36095276.00 L 36085433.00 36095276.00 L 36085433.00 35469292.00  zM 35772441.92 35782281.47 m -208737.53 0 a 208737.53 208737.53 0 1 1 417475.06 0a 208737.53 208737.53 0 1 1 -417475.06 0"/>
<path id="N" d="M 18896456.00 18653150.00 L 18778346.00 18653150.00 L 18778346.00 19046850.00 L 18896456.00 19046850.00 L 18896456.00 18653150.00  z"/>
<path id="N" d="M 28740670.00 22093307.00 L 28740670.00 21089371.00 A 190667.29 190667.29 0 0 0 28622965.00 20913213.00 L 28604118.00 20909464.11 L 28604118.00 18366436.98 L 29412678.00 17557877.00 L 29428529.00 17519608.00 L 29428529.00 17402285.00 L 29571909.00 17402285.00 L 29596784.00 17391982.00 L 29607087.00 17367107.00 L 29607087.00 17132895.00 L 29596784.00 17108020.00 L 29571909.00 17097717.00 L 29428529.00 17097717.00 L 29428529.00 15852285.00 L 29521909.00 15852285.00 L 29546784.00 15841982.00 L 29557087.00 15817107.00 L 29557087.00 15582895.00 L 29546784.00 15558020.00 L 29521909.00 15547717.00 L 29326909.00 15547717.00 L 29302034.00 15558020.00 L 29291731.00 15582895.00 L 29291731.00 15817107.00 L 29302034.00 15841982.00 L 29320289.00 15849543.06 L 29320289.00 17497190.98 L 28511729.00 18305750.00 L 28495878.00 18344021.41 L 28495878.00 20909464.11 L 28477031.00 20913213.00 A 190680.40 190680.40 0 0 0 28359326.00 21089371.00 L 28359326.00 22093307.00 A 190667.29 190667.29 0 0 0 28740670.00 22093307.00  z"/>
<path id="N" d="M 20864961.00 18653150.00 L 20746851.00 18653150.00 L 20746851.00 19046850.00 L 20864961.00 19046850.00 L 20864961.00 18653150.00  z"/>
<path id="N" d="M 35772433.64 31782268.96 m -315709.31 0 a 315709.31 315709.31 0 1 1 631418.63 0a 315709.31 315709.31 0 1 1 -631418.63 0M 35772441.92 31782281.47 m -208737.53 0 a 208737.53 208737.53 0 1 1 417475.06 0a 208737.53 208737.53 0 1 1 -417475.06 0"/>
<path id="N" d="M 34469165.57 26701292.00 L 34266124.00 26701292.00 L 29726975.59 22162143.59 L 29740668.00 22093307.00 L 29740668.00 21089371.00 A 190667.29 190667.29 0 0 0 29359324.00 21089371.00 L 29359324.00 22093307.00 A 190667.29 190667.29 0 0 0 29618830.92 22270286.92 L 34180377.00 26831833.00 L 34205185.00 26848409.00 L 34234449.00 26854230.00 L 34465598.00 26854230.00 L 34467505.00 26868715.00 A 315695.14 315695.14 0 1 0 34469165.57 26701292.00  zM 34772441.92 26787005.47 m -208737.53 0 a 208737.53 208737.53 0 1 1 417475.06 0a 208737.53 208737.53 0 1 1 -417475.06 0"/>
<path id="N" d="M 35772433.64 27782268.96 m -315709.31 0 a 315709.31 315709.31 0 1 1 631418.63 0a 315709.31 315709.31 0 1 1 -631418.63 0M 35772441.92 27782281.47 m -208737.53 0 a 208737.53 208737.53 0 1 1 417475.06 0a 208737.53 208737.53 0 1 1 -417475.06 0"/>
<path id="N" d="M 36045839.00 24624437.00 L 36028900.58 24602362.25 L 37088269.00 23542994.00 L 37104120.00 23504725.00 L 37104121.00 16000000.00 L 37088267.29 15961730.29 L 36788270.00 15661732.00 L 36749998.59 15645881.00 L 30108269.00 15645881.00 L 30108269.00 15582895.00 L 30097966.00 15558020.00 L 30073091.00 15547717.00 L 29878091.00 15547717.00 L 29853216.00 15558020.00 L 29842913.00 15582895.00 L 29842913.00 15817107.00 L 29853216.00 15841982.00 L 29878091.00 15852285.00 L 30073091.00 15852285.00 L 30097966.00 15841982.00 L 30108269.00 15817107.00 L 30108269.00 15754121.00 L 36727583.05 15754121.00 L 36995880.00 16022417.05 L 36995880.00 23482307.99 L 35952362.46 24525824.71 L 35930287.00 24508886.00 A 315690.57 315690.57 0 1 0 36045839.00 24624437.00  zM 35772441.92 24782281.47 m -208737.53 0 a 208737.53 208737.53 0 1 1 417475.06 0a 208737.53 208737.53 0 1 1 -417475.06 0"/>
<path id="N" d="M 34614595.00 30513610.00 L 34602272.88 30523064.88 L 26229366.55 22150158.55 L 26240675.00 22093307.00 L 26240675.00 21089371.00 A 190667.29 190667.29 0 1 0 25859331.00 21089371.00 L 25859331.00 22093307.00 A 190667.29 190667.29 0 0 0 26122970.00 22269465.00 L 26128613.84 22265693.84 L 34497003.89 30634083.89 L 34467505.00 30705301.00 A 315689.64 315689.64 0 1 0 34614595.00 30513610.00  zM 34772441.92 30787005.47 m -208737.53 0 a 208737.53 208737.53 0 1 1 417475.06 0a 208737.53 208737.53 0 1 1 -417475.06 0"/>
<path id="N" d="M 30342616.00 34451575.00 L 30342616.00 33717217.00 L 32559252.00 33717217.00 L 32588516.00 33711396.00 L 32613324.00 33694820.00 L 33444667.00 32863477.00 L 34466815.40 32863477.00 L 34467505.00 32868715.00 A 315695.14 315695.14 0 1 0 34467505.00 32705301.00 L 34466815.40 32710539.00 L 33412992.00 32710538.00 L 33383729.00 32716360.00 L 33358920.00 32732936.00 L 32527577.00 33564279.00 L 30342323.60 33564279.00 A 248961.86 248961.86 0 0 0 29840848.00 33565749.00 L 29840848.00 34451575.00 A 250882.20 250882.20 0 0 0 30342616.00 34451575.00  zM 34772441.92 32787005.47 m -208737.53 0 a 208737.53 208737.53 0 1 1 417475.06 0a 208737.53 208737.53 0 1 1 -417475.06 0"/>
<path id="N" d="M 34467505.00 25705301.00 L 34466815.40 25710539.00 L 33775369.01 25710539.00 L 30226974.58 22162143.62 L 30240667.00 22093307.00 L 30240667.00 21089371.00 A 190667.29 190667.29 0 1 0 29859323.00 21089371.00 L 29859323.00 22093307.00 A 190667.29 190667.29 0 0 0 30118829.95 22270286.91 L 33689623.00 25841080.00 L 33714432.00 25857656.00 L 33743700.03 25863477.00 L 34466815.40 25863477.00 L 34467505.00 25868715.00 A 315695.14 315695.14 0 1 0 34467505.00 25705301.00  zM 34772441.92 25787005.47 m -208737.53 0 a 208737.53 208737.53 0 1 1 417475.06 0a 208737.53 208737.53 0 1 1 -417475.06 0"/>
<path id="N" d="M 35772433.64 17782268.96 m -315709.31 0 a 315709.31 315709.31 0 1 1 631418.63 0a 315709.31 315709.31 0 1 1 -631418.63 0M 35772441.92 17782281.47 m -208737.53 0 a 208737.53 208737.53 0 1 1 417475.06 0a 208737.53 208737.53 0 1 1 -417475.06 0"/>
<path id="N" d="M 31400000.00 28297463.00 L 30748516.00 28297463.00 L 25357049.00 22752102.00 L 25327988.00 22714229.00 L 25326714.60 22715082.40 L 25202542.00 22529790.84 L 25202542.00 22201624.64 L 25226163.00 22166274.00 L 25240677.00 22093307.00 L 25240677.00 21089371.00 L 25226163.00 21016404.00 L 25184830.00 20954546.00 L 25152537.00 20932968.09 L 25152537.00 20413183.00 L 26359832.00 19205888.00 L 26392898.00 19156402.00 L 26404509.00 19098028.00 L 26404509.00 18643349.00 L 26944095.00 18643349.00 L 26944095.00 18755905.00 L 27455905.00 18755905.00 L 27455905.00 18244095.00 L 26944095.00 18244095.00 L 26944095.00 18338275.00 L 25998523.00 18338275.00 L 25998523.00 18244095.00 L 25486713.00 18244095.00 L 25486713.00 18755905.00 L 25998523.00 18755905.00 L 25998523.00 18643349.00 L 26099435.00 18643349.00 L 26099435.00 19034845.00 L 24892140.00 20242140.00 L 24859074.00 20291626.00 L 24847463.00 20350000.00 L 24847463.00 21400000.00 L 24859333.00 21458760.62 L 24859333.00 22093307.00 L 24873847.00 22166274.00 L 24897468.00 22201624.64 L 24897468.00 22576176.00 L 24900419.42 22591013.92 L 24900440.00 22606138.00 L 24906167.91 22619913.80 L 24909079.00 22634549.00 L 24917482.52 22647125.81 L 24923290.00 22661093.00 L 25073286.00 22884917.00 L 25082760.86 22894366.45 L 25138471.30 22965260.19 L 30486824.00 28467189.00 L 30577473.00 28557860.00 L 30626959.00 28590926.00 L 30685333.00 28602537.00 L 31400000.00 28602537.00 A 152536.45 152536.45 0 0 0 31400000.00 28297463.00  zM 25742616.59 18500001.48 m -160563.52 0 a 160563.52 160563.52 0 1 1 321127.04 0a 160563.52 160563.52 0 1 1 -321127.04 0M 27199998.59 18500001.48 m -160563.52 0 a 160563.52 160563.52 0 1 1 321127.04 0a 160563.52 160563.52 0 1 1 -321127.04 0"/>
<path id="N" d="M 34772433.64 27786992.96 m -315709.31 0 a 315709.31 315709.31 0 1 1 631418.63 0a 315709.31 315709.31 0 1 1 -631418.63 0M 34772441.92 27787005.47 m -208737.53 0 a 208737.53 208737.53 0 1 1 417475.06 0a 208737.53 208737.53 0 1 1 -417475.06 0"/>
<path id="N" d="M 17100001.79 14850002.99 m -593404.85 0 a 593404.85 593404.85 0 1 1 1186809.70 0a 593404.85 593404.85 0 1 1 -1186809.70 0M 17100001.69 14849992.57 m -436815.43 0 a 436815.43 436815.43 0 1 1 873630.85 0a 436815.43 436815.43 0 1 1 -873630.85 0"/>
<path id="N" d="M 36391340.79 14850002.99 m -593404.85 0 a 593404.85 593404.85 0 1 1 1186809.70 0a 593404.85 593404.85 0 1 1 -1186809.70 0M 36391340.69 14849992.57 m -436815.43 0 a 436815.43 436815.43 0 1 1 873630.85 0a 436815.43 436815.43 0 1 1 -873630.85 0"/>
<path id="N" d="M 36391340.79 37684648.99 m -593404.85 0 a 593404.85 593404.85 0 1 1 1186809.70 0a 593404.85 593404.85 0 1 1 -1186809.70 0M 36391340.69 37684638.57 m -436815.43 0 a 436815.43 436815.43 0 1 1 873630.85 0a 436815.43 436815.43 0 1 1 -873630.85 0"/>
<path id="N" d="M 17100001.79 37684648.99 m -593404.85 0 a 593404.85 593404.85 0 1 1 1186809.70 0a 593404.85 593404.85 0 1 1 -1186809.70 0M 17100001.69 37684638.57 m -436815.43 0 a 436815.43 436815.43 0 1 1 873630.85 0a 436815.43 436815.43 0 1 1 -873630.85 0"/>
<path id="N" d="M 29348269.99 36805621.15 m -476507.85 0 a 476507.85 476507.85 0 1 1 953015.70 0a 476507.85 476507.85 0 1 1 -953015.70 0M 29348267.69 36805603.39 m -317686.61 0 a 317686.61 317686.61 0 1 1 635373.23 0a 317686.61 317686.61 0 1 1 -635373.23 0"/>
<path id="N" d="M 28334490.13 35791843.28 m -565852.01 0 a 565852.01 565852.01 0 1 1 1131704.03 0a 565852.01 565852.01 0 1 1 -1131704.03 0M 28334484.02 35791836.67 m -377237.33 0 a 377237.33 377237.33 0 1 1 754474.66 0a 377237.33 377237.33 0 1 1 -754474.66 0"/>
<path id="N" d="M 30362050.13 37819403.28 m -565852.01 0 a 565852.01 565852.01 0 1 1 1131704.03 0a 565852.01 565852.01 0 1 1 -1131704.03 0M 30362044.02 37819396.67 m -377237.33 0 a 377237.33 377237.33 0 1 1 754474.66 0a 377237.33 377237.33 0 1 1 -754474.66 0"/>
<path id="N" d="M 28334490.13 37819403.28 m -565852.01 0 a 565852.01 565852.01 0 1 1 1131704.03 0a 565852.01 565852.01 0 1 1 -1131704.03 0M 28334484.02 37819396.67 m -377237.33 0 a 377237.33 377237.33 0 1 1 754474.66 0a 377237.33 377237.33 0 1 1 -754474.66 0"/>
<path id="N" d="M 30362050.13 35791843.28 m -565852.01 0 a 565852.01 565852.01 0 1 1 1131704.03 0a 565852.01 565852.01 0 1 1 -1131704.03 0M 30362044.02 35791836.67 m -377237.33 0 a 377237.33 377237.33 0 1 1 754474.66 0a 377237.33 377237.33 0 1 1 -754474.66 0"/>
<path id="N" d="M 34772433.64 17786992.96 m -315709.31 0 a 315709.31 315709.31 0 1 1 631418.63 0a 315709.31 315709.31 0 1 1 -631418.63 0M 34772441.92 17787005.47 m -208737.53 0 a 208737.53 208737.53 0 1 1 417475.06 0a 208737.53 208737.53 0 1 1 -417475.06 0"/>
<path id="N" d="M 34772433.64 20786992.96 m -315709.31 0 a 315709.31 315709.31 0 1 1 631418.63 0a 315709.31 315709.31 0 1 1 -631418.63 0M 34772441.92 20787005.47 m -208737.53 0 a 208737.53 208737.53 0 1 1 417475.06 0a 208737.53 208737.53 0 1 1 -417475.06 0"/>
<path id="N" d="M 34772433.64 19786992.96 m -315709.31 0 a 315709.31 315709.31 0 1 1 631418.63 0a 315709.31 315709.31 0 1 1 -631418.63 0M 34772441.92 19787005.47 m -208737.53 0 a 208737.53 208737.53 0 1 1 417475.06 0a 208737.53 208737.53 0 1 1 -417475.06 0"/>
<path id="N" d="M 34772433.64 18786992.96 m -315709.31 0 a 315709.31 315709.31 0 1 1 631418.63 0a 315709.31 315709.31 0 1 1 -631418.63 0M 34772441.92 18787005.47 m -208737.53 0 a 208737.53 208737.53 0 1 1 417475.06 0a 208737.53 208737.53 0 1 1 -417475.06 0"/>
<path id="N" d="M 34772433.64 34786992.96 m -315709.31 0 a 315709.31 315709.31 0 1 1 631418.63 0a 315709.31 315709.31 0 1 1 -631418.63 0M 34772441.92 34787005.47 m -208737.53 0 a 208737.53 208737.53 0 1 1 417475.06 0a 208737.53 208737.53 0 1 1 -417475.06 0"/>
<path id="N" d="M 34772433.64 22786992.96 m -315709.31 0 a 315709.31 315709.31 0 1 1 631418.63 0a 315709.31 315709.31 0 1 1 -631418.63 0M 34772441.92 22787005.47 m -208737.53 0 a 208737.53 208737.53 0 1 1 417475.06 0a 208737.53 208737.53 0 1 1 -417475.06 0"/>
<path id="N" d="M 34772433.64 21786992.96 m -315709.31 0 a 315709.31 315709.31 0 1 1 631418.63 0a 315709.31 315709.31 0 1 1 -631418.63 0M 34772441.92 21787005.47 m -208737.53 0 a 208737.53 208737.53 0 1 1 417475.06 0a 208737.53 208737.53 0 1 1 -417475.06 0"/>
<path id="N" d="M 35085433.00 35474016.00 L 34459449.00 35474016.00 L 34459449.00 36100000.00 L 35085433.00 36100000.00 L 35085433.00 35474016.00  zM 34772441.92 35787005.47 m -208737.53 0 a 208737.53 208737.53 0 1 1 417475.06 0a 208737.53 208737.53 0 1 1 -417475.06 0"/>
<path id="N" d="M 27740672.00 22093307.00 L 27740672.00 21089371.00 A 190667.29 190667.29 0 0 0 27359328.00 21089371.00 L 27359328.00 22093307.00 A 190667.29 190667.29 0 0 0 27740672.00 22093307.00  z"/>
<path id="N" d="M 28240671.00 22093307.00 L 28240671.00 21089371.00 A 190667.29 190667.29 0 0 0 27859327.00 21089371.00 L 27859327.00 22093307.00 A 190667.29 190667.29 0 0 0 28240671.00 22093307.00  z"/>
<path id="N" d="M 24191733.00 17846064.00 L 23542127.00 17846064.00 L 23542127.00 18357874.00 L 24191733.00 18357874.00 L 24191733.00 17846064.00  z"/>
<path id="N" d="M 16494881.00 17846064.00 L 15845275.00 17846064.00 L 15845275.00 18357874.00 L 16494881.00 18357874.00 L 16494881.00 17846064.00  z"/>
<path id="N" d="M 19683858.00 18653150.00 L 19565748.00 18653150.00 L 19565748.00 19046850.00 L 19683858.00 19046850.00 L 19683858.00 18653150.00  z"/>
<path id="N" d="M 31643026.00 38300000.00 L 31643026.00 37264214.00 L 31644613.00 37264214.00 A 1094661.39 1094661.39 0 0 0 31324008.00 36490206.00 L 31322886.50 36491327.50 L 31308672.00 36477114.00 L 31309794.00 36475992.00 A 1094573.89 1094573.89 0 0 0 30535786.00 36155387.00 L 30535786.00 36156974.00 L 28941802.51 36157749.82 L 28768535.00 36140684.00 L 28598175.00 36089006.00 L 28441171.00 36005086.00 L 28306585.31 35894634.90 L 26541035.00 34127987.90 L 26541035.00 33565749.00 A 250882.20 250882.20 0 0 0 26039267.00 33565749.00 L 26039267.00 34451575.00 A 250882.20 250882.20 0 0 0 26541035.00 34451575.00 L 26541035.00 34391104.16 L 28172816.60 36022886.40 L 28171695.00 36024008.00 A 1094573.89 1094573.89 0 0 0 28945703.00 36344613.00 L 28945703.00 36343026.00 L 30539686.49 36342250.18 L 30712954.00 36359316.00 L 30883314.00 36410994.00 L 31040318.00 36494914.00 L 31174905.17 36605366.32 L 31194635.50 36625097.04 L 31305086.00 36759682.00 L 31389006.00 36916686.00 L 31440684.00 37087046.00 L 31457749.82 37260313.51 L 31456974.00 38300000.00 A 93018.74 93018.74 0 1 0 31643026.00 38300000.00  z"/>
<path id="N" d="M 33477893.00 37591339.00 L 32977893.00 37591339.00 L 32977893.00 39008661.00 L 33477893.00 39008661.00 L 33477893.00 37591339.00  z"/>
<path id="N" d="M 17715354.00 18653150.00 L 17597244.00 18653150.00 L 17597244.00 19046850.00 L 17715354.00 19046850.00 L 17715354.00 18653150.00  z"/>
<path id="N" d="M 18109055.00 18653150.00 L 17990945.00 18653150.00 L 17990945.00 19046850.00 L 18109055.00 19046850.00 L 18109055.00 18653150.00  z"/>
<path id="N" d="M 35772433.64 20782268.96 m -315709.31 0 a 315709.31 315709.31 0 1 1 631418.63 0a 315709.31 315709.31 0 1 1 -631418.63 0M 35772441.92 20782281.47 m -208737.53 0 a 208737.53 208737.53 0 1 1 417475.06 0a 208737.53 208737.53 0 1 1 -417475.06 0"/>
<path id="N" d="M 20077559.00 18653150.00 L 19959449.00 18653150.00 L 19959449.00 19046850.00 L 20077559.00 19046850.00 L 20077559.00 18653150.00  z"/>
</g>
</svg>
