<svg width="55.99999976mm" height="64.99999954mm" viewBox="0 0 22047244 25590551"  version="1.1" xmlns="http://www.w3.org/2000/svg" xmlns:xlink="http://www.w3.org/1999/xlink">
<desc>
Origin 0 0 Bound 15722441 13637008 22047244 25590551
</desc>
<g fill-rule="evenodd" fill="rgb(255, 0, 255)" stroke="black" stroke-width="1" transform="translate(0, 25590551) scale(1, -1) translate(-15722441, -13637008)">
<path id="N" d="M 37769685.00 13637008.00 L 15722441.00 13637008.00 L 15722441.00 39227559.00 L 37769685.00 39227559.00 L 37769685.00 13637008.00  zM 17099998.22 14850007.46 m -613181.54 0 a 613181.54 613181.54 0 1 1 1226363.09 0a 613181.54 613181.54 0 1 1 -1226363.09 0M 18141339.00 19866535.00 L 17983859.00 19866535.00 L 17983859.00 19433465.00 L 18141339.00 19433465.00 L 18141339.00 19866535.00  zM 17353937.00 19866535.00 L 17196457.00 19866535.00 L 17196457.00 19433465.00 L 17353937.00 19433465.00 L 17353937.00 19866535.00  zM 17747638.00 19866535.00 L 17590158.00 19866535.00 L 17590158.00 19433465.00 L 17747638.00 19433465.00 L 17747638.00 19866535.00  zM 18535039.00 19866535.00 L 18377559.00 19866535.00 L 18377559.00 19433465.00 L 18535039.00 19433465.00 L 18535039.00 19866535.00  zM 16527165.00 20673621.00 L 15838189.00 20673621.00 L 15838189.00 20122441.00 L 16527165.00 20122441.00 L 16527165.00 20673621.00  zM 18928740.00 19866535.00 L 18771260.00 19866535.00 L 18771260.00 19433465.00 L 18928740.00 19433465.00 L 18928740.00 19866535.00  zM 19322441.00 19866535.00 L 19164961.00 19866535.00 L 19164961.00 19433465.00 L 19322441.00 19433465.00 L 19322441.00 19866535.00  zM 19716142.00 19866535.00 L 19558662.00 19866535.00 L 19558662.00 19433465.00 L 19716142.00 19433465.00 L 19716142.00 19866535.00  zM 20109843.00 19866535.00 L 19952363.00 19866535.00 L 19952363.00 19433465.00 L 20109843.00 19433465.00 L 20109843.00 19866535.00  zM 20503544.00 19866535.00 L 20346064.00 19866535.00 L 20346064.00 19433465.00 L 20503544.00 19433465.00 L 20503544.00 19866535.00  zM 20897245.00 19866535.00 L 20739765.00 19866535.00 L 20739765.00 19433465.00 L 20897245.00 19433465.00 L 20897245.00 19866535.00  zM 21290946.00 19866535.00 L 21133466.00 19866535.00 L 21133466.00 19433465.00 L 21290946.00 19433465.00 L 21290946.00 19866535.00  zM 21684647.00 19866535.00 L 21527167.00 19866535.00 L 21527167.00 19433465.00 L 21684647.00 19433465.00 L 21684647.00 19866535.00  zM 22078347.00 19866535.00 L 21920867.00 19866535.00 L 21920867.00 19433465.00 L 22078347.00 19433465.00 L 22078347.00 19866535.00  zM 22472048.00 19866535.00 L 22314568.00 19866535.00 L 22314568.00 19433465.00 L 22472048.00 19433465.00 L 22472048.00 19866535.00  zM 22865749.00 19866535.00 L 22708269.00 19866535.00 L 22708269.00 19433465.00 L 22865749.00 19433465.00 L 22865749.00 19866535.00  zM 24224017.00 20673621.00 L 23535041.00 20673621.00 L 23535041.00 20122441.00 L 24224017.00 20122441.00 L 24224017.00 20673621.00  zM 25742621.68 17499988.54 m -277979.46 0 a 277979.46 277979.46 0 1 1 555958.91 0a 277979.46 277979.46 0 1 1 -555958.91 0M 26018208.00 18775590.00 L 25467028.00 18775590.00 L 25467028.00 18224410.00 L 26018208.00 18224410.00 L 26018208.00 18775590.00  zM 27475590.00 18775590.00 L 26924410.00 18775590.00 L 26924410.00 18224410.00 L 27475590.00 18224410.00 L 27475590.00 18775590.00  zM 27200003.68 17499988.54 m -277979.46 0 a 277979.46 277979.46 0 1 1 555958.91 0a 277979.46 277979.46 0 1 1 -555958.91 0M 35765354.12 18800002.43 m -315690.57 0 a 315690.57 315690.57 0 1 1 631381.15 0a 315690.57 315690.57 0 1 1 -631381.15 0M 35765354.12 16800002.43 m -315690.57 0 a 315690.57 315690.57 0 1 1 631381.15 0a 315690.57 315690.57 0 1 1 -631381.15 0M 35765354.12 17800002.43 m -315690.57 0 a 315690.57 315690.57 0 1 1 631381.15 0a 315690.57 315690.57 0 1 1 -631381.15 0M 35765354.12 20800002.43 m -315690.57 0 a 315690.57 315690.57 0 1 1 631381.15 0a 315690.57 315690.57 0 1 1 -631381.15 0M 35765354.12 21800002.43 m -315690.57 0 a 315690.57 315690.57 0 1 1 631381.15 0a 315690.57 315690.57 0 1 1 -631381.15 0M 36391337.22 14850007.46 m -613181.54 0 a 613181.54 613181.54 0 1 1 1226363.09 0a 613181.54 613181.54 0 1 1 -1226363.09 0M 36765354.12 16800002.43 m -315690.57 0 a 315690.57 315690.57 0 1 1 631381.15 0a 315690.57 315690.57 0 1 1 -631381.15 0M 36765354.12 17800002.43 m -315690.57 0 a 315690.57 315690.57 0 1 1 631381.15 0a 315690.57 315690.57 0 1 1 -631381.15 0M 36765354.12 18800002.43 m -315690.57 0 a 315690.57 315690.57 0 1 1 631381.15 0a 315690.57 315690.57 0 1 1 -631381.15 0M 35765354.12 19800002.43 m -315690.57 0 a 315690.57 315690.57 0 1 1 631381.15 0a 315690.57 315690.57 0 1 1 -631381.15 0M 36765354.12 19800002.43 m -315690.57 0 a 315690.57 315690.57 0 1 1 631381.15 0a 315690.57 315690.57 0 1 1 -631381.15 0M 36765354.12 20800002.43 m -315690.57 0 a 315690.57 315690.57 0 1 1 631381.15 0a 315690.57 315690.57 0 1 1 -631381.15 0M 36765354.12 21800002.43 m -315690.57 0 a 315690.57 315690.57 0 1 1 631381.15 0a 315690.57 315690.57 0 1 1 -631381.15 0M 17099998.22 37684653.46 m -613181.54 0 a 613181.54 613181.54 0 1 1 1226363.09 0a 613181.54 613181.54 0 1 1 -1226363.09 0M 29694878.62 36386234.42 m -583503.58 0 a 583503.58 583503.58 0 1 1 1167007.17 0a 583503.58 583503.58 0 1 1 -1167007.17 0M 29694878.62 38413794.42 m -583503.58 0 a 583503.58 583503.58 0 1 1 1167007.17 0a 583503.58 583503.58 0 1 1 -1167007.17 0M 30708658.02 37400006.86 m -496366.14 0 a 496366.14 496366.14 0 1 1 992732.28 0a 496366.14 496366.14 0 1 1 -992732.28 0M 31722438.62 38413794.42 m -583503.58 0 a 583503.58 583503.58 0 1 1 1167007.17 0a 583503.58 583503.58 0 1 1 -1167007.17 0M 35765354.12 27800002.43 m -315690.57 0 a 315690.57 315690.57 0 1 1 631381.15 0a 315690.57 315690.57 0 1 1 -631381.15 0M 35765354.12 29800002.43 m -315690.57 0 a 315690.57 315690.57 0 1 1 631381.15 0a 315690.57 315690.57 0 1 1 -631381.15 0M 31722438.62 36386234.42 m -583503.58 0 a 583503.58 583503.58 0 1 1 1167007.17 0a 583503.58 583503.58 0 1 1 -1167007.17 0M 36078346.00 36112992.00 L 35452362.00 36112992.00 L 35452362.00 35487008.00 L 36078346.00 35487008.00 L 36078346.00 36112992.00  zM 35765354.12 22800002.43 m -315690.57 0 a 315690.57 315690.57 0 1 1 631381.15 0a 315690.57 315690.57 0 1 1 -631381.15 0M 35765354.12 25800002.43 m -315690.57 0 a 315690.57 315690.57 0 1 1 631381.15 0a 315690.57 315690.57 0 1 1 -631381.15 0M 35765354.12 26800002.43 m -315690.57 0 a 315690.57 315690.57 0 1 1 631381.15 0a 315690.57 315690.57 0 1 1 -631381.15 0M 35765354.12 28800002.43 m -315690.57 0 a 315690.57 315690.57 0 1 1 631381.15 0a 315690.57 315690.57 0 1 1 -631381.15 0M 35765354.12 30800002.43 m -315690.57 0 a 315690.57 315690.57 0 1 1 631381.15 0a 315690.57 315690.57 0 1 1 -631381.15 0M 35765354.12 31800002.43 m -315690.57 0 a 315690.57 315690.57 0 1 1 631381.15 0a 315690.57 315690.57 0 1 1 -631381.15 0M 35765354.12 32800002.43 m -315690.57 0 a 315690.57 315690.57 0 1 1 631381.15 0a 315690.57 315690.57 0 1 1 -631381.15 0M 35765354.12 33800002.43 m -315690.57 0 a 315690.57 315690.57 0 1 1 631381.15 0a 315690.57 315690.57 0 1 1 -631381.15 0M 35765354.12 34800002.43 m -315690.57 0 a 315690.57 315690.57 0 1 1 631381.15 0a 315690.57 315690.57 0 1 1 -631381.15 0M 35765354.12 23800002.43 m -315690.57 0 a 315690.57 315690.57 0 1 1 631381.15 0a 315690.57 315690.57 0 1 1 -631381.15 0M 36765354.12 22800002.43 m -315690.57 0 a 315690.57 315690.57 0 1 1 631381.15 0a 315690.57 315690.57 0 1 1 -631381.15 0M 36765354.12 23800002.43 m -315690.57 0 a 315690.57 315690.57 0 1 1 631381.15 0a 315690.57 315690.57 0 1 1 -631381.15 0M 35765354.12 24800002.43 m -315690.57 0 a 315690.57 315690.57 0 1 1 631381.15 0a 315690.57 315690.57 0 1 1 -631381.15 0M 36765354.12 24800002.43 m -315690.57 0 a 315690.57 315690.57 0 1 1 631381.15 0a 315690.57 315690.57 0 1 1 -631381.15 0M 36765354.12 25800002.43 m -315690.57 0 a 315690.57 315690.57 0 1 1 631381.15 0a 315690.57 315690.57 0 1 1 -631381.15 0M 36765354.12 26800002.43 m -315690.57 0 a 315690.57 315690.57 0 1 1 631381.15 0a 315690.57 315690.57 0 1 1 -631381.15 0M 36765354.12 27800002.43 m -315690.57 0 a 315690.57 315690.57 0 1 1 631381.15 0a 315690.57 315690.57 0 1 1 -631381.15 0M 36765354.12 28800002.43 m -315690.57 0 a 315690.57 315690.57 0 1 1 631381.15 0a 315690.57 315690.57 0 1 1 -631381.15 0M 36765354.12 29800002.43 m -315690.57 0 a 315690.57 315690.57 0 1 1 631381.15 0a 315690.57 315690.57 0 1 1 -631381.15 0M 36765354.12 30800002.43 m -315690.57 0 a 315690.57 315690.57 0 1 1 631381.15 0a 315690.57 315690.57 0 1 1 -631381.15 0M 36765354.12 31800002.43 m -315690.57 0 a 315690.57 315690.57 0 1 1 631381.15 0a 315690.57 315690.57 0 1 1 -631381.15 0M 36765354.12 32800002.43 m -315690.57 0 a 315690.57 315690.57 0 1 1 631381.15 0a 315690.57 315690.57 0 1 1 -631381.15 0M 36765354.12 33800002.43 m -315690.57 0 a 315690.57 315690.57 0 1 1 631381.15 0a 315690.57 315690.57 0 1 1 -631381.15 0M 36765354.12 34800002.43 m -315690.57 0 a 315690.57 315690.57 0 1 1 631381.15 0a 315690.57 315690.57 0 1 1 -631381.15 0M 37078346.00 36112992.00 L 36452362.00 36112992.00 L 36452362.00 35487008.00 L 37078346.00 35487008.00 L 37078346.00 36112992.00  zM 36391337.22 37684653.46 m -613181.54 0 a 613181.54 613181.54 0 1 1 1226363.09 0a 613181.54 613181.54 0 1 1 -1226363.09 0"/>
</g>
</svg>
