<svg width="55.99999976mm" height="64.99999954mm" viewBox="0 0 22047244 25590551"  version="1.1" xmlns="http://www.w3.org/2000/svg" xmlns:xlink="http://www.w3.org/1999/xlink">
<desc>
Origin 0 0 Bound 15722441 13637008 22047244 25590551
</desc>
<g fill-rule="evenodd" fill="rgb(0, 0, 255)" stroke="black" stroke-width="1" transform="translate(0, 25590551) scale(1, -1) translate(-15722441, -13637008)">
<path id="N" d="M 22046063.00 19153150.00 L 21927953.00 19153150.00 L 21927953.00 19546850.00 L 22046063.00 19546850.00 L 22046063.00 19153150.00  z"/>
<path id="N" d="M 35772433.64 18782268.96 m -315709.31 0 a 315709.31 315709.31 0 1 1 631418.63 0a 315709.31 315709.31 0 1 1 -631418.63 0M 35772441.92 18782281.47 m -208737.53 0 a 208737.53 208737.53 0 1 1 417475.06 0a 208737.53 208737.53 0 1 1 -417475.06 0"/>
<path id="N" d="M 18502755.00 19153150.00 L 18384645.00 19153150.00 L 18384645.00 19546850.00 L 18502755.00 19546850.00 L 18502755.00 19153150.00  z"/>
<path id="N" d="M 22439764.00 19153150.00 L 22321654.00 19153150.00 L 22321654.00 19546850.00 L 22439764.00 19546850.00 L 22439764.00 19153150.00  z"/>
<path id="N" d="M 35772433.64 30782268.96 m -315709.31 0 a 315709.31 315709.31 0 1 1 631418.63 0a 315709.31 315709.31 0 1 1 -631418.63 0M 35772441.92 30782281.47 m -208737.53 0 a 208737.53 208737.53 0 1 1 417475.06 0a 208737.53 208737.53 0 1 1 -417475.06 0"/>
<path id="N" d="M 21258662.00 19153150.00 L 21140552.00 19153150.00 L 21140552.00 19546850.00 L 21258662.00 19546850.00 L 21258662.00 19153150.00  z"/>
<path id="N" d="M 35772433.64 25782268.96 m -315709.31 0 a 315709.31 315709.31 0 1 1 631418.63 0a 315709.31 315709.31 0 1 1 -631418.63 0M 35772441.92 25782281.47 m -208737.53 0 a 208737.53 208737.53 0 1 1 417475.06 0a 208737.53 208737.53 0 1 1 -417475.06 0"/>
<path id="N" d="M 35772433.64 23782268.96 m -315709.31 0 a 315709.31 315709.31 0 1 1 631418.63 0a 315709.31 315709.31 0 1 1 -631418.63 0M 35772441.92 23782281.47 m -208737.53 0 a 208737.53 208737.53 0 1 1 417475.06 0a 208737.53 208737.53 0 1 1 -417475.06 0"/>
<path id="N" d="M 17321653.00 19153150.00 L 17203543.00 19153150.00 L 17203543.00 19546850.00 L 17321653.00 19546850.00 L 17321653.00 19153150.00  z"/>
<path id="N" d="M 34772433.64 28786992.96 m -315709.31 0 a 315709.31 315709.31 0 1 1 631418.63 0a 315709.31 315709.31 0 1 1 -631418.63 0M 34772441.92 28787005.47 m -208737.53 0 a 208737.53 208737.53 0 1 1 417475.06 0a 208737.53 208737.53 0 1 1 -417475.06 0"/>
<path id="N" d="M 25742611.77 17499992.07 m -258122.37 0 a 258122.37 258122.37 0 1 1 516244.75 0a 258122.37 258122.37 0 1 1 -516244.75 0M 25742616.59 17500001.48 m -160563.52 0 a 160563.52 160563.52 0 1 1 321127.04 0a 160563.52 160563.52 0 1 1 -321127.04 0"/>
<path id="N" d="M 35772433.64 29782268.96 m -315709.31 0 a 315709.31 315709.31 0 1 1 631418.63 0a 315709.31 315709.31 0 1 1 -631418.63 0M 35772441.92 29782281.47 m -208737.53 0 a 208737.53 208737.53 0 1 1 417475.06 0a 208737.53 208737.53 0 1 1 -417475.06 0"/>
<path id="N" d="M 34772433.64 16786992.96 m -315709.31 0 a 315709.31 315709.31 0 1 1 631418.63 0a 315709.31 315709.31 0 1 1 -631418.63 0M 34772441.92 16787005.47 m -208737.53 0 a 208737.53 208737.53 0 1 1 417475.06 0a 208737.53 208737.53 0 1 1 -417475.06 0"/>
<path id="N" d="M 34772433.64 31786992.96 m -315709.31 0 a 315709.31 315709.31 0 1 1 631418.63 0a 315709.31 315709.31 0 1 1 -631418.63 0M 34772441.92 31787005.47 m -208737.53 0 a 208737.53 208737.53 0 1 1 417475.06 0a 208737.53 208737.53 0 1 1 -417475.06 0"/>
<path id="N" d="M 35772433.64 33782268.96 m -315709.31 0 a 315709.31 315709.31 0 1 1 631418.63 0a 315709.31 315709.31 0 1 1 -631418.63 0M 35772441.92 33782281.47 m -208737.53 0 a 208737.53 208737.53 0 1 1 417475.06 0a 208737.53 208737.53 0 1 1 -417475.06 0"/>
<path id="N" d="M 35772433.64 21782268.96 m -315709.31 0 a 315709.31 315709.31 0 1 1 631418.63 0a 315709.31 315709.31 0 1 1 -631418.63 0M 35772441.92 21782281.47 m -208737.53 0 a 208737.53 208737.53 0 1 1 417475.06 0a 208737.53 208737.53 0 1 1 -417475.06 0"/>
<path id="N" d="M 35772433.64 26782268.96 m -315709.31 0 a 315709.31 315709.31 0 1 1 631418.63 0a 315709.31 315709.31 0 1 1 -631418.63 0M 35772441.92 26782281.47 m -208737.53 0 a 208737.53 208737.53 0 1 1 417475.06 0a 208737.53 208737.53 0 1 1 -417475.06 0"/>
<path id="N" d="M 34772433.64 23786992.96 m -315709.31 0 a 315709.31 315709.31 0 1 1 631418.63 0a 315709.31 315709.31 0 1 1 -631418.63 0M 34772441.92 23787005.47 m -208737.53 0 a 208737.53 208737.53 0 1 1 417475.06 0a 208737.53 208737.53 0 1 1 -417475.06 0"/>
<path id="N" d="M 35772433.64 19782268.96 m -315709.31 0 a 315709.31 315709.31 0 1 1 631418.63 0a 315709.31 315709.31 0 1 1 -631418.63 0M 35772441.92 19782281.47 m -208737.53 0 a 208737.53 208737.53 0 1 1 417475.06 0a 208737.53 208737.53 0 1 1 -417475.06 0"/>
<path id="N" d="M 27199993.77 17499992.07 m -258122.37 0 a 258122.37 258122.37 0 1 1 516244.75 0a 258122.37 258122.37 0 1 1 -516244.75 0M 27199998.59 17500001.48 m -160563.52 0 a 160563.52 160563.52 0 1 1 321127.04 0a 160563.52 160563.52 0 1 1 -321127.04 0"/>
<path id="N" d="M 29076461.47 36545336.47 m -100354.75 0 a 100354.75 100354.75 0 1 1 200709.51 0a 100354.75 100354.75 0 1 1 -200709.51 0"/>
<path id="N" d="M 29373311.47 36545336.47 m -100354.75 0 a 100354.75 100354.75 0 1 1 200709.51 0a 100354.75 100354.75 0 1 1 -200709.51 0"/>
<path id="N" d="M 31486801.47 36369300.47 m -100354.75 0 a 100354.75 100354.75 0 1 1 200709.51 0a 100354.75 100354.75 0 1 1 -200709.51 0"/>
<path id="N" d="M 29967011.47 36545336.47 m -100354.75 0 a 100354.75 100354.75 0 1 1 200709.51 0a 100354.75 100354.75 0 1 1 -200709.51 0"/>
<path id="N" d="M 28779809.47 36534491.47 m -100354.75 0 a 100354.75 100354.75 0 1 1 200709.51 0a 100354.75 100354.75 0 1 1 -200709.51 0"/>
<path id="N" d="M 28491906.47 36462159.47 m -100354.75 0 a 100354.75 100354.75 0 1 1 200709.51 0a 100354.75 100354.75 0 1 1 -200709.51 0"/>
<path id="N" d="M 29670161.47 36545336.47 m -100354.75 0 a 100354.75 100354.75 0 1 1 200709.51 0a 100354.75 100354.75 0 1 1 -200709.51 0"/>
<path id="N" d="M 30996853.47 36040849.47 m -100354.75 0 a 100354.75 100354.75 0 1 1 200709.51 0a 100354.75 100354.75 0 1 1 -200709.51 0"/>
<path id="N" d="M 26933754.47 34234594.47 m -100354.75 0 a 100354.75 100354.75 0 1 1 200709.51 0a 100354.75 100354.75 0 1 1 -200709.51 0"/>
<path id="N" d="M 26713880.47 33414623.47 m -100354.75 0 a 100354.75 100354.75 0 1 1 200709.51 0a 100354.75 100354.75 0 1 1 -200709.51 0"/>
<path id="N" d="M 26236884.47 33119182.47 m -100354.75 0 a 100354.75 100354.75 0 1 1 200709.51 0a 100354.75 100354.75 0 1 1 -200709.51 0"/>
<path id="N" d="M 27773372.47 35074213.47 m -100354.75 0 a 100354.75 100354.75 0 1 1 200709.51 0a 100354.75 100354.75 0 1 1 -200709.51 0"/>
<path id="N" d="M 26743345.47 33710007.47 m -100354.75 0 a 100354.75 100354.75 0 1 1 200709.51 0a 100354.75 100354.75 0 1 1 -200709.51 0"/>
<path id="N" d="M 26743345.47 34006857.47 m -100354.75 0 a 100354.75 100354.75 0 1 1 200709.51 0a 100354.75 100354.75 0 1 1 -200709.51 0"/>
<path id="N" d="M 26526481.47 33184402.47 m -100354.75 0 a 100354.75 100354.75 0 1 1 200709.51 0a 100354.75 100354.75 0 1 1 -200709.51 0"/>
<path id="N" d="M 26147043.47 34878625.47 m -100354.75 0 a 100354.75 100354.75 0 1 1 200709.51 0a 100354.75 100354.75 0 1 1 -200709.51 0"/>
<path id="N" d="M 27563468.47 34864308.47 m -100354.75 0 a 100354.75 100354.75 0 1 1 200709.51 0a 100354.75 100354.75 0 1 1 -200709.51 0"/>
<path id="N" d="M 27143658.47 34444499.47 m -100354.75 0 a 100354.75 100354.75 0 1 1 200709.51 0a 100354.75 100354.75 0 1 1 -200709.51 0"/>
<path id="N" d="M 25970434.47 33250042.47 m -100354.75 0 a 100354.75 100354.75 0 1 1 200709.51 0a 100354.75 100354.75 0 1 1 -200709.51 0"/>
<path id="N" d="M 26443861.47 34874231.47 m -100354.75 0 a 100354.75 100354.75 0 1 1 200709.51 0a 100354.75 100354.75 0 1 1 -200709.51 0"/>
<path id="N" d="M 26740699.47 34876880.47 m -100354.75 0 a 100354.75 100354.75 0 1 1 200709.51 0a 100354.75 100354.75 0 1 1 -200709.51 0"/>
<path id="N" d="M 28928687.47 35953165.47 m -100354.75 0 a 100354.75 100354.75 0 1 1 200709.51 0a 100354.75 100354.75 0 1 1 -200709.51 0"/>
<path id="N" d="M 28193182.47 35494022.47 m -100354.75 0 a 100354.75 100354.75 0 1 1 200709.51 0a 100354.75 100354.75 0 1 1 -200709.51 0"/>
<path id="N" d="M 26950603.47 35086785.47 m -100354.75 0 a 100354.75 100354.75 0 1 1 200709.51 0a 100354.75 100354.75 0 1 1 -200709.51 0"/>
<path id="N" d="M 27983277.47 35284117.47 m -100354.75 0 a 100354.75 100354.75 0 1 1 200709.51 0a 100354.75 100354.75 0 1 1 -200709.51 0"/>
<path id="N" d="M 27370413.47 35506594.47 m -100354.75 0 a 100354.75 100354.75 0 1 1 200709.51 0a 100354.75 100354.75 0 1 1 -200709.51 0"/>
<path id="N" d="M 28403087.47 35703927.47 m -100354.75 0 a 100354.75 100354.75 0 1 1 200709.51 0a 100354.75 100354.75 0 1 1 -200709.51 0"/>
<path id="N" d="M 27580317.47 35716499.47 m -100354.75 0 a 100354.75 100354.75 0 1 1 200709.51 0a 100354.75 100354.75 0 1 1 -200709.51 0"/>
<path id="N" d="M 27160508.47 35296690.47 m -100354.75 0 a 100354.75 100354.75 0 1 1 200709.51 0a 100354.75 100354.75 0 1 1 -200709.51 0"/>
<path id="N" d="M 29225533.47 35954660.47 m -100354.75 0 a 100354.75 100354.75 0 1 1 200709.51 0a 100354.75 100354.75 0 1 1 -200709.51 0"/>
<path id="N" d="M 28640444.47 35882199.47 m -100354.75 0 a 100354.75 100354.75 0 1 1 200709.51 0a 100354.75 100354.75 0 1 1 -200709.51 0"/>
<path id="N" d="M 27790222.47 35926404.47 m -100354.75 0 a 100354.75 100354.75 0 1 1 200709.51 0a 100354.75 100354.75 0 1 1 -200709.51 0"/>
<path id="N" d="M 29522383.47 35954660.47 m -100354.75 0 a 100354.75 100354.75 0 1 1 200709.51 0a 100354.75 100354.75 0 1 1 -200709.51 0"/>
<path id="N" d="M 29819233.47 35954660.47 m -100354.75 0 a 100354.75 100354.75 0 1 1 200709.51 0a 100354.75 100354.75 0 1 1 -200709.51 0"/>
<path id="N" d="M 30116083.47 35954660.47 m -100354.75 0 a 100354.75 100354.75 0 1 1 200709.51 0a 100354.75 100354.75 0 1 1 -200709.51 0"/>
<path id="N" d="M 31254660.47 37361545.47 m -100354.75 0 a 100354.75 100354.75 0 1 1 200709.51 0a 100354.75 100354.75 0 1 1 -200709.51 0"/>
<path id="N" d="M 31097686.47 37613495.47 m -100354.75 0 a 100354.75 100354.75 0 1 1 200709.51 0a 100354.75 100354.75 0 1 1 -200709.51 0"/>
<path id="N" d="M 31097686.47 37910345.47 m -100354.75 0 a 100354.75 100354.75 0 1 1 200709.51 0a 100354.75 100354.75 0 1 1 -200709.51 0"/>
<path id="N" d="M 31097686.47 38207195.47 m -100354.75 0 a 100354.75 100354.75 0 1 1 200709.51 0a 100354.75 100354.75 0 1 1 -200709.51 0"/>
<path id="N" d="M 31097686.47 38504045.47 m -100354.75 0 a 100354.75 100354.75 0 1 1 200709.51 0a 100354.75 100354.75 0 1 1 -200709.51 0"/>
<path id="N" d="M 31097686.47 38800895.47 m -100354.75 0 a 100354.75 100354.75 0 1 1 200709.51 0a 100354.75 100354.75 0 1 1 -200709.51 0"/>
<path id="N" d="M 28227586.47 36327049.47 m -100354.75 0 a 100354.75 100354.75 0 1 1 200709.51 0a 100354.75 100354.75 0 1 1 -200709.51 0"/>
<path id="N" d="M 30412933.47 35954660.47 m -100354.75 0 a 100354.75 100354.75 0 1 1 200709.51 0a 100354.75 100354.75 0 1 1 -200709.51 0"/>
<path id="N" d="M 30709562.47 35966124.47 m -100354.75 0 a 100354.75 100354.75 0 1 1 200709.51 0a 100354.75 100354.75 0 1 1 -200709.51 0"/>
<path id="N" d="M 30263861.47 36545336.47 m -100354.75 0 a 100354.75 100354.75 0 1 1 200709.51 0a 100354.75 100354.75 0 1 1 -200709.51 0"/>
<path id="N" d="M 28000126.47 36136308.47 m -100354.75 0 a 100354.75 100354.75 0 1 1 200709.51 0a 100354.75 100354.75 0 1 1 -200709.51 0"/>
<path id="N" d="M 31260608.47 36177058.47 m -100354.75 0 a 100354.75 100354.75 0 1 1 200709.51 0a 100354.75 100354.75 0 1 1 -200709.51 0"/>
<path id="N" d="M 31840095.47 37169518.47 m -100354.75 0 a 100354.75 100354.75 0 1 1 200709.51 0a 100354.75 100354.75 0 1 1 -200709.51 0"/>
<path id="N" d="M 25913663.47 34695176.47 m -100354.75 0 a 100354.75 100354.75 0 1 1 200709.51 0a 100354.75 100354.75 0 1 1 -200709.51 0"/>
<path id="N" d="M 27353563.47 34654404.47 m -100354.75 0 a 100354.75 100354.75 0 1 1 200709.51 0a 100354.75 100354.75 0 1 1 -200709.51 0"/>
<path id="N" d="M 31787158.47 36877427.47 m -100354.75 0 a 100354.75 100354.75 0 1 1 200709.51 0a 100354.75 100354.75 0 1 1 -200709.51 0"/>
<path id="N" d="M 31081094.47 36805653.47 m -100354.75 0 a 100354.75 100354.75 0 1 1 200709.51 0a 100354.75 100354.75 0 1 1 -200709.51 0"/>
<path id="N" d="M 31664448.47 36607127.47 m -100354.75 0 a 100354.75 100354.75 0 1 1 200709.51 0a 100354.75 100354.75 0 1 1 -200709.51 0"/>
<path id="N" d="M 30848180.47 36621612.47 m -100354.75 0 a 100354.75 100354.75 0 1 1 200709.51 0a 100354.75 100354.75 0 1 1 -200709.51 0"/>
<path id="N" d="M 31223000.47 37066388.47 m -100354.75 0 a 100354.75 100354.75 0 1 1 200709.51 0a 100354.75 100354.75 0 1 1 -200709.51 0"/>
<path id="N" d="M 30560702.47 36547609.47 m -100354.75 0 a 100354.75 100354.75 0 1 1 200709.51 0a 100354.75 100354.75 0 1 1 -200709.51 0"/>
<path id="N" d="M 32381436.00 37394489.00 L 32025305.34 37394489.00 L 32013689.00 37377104.00 A 100353.26 100353.26 0 0 0 31871769.00 37377104.00 L 31860152.66 37394489.00 L 31849940.00 37394489.00 L 31849940.00 37410038.04 L 31842376.00 37448064.00 L 31849940.00 37486089.96 L 31849940.00 39048031.00 L 32381436.00 39048031.00 L 32381436.00 37394489.00  z"/>
<path id="N" d="M 34605846.00 37394489.00 L 34074350.00 37394489.00 L 34074350.00 39048031.00 L 34605846.00 39048031.00 L 34605846.00 37394489.00  z"/>
<path id="N" d="M 19290157.00 19153150.00 L 19172047.00 19153150.00 L 19172047.00 19546850.00 L 19290157.00 19546850.00 L 19290157.00 19153150.00  z"/>
<path id="N" d="M 22833465.00 19153150.00 L 22715355.00 19153150.00 L 22715355.00 19546850.00 L 22833465.00 19546850.00 L 22833465.00 19153150.00  z"/>
<path id="N" d="M 21652363.00 19153150.00 L 21534253.00 19153150.00 L 21534253.00 19546850.00 L 21652363.00 19546850.00 L 21652363.00 19153150.00  z"/>
<path id="N" d="M 20471260.00 19153150.00 L 20353150.00 19153150.00 L 20353150.00 19546850.00 L 20471260.00 19546850.00 L 20471260.00 19153150.00  z"/>
<path id="N" d="M 34772433.64 29786992.96 m -315709.31 0 a 315709.31 315709.31 0 1 1 631418.63 0a 315709.31 315709.31 0 1 1 -631418.63 0M 34772441.92 29787005.47 m -208737.53 0 a 208737.53 208737.53 0 1 1 417475.06 0a 208737.53 208737.53 0 1 1 -417475.06 0"/>
<path id="N" d="M 35772433.64 16782268.96 m -315709.31 0 a 315709.31 315709.31 0 1 1 631418.63 0a 315709.31 315709.31 0 1 1 -631418.63 0M 35772441.92 16782281.47 m -208737.53 0 a 208737.53 208737.53 0 1 1 417475.06 0a 208737.53 208737.53 0 1 1 -417475.06 0"/>
<path id="N" d="M 34772433.64 24786992.96 m -315709.31 0 a 315709.31 315709.31 0 1 1 631418.63 0a 315709.31 315709.31 0 1 1 -631418.63 0M 34772441.92 24787005.47 m -208737.53 0 a 208737.53 208737.53 0 1 1 417475.06 0a 208737.53 208737.53 0 1 1 -417475.06 0"/>
<path id="N" d="M 35772433.64 22782268.96 m -315709.31 0 a 315709.31 315709.31 0 1 1 631418.63 0a 315709.31 315709.31 0 1 1 -631418.63 0M 35772441.92 22782281.47 m -208737.53 0 a 208737.53 208737.53 0 1 1 417475.06 0a 208737.53 208737.53 0 1 1 -417475.06 0"/>
<path id="N" d="M 35772433.64 28782268.96 m -315709.31 0 a 315709.31 315709.31 0 1 1 631418.63 0a 315709.31 315709.31 0 1 1 -631418.63 0M 35772441.92 28782281.47 m -208737.53 0 a 208737.53 208737.53 0 1 1 417475.06 0a 208737.53 208737.53 0 1 1 -417475.06 0"/>
<path id="N" d="M 34772433.64 33786992.96 m -315709.31 0 a 315709.31 315709.31 0 1 1 631418.63 0a 315709.31 315709.31 0 1 1 -631418.63 0M 34772441.92 33787005.47 m -208737.53 0 a 208737.53 208737.53 0 1 1 417475.06 0a 208737.53 208737.53 0 1 1 -417475.06 0"/>
<path id="N" d="M 35772433.64 32782268.96 m -315709.31 0 a 315709.31 315709.31 0 1 1 631418.63 0a 315709.31 315709.31 0 1 1 -631418.63 0M 35772441.92 32782281.47 m -208737.53 0 a 208737.53 208737.53 0 1 1 417475.06 0a 208737.53 208737.53 0 1 1 -417475.06 0"/>
<path id="N" d="M 35772433.64 34782268.96 m -315709.31 0 a 315709.31 315709.31 0 1 1 631418.63 0a 315709.31 315709.31 0 1 1 -631418.63 0M 35772441.92 34782281.47 m -208737.53 0 a 208737.53 208737.53 0 1 1 417475.06 0a 208737.53 208737.53 0 1 1 -417475.06 0"/>
<path id="N" d="M 36085433.00 35469292.00 L 35459449.00 35469292.00 L 35459449.00 36095276.00 L 36085433.00 36095276.00 L 36085433.00 35469292.00  zM 35772441.92 35782281.47 m -208737.53 0 a 208737.53 208737.53 0 1 1 417475.06 0a 208737.53 208737.53 0 1 1 -417475.06 0"/>
<path id="N" d="M 18896456.00 19153150.00 L 18778346.00 19153150.00 L 18778346.00 19546850.00 L 18896456.00 19546850.00 L 18896456.00 19153150.00  z"/>
<path id="N" d="M 20864961.00 19153150.00 L 20746851.00 19153150.00 L 20746851.00 19546850.00 L 20864961.00 19546850.00 L 20864961.00 19153150.00  z"/>
<path id="N" d="M 35772433.64 31782268.96 m -315709.31 0 a 315709.31 315709.31 0 1 1 631418.63 0a 315709.31 315709.31 0 1 1 -631418.63 0M 35772441.92 31782281.47 m -208737.53 0 a 208737.53 208737.53 0 1 1 417475.06 0a 208737.53 208737.53 0 1 1 -417475.06 0"/>
<path id="N" d="M 34772433.64 26786992.96 m -315709.31 0 a 315709.31 315709.31 0 1 1 631418.63 0a 315709.31 315709.31 0 1 1 -631418.63 0M 34772441.92 26787005.47 m -208737.53 0 a 208737.53 208737.53 0 1 1 417475.06 0a 208737.53 208737.53 0 1 1 -417475.06 0"/>
<path id="N" d="M 35772433.64 27782268.96 m -315709.31 0 a 315709.31 315709.31 0 1 1 631418.63 0a 315709.31 315709.31 0 1 1 -631418.63 0M 35772441.92 27782281.47 m -208737.53 0 a 208737.53 208737.53 0 1 1 417475.06 0a 208737.53 208737.53 0 1 1 -417475.06 0"/>
<path id="N" d="M 35772433.64 24782268.96 m -315709.31 0 a 315709.31 315709.31 0 1 1 631418.63 0a 315709.31 315709.31 0 1 1 -631418.63 0M 35772441.92 24782281.47 m -208737.53 0 a 208737.53 208737.53 0 1 1 417475.06 0a 208737.53 208737.53 0 1 1 -417475.06 0"/>
<path id="N" d="M 34772433.64 30786992.96 m -315709.31 0 a 315709.31 315709.31 0 1 1 631418.63 0a 315709.31 315709.31 0 1 1 -631418.63 0M 34772441.92 30787005.47 m -208737.53 0 a 208737.53 208737.53 0 1 1 417475.06 0a 208737.53 208737.53 0 1 1 -417475.06 0"/>
<path id="N" d="M 34772433.64 25786992.96 m -315709.31 0 a 315709.31 315709.31 0 1 1 631418.63 0a 315709.31 315709.31 0 1 1 -631418.63 0M 34772441.92 25787005.47 m -208737.53 0 a 208737.53 208737.53 0 1 1 417475.06 0a 208737.53 208737.53 0 1 1 -417475.06 0"/>
<path id="N" d="M 34772433.64 32786992.96 m -315709.31 0 a 315709.31 315709.31 0 1 1 631418.63 0a 315709.31 315709.31 0 1 1 -631418.63 0M 34772441.92 32787005.47 m -208737.53 0 a 208737.53 208737.53 0 1 1 417475.06 0a 208737.53 208737.53 0 1 1 -417475.06 0"/>
<path id="N" d="M 35772433.64 17782268.96 m -315709.31 0 a 315709.31 315709.31 0 1 1 631418.63 0a 315709.31 315709.31 0 1 1 -631418.63 0M 35772441.92 17782281.47 m -208737.53 0 a 208737.53 208737.53 0 1 1 417475.06 0a 208737.53 208737.53 0 1 1 -417475.06 0"/>
<path id="N" d="M 33407860.00 28557860.00 L 34026175.00 27939545.00 L 34496843.54 27939545.00 L 34499043.00 27944855.00 A 315675.40 315675.40 0 1 0 34499043.00 27629161.00 L 34496843.54 27634471.00 L 33962992.00 27634471.00 L 33904619.00 27646082.00 L 33855132.00 27679148.00 L 33236817.00 28297463.00 L 31400000.00 28297463.00 A 152537.16 152537.16 0 0 0 31400000.00 28602537.00 L 33300000.00 28602537.00 L 33358374.00 28590926.00 L 33407860.00 28557860.00  zM 34772441.92 27787005.47 m -208737.53 0 a 208737.53 208737.53 0 1 1 417475.06 0a 208737.53 208737.53 0 1 1 -417475.06 0"/>
<path id="N" d="M 27455905.00 18244095.00 L 26944095.00 18244095.00 L 26944095.00 18755905.00 L 27455905.00 18755905.00 L 27455905.00 18244095.00  zM 27199998.59 18500001.48 m -160563.52 0 a 160563.52 160563.52 0 1 1 321127.04 0a 160563.52 160563.52 0 1 1 -321127.04 0"/>
<path id="N" d="M 25998523.00 18244095.00 L 25486713.00 18244095.00 L 25486713.00 18755905.00 L 25998523.00 18755905.00 L 25998523.00 18244095.00  zM 25742616.59 18500001.48 m -160563.52 0 a 160563.52 160563.52 0 1 1 321127.04 0a 160563.52 160563.52 0 1 1 -321127.04 0"/>
<path id="N" d="M 36391340.79 37684648.99 m -593404.85 0 a 593404.85 593404.85 0 1 1 1186809.70 0a 593404.85 593404.85 0 1 1 -1186809.70 0M 36391340.69 37684638.57 m -436815.43 0 a 436815.43 436815.43 0 1 1 873630.85 0a 436815.43 436815.43 0 1 1 -873630.85 0"/>
<path id="N" d="M 36391340.79 14850002.99 m -593404.85 0 a 593404.85 593404.85 0 1 1 1186809.70 0a 593404.85 593404.85 0 1 1 -1186809.70 0M 36391340.69 14849992.57 m -436815.43 0 a 436815.43 436815.43 0 1 1 873630.85 0a 436815.43 436815.43 0 1 1 -873630.85 0"/>
<path id="N" d="M 17100001.79 14850002.99 m -593404.85 0 a 593404.85 593404.85 0 1 1 1186809.70 0a 593404.85 593404.85 0 1 1 -1186809.70 0M 17100001.69 14849992.57 m -436815.43 0 a 436815.43 436815.43 0 1 1 873630.85 0a 436815.43 436815.43 0 1 1 -873630.85 0"/>
<path id="N" d="M 17100001.79 37684648.99 m -593404.85 0 a 593404.85 593404.85 0 1 1 1186809.70 0a 593404.85 593404.85 0 1 1 -1186809.70 0M 17100001.69 37684638.57 m -436815.43 0 a 436815.43 436815.43 0 1 1 873630.85 0a 436815.43 436815.43 0 1 1 -873630.85 0"/>
<path id="N" d="M 28334490.13 35791843.28 m -565852.01 0 a 565852.01 565852.01 0 1 1 1131704.03 0a 565852.01 565852.01 0 1 1 -1131704.03 0M 28334484.02 35791836.67 m -377237.33 0 a 377237.33 377237.33 0 1 1 754474.66 0a 377237.33 377237.33 0 1 1 -754474.66 0"/>
<path id="N" d="M 30362050.13 35791843.28 m -565852.01 0 a 565852.01 565852.01 0 1 1 1131704.03 0a 565852.01 565852.01 0 1 1 -1131704.03 0M 30362044.02 35791836.67 m -377237.33 0 a 377237.33 377237.33 0 1 1 754474.66 0a 377237.33 377237.33 0 1 1 -754474.66 0"/>
<path id="N" d="M 29348269.99 36805621.15 m -476507.85 0 a 476507.85 476507.85 0 1 1 953015.70 0a 476507.85 476507.85 0 1 1 -953015.70 0M 29348267.69 36805603.39 m -317686.61 0 a 317686.61 317686.61 0 1 1 635373.23 0a 317686.61 317686.61 0 1 1 -635373.23 0"/>
<path id="N" d="M 28334490.13 37819403.28 m -565852.01 0 a 565852.01 565852.01 0 1 1 1131704.03 0a 565852.01 565852.01 0 1 1 -1131704.03 0M 28334484.02 37819396.67 m -377237.33 0 a 377237.33 377237.33 0 1 1 754474.66 0a 377237.33 377237.33 0 1 1 -754474.66 0"/>
<path id="N" d="M 30362050.13 37819403.28 m -565852.01 0 a 565852.01 565852.01 0 1 1 1131704.03 0a 565852.01 565852.01 0 1 1 -1131704.03 0M 30362044.02 37819396.67 m -377237.33 0 a 377237.33 377237.33 0 1 1 754474.66 0a 377237.33 377237.33 0 1 1 -754474.66 0"/>
<path id="N" d="M 34772433.64 18786992.96 m -315709.31 0 a 315709.31 315709.31 0 1 1 631418.63 0a 315709.31 315709.31 0 1 1 -631418.63 0M 34772441.92 18787005.47 m -208737.53 0 a 208737.53 208737.53 0 1 1 417475.06 0a 208737.53 208737.53 0 1 1 -417475.06 0"/>
<path id="N" d="M 34772433.64 19786992.96 m -315709.31 0 a 315709.31 315709.31 0 1 1 631418.63 0a 315709.31 315709.31 0 1 1 -631418.63 0M 34772441.92 19787005.47 m -208737.53 0 a 208737.53 208737.53 0 1 1 417475.06 0a 208737.53 208737.53 0 1 1 -417475.06 0"/>
<path id="N" d="M 34772433.64 17786992.96 m -315709.31 0 a 315709.31 315709.31 0 1 1 631418.63 0a 315709.31 315709.31 0 1 1 -631418.63 0M 34772441.92 17787005.47 m -208737.53 0 a 208737.53 208737.53 0 1 1 417475.06 0a 208737.53 208737.53 0 1 1 -417475.06 0"/>
<path id="N" d="M 34772433.64 21786992.96 m -315709.31 0 a 315709.31 315709.31 0 1 1 631418.63 0a 315709.31 315709.31 0 1 1 -631418.63 0M 34772441.92 21787005.47 m -208737.53 0 a 208737.53 208737.53 0 1 1 417475.06 0a 208737.53 208737.53 0 1 1 -417475.06 0"/>
<path id="N" d="M 34772433.64 34786992.96 m -315709.31 0 a 315709.31 315709.31 0 1 1 631418.63 0a 315709.31 315709.31 0 1 1 -631418.63 0M 34772441.92 34787005.47 m -208737.53 0 a 208737.53 208737.53 0 1 1 417475.06 0a 208737.53 208737.53 0 1 1 -417475.06 0"/>
<path id="N" d="M 34772433.64 20786992.96 m -315709.31 0 a 315709.31 315709.31 0 1 1 631418.63 0a 315709.31 315709.31 0 1 1 -631418.63 0M 34772441.92 20787005.47 m -208737.53 0 a 208737.53 208737.53 0 1 1 417475.06 0a 208737.53 208737.53 0 1 1 -417475.06 0"/>
<path id="N" d="M 34772433.64 22786992.96 m -315709.31 0 a 315709.31 315709.31 0 1 1 631418.63 0a 315709.31 315709.31 0 1 1 -631418.63 0M 34772441.92 22787005.47 m -208737.53 0 a 208737.53 208737.53 0 1 1 417475.06 0a 208737.53 208737.53 0 1 1 -417475.06 0"/>
<path id="N" d="M 35085433.00 35474016.00 L 34459449.00 35474016.00 L 34459449.00 36100000.00 L 35085433.00 36100000.00 L 35085433.00 35474016.00  zM 34772441.92 35787005.47 m -208737.53 0 a 208737.53 208737.53 0 1 1 417475.06 0a 208737.53 208737.53 0 1 1 -417475.06 0"/>
<path id="N" d="M 24191733.00 19842126.00 L 23542127.00 19842126.00 L 23542127.00 20353936.00 L 24191733.00 20353936.00 L 24191733.00 19842126.00  z"/>
<path id="N" d="M 16494881.00 19842126.00 L 15845275.00 19842126.00 L 15845275.00 20353936.00 L 16494881.00 20353936.00 L 16494881.00 19842126.00  z"/>
<path id="N" d="M 19683858.00 19153150.00 L 19565748.00 19153150.00 L 19565748.00 19546850.00 L 19683858.00 19546850.00 L 19683858.00 19153150.00  z"/>
<path id="N" d="M 20077559.00 19153150.00 L 19959449.00 19153150.00 L 19959449.00 19546850.00 L 20077559.00 19546850.00 L 20077559.00 19153150.00  z"/>
<path id="N" d="M 17715354.00 19153150.00 L 17597244.00 19153150.00 L 17597244.00 19546850.00 L 17715354.00 19546850.00 L 17715354.00 19153150.00  z"/>
<path id="N" d="M 18109055.00 19153150.00 L 17990945.00 19153150.00 L 17990945.00 19546850.00 L 18109055.00 19546850.00 L 18109055.00 19153150.00  z"/>
<path id="N" d="M 35772433.64 20782268.96 m -315709.31 0 a 315709.31 315709.31 0 1 1 631418.63 0a 315709.31 315709.31 0 1 1 -631418.63 0M 35772441.92 20782281.47 m -208737.53 0 a 208737.53 208737.53 0 1 1 417475.06 0a 208737.53 208737.53 0 1 1 -417475.06 0"/>
</g>
</svg>
