<svg width="55.99999976mm" height="64.99999954mm" viewBox="0 0 22047244 25590551"  version="1.1" xmlns="http://www.w3.org/2000/svg" xmlns:xlink="http://www.w3.org/1999/xlink">
<desc>
Origin 0 0 Bound 15722441 13637008 22047244 25590551
</desc>
<g fill-rule="evenodd" fill="rgb(255, 0, 255)" stroke="black" stroke-width="1" transform="translate(0, 25590551) scale(1, -1) translate(-15722441, -13637008)">
<path id="N" d="M 37769685.00 13637008.00 L 15722441.00 13637008.00 L 15722441.00 39227559.00 L 37769685.00 39227559.00 L 37769685.00 13637008.00  zM 17099998.22 14850007.46 m -613181.54 0 a 613181.54 613181.54 0 1 1 1226363.09 0a 613181.54 613181.54 0 1 1 -1226363.09 0M 18522440.00 19566535.00 L 18364960.00 19566535.00 L 18364960.00 19133465.00 L 18522440.00 19133465.00 L 18522440.00 19566535.00  zM 17341338.00 19566535.00 L 17183858.00 19566535.00 L 17183858.00 19133465.00 L 17341338.00 19133465.00 L 17341338.00 19566535.00  zM 18128740.00 19566535.00 L 17971260.00 19566535.00 L 17971260.00 19133465.00 L 18128740.00 19133465.00 L 18128740.00 19566535.00  zM 18916141.00 19566535.00 L 18758661.00 19566535.00 L 18758661.00 19133465.00 L 18916141.00 19133465.00 L 18916141.00 19566535.00  zM 16514566.00 20373621.00 L 15825590.00 20373621.00 L 15825590.00 19822441.00 L 16514566.00 19822441.00 L 16514566.00 20373621.00  zM 17735039.00 19566535.00 L 17577559.00 19566535.00 L 17577559.00 19133465.00 L 17735039.00 19133465.00 L 17735039.00 19566535.00  zM 19309842.00 19566535.00 L 19152362.00 19566535.00 L 19152362.00 19133465.00 L 19309842.00 19133465.00 L 19309842.00 19566535.00  zM 19703543.00 19566535.00 L 19546063.00 19566535.00 L 19546063.00 19133465.00 L 19703543.00 19133465.00 L 19703543.00 19566535.00  zM 20097244.00 19566535.00 L 19939764.00 19566535.00 L 19939764.00 19133465.00 L 20097244.00 19133465.00 L 20097244.00 19566535.00  zM 20490945.00 19566535.00 L 20333465.00 19566535.00 L 20333465.00 19133465.00 L 20490945.00 19133465.00 L 20490945.00 19566535.00  zM 20884646.00 19566535.00 L 20727166.00 19566535.00 L 20727166.00 19133465.00 L 20884646.00 19133465.00 L 20884646.00 19566535.00  zM 21278347.00 19566535.00 L 21120867.00 19566535.00 L 21120867.00 19133465.00 L 21278347.00 19133465.00 L 21278347.00 19566535.00  zM 21672048.00 19566535.00 L 21514568.00 19566535.00 L 21514568.00 19133465.00 L 21672048.00 19133465.00 L 21672048.00 19566535.00  zM 22065748.00 19566535.00 L 21908268.00 19566535.00 L 21908268.00 19133465.00 L 22065748.00 19133465.00 L 22065748.00 19566535.00  zM 22459449.00 19566535.00 L 22301969.00 19566535.00 L 22301969.00 19133465.00 L 22459449.00 19133465.00 L 22459449.00 19566535.00  zM 22853150.00 19566535.00 L 22695670.00 19566535.00 L 22695670.00 19133465.00 L 22853150.00 19133465.00 L 22853150.00 19566535.00  zM 24211418.00 20373621.00 L 23522442.00 20373621.00 L 23522442.00 19822441.00 L 24211418.00 19822441.00 L 24211418.00 20373621.00  zM 25742621.68 17499988.54 m -277979.46 0 a 277979.46 277979.46 0 1 1 555958.91 0a 277979.46 277979.46 0 1 1 -555958.91 0M 26018208.00 18775590.00 L 25467028.00 18775590.00 L 25467028.00 18224410.00 L 26018208.00 18224410.00 L 26018208.00 18775590.00  zM 27200003.68 17499988.54 m -277979.46 0 a 277979.46 277979.46 0 1 1 555958.91 0a 277979.46 277979.46 0 1 1 -555958.91 0M 27475590.00 18775590.00 L 26924410.00 18775590.00 L 26924410.00 18224410.00 L 27475590.00 18224410.00 L 27475590.00 18775590.00  zM 34772441.12 21787010.43 m -315690.57 0 a 315690.57 315690.57 0 1 1 631381.15 0a 315690.57 315690.57 0 1 1 -631381.15 0M 34772441.12 16787010.43 m -315690.57 0 a 315690.57 315690.57 0 1 1 631381.15 0a 315690.57 315690.57 0 1 1 -631381.15 0M 34772441.12 17787010.43 m -315690.57 0 a 315690.57 315690.57 0 1 1 631381.15 0a 315690.57 315690.57 0 1 1 -631381.15 0M 34772441.12 18787010.43 m -315690.57 0 a 315690.57 315690.57 0 1 1 631381.15 0a 315690.57 315690.57 0 1 1 -631381.15 0M 34772441.12 19787010.43 m -315690.57 0 a 315690.57 315690.57 0 1 1 631381.15 0a 315690.57 315690.57 0 1 1 -631381.15 0M 36391337.22 14850007.46 m -613181.54 0 a 613181.54 613181.54 0 1 1 1226363.09 0a 613181.54 613181.54 0 1 1 -1226363.09 0M 35772441.12 16782286.43 m -315690.57 0 a 315690.57 315690.57 0 1 1 631381.15 0a 315690.57 315690.57 0 1 1 -631381.15 0M 35772441.12 17782286.43 m -315690.57 0 a 315690.57 315690.57 0 1 1 631381.15 0a 315690.57 315690.57 0 1 1 -631381.15 0M 35772441.12 18782286.43 m -315690.57 0 a 315690.57 315690.57 0 1 1 631381.15 0a 315690.57 315690.57 0 1 1 -631381.15 0M 35772441.12 19782286.43 m -315690.57 0 a 315690.57 315690.57 0 1 1 631381.15 0a 315690.57 315690.57 0 1 1 -631381.15 0M 34772441.12 20787010.43 m -315690.57 0 a 315690.57 315690.57 0 1 1 631381.15 0a 315690.57 315690.57 0 1 1 -631381.15 0M 35772441.12 20782286.43 m -315690.57 0 a 315690.57 315690.57 0 1 1 631381.15 0a 315690.57 315690.57 0 1 1 -631381.15 0M 35772441.12 21782286.43 m -315690.57 0 a 315690.57 315690.57 0 1 1 631381.15 0a 315690.57 315690.57 0 1 1 -631381.15 0M 35772441.12 22782286.43 m -315690.57 0 a 315690.57 315690.57 0 1 1 631381.15 0a 315690.57 315690.57 0 1 1 -631381.15 0M 17099998.22 37684653.46 m -613181.54 0 a 613181.54 613181.54 0 1 1 1226363.09 0a 613181.54 613181.54 0 1 1 -1226363.09 0M 28334482.62 35791846.42 m -583503.58 0 a 583503.58 583503.58 0 1 1 1167007.17 0a 583503.58 583503.58 0 1 1 -1167007.17 0M 28334482.62 37819406.42 m -583503.58 0 a 583503.58 583503.58 0 1 1 1167007.17 0a 583503.58 583503.58 0 1 1 -1167007.17 0M 29348262.02 36805618.86 m -496366.14 0 a 496366.14 496366.14 0 1 1 992732.28 0a 496366.14 496366.14 0 1 1 -992732.28 0M 30362042.62 37819406.42 m -583503.58 0 a 583503.58 583503.58 0 1 1 1167007.17 0a 583503.58 583503.58 0 1 1 -1167007.17 0M 30362042.62 35791846.42 m -583503.58 0 a 583503.58 583503.58 0 1 1 1167007.17 0a 583503.58 583503.58 0 1 1 -1167007.17 0M 34772441.12 32787010.43 m -315690.57 0 a 315690.57 315690.57 0 1 1 631381.15 0a 315690.57 315690.57 0 1 1 -631381.15 0M 32381436.00 39048031.00 L 31849940.00 39048031.00 L 31849940.00 37394489.00 L 32381436.00 37394489.00 L 32381436.00 39048031.00  zM 34605846.00 39048031.00 L 34074350.00 39048031.00 L 34074350.00 37394489.00 L 34605846.00 37394489.00 L 34605846.00 39048031.00  zM 34772441.12 24787010.43 m -315690.57 0 a 315690.57 315690.57 0 1 1 631381.15 0a 315690.57 315690.57 0 1 1 -631381.15 0M 34772441.12 25787010.43 m -315690.57 0 a 315690.57 315690.57 0 1 1 631381.15 0a 315690.57 315690.57 0 1 1 -631381.15 0M 34772441.12 26787010.43 m -315690.57 0 a 315690.57 315690.57 0 1 1 631381.15 0a 315690.57 315690.57 0 1 1 -631381.15 0M 34772441.12 27787010.43 m -315690.57 0 a 315690.57 315690.57 0 1 1 631381.15 0a 315690.57 315690.57 0 1 1 -631381.15 0M 34772441.12 28787010.43 m -315690.57 0 a 315690.57 315690.57 0 1 1 631381.15 0a 315690.57 315690.57 0 1 1 -631381.15 0M 34772441.12 30787010.43 m -315690.57 0 a 315690.57 315690.57 0 1 1 631381.15 0a 315690.57 315690.57 0 1 1 -631381.15 0M 34772441.12 31787010.43 m -315690.57 0 a 315690.57 315690.57 0 1 1 631381.15 0a 315690.57 315690.57 0 1 1 -631381.15 0M 34772441.12 33787010.43 m -315690.57 0 a 315690.57 315690.57 0 1 1 631381.15 0a 315690.57 315690.57 0 1 1 -631381.15 0M 35085433.00 36100000.00 L 34459449.00 36100000.00 L 34459449.00 35474016.00 L 35085433.00 35474016.00 L 35085433.00 36100000.00  zM 34772441.12 22787010.43 m -315690.57 0 a 315690.57 315690.57 0 1 1 631381.15 0a 315690.57 315690.57 0 1 1 -631381.15 0M 34772441.12 23787010.43 m -315690.57 0 a 315690.57 315690.57 0 1 1 631381.15 0a 315690.57 315690.57 0 1 1 -631381.15 0M 35772441.12 23782286.43 m -315690.57 0 a 315690.57 315690.57 0 1 1 631381.15 0a 315690.57 315690.57 0 1 1 -631381.15 0M 35772441.12 24782286.43 m -315690.57 0 a 315690.57 315690.57 0 1 1 631381.15 0a 315690.57 315690.57 0 1 1 -631381.15 0M 35772441.12 25782286.43 m -315690.57 0 a 315690.57 315690.57 0 1 1 631381.15 0a 315690.57 315690.57 0 1 1 -631381.15 0M 35772441.12 26782286.43 m -315690.57 0 a 315690.57 315690.57 0 1 1 631381.15 0a 315690.57 315690.57 0 1 1 -631381.15 0M 35772441.12 27782286.43 m -315690.57 0 a 315690.57 315690.57 0 1 1 631381.15 0a 315690.57 315690.57 0 1 1 -631381.15 0M 35772441.12 28782286.43 m -315690.57 0 a 315690.57 315690.57 0 1 1 631381.15 0a 315690.57 315690.57 0 1 1 -631381.15 0M 35772441.12 29782286.43 m -315690.57 0 a 315690.57 315690.57 0 1 1 631381.15 0a 315690.57 315690.57 0 1 1 -631381.15 0M 34772441.12 29787010.43 m -315690.57 0 a 315690.57 315690.57 0 1 1 631381.15 0a 315690.57 315690.57 0 1 1 -631381.15 0M 35772441.12 30782286.43 m -315690.57 0 a 315690.57 315690.57 0 1 1 631381.15 0a 315690.57 315690.57 0 1 1 -631381.15 0M 35772441.12 31782286.43 m -315690.57 0 a 315690.57 315690.57 0 1 1 631381.15 0a 315690.57 315690.57 0 1 1 -631381.15 0M 35772441.12 32782286.43 m -315690.57 0 a 315690.57 315690.57 0 1 1 631381.15 0a 315690.57 315690.57 0 1 1 -631381.15 0M 35772441.12 33782286.43 m -315690.57 0 a 315690.57 315690.57 0 1 1 631381.15 0a 315690.57 315690.57 0 1 1 -631381.15 0M 34772441.12 34787010.43 m -315690.57 0 a 315690.57 315690.57 0 1 1 631381.15 0a 315690.57 315690.57 0 1 1 -631381.15 0M 35772441.12 34782286.43 m -315690.57 0 a 315690.57 315690.57 0 1 1 631381.15 0a 315690.57 315690.57 0 1 1 -631381.15 0M 36085433.00 36095276.00 L 35459449.00 36095276.00 L 35459449.00 35469292.00 L 36085433.00 35469292.00 L 36085433.00 36095276.00  zM 36391337.22 37684653.46 m -613181.54 0 a 613181.54 613181.54 0 1 1 1226363.09 0a 613181.54 613181.54 0 1 1 -1226363.09 0"/>
</g>
</svg>
