<svg width="55.99999976mm" height="64.99999954mm" viewBox="0 0 22047244 25590551"  version="1.1" xmlns="http://www.w3.org/2000/svg" xmlns:xlink="http://www.w3.org/1999/xlink">
<desc>
Origin 0 0 Bound 15722441 13637008 22047244 25590551
</desc>
<g fill-rule="evenodd" fill="rgb(128, 128, 0)" stroke="black" stroke-width="1" transform="translate(0, 25590551) scale(1, -1) translate(-15722441, -13637008)">
<path id="N" d="M 24263992.00 21353363.00 L 24276473.00 21323230.00 L 24276473.00 20949213.00 L 24263992.00 20919080.00 L 24233859.00 20906599.00 L 23971356.00 20906599.00 L 23971356.00 20772048.00 L 23958875.00 20741915.00 L 23928742.00 20729434.00 L 23898609.00 20741915.00 L 23886128.00 20772048.00 L 23886128.00 20949213.00 L 23898609.00 20979346.00 L 23928742.00 20991827.00 L 24191245.00 20991827.00 L 24191245.00 21280616.00 L 15870959.00 21280616.00 L 15870959.00 20991827.00 L 16133464.00 20991827.00 L 16163597.00 20979346.00 L 16176078.00 20949213.00 L 16176078.00 20772048.00 L 16163597.00 20741915.00 L 16133464.00 20729434.00 L 16103331.00 20741915.00 L 16090850.00 20772048.00 L 16090850.00 20906599.00 L 15828345.00 20906599.00 L 15798212.00 20919080.00 L 15785731.00 20949213.00 L 15785731.00 21323230.00 L 15798212.00 21353363.00 L 15828345.00 21365844.00 L 24233859.00 21365844.00 L 24263992.00 21353363.00  z"/>
<path id="N" d="M 37295487.00 36479739.00 L 37307968.00 36449606.00 L 37307968.00 16150394.00 L 37295487.00 16120261.00 L 37265354.00 16107780.00 L 35265354.00 16107780.00 L 35235221.00 16120261.00 L 35222740.00 16150394.00 L 35222740.00 36449606.00 L 35235221.00 36479739.00 L 35265354.00 36492220.00 L 37265354.00 36492220.00 L 37295487.00 36479739.00  zM 36222740.00 35257386.00 L 35307968.00 35257386.00 L 35307968.00 16193008.00 L 36222740.00 16193008.00 L 36222740.00 35257386.00  zM 37222740.00 35257386.00 L 36307968.00 35257386.00 L 36307968.00 16193008.00 L 37222740.00 16193008.00 L 37222740.00 35257386.00  zM 36222740.00 36406992.00 L 35307968.00 36406992.00 L 35307968.00 35342614.00 L 36222740.00 35342614.00 L 36222740.00 36406992.00  zM 37222740.00 36406992.00 L 36307968.00 36406992.00 L 36307968.00 35342614.00 L 37222740.00 35342614.00 L 37222740.00 36406992.00  z"/>
<path id="N" d="M 36890162.41 15829120.00 L 37290031.00 15829120.00 A 54118.70 54118.70 0 0 0 37290031.00 15720880.00 L 37020818.00 15720880.00 L 37328300.00 15413398.00 L 37344151.00 15375126.59 L 37344152.00 15275162.00 L 37328300.00 15236893.00 L 37228332.00 15136925.00 L 37190063.00 15121074.00 L 36990128.00 15121073.00 L 36951859.00 15136925.00 L 36851891.00 15236893.00 A 54121.84 54121.84 0 1 0 36928429.00 15313431.00 L 37012546.00 15229314.00 L 37167645.00 15229314.00 L 37235911.00 15297580.00 L 37235911.00 15352711.00 L 36851891.00 15736731.00 A 54119.43 54119.43 0 0 0 36890162.41 15829120.00  z"/>
<path id="N" d="M 35490292.41 15829120.00 L 35590257.00 15829120.00 L 35628526.00 15813269.00 L 35728494.00 15713301.00 L 35744345.00 15675029.59 L 35744345.00 15229314.00 L 35790193.00 15229314.00 A 54118.70 54118.70 0 0 0 35790193.00 15121074.00 L 35590257.00 15121074.00 A 54118.70 54118.70 0 0 0 35590257.00 15229314.00 L 35636105.00 15229314.00 L 35636105.00 15652614.00 L 35567839.00 15720880.00 L 35512708.00 15720880.00 L 35428591.00 15636763.00 A 54121.84 54121.84 0 0 0 35352053.00 15713301.00 L 35452021.00 15813269.00 L 35490292.41 15829120.00  z"/>
<path id="N" d="M 36390324.41 15829120.00 L 36490289.00 15829120.00 L 36528558.00 15813269.00 L 36628526.00 15713301.00 L 36644377.00 15675029.59 L 36644377.00 15229314.00 L 36690225.00 15229314.00 A 54118.70 54118.70 0 0 0 36728494.00 15136925.00 L 36719808.48 15133327.46 L 36700209.00 15158870.00 L 36609743.00 15228287.00 L 36536137.00 15258775.32 L 36536137.00 15652614.00 L 36467871.00 15720880.00 L 36412740.00 15720880.00 L 36328623.00 15636763.00 A 54121.84 54121.84 0 0 0 36252085.00 15713301.00 L 36352053.00 15813269.00 L 36390324.41 15829120.00  z"/>
<path id="N" d="M 36190063.00 15720880.00 L 36144216.00 15720880.00 L 36144216.00 15206250.14 L 36082469.00 15158870.00 L 36062300.91 15132586.44 L 36051827.00 15136925.00 L 35951859.00 15236893.00 A 54121.84 54121.84 0 1 0 36035976.00 15305852.00 L 36035976.00 15720880.00 L 35990128.00 15720880.00 A 54118.70 54118.70 0 0 0 35990128.00 15829120.00 L 36190063.00 15829120.00 A 54121.84 54121.84 0 0 0 36190063.00 15720880.00  z"/>
<path id="N" d="M 16979918.47 19551574.47 m -100354.75 0 a 100354.75 100354.75 0 1 1 200709.51 0a 100354.75 100354.75 0 1 1 -200709.51 0"/>
<path id="N" d="M 36454328.47 35799998.47 m -100354.75 0 a 100354.75 100354.75 0 1 1 200709.51 0a 100354.75 100354.75 0 1 1 -200709.51 0"/>
<path id="N" d="M 37454328.47 35799998.47 m -100354.75 0 a 100354.75 100354.75 0 1 1 200709.51 0a 100354.75 100354.75 0 1 1 -200709.51 0"/>
<path id="N" d="M 23958875.00 20054149.00 L 23971356.00 20024016.00 L 23971356.00 19787796.00 L 23958875.00 19757663.00 L 23928742.00 19745182.00 L 22964175.00 19745182.00 L 22934042.00 19757663.00 L 22921561.00 19787796.00 L 22934042.00 19817929.00 L 22964175.00 19830410.00 L 23886128.00 19830410.00 L 23886128.00 20024016.00 L 23898609.00 20054149.00 L 23928742.00 20066630.00 L 23958875.00 20054149.00  z"/>
<path id="N" d="M 16163597.00 20054149.00 L 16176078.00 20024016.00 L 16176078.00 19830410.00 L 17098031.00 19830410.00 L 17128164.00 19817929.00 L 17140645.00 19787796.00 L 17128164.00 19757663.00 L 17098031.00 19745182.00 L 16133464.00 19745182.00 L 16103331.00 19757663.00 L 16090850.00 19787796.00 L 16090850.00 20024016.00 L 16103331.00 20054149.00 L 16133464.00 20066630.00 L 16163597.00 20054149.00  z"/>
</g>
</svg>
