<svg width="55.99999976mm" height="64.99999954mm" viewBox="0 0 22047244 25590551"  version="1.1" xmlns="http://www.w3.org/2000/svg" xmlns:xlink="http://www.w3.org/1999/xlink">
<desc>
Origin 0 0 Bound 15722441 13637008 22047244 25590551
</desc>
<g fill-rule="evenodd" fill="rgb(255, 255, 0)" stroke="black" stroke-width="1" transform="translate(0, 25590551) scale(1, -1) translate(-15722441, -13637008)">
<path id="N" d="M 39342978.00 22223075.00 L 39442946.00 22123107.00 L 39458797.00 22084838.00 L 39458798.00 21984871.00 L 39442946.00 21946602.00 L 39381247.00 21884903.00 L 39442946.00 21823204.00 L 39458797.00 21784935.00 L 39458798.00 21684968.00 L 39442946.00 21646699.00 L 39342978.00 21546731.00 L 39304709.00 21530880.00 L 39104774.00 21530879.00 L 39066505.00 21546731.00 L 38966537.00 21646699.00 A 54121.84 54121.84 0 0 0 39043075.00 21723237.00 L 39127192.00 21639120.00 L 39282291.00 21639120.00 L 39350557.00 21707386.00 L 39350557.00 21762517.00 L 39282291.00 21830783.00 L 39204741.00 21830783.00 A 54118.70 54118.70 0 0 0 39204741.00 21939023.00 L 39282291.00 21939023.00 L 39350557.00 22007289.00 L 39350557.00 22062420.00 L 39282291.00 22130686.00 L 39127192.00 22130686.00 L 39043075.00 22046569.00 A 54119.43 54119.43 0 0 0 38966537.00 22123107.00 L 39066505.00 22223075.00 L 39104774.00 22238926.00 L 39304709.00 22238927.00 L 39342978.00 22223075.00  z"/>
<path id="N" d="M 23958875.00 17908085.00 L 23971356.00 17877952.00 L 23971356.00 17743401.00 L 24233859.00 17743401.00 L 24263992.00 17730920.00 L 24276473.00 17700787.00 L 24276473.00 17326770.00 L 24263992.00 17296637.00 L 24233858.00 17284156.00 L 15828345.00 17284156.00 L 15798212.00 17296637.00 L 15785731.00 17326770.00 L 15785731.00 17700787.00 L 15798212.00 17730920.00 L 15828345.00 17743401.00 L 16090850.00 17743401.00 L 16090850.00 17877952.00 L 16103331.00 17908085.00 L 16133464.00 17920566.00 L 16163597.00 17908085.00 L 16176078.00 17877952.00 L 16176078.00 17700787.00 L 16163597.00 17670654.00 L 16133464.00 17658173.00 L 15870959.00 17658173.00 L 15870959.00 17369384.00 L 24191245.00 17369384.00 L 24191245.00 17658173.00 L 23928742.00 17658173.00 L 23898609.00 17670654.00 L 23886128.00 17700787.00 L 23886128.00 17877952.00 L 23898609.00 17908085.00 L 23928742.00 17920566.00 L 23958875.00 17908085.00  z"/>
<path id="N" d="M 29847541.00 43236400.00 L 29655462.94 43140360.97 L 29554124.46 43039023.00 L 29723370.00 43039023.00 L 29761639.00 43023172.00 L 29861607.00 42923204.00 L 29877458.00 42884932.59 L 29877458.00 42784968.00 L 29861607.00 42746699.00 L 29761639.00 42646731.00 L 29723367.59 42630880.00 L 29523435.00 42630880.00 L 29485166.00 42646731.00 L 29385198.00 42746699.00 L 29369347.00 42784970.41 L 29369346.00 42984903.00 L 29385199.71 43023172.71 L 29585133.00 43223107.00 L 29593362.86 43226516.02 L 29599199.00 43233245.00 L 29799135.00 43333212.00 A 54118.07 54118.07 0 0 0 29847541.00 43236400.00  zM 29700952.00 42930783.00 L 29477587.00 42930783.00 L 29477587.00 42807386.00 L 29545853.00 42739120.00 L 29700952.00 42739120.00 L 29769218.00 42807386.00 L 29769218.00 42862517.00 L 29700952.00 42930783.00  z"/>
<path id="N" d="M 29223532.00 43230686.00 L 29177684.00 43230686.00 L 29177685.00 42784968.00 L 29161833.00 42746699.00 L 29061865.00 42646731.00 L 29023596.00 42630880.00 L 28923629.00 42630879.00 L 28885360.00 42646731.00 L 28785392.00 42746699.00 A 54121.84 54121.84 0 0 0 28861930.00 42823237.00 L 28946047.00 42739120.00 L 29001178.00 42739120.00 L 29069444.00 42807386.00 L 29069444.00 43230686.00 L 29023596.00 43230686.00 A 54118.70 54118.70 0 0 0 29023596.00 43338926.00 L 29223532.00 43338926.00 A 54121.84 54121.84 0 0 0 29223532.00 43230686.00  z"/>
<path id="N" d="M 38804871.00 22130686.00 L 38759023.00 22130686.00 L 38759024.00 21684968.00 L 38743172.00 21646699.00 L 38643204.00 21546731.00 L 38604935.00 21530880.00 L 38504968.00 21530879.00 L 38466699.00 21546731.00 L 38366731.00 21646699.00 A 54121.84 54121.84 0 0 0 38443269.00 21723237.00 L 38527386.00 21639120.00 L 38582517.00 21639120.00 L 38650783.00 21707386.00 L 38650783.00 22130686.00 L 38604935.00 22130686.00 A 54118.70 54118.70 0 0 0 38604935.00 22238926.00 L 38804871.00 22238926.00 A 54121.84 54121.84 0 0 0 38804871.00 22130686.00  z"/>
<path id="N" d="M 40099998.47 21185037.47 m -100354.75 0 a 100354.75 100354.75 0 1 1 200709.51 0a 100354.75 100354.75 0 1 1 -200709.51 0"/>
<path id="N" d="M 24399998.47 21349998.47 m -100354.75 0 a 100354.75 100354.75 0 1 1 200709.51 0a 100354.75 100354.75 0 1 1 -200709.51 0"/>
<path id="N" d="M 16979918.47 19098422.47 m -100354.75 0 a 100354.75 100354.75 0 1 1 200709.51 0a 100354.75 100354.75 0 1 1 -200709.51 0"/>
<path id="N" d="M 26398735.00 19030133.00 L 26411216.00 19000000.00 L 26411216.00 17000000.00 L 26398735.00 16969867.00 L 26368602.00 16957386.00 L 25116634.00 16957386.00 L 25086501.00 16969867.00 L 25074020.00 17000000.00 L 25074020.00 19000000.00 L 25086501.00 19030133.00 L 25116634.00 19042614.00 L 26368602.00 19042614.00 L 26398735.00 19030133.00  zM 26325988.00 18957386.00 L 25159248.00 18957386.00 L 25159248.00 17042614.00 L 26325988.00 17042614.00 L 26325988.00 18957386.00  z"/>
<path id="N" d="M 27856117.00 19030133.00 L 27868598.00 19000000.00 L 27868598.00 17000000.00 L 27856117.00 16969867.00 L 27825984.00 16957386.00 L 26574016.00 16957386.00 L 26543883.00 16969867.00 L 26531402.00 17000000.00 L 26531402.00 19000000.00 L 26543883.00 19030133.00 L 26574016.00 19042614.00 L 27825984.00 19042614.00 L 27856117.00 19030133.00  zM 27783370.00 18957386.00 L 26616630.00 18957386.00 L 26616630.00 17042614.00 L 27783370.00 17042614.00 L 27783370.00 18957386.00  z"/>
<path id="N" d="M 41665566.00 21211235.00 L 41678047.00 21181102.00 L 41678047.00 19665354.00 L 41665566.00 19635221.00 L 41635433.00 19622740.00 L 41605300.00 19635221.00 L 41592819.00 19665354.00 L 41592819.00 21138488.00 L 40336220.00 21138488.00 L 40306087.00 21150969.00 L 40293606.00 21181102.00 L 40306087.00 21211235.00 L 40336220.00 21223716.00 L 41635433.00 21223716.00 L 41665566.00 21211235.00  z"/>
<path id="N" d="M 39893913.00 21211235.00 L 39906394.00 21181102.00 L 39893913.00 21150969.00 L 39863780.00 21138488.00 L 38607181.00 21138488.00 L 38607181.00 19665354.00 L 38594700.00 19635221.00 L 38564567.00 19622740.00 L 38534434.00 19635221.00 L 38521953.00 19665354.00 L 38521953.00 21181102.00 L 38534434.00 21211235.00 L 38564567.00 21223716.00 L 39863780.00 21223716.00 L 39893913.00 21211235.00  z"/>
<path id="N" d="M 17128164.00 18892337.00 L 17140645.00 18862204.00 L 17128164.00 18832071.00 L 17098031.00 18819590.00 L 16176078.00 18819590.00 L 16176078.00 18625984.00 L 16163597.00 18595851.00 L 16133464.00 18583370.00 L 16103331.00 18595851.00 L 16090850.00 18625984.00 L 16090850.00 18862204.00 L 16103331.00 18892337.00 L 16133464.00 18904818.00 L 17098031.00 18904818.00 L 17128164.00 18892337.00  z"/>
<path id="N" d="M 23958875.00 18892337.00 L 23971356.00 18862204.00 L 23971356.00 18625984.00 L 23958875.00 18595851.00 L 23928742.00 18583370.00 L 23898609.00 18595851.00 L 23886128.00 18625984.00 L 23886128.00 18819590.00 L 22964175.00 18819590.00 L 22934042.00 18832071.00 L 22921561.00 18862204.00 L 22934042.00 18892337.00 L 22964175.00 18904818.00 L 23928742.00 18904818.00 L 23958875.00 18892337.00  z"/>
<path id="N" d="M 24676582.00 34059661.00 L 24689063.00 34029528.00 L 24679221.00 34005766.36 L 24679221.00 31263780.00 L 24666740.00 31233647.00 L 24636607.00 31221166.00 L 24606474.00 31233647.00 L 24593993.00 31263780.00 L 24593993.00 34029528.00 L 24606474.00 34059661.00 L 24636607.00 34072142.00 L 24646449.00 34072142.00 L 24676582.00 34059661.00  z"/>
<path id="N" d="M 24416740.00 24386827.00 L 24429221.00 24356694.00 L 24429221.00 21614707.64 L 24439063.00 21590946.00 L 24426582.00 21560813.00 L 24396449.00 21548332.00 L 24386607.00 21548332.00 L 24356474.00 21560813.00 L 24343993.00 21590946.00 L 24343993.00 24356694.00 L 24356474.00 24386827.00 L 24386607.00 24399308.00 L 24416740.00 24386827.00  z"/>
<path id="N" d="M 31455322.00 34109661.00 L 31467803.00 34079528.00 L 31467803.00 31313780.00 L 31455322.00 31283647.00 L 31425189.00 31271166.00 L 31395056.00 31283647.00 L 31382575.00 31313780.00 L 31382575.00 34055766.36 L 31372733.00 34079528.00 L 31385214.00 34109661.00 L 31415347.00 34122142.00 L 31425189.00 34122142.00 L 31455322.00 34109661.00  z"/>
<path id="N" d="M 31305322.00 24386827.00 L 31317803.00 24356694.00 L 31317803.00 21590946.00 L 31305322.00 21560813.00 L 31275189.00 21548332.00 L 31265347.00 21548332.00 L 31235214.00 21560813.00 L 31222733.00 21590946.00 L 31232575.00 21614707.64 L 31232575.00 24356694.00 L 31245056.00 24386827.00 L 31275189.00 24399308.00 L 31305322.00 24386827.00  z"/>
<path id="N" d="M 29730133.00 15848243.00 L 29742614.00 15818110.00 L 29742614.00 15581890.00 L 29730133.00 15551757.00 L 29700000.00 15539276.00 L 29669867.00 15551757.00 L 29657386.00 15581890.00 L 29657386.00 15818110.00 L 29669867.00 15848243.00 L 29700000.00 15860724.00 L 29730133.00 15848243.00  z"/>
<path id="N" d="M 31196168.00 38793019.00 L 31202409.00 38777953.00 L 31196168.00 38762887.00 L 31181102.00 38756646.00 L 30236220.00 38756646.00 L 30221154.00 38762887.00 L 30214913.00 38777953.00 L 30221154.00 38793019.00 L 30236220.00 38799260.00 L 31181102.00 38799260.00 L 31196168.00 38793019.00  z"/>
<path id="N" d="M 32101680.00 37887507.00 L 32107921.00 37872441.00 L 32107921.00 36927559.00 L 32101680.00 36912493.00 L 32086614.00 36906252.00 L 32071548.00 36912493.00 L 32065307.00 36927559.00 L 32065307.00 37872441.00 L 32071548.00 37887507.00 L 32086614.00 37893748.00 L 32101680.00 37887507.00  z"/>
<path id="N" d="M 31196168.00 36037113.00 L 31202409.00 36022047.00 L 31196168.00 36006981.00 L 31181102.00 36000740.00 L 30236220.00 36000740.00 L 30221154.00 36006981.00 L 30214913.00 36022047.00 L 30221154.00 36037113.00 L 30236220.00 36043354.00 L 31181102.00 36043354.00 L 31196168.00 36037113.00  z"/>
<path id="N" d="M 29780133.00 17398243.00 L 29792614.00 17368110.00 L 29792614.00 17131890.00 L 29780133.00 17101757.00 L 29750000.00 17089276.00 L 29719867.00 17101757.00 L 29707386.00 17131890.00 L 29707386.00 17368110.00 L 29719867.00 17398243.00 L 29750000.00 17410724.00 L 29780133.00 17398243.00  z"/>
<path id="N" d="M 29345774.00 37887507.00 L 29352015.00 37872441.00 L 29352015.00 36927559.00 L 29345774.00 36912493.00 L 29330708.00 36906252.00 L 29315642.00 36912493.00 L 29309401.00 36927559.00 L 29309401.00 37872441.00 L 29315642.00 37887507.00 L 29330708.00 37893748.00 L 29345774.00 37887507.00  z"/>
</g>
</svg>
