<svg width="55.99999976mm" height="64.99999954mm" viewBox="0 0 22047244 25590551"  version="1.1" xmlns="http://www.w3.org/2000/svg" xmlns:xlink="http://www.w3.org/1999/xlink">
<desc>
Origin 0 0 Bound 15722441 13637008 22047244 25590551
</desc>
<g fill-rule="evenodd" fill="rgb(255, 255, 0)" stroke="black" stroke-width="1" transform="translate(0, 25590551) scale(1, -1) translate(-15722441, -13637008)">
<path id="N" d="M 23946276.00 17758085.00 L 23958757.00 17727952.00 L 23958757.00 17593401.00 L 24221260.00 17593401.00 L 24251393.00 17580920.00 L 24263874.00 17550787.00 L 24263874.00 17176770.00 L 24251393.00 17146637.00 L 24221259.00 17134156.00 L 15815746.00 17134156.00 L 15785613.00 17146637.00 L 15773132.00 17176770.00 L 15773132.00 17550787.00 L 15785613.00 17580920.00 L 15815746.00 17593401.00 L 16078251.00 17593401.00 L 16078251.00 17727952.00 L 16090732.00 17758085.00 L 16120865.00 17770566.00 L 16150998.00 17758085.00 L 16163479.00 17727952.00 L 16163479.00 17550787.00 L 16150998.00 17520654.00 L 16120865.00 17508173.00 L 15858360.00 17508173.00 L 15858360.00 17219384.00 L 24178646.00 17219384.00 L 24178646.00 17508173.00 L 23916143.00 17508173.00 L 23886010.00 17520654.00 L 23873529.00 17550787.00 L 23873529.00 17727952.00 L 23886010.00 17758085.00 L 23916143.00 17770566.00 L 23946276.00 17758085.00  z"/>
<path id="N" d="M 29057748.00 42631363.00 L 28780263.00 42631363.00 L 28734415.00 42585515.00 L 28780263.00 42539667.00 L 28957780.00 42539667.00 L 28996049.00 42523816.00 L 29096017.00 42423849.00 L 29111869.00 42385580.00 L 29096017.00 42347311.00 L 28996049.00 42247343.00 L 28957777.59 42231492.00 L 28657877.00 42231492.00 A 54118.70 54118.70 0 1 0 28657877.00 42339732.00 L 28935362.00 42339732.00 L 28981210.31 42385580.31 L 28935363.16 42431427.00 L 28757845.00 42431426.00 L 28719576.00 42447278.00 L 28619608.00 42547246.00 L 28603756.00 42585515.00 L 28619608.00 42623784.00 L 28719576.00 42723752.00 L 28757845.00 42739603.00 L 29057748.00 42739603.00 A 54121.84 54121.84 0 0 0 29057748.00 42631363.00  z"/>
<path id="N" d="M 28396243.00 42723752.00 L 28496211.00 42623784.00 L 28512062.00 42585515.00 L 28512062.00 42485547.00 L 28496211.00 42447278.00 L 28457942.00 42431427.00 L 28112191.00 42431427.00 L 28112191.00 42407998.00 L 28180457.00 42339732.00 L 28357974.00 42339732.00 A 54118.70 54118.70 0 0 0 28357974.00 42231492.00 L 28158039.00 42231491.00 L 28119770.00 42247343.00 L 28019802.00 42347311.00 L 28003951.00 42385580.00 L 28003950.00 42585515.00 L 28019802.00 42623784.00 L 28119770.00 42723752.00 L 28158039.00 42739603.00 L 28357974.00 42739604.00 L 28396243.00 42723752.00  zM 28335556.00 42631363.00 L 28180457.00 42631363.00 L 28112191.00 42563097.00 L 28112191.00 42539667.00 L 28403822.00 42539667.00 L 28403822.00 42563097.00 L 28335556.00 42631363.00  z"/>
<path id="N" d="M 29857491.41 42739603.00 L 30157392.00 42739603.00 L 30195661.00 42723752.00 L 30211512.00 42685483.00 L 30211512.00 42185643.00 L 30195659.29 42147374.29 L 30095693.00 42047408.00 L 30057421.59 42031557.00 L 29957456.00 42031557.00 A 54118.70 54118.70 0 1 0 29957456.00 42139797.00 L 30035007.00 42139797.00 L 30103272.00 42208062.00 L 30103272.00 42231492.00 L 29857489.00 42231492.00 L 29819220.00 42247343.00 L 29719252.00 42347311.00 L 29703401.00 42385582.41 L 29703401.00 42585515.00 L 29719252.00 42623784.00 L 29819220.00 42723752.00 L 29857491.41 42739603.00  zM 30103272.00 42631363.00 L 29879907.00 42631363.00 L 29811641.00 42563097.00 L 29811641.00 42407998.00 L 29879907.00 42339732.00 L 30103272.00 42339732.00 L 30103272.00 42631363.00  z"/>
<path id="N" d="M 31711027.00 42785450.00 L 31711027.00 42739603.00 L 31756874.00 42739603.00 A 54118.70 54118.70 0 0 0 31756874.00 42631363.00 L 31711027.00 42631363.00 L 31711027.00 42407997.00 L 31795143.00 42323881.00 A 54120.63 54120.63 0 1 0 31718605.00 42247344.00 L 31618638.00 42347311.00 L 31602787.00 42385582.41 L 31602787.00 42631363.00 L 31556939.00 42631363.00 A 54118.70 54118.70 0 0 0 31556939.00 42739603.00 L 31602787.00 42739603.00 L 31602787.00 42785450.00 A 54118.70 54118.70 0 0 0 31711027.00 42785450.00  z"/>
<path id="N" d="M 31295305.00 42723752.00 L 31395273.00 42623784.00 L 31411124.00 42585515.00 L 31411124.00 42285612.00 L 31395273.00 42247343.00 L 31357004.00 42231492.00 L 31057101.00 42231491.00 L 31018832.00 42247343.00 L 30918864.00 42347311.00 L 30903012.00 42385580.00 L 30918865.71 42423849.71 L 31018832.00 42523816.00 L 31057101.00 42539667.00 L 31302884.00 42539667.00 L 31302884.00 42563097.00 L 31234618.00 42631363.00 L 31057101.00 42631363.00 A 54118.70 54118.70 0 0 0 31057101.00 42739603.00 L 31257036.00 42739604.00 L 31295305.00 42723752.00  zM 31302884.00 42431427.00 L 31079517.84 42431427.00 L 31033670.69 42385580.31 L 31079519.00 42339732.00 L 31302884.00 42339732.00 L 31302884.00 42431427.00  z"/>
<path id="N" d="M 33610412.00 42885415.59 L 33610412.00 42639635.00 L 33656260.00 42639635.00 A 54118.70 54118.70 0 0 0 33656260.00 42531395.00 L 33610412.00 42531395.00 L 33610412.00 42285612.00 A 54118.70 54118.70 0 1 0 33502172.00 42285612.00 L 33502172.00 42531395.00 L 33256389.00 42531394.00 A 54122.11 54122.11 0 0 0 33218120.00 42623784.00 L 33518023.00 42923687.00 A 54119.43 54119.43 0 0 0 33610412.00 42885415.59  zM 33502172.00 42754760.00 L 33387047.00 42639635.00 L 33502172.00 42639635.00 L 33502172.00 42754760.00  z"/>
<path id="N" d="M 32156747.41 42739603.00 L 32356680.00 42739603.00 L 32394949.00 42723752.00 L 32494917.00 42623784.00 L 32510768.00 42585512.59 L 32510768.00 42385580.00 L 32494917.00 42347311.00 L 32394949.00 42247343.00 L 32356677.59 42231492.00 L 32156745.00 42231492.00 L 32118476.00 42247343.00 L 32018508.00 42347311.00 L 32002657.00 42385582.41 L 32002657.00 42585515.00 L 32018508.00 42623784.00 L 32118476.00 42723752.00 L 32156747.41 42739603.00  zM 32334262.00 42631363.00 L 32179163.00 42631363.00 L 32110897.00 42563097.00 L 32110897.00 42407998.00 L 32179163.00 42339732.00 L 32334262.00 42339732.00 L 32402528.00 42407998.00 L 32402528.00 42563097.00 L 32334262.00 42631363.00  z"/>
<path id="N" d="M 29411771.00 42685483.00 L 29411771.00 42339732.00 L 29457618.00 42339732.00 A 54118.70 54118.70 0 0 0 29457618.00 42231492.00 L 29257683.00 42231492.00 A 54118.70 54118.70 0 1 0 29257683.00 42339732.00 L 29303531.00 42339732.00 L 29303531.00 42631363.00 L 29257683.00 42631363.00 A 54118.70 54118.70 0 0 0 29257683.00 42739603.00 L 29357651.00 42739603.00 L 29395920.00 42723752.00 L 29411771.00 42685483.00  z"/>
<path id="N" d="M 27796437.00 42923687.00 L 27896405.00 42823719.00 L 27912256.00 42785447.59 L 27912256.00 42385580.00 L 27896405.00 42347311.00 L 27796437.00 42247343.00 L 27758165.59 42231492.00 L 27458265.00 42231492.00 L 27419996.00 42247343.00 L 27404145.00 42285612.00 L 27404145.00 42885418.00 L 27419996.00 42923687.00 L 27458265.00 42939538.00 L 27758168.00 42939538.00 L 27796437.00 42923687.00  zM 27735750.00 42831298.00 L 27512385.00 42831298.00 L 27512385.00 42339732.00 L 27735750.00 42339732.00 L 27804016.00 42407998.00 L 27804016.00 42763032.00 L 27735750.00 42831298.00  z"/>
<path id="N" d="M 30695499.00 42723752.00 L 30795467.00 42623784.00 L 30811318.00 42585515.00 L 30811318.00 42285612.00 A 54118.70 54118.70 0 0 0 30703078.00 42285612.00 L 30703078.00 42563097.00 L 30634812.00 42631363.00 L 30411447.00 42631363.00 L 30411447.00 42285612.00 A 54118.70 54118.70 0 1 0 30303207.00 42285612.00 L 30303207.00 42685483.00 L 30319058.00 42723752.00 L 30357327.00 42739603.00 L 30657230.00 42739604.00 L 30695499.00 42723752.00  z"/>
<path id="N" d="M 32956486.00 42631363.00 L 32878936.00 42631363.00 L 32710703.00 42463129.00 L 32710703.00 42285612.00 A 54118.70 54118.70 0 1 0 32602463.00 42285612.00 L 32602463.00 42685483.00 A 54118.70 54118.70 0 0 0 32710703.00 42685483.00 L 32710703.00 42616205.00 L 32818249.00 42723752.00 L 32856518.00 42739603.00 L 32956486.00 42739603.00 A 54121.84 54121.84 0 0 0 32956486.00 42631363.00  z"/>
<path id="N" d="M 26398735.00 19030133.00 L 26411216.00 19000000.00 L 26411216.00 17000000.00 L 26398735.00 16969867.00 L 26368602.00 16957386.00 L 25116634.00 16957386.00 L 25086501.00 16969867.00 L 25074020.00 17000000.00 L 25074020.00 19000000.00 L 25086501.00 19030133.00 L 25116634.00 19042614.00 L 26368602.00 19042614.00 L 26398735.00 19030133.00  zM 26325988.00 18957386.00 L 25159248.00 18957386.00 L 25159248.00 17042614.00 L 26325988.00 17042614.00 L 26325988.00 18957386.00  z"/>
<path id="N" d="M 16967319.47 18948422.47 m -100354.75 0 a 100354.75 100354.75 0 1 1 200709.51 0a 100354.75 100354.75 0 1 1 -200709.51 0"/>
<path id="N" d="M 24399998.47 21349998.47 m -100354.75 0 a 100354.75 100354.75 0 1 1 200709.51 0a 100354.75 100354.75 0 1 1 -200709.51 0"/>
<path id="N" d="M 27856117.00 19030133.00 L 27868598.00 19000000.00 L 27868598.00 17000000.00 L 27856117.00 16969867.00 L 27825984.00 16957386.00 L 26574016.00 16957386.00 L 26543883.00 16969867.00 L 26531402.00 17000000.00 L 26531402.00 19000000.00 L 26543883.00 19030133.00 L 26574016.00 19042614.00 L 27825984.00 19042614.00 L 27856117.00 19030133.00  zM 27783370.00 18957386.00 L 26616630.00 18957386.00 L 26616630.00 17042614.00 L 27783370.00 17042614.00 L 27783370.00 18957386.00  z"/>
<path id="N" d="M 33227891.47 37237006.47 m -100354.75 0 a 100354.75 100354.75 0 1 1 200709.51 0a 100354.75 100354.75 0 1 1 -200709.51 0"/>
<path id="N" d="M 34793459.00 38786826.00 L 34805940.00 38756693.00 L 34805940.00 37240945.00 L 34793459.00 37210812.00 L 34763326.00 37198331.00 L 33464113.00 37198331.00 L 33433980.00 37210812.00 L 33421499.00 37240945.00 L 33433980.00 37271078.00 L 33464113.00 37283559.00 L 34720712.00 37283559.00 L 34720712.00 38756693.00 L 34733193.00 38786826.00 L 34763326.00 38799307.00 L 34793459.00 38786826.00  z"/>
<path id="N" d="M 23946276.00 18742337.00 L 23958757.00 18712204.00 L 23958757.00 18475984.00 L 23946276.00 18445851.00 L 23916143.00 18433370.00 L 23886010.00 18445851.00 L 23873529.00 18475984.00 L 23873529.00 18669590.00 L 22951576.00 18669590.00 L 22921443.00 18682071.00 L 22908962.00 18712204.00 L 22921443.00 18742337.00 L 22951576.00 18754818.00 L 23916143.00 18754818.00 L 23946276.00 18742337.00  z"/>
<path id="N" d="M 17115565.00 18742337.00 L 17128046.00 18712204.00 L 17115565.00 18682071.00 L 17085432.00 18669590.00 L 16163479.00 18669590.00 L 16163479.00 18475984.00 L 16150998.00 18445851.00 L 16120865.00 18433370.00 L 16090732.00 18445851.00 L 16078251.00 18475984.00 L 16078251.00 18712204.00 L 16090732.00 18742337.00 L 16120865.00 18754818.00 L 17085432.00 18754818.00 L 17115565.00 18742337.00  z"/>
<path id="N" d="M 31722593.00 38786826.00 L 31735074.00 38756693.00 L 31735074.00 37283559.00 L 32991673.00 37283559.00 L 33021806.00 37271078.00 L 33034287.00 37240945.00 L 33021806.00 37210812.00 L 32991673.00 37198331.00 L 31692460.00 37198331.00 L 31662327.00 37210812.00 L 31649846.00 37240945.00 L 31649846.00 38756693.00 L 31662327.00 38786826.00 L 31692460.00 38799307.00 L 31722593.00 38786826.00  z"/>
<path id="N" d="M 24676582.00 34059661.00 L 24689063.00 34029528.00 L 24679221.00 34005766.36 L 24679221.00 31263780.00 L 24666740.00 31233647.00 L 24636607.00 31221166.00 L 24606474.00 31233647.00 L 24593993.00 31263780.00 L 24593993.00 34029528.00 L 24606474.00 34059661.00 L 24636607.00 34072142.00 L 24646449.00 34072142.00 L 24676582.00 34059661.00  z"/>
<path id="N" d="M 31305322.00 24386827.00 L 31317803.00 24356694.00 L 31317803.00 21590946.00 L 31305322.00 21560813.00 L 31275189.00 21548332.00 L 31265347.00 21548332.00 L 31235214.00 21560813.00 L 31222733.00 21590946.00 L 31232575.00 21614707.64 L 31232575.00 24356694.00 L 31245056.00 24386827.00 L 31275189.00 24399308.00 L 31305322.00 24386827.00  z"/>
<path id="N" d="M 24416740.00 24386827.00 L 24429221.00 24356694.00 L 24429221.00 21614707.64 L 24439063.00 21590946.00 L 24426582.00 21560813.00 L 24396449.00 21548332.00 L 24386607.00 21548332.00 L 24356474.00 21560813.00 L 24343993.00 21590946.00 L 24343993.00 24356694.00 L 24356474.00 24386827.00 L 24386607.00 24399308.00 L 24416740.00 24386827.00  z"/>
<path id="N" d="M 31455322.00 34109661.00 L 31467803.00 34079528.00 L 31467803.00 31313780.00 L 31455322.00 31283647.00 L 31425189.00 31271166.00 L 31395056.00 31283647.00 L 31382575.00 31313780.00 L 31382575.00 34055766.36 L 31372733.00 34079528.00 L 31385214.00 34109661.00 L 31415347.00 34122142.00 L 31425189.00 34122142.00 L 31455322.00 34109661.00  z"/>
<path id="N" d="M 29780133.00 17398243.00 L 29792614.00 17368110.00 L 29792614.00 17131890.00 L 29780133.00 17101757.00 L 29750000.00 17089276.00 L 29719867.00 17101757.00 L 29707386.00 17131890.00 L 29707386.00 17368110.00 L 29719867.00 17398243.00 L 29750000.00 17410724.00 L 29780133.00 17398243.00  z"/>
<path id="N" d="M 29835772.00 35442725.00 L 29842013.00 35427659.00 L 29835772.00 35412593.00 L 29820706.00 35406352.00 L 28875824.00 35406352.00 L 28860758.00 35412593.00 L 28854517.00 35427659.00 L 28860758.00 35442725.00 L 28875824.00 35448966.00 L 29820706.00 35448966.00 L 29835772.00 35442725.00  z"/>
<path id="N" d="M 27985378.00 37293119.00 L 27991619.00 37278053.00 L 27991619.00 36333171.00 L 27985378.00 36318105.00 L 27970312.00 36311864.00 L 27955246.00 36318105.00 L 27949005.00 36333171.00 L 27949005.00 37278053.00 L 27955246.00 37293119.00 L 27970312.00 37299360.00 L 27985378.00 37293119.00  z"/>
<path id="N" d="M 29835772.00 38198631.00 L 29842013.00 38183565.00 L 29835772.00 38168499.00 L 29820706.00 38162258.00 L 28875824.00 38162258.00 L 28860758.00 38168499.00 L 28854517.00 38183565.00 L 28860758.00 38198631.00 L 28875824.00 38204872.00 L 29820706.00 38204872.00 L 29835772.00 38198631.00  z"/>
<path id="N" d="M 30741284.00 37293119.00 L 30747525.00 37278053.00 L 30747525.00 36333171.00 L 30741284.00 36318105.00 L 30726218.00 36311864.00 L 30711152.00 36318105.00 L 30704911.00 36333171.00 L 30704911.00 37278053.00 L 30711152.00 37293119.00 L 30726218.00 37299360.00 L 30741284.00 37293119.00  z"/>
<path id="N" d="M 29730133.00 15848243.00 L 29742614.00 15818110.00 L 29742614.00 15581890.00 L 29730133.00 15551757.00 L 29700000.00 15539276.00 L 29669867.00 15551757.00 L 29657386.00 15581890.00 L 29657386.00 15818110.00 L 29669867.00 15848243.00 L 29700000.00 15860724.00 L 29730133.00 15848243.00  z"/>
<path id="N" d="M 29357649.16 42885418.00 m -54121.84 0 a 54121.84 54121.84 0 1 1 108243.68 0a 54121.84 54121.84 0 1 1 -108243.68 0"/>
</g>
</svg>
