<svg width="55.99999976mm" height="64.99999954mm" viewBox="0 0 22047244 25590551"  version="1.1" xmlns="http://www.w3.org/2000/svg" xmlns:xlink="http://www.w3.org/1999/xlink">
<desc>
Origin 0 0 Bound 15722441 13637008 22047244 25590551
</desc>
<g fill-rule="evenodd" fill="rgb(255, 0, 0)" stroke="black" stroke-width="1" transform="translate(0, 25590551) scale(1, -1) translate(-15722441, -13637008)">
<path id="N" d="M 22068204.00 19242426.00 L 22052546.00 19231963.61 L 22052546.00 19196850.00 L 22058662.00 19196850.00 L 22058662.00 18803150.00 L 22017157.36 18803150.00 L 21999607.00 18795880.00 L 21982056.18 18803150.00 L 21940552.00 18803150.00 L 21940552.00 19196850.00 L 21944306.00 19196850.00 L 21944306.00 19230384.02 L 21926284.00 19242426.00 A 100353.26 100353.26 0 1 0 22068204.00 19242426.00  z"/>
<path id="N" d="M 36765346.64 18799984.96 m -315709.31 0 a 315709.31 315709.31 0 1 1 631418.63 0a 315709.31 315709.31 0 1 1 -631418.63 0M 36765354.92 18799997.47 m -208737.53 0 a 208737.53 208737.53 0 1 1 417475.06 0a 208737.53 208737.53 0 1 1 -417475.06 0"/>
<path id="N" d="M 18524897.00 19242426.00 L 18509238.00 19231962.94 L 18509238.00 19196850.00 L 18515354.00 19196850.00 L 18515354.00 18803150.00 L 18473849.36 18803150.00 L 18456299.00 18795880.00 L 18438748.18 18803150.00 L 18397244.00 18803150.00 L 18397244.00 19196850.00 L 18400998.00 19196850.00 L 18400998.00 19230384.69 L 18382977.00 19242426.00 A 100353.26 100353.26 0 1 0 18524897.00 19242426.00  z"/>
<path id="N" d="M 22461905.00 19242426.00 L 22446247.00 19231963.61 L 22446247.00 19196850.00 L 22452363.00 19196850.00 L 22452363.00 18803150.00 L 22410858.36 18803150.00 L 22393308.00 18795880.00 L 22375757.18 18803150.00 L 22334253.00 18803150.00 L 22334253.00 19196850.00 L 22338007.00 19196850.00 L 22338007.00 19230384.02 L 22319985.00 19242426.00 A 100353.26 100353.26 0 1 0 22461905.00 19242426.00  z"/>
<path id="N" d="M 36765346.64 30799984.96 m -315709.31 0 a 315709.31 315709.31 0 1 1 631418.63 0a 315709.31 315709.31 0 1 1 -631418.63 0M 36765354.92 30799997.47 m -208737.53 0 a 208737.53 208737.53 0 1 1 417475.06 0a 208737.53 208737.53 0 1 1 -417475.06 0"/>
<path id="N" d="M 21280803.00 19242426.00 L 21265145.00 19231963.61 L 21265145.00 19196850.00 L 21271261.00 19196850.00 L 21271261.00 18803150.00 L 21229756.36 18803150.00 L 21212206.00 18795880.00 L 21194655.18 18803150.00 L 21153151.00 18803150.00 L 21153151.00 19196850.00 L 21156905.00 19196850.00 L 21156905.00 19230384.02 L 21138883.00 19242426.00 A 100353.26 100353.26 0 1 0 21280803.00 19242426.00  z"/>
<path id="N" d="M 36765346.64 25799984.96 m -315709.31 0 a 315709.31 315709.31 0 1 1 631418.63 0a 315709.31 315709.31 0 1 1 -631418.63 0M 36765354.92 25799997.47 m -208737.53 0 a 208737.53 208737.53 0 1 1 417475.06 0a 208737.53 208737.53 0 1 1 -417475.06 0"/>
<path id="N" d="M 37038752.00 23642154.00 L 37021813.36 23620078.64 L 37438269.00 23203623.00 L 37454120.00 23165351.59 L 37454120.00 16600001.00 L 37438267.29 16561731.29 L 36738269.00 15861731.00 L 36699997.59 15845880.00 L 33900000.00 15845879.00 L 33861730.29 15861732.71 L 32527581.01 17195881.00 L 30158269.00 17195881.00 L 30158269.00 17132895.00 L 30147966.00 17108020.00 L 30123091.00 17097717.00 L 29928091.00 17097717.00 L 29903216.00 17108020.00 L 29892913.00 17132895.00 L 29892913.00 17367107.00 L 29903216.00 17391982.00 L 29928091.00 17402285.00 L 30123091.00 17402285.00 L 30147966.00 17391982.00 L 30158269.00 17367107.00 L 30158269.00 17304121.00 L 32549999.00 17304122.00 L 32588268.00 17288270.00 L 33922417.01 15954120.00 L 36677582.05 15954120.00 L 37345880.00 16622418.04 L 37345880.00 23142936.00 L 36945275.36 23543540.64 L 36923200.00 23526602.00 A 315690.57 315690.57 0 1 0 37038752.00 23642154.00  zM 36765354.92 23799997.47 m -208737.53 0 a 208737.53 208737.53 0 1 1 417475.06 0a 208737.53 208737.53 0 1 1 -417475.06 0"/>
<path id="N" d="M 17343656.00 19242426.00 L 17328067.00 19232009.71 L 17328067.00 19196850.00 L 17334252.00 19196850.00 L 17334252.00 18803150.00 L 17292750.24 18803150.00 L 17275197.00 18795879.00 L 17257644.22 18803150.00 L 17216142.00 18803150.00 L 17216142.00 19196850.00 L 17219827.00 19196850.00 L 17219827.00 19230337.92 L 17201736.00 19242426.00 A 100353.26 100353.26 0 1 0 17343656.00 19242426.00  z"/>
<path id="N" d="M 35463629.83 28710539.00 L 33775376.00 28710539.00 L 27226980.59 22162143.59 L 27240673.00 22093307.00 L 27240673.00 21089371.00 A 190667.29 190667.29 0 0 0 26859329.00 21089371.00 L 26859329.00 22093307.00 A 190667.29 190667.29 0 0 0 27118835.92 22270286.92 L 33689629.00 28841080.00 L 33714437.00 28857656.00 L 33743701.00 28863477.00 L 35458017.96 28863477.00 L 35460418.00 28881707.00 A 315709.31 315709.31 0 1 0 35463629.83 28710539.00  zM 35765354.92 28799997.47 m -208737.53 0 a 208737.53 208737.53 0 1 1 417475.06 0a 208737.53 208737.53 0 1 1 -417475.06 0"/>
<path id="N" d="M 35491956.00 29642154.00 L 35467462.57 29701286.00 L 34266124.00 29701286.00 L 26726981.59 22162143.59 L 26740674.00 22093307.00 L 26740674.00 21089371.00 A 190667.29 190667.29 0 1 0 26359330.00 21089371.00 L 26359330.00 22093307.00 A 190667.29 190667.29 0 0 0 26618836.92 22270286.92 L 34180377.00 29831827.00 L 34205185.00 29848403.00 L 34234449.00 29854224.00 L 35456799.77 29854224.00 L 35460418.00 29881707.00 A 315709.31 315709.31 0 1 0 35491956.00 29642154.00  zM 35765354.92 29799997.47 m -208737.53 0 a 208737.53 208737.53 0 1 1 417475.06 0a 208737.53 208737.53 0 1 1 -417475.06 0"/>
<path id="N" d="M 37689407.00 24157563.75 L 37643212.60 24138429.40 L 37146852.48 24634789.52 L 37150202.00 24640591.00 A 416566.46 416566.46 0 1 1 36924763.00 24415152.00 L 36930564.48 24418501.52 L 37447061.00 23902005.00 L 37447061.00 23399909.75 L 37400866.60 23380775.40 L 37146852.48 23634789.52 L 37150202.00 23640591.00 A 416566.46 416566.46 0 1 1 36924763.00 23415152.00 L 36930564.48 23418501.52 L 37247061.00 23102005.00 L 37247061.00 16663350.00 L 37185582.32 16601871.32 L 37145572.31 16632572.23 L 37150202.00 16640591.00 A 416566.46 416566.46 0 1 1 36924763.00 16415152.00 L 36932781.77 16419781.69 L 36963482.68 16379771.68 L 36636651.00 16052939.00 L 33963349.00 16052939.00 L 32658143.00 17358145.00 L 32608526.00 17391298.00 L 32549999.00 17402940.00 L 30229382.04 17402940.00 L 30227876.00 17410511.00 A 113421.08 113421.08 0 0 1 30123091.00 17480526.00 L 29928091.00 17480526.00 A 113419.34 113419.34 0 0 1 29814672.00 17367107.00 L 29814672.00 17132895.00 A 113419.34 113419.34 0 0 1 29928091.00 17019476.00 L 30123091.00 17019476.00 A 113419.34 113419.34 0 0 1 30227876.00 17089491.00 L 30229382.04 17097062.00 L 32486650.00 17097062.00 L 33684577.60 15899134.40 L 33665443.25 15852940.00 L 30179382.04 15852940.00 L 30177876.00 15860511.00 A 113421.08 113421.08 0 0 1 30073091.00 15930526.00 L 29878091.00 15930526.00 A 113419.34 113419.34 0 0 1 29764672.00 15817107.00 L 29764672.00 15582895.00 A 113419.34 113419.34 0 0 1 29878091.00 15469476.00 L 30073091.00 15469476.00 A 113419.34 113419.34 0 0 1 30177876.00 15539491.00 L 30179382.04 15547062.00 L 36139043.37 15547062.00 L 36148989.03 15497061.75 L 36064241.00 15461958.00 A 693886.55 693886.55 0 1 1 36718437.00 15461958.00 L 36633688.97 15497061.75 L 36643634.63 15547062.00 L 36750001.00 15547062.00 L 36808528.00 15558704.00 L 36858145.00 15591857.00 L 37643212.60 16376924.60 L 37689407.00 16357790.25 L 37689407.00 13717286.00 L 15802719.00 13717286.00 L 15802719.00 17917324.00 L 16586220.00 17917324.00 L 16586220.00 18586614.00 L 15802719.00 18586614.00 L 15802719.00 39147281.00 L 37689407.00 39147281.00 L 37689407.00 24157563.75  zM 17100000.00 14850014.21 m -693878.11 0 a 693878.11 693878.11 0 1 1 1387756.22 0a 693878.11 693878.11 0 1 1 -1387756.22 0M 22222729.00 19425785.00 L 22219094.73 19417011.21 L 22169094.27 19417011.21 L 22165460.00 19425785.00 A 202314.06 202314.06 0 0 1 21799993.65 19355690.82 L 21796480.90 19354344.60 L 21747096.08 19365331.36 L 21746022.00 19370731.00 A 157142.89 157142.89 0 0 1 21462246.00 19371913.00 L 21458268.13 19351915.32 L 21408267.71 19352855.71 A 202313.08 202313.08 0 0 1 21041627.00 19425785.00 L 21037992.73 19417011.21 L 20987992.27 19417011.21 L 20984358.00 19425785.00 A 202314.06 202314.06 0 0 1 20618891.65 19355690.82 L 20615378.90 19354344.60 L 20565994.08 19365331.36 L 20564920.00 19370731.00 A 157142.89 157142.89 0 0 1 20281144.00 19371913.00 L 20277165.13 19351910.30 L 20227164.71 19352855.71 A 202313.08 202313.08 0 0 1 19860524.00 19425785.00 L 19856889.73 19417011.21 L 19806889.27 19417011.21 L 19803255.00 19425785.00 A 202314.06 202314.06 0 0 1 19437788.79 19355691.15 L 19434276.04 19354344.98 L 19384890.49 19365335.31 L 19383817.00 19370732.00 A 157139.33 157139.33 0 0 1 19100042.00 19371913.00 L 19096063.13 19351910.30 L 19046062.71 19352855.71 A 202313.08 202313.08 0 0 1 18679422.00 19425785.00 L 18675787.73 19417011.21 L 18625787.27 19417011.21 L 18622153.00 19425785.00 A 202314.06 202314.06 0 0 1 18285721.00 19425785.00 L 18282086.73 19417011.21 L 18232086.27 19417011.21 L 18228452.00 19425785.00 A 202314.06 202314.06 0 0 1 17892020.00 19425785.00 L 17888355.49 19416938.21 L 17838355.03 19416938.21 L 17834751.00 19425639.00 A 202314.06 202314.06 0 0 1 17498319.00 19425639.00 L 17494645.97 19416771.64 L 17444645.51 19416771.64 L 17440912.00 19425785.00 A 202314.06 202314.06 0 1 1 17104480.00 19200987.00 L 17121008.00 19184459.00 L 17121008.00 18851250.00 L 17132650.00 18792723.00 L 17137402.00 18785611.13 L 17137402.00 18724410.00 L 17193162.80 18724410.00 L 17216670.00 18708703.00 L 17275197.00 18697061.00 L 17333724.00 18708703.00 L 17357231.20 18724410.00 L 17412992.00 18724410.00 L 17412992.00 18786231.88 L 17416494.00 18791473.00 L 17428136.00 18850000.00 L 17426886.00 18856284.04 L 17426886.00 19186961.00 L 17432485.35 19192560.35 L 17479668.09 19195204.58 L 17490779.29 19193546.97 L 17514778.00 19168217.84 L 17514778.00 18851181.00 L 17526420.00 18792654.00 L 17531103.00 18785645.39 L 17531103.00 18735492.75 L 17547689.43 18724410.00 L 17586863.80 18724410.00 L 17610371.00 18708703.00 L 17668898.00 18697061.00 L 17727425.00 18708703.00 L 17750932.20 18724410.00 L 17806693.00 18724410.00 L 17806693.00 18786231.88 L 17810195.00 18791473.00 L 17821837.00 18850000.00 L 17820656.00 18855937.16 L 17820656.00 19186746.00 L 17826126.01 19192216.01 L 17873425.32 19194867.40 L 17884609.77 19193140.04 L 17908479.00 19167997.63 L 17908479.00 18851181.00 L 17920121.00 18792654.00 L 17924804.00 18785645.39 L 17924804.00 18724410.00 L 17980564.80 18724410.00 L 18004072.00 18708703.00 L 18062555.27 18697069.70 L 18121126.00 18708703.00 L 18144633.20 18724410.00 L 18200394.00 18724410.00 L 18200394.00 18786231.88 L 18203896.00 18791473.00 L 18215538.00 18850000.00 L 18214357.00 18855937.16 L 18214357.00 19186892.00 L 18219827.42 19192362.42 L 18267174.46 19194988.01 L 18278280.53 19193267.61 L 18302179.00 19168082.74 L 18302179.00 18851181.00 L 18313821.00 18792654.00 L 18318504.00 18785645.39 L 18318504.00 18724410.00 L 18374264.80 18724410.00 L 18397772.00 18708703.00 L 18456299.00 18697061.00 L 18514826.00 18708703.00 L 18538333.20 18724410.00 L 18594094.00 18724410.00 L 18594094.00 18786231.88 L 18597596.00 18791473.00 L 18609238.00 18850000.00 L 18608057.00 18855937.16 L 18608057.00 19186891.00 L 18613528.42 19192362.42 L 18660875.46 19194988.01 L 18671981.53 19193267.61 L 18695880.00 19168082.74 L 18695880.00 18851181.00 L 18707522.00 18792654.00 L 18712205.00 18785645.39 L 18712907.00 18735024.00 L 18728791.89 18724410.00 L 18767965.80 18724410.00 L 18791473.00 18708703.00 L 18850000.00 18697061.00 L 18908527.00 18708703.00 L 18932034.20 18724410.00 L 18987795.00 18724410.00 L 18987795.00 18786231.88 L 18991297.00 18791473.00 L 19002939.00 18850000.00 L 19001758.00 18855937.16 L 19001758.00 19186891.00 L 19015854.00 19200987.00 L 19039580.75 19258267.68 L 19089581.00 19248321.89 L 19089581.00 18851181.00 A 152940.51 152940.51 0 0 1 19396640.00 18850000.00 L 19395459.00 18855937.16 L 19395459.00 19242617.18 L 19445459.25 19252562.97 L 19466823.00 19200987.00 L 19483282.00 19184528.00 L 19483282.00 18851181.00 L 19494924.00 18792654.00 L 19499607.00 18785645.39 L 19499607.00 18724410.00 L 19555367.80 18724410.00 L 19578875.00 18708703.00 L 19637402.00 18697061.00 L 19695929.00 18708703.00 L 19719436.20 18724410.00 L 19775197.00 18724410.00 L 19775197.00 18786231.88 L 19778699.00 18791473.00 L 19790341.00 18850000.00 L 19789160.00 18855937.16 L 19789160.00 19186892.00 L 19794631.44 19192363.44 L 19841978.17 19194989.06 L 19853083.53 19193269.09 L 19876983.00 19168083.15 L 19876983.00 18851181.00 L 19888625.00 18792654.00 L 19893308.00 18785645.39 L 19894010.00 18735024.00 L 19909894.89 18724410.00 L 19949068.80 18724410.00 L 19972576.00 18708703.00 L 20031103.00 18697061.00 L 20089630.00 18708703.00 L 20113137.20 18724410.00 L 20168898.00 18724410.00 L 20168898.00 18786231.88 L 20172400.00 18791473.00 L 20184042.00 18850000.00 L 20182861.00 18855937.16 L 20182861.00 19186892.00 L 20196956.00 19200987.00 L 20220683.75 19258270.09 L 20270684.00 19248324.30 L 20270684.00 18851181.00 A 152940.51 152940.51 0 0 1 20577743.00 18850000.00 L 20576562.00 18855937.16 L 20576562.00 19242617.18 L 20626562.25 19252562.97 L 20647926.00 19200987.00 L 20664385.00 19184528.00 L 20664385.00 18851181.00 L 20676027.00 18792654.00 L 20680710.00 18785645.39 L 20680710.00 18724410.00 L 20736470.80 18724410.00 L 20759978.00 18708703.00 L 20818505.00 18697061.00 L 20877032.00 18708703.00 L 20900539.20 18724410.00 L 20956300.00 18724410.00 L 20956300.00 18786231.88 L 20959802.00 18791473.00 L 20971444.00 18850000.00 L 20970263.00 18855937.16 L 20970263.00 19186892.00 L 20975734.44 19192363.44 L 21023081.17 19194989.06 L 21034186.53 19193269.09 L 21058086.00 19168083.15 L 21058086.00 18851181.00 L 21069728.00 18792654.00 L 21074411.00 18785645.39 L 21075113.00 18735024.00 L 21090997.89 18724410.00 L 21130171.80 18724410.00 L 21153679.00 18708703.00 L 21212206.00 18697061.00 L 21270733.00 18708703.00 L 21294240.20 18724410.00 L 21350001.00 18724410.00 L 21350001.00 18786231.88 L 21353503.00 18791473.00 L 21365145.00 18850000.00 L 21363964.00 18855937.16 L 21363964.00 19186892.00 L 21378059.00 19200987.00 L 21401785.75 19258267.68 L 21451786.00 19248321.89 L 21451786.00 18851182.00 A 152940.51 152940.51 0 0 1 21758846.00 18850000.00 L 21757664.00 18855942.18 L 21757664.00 19242617.18 L 21807664.25 19252562.97 L 21829028.00 19200987.00 L 21845487.00 19184528.00 L 21845487.00 18851181.00 L 21857129.00 18792654.00 L 21861812.00 18785645.39 L 21861812.00 18724410.00 L 21917572.80 18724410.00 L 21941080.00 18708703.00 L 21999607.00 18697061.00 L 22058134.00 18708703.00 L 22081641.20 18724410.00 L 22137402.00 18724410.00 L 22137402.00 18786231.88 L 22140904.00 18791473.00 L 22152546.00 18850000.00 L 22151365.00 18855937.16 L 22151365.00 19186892.00 L 22156836.44 19192363.44 L 22204183.17 19194989.06 L 22215288.53 19193269.09 L 22239188.00 19168083.15 L 22239188.00 18851181.00 L 22250830.00 18792654.00 L 22255513.00 18785645.39 L 22256215.00 18735024.00 L 22272099.89 18724410.00 L 22311273.80 18724410.00 L 22334781.00 18708703.00 L 22393308.00 18697061.00 L 22451835.00 18708703.00 L 22475342.20 18724410.00 L 22531103.00 18724410.00 L 22531103.00 18786231.88 L 22534605.00 18791473.00 L 22546247.00 18850000.00 L 22545066.00 18855937.16 L 22545066.00 19186892.00 L 22559161.00 19200987.00 L 22582888.75 19258270.09 L 22632889.00 19248324.30 L 22632889.00 18851181.00 A 152940.51 152940.51 0 1 1 22939948.00 18850000.00 L 22938767.00 18855937.16 L 22938767.00 19298818.00 A 152940.51 152940.51 0 0 1 22643349.00 19358527.00 L 22639370.13 19338524.32 L 22589370.00 19343449.01 L 22589370.00 19352855.00 A 202314.06 202314.06 0 0 1 22222729.00 19425785.00  zM 24283072.00 18586614.00 L 23475986.00 18586614.00 L 23475986.00 17917324.00 L 24283072.00 17917324.00 L 24283072.00 18586614.00  zM 25491087.59 17450000.00 L 25387555.43 17450000.00 L 25410967.00 17362626.00 L 25457823.00 17281469.00 L 25524087.00 17215205.00 L 25605244.00 17168349.00 L 25692618.00 17144937.42 L 25692618.00 17248469.59 L 25675813.00 17250682.00 A 258122.37 258122.37 0 0 0 25493300.00 17433195.00 L 25491087.59 17450000.00  zM 25742616.59 17500001.48 m -160563.52 0 a 160563.52 160563.52 0 1 1 321127.04 0a 160563.52 160563.52 0 1 1 -321127.04 0M 25692618.00 17855062.57 L 25605244.00 17831651.00 L 25524087.00 17784795.00 L 25457823.00 17718531.00 L 25410967.00 17637374.00 L 25387555.42 17550000.00 L 25491087.59 17550000.00 L 25493300.00 17566805.00 A 258122.37 258122.37 0 0 0 25675813.00 17749318.00 L 25692618.00 17751530.41 L 25692618.00 17855062.57  zM 26097680.58 17450000.00 L 25994148.41 17450000.00 L 25991936.00 17433195.00 A 258122.37 258122.37 0 0 0 25809423.00 17250682.00 L 25792618.00 17248469.59 L 25792618.00 17144937.43 L 25879992.00 17168349.00 L 25961149.00 17215205.00 L 26027413.00 17281469.00 L 26074269.00 17362626.00 L 26097680.58 17450000.00  zM 25792618.00 17855062.58 L 25792618.00 17751530.41 L 25809423.00 17749318.00 A 258122.37 258122.37 0 0 0 25991936.00 17566805.00 L 25994148.41 17550000.00 L 26097680.57 17550000.00 L 26074269.00 17637374.00 L 26027413.00 17718531.00 L 25961149.00 17784795.00 L 25879992.00 17831651.00 L 25792618.00 17855062.58  zM 27150000.00 17855062.57 L 27062626.00 17831651.00 L 26981469.00 17784795.00 L 26915205.00 17718531.00 L 26868349.00 17637374.00 L 26844937.42 17550000.00 L 26948469.59 17550000.00 L 26950682.00 17566805.00 A 258122.37 258122.37 0 0 0 27133195.00 17749318.00 L 27150000.00 17751530.41 L 27150000.00 17855062.57  zM 26948469.59 17450000.00 L 26844937.43 17450000.00 L 26868349.00 17362626.00 L 26915205.00 17281469.00 L 26981469.00 17215205.00 L 27062626.00 17168349.00 L 27150000.00 17144937.42 L 27150000.00 17248469.59 L 27133195.00 17250682.00 A 258122.37 258122.37 0 0 0 26950682.00 17433195.00 L 26948469.59 17450000.00  zM 27199998.59 17500001.48 m -160563.52 0 a 160563.52 160563.52 0 1 1 321127.04 0a 160563.52 160563.52 0 1 1 -321127.04 0M 27555062.58 17450000.00 L 27451530.41 17450000.00 L 27449318.00 17433195.00 A 258122.37 258122.37 0 0 0 27266805.00 17250682.00 L 27250000.00 17248469.59 L 27250000.00 17144937.43 L 27337374.00 17168349.00 L 27418531.00 17215205.00 L 27484795.00 17281469.00 L 27531651.00 17362626.00 L 27555062.58 17450000.00  zM 27250000.00 17855062.58 L 27250000.00 17751530.41 L 27266805.00 17749318.00 A 258122.37 258122.37 0 0 0 27449318.00 17566805.00 L 27451530.41 17550000.00 L 27555062.57 17550000.00 L 27531651.00 17637374.00 L 27484795.00 17718531.00 L 27418531.00 17784795.00 L 27337374.00 17831651.00 L 27250000.00 17855062.58  zM 35715352.00 17212992.00 L 35710983.00 17212992.00 A 416536.95 416536.95 0 0 1 35352362.00 16854371.00 L 35352362.00 16849998.00 L 35456243.40 16849998.00 L 35460418.00 16881707.00 A 315709.31 315709.31 0 0 0 35683647.00 17104936.00 L 35715352.00 17109110.07 L 35715352.00 17212992.00  zM 35456243.93 16749998.00 L 35352362.00 16749998.00 L 35352362.00 16745629.00 A 416536.95 416536.95 0 0 1 35710983.00 16387008.00 L 35715352.00 16387008.00 L 35715352.00 16490889.93 L 35683647.00 16495064.00 A 315709.31 315709.31 0 0 0 35460418.00 16718293.00 L 35456243.93 16749998.00  zM 35765354.92 16799997.47 m -208737.53 0 a 208737.53 208737.53 0 1 1 417475.06 0a 208737.53 208737.53 0 1 1 -417475.06 0M 35765354.00 18799989.08 m -416566.46 0 a 416566.46 416566.46 0 1 1 833132.93 0a 416566.46 416566.46 0 1 1 -833132.93 0M 35765354.00 21799989.08 m -416566.46 0 a 416566.46 416566.46 0 1 1 833132.93 0a 416566.46 416566.46 0 1 1 -833132.93 0M 35434878.00 31053583.00 L 35391486.75 30978428.00 L 34785433.00 30978428.00 L 34717152.00 30964846.00 L 34659262.99 30926164.99 L 26314722.87 22581625.87 L 26282689.99 22560220.99 L 26079882.80 22357414.36 L 26050003.00 22361348.00 A 268033.96 268033.96 0 0 1 25781962.00 22093307.00 L 25781962.00 21089371.00 A 268033.96 268033.96 0 0 1 26239537.00 20899837.00 L 26270195.82 20939792.94 L 26282098.48 20943676.68 L 26317906.52 20943676.68 L 26329809.18 20939792.94 L 26360468.00 20899837.00 A 268067.42 268067.42 0 0 1 26739536.00 20899837.00 L 26770194.82 20939792.94 L 26782097.48 20943676.68 L 26817905.52 20943676.68 L 26829808.18 20939792.94 L 26860467.00 20899837.00 A 268053.24 268053.24 0 0 1 27239535.00 20899837.00 L 27270193.82 20939792.94 L 27282096.48 20943676.68 L 27317904.52 20943676.68 L 27329807.18 20939792.94 L 27360466.00 20899837.00 A 268067.42 268067.42 0 0 1 27739534.00 20899837.00 L 27770192.82 20939792.94 L 27782095.48 20943676.68 L 27817903.52 20943676.68 L 27829806.18 20939792.94 L 27860465.00 20899837.00 A 268053.24 268053.24 0 0 1 28239533.00 20899837.00 L 28270191.82 20939792.94 L 28282094.48 20943676.68 L 28317902.52 20943676.68 L 28329805.18 20939792.94 L 28360464.00 20899837.00 L 28397059.00 20871757.59 L 28397059.00 18344019.00 L 28408701.00 18285492.00 L 28441854.00 18235875.00 L 29221470.00 17456259.00 L 29221470.00 15857223.28 L 29213490.00 15817107.00 L 29213490.00 15582895.00 A 113419.34 113419.34 0 0 1 29326909.00 15469476.00 L 29521909.00 15469476.00 A 113419.34 113419.34 0 0 1 29635328.00 15582895.00 L 29635328.00 15817107.00 A 113419.34 113419.34 0 0 1 29527348.00 15929444.06 L 29527348.00 17019476.00 L 29571909.00 17019476.00 L 29615313.00 17028110.00 A 113421.08 113421.08 0 0 1 29685328.00 17132895.00 L 29685328.00 17367107.00 A 113419.34 113419.34 0 0 1 29571909.00 17480526.00 L 29527348.00 17480526.00 L 29527348.00 17519608.00 L 29515706.00 17578135.00 L 29482553.00 17627752.00 L 28702937.00 18407368.00 L 28702937.00 20871757.59 L 28739532.00 20899837.00 L 28770190.82 20939792.94 L 28782093.48 20943676.68 L 28817901.52 20943676.68 L 28829804.18 20939792.94 L 28860463.00 20899837.00 L 28871569.00 20891315.19 L 28871569.00 20300004.00 L 28885151.00 20231722.00 L 28923829.00 20173836.00 L 29323833.00 19773832.00 L 29381719.00 19735154.00 L 29450001.00 19721572.00 L 30700000.00 19721572.00 L 30768282.00 19735154.00 L 30826168.00 19773832.00 L 31319278.00 20266942.00 L 31357956.00 20324828.00 L 31371538.00 20393115.03 L 31371538.00 21319202.02 L 34660915.02 24608580.00 L 35398987.77 24608580.00 L 35434878.00 24546417.00 A 416564.38 416564.38 0 1 1 35434878.00 25053583.00 L 35383985.73 24965436.00 L 34587008.00 24965437.00 L 34518727.00 24951854.00 L 34460837.99 24913172.99 L 31066942.00 21519278.00 L 31028264.00 21461392.00 L 31014682.00 21393110.00 L 31014682.00 20467018.00 L 30626092.00 20078428.00 L 29523909.00 20078428.00 L 29228425.00 20373912.00 L 29228425.00 20891315.19 L 29239531.00 20899837.00 L 29270189.82 20939792.94 L 29282092.48 20943676.68 L 29317900.52 20943676.68 L 29329803.18 20939792.94 L 29360462.00 20899837.00 A 268067.42 268067.42 0 0 1 29739530.00 20899837.00 L 29770188.82 20939792.94 L 29782091.48 20943676.68 L 29817899.52 20943676.68 L 29829802.18 20939792.94 L 29860461.00 20899837.00 A 268053.24 268053.24 0 0 1 30318036.00 21089371.00 L 30318036.00 22093307.00 L 30316208.86 22107185.90 L 30373473.24 22164450.30 L 30415169.00 22228132.00 L 30478850.67 22269827.75 L 33817602.01 25608580.00 L 35398987.77 25608580.00 L 35434878.00 25546417.00 A 416564.38 416564.38 0 1 1 35434878.00 26053583.00 L 35383985.73 25965436.00 L 33745171.22 25965436.00 L 33742095.93 25968697.72 L 33720908.16 26011884.16 L 34308357.00 26599333.00 L 35404326.59 26599333.00 L 35434878.00 26546417.00 A 416564.38 416564.38 0 1 1 35379643.23 26956189.00 L 34234449.00 26956190.00 L 34166167.00 26942607.00 L 34108281.00 26903929.00 L 29563873.10 22359521.10 L 29549996.00 22361348.00 A 268026.63 268026.63 0 0 1 29360462.00 22282841.00 L 29329803.18 22242885.06 L 29317900.52 22239001.32 L 29282092.48 22239001.32 L 29270189.82 22242885.06 L 29239531.00 22282841.00 A 268053.24 268053.24 0 0 1 28860463.00 22282841.00 L 28829804.18 22242885.06 L 28817901.52 22239001.32 L 28782093.48 22239001.32 L 28770190.82 22242885.06 L 28739532.00 22282841.00 A 268067.42 268067.42 0 0 1 28360464.00 22282841.00 L 28329805.18 22242885.06 L 28317902.52 22239001.32 L 28282094.48 22239001.32 L 28270191.82 22242885.06 L 28239533.00 22282841.00 A 268053.24 268053.24 0 0 1 27860465.00 22282841.00 L 27829806.18 22242885.06 L 27817903.52 22239001.32 L 27782095.48 22239001.32 L 27770192.82 22242885.06 L 27739534.00 22282841.00 L 27684020.00 22325437.00 L 27628270.27 22348529.94 L 27607438.46 22398409.52 L 33817608.01 28608580.00 L 35398987.77 28608580.00 L 35434878.00 28546417.00 A 416564.38 416564.38 0 1 1 35434878.00 29053583.00 L 35383985.73 28965436.00 L 33745177.22 28965436.00 L 33742100.08 28968700.34 L 33720913.10 29011883.10 L 34308357.00 29599327.00 L 35404330.05 29599327.00 L 35434878.00 29546417.00 A 416564.38 416564.38 0 1 1 35379641.62 29956183.00 L 34264662.36 29956183.00 L 34243951.51 30006183.43 L 34859340.01 30621572.00 L 35391486.75 30621572.00 L 35434878.00 30546417.00 A 416564.38 416564.38 0 1 1 35434878.00 31053583.00  zM 31400000.00 28704496.00 L 30685333.00 28704496.00 L 30587941.00 28685124.00 L 30505377.00 28629956.00 L 30417733.00 28542312.00 L 25065192.00 23036153.00 L 25053207.07 23017654.74 L 25001076.43 22954133.68 L 24988587.00 22941678.00 L 24838592.00 22717854.00 L 24828902.83 22694552.22 L 24814881.00 22673567.00 L 24810024.40 22649150.90 L 24800467.00 22626166.00 L 24800432.69 22600929.41 L 24795509.00 22576176.00 L 24795509.00 22173332.38 L 24791097.00 22162681.00 L 24781964.00 22093307.00 L 24781964.00 21522965.08 L 24764876.00 21497391.00 L 24745504.00 21400000.00 L 24745504.00 20350000.00 L 24764876.00 20252608.00 L 24820044.00 20170044.00 L 25997476.00 18992612.00 L 25997476.00 18855905.00 L 25386713.00 18855905.00 L 25386713.00 18144095.00 L 26098523.00 18144095.00 L 26098523.00 18236316.00 L 26844095.00 18236316.00 L 26844095.00 18144095.00 L 27555905.00 18144095.00 L 27555905.00 18855905.00 L 26844095.00 18855905.00 L 26844095.00 18745308.00 L 26506468.00 18745308.00 L 26506468.00 19098028.00 L 26487096.00 19195420.00 L 26431928.00 19277984.00 L 25254496.00 20455416.00 L 25254496.00 20919329.63 L 25282135.00 20955350.00 L 25308913.00 21019997.00 L 25318046.00 21089371.00 L 25318046.00 22093307.00 L 25308913.00 22162681.00 L 25304501.00 22173332.38 L 25304501.00 22498786.87 L 25411506.33 22658259.07 L 25442918.65 22694493.95 L 30790749.00 28195504.00 L 31400000.00 28195504.00 A 254495.31 254495.31 0 0 1 31400000.00 28704496.00  zM 35456243.93 23749998.00 L 35352362.00 23749998.00 L 35352362.00 23745629.00 A 416536.95 416536.95 0 0 1 35710983.00 23387008.00 L 35715352.00 23387008.00 L 35715352.00 23490889.93 L 35683647.00 23495064.00 A 315709.31 315709.31 0 0 0 35460418.00 23718293.00 L 35456243.93 23749998.00  zM 35765354.92 23799997.47 m -208737.53 0 a 208737.53 208737.53 0 1 1 417475.06 0a 208737.53 208737.53 0 1 1 -417475.06 0M 36178346.00 16749998.00 L 36074464.07 16749998.00 L 36070290.00 16718293.00 A 315709.31 315709.31 0 0 0 35847061.00 16495064.00 L 35815352.00 16490889.40 L 35815352.00 16387008.00 L 35819725.00 16387008.00 A 416536.95 416536.95 0 0 1 36178346.00 16745629.00 L 36178346.00 16749998.00  zM 35819725.00 17212992.00 L 35815352.00 17212992.00 L 35815352.00 17109110.60 L 35847061.00 17104936.00 A 315709.31 315709.31 0 0 0 36070290.00 16881707.00 L 36074464.60 16849998.00 L 36178346.00 16849998.00 L 36178346.00 16854371.00 A 416536.95 416536.95 0 0 1 35819725.00 17212992.00  zM 35765354.00 17799989.08 m -416566.46 0 a 416566.46 416566.46 0 1 1 833132.93 0a 416566.46 416566.46 0 1 1 -833132.93 0M 36765354.00 17799989.08 m -416566.46 0 a 416566.46 416566.46 0 1 1 833132.93 0a 416566.46 416566.46 0 1 1 -833132.93 0M 36765354.00 18799989.08 m -416566.46 0 a 416566.46 416566.46 0 1 1 833132.93 0a 416566.46 416566.46 0 1 1 -833132.93 0M 36456243.93 19749998.00 L 36352362.00 19749998.00 L 36352362.00 19745629.00 A 416536.95 416536.95 0 0 1 36710983.00 19387008.00 L 36715352.00 19387008.00 L 36715352.00 19490889.93 L 36683647.00 19495064.00 A 315709.31 315709.31 0 0 0 36460418.00 19718293.00 L 36456243.93 19749998.00  zM 35765354.00 19799989.08 m -416566.46 0 a 416566.46 416566.46 0 1 1 833132.93 0a 416566.46 416566.46 0 1 1 -833132.93 0M 36715352.00 20212992.00 L 36710983.00 20212992.00 A 416536.95 416536.95 0 0 1 36352362.00 19854371.00 L 36352362.00 19849998.00 L 36456243.40 19849998.00 L 36460418.00 19881707.00 A 315709.31 315709.31 0 0 0 36683647.00 20104936.00 L 36715352.00 20109110.07 L 36715352.00 20212992.00  zM 36765354.92 19799997.47 m -208737.53 0 a 208737.53 208737.53 0 1 1 417475.06 0a 208737.53 208737.53 0 1 1 -417475.06 0M 37178346.00 19749998.00 L 37074464.07 19749998.00 L 37070290.00 19718293.00 A 315709.31 315709.31 0 0 0 36847061.00 19495064.00 L 36815352.00 19490889.40 L 36815352.00 19387008.00 L 36819725.00 19387008.00 A 416536.95 416536.95 0 0 1 37178346.00 19745629.00 L 37178346.00 19749998.00  zM 36819725.00 20212992.00 L 36815352.00 20212992.00 L 36815352.00 20109110.60 L 36847061.00 20104936.00 A 315709.31 315709.31 0 0 0 37070290.00 19881707.00 L 37074464.60 19849998.00 L 37178346.00 19849998.00 L 37178346.00 19854371.00 A 416536.95 416536.95 0 0 1 36819725.00 20212992.00  zM 35765354.00 20799989.08 m -416566.46 0 a 416566.46 416566.46 0 1 1 833132.93 0a 416566.46 416566.46 0 1 1 -833132.93 0M 36456243.93 21749998.00 L 36352362.00 21749998.00 L 36352362.00 21745629.00 A 416536.95 416536.95 0 0 1 36710983.00 21387008.00 L 36715352.00 21387008.00 L 36715352.00 21490889.93 L 36683647.00 21495064.00 A 315709.31 315709.31 0 0 0 36460418.00 21718293.00 L 36456243.93 21749998.00  zM 36765354.92 21799997.47 m -208737.53 0 a 208737.53 208737.53 0 1 1 417475.06 0a 208737.53 208737.53 0 1 1 -417475.06 0M 36765354.00 20799989.08 m -416566.46 0 a 416566.46 416566.46 0 1 1 833132.93 0a 416566.46 416566.46 0 1 1 -833132.93 0M 37178346.00 21749998.00 L 37074464.07 21749998.00 L 37070290.00 21718293.00 A 315709.31 315709.31 0 0 0 36847061.00 21495064.00 L 36815352.00 21490889.40 L 36815352.00 21387008.00 L 36819725.00 21387008.00 A 416536.95 416536.95 0 0 1 37178346.00 21745629.00 L 37178346.00 21749998.00  zM 36715352.00 22212992.00 L 36710983.00 22212992.00 A 416536.95 416536.95 0 0 1 36352362.00 21854371.00 L 36352362.00 21849998.00 L 36456243.40 21849998.00 L 36460418.00 21881707.00 A 315709.31 315709.31 0 0 0 36683647.00 22104936.00 L 36715352.00 22109110.07 L 36715352.00 22212992.00  zM 35765354.00 22799989.08 m -416566.46 0 a 416566.46 416566.46 0 1 1 833132.93 0a 416566.46 416566.46 0 1 1 -833132.93 0M 36819725.00 22212992.00 L 36815352.00 22212992.00 L 36815352.00 22109110.60 L 36847061.00 22104936.00 A 315709.31 315709.31 0 0 0 37070290.00 21881707.00 L 37074464.60 21849998.00 L 37178346.00 21849998.00 L 37178346.00 21854371.00 A 416536.95 416536.95 0 0 1 36819725.00 22212992.00  zM 36178346.00 23749998.00 L 36074464.07 23749998.00 L 36070290.00 23718293.00 A 315709.31 315709.31 0 0 0 35847061.00 23495064.00 L 35815352.00 23490889.40 L 35815352.00 23387008.00 L 35819725.00 23387008.00 A 416536.95 416536.95 0 0 1 36178346.00 23745629.00 L 36178346.00 23749998.00  zM 36765354.00 22799989.08 m -416566.46 0 a 416566.46 416566.46 0 1 1 833132.93 0a 416566.46 416566.46 0 1 1 -833132.93 0M 17100000.00 37684660.21 m -693878.11 0 a 693878.11 693878.11 0 1 1 1387756.22 0a 693878.11 693878.11 0 1 1 -1387756.22 0M 25962545.00 34451575.00 L 25962545.00 33565749.00 A 327604.72 327604.72 0 0 1 26617757.00 33565749.00 L 26617757.00 34451575.00 A 327604.72 327604.72 0 0 1 25962545.00 34451575.00  zM 29694881.00 38413788.47 m -664212.97 0 a 664212.97 664212.97 0 1 1 1328425.95 0a 664212.97 664212.97 0 1 1 -1328425.95 0M 29694881.00 36386228.47 m -664212.97 0 a 664212.97 664212.97 0 1 1 1328425.95 0a 664212.97 664212.97 0 1 1 -1328425.95 0M 30708661.00 37400000.58 m -577379.96 0 a 577379.96 577379.96 0 1 1 1154759.92 0a 577379.96 577379.96 0 1 1 -1154759.92 0M 31722441.00 38413788.47 m -664212.97 0 a 664212.97 664212.97 0 1 1 1328425.95 0a 664212.97 664212.97 0 1 1 -1328425.95 0M 35715352.00 24212992.00 L 35710983.00 24212992.00 A 416536.95 416536.95 0 0 1 35352362.00 23854371.00 L 35352362.00 23849998.00 L 35456243.40 23849998.00 L 35460418.00 23881707.00 A 315709.31 315709.31 0 0 0 35683647.00 24104936.00 L 35715352.00 24109110.07 L 35715352.00 24212992.00  zM 35715352.00 32212992.00 L 35710983.00 32212992.00 A 416536.95 416536.95 0 0 1 35352362.00 31854371.00 L 35352362.00 31849998.00 L 35456243.40 31849998.00 L 35460418.00 31881707.00 A 315709.31 315709.31 0 0 0 35683647.00 32104936.00 L 35715352.00 32109110.07 L 35715352.00 32212992.00  zM 29764126.00 34451575.00 L 29764126.00 33565749.00 A 327604.72 327604.72 0 0 1 30375447.00 33401946.00 L 30400454.85 33462320.00 L 32485344.06 33462320.00 L 33286824.00 32660840.00 L 33344710.00 32622162.00 L 33412997.03 32608580.00 L 35398987.77 32608580.00 L 35434878.00 32546417.00 A 416564.38 416564.38 0 1 1 35434878.00 33053583.00 L 35383985.73 32965436.00 L 33486899.06 32965436.00 L 32685420.00 33766916.00 L 32627534.00 33805594.00 L 32559252.00 33819176.00 L 30419338.00 33819176.00 L 30419338.00 34451575.00 A 327604.72 327604.72 0 0 1 29764126.00 34451575.00  zM 31722441.00 36386228.47 m -664212.97 0 a 664212.97 664212.97 0 1 1 1328425.95 0a 664212.97 664212.97 0 1 1 -1328425.95 0M 32745669.00 35232759.00 L 29392199.00 35232759.00 L 29323917.00 35219177.00 L 29266031.00 35180499.00 L 29178163.00 35092631.00 L 29139485.00 35034745.00 L 29125903.00 34966463.00 L 29125903.00 34724067.71 L 29072679.00 34683227.00 A 327599.99 327599.99 0 0 1 28976725.00 34451575.00 L 28976725.00 33565749.00 A 327604.72 327604.72 0 0 1 29631937.00 33565749.00 L 29631937.00 34451575.00 A 327604.72 327604.72 0 0 1 29535983.00 34683227.00 L 29482759.00 34724067.71 L 29482759.00 34875903.00 L 32671761.04 34875903.00 L 33886824.00 33660840.00 L 33944711.00 33622162.00 L 34012992.00 33608580.00 L 35398987.77 33608580.00 L 35434878.00 33546417.00 A 416564.38 416564.38 0 1 1 35434878.00 34053583.00 L 35383985.73 33965436.00 L 34086899.04 33965436.00 L 32871837.00 35180499.00 L 32813951.00 35219177.00 L 32745669.00 35232759.00  zM 35819725.00 24212992.00 L 35815352.00 24212992.00 L 35815352.00 24109110.60 L 35847061.00 24104936.00 A 315709.31 315709.31 0 0 0 36070290.00 23881707.00 L 36074464.60 23849998.00 L 36178346.00 23849998.00 L 36178346.00 23854371.00 A 416536.95 416536.95 0 0 1 35819725.00 24212992.00  zM 35765354.00 27799989.08 m -416566.46 0 a 416566.46 416566.46 0 1 1 833132.93 0a 416566.46 416566.46 0 1 1 -833132.93 0M 36715352.00 30212992.00 L 36710983.00 30212992.00 A 416536.95 416536.95 0 0 1 36352362.00 29854371.00 L 36352362.00 29849998.00 L 36456243.40 29849998.00 L 36460418.00 29881707.00 A 315709.31 315709.31 0 0 0 36683647.00 30104936.00 L 36715352.00 30109110.07 L 36715352.00 30212992.00  zM 35456243.93 31749998.00 L 35352362.00 31749998.00 L 35352362.00 31745629.00 A 416536.95 416536.95 0 0 1 35710983.00 31387008.00 L 35715352.00 31387008.00 L 35715352.00 31490889.93 L 35683647.00 31495064.00 A 315709.31 315709.31 0 0 0 35460418.00 31718293.00 L 35456243.93 31749998.00  zM 35765354.92 31799997.47 m -208737.53 0 a 208737.53 208737.53 0 1 1 417475.06 0a 208737.53 208737.53 0 1 1 -417475.06 0M 36178346.00 31749998.00 L 36074464.07 31749998.00 L 36070290.00 31718293.00 A 315709.31 315709.31 0 0 0 35847061.00 31495064.00 L 35815352.00 31490889.40 L 35815352.00 31387008.00 L 35819725.00 31387008.00 A 416536.95 416536.95 0 0 1 36178346.00 31745629.00 L 36178346.00 31749998.00  zM 35819725.00 32212992.00 L 35815352.00 32212992.00 L 35815352.00 32109110.60 L 35847061.00 32104936.00 A 315709.31 315709.31 0 0 0 36070290.00 31881707.00 L 36074464.60 31849998.00 L 36178346.00 31849998.00 L 36178346.00 31854371.00 A 416536.95 416536.95 0 0 1 35819725.00 32212992.00  zM 36715352.00 34212992.00 L 36710983.00 34212992.00 A 416536.95 416536.95 0 0 1 36352362.00 33854371.00 L 36352362.00 33849998.00 L 36456243.40 33849998.00 L 36460418.00 33881707.00 A 315709.31 315709.31 0 0 0 36683647.00 34104936.00 L 36715352.00 34109110.07 L 36715352.00 34212992.00  zM 35765354.00 34799989.08 m -416566.46 0 a 416566.46 416566.46 0 1 1 833132.93 0a 416566.46 416566.46 0 1 1 -833132.93 0M 36178346.00 36212992.00 L 35352362.00 36212992.00 L 35352362.00 35387008.00 L 36178346.00 35387008.00 L 36178346.00 36212992.00  zM 36391339.00 37684660.21 m -693878.11 0 a 693878.11 693878.11 0 1 1 1387756.22 0a 693878.11 693878.11 0 1 1 -1387756.22 0M 36765354.00 25799989.08 m -416566.46 0 a 416566.46 416566.46 0 1 1 833132.93 0a 416566.46 416566.46 0 1 1 -833132.93 0M 36456243.93 26749998.00 L 36352362.00 26749998.00 L 36352362.00 26745629.00 A 416536.95 416536.95 0 0 1 36710983.00 26387008.00 L 36715352.00 26387008.00 L 36715352.00 26490889.93 L 36683647.00 26495064.00 A 315709.31 315709.31 0 0 0 36460418.00 26718293.00 L 36456243.93 26749998.00  zM 37178346.00 26749998.00 L 37074464.07 26749998.00 L 37070290.00 26718293.00 A 315709.31 315709.31 0 0 0 36847061.00 26495064.00 L 36815352.00 26490889.40 L 36815352.00 26387008.00 L 36819725.00 26387008.00 A 416536.95 416536.95 0 0 1 37178346.00 26745629.00 L 37178346.00 26749998.00  zM 36715352.00 27212992.00 L 36710983.00 27212992.00 A 416536.95 416536.95 0 0 1 36352362.00 26854371.00 L 36352362.00 26849998.00 L 36456243.40 26849998.00 L 36460418.00 26881707.00 A 315709.31 315709.31 0 0 0 36683647.00 27104936.00 L 36715352.00 27109110.07 L 36715352.00 27212992.00  zM 36765354.92 26799997.47 m -208737.53 0 a 208737.53 208737.53 0 1 1 417475.06 0a 208737.53 208737.53 0 1 1 -417475.06 0M 36819725.00 27212992.00 L 36815352.00 27212992.00 L 36815352.00 27109110.60 L 36847061.00 27104936.00 A 315709.31 315709.31 0 0 0 37070290.00 26881707.00 L 37074464.60 26849998.00 L 37178346.00 26849998.00 L 37178346.00 26854371.00 A 416536.95 416536.95 0 0 1 36819725.00 27212992.00  zM 36765354.00 27799989.08 m -416566.46 0 a 416566.46 416566.46 0 1 1 833132.93 0a 416566.46 416566.46 0 1 1 -833132.93 0M 36765354.00 28799989.08 m -416566.46 0 a 416566.46 416566.46 0 1 1 833132.93 0a 416566.46 416566.46 0 1 1 -833132.93 0M 36456243.93 29749998.00 L 36352362.00 29749998.00 L 36352362.00 29745629.00 A 416536.95 416536.95 0 0 1 36710983.00 29387008.00 L 36715352.00 29387008.00 L 36715352.00 29490889.93 L 36683647.00 29495064.00 A 315709.31 315709.31 0 0 0 36460418.00 29718293.00 L 36456243.93 29749998.00  zM 36765354.92 29799997.47 m -208737.53 0 a 208737.53 208737.53 0 1 1 417475.06 0a 208737.53 208737.53 0 1 1 -417475.06 0M 37178346.00 29749998.00 L 37074464.07 29749998.00 L 37070290.00 29718293.00 A 315709.31 315709.31 0 0 0 36847061.00 29495064.00 L 36815352.00 29490889.40 L 36815352.00 29387008.00 L 36819725.00 29387008.00 A 416536.95 416536.95 0 0 1 37178346.00 29745629.00 L 37178346.00 29749998.00  zM 36819725.00 30212992.00 L 36815352.00 30212992.00 L 36815352.00 30109110.60 L 36847061.00 30104936.00 A 315709.31 315709.31 0 0 0 37070290.00 29881707.00 L 37074464.60 29849998.00 L 37178346.00 29849998.00 L 37178346.00 29854371.00 A 416536.95 416536.95 0 0 1 36819725.00 30212992.00  zM 36765354.00 30799989.08 m -416566.46 0 a 416566.46 416566.46 0 1 1 833132.93 0a 416566.46 416566.46 0 1 1 -833132.93 0M 36765354.00 31799989.08 m -416566.46 0 a 416566.46 416566.46 0 1 1 833132.93 0a 416566.46 416566.46 0 1 1 -833132.93 0M 36765354.00 32799989.08 m -416566.46 0 a 416566.46 416566.46 0 1 1 833132.93 0a 416566.46 416566.46 0 1 1 -833132.93 0M 36456243.93 33749998.00 L 36352362.00 33749998.00 L 36352362.00 33745629.00 A 416536.95 416536.95 0 0 1 36710983.00 33387008.00 L 36715352.00 33387008.00 L 36715352.00 33490889.93 L 36683647.00 33495064.00 A 315709.31 315709.31 0 0 0 36460418.00 33718293.00 L 36456243.93 33749998.00  zM 36765354.92 33799997.47 m -208737.53 0 a 208737.53 208737.53 0 1 1 417475.06 0a 208737.53 208737.53 0 1 1 -417475.06 0M 37178346.00 33749998.00 L 37074464.07 33749998.00 L 37070290.00 33718293.00 A 315709.31 315709.31 0 0 0 36847061.00 33495064.00 L 36815352.00 33490889.40 L 36815352.00 33387008.00 L 36819725.00 33387008.00 A 416536.95 416536.95 0 0 1 37178346.00 33745629.00 L 37178346.00 33749998.00  zM 36819725.00 34212992.00 L 36815352.00 34212992.00 L 36815352.00 34109110.60 L 36847061.00 34104936.00 A 315709.31 315709.31 0 0 0 37070290.00 33881707.00 L 37074464.60 33849998.00 L 37178346.00 33849998.00 L 37178346.00 33854371.00 A 416536.95 416536.95 0 0 1 36819725.00 34212992.00  zM 36765354.00 34799989.08 m -416566.46 0 a 416566.46 416566.46 0 1 1 833132.93 0a 416566.46 416566.46 0 1 1 -833132.93 0M 37178346.00 36212992.00 L 36352362.00 36212992.00 L 36352362.00 35387008.00 L 37178346.00 35387008.00 L 37178346.00 36212992.00  z"/>
<path id="N" d="M 19312299.00 19242426.00 L 19296640.00 19231962.94 L 19296640.00 19196850.00 L 19302756.00 19196850.00 L 19302756.00 18803150.00 L 19261251.36 18803150.00 L 19243701.00 18795880.00 L 19226150.18 18803150.00 L 19184646.00 18803150.00 L 19184646.00 19196850.00 L 19188400.00 19196850.00 L 19188400.00 19230384.69 L 19170379.00 19242426.00 A 100353.26 100353.26 0 1 0 19312299.00 19242426.00  z"/>
<path id="N" d="M 22855606.00 19242426.00 L 22839948.00 19231963.61 L 22839948.00 19196850.00 L 22846064.00 19196850.00 L 22846064.00 18803150.00 L 22804559.36 18803150.00 L 22787009.00 18795880.00 L 22769458.18 18803150.00 L 22727954.00 18803150.00 L 22727954.00 19196850.00 L 22731708.00 19196850.00 L 22731708.00 19230384.02 L 22713686.00 19242426.00 A 100353.26 100353.26 0 1 0 22855606.00 19242426.00  z"/>
<path id="N" d="M 21674503.00 19242426.00 L 21658845.00 19231963.61 L 21658845.00 19196850.00 L 21664962.00 19196850.00 L 21664962.00 18803150.00 L 21623460.24 18803150.00 L 21605907.00 18795879.00 L 21588354.22 18803150.00 L 21546852.00 18803150.00 L 21546852.00 19196850.00 L 21550605.00 19196850.00 L 21550605.00 19230384.02 L 21532583.00 19242426.00 A 100353.26 100353.26 0 1 0 21674503.00 19242426.00  z"/>
<path id="N" d="M 20493401.00 19242426.00 L 20477743.00 19231963.61 L 20477743.00 19196850.00 L 20483859.00 19196850.00 L 20483859.00 18803150.00 L 20442354.36 18803150.00 L 20424804.00 18795880.00 L 20407253.18 18803150.00 L 20365749.00 18803150.00 L 20365749.00 19196850.00 L 20369503.00 19196850.00 L 20369503.00 19230384.02 L 20351481.00 19242426.00 A 100353.26 100353.26 0 1 0 20493401.00 19242426.00  z"/>
<path id="N" d="M 39253543.00 19374016.00 L 38722047.00 19374016.00 L 38722047.00 21027558.00 L 39253543.00 21027558.00 L 39253543.00 19374016.00  z"/>
<path id="N" d="M 41477953.00 19374016.00 L 40946457.00 19374016.00 L 40946457.00 21027558.00 L 41477953.00 21027558.00 L 41477953.00 19374016.00  z"/>
<path id="N" d="M 36765346.64 16799984.96 m -315709.31 0 a 315709.31 315709.31 0 1 1 631418.63 0a 315709.31 315709.31 0 1 1 -631418.63 0M 36765354.92 16799997.47 m -208737.53 0 a 208737.53 208737.53 0 1 1 417475.06 0a 208737.53 208737.53 0 1 1 -417475.06 0"/>
<path id="N" d="M 35463629.83 24710539.00 L 34618682.01 24710539.00 L 31269579.00 21361435.01 L 31269579.00 20393110.00 L 31263758.00 20363846.00 L 31247182.00 20339038.00 L 30754072.00 19845928.00 L 30729264.00 19829352.00 L 30700000.00 19823531.00 L 29450001.00 19823531.00 L 29420737.00 19829352.00 L 29395929.00 19845928.00 L 28995925.00 20245932.00 L 28979349.00 20270740.00 L 28973528.00 20300004.00 L 28973528.00 20915553.01 L 28915172.00 20954546.00 L 28873839.00 21016404.00 L 28859325.00 21089371.00 L 28859325.00 22093307.00 A 190667.29 190667.29 0 0 0 29240669.00 22093307.00 L 29240669.00 21089371.00 A 190667.29 190667.29 0 0 0 29126466.00 20915553.01 L 29126466.00 20331679.00 L 29481676.00 19976469.00 L 30668325.00 19976469.00 L 31116641.00 20424785.00 L 31116641.00 21393110.00 L 31122462.00 21422374.00 L 31139038.00 21447182.00 L 34532936.00 24841080.00 L 34557745.00 24857656.00 L 34587013.03 24863477.00 L 35458017.96 24863477.00 L 35460418.00 24881707.00 A 315709.31 315709.31 0 1 0 35463629.83 24710539.00  zM 35765354.92 24799997.47 m -208737.53 0 a 208737.53 208737.53 0 1 1 417475.06 0a 208737.53 208737.53 0 1 1 -417475.06 0"/>
<path id="N" d="M 32799741.00 35108403.00 L 34044666.02 33863477.00 L 35458017.96 33863477.00 L 35460418.00 33881707.00 A 315709.31 315709.31 0 1 0 35491956.00 33642154.00 L 35463629.83 33710539.00 L 34012992.00 33710539.00 L 33983729.00 33716360.00 L 33958917.99 33732939.01 L 32713994.02 34977862.00 L 29423874.00 34977862.00 L 29380800.00 34934788.00 L 29380800.00 34687248.67 L 29400340.00 34683362.00 A 250884.37 250884.37 0 0 0 29555215.00 34451575.00 L 29555215.00 33565749.00 A 250882.20 250882.20 0 0 0 29053447.00 33565749.00 L 29053447.00 34451575.00 A 250882.20 250882.20 0 0 0 29208322.00 34683362.00 L 29227862.00 34687248.67 L 29227862.00 34966463.00 L 29233683.00 34995727.00 L 29250259.00 35020535.00 L 29338127.00 35108403.00 L 29362935.00 35124979.00 L 29392199.00 35130800.00 L 32745669.00 35130800.00 L 32774933.00 35124979.00 L 32799741.00 35108403.00  zM 35765354.92 33799997.47 m -208737.53 0 a 208737.53 208737.53 0 1 1 417475.06 0a 208737.53 208737.53 0 1 1 -417475.06 0"/>
<path id="N" d="M 36765346.64 28799984.96 m -315709.31 0 a 315709.31 315709.31 0 1 1 631418.63 0a 315709.31 315709.31 0 1 1 -631418.63 0M 36765354.92 28799997.47 m -208737.53 0 a 208737.53 208737.53 0 1 1 417475.06 0a 208737.53 208737.53 0 1 1 -417475.06 0"/>
<path id="N" d="M 36765346.64 22799984.96 m -315709.31 0 a 315709.31 315709.31 0 1 1 631418.63 0a 315709.31 315709.31 0 1 1 -631418.63 0M 36765354.92 22799997.47 m -208737.53 0 a 208737.53 208737.53 0 1 1 417475.06 0a 208737.53 208737.53 0 1 1 -417475.06 0"/>
<path id="N" d="M 36765346.64 32799984.96 m -315709.31 0 a 315709.31 315709.31 0 1 1 631418.63 0a 315709.31 315709.31 0 1 1 -631418.63 0M 36765354.92 32799997.47 m -208737.53 0 a 208737.53 208737.53 0 1 1 417475.06 0a 208737.53 208737.53 0 1 1 -417475.06 0"/>
<path id="N" d="M 36765346.64 34799984.96 m -315709.31 0 a 315709.31 315709.31 0 1 1 631418.63 0a 315709.31 315709.31 0 1 1 -631418.63 0M 36765354.92 34799997.47 m -208737.53 0 a 208737.53 208737.53 0 1 1 417475.06 0a 208737.53 208737.53 0 1 1 -417475.06 0"/>
<path id="N" d="M 37078346.00 35487008.00 L 36452362.00 35487008.00 L 36452362.00 36112992.00 L 37078346.00 36112992.00 L 37078346.00 35487008.00  zM 36765354.92 35799997.47 m -208737.53 0 a 208737.53 208737.53 0 1 1 417475.06 0a 208737.53 208737.53 0 1 1 -417475.06 0"/>
<path id="N" d="M 18918598.00 19242426.00 L 18902939.00 19231962.94 L 18902939.00 19196850.00 L 18909055.00 19196850.00 L 18909055.00 18803150.00 L 18867550.36 18803150.00 L 18850000.00 18795880.00 L 18832449.18 18803150.00 L 18790945.00 18803150.00 L 18790945.00 19196850.00 L 18794699.00 19196850.00 L 18794699.00 19230384.69 L 18776678.00 19242426.00 A 100353.26 100353.26 0 1 0 18918598.00 19242426.00  z"/>
<path id="N" d="M 28740670.00 22093307.00 L 28740670.00 21089371.00 A 190667.29 190667.29 0 0 0 28622965.00 20913213.00 L 28604118.00 20909464.11 L 28604118.00 18366436.98 L 29412678.00 17557877.00 L 29428529.00 17519608.00 L 29428529.00 17402285.00 L 29571909.00 17402285.00 L 29596784.00 17391982.00 L 29607087.00 17367107.00 L 29607087.00 17132895.00 L 29596784.00 17108020.00 L 29571909.00 17097717.00 L 29428529.00 17097717.00 L 29428529.00 15852285.00 L 29521909.00 15852285.00 L 29546784.00 15841982.00 L 29557087.00 15817107.00 L 29557087.00 15582895.00 L 29546784.00 15558020.00 L 29521909.00 15547717.00 L 29326909.00 15547717.00 L 29302034.00 15558020.00 L 29291731.00 15582895.00 L 29291731.00 15817107.00 L 29302034.00 15841982.00 L 29320289.00 15849543.06 L 29320289.00 17497190.98 L 28511729.00 18305750.00 L 28495878.00 18344021.41 L 28495878.00 20909464.11 L 28477031.00 20913213.00 A 190680.40 190680.40 0 0 0 28359326.00 21089371.00 L 28359326.00 22093307.00 A 190667.29 190667.29 0 0 0 28740670.00 22093307.00  z"/>
<path id="N" d="M 20887102.00 19242426.00 L 20871444.00 19231963.61 L 20871444.00 19196850.00 L 20877560.00 19196850.00 L 20877560.00 18803150.00 L 20836055.36 18803150.00 L 20818505.00 18795880.00 L 20800954.18 18803150.00 L 20759450.00 18803150.00 L 20759450.00 19196850.00 L 20763204.00 19196850.00 L 20763204.00 19230384.02 L 20745182.00 19242426.00 A 100353.26 100353.26 0 1 0 20887102.00 19242426.00  z"/>
<path id="N" d="M 36765346.64 31799984.96 m -315709.31 0 a 315709.31 315709.31 0 1 1 631418.63 0a 315709.31 315709.31 0 1 1 -631418.63 0M 36765354.92 31799997.47 m -208737.53 0 a 208737.53 208737.53 0 1 1 417475.06 0a 208737.53 208737.53 0 1 1 -417475.06 0"/>
<path id="N" d="M 35491956.00 26642154.00 L 35467460.09 26701292.00 L 34266124.00 26701292.00 L 29726975.59 22162143.59 L 29740668.00 22093307.00 L 29740668.00 21089371.00 A 190667.29 190667.29 0 0 0 29359324.00 21089371.00 L 29359324.00 22093307.00 A 190667.29 190667.29 0 0 0 29618830.92 22270286.92 L 34180377.00 26831833.00 L 34205185.00 26848409.00 L 34234449.00 26854230.00 L 35456800.56 26854230.00 L 35460418.00 26881707.00 A 315709.31 315709.31 0 1 0 35491956.00 26642154.00  zM 35765354.92 26799997.47 m -208737.53 0 a 208737.53 208737.53 0 1 1 417475.06 0a 208737.53 208737.53 0 1 1 -417475.06 0"/>
<path id="N" d="M 36765346.64 27799984.96 m -315709.31 0 a 315709.31 315709.31 0 1 1 631418.63 0a 315709.31 315709.31 0 1 1 -631418.63 0M 36765354.92 27799997.47 m -208737.53 0 a 208737.53 208737.53 0 1 1 417475.06 0a 208737.53 208737.53 0 1 1 -417475.06 0"/>
<path id="N" d="M 37038752.00 24642154.00 L 37021813.25 24620078.49 L 37638269.00 24003623.00 L 37654120.00 23965351.59 L 37654120.00 16550000.00 L 37638269.00 16511731.00 L 36788270.00 15661732.00 L 36749998.59 15645881.00 L 30108269.00 15645881.00 L 30108269.00 15582895.00 L 30097966.00 15558020.00 L 30073091.00 15547717.00 L 29878091.00 15547717.00 L 29853216.00 15558020.00 L 29842913.00 15582895.00 L 29842913.00 15817107.00 L 29853216.00 15841982.00 L 29878091.00 15852285.00 L 30073091.00 15852285.00 L 30097966.00 15841982.00 L 30108269.00 15817107.00 L 30108269.00 15754121.00 L 36727583.00 15754121.00 L 37545880.00 16572418.00 L 37545880.00 23942936.98 L 36945275.51 24543540.75 L 36923200.00 24526602.00 A 315690.57 315690.57 0 1 0 37038752.00 24642154.00  zM 36765354.92 24799997.47 m -208737.53 0 a 208737.53 208737.53 0 1 1 417475.06 0a 208737.53 208737.53 0 1 1 -417475.06 0"/>
<path id="N" d="M 35460418.00 30718293.00 L 35459728.40 30723531.00 L 34817107.00 30723531.00 L 26473561.00 22379984.00 L 26448753.00 22363408.00 L 26445759.63 22362812.58 L 26229987.00 22147039.35 L 26240675.00 22093307.00 L 26240675.00 21089371.00 A 190667.29 190667.29 0 1 0 25859331.00 21089371.00 L 25859331.00 22093307.00 A 190667.29 190667.29 0 0 0 26122970.00 22269465.00 L 26130856.01 22264195.63 L 26354788.00 22488128.00 L 26379597.00 22504704.00 L 26382587.97 22505298.96 L 34731361.00 30854072.00 L 34756170.00 30870648.00 L 34785433.00 30876469.00 L 35459728.40 30876469.00 L 35460418.00 30881707.00 A 315709.31 315709.31 0 1 0 35460418.00 30718293.00  zM 35765354.92 30799997.47 m -208737.53 0 a 208737.53 208737.53 0 1 1 417475.06 0a 208737.53 208737.53 0 1 1 -417475.06 0"/>
<path id="N" d="M 30342616.00 34451575.00 L 30342616.00 33717217.00 L 32559252.00 33717217.00 L 32588516.00 33711396.00 L 32613324.00 33694820.00 L 33444667.00 32863477.00 L 35458017.96 32863477.00 L 35460418.00 32881707.00 A 315709.31 315709.31 0 1 0 35491956.00 32642154.00 L 35463629.83 32710539.00 L 33412992.00 32710538.00 L 33383729.00 32716360.00 L 33358920.00 32732936.00 L 32527577.00 33564279.00 L 30342323.60 33564279.00 A 248961.86 248961.86 0 0 0 29840848.00 33565749.00 L 29840848.00 34451575.00 A 250882.20 250882.20 0 0 0 30342616.00 34451575.00  zM 35765354.92 32799997.47 m -208737.53 0 a 208737.53 208737.53 0 1 1 417475.06 0a 208737.53 208737.53 0 1 1 -417475.06 0"/>
<path id="N" d="M 35463629.83 25710539.00 L 33775369.01 25710539.00 L 30226974.58 22162143.62 L 30240667.00 22093307.00 L 30240667.00 21089371.00 A 190667.29 190667.29 0 1 0 29859323.00 21089371.00 L 29859323.00 22093307.00 A 190667.29 190667.29 0 0 0 30118829.95 22270286.91 L 33689623.00 25841080.00 L 33714432.00 25857656.00 L 33743700.03 25863477.00 L 35458017.96 25863477.00 L 35460418.00 25881707.00 A 315709.31 315709.31 0 1 0 35463629.83 25710539.00  zM 35765354.92 25799997.47 m -208737.53 0 a 208737.53 208737.53 0 1 1 417475.06 0a 208737.53 208737.53 0 1 1 -417475.06 0"/>
<path id="N" d="M 36765346.64 17799984.96 m -315709.31 0 a 315709.31 315709.31 0 1 1 631418.63 0a 315709.31 315709.31 0 1 1 -631418.63 0M 36765354.92 17799997.47 m -208737.53 0 a 208737.53 208737.53 0 1 1 417475.06 0a 208737.53 208737.53 0 1 1 -417475.06 0"/>
<path id="N" d="M 31400000.00 28297463.00 L 30748516.00 28297463.00 L 25357049.00 22752102.00 L 25327988.00 22714229.00 L 25326714.60 22715082.40 L 25202542.00 22529790.84 L 25202542.00 22201624.64 L 25226163.00 22166274.00 L 25240677.00 22093307.00 L 25240677.00 21089371.00 L 25226163.00 21016404.00 L 25184830.00 20954546.00 L 25152537.00 20932968.09 L 25152537.00 20413183.00 L 26359832.00 19205888.00 L 26392898.00 19156402.00 L 26404509.00 19098028.00 L 26404509.00 18643349.00 L 26944095.00 18643349.00 L 26944095.00 18755905.00 L 27455905.00 18755905.00 L 27455905.00 18244095.00 L 26944095.00 18244095.00 L 26944095.00 18338275.00 L 25998523.00 18338275.00 L 25998523.00 18244095.00 L 25486713.00 18244095.00 L 25486713.00 18755905.00 L 25998523.00 18755905.00 L 25998523.00 18643349.00 L 26099435.00 18643349.00 L 26099435.00 19034845.00 L 24892140.00 20242140.00 L 24859074.00 20291626.00 L 24847463.00 20350000.00 L 24847463.00 21400000.00 L 24859333.00 21458760.62 L 24859333.00 22093307.00 L 24873847.00 22166274.00 L 24897468.00 22201624.64 L 24897468.00 22576176.00 L 24900419.42 22591013.92 L 24900440.00 22606138.00 L 24906167.91 22619913.80 L 24909079.00 22634549.00 L 24917482.52 22647125.81 L 24923290.00 22661093.00 L 25073286.00 22884917.00 L 25082760.86 22894366.45 L 25138471.30 22965260.19 L 30486824.00 28467189.00 L 30577473.00 28557860.00 L 30626959.00 28590926.00 L 30685333.00 28602537.00 L 31400000.00 28602537.00 A 152536.45 152536.45 0 0 0 31400000.00 28297463.00  zM 25742616.59 18500001.48 m -160563.52 0 a 160563.52 160563.52 0 1 1 321127.04 0a 160563.52 160563.52 0 1 1 -321127.04 0M 27199998.59 18500001.48 m -160563.52 0 a 160563.52 160563.52 0 1 1 321127.04 0a 160563.52 160563.52 0 1 1 -321127.04 0"/>
<path id="N" d="M 35765346.64 27799984.96 m -315709.31 0 a 315709.31 315709.31 0 1 1 631418.63 0a 315709.31 315709.31 0 1 1 -631418.63 0M 35765354.92 27799997.47 m -208737.53 0 a 208737.53 208737.53 0 1 1 417475.06 0a 208737.53 208737.53 0 1 1 -417475.06 0"/>
<path id="N" d="M 17100001.79 37684648.99 m -593404.85 0 a 593404.85 593404.85 0 1 1 1186809.70 0a 593404.85 593404.85 0 1 1 -1186809.70 0M 17100001.69 37684638.57 m -436815.43 0 a 436815.43 436815.43 0 1 1 873630.85 0a 436815.43 436815.43 0 1 1 -873630.85 0"/>
<path id="N" d="M 36391340.79 37684648.99 m -593404.85 0 a 593404.85 593404.85 0 1 1 1186809.70 0a 593404.85 593404.85 0 1 1 -1186809.70 0M 36391340.69 37684638.57 m -436815.43 0 a 436815.43 436815.43 0 1 1 873630.85 0a 436815.43 436815.43 0 1 1 -873630.85 0"/>
<path id="N" d="M 17100001.79 14850002.99 m -593404.85 0 a 593404.85 593404.85 0 1 1 1186809.70 0a 593404.85 593404.85 0 1 1 -1186809.70 0M 17100001.69 14849992.57 m -436815.43 0 a 436815.43 436815.43 0 1 1 873630.85 0a 436815.43 436815.43 0 1 1 -873630.85 0"/>
<path id="N" d="M 36391340.79 14850002.99 m -593404.85 0 a 593404.85 593404.85 0 1 1 1186809.70 0a 593404.85 593404.85 0 1 1 -1186809.70 0M 36391340.69 14849992.57 m -436815.43 0 a 436815.43 436815.43 0 1 1 873630.85 0a 436815.43 436815.43 0 1 1 -873630.85 0"/>
<path id="N" d="M 30708665.99 37400009.15 m -476507.85 0 a 476507.85 476507.85 0 1 1 953015.70 0a 476507.85 476507.85 0 1 1 -953015.70 0M 30708663.69 37399991.39 m -317686.61 0 a 317686.61 317686.61 0 1 1 635373.23 0a 317686.61 317686.61 0 1 1 -635373.23 0"/>
<path id="N" d="M 31722446.13 38413791.28 m -565852.01 0 a 565852.01 565852.01 0 1 1 1131704.03 0a 565852.01 565852.01 0 1 1 -1131704.03 0M 31722440.02 38413784.67 m -377237.33 0 a 377237.33 377237.33 0 1 1 754474.66 0a 377237.33 377237.33 0 1 1 -754474.66 0"/>
<path id="N" d="M 29694886.13 38413791.28 m -565852.01 0 a 565852.01 565852.01 0 1 1 1131704.03 0a 565852.01 565852.01 0 1 1 -1131704.03 0M 29694880.02 38413784.67 m -377237.33 0 a 377237.33 377237.33 0 1 1 754474.66 0a 377237.33 377237.33 0 1 1 -754474.66 0"/>
<path id="N" d="M 29694886.13 36386231.28 m -565852.01 0 a 565852.01 565852.01 0 1 1 1131704.03 0a 565852.01 565852.01 0 1 1 -1131704.03 0M 29694880.02 36386224.67 m -377237.33 0 a 377237.33 377237.33 0 1 1 754474.66 0a 377237.33 377237.33 0 1 1 -754474.66 0"/>
<path id="N" d="M 31722446.13 36386231.28 m -565852.01 0 a 565852.01 565852.01 0 1 1 1131704.03 0a 565852.01 565852.01 0 1 1 -1131704.03 0M 31722440.02 36386224.67 m -377237.33 0 a 377237.33 377237.33 0 1 1 754474.66 0a 377237.33 377237.33 0 1 1 -754474.66 0"/>
<path id="N" d="M 35765346.64 18799984.96 m -315709.31 0 a 315709.31 315709.31 0 1 1 631418.63 0a 315709.31 315709.31 0 1 1 -631418.63 0M 35765354.92 18799997.47 m -208737.53 0 a 208737.53 208737.53 0 1 1 417475.06 0a 208737.53 208737.53 0 1 1 -417475.06 0"/>
<path id="N" d="M 35765346.64 17799984.96 m -315709.31 0 a 315709.31 315709.31 0 1 1 631418.63 0a 315709.31 315709.31 0 1 1 -631418.63 0M 35765354.92 17799997.47 m -208737.53 0 a 208737.53 208737.53 0 1 1 417475.06 0a 208737.53 208737.53 0 1 1 -417475.06 0"/>
<path id="N" d="M 35765346.64 19799984.96 m -315709.31 0 a 315709.31 315709.31 0 1 1 631418.63 0a 315709.31 315709.31 0 1 1 -631418.63 0M 35765354.92 19799997.47 m -208737.53 0 a 208737.53 208737.53 0 1 1 417475.06 0a 208737.53 208737.53 0 1 1 -417475.06 0"/>
<path id="N" d="M 35765346.64 22799984.96 m -315709.31 0 a 315709.31 315709.31 0 1 1 631418.63 0a 315709.31 315709.31 0 1 1 -631418.63 0M 35765354.92 22799997.47 m -208737.53 0 a 208737.53 208737.53 0 1 1 417475.06 0a 208737.53 208737.53 0 1 1 -417475.06 0"/>
<path id="N" d="M 35765346.64 21799984.96 m -315709.31 0 a 315709.31 315709.31 0 1 1 631418.63 0a 315709.31 315709.31 0 1 1 -631418.63 0M 35765354.92 21799997.47 m -208737.53 0 a 208737.53 208737.53 0 1 1 417475.06 0a 208737.53 208737.53 0 1 1 -417475.06 0"/>
<path id="N" d="M 35765346.64 20799984.96 m -315709.31 0 a 315709.31 315709.31 0 1 1 631418.63 0a 315709.31 315709.31 0 1 1 -631418.63 0M 35765354.92 20799997.47 m -208737.53 0 a 208737.53 208737.53 0 1 1 417475.06 0a 208737.53 208737.53 0 1 1 -417475.06 0"/>
<path id="N" d="M 35765346.64 34799984.96 m -315709.31 0 a 315709.31 315709.31 0 1 1 631418.63 0a 315709.31 315709.31 0 1 1 -631418.63 0M 35765354.92 34799997.47 m -208737.53 0 a 208737.53 208737.53 0 1 1 417475.06 0a 208737.53 208737.53 0 1 1 -417475.06 0"/>
<path id="N" d="M 36078346.00 35487008.00 L 35452362.00 35487008.00 L 35452362.00 36112992.00 L 36078346.00 36112992.00 L 36078346.00 35487008.00  zM 35765354.92 35799997.47 m -208737.53 0 a 208737.53 208737.53 0 1 1 417475.06 0a 208737.53 208737.53 0 1 1 -417475.06 0"/>
<path id="N" d="M 28240671.00 22093307.00 L 28240671.00 21089371.00 A 190667.29 190667.29 0 0 0 27859327.00 21089371.00 L 27859327.00 22093307.00 A 190667.29 190667.29 0 0 0 28240671.00 22093307.00  z"/>
<path id="N" d="M 27740672.00 22093307.00 L 27740672.00 21089371.00 A 190667.29 190667.29 0 0 0 27359328.00 21089371.00 L 27359328.00 22093307.00 A 190667.29 190667.29 0 0 0 27740672.00 22093307.00  z"/>
<path id="N" d="M 24204332.00 17996064.00 L 23554726.00 17996064.00 L 23554726.00 18507874.00 L 24204332.00 18507874.00 L 24204332.00 17996064.00  z"/>
<path id="N" d="M 16507480.00 17996064.00 L 15857874.00 17996064.00 L 15857874.00 18507874.00 L 16507480.00 18507874.00 L 16507480.00 17996064.00  z"/>
<path id="N" d="M 19705999.00 19242426.00 L 19690341.00 19231963.61 L 19690341.00 19196850.00 L 19696457.00 19196850.00 L 19696457.00 18803150.00 L 19654952.36 18803150.00 L 19637402.00 18795880.00 L 19619851.18 18803150.00 L 19578347.00 18803150.00 L 19578347.00 19196850.00 L 19582101.00 19196850.00 L 19582101.00 19230384.02 L 19564079.00 19242426.00 A 100353.26 100353.26 0 1 0 19705999.00 19242426.00  z"/>
<path id="N" d="M 20099700.00 19242426.00 L 20084042.00 19231963.61 L 20084042.00 19196850.00 L 20090158.00 19196850.00 L 20090158.00 18803150.00 L 20048653.36 18803150.00 L 20031103.00 18795880.00 L 20013552.18 18803150.00 L 19972048.00 18803150.00 L 19972048.00 19196850.00 L 19975802.00 19196850.00 L 19975802.00 19230384.02 L 19957780.00 19242426.00 A 100353.26 100353.26 0 1 0 20099700.00 19242426.00  z"/>
<path id="N" d="M 17737495.00 19242280.00 L 17721837.00 19231817.61 L 17721837.00 19196850.00 L 17727953.00 19196850.00 L 17727953.00 18803150.00 L 17686448.36 18803150.00 L 17668898.00 18795880.00 L 17651347.18 18803150.00 L 17609843.00 18803150.00 L 17609843.00 19196850.00 L 17613597.00 19196850.00 L 17613597.00 19230238.02 L 17595575.00 19242280.00 A 100353.26 100353.26 0 1 0 17737495.00 19242280.00  z"/>
<path id="N" d="M 18131196.00 19242426.00 L 18115538.00 19231963.61 L 18115538.00 19196850.00 L 18121654.00 19196850.00 L 18121654.00 18803150.00 L 18080149.36 18803150.00 L 18062599.00 18795880.00 L 18045048.18 18803150.00 L 18003544.00 18803150.00 L 18003544.00 19196850.00 L 18007298.00 19196850.00 L 18007298.00 19230384.02 L 17989276.00 19242426.00 A 100353.26 100353.26 0 1 0 18131196.00 19242426.00  z"/>
<path id="N" d="M 36765346.64 20799984.96 m -315709.31 0 a 315709.31 315709.31 0 1 1 631418.63 0a 315709.31 315709.31 0 1 1 -631418.63 0M 36765354.92 20799997.47 m -208737.53 0 a 208737.53 208737.53 0 1 1 417475.06 0a 208737.53 208737.53 0 1 1 -417475.06 0"/>
<path id="N" d="M 26541035.00 34451575.00 L 26541035.00 33565749.00 A 250882.20 250882.20 0 0 0 26039267.00 33565749.00 L 26039267.00 34451575.00 A 250882.20 250882.20 0 0 0 26541035.00 34451575.00  z"/>
<path id="N" d="M 40350000.00 19413386.00 L 39850000.00 19413386.00 L 39850000.00 20830708.00 L 40350000.00 20830708.00 L 40350000.00 19413386.00  z"/>
</g>
</svg>
