<svg width="55.99999976mm" height="64.99999954mm" viewBox="0 0 22047244 25590551"  version="1.1" xmlns="http://www.w3.org/2000/svg" xmlns:xlink="http://www.w3.org/1999/xlink">
<desc>
Origin 0 0 Bound 15722441 13637008 22047244 25590551
</desc>
<g fill-rule="evenodd" fill="rgb(128, 0, 128)" stroke="black" stroke-width="1" transform="translate(0, 25590551) scale(1, -1) translate(-15722441, -13637008)">
<path id="N" d="M 37769685.00 13637008.00 L 15722441.00 13637008.00 L 15722441.00 39227559.00 L 37769685.00 39227559.00 L 37769685.00 13637008.00  zM 17099998.22 14850007.46 m -613181.54 0 a 613181.54 613181.54 0 1 1 1226363.09 0a 613181.54 613181.54 0 1 1 -1226363.09 0M 16514566.00 18377559.00 L 15825590.00 18377559.00 L 15825590.00 17826379.00 L 16514566.00 17826379.00 L 16514566.00 18377559.00  zM 17341338.00 19066535.00 L 17183858.00 19066535.00 L 17183858.00 18633465.00 L 17341338.00 18633465.00 L 17341338.00 19066535.00  zM 17735039.00 19066535.00 L 17577559.00 19066535.00 L 17577559.00 18633465.00 L 17735039.00 18633465.00 L 17735039.00 19066535.00  zM 18128740.00 19066535.00 L 17971260.00 19066535.00 L 17971260.00 18633465.00 L 18128740.00 18633465.00 L 18128740.00 19066535.00  zM 18522440.00 19066535.00 L 18364960.00 19066535.00 L 18364960.00 18633465.00 L 18522440.00 18633465.00 L 18522440.00 19066535.00  zM 18916141.00 19066535.00 L 18758661.00 19066535.00 L 18758661.00 18633465.00 L 18916141.00 18633465.00 L 18916141.00 19066535.00  zM 19309842.00 19066535.00 L 19152362.00 19066535.00 L 19152362.00 18633465.00 L 19309842.00 18633465.00 L 19309842.00 19066535.00  zM 19703543.00 19066535.00 L 19546063.00 19066535.00 L 19546063.00 18633465.00 L 19703543.00 18633465.00 L 19703543.00 19066535.00  zM 20097244.00 19066535.00 L 19939764.00 19066535.00 L 19939764.00 18633465.00 L 20097244.00 18633465.00 L 20097244.00 19066535.00  zM 20490945.00 19066535.00 L 20333465.00 19066535.00 L 20333465.00 18633465.00 L 20490945.00 18633465.00 L 20490945.00 19066535.00  zM 20884646.00 19066535.00 L 20727166.00 19066535.00 L 20727166.00 18633465.00 L 20884646.00 18633465.00 L 20884646.00 19066535.00  zM 21278347.00 19066535.00 L 21120867.00 19066535.00 L 21120867.00 18633465.00 L 21278347.00 18633465.00 L 21278347.00 19066535.00  zM 21672048.00 19066535.00 L 21514568.00 19066535.00 L 21514568.00 18633465.00 L 21672048.00 18633465.00 L 21672048.00 19066535.00  zM 22065748.00 19066535.00 L 21908268.00 19066535.00 L 21908268.00 18633465.00 L 22065748.00 18633465.00 L 22065748.00 19066535.00  zM 22459449.00 19066535.00 L 22301969.00 19066535.00 L 22301969.00 18633465.00 L 22459449.00 18633465.00 L 22459449.00 19066535.00  zM 22853150.00 19066535.00 L 22695670.00 19066535.00 L 22695670.00 18633465.00 L 22853150.00 18633465.00 L 22853150.00 19066535.00  zM 24211418.00 18377559.00 L 23522442.00 18377559.00 L 23522442.00 17826379.00 L 24211418.00 17826379.00 L 24211418.00 18377559.00  zM 25742621.68 17499988.54 m -277979.46 0 a 277979.46 277979.46 0 1 1 555958.91 0a 277979.46 277979.46 0 1 1 -555958.91 0M 26018208.00 18775590.00 L 25467028.00 18775590.00 L 25467028.00 18224410.00 L 26018208.00 18224410.00 L 26018208.00 18775590.00  zM 25339262.00 22093307.00 L 25339262.00 21089371.00 A 210745.76 210745.76 0 1 1 25760746.00 21089371.00 L 25760746.00 22093307.00 A 210745.76 210745.76 0 0 1 25339262.00 22093307.00  zM 24839263.00 22093307.00 L 24839263.00 21089371.00 A 210745.76 210745.76 0 0 1 25260747.00 21089371.00 L 25260747.00 22093307.00 A 210745.76 210745.76 0 0 1 24839263.00 22093307.00  zM 26839259.00 22093307.00 L 26839259.00 21089371.00 A 210745.76 210745.76 0 0 1 27260743.00 21089371.00 L 27260743.00 22093307.00 A 210745.76 210745.76 0 0 1 26839259.00 22093307.00  zM 27200003.68 17499988.54 m -277979.46 0 a 277979.46 277979.46 0 1 1 555958.91 0a 277979.46 277979.46 0 1 1 -555958.91 0M 29521909.00 15873592.00 L 29326909.00 15873592.00 L 29286968.00 15857048.00 L 29270424.00 15817107.00 L 29270424.00 15582895.00 L 29286968.00 15542954.00 L 29326909.00 15526410.00 L 29521909.00 15526410.00 L 29561850.00 15542954.00 L 29578394.00 15582895.00 L 29578394.00 15817107.00 L 29561850.00 15857048.00 L 29521909.00 15873592.00  zM 27475590.00 18775590.00 L 26924410.00 18775590.00 L 26924410.00 18224410.00 L 27475590.00 18224410.00 L 27475590.00 18775590.00  zM 30073091.00 15873592.00 L 29878091.00 15873592.00 L 29838150.00 15857048.00 L 29821606.00 15817107.00 L 29821606.00 15582895.00 L 29838150.00 15542954.00 L 29878091.00 15526410.00 L 30073091.00 15526410.00 L 30113032.00 15542954.00 L 30129576.00 15582895.00 L 30129576.00 15817107.00 L 30113032.00 15857048.00 L 30073091.00 15873592.00  zM 29571909.00 17423592.00 L 29376909.00 17423592.00 L 29336968.00 17407048.00 L 29320424.00 17367107.00 L 29320424.00 17132895.00 L 29336968.00 17092954.00 L 29376909.00 17076410.00 L 29571909.00 17076410.00 L 29611850.00 17092954.00 L 29628394.00 17132895.00 L 29628394.00 17367107.00 L 29611850.00 17407048.00 L 29571909.00 17423592.00  zM 30123091.00 17423592.00 L 29928091.00 17423592.00 L 29888150.00 17407048.00 L 29871606.00 17367107.00 L 29871606.00 17132895.00 L 29888150.00 17092954.00 L 29928091.00 17076410.00 L 30123091.00 17076410.00 L 30163032.00 17092954.00 L 30179576.00 17132895.00 L 30179576.00 17367107.00 L 30163032.00 17407048.00 L 30123091.00 17423592.00  zM 27839257.00 22093307.00 L 27839257.00 21089371.00 A 210745.76 210745.76 0 0 1 28260741.00 21089371.00 L 28260741.00 22093307.00 A 210745.76 210745.76 0 0 1 27839257.00 22093307.00  zM 27339258.00 22093307.00 L 27339258.00 21089371.00 A 210745.76 210745.76 0 0 1 27760742.00 21089371.00 L 27760742.00 22093307.00 A 210745.76 210745.76 0 0 1 27339258.00 22093307.00  zM 28339256.00 22093307.00 L 28339256.00 21089371.00 A 210745.76 210745.76 0 1 1 28760740.00 21089371.00 L 28760740.00 22093307.00 A 210745.76 210745.76 0 0 1 28339256.00 22093307.00  zM 28839255.00 22093307.00 L 28839255.00 21089371.00 A 210745.76 210745.76 0 1 1 29260739.00 21089371.00 L 29260739.00 22093307.00 A 210745.76 210745.76 0 0 1 28839255.00 22093307.00  zM 29839253.00 22093307.00 L 29839253.00 21089371.00 A 210745.76 210745.76 0 1 1 30260737.00 21089371.00 L 30260737.00 22093307.00 A 210745.76 210745.76 0 0 1 29839253.00 22093307.00  zM 36391337.22 14850007.46 m -613181.54 0 a 613181.54 613181.54 0 1 1 1226363.09 0a 613181.54 613181.54 0 1 1 -1226363.09 0M 35772441.12 16782286.43 m -315690.57 0 a 315690.57 315690.57 0 1 1 631381.15 0a 315690.57 315690.57 0 1 1 -631381.15 0M 34772441.12 16787010.43 m -315690.57 0 a 315690.57 315690.57 0 1 1 631381.15 0a 315690.57 315690.57 0 1 1 -631381.15 0M 34772441.12 17787010.43 m -315690.57 0 a 315690.57 315690.57 0 1 1 631381.15 0a 315690.57 315690.57 0 1 1 -631381.15 0M 35772441.12 17782286.43 m -315690.57 0 a 315690.57 315690.57 0 1 1 631381.15 0a 315690.57 315690.57 0 1 1 -631381.15 0M 35772441.12 18782286.43 m -315690.57 0 a 315690.57 315690.57 0 1 1 631381.15 0a 315690.57 315690.57 0 1 1 -631381.15 0M 34772441.12 18787010.43 m -315690.57 0 a 315690.57 315690.57 0 1 1 631381.15 0a 315690.57 315690.57 0 1 1 -631381.15 0M 34772441.12 19787010.43 m -315690.57 0 a 315690.57 315690.57 0 1 1 631381.15 0a 315690.57 315690.57 0 1 1 -631381.15 0M 35772441.12 19782286.43 m -315690.57 0 a 315690.57 315690.57 0 1 1 631381.15 0a 315690.57 315690.57 0 1 1 -631381.15 0M 34772441.12 20787010.43 m -315690.57 0 a 315690.57 315690.57 0 1 1 631381.15 0a 315690.57 315690.57 0 1 1 -631381.15 0M 35772441.12 20782286.43 m -315690.57 0 a 315690.57 315690.57 0 1 1 631381.15 0a 315690.57 315690.57 0 1 1 -631381.15 0M 25839261.00 22093307.00 L 25839261.00 21089371.00 A 210745.76 210745.76 0 0 1 26260745.00 21089371.00 L 26260745.00 22093307.00 A 210745.76 210745.76 0 0 1 25839261.00 22093307.00  zM 26339260.00 22093307.00 L 26339260.00 21089371.00 A 210745.76 210745.76 0 0 1 26760744.00 21089371.00 L 26760744.00 22093307.00 A 210745.76 210745.76 0 0 1 26339260.00 22093307.00  zM 29339254.00 22093307.00 L 29339254.00 21089371.00 A 210745.76 210745.76 0 0 1 29760738.00 21089371.00 L 29760738.00 22093307.00 A 210745.76 210745.76 0 0 1 29339254.00 22093307.00  zM 30339252.00 22093307.00 L 30339252.00 21089371.00 A 210745.76 210745.76 0 0 1 30760736.00 21089371.00 L 30760736.00 22093307.00 A 210745.76 210745.76 0 0 1 30339252.00 22093307.00  zM 34772441.12 25787010.43 m -315690.57 0 a 315690.57 315690.57 0 1 1 631381.15 0a 315690.57 315690.57 0 1 1 -631381.15 0M 34772441.12 26787010.43 m -315690.57 0 a 315690.57 315690.57 0 1 1 631381.15 0a 315690.57 315690.57 0 1 1 -631381.15 0M 34772441.12 21787010.43 m -315690.57 0 a 315690.57 315690.57 0 1 1 631381.15 0a 315690.57 315690.57 0 1 1 -631381.15 0M 34772441.12 22787010.43 m -315690.57 0 a 315690.57 315690.57 0 1 1 631381.15 0a 315690.57 315690.57 0 1 1 -631381.15 0M 34772441.12 23787010.43 m -315690.57 0 a 315690.57 315690.57 0 1 1 631381.15 0a 315690.57 315690.57 0 1 1 -631381.15 0M 34772441.12 24787010.43 m -315690.57 0 a 315690.57 315690.57 0 1 1 631381.15 0a 315690.57 315690.57 0 1 1 -631381.15 0M 34772441.12 27787010.43 m -315690.57 0 a 315690.57 315690.57 0 1 1 631381.15 0a 315690.57 315690.57 0 1 1 -631381.15 0M 34772441.12 29787010.43 m -315690.57 0 a 315690.57 315690.57 0 1 1 631381.15 0a 315690.57 315690.57 0 1 1 -631381.15 0M 35772441.12 21782286.43 m -315690.57 0 a 315690.57 315690.57 0 1 1 631381.15 0a 315690.57 315690.57 0 1 1 -631381.15 0M 35772441.12 22782286.43 m -315690.57 0 a 315690.57 315690.57 0 1 1 631381.15 0a 315690.57 315690.57 0 1 1 -631381.15 0M 35772441.12 23782286.43 m -315690.57 0 a 315690.57 315690.57 0 1 1 631381.15 0a 315690.57 315690.57 0 1 1 -631381.15 0M 35772441.12 24782286.43 m -315690.57 0 a 315690.57 315690.57 0 1 1 631381.15 0a 315690.57 315690.57 0 1 1 -631381.15 0M 35772441.12 25782286.43 m -315690.57 0 a 315690.57 315690.57 0 1 1 631381.15 0a 315690.57 315690.57 0 1 1 -631381.15 0M 35772441.12 26782286.43 m -315690.57 0 a 315690.57 315690.57 0 1 1 631381.15 0a 315690.57 315690.57 0 1 1 -631381.15 0M 35772441.12 27782286.43 m -315690.57 0 a 315690.57 315690.57 0 1 1 631381.15 0a 315690.57 315690.57 0 1 1 -631381.15 0M 35772441.12 28782286.43 m -315690.57 0 a 315690.57 315690.57 0 1 1 631381.15 0a 315690.57 315690.57 0 1 1 -631381.15 0M 34772441.12 28787010.43 m -315690.57 0 a 315690.57 315690.57 0 1 1 631381.15 0a 315690.57 315690.57 0 1 1 -631381.15 0M 35772441.12 29782286.43 m -315690.57 0 a 315690.57 315690.57 0 1 1 631381.15 0a 315690.57 315690.57 0 1 1 -631381.15 0M 35772441.12 30782286.43 m -315690.57 0 a 315690.57 315690.57 0 1 1 631381.15 0a 315690.57 315690.57 0 1 1 -631381.15 0M 17099998.22 37684653.46 m -613181.54 0 a 613181.54 613181.54 0 1 1 1226363.09 0a 613181.54 613181.54 0 1 1 -1226363.09 0M 25234709.00 34451575.00 L 25234709.00 33565749.00 A 268033.96 268033.96 0 0 1 25770791.00 33565749.00 L 25770791.00 34451575.00 A 268033.96 268033.96 0 0 1 25234709.00 34451575.00  zM 26022110.00 34451575.00 L 26022110.00 33565749.00 A 268033.96 268033.96 0 0 1 26558192.00 33565749.00 L 26558192.00 34451575.00 A 268033.96 268033.96 0 0 1 26022110.00 34451575.00  zM 27461488.00 34451575.00 L 27461488.00 33565749.00 A 268033.96 268033.96 0 0 1 27997570.00 33565749.00 L 27997570.00 34451575.00 A 268033.96 268033.96 0 0 1 27461488.00 34451575.00  zM 28248889.00 34451575.00 L 28248889.00 33565749.00 A 268033.96 268033.96 0 0 1 28784971.00 33565749.00 L 28784971.00 34451575.00 A 268033.96 268033.96 0 0 1 28248889.00 34451575.00  zM 29036290.00 34451575.00 L 29036290.00 33565749.00 A 268033.96 268033.96 0 0 1 29572372.00 33565749.00 L 29572372.00 34451575.00 A 268033.96 268033.96 0 0 1 29036290.00 34451575.00  zM 29823691.00 34451575.00 L 29823691.00 33565749.00 A 268033.96 268033.96 0 0 1 30359773.00 33565749.00 L 30359773.00 34451575.00 A 268033.96 268033.96 0 0 1 29823691.00 34451575.00  zM 34772441.12 30787010.43 m -315690.57 0 a 315690.57 315690.57 0 1 1 631381.15 0a 315690.57 315690.57 0 1 1 -631381.15 0M 32927953.00 39048031.00 L 32396457.00 39048031.00 L 32396457.00 37394489.00 L 32927953.00 37394489.00 L 32927953.00 39048031.00  zM 30703543.00 39048031.00 L 30172047.00 39048031.00 L 30172047.00 37394489.00 L 30703543.00 37394489.00 L 30703543.00 39048031.00  zM 31800000.00 39008661.00 L 31300000.00 39008661.00 L 31300000.00 37591339.00 L 31800000.00 37591339.00 L 31800000.00 39008661.00  zM 34772441.12 31787010.43 m -315690.57 0 a 315690.57 315690.57 0 1 1 631381.15 0a 315690.57 315690.57 0 1 1 -631381.15 0M 35772441.12 31782286.43 m -315690.57 0 a 315690.57 315690.57 0 1 1 631381.15 0a 315690.57 315690.57 0 1 1 -631381.15 0M 35772441.12 32782286.43 m -315690.57 0 a 315690.57 315690.57 0 1 1 631381.15 0a 315690.57 315690.57 0 1 1 -631381.15 0M 34772441.12 32787010.43 m -315690.57 0 a 315690.57 315690.57 0 1 1 631381.15 0a 315690.57 315690.57 0 1 1 -631381.15 0M 34772441.12 33787010.43 m -315690.57 0 a 315690.57 315690.57 0 1 1 631381.15 0a 315690.57 315690.57 0 1 1 -631381.15 0M 35772441.12 33782286.43 m -315690.57 0 a 315690.57 315690.57 0 1 1 631381.15 0a 315690.57 315690.57 0 1 1 -631381.15 0M 34772441.12 34787010.43 m -315690.57 0 a 315690.57 315690.57 0 1 1 631381.15 0a 315690.57 315690.57 0 1 1 -631381.15 0M 35772441.12 34782286.43 m -315690.57 0 a 315690.57 315690.57 0 1 1 631381.15 0a 315690.57 315690.57 0 1 1 -631381.15 0M 36085433.00 36095276.00 L 35459449.00 36095276.00 L 35459449.00 35469292.00 L 36085433.00 35469292.00 L 36085433.00 36095276.00  zM 35085433.00 36100000.00 L 34459449.00 36100000.00 L 34459449.00 35474016.00 L 35085433.00 35474016.00 L 35085433.00 36100000.00  zM 36391337.22 37684653.46 m -613181.54 0 a 613181.54 613181.54 0 1 1 1226363.09 0a 613181.54 613181.54 0 1 1 -1226363.09 0"/>
</g>
</svg>
