<svg width="55.99999976mm" height="64.99999954mm" viewBox="0 0 22047244 25590551"  version="1.1" xmlns="http://www.w3.org/2000/svg" xmlns:xlink="http://www.w3.org/1999/xlink">
<desc>
Origin 0 0 Bound 15722441 13637008 22047244 25590551
</desc>
<g fill-rule="evenodd" fill="rgb(255, 255, 0)" stroke="black" stroke-width="1" transform="translate(0, 25590551) scale(1, -1) translate(-15722441, -13637008)">
<path id="N" d="M 23946276.00 17758085.00 L 23958757.00 17727952.00 L 23958757.00 17593401.00 L 24221260.00 17593401.00 L 24251393.00 17580920.00 L 24263874.00 17550787.00 L 24263874.00 17176770.00 L 24251393.00 17146637.00 L 24221259.00 17134156.00 L 15815746.00 17134156.00 L 15785613.00 17146637.00 L 15773132.00 17176770.00 L 15773132.00 17550787.00 L 15785613.00 17580920.00 L 15815746.00 17593401.00 L 16078251.00 17593401.00 L 16078251.00 17727952.00 L 16090732.00 17758085.00 L 16120865.00 17770566.00 L 16150998.00 17758085.00 L 16163479.00 17727952.00 L 16163479.00 17550787.00 L 16150998.00 17520654.00 L 16120865.00 17508173.00 L 15858360.00 17508173.00 L 15858360.00 17219384.00 L 24178646.00 17219384.00 L 24178646.00 17508173.00 L 23916143.00 17508173.00 L 23886010.00 17520654.00 L 23873529.00 17550787.00 L 23873529.00 17727952.00 L 23886010.00 17758085.00 L 23916143.00 17770566.00 L 23946276.00 17758085.00  z"/>
<path id="N" d="M 16967319.47 18948422.47 m -100354.75 0 a 100354.75 100354.75 0 1 1 200709.51 0a 100354.75 100354.75 0 1 1 -200709.51 0"/>
<path id="N" d="M 31549998.47 37237006.47 m -100354.75 0 a 100354.75 100354.75 0 1 1 200709.51 0a 100354.75 100354.75 0 1 1 -200709.51 0"/>
<path id="N" d="M 27856117.00 19030133.00 L 27868598.00 19000000.00 L 27868598.00 17000000.00 L 27856117.00 16969867.00 L 27825984.00 16957386.00 L 26574016.00 16957386.00 L 26543883.00 16969867.00 L 26531402.00 17000000.00 L 26531402.00 19000000.00 L 26543883.00 19030133.00 L 26574016.00 19042614.00 L 27825984.00 19042614.00 L 27856117.00 19030133.00  zM 27783370.00 18957386.00 L 26616630.00 18957386.00 L 26616630.00 17042614.00 L 27783370.00 17042614.00 L 27783370.00 18957386.00  z"/>
<path id="N" d="M 26398735.00 19030133.00 L 26411216.00 19000000.00 L 26411216.00 17000000.00 L 26398735.00 16969867.00 L 26368602.00 16957386.00 L 25116634.00 16957386.00 L 25086501.00 16969867.00 L 25074020.00 17000000.00 L 25074020.00 19000000.00 L 25086501.00 19030133.00 L 25116634.00 19042614.00 L 26368602.00 19042614.00 L 26398735.00 19030133.00  zM 26325988.00 18957386.00 L 25159248.00 18957386.00 L 25159248.00 17042614.00 L 26325988.00 17042614.00 L 26325988.00 18957386.00  z"/>
<path id="N" d="M 24399998.47 21349998.47 m -100354.75 0 a 100354.75 100354.75 0 1 1 200709.51 0a 100354.75 100354.75 0 1 1 -200709.51 0"/>
<path id="N" d="M 33115566.00 38786826.00 L 33128047.00 38756693.00 L 33128047.00 37240945.00 L 33115566.00 37210812.00 L 33085433.00 37198331.00 L 31786220.00 37198331.00 L 31756087.00 37210812.00 L 31743606.00 37240945.00 L 31756087.00 37271078.00 L 31786220.00 37283559.00 L 33042819.00 37283559.00 L 33042819.00 38756693.00 L 33055300.00 38786826.00 L 33085433.00 38799307.00 L 33115566.00 38786826.00  z"/>
<path id="N" d="M 30044700.00 38786826.00 L 30057181.00 38756693.00 L 30057181.00 37283559.00 L 31313780.00 37283559.00 L 31343913.00 37271078.00 L 31356394.00 37240945.00 L 31343913.00 37210812.00 L 31313780.00 37198331.00 L 30014567.00 37198331.00 L 29984434.00 37210812.00 L 29971953.00 37240945.00 L 29971953.00 38756693.00 L 29984434.00 38786826.00 L 30014567.00 38799307.00 L 30044700.00 38786826.00  z"/>
<path id="N" d="M 23946276.00 18742337.00 L 23958757.00 18712204.00 L 23958757.00 18475984.00 L 23946276.00 18445851.00 L 23916143.00 18433370.00 L 23886010.00 18445851.00 L 23873529.00 18475984.00 L 23873529.00 18669590.00 L 22951576.00 18669590.00 L 22921443.00 18682071.00 L 22908962.00 18712204.00 L 22921443.00 18742337.00 L 22951576.00 18754818.00 L 23916143.00 18754818.00 L 23946276.00 18742337.00  z"/>
<path id="N" d="M 17115565.00 18742337.00 L 17128046.00 18712204.00 L 17115565.00 18682071.00 L 17085432.00 18669590.00 L 16163479.00 18669590.00 L 16163479.00 18475984.00 L 16150998.00 18445851.00 L 16120865.00 18433370.00 L 16090732.00 18445851.00 L 16078251.00 18475984.00 L 16078251.00 18712204.00 L 16090732.00 18742337.00 L 16120865.00 18754818.00 L 17085432.00 18754818.00 L 17115565.00 18742337.00  z"/>
<path id="N" d="M 24416740.00 24386827.00 L 24429221.00 24356694.00 L 24429221.00 21614707.64 L 24439063.00 21590946.00 L 24426582.00 21560813.00 L 24396449.00 21548332.00 L 24386607.00 21548332.00 L 24356474.00 21560813.00 L 24343993.00 21590946.00 L 24343993.00 24356694.00 L 24356474.00 24386827.00 L 24386607.00 24399308.00 L 24416740.00 24386827.00  z"/>
<path id="N" d="M 31305322.00 24386827.00 L 31317803.00 24356694.00 L 31317803.00 21590946.00 L 31305322.00 21560813.00 L 31275189.00 21548332.00 L 31265347.00 21548332.00 L 31235214.00 21560813.00 L 31222733.00 21590946.00 L 31232575.00 21614707.64 L 31232575.00 24356694.00 L 31245056.00 24386827.00 L 31275189.00 24399308.00 L 31305322.00 24386827.00  z"/>
<path id="N" d="M 24676582.00 34059661.00 L 24689063.00 34029528.00 L 24679221.00 34005766.36 L 24679221.00 31263780.00 L 24666740.00 31233647.00 L 24636607.00 31221166.00 L 24606474.00 31233647.00 L 24593993.00 31263780.00 L 24593993.00 34029528.00 L 24606474.00 34059661.00 L 24636607.00 34072142.00 L 24646449.00 34072142.00 L 24676582.00 34059661.00  z"/>
<path id="N" d="M 31455322.00 34109661.00 L 31467803.00 34079528.00 L 31467803.00 31313780.00 L 31455322.00 31283647.00 L 31425189.00 31271166.00 L 31395056.00 31283647.00 L 31382575.00 31313780.00 L 31382575.00 34055766.36 L 31372733.00 34079528.00 L 31385214.00 34109661.00 L 31415347.00 34122142.00 L 31425189.00 34122142.00 L 31455322.00 34109661.00  z"/>
<path id="N" d="M 29780133.00 17398243.00 L 29792614.00 17368110.00 L 29792614.00 17131890.00 L 29780133.00 17101757.00 L 29750000.00 17089276.00 L 29719867.00 17101757.00 L 29707386.00 17131890.00 L 29707386.00 17368110.00 L 29719867.00 17398243.00 L 29750000.00 17410724.00 L 29780133.00 17398243.00  z"/>
<path id="N" d="M 29730133.00 15848243.00 L 29742614.00 15818110.00 L 29742614.00 15581890.00 L 29730133.00 15551757.00 L 29700000.00 15539276.00 L 29669867.00 15551757.00 L 29657386.00 15581890.00 L 29657386.00 15818110.00 L 29669867.00 15848243.00 L 29700000.00 15860724.00 L 29730133.00 15848243.00  z"/>
</g>
</svg>
