<svg width="55.99999976mm" height="64.99999954mm" viewBox="0 0 22047244 25590551"  version="1.1" xmlns="http://www.w3.org/2000/svg" xmlns:xlink="http://www.w3.org/1999/xlink">
<desc>
Origin 0 0 Bound 15722441 13637008 22047244 25590551
</desc>
<g fill-rule="evenodd" fill="rgb(255, 255, 0)" stroke="black" stroke-width="1" transform="translate(0, 25590551) scale(1, -1) translate(-15722441, -13637008)">
<path id="N" d="M 15412198.00 32798458.00 L 15512166.00 32698490.00 L 15528017.00 32660221.00 L 15528018.00 32460286.00 L 15512166.00 32422017.00 L 15412198.00 32322049.00 A 54121.84 54121.84 0 0 0 15335660.00 32398587.00 L 15419777.00 32482704.00 L 15419777.00 32637803.00 L 15351511.00 32706069.00 L 15196412.00 32706069.00 L 15128146.00 32637803.00 L 15128146.00 32573029.94 L 15222400.00 32384521.00 L 15223293.10 32371957.08 L 15228114.00 32360318.00 L 15224705.43 32352088.71 L 15225337.00 32343204.00 L 15217084.08 32333688.51 L 15212263.00 32322049.00 L 15204032.08 32318639.76 L 15198197.00 32311912.00 L 15185633.08 32311018.90 L 15173994.00 32306198.00 L 14874091.00 32306198.00 L 14835822.00 32322049.00 L 14819971.00 32360318.00 L 14819971.00 32760189.00 A 54118.70 54118.70 0 0 0 14928211.00 32760189.00 L 14928211.00 32414438.00 L 15086426.11 32414438.00 L 15025620.00 32536049.00 L 15024726.84 32548614.07 L 15019906.00 32560253.00 L 15019905.00 32660221.00 L 15035757.00 32698490.00 L 15135725.00 32798458.00 L 15173994.00 32814309.00 L 15373929.00 32814310.00 L 15412198.00 32798458.00  z"/>
<path id="N" d="M 24301788.00 33653363.00 L 24314269.00 33623230.00 L 24314269.00 33249213.00 L 24301788.00 33219080.00 L 24271655.00 33206599.00 L 24009150.00 33206599.00 L 24009150.00 33072048.00 L 23996669.00 33041915.00 L 23966536.00 33029434.00 L 23936403.00 33041915.00 L 23923922.00 33072048.00 L 23923922.00 33249213.00 L 23936403.00 33279346.00 L 23966536.00 33291827.00 L 24229041.00 33291827.00 L 24229041.00 33580616.00 L 15908755.00 33580616.00 L 15908755.00 33291827.00 L 16171258.00 33291827.00 L 16201391.00 33279346.00 L 16213872.00 33249213.00 L 16213872.00 33072048.00 L 16201391.00 33041915.00 L 16171258.00 33029434.00 L 16141125.00 33041915.00 L 16128644.00 33072048.00 L 16128644.00 33206599.00 L 15866141.00 33206599.00 L 15836008.00 33219080.00 L 15823527.00 33249213.00 L 15823527.00 33623230.00 L 15836008.00 33653363.00 L 15866142.00 33665844.00 L 24271655.00 33665844.00 L 24301788.00 33653363.00  z"/>
<path id="N" d="M 23827773.00 17763598.00 L 23840254.00 17733465.00 L 23840254.00 17598914.00 L 24102757.00 17598914.00 L 24132890.00 17586433.00 L 24145371.00 17556300.00 L 24145371.00 17182283.00 L 24132890.00 17152150.00 L 24102756.00 17139669.00 L 15697243.00 17139669.00 L 15667110.00 17152150.00 L 15654629.00 17182283.00 L 15654629.00 17556300.00 L 15667110.00 17586433.00 L 15697243.00 17598914.00 L 15959748.00 17598914.00 L 15959748.00 17733465.00 L 15972229.00 17763598.00 L 16002362.00 17776079.00 L 16032495.00 17763598.00 L 16044976.00 17733465.00 L 16044976.00 17556300.00 L 16032495.00 17526167.00 L 16002362.00 17513686.00 L 15739857.00 17513686.00 L 15739857.00 17224897.00 L 24060143.00 17224897.00 L 24060143.00 17513686.00 L 23797640.00 17513686.00 L 23767507.00 17526167.00 L 23755026.00 17556300.00 L 23755026.00 17733465.00 L 23767507.00 17763598.00 L 23797640.00 17776079.00 L 23827773.00 17763598.00  z"/>
<path id="N" d="M 14928211.00 32160383.00 L 14928211.00 32114535.00 L 15373929.00 32114536.00 L 15412198.00 32098684.00 L 15512166.00 31998716.00 L 15528017.00 31960447.00 L 15528018.00 31860480.00 L 15512166.00 31822211.00 L 15412198.00 31722243.00 A 54121.84 54121.84 0 0 0 15335660.00 31798781.00 L 15419777.00 31882898.00 L 15419777.00 31938029.00 L 15351511.00 32006295.00 L 14928211.00 32006295.00 L 14928211.00 31960447.00 A 54118.70 54118.70 0 0 0 14819971.00 31960447.00 L 14819971.00 32160383.00 A 54118.70 54118.70 0 0 0 14928211.00 32160383.00  z"/>
<path id="N" d="M 24633237.00 19006731.00 L 24549120.00 18922614.00 L 24549120.00 18867483.00 L 24617386.00 18799217.00 L 25040686.00 18799217.00 L 25040686.00 18845065.00 A 54118.70 54118.70 0 1 0 25148926.00 18845065.00 L 25148926.00 18645129.00 A 54118.70 54118.70 0 0 0 25040686.00 18645129.00 L 25040686.00 18690977.00 L 24594968.00 18690976.00 L 24556699.00 18706828.00 L 24456731.00 18806796.00 L 24440880.00 18845065.00 L 24440879.00 18945032.00 L 24456731.00 18983301.00 L 24556699.00 19083269.00 A 54121.84 54121.84 0 0 0 24633237.00 19006731.00  z"/>
<path id="N" d="M 24833172.00 18483463.00 L 25133075.00 18183560.00 A 54119.43 54119.43 0 0 0 25094803.59 18091171.00 L 24849023.00 18091171.00 L 24849023.00 18045323.00 A 54118.70 54118.70 0 0 0 24740783.00 18045323.00 L 24740783.00 18091171.00 L 24495000.00 18091171.00 A 54118.70 54118.70 0 0 0 24495000.00 18199411.00 L 24740783.00 18199411.00 L 24740782.00 18445194.00 A 54122.11 54122.11 0 0 0 24833172.00 18483463.00  zM 24849023.00 18314536.00 L 24849023.00 18199411.00 L 24964148.00 18199411.00 L 24849023.00 18314536.00  z"/>
<path id="N" d="M 16848816.47 18953935.47 m -100354.75 0 a 100354.75 100354.75 0 1 1 200709.51 0a 100354.75 100354.75 0 1 1 -200709.51 0"/>
<path id="N" d="M 23120078.47 31851574.47 m -100354.75 0 a 100354.75 100354.75 0 1 1 200709.51 0a 100354.75 100354.75 0 1 1 -200709.51 0"/>
<path id="N" d="M 23580133.00 23806117.00 L 23592614.00 23775984.00 L 23592614.00 22524016.00 L 23580133.00 22493883.00 L 23550000.00 22481402.00 L 21550000.00 22481402.00 L 21519867.00 22493883.00 L 21507386.00 22524016.00 L 21507386.00 23775984.00 L 21519867.00 23806117.00 L 21550000.00 23818598.00 L 23550000.00 23818598.00 L 23580133.00 23806117.00  zM 23507386.00 23733370.00 L 21592614.00 23733370.00 L 21592614.00 22566630.00 L 23507386.00 22566630.00 L 23507386.00 23733370.00  z"/>
<path id="N" d="M 23580133.00 22256117.00 L 23592614.00 22225984.00 L 23592614.00 20974016.00 L 23580133.00 20943883.00 L 23550000.00 20931402.00 L 21550000.00 20931402.00 L 21519867.00 20943883.00 L 21507386.00 20974016.00 L 21507386.00 22225984.00 L 21519867.00 22256117.00 L 21550000.00 22268598.00 L 23550000.00 22268598.00 L 23580133.00 22256117.00  zM 23507386.00 22183370.00 L 21592614.00 22183370.00 L 21592614.00 21016630.00 L 23507386.00 21016630.00 L 23507386.00 22183370.00  z"/>
<path id="N" d="M 24399998.47 21349998.47 m -100354.75 0 a 100354.75 100354.75 0 1 1 200709.51 0a 100354.75 100354.75 0 1 1 -200709.51 0"/>
<path id="N" d="M 26699998.47 37214959.47 m -100354.75 0 a 100354.75 100354.75 0 1 1 200709.51 0a 100354.75 100354.75 0 1 1 -200709.51 0"/>
<path id="N" d="M 28265566.00 38764779.00 L 28278047.00 38734646.00 L 28278047.00 37218898.00 L 28265566.00 37188765.00 L 28235433.00 37176284.00 L 26936220.00 37176284.00 L 26906087.00 37188765.00 L 26893606.00 37218898.00 L 26906087.00 37249031.00 L 26936220.00 37261512.00 L 28192819.00 37261512.00 L 28192819.00 38734646.00 L 28205300.00 38764779.00 L 28235433.00 38777260.00 L 28265566.00 38764779.00  z"/>
<path id="N" d="M 25194700.00 38764779.00 L 25207181.00 38734646.00 L 25207181.00 37261512.00 L 26463780.00 37261512.00 L 26493913.00 37249031.00 L 26506394.00 37218898.00 L 26493913.00 37188765.00 L 26463780.00 37176284.00 L 25164567.00 37176284.00 L 25134434.00 37188765.00 L 25121953.00 37218898.00 L 25121953.00 38734646.00 L 25134434.00 38764779.00 L 25164567.00 38777260.00 L 25194700.00 38764779.00  z"/>
<path id="N" d="M 16201391.00 32354149.00 L 16213872.00 32324016.00 L 16213872.00 32130410.00 L 17135825.00 32130410.00 L 17165958.00 32117929.00 L 17178439.00 32087796.00 L 17165958.00 32057663.00 L 17135825.00 32045182.00 L 16171258.00 32045182.00 L 16141125.00 32057663.00 L 16128644.00 32087796.00 L 16128644.00 32324016.00 L 16141125.00 32354149.00 L 16171258.00 32366630.00 L 16201391.00 32354149.00  z"/>
<path id="N" d="M 23996669.00 32354149.00 L 24009150.00 32324016.00 L 24009150.00 32087796.00 L 23996669.00 32057663.00 L 23966536.00 32045182.00 L 23001969.00 32045182.00 L 22971836.00 32057663.00 L 22959355.00 32087796.00 L 22971836.00 32117929.00 L 23001969.00 32130410.00 L 23923922.00 32130410.00 L 23923922.00 32324016.00 L 23936403.00 32354149.00 L 23966536.00 32366630.00 L 23996669.00 32354149.00  z"/>
<path id="N" d="M 16997062.00 18747850.00 L 17009543.00 18717717.00 L 16997062.00 18687584.00 L 16966929.00 18675103.00 L 16044976.00 18675103.00 L 16044976.00 18481497.00 L 16032495.00 18451364.00 L 16002362.00 18438883.00 L 15972229.00 18451364.00 L 15959748.00 18481497.00 L 15959748.00 18717717.00 L 15972229.00 18747850.00 L 16002362.00 18760331.00 L 16966929.00 18760331.00 L 16997062.00 18747850.00  z"/>
<path id="N" d="M 23827773.00 18747850.00 L 23840254.00 18717717.00 L 23840254.00 18481497.00 L 23827773.00 18451364.00 L 23797640.00 18438883.00 L 23767507.00 18451364.00 L 23755026.00 18481497.00 L 23755026.00 18675103.00 L 22833073.00 18675103.00 L 22802940.00 18687584.00 L 22790459.00 18717717.00 L 22802940.00 18747850.00 L 22833073.00 18760331.00 L 23797640.00 18760331.00 L 23827773.00 18747850.00  z"/>
<path id="N" d="M 24676582.00 34059661.00 L 24689063.00 34029528.00 L 24679221.00 34005766.36 L 24679221.00 31263780.00 L 24666740.00 31233647.00 L 24636607.00 31221166.00 L 24606474.00 31233647.00 L 24593993.00 31263780.00 L 24593993.00 34029528.00 L 24606474.00 34059661.00 L 24636607.00 34072142.00 L 24646449.00 34072142.00 L 24676582.00 34059661.00  z"/>
<path id="N" d="M 31455322.00 34109661.00 L 31467803.00 34079528.00 L 31467803.00 31313780.00 L 31455322.00 31283647.00 L 31425189.00 31271166.00 L 31395056.00 31283647.00 L 31382575.00 31313780.00 L 31382575.00 34055766.36 L 31372733.00 34079528.00 L 31385214.00 34109661.00 L 31415347.00 34122142.00 L 31425189.00 34122142.00 L 31455322.00 34109661.00  z"/>
<path id="N" d="M 31305322.00 24386827.00 L 31317803.00 24356694.00 L 31317803.00 21590946.00 L 31305322.00 21560813.00 L 31275189.00 21548332.00 L 31265347.00 21548332.00 L 31235214.00 21560813.00 L 31222733.00 21590946.00 L 31232575.00 21614707.64 L 31232575.00 24356694.00 L 31245056.00 24386827.00 L 31275189.00 24399308.00 L 31305322.00 24386827.00  z"/>
<path id="N" d="M 24416740.00 24386827.00 L 24429221.00 24356694.00 L 24429221.00 21614707.64 L 24439063.00 21590946.00 L 24426582.00 21560813.00 L 24396449.00 21548332.00 L 24386607.00 21548332.00 L 24356474.00 21560813.00 L 24343993.00 21590946.00 L 24343993.00 24356694.00 L 24356474.00 24386827.00 L 24386607.00 24399308.00 L 24416740.00 24386827.00  z"/>
<path id="N" d="M 29780133.00 17398243.00 L 29792614.00 17368110.00 L 29792614.00 17131890.00 L 29780133.00 17101757.00 L 29750000.00 17089276.00 L 29719867.00 17101757.00 L 29707386.00 17131890.00 L 29707386.00 17368110.00 L 29719867.00 17398243.00 L 29750000.00 17410724.00 L 29780133.00 17398243.00  z"/>
<path id="N" d="M 29730133.00 15848243.00 L 29742614.00 15818110.00 L 29742614.00 15581890.00 L 29730133.00 15551757.00 L 29700000.00 15539276.00 L 29669867.00 15551757.00 L 29657386.00 15581890.00 L 29657386.00 15818110.00 L 29669867.00 15848243.00 L 29700000.00 15860724.00 L 29730133.00 15848243.00  z"/>
</g>
</svg>
