<svg width="55.99999976mm" height="64.99999954mm" viewBox="0 0 22047244 25590551"  version="1.1" xmlns="http://www.w3.org/2000/svg" xmlns:xlink="http://www.w3.org/1999/xlink">
<desc>
Origin 0 0 Bound 15722441 13637008 22047244 25590551
</desc>
<g fill-rule="evenodd" fill="rgb(255, 0, 0)" stroke="black" stroke-width="1" transform="translate(0, 25590551) scale(1, -1) translate(-15722441, -13637008)">
<path id="N" d="M 21927560.00 18658663.00 L 21809450.00 18658663.00 L 21809450.00 19052363.00 L 21927560.00 19052363.00 L 21927560.00 18658663.00  z"/>
<path id="N" d="M 18159448.00 31753150.00 L 18041338.00 31753150.00 L 18041338.00 32146850.00 L 18159448.00 32146850.00 L 18159448.00 31753150.00  z"/>
<path id="N" d="M 35772433.64 18782268.96 m -315709.31 0 a 315709.31 315709.31 0 1 1 631418.63 0a 315709.31 315709.31 0 1 1 -631418.63 0M 35772441.92 18782281.47 m -208737.53 0 a 208737.53 208737.53 0 1 1 417475.06 0a 208737.53 208737.53 0 1 1 -417475.06 0"/>
<path id="N" d="M 21702756.00 31753150.00 L 21584646.00 31753150.00 L 21584646.00 32146850.00 L 21702756.00 32146850.00 L 21702756.00 31753150.00  z"/>
<path id="N" d="M 18384252.00 18658663.00 L 18266142.00 18658663.00 L 18266142.00 19052363.00 L 18384252.00 19052363.00 L 18384252.00 18658663.00  z"/>
<path id="N" d="M 17765747.00 31753150.00 L 17647637.00 31753150.00 L 17647637.00 32146850.00 L 17765747.00 32146850.00 L 17765747.00 31753150.00  z"/>
<path id="N" d="M 22321261.00 18658663.00 L 22203151.00 18658663.00 L 22203151.00 19052363.00 L 22321261.00 19052363.00 L 22321261.00 18658663.00  z"/>
<path id="N" d="M 35772433.64 30782268.96 m -315709.31 0 a 315709.31 315709.31 0 1 1 631418.63 0a 315709.31 315709.31 0 1 1 -631418.63 0M 35772441.92 30782281.47 m -208737.53 0 a 208737.53 208737.53 0 1 1 417475.06 0a 208737.53 208737.53 0 1 1 -417475.06 0"/>
<path id="N" d="M 21140159.00 18658663.00 L 21022049.00 18658663.00 L 21022049.00 19052363.00 L 21140159.00 19052363.00 L 21140159.00 18658663.00  z"/>
<path id="N" d="M 18946849.00 31753150.00 L 18828739.00 31753150.00 L 18828739.00 32146850.00 L 18946849.00 32146850.00 L 18946849.00 31753150.00  z"/>
<path id="N" d="M 35772433.64 25782268.96 m -315709.31 0 a 315709.31 315709.31 0 1 1 631418.63 0a 315709.31 315709.31 0 1 1 -631418.63 0M 35772441.92 25782281.47 m -208737.53 0 a 208737.53 208737.53 0 1 1 417475.06 0a 208737.53 208737.53 0 1 1 -417475.06 0"/>
<path id="N" d="M 36045839.00 23624437.00 L 36028900.55 23602362.22 L 36788269.00 22842994.00 L 36804120.00 22804725.00 L 36804121.00 16458579.00 L 36788269.00 16420310.00 L 36229690.00 15861731.00 L 36191418.59 15845880.00 L 33900000.00 15845879.00 L 33861730.29 15861732.71 L 32527581.01 17195881.00 L 30158269.00 17195881.00 L 30158269.00 17132895.00 L 30147966.00 17108020.00 L 30123091.00 17097717.00 L 29928091.00 17097717.00 L 29903216.00 17108020.00 L 29892913.00 17132895.00 L 29892913.00 17367107.00 L 29903216.00 17391982.00 L 29928091.00 17402285.00 L 30123091.00 17402285.00 L 30147966.00 17391982.00 L 30158269.00 17367107.00 L 30158269.00 17304121.00 L 32549999.00 17304122.00 L 32588268.00 17288270.00 L 33922417.01 15954120.00 L 36169003.00 15954120.00 L 36695880.00 16480997.00 L 36695880.00 22782307.98 L 35952362.49 23525824.73 L 35930287.00 23508886.00 A 315690.57 315690.57 0 1 0 36045839.00 23624437.00  zM 35772441.92 23782281.47 m -208737.53 0 a 208737.53 208737.53 0 1 1 417475.06 0a 208737.53 208737.53 0 1 1 -417475.06 0"/>
<path id="N" d="M 22883858.00 31753150.00 L 22765748.00 31753150.00 L 22765748.00 32146850.00 L 22883858.00 32146850.00 L 22883858.00 31753150.00  z"/>
<path id="N" d="M 17203150.00 18658663.00 L 17085040.00 18658663.00 L 17085040.00 19052363.00 L 17203150.00 19052363.00 L 17203150.00 18658663.00  z"/>
<path id="N" d="M 34467505.00 28705301.00 L 34466815.40 28710539.00 L 33775376.00 28710539.00 L 27226980.59 22162143.59 L 27240673.00 22093307.00 L 27240673.00 21089371.00 A 190667.29 190667.29 0 0 0 26859329.00 21089371.00 L 26859329.00 22093307.00 A 190667.29 190667.29 0 0 0 27118835.92 22270286.92 L 33689629.00 28841080.00 L 33714437.00 28857656.00 L 33743701.00 28863477.00 L 34466815.40 28863477.00 L 34467505.00 28868715.00 A 315695.14 315695.14 0 1 0 34467505.00 28705301.00  zM 34772441.92 28787005.47 m -208737.53 0 a 208737.53 208737.53 0 1 1 417475.06 0a 208737.53 208737.53 0 1 1 -417475.06 0"/>
<path id="N" d="M 34469168.06 29701286.00 L 34266124.00 29701286.00 L 26726981.59 22162143.59 L 26740674.00 22093307.00 L 26740674.00 21089371.00 A 190667.29 190667.29 0 1 0 26359330.00 21089371.00 L 26359330.00 22093307.00 A 190667.29 190667.29 0 0 0 26618836.92 22270286.92 L 34180377.00 29831827.00 L 34205185.00 29848403.00 L 34234449.00 29854224.00 L 34465597.21 29854224.00 L 34467505.00 29868715.00 A 315695.14 315695.14 0 1 0 34469168.06 29701286.00  zM 34772441.92 29787005.47 m -208737.53 0 a 208737.53 208737.53 0 1 1 417475.06 0a 208737.53 208737.53 0 1 1 -417475.06 0"/>
<path id="N" d="M 37689407.00 13717286.00 L 15802719.00 13717286.00 L 15802719.00 39147281.00 L 37689407.00 39147281.00 L 37689407.00 13717286.00  zM 17100000.00 14850014.21 m -693878.11 0 a 693878.11 693878.11 0 1 1 1387756.22 0a 693878.11 693878.11 0 1 1 -1387756.22 0M 21798469.59 21549999.98 L 21694937.43 21549999.97 L 21718349.00 21462626.00 L 21765205.00 21381469.00 L 21831469.00 21315205.00 L 21912626.00 21268349.00 L 22000000.03 21244937.42 L 22000000.02 21348469.59 L 21983195.00 21350682.00 A 258122.37 258122.37 0 0 0 21800682.00 21533195.00 L 21798469.59 21549999.98  zM 22405062.58 21550000.03 L 22301530.41 21550000.02 L 22299318.00 21533195.00 A 258122.37 258122.37 0 0 0 22116805.00 21350682.00 L 22100000.02 21348469.59 L 22100000.03 21244937.43 L 22187374.00 21268349.00 L 22268531.00 21315205.00 L 22334795.00 21381469.00 L 22381651.00 21462626.00 L 22405062.58 21550000.03  zM 21999999.97 21955062.57 L 21912626.00 21931651.00 L 21831469.00 21884795.00 L 21765205.00 21818531.00 L 21718349.00 21737374.00 L 21694937.42 21649999.97 L 21798469.59 21649999.98 L 21800682.00 21666805.00 A 258122.37 258122.37 0 0 0 21983195.00 21849318.00 L 21999999.98 21851530.41 L 21999999.97 21955062.57  zM 22049998.59 21600001.48 m -160563.52 0 a 160563.52 160563.52 0 1 1 321127.04 0a 160563.52 160563.52 0 1 1 -321127.04 0M 22099999.97 21955062.58 L 22099999.98 21851530.41 L 22116805.00 21849318.00 A 258122.37 258122.37 0 0 0 22299318.00 21666805.00 L 22301530.41 21650000.02 L 22405062.57 21650000.03 L 22381651.00 21737374.00 L 22334795.00 21818531.00 L 22268531.00 21884795.00 L 22187374.00 21931651.00 L 22099999.97 21955062.58  zM 21798469.59 23099999.98 L 21694937.43 23099999.97 L 21718349.00 23012626.00 L 21765205.00 22931469.00 L 21831469.00 22865205.00 L 21912626.00 22818349.00 L 22000000.03 22794937.42 L 22000000.02 22898469.59 L 21983195.00 22900682.00 A 258122.37 258122.37 0 0 0 21800682.00 23083195.00 L 21798469.59 23099999.98  zM 22049998.59 23150001.48 m -160563.52 0 a 160563.52 160563.52 0 1 1 321127.04 0a 160563.52 160563.52 0 1 1 -321127.04 0M 21999999.97 23505062.57 L 21912626.00 23481651.00 L 21831469.00 23434795.00 L 21765205.00 23368531.00 L 21718349.00 23287374.00 L 21694937.42 23199999.97 L 21798469.59 23199999.98 L 21800682.00 23216805.00 A 258122.37 258122.37 0 0 0 21983195.00 23399318.00 L 21999999.98 23401530.41 L 21999999.97 23505062.57  zM 22405062.58 23100000.03 L 22301530.41 23100000.02 L 22299318.00 23083195.00 A 258122.37 258122.37 0 0 0 22116805.00 22900682.00 L 22100000.02 22898469.59 L 22100000.03 22794937.43 L 22187374.00 22818349.00 L 22268531.00 22865205.00 L 22334795.00 22931469.00 L 22381651.00 23012626.00 L 22405062.58 23100000.03  zM 22099999.97 23505062.58 L 22099999.98 23401530.41 L 22116805.00 23399318.00 A 258122.37 258122.37 0 0 0 22299318.00 23216805.00 L 22301530.41 23200000.02 L 22405062.57 23200000.03 L 22381651.00 23287374.00 L 22334795.00 23368531.00 L 22268531.00 23434795.00 L 22187374.00 23481651.00 L 22099999.97 23505062.58  zM 34463330.80 16737007.00 L 34359449.00 16737007.00 L 34359449.00 16732637.00 A 416536.95 416536.95 0 0 1 34718070.00 16374016.00 L 34722440.00 16374016.00 L 34722440.00 16477897.80 L 34690734.00 16482072.00 A 315709.31 315709.31 0 0 0 34467505.00 16705301.00 L 34463330.80 16737007.00  zM 34772441.92 16787005.47 m -208737.53 0 a 208737.53 208737.53 0 1 1 417475.06 0a 208737.53 208737.53 0 1 1 -417475.06 0M 34722440.00 17200000.00 L 34718070.00 17200000.00 A 416536.95 416536.95 0 0 1 34359449.00 16841379.00 L 34359449.00 16837007.00 L 34463330.54 16837007.00 L 34467505.00 16868715.00 A 315695.14 315695.14 0 0 0 34690734.00 17091944.00 L 34722440.00 17096118.20 L 34722440.00 17200000.00  zM 34772441.00 17786997.08 m -416566.46 0 a 416566.46 416566.46 0 1 1 833132.93 0a 416566.46 416566.46 0 1 1 -833132.93 0M 34772441.00 18786997.08 m -416566.46 0 a 416566.46 416566.46 0 1 1 833132.93 0a 416566.46 416566.46 0 1 1 -833132.93 0M 35931850.00 24397436.00 L 35937651.48 24400785.52 L 36897061.00 23441376.00 L 36897061.00 22942423.07 L 36890789.11 22937660.26 L 36847060.59 22923952.41 L 36153939.48 23617073.52 L 36157289.00 23622875.00 A 416566.46 416566.46 0 1 1 35931850.00 23397436.00 L 35937651.48 23400785.52 L 36597061.00 22741376.00 L 36597061.00 16521928.00 L 36128072.00 16052939.00 L 33963349.00 16052939.00 L 32658143.00 17358145.00 L 32608526.00 17391298.00 L 32549999.00 17402940.00 L 30229382.04 17402940.00 L 30227876.00 17410511.00 A 113421.08 113421.08 0 0 1 30123091.00 17480526.00 L 29928091.00 17480526.00 A 113419.34 113419.34 0 0 1 29814672.00 17367107.00 L 29814672.00 17132895.00 A 113419.34 113419.34 0 0 1 29928091.00 17019476.00 L 30123091.00 17019476.00 A 113419.34 113419.34 0 0 1 30227876.00 17089491.00 L 30229382.04 17097062.00 L 32486650.00 17097062.00 L 33684577.60 15899134.40 L 33665443.25 15852940.00 L 30179382.04 15852940.00 L 30177876.00 15860511.00 A 113421.08 113421.08 0 0 1 30073091.00 15930526.00 L 29878091.00 15930526.00 A 113419.34 113419.34 0 0 1 29764672.00 15817107.00 L 29764672.00 15582895.00 A 113419.34 113419.34 0 0 1 29878091.00 15469476.00 L 30073091.00 15469476.00 A 113419.34 113419.34 0 0 1 30177876.00 15539491.00 L 30179382.04 15547062.00 L 36139043.37 15547062.00 L 36148989.03 15497061.75 L 36064241.00 15461958.00 A 693886.55 693886.55 0 1 1 36718437.00 15461958.00 L 36633688.97 15497061.75 L 36643634.63 15547062.00 L 36750001.00 15547062.00 L 36808528.00 15558704.00 L 36858145.00 15591857.00 L 37158144.00 15891856.00 L 37191297.00 15941473.00 L 37202939.00 16000000.00 L 37202939.00 23504725.00 L 37191297.00 23563252.00 L 37158144.00 23612869.00 L 36153939.48 24617073.52 L 36157289.00 24622875.00 A 416566.46 416566.46 0 1 1 35931850.00 24397436.00  zM 34772441.00 21786997.08 m -416566.46 0 a 416566.46 416566.46 0 1 1 833132.93 0a 416566.46 416566.46 0 1 1 -833132.93 0M 34772441.00 22786997.08 m -416566.46 0 a 416566.46 416566.46 0 1 1 833132.93 0a 416566.46 416566.46 0 1 1 -833132.93 0M 34359449.00 30732637.00 L 34378872.88 30660143.91 L 26076577.52 22357849.50 L 26050003.00 22361348.00 A 268033.96 268033.96 0 0 1 25781962.00 22093307.00 L 25781962.00 21089371.00 A 268033.96 268033.96 0 0 1 26239537.00 20899837.00 L 26270195.82 20939792.94 L 26282098.48 20943676.68 L 26317906.52 20943676.68 L 26329809.18 20939792.94 L 26360468.00 20899837.00 A 268067.42 268067.42 0 0 1 26739536.00 20899837.00 L 26770194.82 20939792.94 L 26782097.48 20943676.68 L 26817905.52 20943676.68 L 26829808.18 20939792.94 L 26860467.00 20899837.00 A 268053.24 268053.24 0 0 1 27239535.00 20899837.00 L 27270193.82 20939792.94 L 27282096.48 20943676.68 L 27317904.52 20943676.68 L 27329807.18 20939792.94 L 27360466.00 20899837.00 A 268067.42 268067.42 0 0 1 27739534.00 20899837.00 L 27770192.82 20939792.94 L 27782095.48 20943676.68 L 27817903.52 20943676.68 L 27829806.18 20939792.94 L 27860465.00 20899837.00 A 268053.24 268053.24 0 0 1 28239533.00 20899837.00 L 28270191.82 20939792.94 L 28282094.48 20943676.68 L 28317902.52 20943676.68 L 28329805.18 20939792.94 L 28360464.00 20899837.00 L 28397059.00 20871757.59 L 28397059.00 18344019.00 L 28408701.00 18285492.00 L 28441854.00 18235875.00 L 29221470.00 17456259.00 L 29221470.00 15857223.28 L 29213490.00 15817107.00 L 29213490.00 15582895.00 A 113419.34 113419.34 0 0 1 29326909.00 15469476.00 L 29521909.00 15469476.00 A 113419.34 113419.34 0 0 1 29635328.00 15582895.00 L 29635328.00 15817107.00 A 113419.34 113419.34 0 0 1 29527348.00 15929444.06 L 29527348.00 17019476.00 L 29571909.00 17019476.00 L 29615313.00 17028110.00 A 113421.08 113421.08 0 0 1 29685328.00 17132895.00 L 29685328.00 17367107.00 A 113419.34 113419.34 0 0 1 29571909.00 17480526.00 L 29527348.00 17480526.00 L 29527348.00 17519608.00 L 29515706.00 17578135.00 L 29482553.00 17627752.00 L 28702937.00 18407368.00 L 28702937.00 20871757.59 L 28739532.00 20899837.00 L 28770190.82 20939792.94 L 28782093.48 20943676.68 L 28817901.52 20943676.68 L 28829804.18 20939792.94 L 28860463.00 20899837.00 L 28871569.00 20891315.19 L 28871569.00 20300004.00 L 28885151.00 20231722.00 L 28923829.00 20173836.00 L 29323833.00 19773832.00 L 29381719.00 19735154.00 L 29450001.00 19721572.00 L 30700000.00 19721572.00 L 30768282.00 19735154.00 L 30826168.00 19773832.00 L 31319278.00 20266942.00 L 31357956.00 20324828.00 L 31371538.00 20393115.03 L 31371538.00 21319202.00 L 34513863.00 24461527.00 L 34518858.00 24456532.00 A 416536.95 416536.95 0 1 1 34359449.00 24841379.00 L 34359449.00 24799736.45 L 34323139.00 24775475.00 L 31066942.00 21519278.00 L 31028264.00 21461392.00 L 31014682.00 21393110.00 L 31014682.00 20467018.00 L 30626092.00 20078428.00 L 29523909.00 20078428.00 L 29228425.00 20373912.00 L 29228425.00 20891315.19 L 29239531.00 20899837.00 L 29270189.82 20939792.94 L 29282092.48 20943676.68 L 29317900.52 20943676.68 L 29329803.18 20939792.94 L 29360462.00 20899837.00 A 268067.42 268067.42 0 0 1 29739530.00 20899837.00 L 29770188.82 20939792.94 L 29782091.48 20943676.68 L 29817899.52 20943676.68 L 29829802.18 20939792.94 L 29860461.00 20899837.00 A 268053.24 268053.24 0 0 1 30318036.00 21089371.00 L 30318036.00 22093307.00 L 30316208.86 22107185.90 L 30373473.24 22164450.30 L 30415169.00 22228132.00 L 30478850.67 22269827.75 L 33817602.01 25608580.00 L 34398573.75 25608580.00 L 34441965.00 25533425.00 A 416564.38 416564.38 0 1 1 34441965.00 26040591.00 L 34398573.75 25965436.00 L 33745171.22 25965436.00 L 33742095.93 25968697.72 L 33720908.16 26011884.16 L 34308357.00 26599333.00 L 34403912.57 26599333.00 L 34441965.00 26533425.00 A 416564.38 416564.38 0 1 1 34441965.00 27040591.00 L 34393234.93 26956189.00 L 34234449.00 26956190.00 L 34166167.00 26942607.00 L 34108281.00 26903929.00 L 29563873.10 22359521.10 L 29549996.00 22361348.00 A 268026.63 268026.63 0 0 1 29360462.00 22282841.00 L 29329803.18 22242885.06 L 29317900.52 22239001.32 L 29282092.48 22239001.32 L 29270189.82 22242885.06 L 29239531.00 22282841.00 A 268053.24 268053.24 0 0 1 28860463.00 22282841.00 L 28829804.18 22242885.06 L 28817901.52 22239001.32 L 28782093.48 22239001.32 L 28770190.82 22242885.06 L 28739532.00 22282841.00 A 268067.42 268067.42 0 0 1 28360464.00 22282841.00 L 28329805.18 22242885.06 L 28317902.52 22239001.32 L 28282094.48 22239001.32 L 28270191.82 22242885.06 L 28239533.00 22282841.00 A 268053.24 268053.24 0 0 1 27860465.00 22282841.00 L 27829806.18 22242885.06 L 27817903.52 22239001.32 L 27782095.48 22239001.32 L 27770192.82 22242885.06 L 27739534.00 22282841.00 L 27684020.00 22325437.00 L 27628270.27 22348529.94 L 27607438.46 22398409.52 L 33817608.01 28608580.00 L 34398573.75 28608580.00 L 34441965.00 28533425.00 A 416564.38 416564.38 0 1 1 34441965.00 29040591.00 L 34398573.75 28965436.00 L 33745177.22 28965436.00 L 33742100.08 28968700.34 L 33720913.10 29011883.10 L 34308357.00 29599327.00 L 34403916.03 29599327.00 L 34441965.00 29533425.00 A 416564.38 416564.38 0 1 1 34441965.00 30040591.00 L 34393231.47 29956183.00 L 34250293.34 29956183.00 L 34228936.89 29997352.45 L 34227970.25 30004571.18 L 34622911.82 30399512.79 L 34718070.00 30374016.00 A 416566.46 416566.46 0 1 1 34359449.00 30732637.00  zM 34463330.80 23737007.00 L 34359449.00 23737007.00 L 34359449.00 23732637.00 A 416536.95 416536.95 0 0 1 34718070.00 23374016.00 L 34722440.00 23374016.00 L 34722440.00 23477897.80 L 34690734.00 23482072.00 A 315709.31 315709.31 0 0 0 34467505.00 23705301.00 L 34463330.80 23737007.00  zM 35185433.00 16737007.00 L 35081551.20 16737007.00 L 35077377.00 16705301.00 A 315695.14 315695.14 0 0 0 34854148.00 16482072.00 L 34822440.00 16477897.54 L 34822440.00 16374016.00 L 34826812.00 16374016.00 A 416536.95 416536.95 0 0 1 35185433.00 16732637.00 L 35185433.00 16737007.00  zM 34826812.00 17200000.00 L 34822440.00 17200000.00 L 34822440.00 17096118.46 L 34854148.00 17091944.00 A 315709.31 315709.31 0 0 0 35077377.00 16868715.00 L 35081551.46 16837007.00 L 35185433.00 16837007.00 L 35185433.00 16841379.00 A 416536.95 416536.95 0 0 1 34826812.00 17200000.00  zM 35772441.00 16782273.08 m -416566.46 0 a 416566.46 416566.46 0 1 1 833132.93 0a 416566.46 416566.46 0 1 1 -833132.93 0M 35772441.00 17782273.08 m -416566.46 0 a 416566.46 416566.46 0 1 1 833132.93 0a 416566.46 416566.46 0 1 1 -833132.93 0M 35772441.00 18782273.08 m -416566.46 0 a 416566.46 416566.46 0 1 1 833132.93 0a 416566.46 416566.46 0 1 1 -833132.93 0M 34772441.00 19786997.08 m -416566.46 0 a 416566.46 416566.46 0 1 1 833132.93 0a 416566.46 416566.46 0 1 1 -833132.93 0M 35722440.00 20195276.00 L 35718070.00 20195276.00 A 416536.95 416536.95 0 0 1 35359449.00 19836655.00 L 35359449.00 19832283.00 L 35463330.54 19832283.00 L 35467505.00 19863991.00 A 315695.14 315695.14 0 0 0 35690734.00 20087220.00 L 35722440.00 20091394.20 L 35722440.00 20195276.00  zM 35463330.80 19732283.00 L 35359449.00 19732283.00 L 35359449.00 19727913.00 A 416536.95 416536.95 0 0 1 35718070.00 19369292.00 L 35722440.00 19369292.00 L 35722440.00 19473173.80 L 35690734.00 19477348.00 A 315709.31 315709.31 0 0 0 35467505.00 19700577.00 L 35463330.80 19732283.00  zM 35772441.92 19782281.47 m -208737.53 0 a 208737.53 208737.53 0 1 1 417475.06 0a 208737.53 208737.53 0 1 1 -417475.06 0M 36185433.00 19732283.00 L 36081551.20 19732283.00 L 36077377.00 19700577.00 A 315695.14 315695.14 0 0 0 35854148.00 19477348.00 L 35822440.00 19473173.54 L 35822440.00 19369292.00 L 35826812.00 19369292.00 A 416536.95 416536.95 0 0 1 36185433.00 19727913.00 L 36185433.00 19732283.00  zM 34772441.00 20786997.08 m -416566.46 0 a 416566.46 416566.46 0 1 1 833132.93 0a 416566.46 416566.46 0 1 1 -833132.93 0M 35772441.00 20782273.08 m -416566.46 0 a 416566.46 416566.46 0 1 1 833132.93 0a 416566.46 416566.46 0 1 1 -833132.93 0M 35826812.00 20195276.00 L 35822440.00 20195276.00 L 35822440.00 20091394.46 L 35854148.00 20087220.00 A 315709.31 315709.31 0 0 0 36077377.00 19863991.00 L 36081551.46 19832283.00 L 36185433.00 19832283.00 L 36185433.00 19836655.00 A 416536.95 416536.95 0 0 1 35826812.00 20195276.00  zM 35463330.80 21732283.00 L 35359449.00 21732283.00 L 35359449.00 21727913.00 A 416536.95 416536.95 0 0 1 35718070.00 21369292.00 L 35722440.00 21369292.00 L 35722440.00 21473173.80 L 35690734.00 21477348.00 A 315709.31 315709.31 0 0 0 35467505.00 21700577.00 L 35463330.80 21732283.00  zM 36185433.00 21732283.00 L 36081551.20 21732283.00 L 36077377.00 21700577.00 A 315695.14 315695.14 0 0 0 35854148.00 21477348.00 L 35822440.00 21473173.54 L 35822440.00 21369292.00 L 35826812.00 21369292.00 A 416536.95 416536.95 0 0 1 36185433.00 21727913.00 L 36185433.00 21732283.00  zM 35722440.00 22195276.00 L 35718070.00 22195276.00 A 416536.95 416536.95 0 0 1 35359449.00 21836655.00 L 35359449.00 21832283.00 L 35463330.54 21832283.00 L 35467505.00 21863991.00 A 315695.14 315695.14 0 0 0 35690734.00 22087220.00 L 35722440.00 22091394.20 L 35722440.00 22195276.00  zM 35772441.92 21782281.47 m -208737.53 0 a 208737.53 208737.53 0 1 1 417475.06 0a 208737.53 208737.53 0 1 1 -417475.06 0M 35826812.00 22195276.00 L 35822440.00 22195276.00 L 35822440.00 22091394.46 L 35854148.00 22087220.00 A 315709.31 315709.31 0 0 0 36077377.00 21863991.00 L 36081551.46 21832283.00 L 36185433.00 21832283.00 L 36185433.00 21836655.00 A 416536.95 416536.95 0 0 1 35826812.00 22195276.00  zM 35772441.00 22782273.08 m -416566.46 0 a 416566.46 416566.46 0 1 1 833132.93 0a 416566.46 416566.46 0 1 1 -833132.93 0M 35185433.00 23737007.00 L 35081551.20 23737007.00 L 35077377.00 23705301.00 A 315695.14 315695.14 0 0 0 34854148.00 23482072.00 L 34822440.00 23477897.54 L 34822440.00 23374016.00 L 34826812.00 23374016.00 A 416536.95 416536.95 0 0 1 35185433.00 23732637.00 L 35185433.00 23737007.00  zM 31400000.00 28704496.00 L 31150000.00 28704496.00 L 31052609.00 28685124.00 L 30970044.00 28629956.00 L 25070155.00 22560690.00 L 25058170.07 22542191.74 L 25006039.43 22478670.68 L 24993550.00 22466215.00 L 24881449.48 22298938.12 L 24860471.00 22282841.00 A 268053.24 268053.24 0 0 1 24781964.00 22093307.00 L 24781964.00 21854496.00 L 23405905.00 21854496.00 L 23405905.00 21955905.00 L 23304496.00 21955905.00 L 23304496.00 22794095.00 L 23405905.00 22794095.00 L 23405905.00 23505905.00 L 22694095.00 23505905.00 L 22694095.00 22794095.00 L 22795504.00 22794095.00 L 22795504.00 21955905.00 L 22694095.00 21955905.00 L 22694095.00 21244095.00 L 23405905.00 21244095.00 L 23405905.00 21345504.00 L 24781964.00 21345504.00 L 24781964.00 21089371.00 A 268033.96 268033.96 0 0 1 25318046.00 21089371.00 L 25318046.00 22036130.55 L 25360585.33 22099607.92 L 25373846.00 22166274.00 L 25415179.00 22228132.00 L 25477037.00 22269465.00 L 25501671.17 22274365.03 L 31257532.25 28195504.00 L 31400000.00 28195504.00 A 254495.31 254495.31 0 0 1 31400000.00 28704496.00  zM 26950000.00 39086534.00 L 26450000.00 39086534.00 L 26411762.00 39078928.00 L 26391447.37 39065354.00 L 26371260.00 39065354.00 L 26371260.00 39045166.63 L 26357686.00 39024852.00 L 26350080.00 38986614.00 L 26350080.00 38950699.75 L 26351750.00 38946668.00 L 26350080.00 38942636.25 L 26350080.00 38732589.75 L 26351750.00 38728558.00 L 26350080.00 38724526.25 L 26350080.00 38514479.75 L 26351750.00 38510448.00 L 26350080.00 38506416.25 L 26350080.00 38296369.75 L 26351750.00 38292338.00 L 26350080.00 38288306.25 L 26350080.00 38078259.75 L 26351750.00 38074228.00 L 26350080.00 38070196.25 L 26350080.00 37860149.75 L 26351750.00 37856118.00 L 26350080.00 37852086.25 L 26350080.00 37642039.75 L 26351750.00 37638008.00 L 26350080.00 37633976.25 L 26350080.00 37569292.00 L 26357686.00 37531054.00 L 26371260.00 37510739.37 L 26371260.00 37495930.69 L 26384245.33 37490552.00 L 26391447.37 37490552.00 L 26403193.29 37482703.51 L 26410949.00 37479491.00 L 26412010.38 37476928.59 L 26450000.00 37469372.00 L 26494974.00 37469372.00 L 26494974.00 37236341.34 L 26498683.00 37227387.00 L 26494974.00 37218432.66 L 26494974.00 37018231.34 L 26498683.00 37009277.00 L 26494974.00 37000322.66 L 26494974.00 36800121.34 L 26498683.00 36791167.00 L 26494974.00 36782212.66 L 26494974.00 36582011.34 L 26498683.00 36573057.00 L 26494974.00 36564102.66 L 26494974.00 36363901.34 L 26498683.00 36354947.00 L 26494974.00 36345992.66 L 26494974.00 36145791.34 L 26498683.00 36136837.00 L 26494974.00 36127882.66 L 26494974.00 35927681.34 L 26498683.00 35918727.00 L 26494974.00 35909772.66 L 26494974.00 35709571.34 L 26498683.00 35700617.00 L 26494974.00 35691662.66 L 26494974.00 35491461.34 L 26498683.00 35482507.00 L 26494974.00 35473552.66 L 26494974.00 35273351.34 L 26498683.00 35264397.00 L 26494974.00 35255442.66 L 26494974.00 35055241.34 L 26498683.00 35046287.00 L 26494974.00 35037332.66 L 26494974.00 34856347.00 L 26497062.10 34845849.49 L 26491070.57 34785015.32 L 26454478.71 34767708.61 L 26442343.28 34766509.65 L 26405654.00 34781362.00 L 26318871.00 34797592.00 L 26314079.26 34799576.80 L 26270657.00 34800459.00 L 26174649.00 34781362.00 L 26138625.99 34766439.99 L 26057237.00 34712058.00 L 26029669.00 34684490.00 L 25975283.00 34603097.00 L 25960364.00 34567078.00 L 25941267.00 34471068.00 L 25943145.00 34462276.00 L 25939933.19 34454522.00 L 25939347.00 34248207.75 L 25941017.00 34244176.00 L 25939347.00 34240144.25 L 25939347.00 34030097.75 L 25941017.00 34026066.00 L 25939347.00 34022034.25 L 25939347.00 33811987.75 L 25941017.00 33807956.00 L 25939347.00 33803924.25 L 25939347.00 33593877.75 L 25941017.00 33589846.00 L 25939347.00 33585814.25 L 25941267.00 33546256.00 L 25960364.00 33450247.00 L 25975286.01 33414223.99 L 26029668.00 33332835.00 L 26057236.00 33305267.00 L 26138629.00 33250881.00 L 26174648.00 33235962.00 L 26270656.08 33216865.38 L 26276951.62 33216865.32 L 26283870.00 33219731.00 L 26290788.70 33216865.19 L 26309645.00 33216865.00 L 26405653.00 33235962.00 L 26441676.01 33250884.01 L 26523065.00 33305266.00 L 26550633.00 33332834.00 L 26602007.92 33409722.09 L 26619938.00 33450246.00 L 26639035.00 33546256.00 L 26640955.00 33573609.25 L 26639285.00 33577641.00 L 26640955.00 33581672.75 L 26640955.00 33791719.25 L 26639285.00 33795751.00 L 26640955.00 33799782.75 L 26640955.00 34009829.25 L 26639285.00 34013861.00 L 26640955.00 34017892.75 L 26640955.00 34045335.77 L 26717128.00 34134523.00 A 1227986.37 1227986.37 0 0 1 26936544.00 34664239.00 L 26948175.84 34812037.76 L 26946866.00 34815200.00 L 26948790.33 34819845.76 L 26951265.61 34851297.66 L 26952270.00 35024348.66 L 26948561.00 35033303.00 L 26952270.00 35042257.34 L 26952270.00 35242458.66 L 26948561.00 35251413.00 L 26952270.00 35260367.34 L 26952270.00 35460568.66 L 26948561.00 35469523.00 L 26952270.00 35478477.34 L 26952270.00 35678678.66 L 26948561.00 35687633.00 L 26952270.00 35696587.34 L 26952270.00 35896788.66 L 26948561.00 35905743.00 L 26952270.00 35914697.34 L 26952270.00 36114898.66 L 26948561.00 36123853.00 L 26952270.00 36132807.34 L 26952270.00 36333008.66 L 26948561.00 36341963.00 L 26952270.00 36350917.34 L 26952270.00 36551118.66 L 26948561.00 36560073.00 L 26952270.00 36569027.34 L 26952270.00 36769228.66 L 26948561.00 36778183.00 L 26952270.00 36787137.34 L 26952270.00 36987338.66 L 26948561.00 36996293.00 L 26952270.00 37005247.34 L 26952270.00 37205448.66 L 26948561.00 37214403.00 L 26952270.00 37223357.34 L 26952270.00 37469823.53 L 26985276.00 37476969.00 L 26993033.33 37480182.18 L 27008552.63 37490552.00 L 27018068.33 37490552.00 L 27028740.00 37494972.34 L 27028740.00 37510739.37 L 27042314.00 37531054.00 L 27049920.00 37569292.00 L 27049920.00 37629970.25 L 27048250.00 37634002.00 L 27049920.00 37638033.75 L 27049920.00 37848080.25 L 27048250.00 37852112.00 L 27049920.00 37856143.75 L 27049920.00 38066190.25 L 27048250.00 38070222.00 L 27049920.00 38074253.75 L 27049920.00 38284300.25 L 27048250.00 38288332.00 L 27049920.00 38292363.75 L 27049920.00 38502410.25 L 27048250.00 38506442.00 L 27049920.00 38510473.75 L 27049920.00 38720520.25 L 27048250.00 38724552.00 L 27049920.00 38728583.75 L 27049920.00 38938630.25 L 27048250.00 38942662.00 L 27049920.00 38946693.75 L 27049920.00 38986614.00 L 27042314.00 39024852.00 L 27028740.00 39045166.63 L 27028740.00 39065354.00 L 27008552.63 39065354.00 L 26988238.00 39078928.00 L 26950000.00 39086534.00  zM 17100000.00 37684660.21 m -693878.11 0 a 693878.11 693878.11 0 1 1 1387756.22 0a 693878.11 693878.11 0 1 1 -1387756.22 0M 28800000.00 35900002.06 m -202310.31 0 a 202310.31 202310.31 0 1 1 404620.63 0a 202310.31 202310.31 0 1 1 -404620.63 0M 32745669.00 35232759.00 L 29392199.00 35232759.00 L 29323917.00 35219177.00 L 29266031.00 35180499.00 L 29178163.00 35092631.00 L 29139485.00 35034745.00 L 29125903.00 34966463.00 L 29125903.00 34724067.71 L 29072679.00 34683227.00 A 327599.99 327599.99 0 0 1 28976725.00 34451575.00 L 28976725.00 33565749.00 A 327604.72 327604.72 0 0 1 29631937.00 33565749.00 L 29631937.00 34451575.00 A 327604.72 327604.72 0 0 1 29535983.00 34683227.00 L 29482759.00 34724067.71 L 29482759.00 34875903.00 L 32671761.04 34875903.00 L 33886824.00 33660840.00 L 33944711.00 33622162.00 L 34012992.00 33608580.00 L 34398573.75 33608580.00 L 34441965.00 33533425.00 A 416564.38 416564.38 0 1 1 34441965.00 34040591.00 L 34398573.75 33965436.00 L 34086899.04 33965436.00 L 32871837.00 35180499.00 L 32813951.00 35219177.00 L 32745669.00 35232759.00  zM 29764126.00 34451575.00 L 29764126.00 33565749.00 A 327604.72 327604.72 0 0 1 30375447.00 33401946.00 L 30400454.85 33462320.00 L 32485344.06 33462320.00 L 33286824.00 32660840.00 L 33344710.00 32622162.00 L 33412997.03 32608580.00 L 34398573.75 32608580.00 L 34441965.00 32533425.00 A 416564.38 416564.38 0 1 1 34441965.00 33040591.00 L 34398573.75 32965436.00 L 33486899.06 32965436.00 L 32685420.00 33766916.00 L 32627534.00 33805594.00 L 32559252.00 33819176.00 L 30419338.00 33819176.00 L 30419338.00 34451575.00 A 327604.72 327604.72 0 0 1 29764126.00 34451575.00  zM 34722440.00 24200000.00 L 34718070.00 24200000.00 A 416536.95 416536.95 0 0 1 34359449.00 23841379.00 L 34359449.00 23837007.00 L 34463330.54 23837007.00 L 34467505.00 23868715.00 A 315695.14 315695.14 0 0 0 34690734.00 24091944.00 L 34722440.00 24096118.20 L 34722440.00 24200000.00  zM 34772441.92 23787005.47 m -208737.53 0 a 208737.53 208737.53 0 1 1 417475.06 0a 208737.53 208737.53 0 1 1 -417475.06 0M 34463330.80 31737007.00 L 34359449.00 31737007.00 L 34359449.00 31732637.00 A 416536.95 416536.95 0 0 1 34718070.00 31374016.00 L 34722440.00 31374016.00 L 34722440.00 31477897.80 L 34690734.00 31482072.00 A 315709.31 315709.31 0 0 0 34467505.00 31705301.00 L 34463330.80 31737007.00  zM 34722440.00 32200000.00 L 34718070.00 32200000.00 A 416536.95 416536.95 0 0 1 34359449.00 31841379.00 L 34359449.00 31837007.00 L 34463330.54 31837007.00 L 34467505.00 31868715.00 A 315695.14 315695.14 0 0 0 34690734.00 32091944.00 L 34722440.00 32096118.20 L 34722440.00 32200000.00  zM 34772441.00 34786997.08 m -416566.46 0 a 416566.46 416566.46 0 1 1 833132.93 0a 416566.46 416566.46 0 1 1 -833132.93 0M 34826812.00 24200000.00 L 34822440.00 24200000.00 L 34822440.00 24096118.46 L 34854148.00 24091944.00 A 315709.31 315709.31 0 0 0 35077377.00 23868715.00 L 35081551.46 23837007.00 L 35185433.00 23837007.00 L 35185433.00 23841379.00 A 416536.95 416536.95 0 0 1 34826812.00 24200000.00  zM 35722440.00 27195276.00 L 35718070.00 27195276.00 A 416536.95 416536.95 0 0 1 35359449.00 26836655.00 L 35359449.00 26832283.00 L 35463330.54 26832283.00 L 35467505.00 26863991.00 A 315695.14 315695.14 0 0 0 35690734.00 27087220.00 L 35722440.00 27091394.20 L 35722440.00 27195276.00  zM 34772441.00 27786997.08 m -416566.46 0 a 416566.46 416566.46 0 1 1 833132.93 0a 416566.46 416566.46 0 1 1 -833132.93 0M 35463330.80 29732283.00 L 35359449.00 29732283.00 L 35359449.00 29727913.00 A 416536.95 416536.95 0 0 1 35718070.00 29369292.00 L 35722440.00 29369292.00 L 35722440.00 29473173.80 L 35690734.00 29477348.00 A 315709.31 315709.31 0 0 0 35467505.00 29700577.00 L 35463330.80 29732283.00  zM 35722440.00 30195276.00 L 35718070.00 30195276.00 A 416536.95 416536.95 0 0 1 35359449.00 29836655.00 L 35359449.00 29832283.00 L 35463330.54 29832283.00 L 35467505.00 29863991.00 A 315695.14 315695.14 0 0 0 35690734.00 30087220.00 L 35722440.00 30091394.20 L 35722440.00 30195276.00  zM 34772441.92 31787005.47 m -208737.53 0 a 208737.53 208737.53 0 1 1 417475.06 0a 208737.53 208737.53 0 1 1 -417475.06 0M 35185433.00 31737007.00 L 35081551.20 31737007.00 L 35077377.00 31705301.00 A 315695.14 315695.14 0 0 0 34854148.00 31482072.00 L 34822440.00 31477897.54 L 34822440.00 31374016.00 L 34826812.00 31374016.00 A 416536.95 416536.95 0 0 1 35185433.00 31732637.00 L 35185433.00 31737007.00  zM 34826812.00 32200000.00 L 34822440.00 32200000.00 L 34822440.00 32096118.46 L 34854148.00 32091944.00 A 315709.31 315709.31 0 0 0 35077377.00 31868715.00 L 35081551.46 31837007.00 L 35185433.00 31837007.00 L 35185433.00 31841379.00 A 416536.95 416536.95 0 0 1 34826812.00 32200000.00  zM 35722440.00 34195276.00 L 35718070.00 34195276.00 A 416536.95 416536.95 0 0 1 35359449.00 33836655.00 L 35359449.00 33832283.00 L 35463330.54 33832283.00 L 35467505.00 33863991.00 A 315695.14 315695.14 0 0 0 35690734.00 34087220.00 L 35722440.00 34091394.20 L 35722440.00 34195276.00  zM 35185433.00 36200000.00 L 34359449.00 36200000.00 L 34359449.00 35374016.00 L 35185433.00 35374016.00 L 35185433.00 36200000.00  zM 35772441.00 25782273.08 m -416566.46 0 a 416566.46 416566.46 0 1 1 833132.93 0a 416566.46 416566.46 0 1 1 -833132.93 0M 35463330.80 26732283.00 L 35359449.00 26732283.00 L 35359449.00 26727913.00 A 416536.95 416536.95 0 0 1 35718070.00 26369292.00 L 35722440.00 26369292.00 L 35722440.00 26473173.80 L 35690734.00 26477348.00 A 315709.31 315709.31 0 0 0 35467505.00 26700577.00 L 35463330.80 26732283.00  zM 36185433.00 26732283.00 L 36081551.20 26732283.00 L 36077377.00 26700577.00 A 315695.14 315695.14 0 0 0 35854148.00 26477348.00 L 35822440.00 26473173.54 L 35822440.00 26369292.00 L 35826812.00 26369292.00 A 416536.95 416536.95 0 0 1 36185433.00 26727913.00 L 36185433.00 26732283.00  zM 35772441.92 26782281.47 m -208737.53 0 a 208737.53 208737.53 0 1 1 417475.06 0a 208737.53 208737.53 0 1 1 -417475.06 0M 35826812.00 27195276.00 L 35822440.00 27195276.00 L 35822440.00 27091394.46 L 35854148.00 27087220.00 A 315709.31 315709.31 0 0 0 36077377.00 26863991.00 L 36081551.46 26832283.00 L 36185433.00 26832283.00 L 36185433.00 26836655.00 A 416536.95 416536.95 0 0 1 35826812.00 27195276.00  zM 35772441.00 27782273.08 m -416566.46 0 a 416566.46 416566.46 0 1 1 833132.93 0a 416566.46 416566.46 0 1 1 -833132.93 0M 35772441.00 28782273.08 m -416566.46 0 a 416566.46 416566.46 0 1 1 833132.93 0a 416566.46 416566.46 0 1 1 -833132.93 0M 36185433.00 29732283.00 L 36081551.20 29732283.00 L 36077377.00 29700577.00 A 315695.14 315695.14 0 0 0 35854148.00 29477348.00 L 35822440.00 29473173.54 L 35822440.00 29369292.00 L 35826812.00 29369292.00 A 416536.95 416536.95 0 0 1 36185433.00 29727913.00 L 36185433.00 29732283.00  zM 35772441.92 29782281.47 m -208737.53 0 a 208737.53 208737.53 0 1 1 417475.06 0a 208737.53 208737.53 0 1 1 -417475.06 0M 35826812.00 30195276.00 L 35822440.00 30195276.00 L 35822440.00 30091394.46 L 35854148.00 30087220.00 A 315709.31 315709.31 0 0 0 36077377.00 29863991.00 L 36081551.46 29832283.00 L 36185433.00 29832283.00 L 36185433.00 29836655.00 A 416536.95 416536.95 0 0 1 35826812.00 30195276.00  zM 35772441.00 30782273.08 m -416566.46 0 a 416566.46 416566.46 0 1 1 833132.93 0a 416566.46 416566.46 0 1 1 -833132.93 0M 35772441.00 31782273.08 m -416566.46 0 a 416566.46 416566.46 0 1 1 833132.93 0a 416566.46 416566.46 0 1 1 -833132.93 0M 35772441.00 32782273.08 m -416566.46 0 a 416566.46 416566.46 0 1 1 833132.93 0a 416566.46 416566.46 0 1 1 -833132.93 0M 35463330.80 33732283.00 L 35359449.00 33732283.00 L 35359449.00 33727913.00 A 416536.95 416536.95 0 0 1 35718070.00 33369292.00 L 35722440.00 33369292.00 L 35722440.00 33473173.80 L 35690734.00 33477348.00 A 315709.31 315709.31 0 0 0 35467505.00 33700577.00 L 35463330.80 33732283.00  zM 36185433.00 33732283.00 L 36081551.20 33732283.00 L 36077377.00 33700577.00 A 315695.14 315695.14 0 0 0 35854148.00 33477348.00 L 35822440.00 33473173.54 L 35822440.00 33369292.00 L 35826812.00 33369292.00 A 416536.95 416536.95 0 0 1 36185433.00 33727913.00 L 36185433.00 33732283.00  zM 35772441.92 33782281.47 m -208737.53 0 a 208737.53 208737.53 0 1 1 417475.06 0a 208737.53 208737.53 0 1 1 -417475.06 0M 35826812.00 34195276.00 L 35822440.00 34195276.00 L 35822440.00 34091394.46 L 35854148.00 34087220.00 A 315709.31 315709.31 0 0 0 36077377.00 33863991.00 L 36081551.46 33832283.00 L 36185433.00 33832283.00 L 36185433.00 33836655.00 A 416536.95 416536.95 0 0 1 35826812.00 34195276.00  zM 35772441.00 34782273.08 m -416566.46 0 a 416566.46 416566.46 0 1 1 833132.93 0a 416566.46 416566.46 0 1 1 -833132.93 0M 36185433.00 36195276.00 L 35359449.00 36195276.00 L 35359449.00 35369292.00 L 36185433.00 35369292.00 L 36185433.00 36195276.00  zM 36391339.00 37684660.21 m -693878.11 0 a 693878.11 693878.11 0 1 1 1387756.22 0a 693878.11 693878.11 0 1 1 -1387756.22 0"/>
<path id="N" d="M 35772433.64 16782268.96 m -315709.31 0 a 315709.31 315709.31 0 1 1 631418.63 0a 315709.31 315709.31 0 1 1 -631418.63 0M 35772441.92 16782281.47 m -208737.53 0 a 208737.53 208737.53 0 1 1 417475.06 0a 208737.53 208737.53 0 1 1 -417475.06 0"/>
<path id="N" d="M 34549212.00 24563779.00 L 34536916.34 24579803.14 L 34505940.00 24572838.00 L 34480982.00 24572838.00 L 31269579.00 21361435.00 L 31269579.00 20393110.00 L 31263758.00 20363846.00 L 31247182.00 20339038.00 L 30754072.00 19845928.00 L 30729264.00 19829352.00 L 30700000.00 19823531.00 L 29450001.00 19823531.00 L 29420737.00 19829352.00 L 29395929.00 19845928.00 L 28995925.00 20245932.00 L 28979349.00 20270740.00 L 28973528.00 20300004.00 L 28973528.00 20915553.01 L 28915172.00 20954546.00 L 28873839.00 21016404.00 L 28859325.00 21089371.00 L 28859325.00 22093307.00 A 190667.29 190667.29 0 0 0 29240669.00 22093307.00 L 29240669.00 21089371.00 A 190667.29 190667.29 0 0 0 29126466.00 20915553.01 L 29126466.00 20331679.00 L 29481676.00 19976469.00 L 30668325.00 19976469.00 L 31116641.00 20424785.00 L 31116641.00 21393110.00 L 31122462.00 21422374.00 L 31139038.00 21447182.00 L 34395235.00 24703379.00 L 34420043.00 24719955.00 L 34449307.00 24725776.00 L 34464809.40 24725776.00 L 34456748.00 24787008.00 A 315697.91 315697.91 0 1 0 34549212.00 24563779.00  zM 34772441.92 24787005.47 m -208737.53 0 a 208737.53 208737.53 0 1 1 417475.06 0a 208737.53 208737.53 0 1 1 -417475.06 0"/>
<path id="N" d="M 32799741.00 35108403.00 L 34044666.02 33863477.00 L 34466815.40 33863477.00 L 34467505.00 33868715.00 A 315695.14 315695.14 0 1 0 34467505.00 33705301.00 L 34466815.40 33710539.00 L 34012992.00 33710539.00 L 33983729.00 33716360.00 L 33958917.99 33732939.01 L 32713994.02 34977862.00 L 29423874.00 34977862.00 L 29380800.00 34934788.00 L 29380800.00 34687248.67 L 29400340.00 34683362.00 A 250884.37 250884.37 0 0 0 29555215.00 34451575.00 L 29555215.00 33565749.00 A 250882.20 250882.20 0 0 0 29053447.00 33565749.00 L 29053447.00 34451575.00 A 250882.20 250882.20 0 0 0 29208322.00 34683362.00 L 29227862.00 34687248.67 L 29227862.00 34966463.00 L 29233683.00 34995727.00 L 29250259.00 35020535.00 L 29338127.00 35108403.00 L 29362935.00 35124979.00 L 29392199.00 35130800.00 L 32745669.00 35130800.00 L 32774933.00 35124979.00 L 32799741.00 35108403.00  zM 34772441.92 33787005.47 m -208737.53 0 a 208737.53 208737.53 0 1 1 417475.06 0a 208737.53 208737.53 0 1 1 -417475.06 0"/>
<path id="N" d="M 35772433.64 28782268.96 m -315709.31 0 a 315709.31 315709.31 0 1 1 631418.63 0a 315709.31 315709.31 0 1 1 -631418.63 0M 35772441.92 28782281.47 m -208737.53 0 a 208737.53 208737.53 0 1 1 417475.06 0a 208737.53 208737.53 0 1 1 -417475.06 0"/>
<path id="N" d="M 35772433.64 22782268.96 m -315709.31 0 a 315709.31 315709.31 0 1 1 631418.63 0a 315709.31 315709.31 0 1 1 -631418.63 0M 35772441.92 22782281.47 m -208737.53 0 a 208737.53 208737.53 0 1 1 417475.06 0a 208737.53 208737.53 0 1 1 -417475.06 0"/>
<path id="N" d="M 35772433.64 32782268.96 m -315709.31 0 a 315709.31 315709.31 0 1 1 631418.63 0a 315709.31 315709.31 0 1 1 -631418.63 0M 35772441.92 32782281.47 m -208737.53 0 a 208737.53 208737.53 0 1 1 417475.06 0a 208737.53 208737.53 0 1 1 -417475.06 0"/>
<path id="N" d="M 35772433.64 34782268.96 m -315709.31 0 a 315709.31 315709.31 0 1 1 631418.63 0a 315709.31 315709.31 0 1 1 -631418.63 0M 35772441.92 34782281.47 m -208737.53 0 a 208737.53 208737.53 0 1 1 417475.06 0a 208737.53 208737.53 0 1 1 -417475.06 0"/>
<path id="N" d="M 36085433.00 35469292.00 L 35459449.00 35469292.00 L 35459449.00 36095276.00 L 36085433.00 36095276.00 L 36085433.00 35469292.00  zM 35772441.92 35782281.47 m -208737.53 0 a 208737.53 208737.53 0 1 1 417475.06 0a 208737.53 208737.53 0 1 1 -417475.06 0"/>
<path id="N" d="M 21309055.00 31753150.00 L 21190945.00 31753150.00 L 21190945.00 32146850.00 L 21309055.00 32146850.00 L 21309055.00 31753150.00  z"/>
<path id="N" d="M 18777953.00 18658663.00 L 18659843.00 18658663.00 L 18659843.00 19052363.00 L 18777953.00 19052363.00 L 18777953.00 18658663.00  z"/>
<path id="N" d="M 28740670.00 22093307.00 L 28740670.00 21089371.00 A 190667.29 190667.29 0 0 0 28622965.00 20913213.00 L 28604118.00 20909464.11 L 28604118.00 18366436.98 L 29412678.00 17557877.00 L 29428529.00 17519608.00 L 29428529.00 17402285.00 L 29571909.00 17402285.00 L 29596784.00 17391982.00 L 29607087.00 17367107.00 L 29607087.00 17132895.00 L 29596784.00 17108020.00 L 29571909.00 17097717.00 L 29428529.00 17097717.00 L 29428529.00 15852285.00 L 29521909.00 15852285.00 L 29546784.00 15841982.00 L 29557087.00 15817107.00 L 29557087.00 15582895.00 L 29546784.00 15558020.00 L 29521909.00 15547717.00 L 29326909.00 15547717.00 L 29302034.00 15558020.00 L 29291731.00 15582895.00 L 29291731.00 15817107.00 L 29302034.00 15841982.00 L 29320289.00 15849543.06 L 29320289.00 17497190.98 L 28511729.00 18305750.00 L 28495878.00 18344021.41 L 28495878.00 20909464.11 L 28477031.00 20913213.00 A 190680.40 190680.40 0 0 0 28359326.00 21089371.00 L 28359326.00 22093307.00 A 190667.29 190667.29 0 0 0 28740670.00 22093307.00  z"/>
<path id="N" d="M 20746458.00 18658663.00 L 20628348.00 18658663.00 L 20628348.00 19052363.00 L 20746458.00 19052363.00 L 20746458.00 18658663.00  z"/>
<path id="N" d="M 19340550.00 31753150.00 L 19222440.00 31753150.00 L 19222440.00 32146850.00 L 19340550.00 32146850.00 L 19340550.00 31753150.00  z"/>
<path id="N" d="M 35772433.64 31782268.96 m -315709.31 0 a 315709.31 315709.31 0 1 1 631418.63 0a 315709.31 315709.31 0 1 1 -631418.63 0M 35772441.92 31782281.47 m -208737.53 0 a 208737.53 208737.53 0 1 1 417475.06 0a 208737.53 208737.53 0 1 1 -417475.06 0"/>
<path id="N" d="M 34469165.57 26701292.00 L 34266124.00 26701292.00 L 29726975.59 22162143.59 L 29740668.00 22093307.00 L 29740668.00 21089371.00 A 190667.29 190667.29 0 0 0 29359324.00 21089371.00 L 29359324.00 22093307.00 A 190667.29 190667.29 0 0 0 29618830.92 22270286.92 L 34180377.00 26831833.00 L 34205185.00 26848409.00 L 34234449.00 26854230.00 L 34465598.00 26854230.00 L 34467505.00 26868715.00 A 315695.14 315695.14 0 1 0 34469165.57 26701292.00  zM 34772441.92 26787005.47 m -208737.53 0 a 208737.53 208737.53 0 1 1 417475.06 0a 208737.53 208737.53 0 1 1 -417475.06 0"/>
<path id="N" d="M 35772433.64 27782268.96 m -315709.31 0 a 315709.31 315709.31 0 1 1 631418.63 0a 315709.31 315709.31 0 1 1 -631418.63 0M 35772441.92 27782281.47 m -208737.53 0 a 208737.53 208737.53 0 1 1 417475.06 0a 208737.53 208737.53 0 1 1 -417475.06 0"/>
<path id="N" d="M 36045839.00 24624437.00 L 36028900.58 24602362.25 L 37088269.00 23542994.00 L 37104120.00 23504725.00 L 37104121.00 16000000.00 L 37088267.29 15961730.29 L 36788270.00 15661732.00 L 36749998.59 15645881.00 L 30108269.00 15645881.00 L 30108269.00 15582895.00 L 30097966.00 15558020.00 L 30073091.00 15547717.00 L 29878091.00 15547717.00 L 29853216.00 15558020.00 L 29842913.00 15582895.00 L 29842913.00 15817107.00 L 29853216.00 15841982.00 L 29878091.00 15852285.00 L 30073091.00 15852285.00 L 30097966.00 15841982.00 L 30108269.00 15817107.00 L 30108269.00 15754121.00 L 36727583.05 15754121.00 L 36995880.00 16022417.05 L 36995880.00 23482307.99 L 35952362.46 24525824.71 L 35930287.00 24508886.00 A 315690.57 315690.57 0 1 0 36045839.00 24624437.00  zM 35772441.92 24782281.47 m -208737.53 0 a 208737.53 208737.53 0 1 1 417475.06 0a 208737.53 208737.53 0 1 1 -417475.06 0"/>
<path id="N" d="M 34614595.00 30513610.00 L 34602272.88 30523064.88 L 26229366.55 22150158.55 L 26240675.00 22093307.00 L 26240675.00 21089371.00 A 190667.29 190667.29 0 1 0 25859331.00 21089371.00 L 25859331.00 22093307.00 A 190667.29 190667.29 0 0 0 26122970.00 22269465.00 L 26128613.84 22265693.84 L 34497003.89 30634083.89 L 34467505.00 30705301.00 A 315689.64 315689.64 0 1 0 34614595.00 30513610.00  zM 34772441.92 30787005.47 m -208737.53 0 a 208737.53 208737.53 0 1 1 417475.06 0a 208737.53 208737.53 0 1 1 -417475.06 0"/>
<path id="N" d="M 30342616.00 34451575.00 L 30342616.00 33717217.00 L 32559252.00 33717217.00 L 32588516.00 33711396.00 L 32613324.00 33694820.00 L 33444667.00 32863477.00 L 34466815.40 32863477.00 L 34467505.00 32868715.00 A 315695.14 315695.14 0 1 0 34467505.00 32705301.00 L 34466815.40 32710539.00 L 33412992.00 32710538.00 L 33383729.00 32716360.00 L 33358920.00 32732936.00 L 32527577.00 33564279.00 L 30342323.60 33564279.00 A 248961.86 248961.86 0 0 0 29840848.00 33565749.00 L 29840848.00 34451575.00 A 250882.20 250882.20 0 0 0 30342616.00 34451575.00  zM 34772441.92 32787005.47 m -208737.53 0 a 208737.53 208737.53 0 1 1 417475.06 0a 208737.53 208737.53 0 1 1 -417475.06 0"/>
<path id="N" d="M 34467505.00 25705301.00 L 34466815.40 25710539.00 L 33775369.01 25710539.00 L 30226974.58 22162143.62 L 30240667.00 22093307.00 L 30240667.00 21089371.00 A 190667.29 190667.29 0 1 0 29859323.00 21089371.00 L 29859323.00 22093307.00 A 190667.29 190667.29 0 0 0 30118829.95 22270286.91 L 33689623.00 25841080.00 L 33714432.00 25857656.00 L 33743700.03 25863477.00 L 34466815.40 25863477.00 L 34467505.00 25868715.00 A 315695.14 315695.14 0 1 0 34467505.00 25705301.00  zM 34772441.92 25787005.47 m -208737.53 0 a 208737.53 208737.53 0 1 1 417475.06 0a 208737.53 208737.53 0 1 1 -417475.06 0"/>
<path id="N" d="M 35772433.64 17782268.96 m -315709.31 0 a 315709.31 315709.31 0 1 1 631418.63 0a 315709.31 315709.31 0 1 1 -631418.63 0M 35772441.92 17782281.47 m -208737.53 0 a 208737.53 208737.53 0 1 1 417475.06 0a 208737.53 208737.53 0 1 1 -417475.06 0"/>
<path id="N" d="M 31400000.00 28297463.00 L 31214451.98 28297463.00 L 25362012.00 22276639.00 L 25332951.00 22238766.00 L 25331677.00 22239619.00 L 25239063.18 22101420.25 L 25240677.00 22093307.00 L 25240677.00 21089371.00 A 190667.29 190667.29 0 0 0 24859333.00 21089371.00 L 24859333.00 21447463.00 L 23305905.00 21447463.00 L 23305905.00 21344095.00 L 22794095.00 21344095.00 L 22794095.00 21855905.00 L 22897463.00 21855905.00 L 22897463.00 22894095.00 L 22794095.00 22894095.00 L 22794095.00 23405905.00 L 23305905.00 23405905.00 L 23305905.00 22894095.00 L 23202537.00 22894095.00 L 23202537.00 21855905.00 L 23305905.00 21855905.00 L 23305905.00 21752537.00 L 24859333.00 21752537.00 L 24859333.00 22093307.00 A 190667.29 190667.29 0 0 0 24977038.00 22269465.00 L 24985572.26 22271162.57 L 25078248.00 22409454.00 L 25087726.38 22418906.74 L 25143434.30 22489797.19 L 31040624.00 28556323.00 L 31089638.00 28590085.00 L 31147841.00 28602522.00 L 31400000.00 28602537.00 A 152536.45 152536.45 0 0 0 31400000.00 28297463.00  zM 23049998.59 21600001.48 m -160563.52 0 a 160563.52 160563.52 0 1 1 321127.04 0a 160563.52 160563.52 0 1 1 -321127.04 0M 23049998.59 23150001.48 m -160563.52 0 a 160563.52 160563.52 0 1 1 321127.04 0a 160563.52 160563.52 0 1 1 -321127.04 0"/>
<path id="N" d="M 34772433.64 27786992.96 m -315709.31 0 a 315709.31 315709.31 0 1 1 631418.63 0a 315709.31 315709.31 0 1 1 -631418.63 0M 34772441.92 27787005.47 m -208737.53 0 a 208737.53 208737.53 0 1 1 417475.06 0a 208737.53 208737.53 0 1 1 -417475.06 0"/>
<path id="N" d="M 17100001.79 37684648.99 m -593404.85 0 a 593404.85 593404.85 0 1 1 1186809.70 0a 593404.85 593404.85 0 1 1 -1186809.70 0M 17100001.69 37684638.57 m -436815.43 0 a 436815.43 436815.43 0 1 1 873630.85 0a 436815.43 436815.43 0 1 1 -873630.85 0"/>
<path id="N" d="M 17100001.79 14850002.99 m -593404.85 0 a 593404.85 593404.85 0 1 1 1186809.70 0a 593404.85 593404.85 0 1 1 -1186809.70 0M 17100001.69 14849992.57 m -436815.43 0 a 436815.43 436815.43 0 1 1 873630.85 0a 436815.43 436815.43 0 1 1 -873630.85 0"/>
<path id="N" d="M 36391340.79 14850002.99 m -593404.85 0 a 593404.85 593404.85 0 1 1 1186809.70 0a 593404.85 593404.85 0 1 1 -1186809.70 0M 36391340.69 14849992.57 m -436815.43 0 a 436815.43 436815.43 0 1 1 873630.85 0a 436815.43 436815.43 0 1 1 -873630.85 0"/>
<path id="N" d="M 36391340.79 37684648.99 m -593404.85 0 a 593404.85 593404.85 0 1 1 1186809.70 0a 593404.85 593404.85 0 1 1 -1186809.70 0M 36391340.69 37684638.57 m -436815.43 0 a 436815.43 436815.43 0 1 1 873630.85 0a 436815.43 436815.43 0 1 1 -873630.85 0"/>
<path id="N" d="M 34772433.64 17786992.96 m -315709.31 0 a 315709.31 315709.31 0 1 1 631418.63 0a 315709.31 315709.31 0 1 1 -631418.63 0M 34772441.92 17787005.47 m -208737.53 0 a 208737.53 208737.53 0 1 1 417475.06 0a 208737.53 208737.53 0 1 1 -417475.06 0"/>
<path id="N" d="M 34772433.64 20786992.96 m -315709.31 0 a 315709.31 315709.31 0 1 1 631418.63 0a 315709.31 315709.31 0 1 1 -631418.63 0M 34772441.92 20787005.47 m -208737.53 0 a 208737.53 208737.53 0 1 1 417475.06 0a 208737.53 208737.53 0 1 1 -417475.06 0"/>
<path id="N" d="M 34772433.64 21786992.96 m -315709.31 0 a 315709.31 315709.31 0 1 1 631418.63 0a 315709.31 315709.31 0 1 1 -631418.63 0M 34772441.92 21787005.47 m -208737.53 0 a 208737.53 208737.53 0 1 1 417475.06 0a 208737.53 208737.53 0 1 1 -417475.06 0"/>
<path id="N" d="M 34772433.64 19786992.96 m -315709.31 0 a 315709.31 315709.31 0 1 1 631418.63 0a 315709.31 315709.31 0 1 1 -631418.63 0M 34772441.92 19787005.47 m -208737.53 0 a 208737.53 208737.53 0 1 1 417475.06 0a 208737.53 208737.53 0 1 1 -417475.06 0"/>
<path id="N" d="M 34772433.64 22786992.96 m -315709.31 0 a 315709.31 315709.31 0 1 1 631418.63 0a 315709.31 315709.31 0 1 1 -631418.63 0M 34772441.92 22787005.47 m -208737.53 0 a 208737.53 208737.53 0 1 1 417475.06 0a 208737.53 208737.53 0 1 1 -417475.06 0"/>
<path id="N" d="M 34772433.64 34786992.96 m -315709.31 0 a 315709.31 315709.31 0 1 1 631418.63 0a 315709.31 315709.31 0 1 1 -631418.63 0M 34772441.92 34787005.47 m -208737.53 0 a 208737.53 208737.53 0 1 1 417475.06 0a 208737.53 208737.53 0 1 1 -417475.06 0"/>
<path id="N" d="M 34772433.64 18786992.96 m -315709.31 0 a 315709.31 315709.31 0 1 1 631418.63 0a 315709.31 315709.31 0 1 1 -631418.63 0M 34772441.92 18787005.47 m -208737.53 0 a 208737.53 208737.53 0 1 1 417475.06 0a 208737.53 208737.53 0 1 1 -417475.06 0"/>
<path id="N" d="M 35085433.00 35474016.00 L 34459449.00 35474016.00 L 34459449.00 36100000.00 L 35085433.00 36100000.00 L 35085433.00 35474016.00  zM 34772441.92 35787005.47 m -208737.53 0 a 208737.53 208737.53 0 1 1 417475.06 0a 208737.53 208737.53 0 1 1 -417475.06 0"/>
<path id="N" d="M 27740672.00 22093307.00 L 27740672.00 21089371.00 A 190667.29 190667.29 0 0 0 27359328.00 21089371.00 L 27359328.00 22093307.00 A 190667.29 190667.29 0 0 0 27740672.00 22093307.00  z"/>
<path id="N" d="M 28240671.00 22093307.00 L 28240671.00 21089371.00 A 190667.29 190667.29 0 0 0 27859327.00 21089371.00 L 27859327.00 22093307.00 A 190667.29 190667.29 0 0 0 28240671.00 22093307.00  z"/>
<path id="N" d="M 28799998.47 35899998.47 m -100354.75 0 a 100354.75 100354.75 0 1 1 200709.51 0a 100354.75 100354.75 0 1 1 -200709.51 0"/>
<path id="N" d="M 24073230.00 17851577.00 L 23423624.00 17851577.00 L 23423624.00 18363387.00 L 24073230.00 18363387.00 L 24073230.00 17851577.00  z"/>
<path id="N" d="M 16376378.00 17851577.00 L 15726772.00 17851577.00 L 15726772.00 18363387.00 L 16376378.00 18363387.00 L 16376378.00 17851577.00  z"/>
<path id="N" d="M 24242126.00 32442126.00 L 23592520.00 32442126.00 L 23592520.00 32953936.00 L 24242126.00 32953936.00 L 24242126.00 32442126.00  z"/>
<path id="N" d="M 16545274.00 32442126.00 L 15895668.00 32442126.00 L 15895668.00 32953936.00 L 16545274.00 32953936.00 L 16545274.00 32442126.00  z"/>
<path id="N" d="M 19565355.00 18658663.00 L 19447245.00 18658663.00 L 19447245.00 19052363.00 L 19565355.00 19052363.00 L 19565355.00 18658663.00  z"/>
<path id="N" d="M 20521653.00 31753150.00 L 20403543.00 31753150.00 L 20403543.00 32146850.00 L 20521653.00 32146850.00 L 20521653.00 31753150.00  z"/>
<path id="N" d="M 26950000.00 37569292.00 L 26850311.00 37569292.00 L 26850311.00 34856347.00 L 26851353.00 34856347.00 A 1127714.62 1127714.62 0 0 0 26635976.00 34193483.00 L 26541035.00 34082322.53 L 26541035.00 33565749.00 A 250882.20 250882.20 0 0 0 26039267.00 33565749.00 L 26039267.00 34451575.00 A 250882.20 250882.20 0 0 0 26521938.00 34547584.00 L 26528439.96 34514895.80 L 26531978.00 34521515.00 L 26581768.00 34685651.00 L 26598034.58 34850809.19 L 26596933.00 34856347.00 L 26596933.00 37569292.00 L 26450000.00 37569292.00 L 26450000.00 38986614.00 L 26950000.00 38986614.00 L 26950000.00 37569292.00  z"/>
<path id="N" d="M 17596851.00 18658663.00 L 17478741.00 18658663.00 L 17478741.00 19052363.00 L 17596851.00 19052363.00 L 17596851.00 18658663.00  z"/>
<path id="N" d="M 22490157.00 31753150.00 L 22372047.00 31753150.00 L 22372047.00 32146850.00 L 22490157.00 32146850.00 L 22490157.00 31753150.00  z"/>
<path id="N" d="M 19959056.00 18658663.00 L 19840946.00 18658663.00 L 19840946.00 19052363.00 L 19959056.00 19052363.00 L 19959056.00 18658663.00  z"/>
<path id="N" d="M 20127952.00 31753150.00 L 20009842.00 31753150.00 L 20009842.00 32146850.00 L 20127952.00 32146850.00 L 20127952.00 31753150.00  z"/>
<path id="N" d="M 35772433.64 20782268.96 m -315709.31 0 a 315709.31 315709.31 0 1 1 631418.63 0a 315709.31 315709.31 0 1 1 -631418.63 0M 35772441.92 20782281.47 m -208737.53 0 a 208737.53 208737.53 0 1 1 417475.06 0a 208737.53 208737.53 0 1 1 -417475.06 0"/>
<path id="N" d="M 17990552.00 18658663.00 L 17872442.00 18658663.00 L 17872442.00 19052363.00 L 17990552.00 19052363.00 L 17990552.00 18658663.00  z"/>
<path id="N" d="M 22096456.00 31753150.00 L 21978346.00 31753150.00 L 21978346.00 32146850.00 L 22096456.00 32146850.00 L 22096456.00 31753150.00  z"/>
</g>
</svg>
