<svg width="55.99999976mm" height="64.99999954mm" viewBox="0 0 22047244 25590551"  version="1.1" xmlns="http://www.w3.org/2000/svg" xmlns:xlink="http://www.w3.org/1999/xlink">
<desc>
Origin 0 0 Bound 15722441 13637008 22047244 25590551
</desc>
<g fill-rule="evenodd" fill="rgb(128, 0, 128)" stroke="black" stroke-width="1" transform="translate(0, 25590551) scale(1, -1) translate(-15722441, -13637008)">
<path id="N" d="M 37769685.00 13637008.00 L 15722441.00 13637008.00 L 15722441.00 39227559.00 L 37769685.00 39227559.00 L 37769685.00 13637008.00  zM 17099998.22 14850007.46 m -613181.54 0 a 613181.54 613181.54 0 1 1 1226363.09 0a 613181.54 613181.54 0 1 1 -1226363.09 0M 16527165.00 18527559.00 L 15838189.00 18527559.00 L 15838189.00 17976379.00 L 16527165.00 17976379.00 L 16527165.00 18527559.00  zM 17353937.00 19216535.00 L 17196457.00 19216535.00 L 17196457.00 18783465.00 L 17353937.00 18783465.00 L 17353937.00 19216535.00  zM 17747638.00 19216535.00 L 17590158.00 19216535.00 L 17590158.00 18783465.00 L 17747638.00 18783465.00 L 17747638.00 19216535.00  zM 18141339.00 19216535.00 L 17983859.00 19216535.00 L 17983859.00 18783465.00 L 18141339.00 18783465.00 L 18141339.00 19216535.00  zM 18535039.00 19216535.00 L 18377559.00 19216535.00 L 18377559.00 18783465.00 L 18535039.00 18783465.00 L 18535039.00 19216535.00  zM 18928740.00 19216535.00 L 18771260.00 19216535.00 L 18771260.00 18783465.00 L 18928740.00 18783465.00 L 18928740.00 19216535.00  zM 19322441.00 19216535.00 L 19164961.00 19216535.00 L 19164961.00 18783465.00 L 19322441.00 18783465.00 L 19322441.00 19216535.00  zM 19716142.00 19216535.00 L 19558662.00 19216535.00 L 19558662.00 18783465.00 L 19716142.00 18783465.00 L 19716142.00 19216535.00  zM 20109843.00 19216535.00 L 19952363.00 19216535.00 L 19952363.00 18783465.00 L 20109843.00 18783465.00 L 20109843.00 19216535.00  zM 20503544.00 19216535.00 L 20346064.00 19216535.00 L 20346064.00 18783465.00 L 20503544.00 18783465.00 L 20503544.00 19216535.00  zM 20897245.00 19216535.00 L 20739765.00 19216535.00 L 20739765.00 18783465.00 L 20897245.00 18783465.00 L 20897245.00 19216535.00  zM 21290946.00 19216535.00 L 21133466.00 19216535.00 L 21133466.00 18783465.00 L 21290946.00 18783465.00 L 21290946.00 19216535.00  zM 21684647.00 19216535.00 L 21527167.00 19216535.00 L 21527167.00 18783465.00 L 21684647.00 18783465.00 L 21684647.00 19216535.00  zM 22078347.00 19216535.00 L 21920867.00 19216535.00 L 21920867.00 18783465.00 L 22078347.00 18783465.00 L 22078347.00 19216535.00  zM 22472048.00 19216535.00 L 22314568.00 19216535.00 L 22314568.00 18783465.00 L 22472048.00 18783465.00 L 22472048.00 19216535.00  zM 22865749.00 19216535.00 L 22708269.00 19216535.00 L 22708269.00 18783465.00 L 22865749.00 18783465.00 L 22865749.00 19216535.00  zM 24224017.00 18527559.00 L 23535041.00 18527559.00 L 23535041.00 17976379.00 L 24224017.00 17976379.00 L 24224017.00 18527559.00  zM 25742621.68 17499988.54 m -277979.46 0 a 277979.46 277979.46 0 1 1 555958.91 0a 277979.46 277979.46 0 1 1 -555958.91 0M 26018208.00 18775590.00 L 25467028.00 18775590.00 L 25467028.00 18224410.00 L 26018208.00 18224410.00 L 26018208.00 18775590.00  zM 27475590.00 18775590.00 L 26924410.00 18775590.00 L 26924410.00 18224410.00 L 27475590.00 18224410.00 L 27475590.00 18775590.00  zM 25339262.00 22093307.00 L 25339262.00 21089371.00 A 210745.76 210745.76 0 1 1 25760746.00 21089371.00 L 25760746.00 22093307.00 A 210745.76 210745.76 0 0 1 25339262.00 22093307.00  zM 24839263.00 22093307.00 L 24839263.00 21089371.00 A 210745.76 210745.76 0 0 1 25260747.00 21089371.00 L 25260747.00 22093307.00 A 210745.76 210745.76 0 0 1 24839263.00 22093307.00  zM 29521909.00 15873592.00 L 29326909.00 15873592.00 L 29286968.00 15857048.00 L 29270424.00 15817107.00 L 29270424.00 15582895.00 L 29286968.00 15542954.00 L 29326909.00 15526410.00 L 29521909.00 15526410.00 L 29561850.00 15542954.00 L 29578394.00 15582895.00 L 29578394.00 15817107.00 L 29561850.00 15857048.00 L 29521909.00 15873592.00  zM 30073091.00 15873592.00 L 29878091.00 15873592.00 L 29838150.00 15857048.00 L 29821606.00 15817107.00 L 29821606.00 15582895.00 L 29838150.00 15542954.00 L 29878091.00 15526410.00 L 30073091.00 15526410.00 L 30113032.00 15542954.00 L 30129576.00 15582895.00 L 30129576.00 15817107.00 L 30113032.00 15857048.00 L 30073091.00 15873592.00  zM 29571909.00 17423592.00 L 29376909.00 17423592.00 L 29336968.00 17407048.00 L 29320424.00 17367107.00 L 29320424.00 17132895.00 L 29336968.00 17092954.00 L 29376909.00 17076410.00 L 29571909.00 17076410.00 L 29611850.00 17092954.00 L 29628394.00 17132895.00 L 29628394.00 17367107.00 L 29611850.00 17407048.00 L 29571909.00 17423592.00  zM 27200003.68 17499988.54 m -277979.46 0 a 277979.46 277979.46 0 1 1 555958.91 0a 277979.46 277979.46 0 1 1 -555958.91 0M 30123091.00 17423592.00 L 29928091.00 17423592.00 L 29888150.00 17407048.00 L 29871606.00 17367107.00 L 29871606.00 17132895.00 L 29888150.00 17092954.00 L 29928091.00 17076410.00 L 30123091.00 17076410.00 L 30163032.00 17092954.00 L 30179576.00 17132895.00 L 30179576.00 17367107.00 L 30163032.00 17407048.00 L 30123091.00 17423592.00  zM 28339256.00 22093307.00 L 28339256.00 21089371.00 A 210745.76 210745.76 0 1 1 28760740.00 21089371.00 L 28760740.00 22093307.00 A 210745.76 210745.76 0 0 1 28339256.00 22093307.00  zM 27339258.00 22093307.00 L 27339258.00 21089371.00 A 210745.76 210745.76 0 0 1 27760742.00 21089371.00 L 27760742.00 22093307.00 A 210745.76 210745.76 0 0 1 27339258.00 22093307.00  zM 27839257.00 22093307.00 L 27839257.00 21089371.00 A 210745.76 210745.76 0 0 1 28260741.00 21089371.00 L 28260741.00 22093307.00 A 210745.76 210745.76 0 0 1 27839257.00 22093307.00  zM 28839255.00 22093307.00 L 28839255.00 21089371.00 A 210745.76 210745.76 0 1 1 29260739.00 21089371.00 L 29260739.00 22093307.00 A 210745.76 210745.76 0 0 1 28839255.00 22093307.00  zM 29839253.00 22093307.00 L 29839253.00 21089371.00 A 210745.76 210745.76 0 1 1 30260737.00 21089371.00 L 30260737.00 22093307.00 A 210745.76 210745.76 0 0 1 29839253.00 22093307.00  zM 29339254.00 22093307.00 L 29339254.00 21089371.00 A 210745.76 210745.76 0 0 1 29760738.00 21089371.00 L 29760738.00 22093307.00 A 210745.76 210745.76 0 0 1 29339254.00 22093307.00  zM 30339252.00 22093307.00 L 30339252.00 21089371.00 A 210745.76 210745.76 0 0 1 30760736.00 21089371.00 L 30760736.00 22093307.00 A 210745.76 210745.76 0 0 1 30339252.00 22093307.00  zM 36391337.22 14850007.46 m -613181.54 0 a 613181.54 613181.54 0 1 1 1226363.09 0a 613181.54 613181.54 0 1 1 -1226363.09 0M 35765354.12 16800002.43 m -315690.57 0 a 315690.57 315690.57 0 1 1 631381.15 0a 315690.57 315690.57 0 1 1 -631381.15 0M 36765354.12 16800002.43 m -315690.57 0 a 315690.57 315690.57 0 1 1 631381.15 0a 315690.57 315690.57 0 1 1 -631381.15 0M 35765354.12 17800002.43 m -315690.57 0 a 315690.57 315690.57 0 1 1 631381.15 0a 315690.57 315690.57 0 1 1 -631381.15 0M 35765354.12 18800002.43 m -315690.57 0 a 315690.57 315690.57 0 1 1 631381.15 0a 315690.57 315690.57 0 1 1 -631381.15 0M 36765354.12 17800002.43 m -315690.57 0 a 315690.57 315690.57 0 1 1 631381.15 0a 315690.57 315690.57 0 1 1 -631381.15 0M 35765354.12 19800002.43 m -315690.57 0 a 315690.57 315690.57 0 1 1 631381.15 0a 315690.57 315690.57 0 1 1 -631381.15 0M 36765354.12 19800002.43 m -315690.57 0 a 315690.57 315690.57 0 1 1 631381.15 0a 315690.57 315690.57 0 1 1 -631381.15 0M 36765354.12 18800002.43 m -315690.57 0 a 315690.57 315690.57 0 1 1 631381.15 0a 315690.57 315690.57 0 1 1 -631381.15 0M 35765354.12 20800002.43 m -315690.57 0 a 315690.57 315690.57 0 1 1 631381.15 0a 315690.57 315690.57 0 1 1 -631381.15 0M 36765354.12 20800002.43 m -315690.57 0 a 315690.57 315690.57 0 1 1 631381.15 0a 315690.57 315690.57 0 1 1 -631381.15 0M 26339260.00 22093307.00 L 26339260.00 21089371.00 A 210745.76 210745.76 0 0 1 26760744.00 21089371.00 L 26760744.00 22093307.00 A 210745.76 210745.76 0 0 1 26339260.00 22093307.00  zM 25839261.00 22093307.00 L 25839261.00 21089371.00 A 210745.76 210745.76 0 0 1 26260745.00 21089371.00 L 26260745.00 22093307.00 A 210745.76 210745.76 0 0 1 25839261.00 22093307.00  zM 26839259.00 22093307.00 L 26839259.00 21089371.00 A 210745.76 210745.76 0 0 1 27260743.00 21089371.00 L 27260743.00 22093307.00 A 210745.76 210745.76 0 0 1 26839259.00 22093307.00  zM 35765354.12 22800002.43 m -315690.57 0 a 315690.57 315690.57 0 1 1 631381.15 0a 315690.57 315690.57 0 1 1 -631381.15 0M 35765354.12 24800002.43 m -315690.57 0 a 315690.57 315690.57 0 1 1 631381.15 0a 315690.57 315690.57 0 1 1 -631381.15 0M 35765354.12 27800002.43 m -315690.57 0 a 315690.57 315690.57 0 1 1 631381.15 0a 315690.57 315690.57 0 1 1 -631381.15 0M 35765354.12 21800002.43 m -315690.57 0 a 315690.57 315690.57 0 1 1 631381.15 0a 315690.57 315690.57 0 1 1 -631381.15 0M 35765354.12 23800002.43 m -315690.57 0 a 315690.57 315690.57 0 1 1 631381.15 0a 315690.57 315690.57 0 1 1 -631381.15 0M 35765354.12 25800002.43 m -315690.57 0 a 315690.57 315690.57 0 1 1 631381.15 0a 315690.57 315690.57 0 1 1 -631381.15 0M 35765354.12 26800002.43 m -315690.57 0 a 315690.57 315690.57 0 1 1 631381.15 0a 315690.57 315690.57 0 1 1 -631381.15 0M 35765354.12 28800002.43 m -315690.57 0 a 315690.57 315690.57 0 1 1 631381.15 0a 315690.57 315690.57 0 1 1 -631381.15 0M 35765354.12 30800002.43 m -315690.57 0 a 315690.57 315690.57 0 1 1 631381.15 0a 315690.57 315690.57 0 1 1 -631381.15 0M 36765354.12 21800002.43 m -315690.57 0 a 315690.57 315690.57 0 1 1 631381.15 0a 315690.57 315690.57 0 1 1 -631381.15 0M 36765354.12 22800002.43 m -315690.57 0 a 315690.57 315690.57 0 1 1 631381.15 0a 315690.57 315690.57 0 1 1 -631381.15 0M 36765354.12 23800002.43 m -315690.57 0 a 315690.57 315690.57 0 1 1 631381.15 0a 315690.57 315690.57 0 1 1 -631381.15 0M 36765354.12 24800002.43 m -315690.57 0 a 315690.57 315690.57 0 1 1 631381.15 0a 315690.57 315690.57 0 1 1 -631381.15 0M 36765354.12 25800002.43 m -315690.57 0 a 315690.57 315690.57 0 1 1 631381.15 0a 315690.57 315690.57 0 1 1 -631381.15 0M 36765354.12 26800002.43 m -315690.57 0 a 315690.57 315690.57 0 1 1 631381.15 0a 315690.57 315690.57 0 1 1 -631381.15 0M 36765354.12 27800002.43 m -315690.57 0 a 315690.57 315690.57 0 1 1 631381.15 0a 315690.57 315690.57 0 1 1 -631381.15 0M 36765354.12 28800002.43 m -315690.57 0 a 315690.57 315690.57 0 1 1 631381.15 0a 315690.57 315690.57 0 1 1 -631381.15 0M 35765354.12 29800002.43 m -315690.57 0 a 315690.57 315690.57 0 1 1 631381.15 0a 315690.57 315690.57 0 1 1 -631381.15 0M 36765354.12 29800002.43 m -315690.57 0 a 315690.57 315690.57 0 1 1 631381.15 0a 315690.57 315690.57 0 1 1 -631381.15 0M 36765354.12 30800002.43 m -315690.57 0 a 315690.57 315690.57 0 1 1 631381.15 0a 315690.57 315690.57 0 1 1 -631381.15 0M 17099998.22 37684653.46 m -613181.54 0 a 613181.54 613181.54 0 1 1 1226363.09 0a 613181.54 613181.54 0 1 1 -1226363.09 0M 25234709.00 34451575.00 L 25234709.00 33565749.00 A 268033.96 268033.96 0 0 1 25770791.00 33565749.00 L 25770791.00 34451575.00 A 268033.96 268033.96 0 0 1 25234709.00 34451575.00  zM 26022110.00 34451575.00 L 26022110.00 33565749.00 A 268033.96 268033.96 0 0 1 26558192.00 33565749.00 L 26558192.00 34451575.00 A 268033.96 268033.96 0 0 1 26022110.00 34451575.00  zM 27461488.00 34451575.00 L 27461488.00 33565749.00 A 268033.96 268033.96 0 0 1 27997570.00 33565749.00 L 27997570.00 34451575.00 A 268033.96 268033.96 0 0 1 27461488.00 34451575.00  zM 28248889.00 34451575.00 L 28248889.00 33565749.00 A 268033.96 268033.96 0 0 1 28784971.00 33565749.00 L 28784971.00 34451575.00 A 268033.96 268033.96 0 0 1 28248889.00 34451575.00  zM 29036290.00 34451575.00 L 29036290.00 33565749.00 A 268033.96 268033.96 0 0 1 29572372.00 33565749.00 L 29572372.00 34451575.00 A 268033.96 268033.96 0 0 1 29036290.00 34451575.00  zM 29823691.00 34451575.00 L 29823691.00 33565749.00 A 268033.96 268033.96 0 0 1 30359773.00 33565749.00 L 30359773.00 34451575.00 A 268033.96 268033.96 0 0 1 29823691.00 34451575.00  zM 31722438.62 36386234.42 m -583503.58 0 a 583503.58 583503.58 0 1 1 1167007.17 0a 583503.58 583503.58 0 1 1 -1167007.17 0M 29694878.62 36386234.42 m -583503.58 0 a 583503.58 583503.58 0 1 1 1167007.17 0a 583503.58 583503.58 0 1 1 -1167007.17 0M 29694878.62 38413794.42 m -583503.58 0 a 583503.58 583503.58 0 1 1 1167007.17 0a 583503.58 583503.58 0 1 1 -1167007.17 0M 30708658.02 37400006.86 m -496366.14 0 a 496366.14 496366.14 0 1 1 992732.28 0a 496366.14 496366.14 0 1 1 -992732.28 0M 31722438.62 38413794.42 m -583503.58 0 a 583503.58 583503.58 0 1 1 1167007.17 0a 583503.58 583503.58 0 1 1 -1167007.17 0M 35765354.12 31800002.43 m -315690.57 0 a 315690.57 315690.57 0 1 1 631381.15 0a 315690.57 315690.57 0 1 1 -631381.15 0M 36765354.12 31800002.43 m -315690.57 0 a 315690.57 315690.57 0 1 1 631381.15 0a 315690.57 315690.57 0 1 1 -631381.15 0M 36765354.12 32800002.43 m -315690.57 0 a 315690.57 315690.57 0 1 1 631381.15 0a 315690.57 315690.57 0 1 1 -631381.15 0M 35765354.12 32800002.43 m -315690.57 0 a 315690.57 315690.57 0 1 1 631381.15 0a 315690.57 315690.57 0 1 1 -631381.15 0M 35765354.12 33800002.43 m -315690.57 0 a 315690.57 315690.57 0 1 1 631381.15 0a 315690.57 315690.57 0 1 1 -631381.15 0M 36765354.12 33800002.43 m -315690.57 0 a 315690.57 315690.57 0 1 1 631381.15 0a 315690.57 315690.57 0 1 1 -631381.15 0M 35765354.12 34800002.43 m -315690.57 0 a 315690.57 315690.57 0 1 1 631381.15 0a 315690.57 315690.57 0 1 1 -631381.15 0M 36078346.00 36112992.00 L 35452362.00 36112992.00 L 35452362.00 35487008.00 L 36078346.00 35487008.00 L 36078346.00 36112992.00  zM 36765354.12 34800002.43 m -315690.57 0 a 315690.57 315690.57 0 1 1 631381.15 0a 315690.57 315690.57 0 1 1 -631381.15 0M 37078346.00 36112992.00 L 36452362.00 36112992.00 L 36452362.00 35487008.00 L 37078346.00 35487008.00 L 37078346.00 36112992.00  zM 36391337.22 37684653.46 m -613181.54 0 a 613181.54 613181.54 0 1 1 1226363.09 0a 613181.54 613181.54 0 1 1 -1226363.09 0"/>
</g>
</svg>
