<svg width="55.99999976mm" height="64.99999954mm" viewBox="0 0 22047244 25590551"  version="1.1" xmlns="http://www.w3.org/2000/svg" xmlns:xlink="http://www.w3.org/1999/xlink">
<desc>
Origin 0 0 Bound 15722441 13637008 22047244 25590551
</desc>
<g fill-rule="evenodd" fill="rgb(0, 0, 255)" stroke="black" stroke-width="1" transform="translate(0, 25590551) scale(1, -1) translate(-15722441, -13637008)">
<path id="N" d="M 22058662.00 19453150.00 L 22052546.00 19453150.00 L 22052546.00 19394808.39 L 22068204.00 19384346.00 A 100353.26 100353.26 0 1 0 21926284.00 19384346.00 L 21944306.00 19396387.98 L 21944306.00 19453150.00 L 21940552.00 19453150.00 L 21940552.00 19846850.00 L 22058662.00 19846850.00 L 22058662.00 19453150.00  z"/>
<path id="N" d="M 36765346.64 18799984.96 m -315709.31 0 a 315709.31 315709.31 0 1 1 631418.63 0a 315709.31 315709.31 0 1 1 -631418.63 0M 36765354.92 18799997.47 m -208737.53 0 a 208737.53 208737.53 0 1 1 417475.06 0a 208737.53 208737.53 0 1 1 -417475.06 0"/>
<path id="N" d="M 18515354.00 19453150.00 L 18509238.00 19453150.00 L 18509238.00 19394809.06 L 18524897.00 19384346.00 A 100353.26 100353.26 0 1 0 18382977.00 19384346.00 L 18400998.00 19396387.31 L 18400998.00 19453150.00 L 18397244.00 19453150.00 L 18397244.00 19846850.00 L 18515354.00 19846850.00 L 18515354.00 19453150.00  z"/>
<path id="N" d="M 22452363.00 19453150.00 L 22446247.00 19453150.00 L 22446247.00 19394808.39 L 22461905.00 19384346.00 A 100353.26 100353.26 0 1 0 22319985.00 19384346.00 L 22338007.00 19396387.98 L 22338007.00 19453150.00 L 22334253.00 19453150.00 L 22334253.00 19846850.00 L 22452363.00 19846850.00 L 22452363.00 19453150.00  z"/>
<path id="N" d="M 36765346.64 30799984.96 m -315709.31 0 a 315709.31 315709.31 0 1 1 631418.63 0a 315709.31 315709.31 0 1 1 -631418.63 0M 36765354.92 30799997.47 m -208737.53 0 a 208737.53 208737.53 0 1 1 417475.06 0a 208737.53 208737.53 0 1 1 -417475.06 0"/>
<path id="N" d="M 21271261.00 19453150.00 L 21265145.00 19453150.00 L 21265145.00 19394808.39 L 21280803.00 19384346.00 A 100353.26 100353.26 0 1 0 21138883.00 19384346.00 L 21156905.00 19396387.98 L 21156905.00 19453150.00 L 21153151.00 19453150.00 L 21153151.00 19846850.00 L 21271261.00 19846850.00 L 21271261.00 19453150.00  z"/>
<path id="N" d="M 36765346.64 25799984.96 m -315709.31 0 a 315709.31 315709.31 0 1 1 631418.63 0a 315709.31 315709.31 0 1 1 -631418.63 0M 36765354.92 25799997.47 m -208737.53 0 a 208737.53 208737.53 0 1 1 417475.06 0a 208737.53 208737.53 0 1 1 -417475.06 0"/>
<path id="N" d="M 36765346.64 23799984.96 m -315709.31 0 a 315709.31 315709.31 0 1 1 631418.63 0a 315709.31 315709.31 0 1 1 -631418.63 0M 36765354.92 23799997.47 m -208737.53 0 a 208737.53 208737.53 0 1 1 417475.06 0a 208737.53 208737.53 0 1 1 -417475.06 0"/>
<path id="N" d="M 17334252.00 19453150.00 L 17328067.00 19453150.00 L 17328067.00 19394762.29 L 17343656.00 19384346.00 A 100353.26 100353.26 0 1 0 17201736.00 19384346.00 L 17219827.00 19396434.08 L 17219827.00 19453150.00 L 17216142.00 19453150.00 L 17216142.00 19846850.00 L 17334252.00 19846850.00 L 17334252.00 19453150.00  z"/>
<path id="N" d="M 35765346.64 28799984.96 m -315709.31 0 a 315709.31 315709.31 0 1 1 631418.63 0a 315709.31 315709.31 0 1 1 -631418.63 0M 35765354.92 28799997.47 m -208737.53 0 a 208737.53 208737.53 0 1 1 417475.06 0a 208737.53 208737.53 0 1 1 -417475.06 0"/>
<path id="N" d="M 37689407.00 13717286.00 L 15802719.00 13717286.00 L 15802719.00 20063386.00 L 16586220.00 20063386.00 L 16586220.00 20732676.00 L 15802719.00 20732676.00 L 15802719.00 39147281.00 L 37689407.00 39147281.00 L 37689407.00 13717286.00  zM 17100000.00 14850014.21 m -693878.11 0 a 693878.11 693878.11 0 1 1 1387756.22 0a 693878.11 693878.11 0 1 1 -1387756.22 0M 22531103.00 19925590.00 L 22255513.00 19925590.00 L 22255513.00 19814354.61 L 22250830.00 19807346.00 L 22239188.00 19748819.00 L 22239188.00 19442244.00 L 22233766.79 19436822.79 L 22184701.92 19434188.43 L 22173147.22 19436741.65 L 22151365.00 19459668.05 L 22151365.00 19744062.84 L 22152546.00 19750000.00 L 22140904.00 19808527.00 L 22137402.00 19813768.12 L 22137402.00 19925590.00 L 21861812.00 19925590.00 L 21861812.00 19814354.61 L 21857129.00 19807346.00 L 21845487.00 19748819.00 L 21845487.00 19442244.00 L 21829028.00 19425785.00 L 21807664.25 19374209.03 L 21757664.00 19384154.82 L 21757664.00 19744057.82 L 21758846.00 19750000.00 A 152935.86 152935.86 0 0 1 21451786.00 19748818.00 L 21451786.00 19378450.11 L 21401785.75 19368504.32 L 21378059.00 19425785.00 L 21363964.00 19439880.00 L 21363964.00 19744062.84 L 21365145.00 19750000.00 L 21353503.00 19808527.00 L 21350001.00 19813768.12 L 21350001.00 19925590.00 L 21074411.00 19925590.00 L 21074411.00 19814354.61 L 21069728.00 19807346.00 L 21058086.00 19748819.00 L 21058086.00 19442244.00 L 21052664.79 19436822.79 L 21003599.92 19434188.43 L 20992045.22 19436741.65 L 20970263.00 19459668.05 L 20970263.00 19744062.84 L 20971444.00 19750000.00 L 20959802.00 19808527.00 L 20956300.00 19813768.12 L 20956300.00 19925590.00 L 20697296.86 19925590.00 L 20684697.00 19917171.00 L 20680710.00 19916377.92 L 20680710.00 19814354.61 L 20676027.00 19807346.00 L 20664385.00 19748819.00 L 20664385.00 19442244.00 L 20647926.00 19425785.00 L 20626562.25 19374209.03 L 20576562.00 19384154.82 L 20576562.00 19744062.84 L 20577743.00 19750000.00 A 152940.51 152940.51 0 0 1 20270684.00 19748819.00 L 20270684.00 19378447.70 L 20220683.75 19368501.91 L 20196956.00 19425785.00 L 20182861.00 19439880.00 L 20182861.00 19744062.84 L 20184042.00 19750000.00 L 20172400.00 19808527.00 L 20168898.00 19813768.12 L 20168898.00 19925590.00 L 19893308.00 19925590.00 L 19893308.00 19814354.61 L 19888625.00 19807346.00 L 19876983.00 19748819.00 L 19876983.00 19442244.00 L 19871561.79 19436822.79 L 19822496.92 19434188.43 L 19810942.22 19436741.65 L 19789160.00 19459668.05 L 19789160.00 19744062.84 L 19790341.00 19750000.00 L 19778699.00 19808527.00 L 19775197.00 19813768.12 L 19775197.00 19925590.00 L 19516193.86 19925590.00 L 19503594.00 19917171.00 L 19499607.00 19916377.92 L 19499607.00 19814354.61 L 19494924.00 19807346.00 L 19483282.00 19748819.00 L 19483282.00 19442244.00 L 19466823.00 19425785.00 L 19445459.25 19374209.03 L 19395459.00 19384154.82 L 19395459.00 19744062.84 L 19396640.00 19750000.00 A 152940.51 152940.51 0 0 1 19089581.00 19748819.00 L 19089581.00 19378450.11 L 19039580.75 19368504.32 L 19015854.00 19425785.00 L 19001758.00 19439881.00 L 19001758.00 19744062.84 L 19002939.00 19750000.00 L 18991297.00 19808527.00 L 18987795.00 19813768.12 L 18987795.00 19925590.00 L 18712205.00 19925590.00 L 18712205.00 19814354.61 L 18707522.00 19807346.00 L 18695880.00 19748819.00 L 18695880.00 19442243.00 L 18690458.77 19436821.77 L 18641395.43 19434187.46 L 18629839.79 19436740.62 L 18608057.00 19459667.63 L 18608057.00 19744062.84 L 18609238.00 19750000.00 L 18597596.00 19808527.00 L 18594094.00 19813768.12 L 18594094.00 19925590.00 L 18335091.37 19925590.00 L 18327336.00 19920408.00 L 18318504.00 19918651.17 L 18318504.00 19814354.61 L 18313821.00 19807346.00 L 18302179.00 19748819.00 L 18302179.00 19442243.00 L 18296758.79 19436822.79 L 18247693.92 19434188.43 L 18236139.22 19436741.65 L 18214357.00 19459668.05 L 18214357.00 19744062.84 L 18215538.00 19750000.00 L 18203896.00 19808527.00 L 18200394.00 19813768.12 L 18200394.00 19925590.00 L 17924804.00 19925590.00 L 17924804.00 19814354.61 L 17920121.00 19807346.00 L 17908479.00 19748819.00 L 17908479.00 19442244.00 L 17903058.74 19436823.74 L 17853988.74 19434160.14 L 17842423.76 19436706.75 L 17820656.00 19459607.57 L 17820656.00 19744062.84 L 17821837.00 19750000.00 L 17810195.00 19808527.00 L 17806693.00 19813768.12 L 17806693.00 19925590.00 L 17531103.00 19925590.00 L 17531103.00 19814354.61 L 17526420.00 19807346.00 L 17514778.00 19748819.00 L 17514778.00 19442098.00 L 17509231.86 19436551.86 L 17460363.56 19433903.37 L 17448676.06 19436447.99 L 17426886.00 19459415.94 L 17426886.00 19743715.96 L 17428136.00 19750000.00 L 17416494.00 19808527.00 L 17412992.00 19813768.12 L 17412992.00 19925590.00 L 17153989.58 19925590.00 L 17143247.00 19918412.00 L 17137402.00 19917249.33 L 17137402.00 19814388.87 L 17132650.00 19807277.00 L 17121008.00 19748750.00 L 17121008.00 19442313.00 L 17104480.00 19425785.00 A 202310.31 202310.31 0 1 1 17440912.00 19200987.00 L 17444585.03 19209854.36 L 17494585.49 19209854.36 L 17498319.00 19200841.00 A 202314.06 202314.06 0 0 1 17834751.00 19200841.00 L 17838415.51 19209687.79 L 17888415.97 19209687.79 L 17892020.00 19200987.00 A 202314.06 202314.06 0 0 1 18228452.00 19200987.00 L 18232086.27 19209760.79 L 18282086.73 19209760.79 L 18285721.00 19200987.00 A 202314.06 202314.06 0 0 1 18622153.00 19200987.00 L 18625787.27 19209760.79 L 18675787.73 19209760.79 L 18679422.00 19200987.00 A 202314.06 202314.06 0 0 1 19046062.71 19273916.29 L 19096063.13 19274861.70 L 19100042.00 19254859.00 A 152938.82 152938.82 0 0 1 19383817.00 19256040.00 L 19384890.49 19261436.69 L 19434276.04 19272427.02 L 19437788.79 19271080.85 A 198381.69 198381.69 0 0 1 19803255.00 19200987.00 L 19806889.27 19209760.79 L 19856889.73 19209760.79 L 19860524.00 19200987.00 A 202314.06 202314.06 0 0 1 20227164.71 19273916.29 L 20277165.13 19274861.70 L 20281144.00 19254859.00 A 152938.82 152938.82 0 0 1 20564920.00 19256041.00 L 20565994.08 19261440.63 L 20615378.90 19272427.40 L 20618891.65 19271081.18 A 198382.14 198382.14 0 0 1 20984358.00 19200987.00 L 20987992.27 19209760.79 L 21037992.73 19209760.79 L 21041627.00 19200987.00 A 202314.06 202314.06 0 0 1 21408267.71 19273916.29 L 21458268.13 19274856.68 L 21462246.00 19254859.00 A 152938.82 152938.82 0 0 1 21746022.00 19256041.00 L 21747096.08 19261440.63 L 21796480.90 19272427.40 L 21799993.65 19271081.18 A 198382.14 198382.14 0 0 1 22165460.00 19200987.00 L 22169094.27 19209760.79 L 22219094.73 19209760.79 L 22222729.00 19200987.00 A 202314.06 202314.06 0 0 1 22559161.00 19200987.00 L 22568739.58 19224111.42 L 22633001.98 19248596.28 L 22642881.42 19243823.63 A 150195.64 150195.64 0 0 1 22938767.00 19301182.00 L 22938767.00 19744062.84 L 22939948.00 19750000.00 A 152940.51 152940.51 0 1 1 22632889.00 19748819.00 L 22632889.00 19378447.70 L 22582888.75 19368501.91 L 22559161.00 19425785.00 L 22545066.00 19439880.00 L 22545066.00 19744062.84 L 22546247.00 19750000.00 L 22534605.00 19808527.00 L 22531103.00 19813768.12 L 22531103.00 19925590.00  zM 24283072.00 20732676.00 L 23475986.00 20732676.00 L 23475986.00 20063386.00 L 24283072.00 20063386.00 L 24283072.00 20732676.00  zM 25491087.59 17450000.00 L 25387555.43 17450000.00 L 25410967.00 17362626.00 L 25457823.00 17281469.00 L 25524087.00 17215205.00 L 25605244.00 17168349.00 L 25692618.00 17144937.42 L 25692618.00 17248469.59 L 25675813.00 17250682.00 A 258122.37 258122.37 0 0 0 25493300.00 17433195.00 L 25491087.59 17450000.00  zM 25742616.59 17500001.48 m -160563.52 0 a 160563.52 160563.52 0 1 1 321127.04 0a 160563.52 160563.52 0 1 1 -321127.04 0M 25692618.00 17855062.57 L 25605244.00 17831651.00 L 25524087.00 17784795.00 L 25457823.00 17718531.00 L 25410967.00 17637374.00 L 25387555.42 17550000.00 L 25491087.59 17550000.00 L 25493300.00 17566805.00 A 258122.37 258122.37 0 0 0 25675813.00 17749318.00 L 25692618.00 17751530.41 L 25692618.00 17855062.57  zM 26097680.58 17450000.00 L 25994148.41 17450000.00 L 25991936.00 17433195.00 A 258122.37 258122.37 0 0 0 25809423.00 17250682.00 L 25792618.00 17248469.59 L 25792618.00 17144937.43 L 25879992.00 17168349.00 L 25961149.00 17215205.00 L 26027413.00 17281469.00 L 26074269.00 17362626.00 L 26097680.58 17450000.00  zM 25792618.00 17855062.58 L 25792618.00 17751530.41 L 25809423.00 17749318.00 A 258122.37 258122.37 0 0 0 25991936.00 17566805.00 L 25994148.41 17550000.00 L 26097680.57 17550000.00 L 26074269.00 17637374.00 L 26027413.00 17718531.00 L 25961149.00 17784795.00 L 25879992.00 17831651.00 L 25792618.00 17855062.58  zM 26098523.00 18855905.00 L 25386713.00 18855905.00 L 25386713.00 18144095.00 L 26098523.00 18144095.00 L 26098523.00 18855905.00  zM 26948469.59 17450000.00 L 26844937.43 17450000.00 L 26868349.00 17362626.00 L 26915205.00 17281469.00 L 26981469.00 17215205.00 L 27062626.00 17168349.00 L 27150000.00 17144937.42 L 27150000.00 17248469.59 L 27133195.00 17250682.00 A 258122.37 258122.37 0 0 0 26950682.00 17433195.00 L 26948469.59 17450000.00  zM 27199998.59 17500001.48 m -160563.52 0 a 160563.52 160563.52 0 1 1 321127.04 0a 160563.52 160563.52 0 1 1 -321127.04 0M 27150000.00 17855062.57 L 27062626.00 17831651.00 L 26981469.00 17784795.00 L 26915205.00 17718531.00 L 26868349.00 17637374.00 L 26844937.42 17550000.00 L 26948469.59 17550000.00 L 26950682.00 17566805.00 A 258122.37 258122.37 0 0 0 27133195.00 17749318.00 L 27150000.00 17751530.41 L 27150000.00 17855062.57  zM 27555062.58 17450000.00 L 27451530.41 17450000.00 L 27449318.00 17433195.00 A 258122.37 258122.37 0 0 0 27266805.00 17250682.00 L 27250000.00 17248469.59 L 27250000.00 17144937.43 L 27337374.00 17168349.00 L 27418531.00 17215205.00 L 27484795.00 17281469.00 L 27531651.00 17362626.00 L 27555062.58 17450000.00  zM 27250000.00 17855062.58 L 27250000.00 17751530.41 L 27266805.00 17749318.00 A 258122.37 258122.37 0 0 0 27449318.00 17566805.00 L 27451530.41 17550000.00 L 27555062.57 17550000.00 L 27531651.00 17637374.00 L 27484795.00 17718531.00 L 27418531.00 17784795.00 L 27337374.00 17831651.00 L 27250000.00 17855062.58  zM 27555905.00 18855905.00 L 26844095.00 18855905.00 L 26844095.00 18144095.00 L 27555905.00 18144095.00 L 27555905.00 18855905.00  zM 35456243.93 16749998.00 L 35352362.00 16749998.00 L 35352362.00 16745629.00 A 416536.95 416536.95 0 0 1 35710983.00 16387008.00 L 35715352.00 16387008.00 L 35715352.00 16490889.93 L 35683647.00 16495064.00 A 315709.31 315709.31 0 0 0 35460418.00 16718293.00 L 35456243.93 16749998.00  zM 35715352.00 17212992.00 L 35710983.00 17212992.00 A 416536.95 416536.95 0 0 1 35352362.00 16854371.00 L 35352362.00 16849998.00 L 35456243.40 16849998.00 L 35460418.00 16881707.00 A 315709.31 315709.31 0 0 0 35683647.00 17104936.00 L 35715352.00 17109110.07 L 35715352.00 17212992.00  zM 35715352.00 24212992.00 L 35710983.00 24212992.00 A 416536.95 416536.95 0 0 1 35352362.00 23854371.00 L 35352362.00 23849998.00 L 35456243.40 23849998.00 L 35460418.00 23881707.00 A 315709.31 315709.31 0 0 0 35683647.00 24104936.00 L 35715352.00 24109110.07 L 35715352.00 24212992.00  zM 35765354.92 16799997.47 m -208737.53 0 a 208737.53 208737.53 0 1 1 417475.06 0a 208737.53 208737.53 0 1 1 -417475.06 0M 35765354.00 17799989.08 m -416566.46 0 a 416566.46 416566.46 0 1 1 833132.93 0a 416566.46 416566.46 0 1 1 -833132.93 0M 35765354.00 19799989.08 m -416566.46 0 a 416566.46 416566.46 0 1 1 833132.93 0a 416566.46 416566.46 0 1 1 -833132.93 0M 35765354.00 21799989.08 m -416566.46 0 a 416566.46 416566.46 0 1 1 833132.93 0a 416566.46 416566.46 0 1 1 -833132.93 0M 35765354.00 22799989.08 m -416566.46 0 a 416566.46 416566.46 0 1 1 833132.93 0a 416566.46 416566.46 0 1 1 -833132.93 0M 35456243.93 23749998.00 L 35352362.00 23749998.00 L 35352362.00 23745629.00 A 416536.95 416536.95 0 0 1 35710983.00 23387008.00 L 35715352.00 23387008.00 L 35715352.00 23490889.93 L 35683647.00 23495064.00 A 315709.31 315709.31 0 0 0 35460418.00 23718293.00 L 35456243.93 23749998.00  zM 36391339.00 14850014.21 m -693878.11 0 a 693878.11 693878.11 0 1 1 1387756.22 0a 693878.11 693878.11 0 1 1 -1387756.22 0M 36178346.00 16749998.00 L 36074464.07 16749998.00 L 36070290.00 16718293.00 A 315709.31 315709.31 0 0 0 35847061.00 16495064.00 L 35815352.00 16490889.40 L 35815352.00 16387008.00 L 35819725.00 16387008.00 A 416536.95 416536.95 0 0 1 36178346.00 16745629.00 L 36178346.00 16749998.00  zM 36765354.00 16799989.08 m -416566.46 0 a 416566.46 416566.46 0 1 1 833132.93 0a 416566.46 416566.46 0 1 1 -833132.93 0M 35819725.00 17212992.00 L 35815352.00 17212992.00 L 35815352.00 17109110.60 L 35847061.00 17104936.00 A 315709.31 315709.31 0 0 0 36070290.00 16881707.00 L 36074464.60 16849998.00 L 36178346.00 16849998.00 L 36178346.00 16854371.00 A 416536.95 416536.95 0 0 1 35819725.00 17212992.00  zM 36765354.00 17799989.08 m -416566.46 0 a 416566.46 416566.46 0 1 1 833132.93 0a 416566.46 416566.46 0 1 1 -833132.93 0M 36765354.00 18799989.08 m -416566.46 0 a 416566.46 416566.46 0 1 1 833132.93 0a 416566.46 416566.46 0 1 1 -833132.93 0M 35765354.00 18799989.08 m -416566.46 0 a 416566.46 416566.46 0 1 1 833132.93 0a 416566.46 416566.46 0 1 1 -833132.93 0M 36456243.93 19749998.00 L 36352362.00 19749998.00 L 36352362.00 19745629.00 A 416536.95 416536.95 0 0 1 36710983.00 19387008.00 L 36715352.00 19387008.00 L 36715352.00 19490889.93 L 36683647.00 19495064.00 A 315709.31 315709.31 0 0 0 36460418.00 19718293.00 L 36456243.93 19749998.00  zM 36715352.00 20212992.00 L 36710983.00 20212992.00 A 416536.95 416536.95 0 0 1 36352362.00 19854371.00 L 36352362.00 19849998.00 L 36456243.40 19849998.00 L 36460418.00 19881707.00 A 315709.31 315709.31 0 0 0 36683647.00 20104936.00 L 36715352.00 20109110.07 L 36715352.00 20212992.00  zM 36765354.92 19799997.47 m -208737.53 0 a 208737.53 208737.53 0 1 1 417475.06 0a 208737.53 208737.53 0 1 1 -417475.06 0M 37178346.00 19749998.00 L 37074464.07 19749998.00 L 37070290.00 19718293.00 A 315709.31 315709.31 0 0 0 36847061.00 19495064.00 L 36815352.00 19490889.40 L 36815352.00 19387008.00 L 36819725.00 19387008.00 A 416536.95 416536.95 0 0 1 37178346.00 19745629.00 L 37178346.00 19749998.00  zM 36819725.00 20212992.00 L 36815352.00 20212992.00 L 36815352.00 20109110.60 L 36847061.00 20104936.00 A 315709.31 315709.31 0 0 0 37070290.00 19881707.00 L 37074464.60 19849998.00 L 37178346.00 19849998.00 L 37178346.00 19854371.00 A 416536.95 416536.95 0 0 1 36819725.00 20212992.00  zM 35765354.00 20799989.08 m -416566.46 0 a 416566.46 416566.46 0 1 1 833132.93 0a 416566.46 416566.46 0 1 1 -833132.93 0M 36456243.93 21749998.00 L 36352362.00 21749998.00 L 36352362.00 21745629.00 A 416536.95 416536.95 0 0 1 36710983.00 21387008.00 L 36715352.00 21387008.00 L 36715352.00 21490889.93 L 36683647.00 21495064.00 A 315709.31 315709.31 0 0 0 36460418.00 21718293.00 L 36456243.93 21749998.00  zM 36715352.00 22212992.00 L 36710983.00 22212992.00 A 416536.95 416536.95 0 0 1 36352362.00 21854371.00 L 36352362.00 21849998.00 L 36456243.40 21849998.00 L 36460418.00 21881707.00 A 315709.31 315709.31 0 0 0 36683647.00 22104936.00 L 36715352.00 22109110.07 L 36715352.00 22212992.00  zM 36765354.00 20799989.08 m -416566.46 0 a 416566.46 416566.46 0 1 1 833132.93 0a 416566.46 416566.46 0 1 1 -833132.93 0M 37178346.00 21749998.00 L 37074464.07 21749998.00 L 37070290.00 21718293.00 A 315709.31 315709.31 0 0 0 36847061.00 21495064.00 L 36815352.00 21490889.40 L 36815352.00 21387008.00 L 36819725.00 21387008.00 A 416536.95 416536.95 0 0 1 37178346.00 21745629.00 L 37178346.00 21749998.00  zM 36765354.92 21799997.47 m -208737.53 0 a 208737.53 208737.53 0 1 1 417475.06 0a 208737.53 208737.53 0 1 1 -417475.06 0M 36819725.00 22212992.00 L 36815352.00 22212992.00 L 36815352.00 22109110.60 L 36847061.00 22104936.00 A 315709.31 315709.31 0 0 0 37070290.00 21881707.00 L 37074464.60 21849998.00 L 37178346.00 21849998.00 L 37178346.00 21854371.00 A 416536.95 416536.95 0 0 1 36819725.00 22212992.00  zM 36765354.00 22799989.08 m -416566.46 0 a 416566.46 416566.46 0 1 1 833132.93 0a 416566.46 416566.46 0 1 1 -833132.93 0M 36178346.00 23749998.00 L 36074464.07 23749998.00 L 36070290.00 23718293.00 A 315709.31 315709.31 0 0 0 35847061.00 23495064.00 L 35815352.00 23490889.40 L 35815352.00 23387008.00 L 35819725.00 23387008.00 A 416536.95 416536.95 0 0 1 36178346.00 23745629.00 L 36178346.00 23749998.00  zM 35765354.92 23799997.47 m -208737.53 0 a 208737.53 208737.53 0 1 1 417475.06 0a 208737.53 208737.53 0 1 1 -417475.06 0M 35819725.00 24212992.00 L 35815352.00 24212992.00 L 35815352.00 24109110.60 L 35847061.00 24104936.00 A 315709.31 315709.31 0 0 0 36070290.00 23881707.00 L 36074464.60 23849998.00 L 36178346.00 23849998.00 L 36178346.00 23854371.00 A 416536.95 416536.95 0 0 1 35819725.00 24212992.00  zM 36765354.00 23799989.08 m -416566.46 0 a 416566.46 416566.46 0 1 1 833132.93 0a 416566.46 416566.46 0 1 1 -833132.93 0M 33300000.00 28704496.00 L 31400000.00 28704496.00 A 254495.31 254495.31 0 0 1 31400000.00 28195504.00 L 33194584.00 28195504.00 L 33770044.00 27620044.00 L 33852608.00 27564876.00 L 33950000.00 27545504.00 L 35435791.00 27545504.00 A 414091.44 414091.44 0 1 1 35435791.00 28054496.00 L 34055416.00 28054496.00 L 33479956.00 28629956.00 L 33397392.00 28685124.00 L 33300000.00 28704496.00  zM 35765354.00 25799989.08 m -416566.46 0 a 416566.46 416566.46 0 1 1 833132.93 0a 416566.46 416566.46 0 1 1 -833132.93 0M 35765354.00 24799989.08 m -416566.46 0 a 416566.46 416566.46 0 1 1 833132.93 0a 416566.46 416566.46 0 1 1 -833132.93 0M 35765354.00 26799989.08 m -416566.46 0 a 416566.46 416566.46 0 1 1 833132.93 0a 416566.46 416566.46 0 1 1 -833132.93 0M 36715352.00 27212992.00 L 36710983.00 27212992.00 A 416536.95 416536.95 0 0 1 36352362.00 26854371.00 L 36352362.00 26849998.00 L 36456243.40 26849998.00 L 36460418.00 26881707.00 A 315709.31 315709.31 0 0 0 36683647.00 27104936.00 L 36715352.00 27109110.07 L 36715352.00 27212992.00  zM 36456243.93 26749998.00 L 36352362.00 26749998.00 L 36352362.00 26745629.00 A 416536.95 416536.95 0 0 1 36710983.00 26387008.00 L 36715352.00 26387008.00 L 36715352.00 26490889.93 L 36683647.00 26495064.00 A 315709.31 315709.31 0 0 0 36460418.00 26718293.00 L 36456243.93 26749998.00  zM 36765354.00 24799989.08 m -416566.46 0 a 416566.46 416566.46 0 1 1 833132.93 0a 416566.46 416566.46 0 1 1 -833132.93 0M 36765354.00 25799989.08 m -416566.46 0 a 416566.46 416566.46 0 1 1 833132.93 0a 416566.46 416566.46 0 1 1 -833132.93 0M 37178346.00 26749998.00 L 37074464.07 26749998.00 L 37070290.00 26718293.00 A 315709.31 315709.31 0 0 0 36847061.00 26495064.00 L 36815352.00 26490889.40 L 36815352.00 26387008.00 L 36819725.00 26387008.00 A 416536.95 416536.95 0 0 1 37178346.00 26745629.00 L 37178346.00 26749998.00  zM 36765354.92 26799997.47 m -208737.53 0 a 208737.53 208737.53 0 1 1 417475.06 0a 208737.53 208737.53 0 1 1 -417475.06 0M 36819725.00 27212992.00 L 36815352.00 27212992.00 L 36815352.00 27109110.60 L 36847061.00 27104936.00 A 315709.31 315709.31 0 0 0 37070290.00 26881707.00 L 37074464.60 26849998.00 L 37178346.00 26849998.00 L 37178346.00 26854371.00 A 416536.95 416536.95 0 0 1 36819725.00 27212992.00  zM 36765354.00 27799989.08 m -416566.46 0 a 416566.46 416566.46 0 1 1 833132.93 0a 416566.46 416566.46 0 1 1 -833132.93 0M 35765354.00 28799989.08 m -416566.46 0 a 416566.46 416566.46 0 1 1 833132.93 0a 416566.46 416566.46 0 1 1 -833132.93 0M 36456243.93 29749998.00 L 36352362.00 29749998.00 L 36352362.00 29745629.00 A 416536.95 416536.95 0 0 1 36710983.00 29387008.00 L 36715352.00 29387008.00 L 36715352.00 29490889.93 L 36683647.00 29495064.00 A 315709.31 315709.31 0 0 0 36460418.00 29718293.00 L 36456243.93 29749998.00  zM 35765354.00 29799989.08 m -416566.46 0 a 416566.46 416566.46 0 1 1 833132.93 0a 416566.46 416566.46 0 1 1 -833132.93 0M 36765354.00 28799989.08 m -416566.46 0 a 416566.46 416566.46 0 1 1 833132.93 0a 416566.46 416566.46 0 1 1 -833132.93 0M 37178346.00 29749998.00 L 37074464.07 29749998.00 L 37070290.00 29718293.00 A 315709.31 315709.31 0 0 0 36847061.00 29495064.00 L 36815352.00 29490889.40 L 36815352.00 29387008.00 L 36819725.00 29387008.00 A 416536.95 416536.95 0 0 1 37178346.00 29745629.00 L 37178346.00 29749998.00  zM 36765354.92 29799997.47 m -208737.53 0 a 208737.53 208737.53 0 1 1 417475.06 0a 208737.53 208737.53 0 1 1 -417475.06 0M 36715352.00 30212992.00 L 36710983.00 30212992.00 A 416536.95 416536.95 0 0 1 36352362.00 29854371.00 L 36352362.00 29849998.00 L 36456243.40 29849998.00 L 36460418.00 29881707.00 A 315709.31 315709.31 0 0 0 36683647.00 30104936.00 L 36715352.00 30109110.07 L 36715352.00 30212992.00  zM 36819725.00 30212992.00 L 36815352.00 30212992.00 L 36815352.00 30109110.60 L 36847061.00 30104936.00 A 315709.31 315709.31 0 0 0 37070290.00 29881707.00 L 37074464.60 29849998.00 L 37178346.00 29849998.00 L 37178346.00 29854371.00 A 416536.95 416536.95 0 0 1 36819725.00 30212992.00  zM 36765354.00 30799989.08 m -416566.46 0 a 416566.46 416566.46 0 1 1 833132.93 0a 416566.46 416566.46 0 1 1 -833132.93 0M 35765354.00 30799989.08 m -416566.46 0 a 416566.46 416566.46 0 1 1 833132.93 0a 416566.46 416566.46 0 1 1 -833132.93 0M 35456243.93 31749998.00 L 35352362.00 31749998.00 L 35352362.00 31745629.00 A 416536.95 416536.95 0 0 1 35710983.00 31387008.00 L 35715352.00 31387008.00 L 35715352.00 31490889.93 L 35683647.00 31495064.00 A 315709.31 315709.31 0 0 0 35460418.00 31718293.00 L 35456243.93 31749998.00  zM 36178346.00 31749998.00 L 36074464.07 31749998.00 L 36070290.00 31718293.00 A 315709.31 315709.31 0 0 0 35847061.00 31495064.00 L 35815352.00 31490889.40 L 35815352.00 31387008.00 L 35819725.00 31387008.00 A 416536.95 416536.95 0 0 1 36178346.00 31745629.00 L 36178346.00 31749998.00  zM 17100000.00 37684660.21 m -693878.11 0 a 693878.11 693878.11 0 1 1 1387756.22 0a 693878.11 693878.11 0 1 1 -1387756.22 0M 29694881.00 38413788.47 m -664212.97 0 a 664212.97 664212.97 0 1 1 1328425.95 0a 664212.97 664212.97 0 1 1 -1328425.95 0M 29694881.00 36386228.47 m -664212.97 0 a 664212.97 664212.97 0 1 1 1328425.95 0a 664212.97 664212.97 0 1 1 -1328425.95 0M 30708661.00 37400000.58 m -577379.96 0 a 577379.96 577379.96 0 1 1 1154759.92 0a 577379.96 577379.96 0 1 1 -1154759.92 0M 31722441.00 36386228.47 m -664212.97 0 a 664212.97 664212.97 0 1 1 1328425.95 0a 664212.97 664212.97 0 1 1 -1328425.95 0M 31722441.00 38413788.47 m -664212.97 0 a 664212.97 664212.97 0 1 1 1328425.95 0a 664212.97 664212.97 0 1 1 -1328425.95 0M 35715352.00 32212992.00 L 35710983.00 32212992.00 A 416536.95 416536.95 0 0 1 35352362.00 31854371.00 L 35352362.00 31849998.00 L 35456243.40 31849998.00 L 35460418.00 31881707.00 A 315709.31 315709.31 0 0 0 35683647.00 32104936.00 L 35715352.00 32109110.07 L 35715352.00 32212992.00  zM 35765354.92 31799997.47 m -208737.53 0 a 208737.53 208737.53 0 1 1 417475.06 0a 208737.53 208737.53 0 1 1 -417475.06 0M 35765354.00 32799989.08 m -416566.46 0 a 416566.46 416566.46 0 1 1 833132.93 0a 416566.46 416566.46 0 1 1 -833132.93 0M 35765354.00 33799989.08 m -416566.46 0 a 416566.46 416566.46 0 1 1 833132.93 0a 416566.46 416566.46 0 1 1 -833132.93 0M 35765354.00 34799989.08 m -416566.46 0 a 416566.46 416566.46 0 1 1 833132.93 0a 416566.46 416566.46 0 1 1 -833132.93 0M 36178346.00 36212992.00 L 35352362.00 36212992.00 L 35352362.00 35387008.00 L 36178346.00 35387008.00 L 36178346.00 36212992.00  zM 35819725.00 32212992.00 L 35815352.00 32212992.00 L 35815352.00 32109110.60 L 35847061.00 32104936.00 A 315709.31 315709.31 0 0 0 36070290.00 31881707.00 L 36074464.60 31849998.00 L 36178346.00 31849998.00 L 36178346.00 31854371.00 A 416536.95 416536.95 0 0 1 35819725.00 32212992.00  zM 36765354.00 31799989.08 m -416566.46 0 a 416566.46 416566.46 0 1 1 833132.93 0a 416566.46 416566.46 0 1 1 -833132.93 0M 36765354.00 32799989.08 m -416566.46 0 a 416566.46 416566.46 0 1 1 833132.93 0a 416566.46 416566.46 0 1 1 -833132.93 0M 36456243.93 33749998.00 L 36352362.00 33749998.00 L 36352362.00 33745629.00 A 416536.95 416536.95 0 0 1 36710983.00 33387008.00 L 36715352.00 33387008.00 L 36715352.00 33490889.93 L 36683647.00 33495064.00 A 315709.31 315709.31 0 0 0 36460418.00 33718293.00 L 36456243.93 33749998.00  zM 36765354.92 33799997.47 m -208737.53 0 a 208737.53 208737.53 0 1 1 417475.06 0a 208737.53 208737.53 0 1 1 -417475.06 0M 37178346.00 33749998.00 L 37074464.07 33749998.00 L 37070290.00 33718293.00 A 315709.31 315709.31 0 0 0 36847061.00 33495064.00 L 36815352.00 33490889.40 L 36815352.00 33387008.00 L 36819725.00 33387008.00 A 416536.95 416536.95 0 0 1 37178346.00 33745629.00 L 37178346.00 33749998.00  zM 36715352.00 34212992.00 L 36710983.00 34212992.00 A 416536.95 416536.95 0 0 1 36352362.00 33854371.00 L 36352362.00 33849998.00 L 36456243.40 33849998.00 L 36460418.00 33881707.00 A 315709.31 315709.31 0 0 0 36683647.00 34104936.00 L 36715352.00 34109110.07 L 36715352.00 34212992.00  zM 36819725.00 34212992.00 L 36815352.00 34212992.00 L 36815352.00 34109110.60 L 36847061.00 34104936.00 A 315709.31 315709.31 0 0 0 37070290.00 33881707.00 L 37074464.60 33849998.00 L 37178346.00 33849998.00 L 37178346.00 33854371.00 A 416536.95 416536.95 0 0 1 36819725.00 34212992.00  zM 36765354.00 34799989.08 m -416566.46 0 a 416566.46 416566.46 0 1 1 833132.93 0a 416566.46 416566.46 0 1 1 -833132.93 0M 37178346.00 36212992.00 L 36352362.00 36212992.00 L 36352362.00 35387008.00 L 37178346.00 35387008.00 L 37178346.00 36212992.00  zM 36391339.00 37684660.21 m -693878.11 0 a 693878.11 693878.11 0 1 1 1387756.22 0a 693878.11 693878.11 0 1 1 -1387756.22 0"/>
<path id="N" d="M 22846064.00 19453150.00 L 22839948.00 19453150.00 L 22839948.00 19394808.39 L 22855606.00 19384346.00 A 100353.26 100353.26 0 1 0 22713686.00 19384346.00 L 22731708.00 19396387.98 L 22731708.00 19453150.00 L 22727954.00 19453150.00 L 22727954.00 19846850.00 L 22846064.00 19846850.00 L 22846064.00 19453150.00  z"/>
<path id="N" d="M 20483859.00 19453150.00 L 20477743.00 19453150.00 L 20477743.00 19394808.39 L 20493401.00 19384346.00 A 100353.26 100353.26 0 1 0 20351481.00 19384346.00 L 20369503.00 19396387.98 L 20369503.00 19453150.00 L 20365749.00 19453150.00 L 20365749.00 19846850.00 L 20483859.00 19846850.00 L 20483859.00 19453150.00  z"/>
<path id="N" d="M 21664962.00 19453150.00 L 21658845.00 19453150.00 L 21658845.00 19394808.39 L 21674503.00 19384346.00 A 100353.26 100353.26 0 1 0 21532583.00 19384346.00 L 21550605.00 19396387.98 L 21550605.00 19453150.00 L 21546852.00 19453150.00 L 21546852.00 19846850.00 L 21664962.00 19846850.00 L 21664962.00 19453150.00  z"/>
<path id="N" d="M 19302756.00 19453150.00 L 19296640.00 19453150.00 L 19296640.00 19394809.06 L 19312299.00 19384346.00 A 100353.26 100353.26 0 1 0 19170379.00 19384346.00 L 19188400.00 19396387.31 L 19188400.00 19453150.00 L 19184646.00 19453150.00 L 19184646.00 19846850.00 L 19302756.00 19846850.00 L 19302756.00 19453150.00  z"/>
<path id="N" d="M 39253543.00 19374016.00 L 38722047.00 19374016.00 L 38722047.00 21027558.00 L 39253543.00 21027558.00 L 39253543.00 19374016.00  z"/>
<path id="N" d="M 41477953.00 19374016.00 L 40946457.00 19374016.00 L 40946457.00 21027558.00 L 41477953.00 21027558.00 L 41477953.00 19374016.00  z"/>
<path id="N" d="M 35765346.64 29799984.96 m -315709.31 0 a 315709.31 315709.31 0 1 1 631418.63 0a 315709.31 315709.31 0 1 1 -631418.63 0M 35765354.92 29799997.47 m -208737.53 0 a 208737.53 208737.53 0 1 1 417475.06 0a 208737.53 208737.53 0 1 1 -417475.06 0"/>
<path id="N" d="M 36765346.64 16799984.96 m -315709.31 0 a 315709.31 315709.31 0 1 1 631418.63 0a 315709.31 315709.31 0 1 1 -631418.63 0M 36765354.92 16799997.47 m -208737.53 0 a 208737.53 208737.53 0 1 1 417475.06 0a 208737.53 208737.53 0 1 1 -417475.06 0"/>
<path id="N" d="M 35765346.64 24799984.96 m -315709.31 0 a 315709.31 315709.31 0 1 1 631418.63 0a 315709.31 315709.31 0 1 1 -631418.63 0M 35765354.92 24799997.47 m -208737.53 0 a 208737.53 208737.53 0 1 1 417475.06 0a 208737.53 208737.53 0 1 1 -417475.06 0"/>
<path id="N" d="M 36765346.64 28799984.96 m -315709.31 0 a 315709.31 315709.31 0 1 1 631418.63 0a 315709.31 315709.31 0 1 1 -631418.63 0M 36765354.92 28799997.47 m -208737.53 0 a 208737.53 208737.53 0 1 1 417475.06 0a 208737.53 208737.53 0 1 1 -417475.06 0"/>
<path id="N" d="M 36765346.64 22799984.96 m -315709.31 0 a 315709.31 315709.31 0 1 1 631418.63 0a 315709.31 315709.31 0 1 1 -631418.63 0M 36765354.92 22799997.47 m -208737.53 0 a 208737.53 208737.53 0 1 1 417475.06 0a 208737.53 208737.53 0 1 1 -417475.06 0"/>
<path id="N" d="M 35765346.64 33799984.96 m -315709.31 0 a 315709.31 315709.31 0 1 1 631418.63 0a 315709.31 315709.31 0 1 1 -631418.63 0M 35765354.92 33799997.47 m -208737.53 0 a 208737.53 208737.53 0 1 1 417475.06 0a 208737.53 208737.53 0 1 1 -417475.06 0"/>
<path id="N" d="M 36765346.64 32799984.96 m -315709.31 0 a 315709.31 315709.31 0 1 1 631418.63 0a 315709.31 315709.31 0 1 1 -631418.63 0M 36765354.92 32799997.47 m -208737.53 0 a 208737.53 208737.53 0 1 1 417475.06 0a 208737.53 208737.53 0 1 1 -417475.06 0"/>
<path id="N" d="M 36765346.64 34799984.96 m -315709.31 0 a 315709.31 315709.31 0 1 1 631418.63 0a 315709.31 315709.31 0 1 1 -631418.63 0M 36765354.92 34799997.47 m -208737.53 0 a 208737.53 208737.53 0 1 1 417475.06 0a 208737.53 208737.53 0 1 1 -417475.06 0"/>
<path id="N" d="M 37078346.00 35487008.00 L 36452362.00 35487008.00 L 36452362.00 36112992.00 L 37078346.00 36112992.00 L 37078346.00 35487008.00  zM 36765354.92 35799997.47 m -208737.53 0 a 208737.53 208737.53 0 1 1 417475.06 0a 208737.53 208737.53 0 1 1 -417475.06 0"/>
<path id="N" d="M 18909055.00 19453150.00 L 18902939.00 19453150.00 L 18902939.00 19394809.06 L 18918598.00 19384346.00 A 100353.26 100353.26 0 1 0 18776678.00 19384346.00 L 18794699.00 19396387.31 L 18794699.00 19453150.00 L 18790945.00 19453150.00 L 18790945.00 19846850.00 L 18909055.00 19846850.00 L 18909055.00 19453150.00  z"/>
<path id="N" d="M 20877560.00 19453150.00 L 20871444.00 19453150.00 L 20871444.00 19394808.39 L 20887102.00 19384346.00 A 100353.26 100353.26 0 1 0 20745182.00 19384346.00 L 20763204.00 19396387.98 L 20763204.00 19453150.00 L 20759450.00 19453150.00 L 20759450.00 19846850.00 L 20877560.00 19846850.00 L 20877560.00 19453150.00  z"/>
<path id="N" d="M 36765346.64 31799984.96 m -315709.31 0 a 315709.31 315709.31 0 1 1 631418.63 0a 315709.31 315709.31 0 1 1 -631418.63 0M 36765354.92 31799997.47 m -208737.53 0 a 208737.53 208737.53 0 1 1 417475.06 0a 208737.53 208737.53 0 1 1 -417475.06 0"/>
<path id="N" d="M 35765346.64 26799984.96 m -315709.31 0 a 315709.31 315709.31 0 1 1 631418.63 0a 315709.31 315709.31 0 1 1 -631418.63 0M 35765354.92 26799997.47 m -208737.53 0 a 208737.53 208737.53 0 1 1 417475.06 0a 208737.53 208737.53 0 1 1 -417475.06 0"/>
<path id="N" d="M 36765346.64 27799984.96 m -315709.31 0 a 315709.31 315709.31 0 1 1 631418.63 0a 315709.31 315709.31 0 1 1 -631418.63 0M 36765354.92 27799997.47 m -208737.53 0 a 208737.53 208737.53 0 1 1 417475.06 0a 208737.53 208737.53 0 1 1 -417475.06 0"/>
<path id="N" d="M 36765346.64 24799984.96 m -315709.31 0 a 315709.31 315709.31 0 1 1 631418.63 0a 315709.31 315709.31 0 1 1 -631418.63 0M 36765354.92 24799997.47 m -208737.53 0 a 208737.53 208737.53 0 1 1 417475.06 0a 208737.53 208737.53 0 1 1 -417475.06 0"/>
<path id="N" d="M 35765346.64 30799984.96 m -315709.31 0 a 315709.31 315709.31 0 1 1 631418.63 0a 315709.31 315709.31 0 1 1 -631418.63 0M 35765354.92 30799997.47 m -208737.53 0 a 208737.53 208737.53 0 1 1 417475.06 0a 208737.53 208737.53 0 1 1 -417475.06 0"/>
<path id="N" d="M 35765346.64 32799984.96 m -315709.31 0 a 315709.31 315709.31 0 1 1 631418.63 0a 315709.31 315709.31 0 1 1 -631418.63 0M 35765354.92 32799997.47 m -208737.53 0 a 208737.53 208737.53 0 1 1 417475.06 0a 208737.53 208737.53 0 1 1 -417475.06 0"/>
<path id="N" d="M 35765346.64 25799984.96 m -315709.31 0 a 315709.31 315709.31 0 1 1 631418.63 0a 315709.31 315709.31 0 1 1 -631418.63 0M 35765354.92 25799997.47 m -208737.53 0 a 208737.53 208737.53 0 1 1 417475.06 0a 208737.53 208737.53 0 1 1 -417475.06 0"/>
<path id="N" d="M 36765346.64 17799984.96 m -315709.31 0 a 315709.31 315709.31 0 1 1 631418.63 0a 315709.31 315709.31 0 1 1 -631418.63 0M 36765354.92 17799997.47 m -208737.53 0 a 208737.53 208737.53 0 1 1 417475.06 0a 208737.53 208737.53 0 1 1 -417475.06 0"/>
<path id="N" d="M 33407860.00 28557860.00 L 34013183.00 27952537.00 L 35489756.93 27952537.00 L 35491956.00 27957846.00 A 315668.07 315668.07 0 1 0 35491956.00 27642154.00 L 35489756.93 27647463.00 L 33950000.00 27647463.00 L 33891626.00 27659074.00 L 33842140.00 27692140.00 L 33236817.00 28297463.00 L 31400000.00 28297463.00 A 152537.16 152537.16 0 0 0 31400000.00 28602537.00 L 33300000.00 28602537.00 L 33358374.00 28590926.00 L 33407860.00 28557860.00  zM 35765354.92 27799997.47 m -208737.53 0 a 208737.53 208737.53 0 1 1 417475.06 0a 208737.53 208737.53 0 1 1 -417475.06 0"/>
<path id="N" d="M 25998523.00 18244095.00 L 25486713.00 18244095.00 L 25486713.00 18755905.00 L 25998523.00 18755905.00 L 25998523.00 18244095.00  zM 25742616.59 18500001.48 m -160563.52 0 a 160563.52 160563.52 0 1 1 321127.04 0a 160563.52 160563.52 0 1 1 -321127.04 0"/>
<path id="N" d="M 27455905.00 18244095.00 L 26944095.00 18244095.00 L 26944095.00 18755905.00 L 27455905.00 18755905.00 L 27455905.00 18244095.00  zM 27199998.59 18500001.48 m -160563.52 0 a 160563.52 160563.52 0 1 1 321127.04 0a 160563.52 160563.52 0 1 1 -321127.04 0"/>
<path id="N" d="M 36391340.79 14850002.99 m -593404.85 0 a 593404.85 593404.85 0 1 1 1186809.70 0a 593404.85 593404.85 0 1 1 -1186809.70 0M 36391340.69 14849992.57 m -436815.43 0 a 436815.43 436815.43 0 1 1 873630.85 0a 436815.43 436815.43 0 1 1 -873630.85 0"/>
<path id="N" d="M 17100001.79 14850002.99 m -593404.85 0 a 593404.85 593404.85 0 1 1 1186809.70 0a 593404.85 593404.85 0 1 1 -1186809.70 0M 17100001.69 14849992.57 m -436815.43 0 a 436815.43 436815.43 0 1 1 873630.85 0a 436815.43 436815.43 0 1 1 -873630.85 0"/>
<path id="N" d="M 36391340.79 37684648.99 m -593404.85 0 a 593404.85 593404.85 0 1 1 1186809.70 0a 593404.85 593404.85 0 1 1 -1186809.70 0M 36391340.69 37684638.57 m -436815.43 0 a 436815.43 436815.43 0 1 1 873630.85 0a 436815.43 436815.43 0 1 1 -873630.85 0"/>
<path id="N" d="M 17100001.79 37684648.99 m -593404.85 0 a 593404.85 593404.85 0 1 1 1186809.70 0a 593404.85 593404.85 0 1 1 -1186809.70 0M 17100001.69 37684638.57 m -436815.43 0 a 436815.43 436815.43 0 1 1 873630.85 0a 436815.43 436815.43 0 1 1 -873630.85 0"/>
<path id="N" d="M 29694886.13 38413791.28 m -565852.01 0 a 565852.01 565852.01 0 1 1 1131704.03 0a 565852.01 565852.01 0 1 1 -1131704.03 0M 29694880.02 38413784.67 m -377237.33 0 a 377237.33 377237.33 0 1 1 754474.66 0a 377237.33 377237.33 0 1 1 -754474.66 0"/>
<path id="N" d="M 30708665.99 37400009.15 m -476507.85 0 a 476507.85 476507.85 0 1 1 953015.70 0a 476507.85 476507.85 0 1 1 -953015.70 0M 30708663.69 37399991.39 m -317686.61 0 a 317686.61 317686.61 0 1 1 635373.23 0a 317686.61 317686.61 0 1 1 -635373.23 0"/>
<path id="N" d="M 29694886.13 36386231.28 m -565852.01 0 a 565852.01 565852.01 0 1 1 1131704.03 0a 565852.01 565852.01 0 1 1 -1131704.03 0M 29694880.02 36386224.67 m -377237.33 0 a 377237.33 377237.33 0 1 1 754474.66 0a 377237.33 377237.33 0 1 1 -754474.66 0"/>
<path id="N" d="M 31722446.13 36386231.28 m -565852.01 0 a 565852.01 565852.01 0 1 1 1131704.03 0a 565852.01 565852.01 0 1 1 -1131704.03 0M 31722440.02 36386224.67 m -377237.33 0 a 377237.33 377237.33 0 1 1 754474.66 0a 377237.33 377237.33 0 1 1 -754474.66 0"/>
<path id="N" d="M 31722446.13 38413791.28 m -565852.01 0 a 565852.01 565852.01 0 1 1 1131704.03 0a 565852.01 565852.01 0 1 1 -1131704.03 0M 31722440.02 38413784.67 m -377237.33 0 a 377237.33 377237.33 0 1 1 754474.66 0a 377237.33 377237.33 0 1 1 -754474.66 0"/>
<path id="N" d="M 35765346.64 18799984.96 m -315709.31 0 a 315709.31 315709.31 0 1 1 631418.63 0a 315709.31 315709.31 0 1 1 -631418.63 0M 35765354.92 18799997.47 m -208737.53 0 a 208737.53 208737.53 0 1 1 417475.06 0a 208737.53 208737.53 0 1 1 -417475.06 0"/>
<path id="N" d="M 35765346.64 17799984.96 m -315709.31 0 a 315709.31 315709.31 0 1 1 631418.63 0a 315709.31 315709.31 0 1 1 -631418.63 0M 35765354.92 17799997.47 m -208737.53 0 a 208737.53 208737.53 0 1 1 417475.06 0a 208737.53 208737.53 0 1 1 -417475.06 0"/>
<path id="N" d="M 35765346.64 19799984.96 m -315709.31 0 a 315709.31 315709.31 0 1 1 631418.63 0a 315709.31 315709.31 0 1 1 -631418.63 0M 35765354.92 19799997.47 m -208737.53 0 a 208737.53 208737.53 0 1 1 417475.06 0a 208737.53 208737.53 0 1 1 -417475.06 0"/>
<path id="N" d="M 35765346.64 22799984.96 m -315709.31 0 a 315709.31 315709.31 0 1 1 631418.63 0a 315709.31 315709.31 0 1 1 -631418.63 0M 35765354.92 22799997.47 m -208737.53 0 a 208737.53 208737.53 0 1 1 417475.06 0a 208737.53 208737.53 0 1 1 -417475.06 0"/>
<path id="N" d="M 35765346.64 21799984.96 m -315709.31 0 a 315709.31 315709.31 0 1 1 631418.63 0a 315709.31 315709.31 0 1 1 -631418.63 0M 35765354.92 21799997.47 m -208737.53 0 a 208737.53 208737.53 0 1 1 417475.06 0a 208737.53 208737.53 0 1 1 -417475.06 0"/>
<path id="N" d="M 35765346.64 20799984.96 m -315709.31 0 a 315709.31 315709.31 0 1 1 631418.63 0a 315709.31 315709.31 0 1 1 -631418.63 0M 35765354.92 20799997.47 m -208737.53 0 a 208737.53 208737.53 0 1 1 417475.06 0a 208737.53 208737.53 0 1 1 -417475.06 0"/>
<path id="N" d="M 35765346.64 34799984.96 m -315709.31 0 a 315709.31 315709.31 0 1 1 631418.63 0a 315709.31 315709.31 0 1 1 -631418.63 0M 35765354.92 34799997.47 m -208737.53 0 a 208737.53 208737.53 0 1 1 417475.06 0a 208737.53 208737.53 0 1 1 -417475.06 0"/>
<path id="N" d="M 36078346.00 35487008.00 L 35452362.00 35487008.00 L 35452362.00 36112992.00 L 36078346.00 36112992.00 L 36078346.00 35487008.00  zM 35765354.92 35799997.47 m -208737.53 0 a 208737.53 208737.53 0 1 1 417475.06 0a 208737.53 208737.53 0 1 1 -417475.06 0"/>
<path id="N" d="M 16507480.00 20142126.00 L 15857874.00 20142126.00 L 15857874.00 20653936.00 L 16507480.00 20653936.00 L 16507480.00 20142126.00  z"/>
<path id="N" d="M 24204332.00 20142126.00 L 23554726.00 20142126.00 L 23554726.00 20653936.00 L 24204332.00 20653936.00 L 24204332.00 20142126.00  z"/>
<path id="N" d="M 19696457.00 19453150.00 L 19690341.00 19453150.00 L 19690341.00 19394808.39 L 19705999.00 19384346.00 A 100353.26 100353.26 0 1 0 19564079.00 19384346.00 L 19582101.00 19396387.98 L 19582101.00 19453150.00 L 19578347.00 19453150.00 L 19578347.00 19846850.00 L 19696457.00 19846850.00 L 19696457.00 19453150.00  z"/>
<path id="N" d="M 20090158.00 19453150.00 L 20084042.00 19453150.00 L 20084042.00 19394808.39 L 20099700.00 19384346.00 A 100353.26 100353.26 0 1 0 19957780.00 19384346.00 L 19975802.00 19396387.98 L 19975802.00 19453150.00 L 19972048.00 19453150.00 L 19972048.00 19846850.00 L 20090158.00 19846850.00 L 20090158.00 19453150.00  z"/>
<path id="N" d="M 17727953.00 19453150.00 L 17721837.00 19453150.00 L 17721837.00 19394662.39 L 17737495.00 19384200.00 A 100353.26 100353.26 0 1 0 17595575.00 19384200.00 L 17613597.00 19396241.98 L 17613597.00 19453150.00 L 17609843.00 19453150.00 L 17609843.00 19846850.00 L 17727953.00 19846850.00 L 17727953.00 19453150.00  z"/>
<path id="N" d="M 18121654.00 19453150.00 L 18115538.00 19453150.00 L 18115538.00 19394808.39 L 18131196.00 19384346.00 A 100353.26 100353.26 0 1 0 17989276.00 19384346.00 L 18007298.00 19396387.98 L 18007298.00 19453150.00 L 18003544.00 19453150.00 L 18003544.00 19846850.00 L 18121654.00 19846850.00 L 18121654.00 19453150.00  z"/>
<path id="N" d="M 36765346.64 20799984.96 m -315709.31 0 a 315709.31 315709.31 0 1 1 631418.63 0a 315709.31 315709.31 0 1 1 -631418.63 0M 36765354.92 20799997.47 m -208737.53 0 a 208737.53 208737.53 0 1 1 417475.06 0a 208737.53 208737.53 0 1 1 -417475.06 0"/>
</g>
</svg>
