**ABCDEFGHIJKLMNOPQRSTUVWXYZabcdefghijklmnopqrstuvwxyz**************************
**PARASOLID !"#$%&'()*+,-./:;<=>?@[\]^_`{|}~0123456789**************************
**PART1;
MC=AMD64;
MC_MODEL=AMD64 Family 23 Model 1 Stepping 2, AuthenticAMD;
MC_ID=unknown;
OS=Windows_NT;
OS_RELEASE=unknown;
FRU=CAD Exchanger 3.23.0 (cadexchanger.com);
APPL=unknown;
SITE=unknown;
USER=unknown;
FORMAT=text;
GUISE=transmit;
KEY=CAPPR55-250-1120X630X1220_CMP-001-00030-7;
FILE=CAPPR55-250-1120X630X1220_CMP-001-00030-7.x_t;
DATE=Thu Feb  1 19:24:10 2024;
**PART2;
SCH=SCH_1200000_12103;
USFLD_SIZE=0;
**PART3;
**END_OF_HEADER*****************************************************************
T51 : TRANSMIT FILE created by modeller version 120000017 SCH_1200000_121030 12
 1 144 0 2 0 0 0 0 1000.0 1.0e-08 0 0 0 1 0 1 1 11 13 19 17 8 18 16 70 2 0 1 0 0
 4 1 20 0 3 3 1 T74 20 3 1 0 4 0 0 0 0 0 0 0 0 0 0 0 0 0 0 0 0 0 0 0 81 1 4 7 5
 12 0 0 38 0 7 80 1 5 0 6 8001 0 0 0 0 3 5 0 0 0 FFFFTFTFFFFFFF2 79 15 6 SDL/TYS
A_COLOUR83 3 7 0.501960813999176 0.501960813999176 0.501960813999176 19 8 1 0 1
 10 0 9 V13 9 2 0 1 0 0 0 0 8 12 19 10 3 0 1 0 8 11 S13 11 4 0 1 0 12 0 0 10 0 1
4 12 5 4 1.0e-08 36 0 14 11 13 +0 0 36 0 9 51 13 6 0 12 37 0 0 +-0.00124987808 1
.219200000003061e-07 0.0 0.0 0.0 -1.0 2.75e-04 1.0 -2.449293598294707e-16 0.0 15
 14 8 0 15 12 0 17 15 0 14 21 31 16 20 18 0 20 +18 16 9 0 15 0 22 17 ?1 29 17 10
 0 16 23 0 -9.748780800000001e-04 1.219200000002388e-07 -0.004 16 18 11 0 ?15 0
 24 19 0 0 1 31 19 12 0 18 25 0 0 +-0.00124987808 1.219200000003061e-07 -0.004 0
.0 0.0 1.0 1.0 -2.449293598294707e-16 0.0 2.75e-04 17 20 0 40 20 20 16 15 18 0 3
1 -17 21 0 14 32 15 22 31 24 0 35 -18 22 13 0 21 16 47 23 ?1 29 23 14 0 22 48 17
 -9.748780800000001e-04 1.219200000002388e-07 0.0 16 24 15 0 ?31 18 33 25 0 0 1
 134 25 16 0 24 34 19 0 +26 30 136 26 1 2 3 2 1 FFF1 27 28 29 45 6 27 -9.7487808
00000001e-04 1.219200000003061e-07 0.0 -9.748780800000001e-04 1.219200000003061e
-07 -0.004 127 2 28 2 2 128 2 29 0.0 4.0 135 30 1 0 17 31 0 14 15 32 16 21 24 0
 0 +17 32 0 14 31 21 22 35 33 0 0 -16 33 17 0 ?35 24 49 34 0 0 1 31 34 18 0 33 5
0 25 0 +-0.00124987808 1.219200000003061e-07 0.0 0.0 0.0 1.0 1.0 -2.449293598294
707e-16 0.0 2.75e-04 17 35 0 227 35 35 22 32 33 0 32 +14 36 19 38 1.0e-08 41 12
 40 11 37 -0 0 41 12 9 50 37 20 0 36 42 13 0 +-0.00124987808 1.219200000003061e-
07 -0.004 0.0 0.0 1.0 1.0 -2.449293598294707e-16 0.0 81 1 38 21 5 36 0 0 43 4 39
 83 3 39 0.501960813999176 0.501960813999176 0.501960813999176 15 40 22 0 20 36
 0 14 41 23 43 1.0e-08 67 36 45 11 42 +0 0 67 36 9 51 42 24 0 41 68 37 0 +0.0012
5012192 1.219199999996938e-07 0.0 0.0 0.0 -1.0 2.75e-04 -1.0 2.449293598294707e-
16 0.0 81 1 43 25 5 41 0 0 69 38 44 83 3 44 0.501960813999176 0.501960813999176
 0.501960813999176 15 45 26 0 46 41 0 17 46 0 45 52 62 47 51 49 0 51 +18 47 27 0
 46 22 53 48 ?1 29 48 28 0 47 54 23 9.751219200000001e-04 1.219199999997612e-07
 -0.004 16 49 29 0 ?46 33 55 50 0 0 1 31 50 30 0 49 56 34 0 +0.00125012192 1.219
199999996938e-07 -0.004 0.0 0.0 1.0 -1.0 2.449293598294707e-16 0.0 2.75e-04 17 5
1 0 71 51 51 47 46 49 0 62 -17 52 0 45 63 46 53 62 55 0 66 -18 53 31 0 52 47 78
 54 ?1 29 54 32 0 53 79 48 9.751219200000001e-04 1.219199999997612e-07 0.0 16 55
 33 0 ?62 49 64 56 0 0 1 134 56 34 0 55 65 50 0 +57 61 136 57 1 2 3 2 1 FFF1 58
 59 60 45 6 58 9.7512192e-04 1.219199999996938e-07 0.0 9.7512192e-04 1.219199999
996938e-07 -0.004 127 2 59 2 2 128 2 60 0.0 4.0 135 61 1 0 17 62 0 45 46 63 47 5
2 55 0 0 +17 63 0 45 62 52 53 66 64 0 0 -16 64 35 0 ?66 55 80 65 0 0 1 31 65 36
 0 64 81 56 0 +0.00125012192 1.219199999996938e-07 0.0 0.0 0.0 1.0 -1.0 2.449293
598294707e-16 0.0 2.75e-04 17 66 0 228 66 66 53 63 64 0 63 +14 67 37 69 1.0e-08
 72 41 71 11 68 +0 0 72 41 9 50 68 38 0 67 73 42 0 +0.00125012192 1.219199999996
938e-07 -0.004 0.0 0.0 -1.0 -1.0 2.449293598294707e-16 0.0 81 1 69 39 5 67 0 0 7
4 43 70 83 3 70 0.501960813999176 0.501960813999176 0.501960813999176 15 71 40 0
 51 67 0 14 72 41 74 1.0e-08 101 67 76 11 73 +0 0 101 67 9 51 73 42 0 72 102 68
 0 +1.2192e-07 1.2192e-07 0.0 0.0 0.0 1.0 0.00315 -1.0 2.449293598294707e-16 0.0
 81 1 74 43 5 72 0 0 103 69 75 83 3 75 0.211764708161354 0.211764708161354 0.211
764708161354 15 76 44 0 77 72 0 17 77 0 76 85 97 78 82 80 0 90 +18 78 45 0 77 53
 83 79 ?1 29 79 46 0 78 84 54 0.003042743176025 8.155701969514112e-04 0.0122 16
 80 47 0 ?77 64 88 81 0 0 1 31 81 48 0 80 89 65 0 +1.2192e-07 1.2192e-07 0.0122
 0.0 0.0 -1.0 -1.0 2.449293598294707e-16 0.0 0.00315 17 82 0 105 106 118 83 77 8
0 0 97 -18 83 49 0 82 78 86 84 ?1 29 84 50 0 83 87 79 0.003042743176025 -8.15326
3569512237e-04 0.0122 17 85 0 76 91 77 86 90 88 0 96 -18 86 51 0 145 83 92 87 ?1
 29 87 52 0 86 93 84 0.003042743176025 8.155701969514112e-04 0.0 16 88 53 0 ?90
 80 94 89 0 0 1 30 89 54 0 88 95 81 0 +0.003042743176025 8.155701969512212e-04 0
.0061 0.0 0.0 1.0 17 90 0 126 121 145 78 85 88 0 118 +17 91 0 76 97 85 92 96 94
 0 0 -18 92 55 0 208 86 107 93 ?1 29 93 56 0 92 108 87 0.003042743176025 -8.1532
63569512237e-04 0.0 16 94 57 0 ?96 88 98 95 0 0 1 31 95 58 0 94 99 89 0 +1.2192e
-07 1.2192e-07 0.0 0.0 0.0 -1.0 -1.0 2.449293598294707e-16 0.0 0.00315 17 96 0 2
29 148 208 86 91 94 0 0 +17 97 0 76 77 91 83 100 98 0 111 -16 98 59 0 ?100 94 10
9 99 0 0 1 30 99 60 0 98 110 95 0 +0.003042743176025 -8.153263569512227e-04 0.00
61 0.0 0.0 -1.0 17 100 0 204 205 111 92 97 98 0 91 +14 101 61 103 1.0e-08 122 72
 105 11 102 +0 0 122 72 9 50 102 62 0 101 123 73 0 +7.66368093601971e-05 1.21920
0000024402e-07 0.0122 0.0 0.0 1.0 1.0 -2.449293598294707e-16 0.0 81 1 103 63 5 1
01 0 0 124 74 104 83 3 104 0.211764708161354 0.211764708161354 0.211764708161354
 15 105 64 0 106 101 0 17 106 0 105 112 82 107 111 109 0 117 -18 107 65 0 174 92
 113 108 ?1 29 108 66 0 107 114 93 0.002738481050423 -7.337815292561007e-04 0.01
22 16 109 67 0 ?111 98 115 110 0 0 1 30 110 68 0 109 116 99 0 +0.001483475419128
 -3.974293863211184e-04 0.0122 0.965911509849318 -0.258872468873403 0.0 17 111 0
 204 100 174 83 106 109 0 0 +17 112 0 105 118 106 113 117 115 0 121 -18 113 69 0
 132 107 128 114 ?1 29 114 70 0 113 129 108 0.002738481050423 7.340253692562763e
-04 0.0122 16 115 71 0 ?117 109 119 116 0 0 1 31 116 72 0 115 120 110 0 +1.2192e
-07 1.2192e-07 0.0122 0.0 0.0 1.0 -1.0 2.449293598294707e-16 0.0 0.002835 17 117
 0 153 154 132 107 112 115 0 0 +17 118 0 105 82 112 78 121 119 0 0 -16 119 73 0
 ?121 115 130 120 0 0 1 30 120 74 0 119 131 116 0 +0.001483475419128 3.976732263
211177e-04 0.0122 -0.965911509849318 -0.258872468873403 0.0 17 121 0 126 127 90
 113 118 119 0 0 +14 122 75 124 1.0e-08 149 101 126 11 123 +0 0 149 101 9 50 123
 76 0 122 150 102 0 +0.002895441670773 7.760921454480275e-04 0.0 -0.258872468873
403 0.965911509849318 0.0 0.965911509849318 0.258872468873403 0.0 81 1 124 77 5
 122 0 0 151 103 125 83 3 125 0.752941191196442 0.752941191196442 0.752941191196
442 15 126 78 0 90 122 0 17 127 0 126 133 121 128 132 130 0 138 +18 128 79 0 127
 113 134 129 ?1 29 129 80 0 128 135 114 0.002738481050423 7.340253692560993e-04
 0.01221 16 130 81 0 ?127 119 136 131 0 0 1 30 131 82 0 130 137 120 0 +0.0027384
81050423 7.340253692560993e-04 0.0 0.0 0.0 1.0 17 132 0 153 117 175 113 127 130
 0 112 -17 133 0 126 139 127 134 138 136 0 144 +18 134 83 0 133 128 140 135 ?1 2
9 135 84 0 134 141 129 0.003052402291124 8.181589216399562e-04 0.01221 16 136 85
 0 ?133 130 142 137 0 0 1 30 137 86 0 136 143 131 0 +0.003052402291124 8.1815892
16399553e-04 0.01221 0.965911509849318 0.258872468873403 0.0 17 138 0 217 178 18
9 128 133 136 0 175 -17 139 0 126 145 133 140 144 142 0 148 -18 140 87 0 139 134
 155 141 ?1 29 141 88 0 140 156 135 0.003052402291124 8.181589216399562e-04 0.0
 16 142 89 0 ?144 136 146 143 0 0 1 30 143 90 0 142 147 137 0 +0.003052402291124
 8.181589216399562e-04 0.0 0.0 0.0 1.0 17 144 0 183 184 196 134 139 142 0 189 +1
7 145 0 126 90 139 86 148 146 0 85 +16 146 91 0 ?145 142 157 147 0 0 1 30 147 92
 0 146 158 143 0 +0.003052402291124 8.181589216399553e-04 0.0 -0.965911509849318
 -0.258872468873403 0.0 17 148 0 229 199 96 140 145 146 0 196 -14 149 93 151 1.0
e-08 179 122 153 11 150 -0 0 179 122 9 51 150 94 0 149 180 123 0 +1.2192e-07 1.2
192e-07 0.0 0.0 0.0 1.0 0.002835 -1.0 2.449293598294707e-16 0.0 81 1 151 95 5 14
9 0 0 181 124 152 83 3 152 0.752941191196442 0.752941191196442 0.752941191196442
 15 153 96 0 117 149 0 17 154 0 153 165 117 155 164 157 0 165 -18 155 97 0 154 1
40 170 156 ?1 29 156 98 0 155 171 141 0.002738481050423 -7.337815292561007e-04 0
.0121 16 157 99 0 ?164 146 166 158 0 0 1 134 158 100 0 157 167 147 0 +159 163 13
6 159 1 2 3 2 1 FFF1 160 161 162 45 6 160 0.002738481050423 -7.337815292561018e-
04 0.0121 0.002738481050423 -7.337815292561018e-04 0.0122 127 2 161 2 2 128 2 16
2 12.1 12.199999999999999 135 163 1 0 17 164 0 153 169 165 107 154 157 0 106 +17
 165 0 153 164 154 155 168 166 0 168 +16 166 101 0 ?165 157 172 167 0 0 1 31 167
 102 0 166 173 158 0 +1.2192e-07 1.2192e-07 0.0121 0.0 0.0 -1.0 1.0 -2.449293598
294707e-16 0.0 0.002835 17 168 0 222 168 168 155 165 166 0 0 -17 169 0 153 175 1
64 170 174 172 0 209 +18 170 103 0 178 155 185 171 ?1 29 171 104 0 170 186 156 0
.002738481050423 -7.337815292561007e-04 0.01221 16 172 105 0 ?169 166 176 173 0
 0 1 30 173 106 0 172 177 167 0 +0.002738481050423 -7.337815292561007e-04 0.0 0.
0 0.0 1.0 17 174 0 204 111 209 107 169 172 0 164 -17 175 0 153 132 169 128 178 1
76 0 0 +16 176 107 0 ?175 172 187 177 0 0 1 31 177 108 0 176 188 173 0 +1.2192e-
07 1.2192e-07 0.01221 0.0 0.0 1.0 -1.0 2.449293598294707e-16 0.0 0.002835 17 178
 0 217 212 138 170 175 176 0 169 -14 179 109 181 1.0e-08 200 149 183 11 180 +0 0
 200 149 9 51 180 110 0 179 201 150 0 +1.2192e-07 1.2192e-07 0.0 0.0 0.0 1.0 0.0
0316 -1.0 2.449293598294707e-16 0.0 81 1 181 111 5 179 0 0 202 151 182 83 3 182
 0.752941191196442 0.752941191196442 0.752941191196442 15 183 112 0 184 179 0 17
 184 0 183 190 144 185 189 187 0 195 +18 185 113 0 184 170 191 186 ?1 29 186 114
 0 185 192 171 0.003052402291124 -8.179150816399568e-04 0.01221 16 187 115 0 ?18
4 176 193 188 0 0 1 31 188 116 0 187 194 177 0 +1.2192e-07 1.2192e-07 0.01221 0.
0 0.0 -1.0 -1.0 2.449293598294707e-16 0.0 0.00316 17 189 0 217 138 212 134 184 1
87 0 0 -17 190 0 183 196 184 191 195 193 0 199 -18 191 117 0 190 185 0 192 ?1 29
 192 118 0 191 0 186 0.003052402291124 -8.179150816399568e-04 0.0 16 193 119 0 ?
195 187 197 194 0 0 1 30 194 120 0 193 198 188 0 +0.003052402291124 -8.179150816
399568e-04 0.0 0.0 0.0 1.0 17 195 0 204 209 205 185 190 193 0 212 +17 196 0 183
 144 190 140 199 197 0 0 -16 197 121 0 ?199 193 206 198 0 0 1 31 198 122 0 197 2
07 194 0 +1.2192e-07 1.2192e-07 0.0 0.0 0.0 -1.0 -1.0 2.449293598294707e-16 0.0
 0.00316 17 199 0 229 208 148 191 196 197 0 205 +14 200 123 202 1.0e-08 213 179
 204 11 201 +0 0 213 179 9 50 201 124 0 200 214 180 0 +0.002895441670773 -7.7584
83054480287e-04 0.0 -0.258872468873403 -0.965911509849318 0.0 -0.965911509849318
 0.258872468873403 0.0 81 1 202 125 5 200 0 0 215 181 203 83 3 203 0.75294119119
6442 0.752941191196442 0.752941191196442 15 204 126 0 100 200 0 17 205 0 204 195
 100 191 208 206 0 0 +16 206 127 0 ?205 197 210 207 0 0 1 30 207 128 0 206 211 1
98 0 +0.002738481050423 -7.337815292561007e-04 0.0 0.965911509849318 -0.25887246
8873403 0.0 17 208 0 229 96 199 92 205 206 0 100 -17 209 0 204 174 195 170 212 2
10 0 0 +16 210 129 0 ?209 206 0 211 0 0 1 30 211 130 0 210 0 207 0 +0.0027384810
50423 -7.337815292561007e-04 0.01221 -0.965911509849318 0.258872468873403 0.0 17
 212 0 217 189 178 185 209 210 0 0 -14 213 131 215 1.0e-08 218 200 217 11 214 +0
 0 218 200 9 50 214 132 0 213 219 201 0 +0.00295337710868 1.219199999996195e-07
 0.01221 0.0 0.0 1.0 1.0 -2.449293598294707e-16 0.0 81 1 215 133 5 213 0 0 220 2
02 216 83 3 216 0.752941191196442 0.752941191196442 0.752941191196442 15 217 134
 0 178 213 0 14 218 135 220 1.0e-08 223 213 222 11 219 +0 0 223 213 9 50 219 136
 0 218 224 214 0 +1.2192e-07 1.2192e-07 0.0121 0.0 0.0 1.0 1.0 -2.44929359829470
7e-16 0.0 81 1 220 137 5 218 0 0 225 215 221 83 3 221 0.752941191196442 0.752941
191196442 0.752941191196442 15 222 138 0 168 218 0 14 223 139 225 1.0e-08 0 218
 227 11 224 -0 0 0 218 9 50 224 140 0 223 0 219 0 +1.2192e-07 1.2192e-07 0.0 0.0
 0.0 1.0 1.0 -2.449293598294707e-16 0.0 81 1 225 141 5 223 0 0 0 220 226 83 3 22
6 0.752941191196442 0.752941191196442 0.752941191196442 15 227 142 0 35 223 228
 15 228 143 0 66 223 229 15 229 144 0 208 223 0 1 0 
