<svg width="80.00000002mm" height="39.99999874mm" viewBox="0 0 31496063 15748031"  version="1.1" xmlns="http://www.w3.org/2000/svg" xmlns:xlink="http://www.w3.org/1999/xlink">
<desc>
Origin 0 0 Bound 0 1 31496063 15748031
</desc>
<g fill-rule="evenodd" fill="rgb(255, 0, 0)" stroke="black" stroke-width="1" transform="translate(0, 15748031) scale(1, -1) translate(0, -1)">
<path id="N" d="M 8248028.67 7374009.71 m -311728.46 0 a 311728.46 311728.46 0 1 1 623456.93 0a 311728.46 311728.46 0 1 1 -623456.93 0M 8248030.24 7374015.93 m -204721.07 0 a 204721.07 204721.07 0 1 1 409442.13 0a 204721.07 204721.07 0 1 1 -409442.13 0"/>
<path id="N" d="M 25590549.85 2842518.85 m -230814.01 0 a 230814.01 230814.01 0 1 1 461628.02 0a 230814.01 230814.01 0 1 1 -461628.02 0M 25590550.13 2842521.07 m -150528.93 0 a 150528.93 150528.93 0 1 1 301057.86 0a 150528.93 150528.93 0 1 1 -301057.86 0"/>
<path id="N" d="M 30190551.00 7611707.00 L 30177962.15 7614211.15 L 28452537.00 5888786.00 L 28452537.00 4878825.00 L 28440926.00 4820452.00 L 28407860.00 4770965.00 L 25895570.00 2258675.00 L 25846084.00 2225609.00 L 25787710.00 2213998.00 L 24033465.00 2213998.00 L 23975091.00 2225609.00 L 23925605.00 2258675.00 L 23036817.00 3147463.00 L 18212789.00 3147463.00 L 16599723.40 1534397.40 L 16611722.00 1450394.00 L 16601100.00 1369714.00 A 311728.46 311728.46 0 1 0 16384003.40 1750117.40 L 18041746.00 3407860.00 L 18091232.00 3440926.00 L 18149606.00 3452537.00 L 23100000.00 3452537.00 L 23158374.00 3440926.00 L 23207860.00 3407860.00 L 24096648.00 2519072.00 L 25724527.00 2519072.00 L 28147463.00 4942008.00 L 28147463.00 5951969.00 L 28159074.00 6010343.00 L 28192140.00 6059829.00 L 29962242.15 7829931.15 L 29959738.00 7842520.00 A 230814.94 230814.94 0 1 0 30190551.00 7611707.00  zM 16299999.24 1450393.93 m -204721.07 0 a 204721.07 204721.07 0 1 1 409442.13 0a 204721.07 204721.07 0 1 1 -409442.13 0M 30190550.13 7842521.07 m -150528.93 0 a 150528.93 150528.93 0 1 1 301057.86 0a 150528.93 150528.93 0 1 1 -301057.86 0"/>
<path id="N" d="M 8248028.67 9374009.71 m -311728.46 0 a 311728.46 311728.46 0 1 1 623456.93 0a 311728.46 311728.46 0 1 1 -623456.93 0M 8248030.24 9374015.93 m -204721.07 0 a 204721.07 204721.07 0 1 1 409442.13 0a 204721.07 204721.07 0 1 1 -409442.13 0"/>
<path id="N" d="M 5999998.85 4842518.85 m -230814.01 0 a 230814.01 230814.01 0 1 1 461628.02 0a 230814.01 230814.01 0 1 1 -461628.02 0M 5999999.13 4842521.07 m -150528.93 0 a 150528.93 150528.93 0 1 1 301057.86 0a 150528.93 150528.93 0 1 1 -301057.86 0"/>
<path id="N" d="M 12109055.00 1390945.00 L 11490945.00 1390945.00 L 11490945.00 2009055.00 L 12109055.00 2009055.00 L 12109055.00 1390945.00  zM 11799999.24 1699999.93 m -204721.07 0 a 204721.07 204721.07 0 1 1 409442.13 0a 204721.07 204721.07 0 1 1 -409442.13 0"/>
<path id="N" d="M 23248028.67 6599993.71 m -311728.46 0 a 311728.46 311728.46 0 1 1 623456.93 0a 311728.46 311728.46 0 1 1 -623456.93 0M 23248030.24 6599999.93 m -204721.07 0 a 204721.07 204721.07 0 1 1 409442.13 0a 204721.07 204721.07 0 1 1 -409442.13 0"/>
<path id="N" d="M 30353760.00 5679311.00 L 30313710.00 5652550.38 L 30313710.00 5486286.00 L 30302099.00 5427912.00 L 30269033.00 5378426.00 L 29867103.00 4976496.00 L 29867103.00 4914566.00 L 29855492.00 4856192.00 L 29822426.00 4806706.00 L 26007860.00 992140.00 L 25958374.00 959074.00 L 25900000.00 947463.00 L 22700001.00 947463.00 L 22641628.00 959074.00 L 22592141.00 992140.00 L 21636818.00 1947463.00 L 19012789.00 1947463.00 L 18599723.40 1534397.40 L 18611722.00 1450394.00 L 18601100.00 1369714.00 A 311728.46 311728.46 0 1 0 18384003.40 1750117.40 L 18841746.00 2207860.00 L 18891232.00 2240926.00 L 18949606.00 2252537.00 L 21700001.00 2252537.00 L 21758375.00 2240926.00 L 21807861.00 2207860.00 L 22763184.00 1252537.00 L 25836817.00 1252537.00 L 29562029.00 4977749.00 L 29562029.00 5039679.00 L 29573640.00 5098053.00 L 29606706.00 5147539.00 L 30008636.00 5549469.00 L 30008636.00 5707306.44 L 29977308.00 5754192.00 A 230806.50 230806.50 0 1 0 30353760.00 5679311.00  zM 18299999.24 1450393.93 m -204721.07 0 a 204721.07 204721.07 0 1 1 409442.13 0a 204721.07 204721.07 0 1 1 -409442.13 0M 30190550.13 5842521.07 m -150528.93 0 a 150528.93 150528.93 0 1 1 301057.86 0a 150528.93 150528.93 0 1 1 -301057.86 0"/>
<path id="N" d="M 31496063.00 0.00 L 100000.00 0.00 L 100000.00 15700000.00 L 31496063.00 15700000.00 L 31496063.00 0.00  zM 1400000.00 2842518.58 m -329195.65 0 a 329195.65 329195.65 0 1 1 658391.29 0a 329195.65 329195.65 0 1 1 -658391.29 0M 1400000.00 3842518.58 m -329195.65 0 a 329195.65 329195.65 0 1 1 658391.29 0a 329195.65 329195.65 0 1 1 -658391.29 0M 1179132.88 4792520.00 L 1075506.20 4792520.00 L 1095864.00 4716543.00 A 329197.42 329197.42 0 0 1 1274023.00 4538384.00 L 1350000.00 4518026.20 L 1350000.00 4621652.88 L 1311672.00 4629277.00 L 1236791.00 4679311.00 L 1186757.00 4754192.00 L 1179132.88 4792520.00  zM 1724493.80 4792520.00 L 1620867.12 4792520.00 L 1613243.00 4754192.00 L 1563209.00 4679311.00 L 1488328.00 4629277.00 L 1450000.00 4621652.88 L 1450000.00 4518026.20 L 1525977.00 4538384.00 A 329197.42 329197.42 0 0 1 1704136.00 4716543.00 L 1724493.80 4792520.00  zM 1350000.00 5167013.80 L 1274023.00 5146656.00 A 329197.42 329197.42 0 0 1 1095864.00 4968497.00 L 1075506.20 4892520.00 L 1179132.88 4892520.00 L 1186757.00 4930848.00 L 1236791.00 5005729.00 L 1311672.00 5055763.00 L 1350000.00 5063387.12 L 1350000.00 5167013.80  zM 1399999.13 4842521.07 m -150528.93 0 a 150528.93 150528.93 0 1 1 301057.86 0a 150528.93 150528.93 0 1 1 -301057.86 0M 1450000.00 5167013.80 L 1450000.00 5063387.12 L 1488328.00 5055763.00 L 1563209.00 5005729.00 L 1613243.00 4930848.00 L 1620867.12 4892520.00 L 1724493.80 4892520.00 L 1704136.00 4968497.00 A 329197.42 329197.42 0 0 1 1525977.00 5146656.00 L 1450000.00 5167013.80  zM 1199599.00 6581353.00 L 1247061.00 6553950.62 L 1247061.00 6131089.38 L 1199599.00 6103687.00 A 329197.42 329197.42 0 1 1 1600401.00 6103687.00 L 1552939.00 6131089.38 L 1552939.00 6553950.62 L 1600401.00 6581353.00 A 329197.42 329197.42 0 1 1 1199599.00 6581353.00  zM 1179132.88 7792520.00 L 1075506.20 7792520.00 L 1095864.00 7716543.00 A 329197.42 329197.42 0 0 1 1274023.00 7538384.00 L 1350000.00 7518026.20 L 1350000.00 7621652.88 L 1311672.00 7629277.00 L 1236791.00 7679311.00 L 1186757.00 7754192.00 L 1179132.88 7792520.00  zM 1350000.00 8167013.80 L 1274023.00 8146656.00 A 329197.42 329197.42 0 0 1 1095864.00 7968497.00 L 1075506.20 7892520.00 L 1179132.88 7892520.00 L 1186757.00 7930848.00 L 1236791.00 8005729.00 L 1311672.00 8055763.00 L 1350000.00 8063387.12 L 1350000.00 8167013.80  zM 1399999.13 7842521.07 m -150528.93 0 a 150528.93 150528.93 0 1 1 301057.86 0a 150528.93 150528.93 0 1 1 -301057.86 0M 1724493.80 7792520.00 L 1620867.12 7792520.00 L 1613243.00 7754192.00 L 1563209.00 7679311.00 L 1488328.00 7629277.00 L 1450000.00 7621652.88 L 1450000.00 7518026.20 L 1525977.00 7538384.00 A 329197.42 329197.42 0 0 1 1704136.00 7716543.00 L 1724493.80 7792520.00  zM 1450000.00 8167013.80 L 1450000.00 8063387.12 L 1488328.00 8055763.00 L 1563209.00 8005729.00 L 1613243.00 7930848.00 L 1620867.12 7892520.00 L 1724493.80 7892520.00 L 1704136.00 7968497.00 A 329197.42 329197.42 0 0 1 1525977.00 8146656.00 L 1450000.00 8167013.80  zM 1179132.88 8792520.00 L 1075506.20 8792520.00 L 1095864.00 8716543.00 A 329197.42 329197.42 0 0 1 1274023.00 8538384.00 L 1350000.00 8518026.20 L 1350000.00 8621652.88 L 1311672.00 8629277.00 L 1236791.00 8679311.00 L 1186757.00 8754192.00 L 1179132.88 8792520.00  zM 1724493.80 8792520.00 L 1620867.12 8792520.00 L 1613243.00 8754192.00 L 1563209.00 8679311.00 L 1488328.00 8629277.00 L 1450000.00 8621652.88 L 1450000.00 8518026.20 L 1525977.00 8538384.00 A 329197.42 329197.42 0 0 1 1704136.00 8716543.00 L 1724493.80 8792520.00  zM 1350000.00 9167013.80 L 1274023.00 9146656.00 A 329197.42 329197.42 0 0 1 1095864.00 8968497.00 L 1075506.20 8892520.00 L 1179132.88 8892520.00 L 1186757.00 8930848.00 L 1236791.00 9005729.00 L 1311672.00 9055763.00 L 1350000.00 9063387.12 L 1350000.00 9167013.80  zM 1399999.13 8842521.07 m -150528.93 0 a 150528.93 150528.93 0 1 1 301057.86 0a 150528.93 150528.93 0 1 1 -301057.86 0M 1450000.00 9167013.80 L 1450000.00 9063387.12 L 1488328.00 9055763.00 L 1563209.00 9005729.00 L 1613243.00 8930848.00 L 1620867.12 8892520.00 L 1724493.80 8892520.00 L 1704136.00 8968497.00 A 329197.42 329197.42 0 0 1 1525977.00 9146656.00 L 1450000.00 9167013.80  zM 1755905.00 14073108.00 L 1044095.00 14073108.00 L 1044095.00 13361298.00 L 1755905.00 13361298.00 L 1755905.00 14073108.00  zM 1148469.59 14651455.00 L 1044937.43 14651455.00 L 1068349.00 14564081.00 L 1115205.00 14482924.00 L 1181469.00 14416660.00 L 1262626.00 14369804.00 L 1350000.00 14346392.42 L 1350000.00 14449924.59 L 1333195.00 14452137.00 A 258108.20 258108.20 0 0 0 1150682.00 14634650.00 L 1148469.59 14651455.00  zM 1755062.58 14651455.00 L 1651530.41 14651455.00 L 1649318.00 14634650.00 A 258122.37 258122.37 0 0 0 1466805.00 14452137.00 L 1450000.00 14449924.59 L 1450000.00 14346392.43 L 1537374.00 14369804.00 L 1618531.00 14416660.00 L 1684795.00 14482924.00 L 1731651.00 14564081.00 L 1755062.58 14651455.00  zM 4555905.00 14080982.00 L 3844095.00 14080982.00 L 3844095.00 13369172.00 L 4555905.00 13369172.00 L 4555905.00 14080982.00  zM 1350000.00 15056517.57 L 1262626.00 15033106.00 L 1181469.00 14986250.00 L 1115205.00 14919986.00 L 1068349.00 14838829.00 L 1044937.42 14751455.00 L 1148469.59 14751455.00 L 1150682.00 14768260.00 A 258122.37 258122.37 0 0 0 1333195.00 14950773.00 L 1350000.00 14952985.41 L 1350000.00 15056517.57  zM 1399998.59 14701456.48 m -160563.52 0 a 160563.52 160563.52 0 1 1 321127.04 0a 160563.52 160563.52 0 1 1 -321127.04 0M 1450000.00 15056517.58 L 1450000.00 14952985.41 L 1466805.00 14950773.00 A 258108.20 258108.20 0 0 0 1649318.00 14768260.00 L 1651530.41 14751455.00 L 1755062.57 14751455.00 L 1731651.00 14838829.00 L 1684795.00 14919986.00 L 1618531.00 14986250.00 L 1537374.00 15033106.00 L 1450000.00 15056517.58  zM 4150000.00 15064391.57 L 4062626.00 15040980.00 L 3981469.00 14994124.00 L 3915205.00 14927860.00 L 3868349.00 14846703.00 L 3844937.42 14759329.00 L 3948469.59 14759329.00 L 3950682.00 14776134.00 A 258122.37 258122.37 0 0 0 4133195.00 14958647.00 L 4150000.00 14960859.41 L 4150000.00 15064391.57  zM 3948469.59 14659329.00 L 3844937.43 14659329.00 L 3868349.00 14571955.00 L 3915205.00 14490798.00 L 3981469.00 14424534.00 L 4062626.00 14377678.00 L 4150000.00 14354266.42 L 4150000.00 14457798.59 L 4133195.00 14460011.00 A 258108.20 258108.20 0 0 0 3950682.00 14642524.00 L 3948469.59 14659329.00  zM 4199998.59 14709330.48 m -160563.52 0 a 160563.52 160563.52 0 1 1 321127.04 0a 160563.52 160563.52 0 1 1 -321127.04 0M 4250000.00 15064391.58 L 4250000.00 14960859.41 L 4266805.00 14958647.00 A 258108.20 258108.20 0 0 0 4449318.00 14776134.00 L 4451530.41 14759329.00 L 4555062.57 14759329.00 L 4531651.00 14846703.00 L 4484795.00 14927860.00 L 4418531.00 14994124.00 L 4337374.00 15040980.00 L 4250000.00 15064391.58  zM 5779132.88 8792520.00 L 5675506.20 8792520.00 L 5695864.00 8716543.00 A 329197.42 329197.42 0 0 1 5874023.00 8538384.00 L 5950000.00 8518026.20 L 5950000.00 8621652.88 L 5911672.00 8629277.00 L 5836791.00 8679311.00 L 5786757.00 8754192.00 L 5779132.88 8792520.00  zM 6324493.80 8792520.00 L 6220867.12 8792520.00 L 6213243.00 8754192.00 L 6163209.00 8679311.00 L 6088328.00 8629277.00 L 6050000.00 8621652.88 L 6050000.00 8518026.20 L 6125977.00 8538384.00 A 329197.42 329197.42 0 0 1 6304136.00 8716543.00 L 6324493.80 8792520.00  zM 5950000.00 9167013.80 L 5874023.00 9146656.00 A 329197.42 329197.42 0 0 1 5695864.00 8968497.00 L 5675506.20 8892520.00 L 5779132.88 8892520.00 L 5786757.00 8930848.00 L 5836791.00 9005729.00 L 5911672.00 9055763.00 L 5950000.00 9063387.12 L 5950000.00 9167013.80  zM 5999999.13 8842521.07 m -150528.93 0 a 150528.93 150528.93 0 1 1 301057.86 0a 150528.93 150528.93 0 1 1 -301057.86 0M 6050000.00 9167013.80 L 6050000.00 9063387.12 L 6088328.00 9055763.00 L 6163209.00 9005729.00 L 6213243.00 8930848.00 L 6220867.12 8892520.00 L 6324493.80 8892520.00 L 6304136.00 8968497.00 A 329197.42 329197.42 0 0 1 6125977.00 9146656.00 L 6050000.00 9167013.80  zM 6326378.00 10168898.00 L 5673622.00 10168898.00 L 5673622.00 9516142.00 L 6326378.00 9516142.00 L 6326378.00 10168898.00  zM 4555062.58 14659329.00 L 4451530.41 14659329.00 L 4449318.00 14642524.00 A 258122.37 258122.37 0 0 0 4266805.00 14460011.00 L 4250000.00 14457798.59 L 4250000.00 14354266.43 L 4337374.00 14377678.00 L 4418531.00 14424534.00 L 4484795.00 14490798.00 L 4531651.00 14571955.00 L 4555062.58 14659329.00  zM 6850000.00 15064391.57 L 6762626.00 15040980.00 L 6681469.00 14994124.00 L 6615205.00 14927860.00 L 6568349.00 14846703.00 L 6544937.42 14759329.00 L 6648469.59 14759329.00 L 6650682.00 14776134.00 A 258122.37 258122.37 0 0 0 6833195.00 14958647.00 L 6850000.00 14960859.41 L 6850000.00 15064391.57  zM 6648469.59 14659329.00 L 6544937.43 14659329.00 L 6568349.00 14571955.00 L 6615205.00 14490798.00 L 6681469.00 14424534.00 L 6762626.00 14377678.00 L 6850000.00 14354266.42 L 6850000.00 14457798.59 L 6833195.00 14460011.00 A 258108.20 258108.20 0 0 0 6650682.00 14642524.00 L 6648469.59 14659329.00  zM 6899998.59 14709330.48 m -160563.52 0 a 160563.52 160563.52 0 1 1 321127.04 0a 160563.52 160563.52 0 1 1 -321127.04 0M 7255905.00 14080982.00 L 6544095.00 14080982.00 L 6544095.00 13369172.00 L 7255905.00 13369172.00 L 7255905.00 14080982.00  zM 7255062.58 14659329.00 L 7151530.41 14659329.00 L 7149318.00 14642524.00 A 258122.37 258122.37 0 0 0 6966805.00 14460011.00 L 6950000.00 14457798.59 L 6950000.00 14354266.43 L 7037374.00 14377678.00 L 7118531.00 14424534.00 L 7184795.00 14490798.00 L 7231651.00 14571955.00 L 7255062.58 14659329.00  zM 6950000.00 15064391.58 L 6950000.00 14960859.41 L 6966805.00 14958647.00 A 258108.20 258108.20 0 0 0 7149318.00 14776134.00 L 7151530.41 14759329.00 L 7255062.57 14759329.00 L 7231651.00 14846703.00 L 7184795.00 14927860.00 L 7118531.00 14994124.00 L 7037374.00 15040980.00 L 6950000.00 15064391.58  zM 8248031.00 7374011.92 m -412588.75 0 a 412588.75 412588.75 0 1 1 825177.51 0a 412588.75 412588.75 0 1 1 -825177.51 0M 8248031.00 8374011.92 m -412588.75 0 a 412588.75 412588.75 0 1 1 825177.51 0a 412588.75 412588.75 0 1 1 -825177.51 0M 8248031.00 9374011.92 m -412588.75 0 a 412588.75 412588.75 0 1 1 825177.51 0a 412588.75 412588.75 0 1 1 -825177.51 0M 8248031.00 10374011.92 m -412588.75 0 a 412588.75 412588.75 0 1 1 825177.51 0a 412588.75 412588.75 0 1 1 -825177.51 0M 7942891.80 11324015.99 L 7838976.00 11324015.98 L 7866852.00 11216127.00 L 7920705.00 11122850.00 L 7996865.00 11046690.00 L 8090142.00 10992837.00 L 8198031.02 10964961.00 L 8198031.01 11068876.79 L 8167351.00 11072916.00 A 311728.46 311728.46 0 0 0 7946931.00 11293336.00 L 7942891.80 11324015.99  zM 8248030.24 11374015.93 m -204721.07 0 a 204721.07 204721.07 0 1 1 409442.13 0a 204721.07 204721.07 0 1 1 -409442.13 0M 8198030.98 11783071.00 L 8090142.00 11755195.00 L 7996865.00 11701342.00 L 7920705.00 11625182.00 L 7866852.00 11531905.00 L 7838976.00 11424015.98 L 7942891.79 11424015.99 L 7946931.00 11454696.00 A 311728.46 311728.46 0 0 0 8167351.00 11675116.00 L 8198030.99 11679155.20 L 8198030.98 11783071.00  zM 8657086.00 11324016.02 L 8553170.21 11324016.01 L 8549131.00 11293336.00 A 311728.46 311728.46 0 0 0 8328711.00 11072916.00 L 8298031.01 11068876.80 L 8298031.02 10964961.00 L 8405920.00 10992837.00 L 8499197.00 11046690.00 A 412579.95 412579.95 0 0 1 8657086.00 11320163.00 L 8657086.00 11324016.02  zM 5957032.00 7516142.00 L 5966466.00 7516142.00 L 6911383.00 6571225.00 L 6911383.00 4485061.00 L 6930755.00 4387669.00 L 6985923.00 4305105.00 L 8122425.00 3168603.00 L 8204989.00 3113435.00 L 8249926.50 3104496.13 L 8245001.79 3054496.00 L 7805416.00 3054496.00 L 6854496.00 4005416.00 L 6854496.00 6242520.00 L 6835124.00 6339912.00 L 6779956.00 6422476.00 L 6326378.00 6876054.00 L 6326378.00 6885488.00 A 329189.62 329189.62 0 1 1 5957032.00 6516142.00 L 5966466.00 6516142.00 L 6345504.00 6137104.00 L 6345504.00 5996846.13 L 6295503.68 5983448.51 L 6261167.00 6042921.00 A 329197.42 329197.42 0 0 1 5673622.00 5885488.00 L 5673622.00 5873152.21 L 5120044.00 5319575.00 L 5064876.00 5237011.00 L 5045504.00 5139619.00 L 5045504.00 2869376.00 L 5064876.00 2771984.00 L 5120044.00 2689420.00 L 5730758.00 2078706.00 L 5813322.00 2023538.00 L 5910714.00 2004166.00 L 11390945.00 2004166.00 L 11390945.00 1290945.00 L 12209055.00 1290945.00 L 12209055.00 1865704.25 L 12255249.40 1884838.60 L 12390945.00 1749143.00 L 12390945.00 1646147.00 A 412586.33 412586.33 0 1 1 13181179.00 1857889.00 L 13139776.94 1929600.14 L 13179787.11 1960300.89 L 13390945.00 1749143.00 L 13390945.00 1646147.00 A 412586.33 412586.33 0 1 1 13750857.00 2109055.00 L 12879956.00 2979956.00 L 12797392.00 3035124.00 L 12752452.18 3044062.87 L 12757376.64 3094063.00 L 13597402.00 3094063.00 L 13845007.57 2846457.43 L 13824296.72 2796457.00 L 13751055.00 2796457.00 A 250882.77 250882.77 0 1 1 14046063.00 2501449.00 L 14046063.00 2574690.72 L 14096063.43 2595401.57 L 14545504.00 2145961.00 L 14545504.00 2023996.00 L 14472674.00 1951166.00 A 412586.33 412586.33 0 1 1 15054496.00 2023996.00 L 15054496.00 2251377.00 L 15035124.00 2348769.00 L 14979956.00 2431333.00 L 13882774.00 3528515.00 L 13800210.00 3583683.00 L 13702818.00 3603055.00 L 8407797.00 3603055.00 L 8092085.40 3918766.60 L 8111219.75 3964961.00 L 8657086.00 3964961.00 L 8657086.00 4783071.00 L 7838976.00 4783071.00 L 7838976.00 4237204.75 L 7792781.60 4218070.40 L 7420375.00 4590477.00 L 7420375.00 6676641.00 L 7401003.00 6774033.00 L 7345835.00 6856597.00 L 6326378.00 7876054.00 L 6326378.00 7885488.00 A 329189.62 329189.62 0 1 1 5957032.00 7516142.00  zM 8298030.98 11783071.00 L 8298030.99 11679155.21 L 8328711.00 11675116.00 A 311728.46 311728.46 0 0 0 8549131.00 11454696.00 L 8553170.20 11424016.01 L 8657086.00 11424016.02 L 8629210.00 11531905.00 L 8575357.00 11625182.00 L 8499197.00 11701342.00 L 8405920.00 11755195.00 L 8298030.98 11783071.00  zM 12519049.54 12449999.97 L 12415355.00 12449999.96 L 12415355.00 12442778.00 A 438394.74 438394.74 0 0 1 12792778.00 12065355.00 L 12800000.04 12065355.00 L 12800000.03 12169049.53 L 12762640.00 12173968.00 A 337548.83 337548.83 0 0 0 12523968.00 12412640.00 L 12519049.54 12449999.97  zM 12849996.50 12500009.68 m -240838.32 0 a 240838.32 240838.32 0 1 1 481676.63 0a 240838.32 240838.32 0 1 1 -481676.63 0M 13284645.00 12450000.04 L 13180950.47 12450000.03 L 13176032.00 12412640.00 A 337548.83 337548.83 0 0 0 12937360.00 12173968.00 L 12900000.03 12169049.54 L 12900000.04 12065355.00 L 12907222.00 12065355.00 A 438394.74 438394.74 0 0 1 13284645.00 12442778.00 L 13284645.00 12450000.04  zM 21479527.00 15095275.00 L 20688977.00 15095275.00 L 20688977.00 14304725.00 L 21119615.00 14304725.00 L 22993535.00 12430805.00 L 22993535.00 12009055.00 L 22838976.00 12009055.00 L 22838976.00 11460430.68 L 22792781.60 11441296.33 L 20252939.00 13981138.02 L 20252939.00 14331874.47 A 397872.77 397872.77 0 1 1 19731551.90 14547839.90 L 18321297.00 13137585.00 L 5109848.00 13137585.00 L 5051321.00 13125943.00 L 5001704.00 13092790.00 L 1904373.00 9995459.00 L 1726378.00 9995459.00 L 1726378.00 10168898.00 L 1073622.00 10168898.00 L 1073622.00 9516142.00 L 1726378.00 9516142.00 L 1726378.00 9689581.00 L 1967722.00 9689581.00 L 2026249.00 9701223.00 L 2075866.00 9734376.00 L 2125911.79 9784421.79 L 2181680.05 9769478.67 L 2195864.00 9716543.00 A 329197.42 329197.42 0 0 1 2625977.00 9538384.00 L 2629728.61 9540550.01 L 2666331.36 9503947.27 L 2645864.00 9468497.00 A 329195.65 329195.65 0 1 1 3254136.00 9468497.00 L 3233668.64 9503947.27 L 3270271.39 9540550.01 L 3274023.00 9538384.00 A 329195.65 329195.65 0 1 1 3095864.00 9716543.00 L 3116331.36 9681092.73 L 3079728.61 9644489.99 L 3075977.00 9646656.00 A 329195.65 329195.65 0 0 1 2824023.00 9646656.00 L 2820271.39 9644489.99 L 2783668.64 9681092.73 L 2804136.00 9716543.00 A 329195.65 329195.65 0 0 1 2625977.00 10146656.00 L 2573041.33 10160839.95 L 2558098.21 10216608.21 L 5173197.00 12831707.00 L 12501696.25 12831707.00 L 12520830.60 12785512.60 L 12502197.00 12766879.00 L 12444975.00 12667767.00 L 12415355.00 12557222.00 L 12415355.00 12549999.96 L 12519049.53 12549999.97 L 12523968.00 12587360.00 A 337548.83 337548.83 0 0 0 13176032.00 12587360.00 L 13180950.46 12550000.03 L 13284645.00 12550000.04 L 13284645.00 12557222.00 L 13255025.00 12667767.00 L 13197803.00 12766879.00 L 13179169.40 12785512.60 L 13198303.75 12831707.00 L 13915355.00 12831707.00 L 13915355.00 12065355.00 L 14784645.00 12065355.00 L 14784645.00 12831707.00 L 18384646.00 12831707.00 L 18443173.00 12843349.00 L 18492790.00 12876502.00 L 19900866.60 14284578.60 L 19947061.00 14265444.25 L 19947061.00 13917789.00 L 19958703.00 13859262.00 L 19991856.00 13809645.00 L 22768699.00 11032801.00 L 22818316.00 10999648.00 L 22876844.00 10988006.00 L 23001965.49 10988006.00 L 23015362.93 10938005.68 L 22996865.00 10927326.00 A 412579.95 412579.95 0 1 1 23499197.00 10927326.00 L 23480699.07 10938005.68 L 23494096.51 10988006.00 L 24228777.00 10988006.00 L 25264173.00 9952610.00 L 25264173.00 9516142.00 L 25916929.00 9516142.00 L 25916929.00 10168898.00 L 25480461.00 10168898.00 L 24400270.00 11249089.00 L 24350653.00 11282242.00 L 24292126.00 11293884.00 L 23657086.00 11293884.00 L 23657086.00 12009055.00 L 23502527.00 12009055.00 L 23502527.00 12536221.00 L 23483155.00 12633613.00 L 23427987.00 12716177.00 L 21479527.00 14664637.00 L 21479527.00 15095275.00  zM 25264173.00 6799552.00 L 25278357.45 6746614.45 L 24825627.00 6293884.00 L 23585735.75 6293884.00 L 23566601.40 6340078.40 L 23575357.00 6348834.00 A 412586.33 412586.33 0 1 1 22996864.50 6272674.50 L 22997255.21 6214713.21 L 22935481.00 6152939.00 L 10206693.00 6152939.00 L 10206693.00 6277165.00 L 9809596.55 6277165.00 L 9604601.00 6482160.00 L 9554984.00 6515313.00 L 9496457.00 6526955.00 L 8630536.33 6526955.00 L 8629210.00 6531905.00 A 412579.95 412579.95 0 1 1 8629210.00 6216127.00 L 8630536.33 6221077.00 L 9433107.88 6221077.00 L 9593307.00 6060877.45 L 9593307.00 5526955.00 L 8630536.33 5526955.00 L 8629210.00 5531905.00 A 412579.95 412579.95 0 1 1 8629210.00 5216127.00 L 8630536.33 5221077.00 L 9593307.00 5221077.00 L 9593307.00 5171654.00 L 10206693.00 5171654.00 L 10206693.00 5847061.00 L 22868334.60 5847061.00 L 22893334.97 5803759.28 L 22866852.00 5757889.00 A 412588.75 412588.75 0 1 1 23499197.00 5927326.00 L 23480699.07 5938005.68 L 23494096.51 5988006.00 L 24888976.00 5988006.00 L 24947503.00 5999648.00 L 24997120.00 6032801.00 L 25391417.60 6427098.60 L 25437612.00 6407964.25 L 25437612.00 6131089.38 L 25390150.00 6103687.00 A 329197.42 329197.42 0 1 1 25790952.00 6103687.00 L 25743490.00 6131089.38 L 25743490.00 6553950.62 L 25790952.00 6581353.00 A 329197.42 329197.42 0 1 1 25264173.00 6799552.00  zM 17300000.00 599998.92 m -250884.72 0 a 250884.72 250884.72 0 1 1 501769.45 0a 250884.72 250884.72 0 1 1 -501769.45 0M 22942891.67 4550001.00 L 22838976.00 4550001.00 L 22866852.00 4442111.00 L 22920705.00 4348834.00 L 22996865.00 4272674.00 L 23090142.00 4218821.00 L 23198032.00 4190945.00 L 23198032.00 4294860.66 L 23167351.00 4298900.00 A 311728.46 311728.46 0 0 0 22946931.00 4519320.00 L 22942891.67 4550001.00  zM 23198032.00 5009055.00 L 23090142.00 4981179.00 L 22996865.00 4927326.00 L 22920705.00 4851166.00 L 22866852.00 4757889.00 L 22838976.00 4650001.00 L 22942891.93 4650001.00 L 22946931.00 4680680.00 A 311728.46 311728.46 0 0 0 23167351.00 4901100.00 L 23198032.00 4905139.33 L 23198032.00 5009055.00  zM 29864173.00 7885488.00 L 29864173.00 7876054.00 L 28120044.00 6131925.00 L 28064876.00 6049361.00 L 28045504.00 5951969.00 L 28045504.00 4984241.00 L 25964056.38 2902793.38 L 25908288.12 2917736.50 L 25894687.00 2968497.00 A 329197.42 329197.42 0 1 1 25286415.00 2716543.00 L 25312691.25 2671031.50 L 25283823.54 2621031.00 L 24138881.00 2621031.00 L 23279956.00 3479956.00 L 23197392.00 3535124.00 L 23100000.00 3554496.00 L 18149606.00 3554496.00 L 18052214.00 3535124.00 L 17969650.00 3479956.00 L 16349143.00 1859449.00 L 16246147.00 1859449.00 A 412586.33 412586.33 0 1 1 16709055.00 1499537.00 L 16920212.89 1710694.89 L 16960223.06 1679994.14 L 16918821.00 1608283.00 A 412588.75 412588.75 0 1 1 17709055.00 1499537.00 L 17920212.89 1710694.89 L 17960223.06 1679994.14 L 17918821.00 1608283.00 A 412588.75 412588.75 0 1 1 18709055.00 1499537.00 L 18844750.60 1635232.60 L 18890945.00 1616098.25 L 18890945.00 1041339.00 L 19709055.00 1041339.00 L 19709055.00 1195898.00 L 20844190.00 1195898.00 L 21720044.00 320044.00 L 21802608.00 264876.00 L 21900000.00 245504.00 L 26100000.00 245504.00 L 26197392.00 264876.00 L 26279956.00 320044.00 L 29814172.57 3854260.57 L 29864173.00 3833549.72 L 29864173.00 3799552.00 A 329189.62 329189.62 0 1 1 30233519.00 4168898.00 L 30199521.28 4168898.00 L 30178810.43 4218898.43 L 30341129.00 4381217.00 L 30396297.00 4463781.00 L 30415669.00 4561173.00 L 30415669.00 4606070.00 L 30451718.00 4642119.00 A 329189.62 329189.62 0 0 1 30316528.00 5146656.00 L 30265767.50 5160257.12 L 30250824.38 5216025.38 L 30341129.00 5306330.00 L 30396297.00 5388894.00 L 30415669.00 5486286.00 L 30415669.00 5606070.00 L 30451718.00 5642119.00 A 329189.62 329189.62 0 1 1 29886415.00 5716543.00 L 29906677.00 5681448.42 L 29906677.00 5591702.00 L 29534610.00 5219635.00 L 29479442.00 5137071.00 L 29460070.00 5039679.00 L 29460070.00 5019982.00 L 29196881.83 4756793.83 L 29150801.16 4781424.33 L 29154496.00 4800000.00 L 29154496.00 5446553.00 L 30224085.00 6516142.00 L 30233519.00 6516142.00 A 329189.62 329189.62 0 1 1 29864173.00 6885488.00 L 29864173.00 6876054.00 L 28720044.00 5731925.00 L 28664876.00 5649361.00 L 28645504.00 5551969.00 L 28645504.00 4905416.00 L 28597296.62 4857208.62 L 28577669.71 4867123.69 L 28554496.00 4885119.23 L 28554496.00 5846553.00 L 30224085.00 7516142.00 L 30233519.00 7516142.00 A 329189.62 329189.62 0 1 1 29864173.00 7885488.00  zM 23248030.24 4599999.93 m -204721.07 0 a 204721.07 204721.07 0 1 1 409442.13 0a 204721.07 204721.07 0 1 1 -409442.13 0M 23298032.00 5009055.00 L 23298032.00 4905139.07 L 23328711.00 4901100.00 A 311728.46 311728.46 0 0 0 23549131.00 4680680.00 L 23553170.07 4650001.00 L 23657086.00 4650001.00 L 23629210.00 4757889.00 L 23575357.00 4851166.00 L 23499197.00 4927326.00 L 23405920.00 4981179.00 L 23298032.00 5009055.00  zM 23248031.00 7599995.92 m -412588.75 0 a 412588.75 412588.75 0 1 1 825177.51 0a 412588.75 412588.75 0 1 1 -825177.51 0M 23657086.00 4550001.00 L 23553170.34 4550001.00 L 23549131.00 4519320.00 A 311728.46 311728.46 0 0 0 23328711.00 4298900.00 L 23298032.00 4294860.93 L 23298032.00 4190945.00 L 23405920.00 4218821.00 L 23499197.00 4272674.00 A 412579.95 412579.95 0 0 1 23657086.00 4546147.00 L 23657086.00 4550001.00  zM 25369683.69 4792521.00 L 25266056.94 4792521.00 L 25286415.00 4716543.00 A 329197.42 329197.42 0 0 1 25464574.00 4538384.00 L 25540552.00 4518025.93 L 25540552.00 4621652.68 L 25502223.00 4629277.00 L 25427342.00 4679311.00 L 25377308.00 4754192.00 L 25369683.69 4792521.00  zM 25590551.00 3842518.58 m -329195.65 0 a 329195.65 329195.65 0 1 1 658391.29 0a 329195.65 329195.65 0 1 1 -658391.29 0M 25590550.13 4842521.07 m -150528.93 0 a 150528.93 150528.93 0 1 1 301057.86 0a 150528.93 150528.93 0 1 1 -301057.86 0M 25540552.00 5167014.06 L 25464574.00 5146656.00 A 329197.42 329197.42 0 0 1 25286415.00 4968497.00 L 25266057.47 4892521.00 L 25369684.08 4892521.00 L 25377308.00 4930848.00 L 25427342.00 5005729.00 L 25502223.00 5055763.00 L 25540552.00 5063387.31 L 25540552.00 5167014.06  zM 25369683.69 7792521.00 L 25266056.94 7792521.00 L 25286415.00 7716543.00 A 329197.42 329197.42 0 0 1 25464574.00 7538384.00 L 25540552.00 7518025.93 L 25540552.00 7621652.68 L 25502223.00 7629277.00 L 25427342.00 7679311.00 L 25377308.00 7754192.00 L 25369683.69 7792521.00  zM 25590550.13 7842521.07 m -150528.93 0 a 150528.93 150528.93 0 1 1 301057.86 0a 150528.93 150528.93 0 1 1 -301057.86 0M 23248031.00 8599995.92 m -412588.75 0 a 412588.75 412588.75 0 1 1 825177.51 0a 412588.75 412588.75 0 1 1 -825177.51 0M 23248031.00 9599995.92 m -412588.75 0 a 412588.75 412588.75 0 1 1 825177.51 0a 412588.75 412588.75 0 1 1 -825177.51 0M 18824507.60 14649999.97 L 18720473.00 14649999.97 A 394989.98 394989.98 0 0 1 19065748.03 14304725.00 L 19065748.03 14408759.60 L 19038666.00 14412325.00 A 297829.90 297829.90 0 0 0 18828073.00 14622918.00 L 18824507.60 14649999.97  zM 19511023.00 14650000.03 L 19406988.40 14650000.03 L 19403423.00 14622918.00 A 297829.90 297829.90 0 0 0 19192830.00 14412325.00 L 19165748.03 14408759.60 L 19165748.03 14304725.00 A 394989.98 394989.98 0 0 1 19511023.00 14647961.00 L 19511023.00 14650000.03  zM 25540552.00 8167014.06 L 25464574.00 8146656.00 A 329197.42 329197.42 0 0 1 25286415.00 7968497.00 L 25266057.47 7892521.00 L 25369684.08 7892521.00 L 25377308.00 7930848.00 L 25427342.00 8005729.00 L 25502223.00 8055763.00 L 25540552.00 8063387.31 L 25540552.00 8167014.06  zM 24955905.00 14071653.00 L 24244095.00 14071653.00 L 24244095.00 13359843.00 L 24955905.00 13359843.00 L 24955905.00 14071653.00  zM 24348469.59 14650000.00 L 24244937.43 14650000.00 L 24268349.00 14562626.00 L 24315205.00 14481469.00 L 24381469.00 14415205.00 L 24462626.00 14368349.00 L 24550000.00 14344937.42 L 24550000.00 14448469.59 L 24533195.00 14450682.00 A 258122.37 258122.37 0 0 0 24350682.00 14633195.00 L 24348469.59 14650000.00  zM 19065747.97 15095275.00 A 394989.98 394989.98 0 0 1 18720473.00 14749999.97 L 18824507.60 14749999.97 L 18828073.00 14777082.00 A 297829.90 297829.90 0 0 0 19038666.00 14987675.00 L 19065747.97 14991240.40 L 19065747.97 15095275.00  zM 19115748.36 14700000.47 m -200706.53 0 a 200706.53 200706.53 0 1 1 401413.05 0a 200706.53 200706.53 0 1 1 -401413.05 0M 19165747.97 15095275.00 L 19165747.97 14991240.40 L 19192830.00 14987675.00 A 297829.90 297829.90 0 0 0 19403423.00 14777082.00 L 19406988.40 14750000.03 L 19511023.00 14750000.03 A 394989.98 394989.98 0 0 1 19165747.97 15095275.00  zM 24550000.00 15055062.57 L 24462626.00 15031651.00 L 24381469.00 14984795.00 L 24315205.00 14918531.00 L 24268349.00 14837374.00 L 24244937.42 14750000.00 L 24348469.59 14750000.00 L 24350682.00 14766805.00 A 258122.37 258122.37 0 0 0 24533195.00 14949318.00 L 24550000.00 14951530.41 L 24550000.00 15055062.57  zM 24599998.59 14700001.48 m -160563.52 0 a 160563.52 160563.52 0 1 1 321127.04 0a 160563.52 160563.52 0 1 1 -321127.04 0M 24955062.58 14650000.00 L 24851530.41 14650000.00 L 24849318.00 14633195.00 A 258122.37 258122.37 0 0 0 24666805.00 14450682.00 L 24650000.00 14448469.59 L 24650000.00 14344937.43 L 24737374.00 14368349.00 L 24818531.00 14415205.00 L 24884795.00 14481469.00 L 24931651.00 14562626.00 L 24955062.58 14650000.00  zM 24650000.00 15055062.58 L 24650000.00 14951530.41 L 24666805.00 14949318.00 A 258122.37 258122.37 0 0 0 24849318.00 14766805.00 L 24851530.41 14750000.00 L 24955062.57 14750000.00 L 24931651.00 14837374.00 L 24884795.00 14918531.00 L 24818531.00 14984795.00 L 24737374.00 15031651.00 L 24650000.00 15055062.58  zM 29969683.69 2792521.00 L 29866056.94 2792521.00 L 29886415.00 2716543.00 A 329197.42 329197.42 0 0 1 30064574.00 2538384.00 L 30140552.00 2518025.93 L 30140552.00 2621652.68 L 30102223.00 2629277.00 L 30027342.00 2679311.00 L 29977308.00 2754192.00 L 29969683.69 2792521.00  zM 30190550.13 2842521.07 m -150528.93 0 a 150528.93 150528.93 0 1 1 301057.86 0a 150528.93 150528.93 0 1 1 -301057.86 0M 30515045.07 2792521.00 L 30411418.32 2792521.00 L 30403794.00 2754192.00 L 30353760.00 2679311.00 L 30278879.00 2629277.00 L 30240552.00 2621653.08 L 30240552.00 2518026.47 L 30316528.00 2538384.00 A 329197.42 329197.42 0 0 1 30494687.00 2716543.00 L 30515045.07 2792521.00  zM 30240552.00 3167013.53 L 30240552.00 3063386.92 L 30278879.00 3055763.00 L 30353760.00 3005729.00 L 30403794.00 2930848.00 L 30411417.92 2892521.00 L 30515044.53 2892521.00 L 30494687.00 2968497.00 A 329197.42 329197.42 0 0 1 30316528.00 3146656.00 L 30240552.00 3167013.53  zM 25915045.07 4792521.00 L 25811418.32 4792521.00 L 25803794.00 4754192.00 L 25753760.00 4679311.00 L 25678879.00 4629277.00 L 25640552.00 4621653.08 L 25640552.00 4518026.47 L 25716528.00 4538384.00 A 329197.42 329197.42 0 0 1 25894687.00 4716543.00 L 25915045.07 4792521.00  zM 30140552.00 3167014.06 L 30064574.00 3146656.00 A 329197.42 329197.42 0 0 1 29886415.00 2968497.00 L 29866057.47 2892521.00 L 29969684.08 2892521.00 L 29977308.00 2930848.00 L 30027342.00 3005729.00 L 30102223.00 3055763.00 L 30140552.00 3063387.31 L 30140552.00 3167014.06  zM 25640552.00 5167013.53 L 25640552.00 5063386.92 L 25678879.00 5055763.00 L 25753760.00 5005729.00 L 25803794.00 4930848.00 L 25811417.92 4892521.00 L 25915044.53 4892521.00 L 25894687.00 4968497.00 A 329197.42 329197.42 0 0 1 25716528.00 5146656.00 L 25640552.00 5167013.53  zM 25915045.07 7792521.00 L 25811418.32 7792521.00 L 25803794.00 7754192.00 L 25753760.00 7679311.00 L 25678879.00 7629277.00 L 25640552.00 7621653.08 L 25640552.00 7518026.47 L 25716528.00 7538384.00 A 329197.42 329197.42 0 0 1 25894687.00 7716543.00 L 25915045.07 7792521.00  zM 25640552.00 8167013.53 L 25640552.00 8063386.92 L 25678879.00 8055763.00 L 25753760.00 8005729.00 L 25803794.00 7930848.00 L 25811417.92 7892521.00 L 25915044.53 7892521.00 L 25894687.00 7968497.00 A 329197.42 329197.42 0 0 1 25716528.00 8146656.00 L 25640552.00 8167013.53  zM 25590551.00 8842518.58 m -329195.65 0 a 329195.65 329195.65 0 1 1 658391.29 0a 329195.65 329195.65 0 1 1 -658391.29 0M 29969683.69 8792521.00 L 29866056.94 8792521.00 L 29886415.00 8716543.00 A 329197.42 329197.42 0 0 1 30064574.00 8538384.00 L 30140552.00 8518025.93 L 30140552.00 8621652.68 L 30102223.00 8629277.00 L 30027342.00 8679311.00 L 29977308.00 8754192.00 L 29969683.69 8792521.00  zM 30140552.00 9167014.06 L 30064574.00 9146656.00 A 329197.42 329197.42 0 0 1 29886415.00 8968497.00 L 29866057.47 8892521.00 L 29969684.08 8892521.00 L 29977308.00 8930848.00 L 30027342.00 9005729.00 L 30102223.00 9055763.00 L 30140552.00 9063387.31 L 30140552.00 9167014.06  zM 30190550.13 8842521.07 m -150528.93 0 a 150528.93 150528.93 0 1 1 301057.86 0a 150528.93 150528.93 0 1 1 -301057.86 0M 30515045.07 8792521.00 L 30411418.32 8792521.00 L 30403794.00 8754192.00 L 30353760.00 8679311.00 L 30278879.00 8629277.00 L 30240552.00 8621653.08 L 30240552.00 8518026.47 L 30316528.00 8538384.00 A 329197.42 329197.42 0 0 1 30494687.00 8716543.00 L 30515045.07 8792521.00  zM 30240552.00 9167013.53 L 30240552.00 9063386.92 L 30278879.00 9055763.00 L 30353760.00 9005729.00 L 30403794.00 8930848.00 L 30411417.92 8892521.00 L 30515044.53 8892521.00 L 30494687.00 8968497.00 A 329197.42 329197.42 0 0 1 30316528.00 9146656.00 L 30240552.00 9167013.53  zM 27286415.00 9716543.00 L 27306882.36 9681092.73 L 27270279.61 9644489.99 L 27266528.00 9646656.00 A 329195.65 329195.65 0 0 1 27014574.00 9646656.00 L 27010822.39 9644489.99 L 26974219.64 9681092.73 L 26994687.00 9716543.00 A 329195.65 329195.65 0 1 1 26816528.00 9538384.00 L 26820279.61 9540550.01 L 26856882.36 9503947.27 L 26836415.00 9468497.00 A 329195.65 329195.65 0 1 1 27444687.00 9468497.00 L 27424219.64 9503947.27 L 27460822.39 9540550.01 L 27464574.00 9538384.00 A 329195.65 329195.65 0 1 1 27286415.00 9716543.00  zM 30516929.00 10168898.00 L 29864173.00 10168898.00 L 29864173.00 9516142.00 L 30516929.00 9516142.00 L 30516929.00 10168898.00  zM 27655905.00 14063779.00 L 26944095.00 14063779.00 L 26944095.00 13351969.00 L 27655905.00 13351969.00 L 27655905.00 14063779.00  zM 30355905.00 14063779.00 L 29644095.00 14063779.00 L 29644095.00 13351969.00 L 30355905.00 13351969.00 L 30355905.00 14063779.00  zM 27048469.59 14642126.00 L 26944937.43 14642126.00 L 26968349.00 14554752.00 L 27015205.00 14473595.00 L 27081469.00 14407331.00 L 27162626.00 14360475.00 L 27250000.00 14337063.42 L 27250000.00 14440595.59 L 27233195.00 14442808.00 A 258122.37 258122.37 0 0 0 27050682.00 14625321.00 L 27048469.59 14642126.00  zM 27655062.58 14642126.00 L 27551530.41 14642126.00 L 27549318.00 14625321.00 A 258122.37 258122.37 0 0 0 27366805.00 14442808.00 L 27350000.00 14440595.59 L 27350000.00 14337063.43 L 27437374.00 14360475.00 L 27518531.00 14407331.00 L 27584795.00 14473595.00 L 27631651.00 14554752.00 L 27655062.58 14642126.00  zM 29748469.59 14642126.00 L 29644937.43 14642126.00 L 29668349.00 14554752.00 L 29715205.00 14473595.00 L 29781469.00 14407331.00 L 29862626.00 14360475.00 L 29950000.00 14337063.42 L 29950000.00 14440595.59 L 29933195.00 14442808.00 A 258122.37 258122.37 0 0 0 29750682.00 14625321.00 L 29748469.59 14642126.00  zM 27250000.00 15047188.57 L 27162626.00 15023777.00 L 27081469.00 14976921.00 L 27015205.00 14910657.00 L 26968349.00 14829500.00 L 26944937.42 14742126.00 L 27048469.59 14742126.00 L 27050682.00 14758931.00 A 258122.37 258122.37 0 0 0 27233195.00 14941444.00 L 27250000.00 14943656.41 L 27250000.00 15047188.57  zM 27299998.59 14692127.48 m -160563.52 0 a 160563.52 160563.52 0 1 1 321127.04 0a 160563.52 160563.52 0 1 1 -321127.04 0M 27350000.00 15047188.58 L 27350000.00 14943656.41 L 27366805.00 14941444.00 A 258122.37 258122.37 0 0 0 27549318.00 14758931.00 L 27551530.41 14742126.00 L 27655062.57 14742126.00 L 27631651.00 14829500.00 L 27584795.00 14910657.00 L 27518531.00 14976921.00 L 27437374.00 15023777.00 L 27350000.00 15047188.58  zM 29950000.00 15047188.57 L 29862626.00 15023777.00 L 29781469.00 14976921.00 L 29715205.00 14910657.00 L 29668349.00 14829500.00 L 29644937.42 14742126.00 L 29748469.59 14742126.00 L 29750682.00 14758931.00 A 258122.37 258122.37 0 0 0 29933195.00 14941444.00 L 29950000.00 14943656.41 L 29950000.00 15047188.57  zM 29999998.59 14692127.48 m -160563.52 0 a 160563.52 160563.52 0 1 1 321127.04 0a 160563.52 160563.52 0 1 1 -321127.04 0M 30355062.58 14642126.00 L 30251530.41 14642126.00 L 30249318.00 14625321.00 A 258122.37 258122.37 0 0 0 30066805.00 14442808.00 L 30050000.00 14440595.59 L 30050000.00 14337063.43 L 30137374.00 14360475.00 L 30218531.00 14407331.00 L 30284795.00 14473595.00 L 30331651.00 14554752.00 L 30355062.58 14642126.00  zM 30050000.00 15047188.58 L 30050000.00 14943656.41 L 30066805.00 14941444.00 A 258122.37 258122.37 0 0 0 30249318.00 14758931.00 L 30251530.41 14742126.00 L 30355062.57 14742126.00 L 30331651.00 14829500.00 L 30284795.00 14910657.00 L 30218531.00 14976921.00 L 30137374.00 15023777.00 L 30050000.00 15047188.58  z"/>
<path id="N" d="M 6345504.00 5688193.87 L 6345504.00 4996846.13 L 6295503.68 4983448.51 L 6261167.00 5042921.00 A 329197.42 329197.42 0 1 1 6261167.00 4642119.00 L 6295503.68 4701591.49 L 6345504.00 4688193.87 L 6345504.00 3996846.13 L 6295503.68 3983448.51 L 6261167.00 4042921.00 A 329197.42 329197.42 0 1 1 6304136.00 3716543.00 L 6321790.35 3782430.52 L 6374456.13 3788270.46 L 6420044.00 3720044.00 L 7520044.00 2620044.00 L 7602608.00 2564876.00 L 7611244.52 2563158.13 L 7606320.05 2513158.00 L 6182284.71 2513158.00 L 6168887.09 2563158.32 L 6200401.00 2581353.00 L 6261167.00 2642119.00 L 6304136.00 2716543.00 L 6324493.80 2792520.00 L 6220867.12 2792520.00 L 6213243.00 2754192.00 A 230814.01 230814.01 0 1 0 5911672.00 3055763.00 L 5950000.00 3063387.12 L 5950000.00 3167013.80 L 5874023.00 3146656.00 A 329197.42 329197.42 0 0 1 5695864.00 2968497.00 L 5682262.88 2917736.50 L 5626494.62 2902793.38 L 5554496.00 2974792.00 L 5554496.00 5034203.11 L 6036434.21 5516142.00 L 6042968.00 5516142.00 A 329189.62 329189.62 0 0 1 6261167.00 5642119.00 L 6295503.68 5701591.49 L 6345504.00 5688193.87  zM 5999999.13 2842521.07 m -150528.93 0 a 150528.93 150528.93 0 1 1 301057.86 0a 150528.93 150528.93 0 1 1 -301057.86 0M 6050000.00 3167013.80 L 6050000.00 3063387.12 L 6088328.00 3055763.00 L 6163209.00 3005729.00 L 6213243.00 2930848.00 L 6220867.12 2892520.00 L 6324493.80 2892520.00 L 6304136.00 2968497.00 A 329197.42 329197.42 0 0 1 6125977.00 3146656.00 L 6050000.00 3167013.80  z"/>
<path id="N" d="M 23320044.00 1520044.00 L 23402608.00 1464876.00 L 23500005.03 1445504.00 L 25800000.00 1445504.00 L 25818575.67 1449198.84 L 25843206.17 1403118.17 L 25794584.00 1354496.00 L 22805417.00 1354496.00 L 21879957.00 2279956.00 L 21797393.00 2335124.00 L 21700001.00 2354496.00 L 18949606.00 2354496.00 L 18852214.00 2335124.00 L 18769650.00 2279956.00 L 18349143.00 1859449.00 L 18246147.00 1859449.00 L 18142111.00 1831573.00 L 18070399.86 1790170.94 L 18039699.11 1830181.11 L 18655022.00 2445504.00 L 22394584.00 2445504.00 L 23320044.00 1520044.00  z"/>
<path id="N" d="M 23853509.00 2186579.00 L 23936073.00 2131411.00 L 24033465.00 2112039.00 L 25781415.77 2112039.00 L 25801616.69 2086020.00 L 25810147.64 2070059.64 L 25694584.00 1954496.00 L 23605416.00 1954496.00 L 22679956.00 2879956.00 L 22597392.00 2935124.00 L 22500000.00 2954496.00 L 18549606.00 2954496.00 L 18452214.00 2935124.00 L 18369650.00 2879956.00 L 17349143.00 1859449.00 L 17246147.00 1859449.00 L 17142111.00 1831573.00 L 17070399.86 1790170.94 L 17039699.11 1830181.11 L 18255022.00 3045504.00 L 22994584.00 3045504.00 L 23853509.00 2186579.00  z"/>
<path id="N" d="M 29871426.98 4640803.57 L 29873975.57 4633887.57 L 25994584.00 754496.00 L 22005416.00 754496.00 L 21129562.00 1630350.00 L 21046998.00 1685518.00 L 20949606.00 1704890.00 L 19709055.00 1704890.00 L 19709055.00 1845504.00 L 21594585.00 1845504.00 L 22520045.00 920044.00 L 22602609.00 864876.00 L 22700006.03 845504.00 L 25900000.00 845504.00 L 25997392.00 864876.00 L 26079956.00 920044.00 L 29813447.67 4653535.67 L 29871426.98 4640803.57  z"/>
<path id="N" d="M 25678879.00 6629277.00 L 25644671.00 6622472.42 L 25644671.00 6062567.58 L 25678879.00 6055763.00 A 230814.01 230814.01 0 1 0 25502223.00 6055763.00 L 25536431.00 6062567.58 L 25536431.00 6622472.42 L 25502223.00 6629277.00 L 25473223.13 6648654.13 L 24927245.00 6102676.00 L 24888973.59 6086825.00 L 23162192.11 6086825.00 L 23037099.00 5961731.00 L 22998827.59 5945880.00 L 10106693.00 5945880.00 L 10106693.00 5822835.00 L 9693307.00 5822835.00 L 9693307.00 6100628.63 L 9474039.04 6319896.00 L 8552627.78 6319896.00 L 8549131.00 6293336.00 A 311728.46 311728.46 0 1 0 8549131.00 6454696.00 L 8552627.78 6428136.00 L 9496457.00 6428137.00 L 9534726.00 6412285.00 L 9769845.37 6177165.00 L 10106693.00 6177165.00 L 10106693.00 6054120.00 L 22976412.11 6054120.00 L 23101506.00 6179214.00 L 23139775.00 6195065.00 L 24866558.00 6195065.00 L 25396685.13 6725192.13 L 25377308.00 6754192.00 A 230806.50 230806.50 0 1 0 25678879.00 6629277.00  zM 8248030.24 6374015.93 m -204721.07 0 a 204721.07 204721.07 0 1 1 409442.13 0a 204721.07 204721.07 0 1 1 -409442.13 0M 25590550.13 5842521.07 m -150528.93 0 a 150528.93 150528.93 0 1 1 301057.86 0a 150528.93 150528.93 0 1 1 -301057.86 0M 25590550.13 6842521.07 m -150528.93 0 a 150528.93 150528.93 0 1 1 301057.86 0a 150528.93 150528.93 0 1 1 -301057.86 0"/>
<path id="N" d="M 1488328.00 6629277.00 L 1454120.00 6622472.42 L 1454120.00 6062567.58 L 1488328.00 6055763.00 A 230814.01 230814.01 0 1 0 1311672.00 6055763.00 L 1345880.00 6062567.58 L 1345880.00 6622472.42 L 1311672.00 6629277.00 A 230814.01 230814.01 0 1 0 1488328.00 6629277.00  zM 1399999.13 5842521.07 m -150528.93 0 a 150528.93 150528.93 0 1 1 301057.86 0a 150528.93 150528.93 0 1 1 -301057.86 0M 1399999.13 6842521.07 m -150528.93 0 a 150528.93 150528.93 0 1 1 301057.86 0a 150528.93 150528.93 0 1 1 -301057.86 0"/>
<path id="N" d="M 30255905.00 13451969.00 L 29744095.00 13451969.00 L 29744095.00 13963779.00 L 30255905.00 13963779.00 L 30255905.00 13451969.00  zM 29999998.59 13707875.48 m -160563.52 0 a 160563.52 160563.52 0 1 1 321127.04 0a 160563.52 160563.52 0 1 1 -321127.04 0"/>
<path id="N" d="M 27555905.00 13451969.00 L 27044095.00 13451969.00 L 27044095.00 13963779.00 L 27555905.00 13963779.00 L 27555905.00 13451969.00  zM 27299998.59 13707875.48 m -160563.52 0 a 160563.52 160563.52 0 1 1 321127.04 0a 160563.52 160563.52 0 1 1 -321127.04 0"/>
<path id="N" d="M 30416929.00 9616142.00 L 29964173.00 9616142.00 L 29964173.00 10068898.00 L 30416929.00 10068898.00 L 30416929.00 9616142.00  zM 30190550.13 9842521.07 m -150528.93 0 a 150528.93 150528.93 0 1 1 301057.86 0a 150528.93 150528.93 0 1 1 -301057.86 0"/>
<path id="N" d="M 6226378.00 9616142.00 L 5773622.00 9616142.00 L 5773622.00 10068898.00 L 6226378.00 10068898.00 L 6226378.00 9616142.00  zM 5999999.13 9842521.07 m -150528.93 0 a 150528.93 150528.93 0 1 1 301057.86 0a 150528.93 150528.93 0 1 1 -301057.86 0"/>
<path id="N" d="M 7155905.00 13469172.00 L 6644095.00 13469172.00 L 6644095.00 13980982.00 L 7155905.00 13980982.00 L 7155905.00 13469172.00  zM 6899998.59 13725078.48 m -160563.52 0 a 160563.52 160563.52 0 1 1 321127.04 0a 160563.52 160563.52 0 1 1 -321127.04 0"/>
<path id="N" d="M 14684645.00 12165355.00 L 14015355.00 12165355.00 L 14015355.00 12834645.00 L 14684645.00 12834645.00 L 14684645.00 12165355.00  zM 14349996.50 12500009.68 m -240838.32 0 a 240838.32 240838.32 0 1 1 481676.63 0a 240838.32 240838.32 0 1 1 -481676.63 0"/>
<path id="N" d="M 4455905.00 13469172.00 L 3944095.00 13469172.00 L 3944095.00 13980982.00 L 4455905.00 13980982.00 L 4455905.00 13469172.00  zM 4199998.59 13725078.48 m -160563.52 0 a 160563.52 160563.52 0 1 1 321127.04 0a 160563.52 160563.52 0 1 1 -321127.04 0"/>
<path id="N" d="M 24855905.00 13459843.00 L 24344095.00 13459843.00 L 24344095.00 13971653.00 L 24855905.00 13971653.00 L 24855905.00 13459843.00  zM 24599998.59 13715749.48 m -160563.52 0 a 160563.52 160563.52 0 1 1 321127.04 0a 160563.52 160563.52 0 1 1 -321127.04 0"/>
<path id="N" d="M 1655905.00 13461298.00 L 1144095.00 13461298.00 L 1144095.00 13973108.00 L 1655905.00 13973108.00 L 1655905.00 13461298.00  zM 1399998.59 13717204.48 m -160563.52 0 a 160563.52 160563.52 0 1 1 321127.04 0a 160563.52 160563.52 0 1 1 -321127.04 0"/>
<path id="N" d="M 1399998.85 3842518.85 m -230814.01 0 a 230814.01 230814.01 0 1 1 461628.02 0a 230814.01 230814.01 0 1 1 -461628.02 0M 1399999.13 3842521.07 m -150528.93 0 a 150528.93 150528.93 0 1 1 301057.86 0a 150528.93 150528.93 0 1 1 -301057.86 0"/>
<path id="N" d="M 6230813.00 6842520.00 L 6228308.85 6829931.15 L 6707860.00 6350380.00 L 6740926.00 6300894.00 L 6752537.00 6242520.00 L 6752537.00 3963183.00 L 7763183.00 2952537.00 L 12700000.00 2952537.00 L 12758374.00 2940926.00 L 12807860.00 2907860.00 L 13715996.60 1999723.40 L 13800000.00 2011722.00 L 13880680.00 2001100.00 A 311728.46 311728.46 0 1 0 13500276.60 1784003.40 L 12636817.00 2647463.00 L 7700000.00 2647463.00 L 7641626.00 2659074.00 L 7592140.00 2692140.00 L 6492140.00 3792140.00 L 6459074.00 3841626.00 L 6447463.00 3900000.00 L 6447463.00 6179337.00 L 6012588.85 6614211.15 L 6000000.00 6611707.00 A 230814.94 230814.94 0 1 0 6230813.00 6842520.00  zM 5999999.13 6842521.07 m -150528.93 0 a 150528.93 150528.93 0 1 1 301057.86 0a 150528.93 150528.93 0 1 1 -301057.86 0M 13799999.24 1699999.93 m -204721.07 0 a 204721.07 204721.07 0 1 1 409442.13 0a 204721.07 204721.07 0 1 1 -409442.13 0"/>
<path id="N" d="M 23248028.67 8599993.71 m -311728.46 0 a 311728.46 311728.46 0 1 1 623456.93 0a 311728.46 311728.46 0 1 1 -623456.93 0M 23248030.24 8599999.93 m -204721.07 0 a 204721.07 204721.07 0 1 1 409442.13 0a 204721.07 204721.07 0 1 1 -409442.13 0"/>
<path id="N" d="M 25590549.85 3842518.85 m -230814.01 0 a 230814.01 230814.01 0 1 1 461628.02 0a 230814.01 230814.01 0 1 1 -461628.02 0M 25590550.13 3842521.07 m -150528.93 0 a 150528.93 150528.93 0 1 1 301057.86 0a 150528.93 150528.93 0 1 1 -301057.86 0"/>
<path id="N" d="M 8248028.67 8374009.71 m -311728.46 0 a 311728.46 311728.46 0 1 1 623456.93 0a 311728.46 311728.46 0 1 1 -623456.93 0M 8248030.24 8374015.93 m -204721.07 0 a 204721.07 204721.07 0 1 1 409442.13 0a 204721.07 204721.07 0 1 1 -409442.13 0"/>
<path id="N" d="M 1399998.85 2842518.85 m -230814.01 0 a 230814.01 230814.01 0 1 1 461628.02 0a 230814.01 230814.01 0 1 1 -461628.02 0M 1399999.13 2842521.07 m -150528.93 0 a 150528.93 150528.93 0 1 1 301057.86 0a 150528.93 150528.93 0 1 1 -301057.86 0"/>
<path id="N" d="M 20177082.00 14412325.00 L 20154120.00 14409302.01 L 20154120.00 13940206.99 L 22899261.01 11195065.00 L 24292126.00 11195066.00 L 24330395.00 11179214.00 L 25440710.14 10068898.00 L 25816929.00 10068898.00 L 25816929.00 9616142.00 L 25364173.00 9616142.00 L 25364173.00 9992360.86 L 24269708.01 11086825.00 L 22876844.00 11086825.00 L 22838574.29 11102677.71 L 20061731.00 13879520.00 L 20045880.00 13917791.41 L 20045880.00 14409302.01 L 20022918.00 14412325.00 L 19951088.00 14442078.00 L 19932714.41 14456176.41 L 18422915.00 12946377.00 L 18384643.59 12930526.00 L 5132265.01 12930526.00 L 2005991.00 9804251.00 L 1967719.59 9788400.00 L 1626378.00 9788400.00 L 1626378.00 9616142.00 L 1173622.00 9616142.00 L 1173622.00 10068898.00 L 1626378.00 10068898.00 L 1626378.00 9896640.00 L 1945304.01 9896640.00 L 5071579.00 13022915.00 L 5109848.00 13038766.00 L 18362228.00 13038766.00 L 19856176.41 14532714.41 L 19842078.00 14551088.00 A 297823.01 297823.01 0 1 0 20177082.00 14412325.00  zM 1399999.13 9842521.07 m -150528.93 0 a 150528.93 150528.93 0 1 1 301057.86 0a 150528.93 150528.93 0 1 1 -301057.86 0M 20100000.36 14700000.47 m -200706.53 0 a 200706.53 200706.53 0 1 1 401413.05 0a 200706.53 200706.53 0 1 1 -401413.05 0M 25590550.13 9842521.07 m -150528.93 0 a 150528.93 150528.93 0 1 1 301057.86 0a 150528.93 150528.93 0 1 1 -301057.86 0"/>
<path id="N" d="M 23248028.67 5599993.71 m -311728.46 0 a 311728.46 311728.46 0 1 1 623456.93 0a 311728.46 311728.46 0 1 1 -623456.93 0M 23248030.24 5599999.93 m -204721.07 0 a 204721.07 204721.07 0 1 1 409442.13 0a 204721.07 204721.07 0 1 1 -409442.13 0"/>
<path id="N" d="M 23248028.67 7599993.71 m -311728.46 0 a 311728.46 311728.46 0 1 1 623456.93 0a 311728.46 311728.46 0 1 1 -623456.93 0M 23248030.24 7599999.93 m -204721.07 0 a 204721.07 204721.07 0 1 1 409442.13 0a 204721.07 204721.07 0 1 1 -409442.13 0"/>
<path id="N" d="M 21379527.00 14620445.00 L 23355891.00 12644081.00 L 23388957.00 12594595.00 L 23400568.00 12536221.00 L 23400568.00 11909055.00 L 23557086.00 11909055.00 L 23557086.00 11290945.00 L 22938976.00 11290945.00 L 22938976.00 11909055.00 L 23095494.00 11909055.00 L 23095494.00 12473038.00 L 21163807.00 14404725.00 L 20788977.00 14404725.00 L 20788977.00 14995275.00 L 21379527.00 14995275.00 L 21379527.00 14620445.00  zM 21084252.36 14700000.47 m -200706.53 0 a 200706.53 200706.53 0 1 1 401413.05 0a 200706.53 200706.53 0 1 1 -401413.05 0M 23248030.24 11599999.93 m -204721.07 0 a 204721.07 204721.07 0 1 1 409442.13 0a 204721.07 204721.07 0 1 1 -409442.13 0"/>
<path id="N" d="M 25590549.85 8842518.85 m -230814.01 0 a 230814.01 230814.01 0 1 1 461628.02 0a 230814.01 230814.01 0 1 1 -461628.02 0M 25590550.13 8842521.07 m -150528.93 0 a 150528.93 150528.93 0 1 1 301057.86 0a 150528.93 150528.93 0 1 1 -301057.86 0"/>
<path id="N" d="M 5999998.85 3842518.85 m -230814.01 0 a 230814.01 230814.01 0 1 1 461628.02 0a 230814.01 230814.01 0 1 1 -461628.02 0M 5999999.13 3842521.07 m -150528.93 0 a 150528.93 150528.93 0 1 1 301057.86 0a 150528.93 150528.93 0 1 1 -301057.86 0"/>
<path id="N" d="M 30190549.85 3842518.85 m -230814.01 0 a 230814.01 230814.01 0 1 1 461628.02 0a 230814.01 230814.01 0 1 1 -461628.02 0M 30190550.13 3842521.07 m -150528.93 0 a 150528.93 150528.93 0 1 1 301057.86 0a 150528.93 150528.93 0 1 1 -301057.86 0"/>
<path id="N" d="M 8557086.00 4064961.00 L 7938976.00 4064961.00 L 7938976.00 4683071.00 L 8557086.00 4683071.00 L 8557086.00 4064961.00  zM 8248030.24 4374015.93 m -204721.07 0 a 204721.07 204721.07 0 1 1 409442.13 0a 204721.07 204721.07 0 1 1 -409442.13 0"/>
<path id="N" d="M 26690549.85 9842518.85 m -230814.01 0 a 230814.01 230814.01 0 1 1 461628.02 0a 230814.01 230814.01 0 1 1 -461628.02 0M 26690550.13 9842521.07 m -150528.93 0 a 150528.93 150528.93 0 1 1 301057.86 0a 150528.93 150528.93 0 1 1 -301057.86 0"/>
<path id="N" d="M 3399998.85 9842518.85 m -230814.01 0 a 230814.01 230814.01 0 1 1 461628.02 0a 230814.01 230814.01 0 1 1 -461628.02 0M 3399999.13 9842521.07 m -150528.93 0 a 150528.93 150528.93 0 1 1 301057.86 0a 150528.93 150528.93 0 1 1 -301057.86 0"/>
<path id="N" d="M 27590549.85 9842518.85 m -230814.01 0 a 230814.01 230814.01 0 1 1 461628.02 0a 230814.01 230814.01 0 1 1 -461628.02 0M 27590550.13 9842521.07 m -150528.93 0 a 150528.93 150528.93 0 1 1 301057.86 0a 150528.93 150528.93 0 1 1 -301057.86 0"/>
<path id="N" d="M 2499998.85 9842518.85 m -230814.01 0 a 230814.01 230814.01 0 1 1 461628.02 0a 230814.01 230814.01 0 1 1 -461628.02 0M 2499999.13 9842521.07 m -150528.93 0 a 150528.93 150528.93 0 1 1 301057.86 0a 150528.93 150528.93 0 1 1 -301057.86 0"/>
<path id="N" d="M 27140549.85 9342518.85 m -230814.01 0 a 230814.01 230814.01 0 1 1 461628.02 0a 230814.01 230814.01 0 1 1 -461628.02 0M 27140550.13 9342521.07 m -150528.93 0 a 150528.93 150528.93 0 1 1 301057.86 0a 150528.93 150528.93 0 1 1 -301057.86 0"/>
<path id="N" d="M 2949998.85 9342518.85 m -230814.01 0 a 230814.01 230814.01 0 1 1 461628.02 0a 230814.01 230814.01 0 1 1 -461628.02 0M 2949999.13 9342521.07 m -150528.93 0 a 150528.93 150528.93 0 1 1 301057.86 0a 150528.93 150528.93 0 1 1 -301057.86 0"/>
<path id="N" d="M 8248028.67 10374009.71 m -311728.46 0 a 311728.46 311728.46 0 1 1 623456.93 0a 311728.46 311728.46 0 1 1 -623456.93 0M 8248030.24 10374015.93 m -204721.07 0 a 204721.07 204721.07 0 1 1 409442.13 0a 204721.07 204721.07 0 1 1 -409442.13 0"/>
<path id="N" d="M 30353760.00 4679311.00 L 30313710.00 4652550.38 L 30313710.00 4561173.00 L 30302099.00 4502799.00 L 30269033.00 4453313.00 L 26207860.00 392140.00 L 26158374.00 359074.00 L 26100000.00 347463.00 L 21900000.00 347463.00 L 21841626.00 359074.00 L 21792140.00 392140.00 L 20886423.00 1297857.00 L 19609055.00 1297857.00 L 19609055.00 1141339.00 L 18990945.00 1141339.00 L 18990945.00 1759449.00 L 19609055.00 1759449.00 L 19609055.00 1602931.00 L 20949606.00 1602931.00 L 21007980.00 1591320.00 L 21057466.00 1558254.00 L 21963183.00 652537.00 L 26036817.00 652537.00 L 30008636.00 4624356.00 L 30008636.00 4707306.44 L 29977308.00 4754192.00 A 230806.50 230806.50 0 1 0 30353760.00 4679311.00  zM 19299999.24 1450393.93 m -204721.07 0 a 204721.07 204721.07 0 1 1 409442.13 0a 204721.07 204721.07 0 1 1 -409442.13 0M 30190550.13 4842521.07 m -150528.93 0 a 150528.93 150528.93 0 1 1 301057.86 0a 150528.93 150528.93 0 1 1 -301057.86 0"/>
<path id="N" d="M 23248028.67 9599993.71 m -311728.46 0 a 311728.46 311728.46 0 1 1 623456.93 0a 311728.46 311728.46 0 1 1 -623456.93 0M 23248030.24 9599999.93 m -204721.07 0 a 204721.07 204721.07 0 1 1 409442.13 0a 204721.07 204721.07 0 1 1 -409442.13 0"/>
<path id="N" d="M 6000000.00 5611707.00 L 5989830.83 5613729.83 L 5452537.00 5076436.00 L 5452537.00 2932559.00 L 5973897.00 2411199.00 L 12241338.00 2411199.00 L 12299712.00 2399588.00 L 12349198.00 2366522.00 L 12715996.60 1999723.40 L 12800000.00 2011722.00 L 12880680.00 2001100.00 A 311728.46 311728.46 0 1 0 12500276.60 1784003.40 L 12178155.00 2106125.00 L 5910714.00 2106125.00 L 5852340.00 2117736.00 L 5802854.00 2150802.00 L 5192140.00 2761516.00 L 5159074.00 2811002.00 L 5147463.00 2869376.00 L 5147463.00 5139619.00 L 5159074.00 5197993.00 L 5192140.00 5247479.00 L 5772172.46 5827511.46 L 5769187.00 5842520.00 A 230814.94 230814.94 0 1 0 6000000.00 5611707.00  zM 5999999.13 5842521.07 m -150528.93 0 a 150528.93 150528.93 0 1 1 301057.86 0a 150528.93 150528.93 0 1 1 -301057.86 0M 12799999.24 1699999.93 m -204721.07 0 a 204721.07 204721.07 0 1 1 409442.13 0a 204721.07 204721.07 0 1 1 -409442.13 0"/>
<path id="N" d="M 23248028.67 10599993.71 m -311728.46 0 a 311728.46 311728.46 0 1 1 623456.93 0a 311728.46 311728.46 0 1 1 -623456.93 0M 23248030.24 10599999.93 m -204721.07 0 a 204721.07 204721.07 0 1 1 409442.13 0a 204721.07 204721.07 0 1 1 -409442.13 0"/>
<path id="N" d="M 8549131.00 5454696.00 L 8552627.78 5428136.00 L 9693307.00 5428136.00 L 9693307.00 5625984.00 L 10106693.00 5625984.00 L 10106693.00 5271654.00 L 9693307.00 5271654.00 L 9693307.00 5319896.00 L 8552627.78 5319896.00 L 8549131.00 5293336.00 A 311728.46 311728.46 0 1 0 8549131.00 5454696.00  zM 8248030.24 5374015.93 m -204721.07 0 a 204721.07 204721.07 0 1 1 409442.13 0a 204721.07 204721.07 0 1 1 -409442.13 0"/>
<path id="N" d="M 30190551.00 6611707.00 L 30177962.15 6614211.15 L 29052537.00 5488786.00 L 29052537.00 4800000.00 L 29040926.00 4741626.00 L 29007860.00 4692140.00 L 25907860.00 1592140.00 L 25858374.00 1559074.00 L 25800000.00 1547463.00 L 23500000.00 1547463.00 L 23441627.00 1559074.00 L 23392140.00 1592140.00 L 22436817.00 2547463.00 L 18612789.00 2547463.00 L 17599723.40 1534397.40 L 17611722.00 1450394.00 L 17601100.00 1369714.00 A 311728.46 311728.46 0 1 0 17384003.40 1750117.40 L 18441746.00 2807860.00 L 18491232.00 2840926.00 L 18549606.00 2852537.00 L 22500000.00 2852537.00 L 22558374.00 2840926.00 L 22607860.00 2807860.00 L 23563183.00 1852537.00 L 25736817.00 1852537.00 L 28747463.00 4863183.00 L 28747463.00 5551969.00 L 28759074.00 5610343.00 L 28792140.00 5659829.00 L 29962242.15 6829931.15 L 29959738.00 6842520.00 A 230814.94 230814.94 0 1 0 30190551.00 6611707.00  zM 17299999.24 1450393.93 m -204721.07 0 a 204721.07 204721.07 0 1 1 409442.13 0a 204721.07 204721.07 0 1 1 -409442.13 0M 30190550.13 6842521.07 m -150528.93 0 a 150528.93 150528.93 0 1 1 301057.86 0a 150528.93 150528.93 0 1 1 -301057.86 0"/>
<path id="N" d="M 6230813.00 7842520.00 L 6228308.85 7829931.15 L 7273739.00 6784501.00 L 7306805.00 6735015.00 L 7318416.00 6676641.00 L 7318416.00 4548244.00 L 8365564.00 3501096.00 L 13702818.00 3501096.00 L 13761192.00 3489485.00 L 13810678.00 3456419.00 L 14907860.00 2359237.00 L 14940926.00 2309751.00 L 14952537.00 2251377.00 L 14952537.00 1971335.85 A 305641.32 305641.32 0 0 0 15101100.00 1780680.00 A 311715.74 311715.74 0 1 0 14647463.00 1971335.85 L 14647463.00 2188194.00 L 13639635.00 3196022.00 L 8302381.00 3196022.00 L 8244008.00 3207633.00 L 8194521.00 3240699.00 L 7058019.00 4377201.00 L 7024953.00 4426687.00 L 7013342.00 4485061.00 L 7013342.00 6613458.00 L 6012588.85 7614211.15 L 6000000.00 7611707.00 A 230814.94 230814.94 0 1 0 6230813.00 7842520.00  zM 5999999.13 7842521.07 m -150528.93 0 a 150528.93 150528.93 0 1 1 301057.86 0a 150528.93 150528.93 0 1 1 -301057.86 0M 14799999.24 1699999.93 m -204721.07 0 a 204721.07 204721.07 0 1 1 409442.13 0a 204721.07 204721.07 0 1 1 -409442.13 0"/>
</g>
</svg>
