<svg width="80.00000002mm" height="39.99999874mm" viewBox="0 0 31496063 15748031"  version="1.1" xmlns="http://www.w3.org/2000/svg" xmlns:xlink="http://www.w3.org/1999/xlink">
<desc>
Origin 0 0 Bound 0 1 31496063 15748031
</desc>
<g fill-rule="evenodd" fill="rgb(255, 255, 0)" stroke="black" stroke-width="1" transform="translate(0, 15748031) scale(1, -1) translate(0, -1)">
<path id="N" d="M 27299999.31 14199990.14 m -1283493.64 0 a 1283493.64 1283493.64 0 1 1 2566987.28 0a 1283493.64 1283493.64 0 1 1 -2566987.28 0M 27300003.65 14199979.02 m -1199505.98 0 a 1199505.98 1199505.98 0 1 1 2399011.95 0a 1199505.98 1199505.98 0 1 1 -2399011.95 0"/>
<path id="N" d="M 29999999.31 14199990.14 m -1283493.64 0 a 1283493.64 1283493.64 0 1 1 2566987.28 0a 1283493.64 1283493.64 0 1 1 -2566987.28 0M 30000003.65 14199979.02 m -1199505.98 0 a 1199505.98 1199505.98 0 1 1 2399011.95 0a 1199505.98 1199505.98 0 1 1 -2399011.95 0"/>
<path id="N" d="M 24599999.31 14207864.14 m -1283493.64 0 a 1283493.64 1283493.64 0 1 1 2566987.28 0a 1283493.64 1283493.64 0 1 1 -2566987.28 0M 24600003.65 14207853.02 m -1199505.98 0 a 1199505.98 1199505.98 0 1 1 2399011.95 0a 1199505.98 1199505.98 0 1 1 -2399011.95 0"/>
<path id="N" d="M 4199999.31 14217193.14 m -1283493.64 0 a 1283493.64 1283493.64 0 1 1 2566987.28 0a 1283493.64 1283493.64 0 1 1 -2566987.28 0M 4200003.65 14217182.02 m -1199505.98 0 a 1199505.98 1199505.98 0 1 1 2399011.95 0a 1199505.98 1199505.98 0 1 1 -2399011.95 0"/>
<path id="N" d="M 6899999.31 14217193.14 m -1283493.64 0 a 1283493.64 1283493.64 0 1 1 2566987.28 0a 1283493.64 1283493.64 0 1 1 -2566987.28 0M 6900003.65 14217182.02 m -1199505.98 0 a 1199505.98 1199505.98 0 1 1 2399011.95 0a 1199505.98 1199505.98 0 1 1 -2399011.95 0"/>
<path id="N" d="M 1399999.31 14209319.14 m -1283493.64 0 a 1283493.64 1283493.64 0 1 1 2566987.28 0a 1283493.64 1283493.64 0 1 1 -2566987.28 0M 1400003.65 14209308.02 m -1199505.98 0 a 1199505.98 1199505.98 0 1 1 2399011.95 0a 1199505.98 1199505.98 0 1 1 -2399011.95 0"/>
<path id="N" d="M 27538204.00 12038108.00 L 27638172.00 11938140.00 L 27654023.00 11899871.00 L 27654024.00 11699936.00 L 27638172.00 11661667.00 L 27538204.00 11561699.00 A 54121.84 54121.84 0 1 0 27461666.00 11638237.00 L 27545783.00 11722354.00 L 27545783.00 11877453.00 L 27477517.00 11945719.00 L 27322418.00 11945719.00 L 27254152.00 11877453.00 L 27254152.00 11812679.94 L 27348406.00 11624171.00 L 27349299.10 11611607.08 L 27354120.00 11599968.00 L 27350711.43 11591738.71 L 27351343.00 11582854.00 L 27343090.08 11573338.51 L 27338269.00 11561699.00 L 27330038.08 11558289.76 L 27324203.00 11551562.00 L 27311639.08 11550668.90 L 27300000.00 11545848.00 L 27000097.00 11545848.00 L 26961828.00 11561699.00 L 26945977.00 11599968.00 L 26945977.00 11999839.00 A 54118.70 54118.70 0 1 0 27054217.00 11999839.00 L 27054217.00 11654088.00 L 27212432.11 11654088.00 L 27151626.00 11775699.00 L 27150732.84 11788264.07 L 27145912.00 11799903.00 L 27145911.00 11899871.00 L 27161763.00 11938140.00 L 27261731.00 12038108.00 L 27300000.00 12053959.00 L 27499935.00 12053960.00 L 27538204.00 12038108.00  z"/>
<path id="N" d="M 1638204.00 11447630.00 L 1738172.00 11347662.00 L 1754023.00 11309393.00 L 1754024.00 11109458.00 L 1738172.00 11071189.00 L 1638204.00 10971221.00 L 1599935.00 10955370.00 L 1499968.00 10955369.00 L 1461699.00 10971221.00 L 1400000.00 11032920.00 L 1338301.00 10971221.00 L 1300032.00 10955370.00 L 1200065.00 10955369.00 L 1161796.00 10971221.00 L 1061828.00 11071189.00 L 1045977.00 11109458.00 L 1045976.00 11309393.00 L 1061828.00 11347662.00 L 1161796.00 11447630.00 A 54121.84 54121.84 0 1 0 1238334.00 11371092.00 L 1154217.00 11286975.00 L 1154217.00 11131876.00 L 1222483.00 11063610.00 L 1277614.00 11063610.00 L 1345880.00 11131876.00 L 1345880.00 11209426.00 A 54118.70 54118.70 0 0 0 1454120.00 11209426.00 L 1454120.00 11131876.00 L 1522386.00 11063610.00 L 1577517.00 11063610.00 L 1645783.00 11131876.00 L 1645783.00 11286975.00 L 1561666.00 11371092.00 A 54119.43 54119.43 0 1 0 1638204.00 11447630.00  z"/>
<path id="N" d="M 17969970.41 16493926.00 L 18169903.00 16493926.00 L 18208172.00 16478075.00 L 18308140.00 16378107.00 A 54119.43 54119.43 0 0 0 18231602.00 16301569.00 L 18147485.00 16385686.00 L 17992386.00 16385686.00 L 17924120.00 16317420.00 L 17924120.00 16262289.00 L 17992386.00 16194023.00 L 18169903.00 16194024.00 L 18208172.00 16178172.00 L 18308140.00 16078204.00 L 18323991.00 16039935.00 L 18323992.00 15939968.00 L 18308140.00 15901699.00 L 18208172.00 15801731.00 L 18169903.00 15785880.00 L 17969968.00 15785879.00 L 17931699.00 15801731.00 L 17831731.00 15901699.00 A 54121.84 54121.84 0 0 0 17908269.00 15978237.00 L 17992386.00 15894120.00 L 18147485.00 15894120.00 L 18215751.00 15962386.00 L 18215751.00 16017517.00 L 18147485.00 16085783.00 L 17969968.00 16085783.00 L 17931699.00 16101634.00 L 17831731.00 16201602.00 L 17815880.00 16239873.41 L 17815880.00 16339838.00 L 17831731.00 16378107.00 L 17931699.00 16478075.00 L 17969970.41 16493926.00  z"/>
<path id="N" d="M 30099970.41 12153959.00 L 30199935.00 12153959.00 L 30238204.00 12138108.00 L 30338172.00 12038140.00 L 30354023.00 11999868.59 L 30354023.00 11799936.00 L 30338172.00 11761667.00 L 30238204.00 11661699.00 L 30199932.59 11645848.00 L 30000000.00 11645847.00 L 29961730.29 11661700.71 L 29761796.00 11861634.00 L 29758386.98 11869863.86 L 29751658.00 11875700.00 L 29651691.00 12075636.00 A 54118.07 54118.07 0 1 0 29748503.00 12124042.00 L 29844542.03 11931963.94 L 29945880.00 11830625.46 L 29945880.00 11999871.00 L 29961731.00 12038140.00 L 30061699.00 12138108.00 L 30099970.41 12153959.00  zM 30177517.00 12045719.00 L 30122386.00 12045719.00 L 30054120.00 11977453.00 L 30054120.00 11754088.00 L 30177517.00 11754088.00 L 30245783.00 11822354.00 L 30245783.00 11977453.00 L 30177517.00 12045719.00  z"/>
<path id="N" d="M 9918172.00 7318075.00 L 10018140.00 7218107.00 L 10033991.00 7179838.00 L 10033992.00 6979903.00 L 10018140.00 6941634.00 L 9918172.00 6841666.00 L 9901604.32 6834803.68 L 10018139.00 6718269.00 A 54118.22 54118.22 0 1 0 9941602.00 6641732.00 L 9757517.16 6825815.00 L 9634120.00 6825815.00 L 9634120.00 6680000.00 A 54118.70 54118.70 0 0 0 9525880.00 6680000.00 L 9525880.00 7279806.00 L 9541731.00 7318075.00 L 9580000.00 7333926.00 L 9879903.00 7333927.00 L 9918172.00 7318075.00  zM 9857485.00 7225686.00 L 9634120.00 7225686.00 L 9634120.00 6934055.00 L 9857485.00 6934055.00 L 9925751.00 7002321.00 L 9925751.00 7157420.00 L 9857485.00 7225686.00  z"/>
<path id="N" d="M 24438334.00 11361764.00 L 24354217.00 11277647.00 L 24354217.00 11122548.00 L 24422483.00 11054282.00 L 24777517.00 11054282.00 L 24845783.00 11122548.00 L 24845783.00 11277647.00 L 24761666.00 11361764.00 A 54121.84 54121.84 0 0 0 24838204.00 11438302.00 L 24938172.00 11338334.00 L 24954023.00 11300062.59 L 24954023.00 11100130.00 L 24938172.00 11061861.00 L 24838204.00 10961893.00 L 24799932.59 10946042.00 L 24400065.00 10946042.00 L 24361796.00 10961893.00 L 24261828.00 11061861.00 L 24245977.00 11100132.41 L 24245977.00 11300065.00 L 24261828.00 11338334.00 L 24361796.00 11438302.00 A 54119.43 54119.43 0 0 0 24438334.00 11361764.00  z"/>
<path id="N" d="M 6700067.41 11871193.00 L 7099935.00 11871193.00 L 7138204.00 11855342.00 L 7238172.00 11755374.00 L 7254023.00 11717102.59 L 7254023.00 11517170.00 L 7238172.00 11478901.00 L 7138204.00 11378933.00 A 54119.43 54119.43 0 0 0 7061666.00 11455471.00 L 7145783.00 11539588.00 L 7145783.00 11694687.00 L 7077517.00 11762953.00 L 6722483.00 11762953.00 L 6654217.00 11694687.00 L 6654217.00 11539588.00 L 6738334.00 11455471.00 A 54121.84 54121.84 0 0 0 6661796.00 11378933.00 L 6561828.00 11478901.00 L 6545977.00 11517172.41 L 6545977.00 11717105.00 L 6561828.00 11755374.00 L 6661796.00 11855342.00 L 6700067.41 11871193.00  z"/>
<path id="N" d="M 1200067.41 12063287.00 L 1599935.00 12063287.00 L 1638204.00 12047436.00 L 1738172.00 11947468.00 L 1754023.00 11909196.59 L 1754023.00 11709264.00 L 1738172.00 11670995.00 L 1638204.00 11571027.00 A 54119.43 54119.43 0 1 0 1561666.00 11647565.00 L 1645783.00 11731682.00 L 1645783.00 11886781.00 L 1577517.00 11955047.00 L 1222483.00 11955047.00 L 1154217.00 11886781.00 L 1154217.00 11731682.00 L 1238334.00 11647565.00 A 54121.84 54121.84 0 0 0 1161796.00 11571027.00 L 1061828.00 11670995.00 L 1045977.00 11709266.41 L 1045977.00 11909199.00 L 1061828.00 11947468.00 L 1161796.00 12047436.00 L 1200067.41 12063287.00  z"/>
<path id="N" d="M 4000067.41 12071161.00 L 4399935.00 12071161.00 L 4438204.00 12055310.00 L 4538172.00 11955342.00 L 4554023.00 11917070.59 L 4554023.00 11717138.00 L 4538172.00 11678869.00 L 4438204.00 11578901.00 A 54119.43 54119.43 0 1 0 4361666.00 11655439.00 L 4445783.00 11739556.00 L 4445783.00 11894655.00 L 4377517.00 11962921.00 L 4022483.00 11962921.00 L 3954217.00 11894655.00 L 3954217.00 11739556.00 L 4038334.00 11655439.00 A 54121.84 54121.84 0 1 0 3961796.00 11578901.00 L 3861828.00 11678869.00 L 3845977.00 11717140.41 L 3845977.00 11917073.00 L 3861828.00 11955342.00 L 3961796.00 12055310.00 L 4000067.41 12071161.00  z"/>
<path id="N" d="M 29838334.00 11461764.00 L 29754217.00 11377647.00 L 29754217.00 11222548.00 L 29822483.00 11154282.00 L 30177517.00 11154282.00 L 30245783.00 11222548.00 L 30245783.00 11377647.00 L 30161666.00 11461764.00 A 54121.84 54121.84 0 0 0 30238204.00 11538302.00 L 30338172.00 11438334.00 L 30354023.00 11400062.59 L 30354023.00 11200130.00 L 30338172.00 11161861.00 L 30238204.00 11061893.00 L 30199932.59 11046042.00 L 29800065.00 11046042.00 L 29761796.00 11061893.00 L 29661828.00 11161861.00 L 29645977.00 11200132.41 L 29645977.00 11400065.00 L 29661828.00 11438334.00 L 29761796.00 11538302.00 A 54119.43 54119.43 0 0 0 29838334.00 11461764.00  z"/>
<path id="N" d="M 27138334.00 11361764.00 L 27054217.00 11277647.00 L 27054217.00 11122548.00 L 27122483.00 11054282.00 L 27477517.00 11054282.00 L 27545783.00 11122548.00 L 27545783.00 11277647.00 L 27461666.00 11361764.00 A 54121.84 54121.84 0 1 0 27538204.00 11438302.00 L 27638172.00 11338334.00 L 27654023.00 11300062.59 L 27654023.00 11100130.00 L 27638172.00 11061861.00 L 27538204.00 10961893.00 L 27499932.59 10946042.00 L 27100065.00 10946042.00 L 27061796.00 10961893.00 L 26961828.00 11061861.00 L 26945977.00 11100132.41 L 26945977.00 11300065.00 L 26961828.00 11338334.00 L 27061796.00 11438302.00 A 54119.43 54119.43 0 0 0 27138334.00 11361764.00  z"/>
<path id="N" d="M 3938366.00 11455504.00 L 4322386.00 11071484.00 L 4377517.00 11071484.00 L 4445783.00 11139750.00 L 4445783.00 11294849.00 L 4361666.00 11378966.00 A 54121.84 54121.84 0 1 0 4438204.00 11455504.00 L 4538172.00 11355536.00 L 4554023.00 11317264.59 L 4554023.00 11117332.00 L 4538172.00 11079063.00 L 4438204.00 10979095.00 L 4399932.59 10963244.00 L 4299968.00 10963243.00 L 4261699.00 10979095.00 L 3954217.00 11286577.00 L 3954217.00 11017364.00 A 54118.70 54118.70 0 1 0 3845977.00 11017364.00 L 3845976.00 11417235.00 A 54122.11 54122.11 0 0 0 3938366.00 11455504.00  z"/>
<path id="N" d="M 3899938.41 8096543.00 L 4099871.00 8096543.00 L 4138140.00 8080692.00 L 4238108.00 7980724.00 L 4253959.00 7942452.59 L 4253960.00 7842488.00 L 4238108.00 7804219.00 L 3930626.00 7496737.00 L 4199839.00 7496737.00 A 54118.70 54118.70 0 0 0 4199839.00 7388497.00 L 3799968.00 7388496.00 A 54122.11 54122.11 0 0 0 3761699.00 7480886.00 L 4145719.00 7864906.00 L 4145719.00 7920037.00 L 4077453.00 7988303.00 L 3922354.00 7988303.00 L 3838237.00 7904186.00 A 54121.84 54121.84 0 0 0 3761699.00 7980724.00 L 3861667.00 8080692.00 L 3899938.41 8096543.00  z"/>
<path id="N" d="M 19877377.00 2819109.00 L 19889858.00 2788976.00 L 19889858.00 411024.00 L 19877377.00 380891.00 L 19847244.00 368410.00 L 17693701.00 368410.00 L 17663568.00 380891.00 L 17651087.00 411024.00 L 17663568.00 441157.00 L 17693701.00 453638.00 L 19804630.00 453638.00 L 19804630.00 2746362.00 L 15795370.00 2746362.00 L 15795370.00 453638.00 L 16906299.00 453638.00 L 16936432.00 441157.00 L 16948913.00 411024.00 L 16936432.00 380891.00 L 16906299.00 368410.00 L 15752756.00 368410.00 L 15722623.00 380891.00 L 15710142.00 411024.00 L 15710142.00 2788976.00 L 15722623.00 2819109.00 L 15752756.00 2831590.00 L 19847244.00 2831590.00 L 19877377.00 2819109.00  z"/>
<path id="N" d="M 15377377.00 2769503.00 L 15389858.00 2739370.00 L 15389858.00 361418.00 L 15377377.00 331285.00 L 15347244.00 318804.00 L 11252756.00 318804.00 L 11222623.00 331285.00 L 11210142.00 361418.00 L 11210142.00 2739370.00 L 11222623.00 2769503.00 L 11252756.00 2781984.00 L 13406299.00 2781984.00 L 13436432.00 2769503.00 L 13448913.00 2739370.00 L 13436432.00 2709237.00 L 13406299.00 2696756.00 L 11295370.00 2696756.00 L 11295370.00 404032.00 L 15304630.00 404032.00 L 15304630.00 2696756.00 L 14193701.00 2696756.00 L 14163568.00 2709237.00 L 14151087.00 2739370.00 L 14163568.00 2769503.00 L 14193701.00 2781984.00 L 15347244.00 2781984.00 L 15377377.00 2769503.00  z"/>
<path id="N" d="M 16169871.00 3715686.00 L 16124023.00 3715686.00 L 16124024.00 3269968.00 L 16108172.00 3231699.00 L 16008204.00 3131731.00 L 15969935.00 3115880.00 L 15869968.00 3115879.00 L 15831699.00 3131731.00 L 15731731.00 3231699.00 A 54121.84 54121.84 0 0 0 15808269.00 3308237.00 L 15892386.00 3224120.00 L 15947517.00 3224120.00 L 16015783.00 3292386.00 L 16015783.00 3715686.00 L 15969935.00 3715686.00 A 54118.70 54118.70 0 0 0 15969935.00 3823926.00 L 16169871.00 3823926.00 A 54121.84 54121.84 0 1 0 16169871.00 3715686.00  z"/>
<path id="N" d="M 11419871.00 3725686.00 L 11374023.00 3725686.00 L 11374024.00 3279968.00 L 11358172.00 3241699.00 L 11258204.00 3141731.00 L 11219935.00 3125880.00 L 11119968.00 3125879.00 L 11081699.00 3141731.00 L 10981731.00 3241699.00 A 54121.84 54121.84 0 0 0 11058269.00 3318237.00 L 11142386.00 3234120.00 L 11197517.00 3234120.00 L 11265783.00 3302386.00 L 11265783.00 3725686.00 L 11219935.00 3725686.00 A 54118.70 54118.70 0 0 0 11219935.00 3833926.00 L 11419871.00 3833926.00 A 54121.84 54121.84 0 0 0 11419871.00 3725686.00  z"/>
<path id="N" d="M 18923797.00 16439806.00 L 18923797.00 15840000.00 A 54118.70 54118.70 0 0 0 18831407.29 15801732.71 L 18669740.79 15963397.60 L 18508075.00 15801731.00 A 54119.43 54119.43 0 0 0 18415686.00 15840002.41 L 18415686.00 16439806.00 A 54118.70 54118.70 0 0 0 18523926.00 16439806.00 L 18523926.00 15970657.54 L 18631472.00 16078204.00 L 18669741.00 16094056.00 L 18708010.00 16078204.00 L 18815557.00 15970657.00 L 18815557.00 16439806.00 A 54118.70 54118.70 0 0 0 18923797.00 16439806.00  z"/>
<path id="N" d="M 24622727.00 12773771.00 L 24632088.00 12751172.00 L 24632088.00 12586346.00 L 24796915.00 12586346.00 L 24819514.00 12576985.00 L 24828875.00 12554386.00 L 24819514.00 12531787.00 L 24796915.00 12522426.00 L 24632088.00 12522426.00 L 24632088.00 12357599.00 L 24622727.00 12335000.00 L 24600128.00 12325639.00 L 24577529.00 12335000.00 L 24568168.00 12357599.00 L 24568168.00 12522426.00 L 24403341.00 12522426.00 L 24380742.00 12531787.00 L 24371381.00 12554386.00 L 24380742.00 12576985.00 L 24403341.00 12586346.00 L 24568168.00 12586346.00 L 24568168.00 12751172.00 L 24577529.00 12773771.00 L 24600128.00 12783132.00 L 24622727.00 12773771.00  z"/>
<path id="N" d="M 30022727.00 12765897.00 L 30032088.00 12743298.00 L 30032088.00 12578472.00 L 30196915.00 12578472.00 L 30219514.00 12569111.00 L 30228875.00 12546512.00 L 30219514.00 12523913.00 L 30196915.00 12514552.00 L 30032088.00 12514552.00 L 30032088.00 12349725.00 L 30022727.00 12327126.00 L 30000128.00 12317765.00 L 29977529.00 12327126.00 L 29968168.00 12349725.00 L 29968168.00 12514552.00 L 29803341.00 12514552.00 L 29780742.00 12523913.00 L 29771381.00 12546512.00 L 29780742.00 12569111.00 L 29803341.00 12578472.00 L 29968168.00 12578472.00 L 29968168.00 12743298.00 L 29977529.00 12765897.00 L 30000128.00 12775258.00 L 30022727.00 12765897.00  z"/>
<path id="N" d="M 6922727.00 12783100.00 L 6932088.00 12760501.00 L 6932088.00 12595675.00 L 7096915.00 12595675.00 L 7119514.00 12586314.00 L 7128875.00 12563715.00 L 7119514.00 12541116.00 L 7096915.00 12531755.00 L 6932088.00 12531755.00 L 6932088.00 12366928.00 L 6922727.00 12344329.00 L 6900128.00 12334968.00 L 6877529.00 12344329.00 L 6868168.00 12366928.00 L 6868168.00 12531755.00 L 6703341.00 12531755.00 L 6680742.00 12541116.00 L 6671381.00 12563715.00 L 6680742.00 12586314.00 L 6703341.00 12595675.00 L 6868168.00 12595675.00 L 6868168.00 12760501.00 L 6877529.00 12783100.00 L 6900128.00 12792461.00 L 6922727.00 12783100.00  z"/>
<path id="N" d="M 1422727.00 12775226.00 L 1432088.00 12752627.00 L 1432088.00 12587801.00 L 1596915.00 12587801.00 L 1619514.00 12578440.00 L 1628875.00 12555841.00 L 1619514.00 12533242.00 L 1596915.00 12523881.00 L 1432088.00 12523881.00 L 1432088.00 12359054.00 L 1422727.00 12336455.00 L 1400128.00 12327094.00 L 1377529.00 12336455.00 L 1368168.00 12359054.00 L 1368168.00 12523881.00 L 1203341.00 12523881.00 L 1180742.00 12533242.00 L 1171381.00 12555841.00 L 1180742.00 12578440.00 L 1203341.00 12587801.00 L 1368168.00 12587801.00 L 1368168.00 12752627.00 L 1377529.00 12775226.00 L 1400128.00 12784587.00 L 1422727.00 12775226.00  z"/>
<path id="N" d="M 27322727.00 12765897.00 L 27332088.00 12743298.00 L 27332088.00 12578472.00 L 27496915.00 12578472.00 L 27519514.00 12569111.00 L 27528875.00 12546512.00 L 27519514.00 12523913.00 L 27496915.00 12514552.00 L 27332088.00 12514552.00 L 27332088.00 12349725.00 L 27322727.00 12327126.00 L 27300128.00 12317765.00 L 27277529.00 12327126.00 L 27268168.00 12349725.00 L 27268168.00 12514552.00 L 27103341.00 12514552.00 L 27080742.00 12523913.00 L 27071381.00 12546512.00 L 27080742.00 12569111.00 L 27103341.00 12578472.00 L 27268168.00 12578472.00 L 27268168.00 12743298.00 L 27277529.00 12765897.00 L 27300128.00 12775258.00 L 27322727.00 12765897.00  z"/>
<path id="N" d="M 4222727.00 12783100.00 L 4232088.00 12760501.00 L 4232088.00 12595675.00 L 4396915.00 12595675.00 L 4419514.00 12586314.00 L 4428875.00 12563715.00 L 4419514.00 12541116.00 L 4396915.00 12531755.00 L 4232088.00 12531755.00 L 4232088.00 12366928.00 L 4222727.00 12344329.00 L 4200128.00 12334968.00 L 4177529.00 12344329.00 L 4168168.00 12366928.00 L 4168168.00 12531755.00 L 4003341.00 12531755.00 L 3980742.00 12541116.00 L 3971381.00 12563715.00 L 3980742.00 12586314.00 L 4003341.00 12595675.00 L 4168168.00 12595675.00 L 4168168.00 12760501.00 L 4177529.00 12783100.00 L 4200128.00 12792461.00 L 4222727.00 12783100.00  z"/>
<path id="N" d="M 11973829.00 3779803.59 L 11973829.00 3534023.00 L 12019677.00 3534023.00 A 54118.70 54118.70 0 1 0 12019677.00 3425783.00 L 11973829.00 3425783.00 L 11973829.00 3180000.00 A 54118.70 54118.70 0 1 0 11865589.00 3180000.00 L 11865589.00 3425783.00 L 11619806.00 3425782.00 A 54122.11 54122.11 0 0 0 11581537.00 3518172.00 L 11881440.00 3818075.00 A 54119.43 54119.43 0 0 0 11973829.00 3779803.59  zM 11865589.00 3649148.00 L 11750464.00 3534023.00 L 11865589.00 3534023.00 L 11865589.00 3649148.00  z"/>
<path id="N" d="M 24654120.00 11999839.00 L 24654120.00 11953991.00 L 24899903.00 11953991.00 A 54118.70 54118.70 0 0 0 24899903.00 11845751.00 L 24654120.00 11845751.00 L 24654121.00 11599968.00 A 54122.11 54122.11 0 0 0 24561731.00 11561699.00 L 24261828.00 11861602.00 A 54119.43 54119.43 0 0 0 24300099.41 11953991.00 L 24545880.00 11953991.00 L 24545880.00 11999839.00 A 54118.70 54118.70 0 0 0 24654120.00 11999839.00  zM 24545880.00 11845751.00 L 24430755.00 11845751.00 L 24545880.00 11730626.00 L 24545880.00 11845751.00  z"/>
<path id="N" d="M 12218172.00 16638075.00 L 12318140.00 16538107.00 L 12333991.00 16499838.00 L 12333992.00 16299903.00 L 12318140.00 16261634.00 L 12218172.00 16161666.00 L 12179903.00 16145815.00 L 11934120.00 16145815.00 L 11934120.00 16000000.00 A 54118.70 54118.70 0 1 0 11825880.00 16000000.00 L 11825880.00 16599806.00 L 11841731.00 16638075.00 L 11880000.00 16653926.00 L 12179903.00 16653927.00 L 12218172.00 16638075.00  zM 12157485.00 16545686.00 L 11934120.00 16545686.00 L 11934120.00 16254055.00 L 12157485.00 16254055.00 L 12225751.00 16322321.00 L 12225751.00 16477420.00 L 12157485.00 16545686.00  z"/>
<path id="N" d="M 30220684.00 10392338.00 L 30233165.00 10362205.00 L 30220684.00 10332072.00 L 30190551.00 10319591.00 L 29672141.00 10319591.00 L 29672141.00 2365449.00 L 30708961.00 2365449.00 L 30708961.00 9842520.00 L 30721442.00 9872653.00 L 30751575.00 9885134.00 L 30781708.00 9872653.00 L 30794189.00 9842520.00 L 30794189.00 2322835.00 L 30781708.00 2292702.00 L 30751575.00 2280221.00 L 29629527.00 2280221.00 L 29599394.00 2292702.00 L 29586913.00 2322835.00 L 29586913.00 10362205.00 L 29599394.00 10392338.00 L 29629527.00 10404819.00 L 30190551.00 10404819.00 L 30220684.00 10392338.00  z"/>
<path id="N" d="M 10333894.00 7279803.59 L 10333894.00 6734120.00 L 10379741.00 6734120.00 A 54118.70 54118.70 0 0 0 10379741.00 6625880.00 L 10179806.00 6625880.00 A 54118.70 54118.70 0 0 0 10179806.00 6734120.00 L 10225654.00 6734120.00 L 10225654.00 7149148.00 L 10218075.00 7141569.00 A 54121.84 54121.84 0 1 0 10141537.00 7218107.00 L 10241505.00 7318075.00 A 54119.43 54119.43 0 0 0 10333894.00 7279803.59  z"/>
<path id="N" d="M 6030133.00 10392338.00 L 6042614.00 10362205.00 L 6030133.00 10332072.00 L 6000000.00 10319591.00 L 5481590.00 10319591.00 L 5481590.00 2365449.00 L 6518410.00 2365449.00 L 6518410.00 9842520.00 L 6530891.00 9872653.00 L 6561024.00 9885134.00 L 6591157.00 9872653.00 L 6603638.00 9842520.00 L 6603638.00 2322835.00 L 6591157.00 2292702.00 L 6561024.00 2280221.00 L 5438976.00 2280221.00 L 5408843.00 2292702.00 L 5396362.00 2322835.00 L 5396362.00 10362205.00 L 5408843.00 10392338.00 L 5438976.00 10404819.00 L 6000000.00 10404819.00 L 6030133.00 10392338.00  z"/>
<path id="N" d="M 1430133.00 10392338.00 L 1442614.00 10362205.00 L 1430133.00 10332072.00 L 1400000.00 10319591.00 L 881590.00 10319591.00 L 881590.00 2365449.00 L 1918410.00 2365449.00 L 1918410.00 9842520.00 L 1930891.00 9872653.00 L 1961024.00 9885134.00 L 1991157.00 9872653.00 L 2003638.00 9842520.00 L 2003638.00 2322835.00 L 1991157.00 2292702.00 L 1961024.00 2280221.00 L 838976.00 2280221.00 L 808843.00 2292702.00 L 796362.00 2322835.00 L 796362.00 10362205.00 L 808843.00 10392338.00 L 838976.00 10404819.00 L 1400000.00 10404819.00 L 1430133.00 10392338.00  z"/>
<path id="N" d="M 25620684.00 10392338.00 L 25633165.00 10362205.00 L 25620684.00 10332072.00 L 25590551.00 10319591.00 L 25072141.00 10319591.00 L 25072141.00 2365449.00 L 26108961.00 2365449.00 L 26108961.00 9842520.00 L 26121442.00 9872653.00 L 26151575.00 9885134.00 L 26181708.00 9872653.00 L 26194189.00 9842520.00 L 26194189.00 2322835.00 L 26181708.00 2292702.00 L 26151575.00 2280221.00 L 25029527.00 2280221.00 L 24999394.00 2292702.00 L 24986913.00 2322835.00 L 24986913.00 10362205.00 L 24999394.00 10392338.00 L 25029527.00 10404819.00 L 25590551.00 10404819.00 L 25620684.00 10392338.00  z"/>
<path id="N" d="M 3654153.00 8042423.00 L 3654153.00 7542585.00 L 3638302.00 7504316.00 L 3538334.00 7404348.00 L 3500062.59 7388497.00 L 3300130.00 7388497.00 L 3261861.00 7404348.00 L 3161893.00 7504316.00 L 3146042.00 7542587.41 L 3146042.00 8042423.00 A 54118.70 54118.70 0 0 0 3254282.00 8042423.00 L 3254282.00 7565003.00 L 3322548.00 7496737.00 L 3477647.00 7496737.00 L 3545913.00 7565003.00 L 3545913.00 8042423.00 A 54118.70 54118.70 0 0 0 3654153.00 8042423.00  z"/>
<path id="N" d="M 27944672.00 6742423.00 L 27944672.00 6242585.00 L 27928821.00 6204316.00 L 27828853.00 6104348.00 L 27790581.59 6088497.00 L 27590649.00 6088497.00 L 27552380.00 6104348.00 L 27452412.00 6204316.00 L 27436561.00 6242587.41 L 27436561.00 6742423.00 A 54118.70 54118.70 0 0 0 27544801.00 6742423.00 L 27544801.00 6265003.00 L 27613067.00 6196737.00 L 27768166.00 6196737.00 L 27836432.00 6265003.00 L 27836432.00 6742423.00 A 54118.70 54118.70 0 0 0 27944672.00 6742423.00  z"/>
<path id="N" d="M 7138204.00 11255536.00 L 7238172.00 11155568.00 A 54119.43 54119.43 0 0 0 7199900.59 11063179.00 L 6654217.00 11063179.00 L 6654217.00 11017332.00 A 54118.70 54118.70 0 0 0 6545977.00 11017332.00 L 6545977.00 11217267.00 A 54118.70 54118.70 0 0 0 6654217.00 11217267.00 L 6654217.00 11171419.00 L 7069245.00 11171419.00 L 7061666.00 11178998.00 A 54121.84 54121.84 0 0 0 7138204.00 11255536.00  z"/>
<path id="N" d="M 16523894.00 3769803.59 L 16523894.00 3224120.00 L 16569741.00 3224120.00 A 54118.70 54118.70 0 0 0 16569741.00 3115880.00 L 16369806.00 3115880.00 A 54118.70 54118.70 0 1 0 16369806.00 3224120.00 L 16415654.00 3224120.00 L 16415654.00 3639148.00 L 16408075.00 3631569.00 A 54121.84 54121.84 0 1 0 16331537.00 3708107.00 L 16431505.00 3808075.00 A 54119.43 54119.43 0 0 0 16523894.00 3769803.59  z"/>
<path id="N" d="M 12633894.00 16599803.59 L 12633894.00 16054120.00 L 12679741.00 16054120.00 A 54118.70 54118.70 0 0 0 12679741.00 15945880.00 L 12479806.00 15945880.00 A 54118.70 54118.70 0 0 0 12479806.00 16054120.00 L 12525654.00 16054120.00 L 12525654.00 16469148.00 L 12518075.00 16461569.00 A 54121.84 54121.84 0 0 0 12441537.00 16538107.00 L 12541505.00 16638075.00 A 54119.43 54119.43 0 0 0 12633894.00 16599803.59  z"/>
<path id="N" d="M 28244575.00 6742420.59 L 28244575.00 6196737.00 L 28290422.00 6196737.00 A 54118.70 54118.70 0 0 0 28290422.00 6088497.00 L 28090487.00 6088497.00 A 54118.70 54118.70 0 0 0 28090487.00 6196737.00 L 28136335.00 6196737.00 L 28136335.00 6611765.00 L 28128756.00 6604186.00 A 54121.84 54121.84 0 1 0 28052218.00 6680724.00 L 28152186.00 6780692.00 A 54119.43 54119.43 0 0 0 28244575.00 6742420.59  z"/>
<path id="N" d="M 19223700.00 16439803.59 L 19223700.00 15894120.00 L 19269547.00 15894120.00 A 54118.70 54118.70 0 0 0 19269547.00 15785880.00 L 19069612.00 15785880.00 A 54118.70 54118.70 0 0 0 19069612.00 15894120.00 L 19115460.00 15894120.00 L 19115460.00 16309148.00 L 19107881.00 16301569.00 A 54121.84 54121.84 0 0 0 19031343.00 16378107.00 L 19131311.00 16478075.00 A 54119.43 54119.43 0 0 0 19223700.00 16439803.59  z"/>
<path id="N" d="M 14349998.47 11751967.47 m -100354.75 0 a 100354.75 100354.75 0 1 1 200709.51 0a 100354.75 100354.75 0 1 1 -200709.51 0"/>
<path id="N" d="M 22413598.00 15517535.00 L 22426079.00 15487402.00 L 22426079.00 13912598.00 L 22413598.00 13882465.00 L 22383465.00 13869984.00 L 17816535.00 13869984.00 L 17786402.00 13882465.00 L 17773921.00 13912598.00 L 17773921.00 15487402.00 L 17786402.00 15517535.00 L 17816535.00 15530016.00 L 22383465.00 15530016.00 L 22413598.00 15517535.00  zM 22340851.00 15444788.00 L 17859149.00 15444788.00 L 17859149.00 13955212.00 L 22340851.00 13955212.00 L 22340851.00 15444788.00  z"/>
<path id="N" d="M 15403755.00 15679740.00 L 15416236.00 15649607.00 L 15416236.00 12007874.00 L 15403755.00 11977741.00 L 15373622.00 11965260.00 L 11826378.00 11965260.00 L 11796245.00 11977741.00 L 11783764.00 12007874.00 L 11783764.00 15649607.00 L 11796245.00 15679740.00 L 11826378.00 15692221.00 L 15373622.00 15692221.00 L 15403755.00 15679740.00  zM 15331008.00 15606993.00 L 11868992.00 15606993.00 L 11868992.00 12050488.00 L 15331008.00 12050488.00 L 15331008.00 15606993.00  z"/>
<path id="N" d="M 11016533.47 1699998.47 m -100354.75 0 a 100354.75 100354.75 0 1 1 200709.51 0a 100354.75 100354.75 0 1 1 -200709.51 0"/>
<path id="N" d="M 20083463.47 1450392.47 m -100354.75 0 a 100354.75 100354.75 0 1 1 200709.51 0a 100354.75 100354.75 0 1 1 -200709.51 0"/>
<path id="N" d="M 21084250.47 13656691.47 m -100354.75 0 a 100354.75 100354.75 0 1 1 200709.51 0a 100354.75 100354.75 0 1 1 -200709.51 0"/>
</g>
</svg>
