<svg width="80.00000002mm" height="39.99999874mm" viewBox="0 0 31496063 15748031"  version="1.1" xmlns="http://www.w3.org/2000/svg" xmlns:xlink="http://www.w3.org/1999/xlink">
<desc>
Origin 0 0 Bound 0 1 31496063 15748031
</desc>
<g fill-rule="evenodd" fill="rgb(0, 0, 255)" stroke="black" stroke-width="1" transform="translate(0, 15748031) scale(1, -1) translate(0, -1)">
<path id="N" d="M 8248028.67 7374009.71 m -311728.46 0 a 311728.46 311728.46 0 1 1 623456.93 0a 311728.46 311728.46 0 1 1 -623456.93 0M 8248030.24 7374015.93 m -204721.07 0 a 204721.07 204721.07 0 1 1 409442.13 0a 204721.07 204721.07 0 1 1 -409442.13 0"/>
<path id="N" d="M 25590549.85 2842518.85 m -230814.01 0 a 230814.01 230814.01 0 1 1 461628.02 0a 230814.01 230814.01 0 1 1 -461628.02 0M 25590550.13 2842521.07 m -150528.93 0 a 150528.93 150528.93 0 1 1 301057.86 0a 150528.93 150528.93 0 1 1 -301057.86 0"/>
<path id="N" d="M 16299997.67 1450387.71 m -311728.46 0 a 311728.46 311728.46 0 1 1 623456.93 0a 311728.46 311728.46 0 1 1 -623456.93 0M 16299999.24 1450393.93 m -204721.07 0 a 204721.07 204721.07 0 1 1 409442.13 0a 204721.07 204721.07 0 1 1 -409442.13 0"/>
<path id="N" d="M 30190549.85 7842518.85 m -230814.01 0 a 230814.01 230814.01 0 1 1 461628.02 0a 230814.01 230814.01 0 1 1 -461628.02 0M 30190550.13 7842521.07 m -150528.93 0 a 150528.93 150528.93 0 1 1 301057.86 0a 150528.93 150528.93 0 1 1 -301057.86 0"/>
<path id="N" d="M 8248028.67 9374009.71 m -311728.46 0 a 311728.46 311728.46 0 1 1 623456.93 0a 311728.46 311728.46 0 1 1 -623456.93 0M 8248030.24 9374015.93 m -204721.07 0 a 204721.07 204721.07 0 1 1 409442.13 0a 204721.07 204721.07 0 1 1 -409442.13 0"/>
<path id="N" d="M 6000000.00 4611707.00 L 5989830.83 4613729.83 L 5676552.00 4300451.00 L 5676552.00 2708544.00 L 6532559.00 1852537.00 L 11490945.00 1852537.00 L 11490945.00 2009055.00 L 12109055.00 2009055.00 L 12109055.00 1390945.00 L 11490945.00 1390945.00 L 11490945.00 1547463.00 L 6469376.00 1547463.00 L 6411003.00 1559074.00 L 6361516.00 1592140.00 L 5416155.00 2537501.00 L 5383089.00 2586987.00 L 5371478.00 2645361.00 L 5371478.00 4363634.00 L 5383089.00 4422008.00 L 5416155.00 4471494.00 L 5772172.46 4827511.46 L 5769187.00 4842520.00 A 230814.94 230814.94 0 1 0 6000000.00 4611707.00  zM 5999999.13 4842521.07 m -150528.93 0 a 150528.93 150528.93 0 1 1 301057.86 0a 150528.93 150528.93 0 1 1 -301057.86 0M 11799999.24 1699999.93 m -204721.07 0 a 204721.07 204721.07 0 1 1 409442.13 0a 204721.07 204721.07 0 1 1 -409442.13 0"/>
<path id="N" d="M 23248028.67 6599993.71 m -311728.46 0 a 311728.46 311728.46 0 1 1 623456.93 0a 311728.46 311728.46 0 1 1 -623456.93 0M 23248030.24 6599999.93 m -204721.07 0 a 204721.07 204721.07 0 1 1 409442.13 0a 204721.07 204721.07 0 1 1 -409442.13 0"/>
<path id="N" d="M 18299997.67 1450387.71 m -311728.46 0 a 311728.46 311728.46 0 1 1 623456.93 0a 311728.46 311728.46 0 1 1 -623456.93 0M 18299999.24 1450393.93 m -204721.07 0 a 204721.07 204721.07 0 1 1 409442.13 0a 204721.07 204721.07 0 1 1 -409442.13 0"/>
<path id="N" d="M 30190549.85 5842518.85 m -230814.01 0 a 230814.01 230814.01 0 1 1 461628.02 0a 230814.01 230814.01 0 1 1 -461628.02 0M 30190550.13 5842521.07 m -150528.93 0 a 150528.93 150528.93 0 1 1 301057.86 0a 150528.93 150528.93 0 1 1 -301057.86 0"/>
<path id="N" d="M 31496063.00 0.00 L 100000.00 0.00 L 100000.00 15700000.00 L 31496063.00 15700000.00 L 31496063.00 0.00  zM 1400000.00 2842518.58 m -329195.65 0 a 329195.65 329195.65 0 1 1 658391.29 0a 329195.65 329195.65 0 1 1 -658391.29 0M 1400000.00 3842518.58 m -329195.65 0 a 329195.65 329195.65 0 1 1 658391.29 0a 329195.65 329195.65 0 1 1 -658391.29 0M 1179132.88 4792520.00 L 1075506.20 4792520.00 L 1095864.00 4716543.00 A 329197.42 329197.42 0 0 1 1274023.00 4538384.00 L 1350000.00 4518026.20 L 1350000.00 4621652.88 L 1311672.00 4629277.00 L 1236791.00 4679311.00 L 1186757.00 4754192.00 L 1179132.88 4792520.00  zM 1399999.13 4842521.07 m -150528.93 0 a 150528.93 150528.93 0 1 1 301057.86 0a 150528.93 150528.93 0 1 1 -301057.86 0M 1724493.80 4792520.00 L 1620867.12 4792520.00 L 1613243.00 4754192.00 L 1563209.00 4679311.00 L 1488328.00 4629277.00 L 1450000.00 4621652.88 L 1450000.00 4518026.20 L 1525977.00 4538384.00 A 329197.42 329197.42 0 0 1 1704136.00 4716543.00 L 1724493.80 4792520.00  zM 1350000.00 5167013.80 L 1274023.00 5146656.00 A 329197.42 329197.42 0 0 1 1095864.00 4968497.00 L 1075506.20 4892520.00 L 1179132.88 4892520.00 L 1186757.00 4930848.00 L 1236791.00 5005729.00 L 1311672.00 5055763.00 L 1350000.00 5063387.12 L 1350000.00 5167013.80  zM 1450000.00 5167013.80 L 1450000.00 5063387.12 L 1488328.00 5055763.00 L 1563209.00 5005729.00 L 1613243.00 4930848.00 L 1620867.12 4892520.00 L 1724493.80 4892520.00 L 1704136.00 4968497.00 A 329197.42 329197.42 0 0 1 1525977.00 5146656.00 L 1450000.00 5167013.80  zM 1400000.00 5842518.58 m -329195.65 0 a 329195.65 329195.65 0 1 1 658391.29 0a 329195.65 329195.65 0 1 1 -658391.29 0M 1179132.88 7792520.00 L 1075506.20 7792520.00 L 1095864.00 7716543.00 A 329197.42 329197.42 0 0 1 1274023.00 7538384.00 L 1350000.00 7518026.20 L 1350000.00 7621652.88 L 1311672.00 7629277.00 L 1236791.00 7679311.00 L 1186757.00 7754192.00 L 1179132.88 7792520.00  zM 1350000.00 8167013.80 L 1274023.00 8146656.00 A 329197.42 329197.42 0 0 1 1095864.00 7968497.00 L 1075506.20 7892520.00 L 1179132.88 7892520.00 L 1186757.00 7930848.00 L 1236791.00 8005729.00 L 1311672.00 8055763.00 L 1350000.00 8063387.12 L 1350000.00 8167013.80  zM 1399999.13 7842521.07 m -150528.93 0 a 150528.93 150528.93 0 1 1 301057.86 0a 150528.93 150528.93 0 1 1 -301057.86 0M 1724493.80 7792520.00 L 1620867.12 7792520.00 L 1613243.00 7754192.00 L 1563209.00 7679311.00 L 1488328.00 7629277.00 L 1450000.00 7621652.88 L 1450000.00 7518026.20 L 1525977.00 7538384.00 A 329197.42 329197.42 0 0 1 1704136.00 7716543.00 L 1724493.80 7792520.00  zM 1450000.00 8167013.80 L 1450000.00 8063387.12 L 1488328.00 8055763.00 L 1563209.00 8005729.00 L 1613243.00 7930848.00 L 1620867.12 7892520.00 L 1724493.80 7892520.00 L 1704136.00 7968497.00 A 329197.42 329197.42 0 0 1 1525977.00 8146656.00 L 1450000.00 8167013.80  zM 1179132.88 8792520.00 L 1075506.20 8792520.00 L 1095864.00 8716543.00 A 329197.42 329197.42 0 0 1 1274023.00 8538384.00 L 1350000.00 8518026.20 L 1350000.00 8621652.88 L 1311672.00 8629277.00 L 1236791.00 8679311.00 L 1186757.00 8754192.00 L 1179132.88 8792520.00  zM 1350000.00 9167013.80 L 1274023.00 9146656.00 A 329197.42 329197.42 0 0 1 1095864.00 8968497.00 L 1075506.20 8892520.00 L 1179132.88 8892520.00 L 1186757.00 8930848.00 L 1236791.00 9005729.00 L 1311672.00 9055763.00 L 1350000.00 9063387.12 L 1350000.00 9167013.80  zM 1399999.13 8842521.07 m -150528.93 0 a 150528.93 150528.93 0 1 1 301057.86 0a 150528.93 150528.93 0 1 1 -301057.86 0M 1724493.80 8792520.00 L 1620867.12 8792520.00 L 1613243.00 8754192.00 L 1563209.00 8679311.00 L 1488328.00 8629277.00 L 1450000.00 8621652.88 L 1450000.00 8518026.20 L 1525977.00 8538384.00 A 329197.42 329197.42 0 0 1 1704136.00 8716543.00 L 1724493.80 8792520.00  zM 5799599.00 6581353.00 L 5807215.96 6576955.32 L 5793818.34 6526955.00 L 1931853.00 6526955.00 L 1712193.55 6746614.45 L 1726378.00 6799552.00 A 329195.65 329195.65 0 1 1 1442968.00 6516142.00 L 1495905.55 6530326.45 L 1760360.00 6265872.00 L 1809977.00 6232719.00 L 1868504.00 6221077.00 L 7865525.67 6221077.00 L 7866852.00 6216127.00 A 412579.95 412579.95 0 1 1 7866852.00 6531905.00 L 7865525.67 6526955.00 L 6206181.66 6526955.00 L 6192784.04 6576955.32 L 6200401.00 6581353.00 A 329197.42 329197.42 0 1 1 5799599.00 6581353.00  zM 5779132.88 8792520.00 L 5675506.20 8792520.00 L 5695864.00 8716543.00 A 329197.42 329197.42 0 0 1 5874023.00 8538384.00 L 5950000.00 8518026.20 L 5950000.00 8621652.88 L 5911672.00 8629277.00 L 5836791.00 8679311.00 L 5786757.00 8754192.00 L 5779132.88 8792520.00  zM 5999999.13 2842521.07 m -150528.93 0 a 150528.93 150528.93 0 1 1 301057.86 0a 150528.93 150528.93 0 1 1 -301057.86 0M 6000000.00 7842518.58 m -329195.65 0 a 329195.65 329195.65 0 1 1 658391.29 0a 329195.65 329195.65 0 1 1 -658391.29 0M 6050000.00 3167013.80 L 6050000.00 3063387.12 L 6088328.00 3055763.00 L 6163209.00 3005729.00 L 6213243.00 2930848.00 L 6220867.12 2892520.00 L 6324493.80 2892520.00 L 6304136.00 2968497.00 A 329197.42 329197.42 0 0 1 6125977.00 3146656.00 L 6050000.00 3167013.80  zM 6000000.00 5842518.58 m -329195.65 0 a 329195.65 329195.65 0 1 1 658391.29 0a 329195.65 329195.65 0 1 1 -658391.29 0M 5999999.13 8842521.07 m -150528.93 0 a 150528.93 150528.93 0 1 1 301057.86 0a 150528.93 150528.93 0 1 1 -301057.86 0M 6324493.80 8792520.00 L 6220867.12 8792520.00 L 6213243.00 8754192.00 L 6163209.00 8679311.00 L 6088328.00 8629277.00 L 6050000.00 8621652.88 L 6050000.00 8518026.20 L 6125977.00 8538384.00 A 329197.42 329197.42 0 0 1 6304136.00 8716543.00 L 6324493.80 8792520.00  zM 12800000.00 1699995.92 m -412588.75 0 a 412588.75 412588.75 0 1 1 825177.51 0a 412588.75 412588.75 0 1 1 -825177.51 0M 13800000.00 2550392.92 m -250884.72 0 a 250884.72 250884.72 0 1 1 501769.45 0a 250884.72 250884.72 0 1 1 -501769.45 0M 8248031.00 7374011.92 m -412588.75 0 a 412588.75 412588.75 0 1 1 825177.51 0a 412588.75 412588.75 0 1 1 -825177.51 0M 8248031.00 8374011.92 m -412588.75 0 a 412588.75 412588.75 0 1 1 825177.51 0a 412588.75 412588.75 0 1 1 -825177.51 0M 13800000.00 1699995.92 m -412588.75 0 a 412588.75 412588.75 0 1 1 825177.51 0a 412588.75 412588.75 0 1 1 -825177.51 0M 14800000.00 1699995.92 m -412588.75 0 a 412588.75 412588.75 0 1 1 825177.51 0a 412588.75 412588.75 0 1 1 -825177.51 0M 16300000.00 1450389.92 m -412588.75 0 a 412588.75 412588.75 0 1 1 825177.51 0a 412588.75 412588.75 0 1 1 -825177.51 0M 17300000.00 599998.92 m -250884.72 0 a 250884.72 250884.72 0 1 1 501769.45 0a 250884.72 250884.72 0 1 1 -501769.45 0M 1450000.00 9167013.80 L 1450000.00 9063387.12 L 1488328.00 9055763.00 L 1563209.00 9005729.00 L 1613243.00 8930848.00 L 1620867.12 8892520.00 L 1724493.80 8892520.00 L 1704136.00 8968497.00 A 329197.42 329197.42 0 0 1 1525977.00 9146656.00 L 1450000.00 9167013.80  zM 1726378.00 10168898.00 L 1073622.00 10168898.00 L 1073622.00 9516142.00 L 1726378.00 9516142.00 L 1726378.00 10168898.00  zM 3095864.00 9716543.00 L 3116331.36 9681092.73 L 3079728.61 9644489.99 L 3075977.00 9646656.00 A 329195.65 329195.65 0 0 1 2824023.00 9646656.00 L 2820271.39 9644489.99 L 2783668.64 9681092.73 L 2804136.00 9716543.00 A 329195.65 329195.65 0 1 1 2625977.00 9538384.00 L 2629728.61 9540550.01 L 2666331.36 9503947.27 L 2645864.00 9468497.00 A 329195.65 329195.65 0 1 1 3254136.00 9468497.00 L 3233668.64 9503947.27 L 3270271.39 9540550.01 L 3274023.00 9538384.00 A 329195.65 329195.65 0 1 1 3095864.00 9716543.00  zM 1148469.59 14651455.00 L 1044937.43 14651455.00 L 1068349.00 14564081.00 L 1115205.00 14482924.00 L 1181469.00 14416660.00 L 1262626.00 14369804.00 L 1350000.00 14346392.42 L 1350000.00 14449924.59 L 1333195.00 14452137.00 A 258108.20 258108.20 0 0 0 1150682.00 14634650.00 L 1148469.59 14651455.00  zM 1755062.58 14651455.00 L 1651530.41 14651455.00 L 1649318.00 14634650.00 A 258122.37 258122.37 0 0 0 1466805.00 14452137.00 L 1450000.00 14449924.59 L 1450000.00 14346392.43 L 1537374.00 14369804.00 L 1618531.00 14416660.00 L 1684795.00 14482924.00 L 1731651.00 14564081.00 L 1755062.58 14651455.00  zM 5950000.00 9167013.80 L 5874023.00 9146656.00 A 329197.42 329197.42 0 0 1 5695864.00 8968497.00 L 5675506.20 8892520.00 L 5779132.88 8892520.00 L 5786757.00 8930848.00 L 5836791.00 9005729.00 L 5911672.00 9055763.00 L 5950000.00 9063387.12 L 5950000.00 9167013.80  zM 6050000.00 9167013.80 L 6050000.00 9063387.12 L 6088328.00 9055763.00 L 6163209.00 9005729.00 L 6213243.00 8930848.00 L 6220867.12 8892520.00 L 6324493.80 8892520.00 L 6304136.00 8968497.00 A 329197.42 329197.42 0 0 1 6125977.00 9146656.00 L 6050000.00 9167013.80  zM 3948469.59 14659329.00 L 3844937.43 14659329.00 L 3868349.00 14571955.00 L 3915205.00 14490798.00 L 3981469.00 14424534.00 L 4062626.00 14377678.00 L 4150000.00 14354266.42 L 4150000.00 14457798.59 L 4133195.00 14460011.00 A 258108.20 258108.20 0 0 0 3950682.00 14642524.00 L 3948469.59 14659329.00  zM 6648469.59 14659329.00 L 6544937.43 14659329.00 L 6568349.00 14571955.00 L 6615205.00 14490798.00 L 6681469.00 14424534.00 L 6762626.00 14377678.00 L 6850000.00 14354266.42 L 6850000.00 14457798.59 L 6833195.00 14460011.00 A 258108.20 258108.20 0 0 0 6650682.00 14642524.00 L 6648469.59 14659329.00  zM 1350000.00 15056517.57 L 1262626.00 15033106.00 L 1181469.00 14986250.00 L 1115205.00 14919986.00 L 1068349.00 14838829.00 L 1044937.42 14751455.00 L 1148469.59 14751455.00 L 1150682.00 14768260.00 A 258122.37 258122.37 0 0 0 1333195.00 14950773.00 L 1350000.00 14952985.41 L 1350000.00 15056517.57  zM 1399998.59 14701456.48 m -160563.52 0 a 160563.52 160563.52 0 1 1 321127.04 0a 160563.52 160563.52 0 1 1 -321127.04 0M 1450000.00 15056517.58 L 1450000.00 14952985.41 L 1466805.00 14950773.00 A 258108.20 258108.20 0 0 0 1649318.00 14768260.00 L 1651530.41 14751455.00 L 1755062.57 14751455.00 L 1731651.00 14838829.00 L 1684795.00 14919986.00 L 1618531.00 14986250.00 L 1537374.00 15033106.00 L 1450000.00 15056517.58  zM 4150000.00 15064391.57 L 4062626.00 15040980.00 L 3981469.00 14994124.00 L 3915205.00 14927860.00 L 3868349.00 14846703.00 L 3844937.42 14759329.00 L 3948469.59 14759329.00 L 3950682.00 14776134.00 A 258122.37 258122.37 0 0 0 4133195.00 14958647.00 L 4150000.00 14960859.41 L 4150000.00 15064391.57  zM 4199998.59 14709330.48 m -160563.52 0 a 160563.52 160563.52 0 1 1 321127.04 0a 160563.52 160563.52 0 1 1 -321127.04 0M 4250000.00 15064391.58 L 4250000.00 14960859.41 L 4266805.00 14958647.00 A 258108.20 258108.20 0 0 0 4449318.00 14776134.00 L 4451530.41 14759329.00 L 4555062.57 14759329.00 L 4531651.00 14846703.00 L 4484795.00 14927860.00 L 4418531.00 14994124.00 L 4337374.00 15040980.00 L 4250000.00 15064391.58  zM 4555062.58 14659329.00 L 4451530.41 14659329.00 L 4449318.00 14642524.00 A 258122.37 258122.37 0 0 0 4266805.00 14460011.00 L 4250000.00 14457798.59 L 4250000.00 14354266.43 L 4337374.00 14377678.00 L 4418531.00 14424534.00 L 4484795.00 14490798.00 L 4531651.00 14571955.00 L 4555062.58 14659329.00  zM 6850000.00 15064391.57 L 6762626.00 15040980.00 L 6681469.00 14994124.00 L 6615205.00 14927860.00 L 6568349.00 14846703.00 L 6544937.42 14759329.00 L 6648469.59 14759329.00 L 6650682.00 14776134.00 A 258122.37 258122.37 0 0 0 6833195.00 14958647.00 L 6850000.00 14960859.41 L 6850000.00 15064391.57  zM 8248031.00 9374011.92 m -412588.75 0 a 412588.75 412588.75 0 1 1 825177.51 0a 412588.75 412588.75 0 1 1 -825177.51 0M 8248031.00 10374011.92 m -412588.75 0 a 412588.75 412588.75 0 1 1 825177.51 0a 412588.75 412588.75 0 1 1 -825177.51 0M 7942891.80 11324015.99 L 7838976.00 11324015.98 L 7866852.00 11216127.00 L 7920705.00 11122850.00 L 7996865.00 11046690.00 L 8090142.00 10992837.00 L 8198031.02 10964961.00 L 8198031.01 11068876.79 L 8167351.00 11072916.00 A 311728.46 311728.46 0 0 0 7946931.00 11293336.00 L 7942891.80 11324015.99  zM 8248030.24 11374015.93 m -204721.07 0 a 204721.07 204721.07 0 1 1 409442.13 0a 204721.07 204721.07 0 1 1 -409442.13 0M 8198030.98 11783071.00 L 8090142.00 11755195.00 L 7996865.00 11701342.00 L 7920705.00 11625182.00 L 7866852.00 11531905.00 L 7838976.00 11424015.98 L 7942891.79 11424015.99 L 7946931.00 11454696.00 A 311728.46 311728.46 0 0 0 8167351.00 11675116.00 L 8198030.99 11679155.20 L 8198030.98 11783071.00  zM 7255062.58 14659329.00 L 7151530.41 14659329.00 L 7149318.00 14642524.00 A 258122.37 258122.37 0 0 0 6966805.00 14460011.00 L 6950000.00 14457798.59 L 6950000.00 14354266.43 L 7037374.00 14377678.00 L 7118531.00 14424534.00 L 7184795.00 14490798.00 L 7231651.00 14571955.00 L 7255062.58 14659329.00  zM 6899998.59 14709330.48 m -160563.52 0 a 160563.52 160563.52 0 1 1 321127.04 0a 160563.52 160563.52 0 1 1 -321127.04 0M 6950000.00 15064391.58 L 6950000.00 14960859.41 L 6966805.00 14958647.00 A 258108.20 258108.20 0 0 0 7149318.00 14776134.00 L 7151530.41 14759329.00 L 7255062.57 14759329.00 L 7231651.00 14846703.00 L 7184795.00 14927860.00 L 7118531.00 14994124.00 L 7037374.00 15040980.00 L 6950000.00 15064391.58  zM 8657086.00 11324016.02 L 8553170.21 11324016.01 L 8549131.00 11293336.00 A 311728.46 311728.46 0 0 0 8328711.00 11072916.00 L 8298031.01 11068876.80 L 8298031.02 10964961.00 L 8405920.00 10992837.00 L 8499197.00 11046690.00 A 412579.95 412579.95 0 0 1 8657086.00 11320163.00 L 8657086.00 11324016.02  zM 8298030.98 11783071.00 L 8298030.99 11679155.21 L 8328711.00 11675116.00 A 311728.46 311728.46 0 0 0 8549131.00 11454696.00 L 8553170.20 11424016.01 L 8657086.00 11424016.02 L 8629210.00 11531905.00 L 8575357.00 11625182.00 L 8499197.00 11701342.00 L 8405920.00 11755195.00 L 8298030.98 11783071.00  zM 12519049.54 12449999.97 L 12415355.00 12449999.96 L 12415355.00 12442778.00 A 438394.74 438394.74 0 0 1 12792778.00 12065355.00 L 12800000.04 12065355.00 L 12800000.03 12169049.53 L 12762640.00 12173968.00 A 337548.83 337548.83 0 0 0 12523968.00 12412640.00 L 12519049.54 12449999.97  zM 12799999.96 12934645.00 L 12792778.00 12934645.00 A 438394.74 438394.74 0 0 1 12415355.00 12557222.00 L 12415355.00 12549999.96 L 12519049.53 12549999.97 L 12523968.00 12587360.00 A 337548.83 337548.83 0 0 0 12762640.00 12826032.00 L 12799999.97 12830950.46 L 12799999.96 12934645.00  zM 12849996.50 12500009.68 m -240838.32 0 a 240838.32 240838.32 0 1 1 481676.63 0a 240838.32 240838.32 0 1 1 -481676.63 0M 12907222.00 12934645.00 L 12899999.96 12934645.00 L 12899999.97 12830950.47 L 12937360.00 12826032.00 A 337548.83 337548.83 0 0 0 13176032.00 12587360.00 L 13180950.46 12550000.03 L 13284645.00 12550000.04 L 13284645.00 12557222.00 A 438394.74 438394.74 0 0 1 12907222.00 12934645.00  zM 13284645.00 12450000.04 L 13180950.47 12450000.03 L 13176032.00 12412640.00 A 337548.83 337548.83 0 0 0 12937360.00 12173968.00 L 12900000.03 12169049.54 L 12900000.04 12065355.00 L 12907222.00 12065355.00 A 438394.74 438394.74 0 0 1 13284645.00 12442778.00 L 13284645.00 12450000.04  zM 7255905.00 14080982.00 L 6544095.00 14080982.00 L 6544095.00 13975636.00 L 4555905.00 13975636.00 L 4555905.00 14080982.00 L 3844095.00 14080982.00 L 3844095.00 13975636.00 L 1755905.00 13975636.00 L 1755905.00 14073108.00 L 1044095.00 14073108.00 L 1044095.00 13361298.00 L 1755905.00 13361298.00 L 1755905.00 13466644.00 L 3844095.00 13466644.00 L 3844095.00 13369172.00 L 4555905.00 13369172.00 L 4555905.00 13466644.00 L 6216326.25 13466644.00 L 6235460.60 13420449.60 L 5820044.00 13005033.00 L 5764876.00 12922469.00 L 5745504.00 12825077.00 L 5745504.00 10168898.00 L 5673622.00 10168898.00 L 5673622.00 9516142.00 L 6326378.00 9516142.00 L 6326378.00 10168898.00 L 6254496.00 10168898.00 L 6254496.00 12719661.00 L 6904007.00 13369172.00 L 7255905.00 13369172.00 L 7255905.00 13470581.00 L 13019507.06 13470581.00 L 13915355.00 12574733.79 L 13915355.00 12065355.00 L 14784645.00 12065355.00 L 14784645.00 12574733.00 L 15671164.00 13461252.00 L 24244095.00 13461252.00 L 24244095.00 13359843.00 L 24955905.00 13359843.00 L 24955905.00 13457315.00 L 26944095.00 13457315.00 L 26944095.00 13351969.00 L 27655905.00 13351969.00 L 27655905.00 13457315.00 L 29644095.00 13457315.00 L 29644095.00 13351969.00 L 29936055.00 13351969.00 L 29936055.00 10168898.00 L 29864173.00 10168898.00 L 29864173.00 9516142.00 L 30516929.00 9516142.00 L 30516929.00 10168898.00 L 30445047.00 10168898.00 L 30445047.00 13517323.00 L 30425675.00 13614715.00 L 30370507.00 13697279.00 L 30355905.00 13711881.00 L 30355905.00 14063779.00 L 29644095.00 14063779.00 L 29644095.00 13966307.00 L 27655905.00 13966307.00 L 27655905.00 14063779.00 L 26944095.00 14063779.00 L 26944095.00 13966307.00 L 24955905.00 13966307.00 L 24955905.00 14071653.00 L 24244095.00 14071653.00 L 24244095.00 13970244.00 L 15565748.00 13970244.00 L 15468357.00 13950872.00 L 15385792.00 13895704.00 L 14424733.00 12934645.00 L 14275266.21 12934645.00 L 13304879.00 13905033.00 L 13222315.00 13960201.00 L 13124923.00 13979573.00 L 7255905.00 13979573.00 L 7255905.00 14080982.00  zM 17300000.00 1450389.92 m -412588.75 0 a 412588.75 412588.75 0 1 1 825177.51 0a 412588.75 412588.75 0 1 1 -825177.51 0M 23657086.00 12009055.00 L 22838976.00 12009055.00 L 22838976.00 11854496.00 L 15474015.00 11854497.00 L 15376623.00 11835124.00 L 15294059.00 11779956.00 L 8627818.11 5113715.11 L 8587807.94 5144415.86 L 8629210.00 5216127.00 A 412588.75 412588.75 0 1 1 8405920.00 4992837.00 L 8477631.14 5034239.06 L 8508331.89 4994228.89 L 8297174.00 4783071.00 L 7838976.00 4783071.00 L 7838976.00 4324873.00 L 7611119.00 4097016.00 L 6207072.00 4097016.00 L 6200401.00 4103687.00 A 329189.62 329189.62 0 0 1 5874023.00 4146656.00 L 5828511.50 4120379.75 L 5778511.00 4149247.46 L 5778511.00 4258218.00 L 6036435.00 4516142.00 L 6042968.00 4516142.00 A 329189.62 329189.62 0 1 1 5673622.00 4885488.00 L 5673622.00 4873153.00 L 5344059.00 4543590.00 L 5288891.00 4461026.00 L 5269519.00 4363634.00 L 5269519.00 2645361.00 L 5288891.00 2547969.00 L 5344059.00 2465405.00 L 6289420.00 1520044.00 L 6371985.00 1464876.00 L 6469376.00 1445504.00 L 11390945.00 1445504.00 L 11390945.00 1290945.00 L 12209055.00 1290945.00 L 12209055.00 2109055.00 L 11390945.00 2109055.00 L 11390945.00 1954496.00 L 6574792.00 1954496.00 L 6060273.38 2469014.62 L 6075216.50 2524782.88 L 6125977.00 2538384.00 A 329197.42 329197.42 0 0 1 6304136.00 2716543.00 L 6324493.80 2792520.00 L 6220867.12 2792520.00 L 6213243.00 2754192.00 A 230814.01 230814.01 0 1 0 5911672.00 3055763.00 L 5950000.00 3063387.12 L 5950000.00 3167013.80 L 5874023.00 3146656.00 L 5828511.50 3120379.75 L 5778511.00 3149247.46 L 5778511.00 3535792.54 L 5828511.50 3564660.25 L 5874023.00 3538384.00 A 329195.65 329195.65 0 0 1 6200401.00 3581353.00 L 6207072.00 3588024.00 L 7716535.00 3588024.00 L 7813927.00 3607396.00 L 7896491.00 3662564.00 L 8198888.00 3964961.00 L 8657086.00 3964961.00 L 8657086.00 4423159.00 L 15579431.00 11345504.00 L 22838976.00 11345504.00 L 22838976.00 11190945.00 L 23297174.00 11190945.00 L 23508331.89 10979787.11 L 23477631.14 10939776.94 L 23405920.00 10981179.00 A 412588.75 412588.75 0 1 1 23629210.00 10757889.00 L 23587807.94 10829600.14 L 23627818.11 10860300.89 L 24229829.00 10258290.00 L 24229829.00 9948746.00 L 24249201.00 9851354.00 L 24304369.00 9768790.00 L 25264173.00 8808986.00 L 25264173.00 8799552.00 A 329189.62 329189.62 0 0 1 25547583.00 8516142.00 L 25557017.00 8516142.00 L 27636055.00 6437104.00 L 27636055.00 6142520.00 L 27655427.00 6045128.00 L 27710595.00 5962564.00 L 29864173.00 3808986.00 L 29864173.00 3799552.00 A 329189.62 329189.62 0 1 1 30233519.00 4168898.00 L 30224085.00 4168898.00 L 28145047.00 6247936.00 L 28145047.00 6542520.00 L 28125675.00 6639911.00 L 28070507.00 6722476.00 L 25916929.00 8876054.00 L 25916929.00 8885488.00 A 329189.62 329189.62 0 0 1 25633519.00 9168898.00 L 25624085.00 9168898.00 L 25323035.40 9469947.60 L 25342169.75 9516142.00 L 25916929.00 9516142.00 L 25916929.00 10168898.00 L 25264173.00 10168898.00 L 25264173.00 9594138.75 L 25217978.60 9575004.40 L 24738821.00 10054162.00 L 24738821.00 10363706.00 L 24719449.00 10461098.00 L 24664281.00 10543662.00 L 23657086.00 11550857.00 L 23657086.00 12009055.00  zM 18300000.00 1450389.92 m -412588.75 0 a 412588.75 412588.75 0 1 1 825177.51 0a 412588.75 412588.75 0 1 1 -825177.51 0M 19709055.00 1859449.00 L 18890945.00 1859449.00 L 18890945.00 1041339.00 L 19709055.00 1041339.00 L 19709055.00 1859449.00  zM 23198032.00 5009055.00 L 23090142.00 4981179.00 L 22996865.00 4927326.00 L 22920705.00 4851166.00 L 22866852.00 4757889.00 L 22838976.00 4650001.00 L 22942891.93 4650001.00 L 22946931.00 4680680.00 A 311728.46 311728.46 0 0 0 23167351.00 4901100.00 L 23198032.00 4905139.33 L 23198032.00 5009055.00  zM 22942891.67 4550001.00 L 22838976.00 4550001.00 L 22866852.00 4442111.00 L 22920705.00 4348834.00 L 22996865.00 4272674.00 L 23090142.00 4218821.00 L 23198032.00 4190945.00 L 23198032.00 4294860.66 L 23167351.00 4298900.00 A 311728.46 311728.46 0 0 0 22946931.00 4519320.00 L 22942891.67 4550001.00  zM 23248030.24 4599999.93 m -204721.07 0 a 204721.07 204721.07 0 1 1 409442.13 0a 204721.07 204721.07 0 1 1 -409442.13 0M 23248031.00 6599995.92 m -412588.75 0 a 412588.75 412588.75 0 1 1 825177.51 0a 412588.75 412588.75 0 1 1 -825177.51 0M 23248031.00 7599995.92 m -412588.75 0 a 412588.75 412588.75 0 1 1 825177.51 0a 412588.75 412588.75 0 1 1 -825177.51 0M 23657086.00 4550001.00 L 23553170.34 4550001.00 L 23549131.00 4519320.00 A 311728.46 311728.46 0 0 0 23328711.00 4298900.00 L 23298032.00 4294860.93 L 23298032.00 4190945.00 L 23405920.00 4218821.00 L 23499197.00 4272674.00 A 412579.95 412579.95 0 0 1 23657086.00 4546147.00 L 23657086.00 4550001.00  zM 23298032.00 5009055.00 L 23298032.00 4905139.07 L 23328711.00 4901100.00 A 311728.46 311728.46 0 0 0 23549131.00 4680680.00 L 23553170.07 4650001.00 L 23657086.00 4650001.00 L 23629210.00 4757889.00 L 23575357.00 4851166.00 L 23499197.00 4927326.00 L 23405920.00 4981179.00 L 23298032.00 5009055.00  zM 25590551.00 3842518.58 m -329195.65 0 a 329195.65 329195.65 0 1 1 658391.29 0a 329195.65 329195.65 0 1 1 -658391.29 0M 25369683.69 4792521.00 L 25266056.94 4792521.00 L 25286415.00 4716543.00 A 329197.42 329197.42 0 0 1 25464574.00 4538384.00 L 25540552.00 4518025.93 L 25540552.00 4621652.68 L 25502223.00 4629277.00 L 25427342.00 4679311.00 L 25377308.00 4754192.00 L 25369683.69 4792521.00  zM 25590550.13 4842521.07 m -150528.93 0 a 150528.93 150528.93 0 1 1 301057.86 0a 150528.93 150528.93 0 1 1 -301057.86 0M 25540552.00 5167014.06 L 25464574.00 5146656.00 A 329197.42 329197.42 0 0 1 25286415.00 4968497.00 L 25266057.47 4892521.00 L 25369684.08 4892521.00 L 25377308.00 4930848.00 L 25427342.00 5005729.00 L 25502223.00 5055763.00 L 25540552.00 5063387.31 L 25540552.00 5167014.06  zM 23248031.00 5599995.92 m -412588.75 0 a 412588.75 412588.75 0 1 1 825177.51 0a 412588.75 412588.75 0 1 1 -825177.51 0M 25369683.69 7792521.00 L 25266056.94 7792521.00 L 25286415.00 7716543.00 A 329197.42 329197.42 0 0 1 25464574.00 7538384.00 L 25540552.00 7518025.93 L 25540552.00 7621652.68 L 25502223.00 7629277.00 L 25427342.00 7679311.00 L 25377308.00 7754192.00 L 25369683.69 7792521.00  zM 25590551.00 2842518.58 m -329195.65 0 a 329195.65 329195.65 0 1 1 658391.29 0a 329195.65 329195.65 0 1 1 -658391.29 0M 25915045.07 4792521.00 L 25811418.32 4792521.00 L 25803794.00 4754192.00 L 25753760.00 4679311.00 L 25678879.00 4629277.00 L 25640552.00 4621653.08 L 25640552.00 4518026.47 L 25716528.00 4538384.00 A 329197.42 329197.42 0 0 1 25894687.00 4716543.00 L 25915045.07 4792521.00  zM 29969683.69 2792521.00 L 29866056.94 2792521.00 L 29886415.00 2716543.00 A 329197.42 329197.42 0 0 1 30064574.00 2538384.00 L 30140552.00 2518025.93 L 30140552.00 2621652.68 L 30102223.00 2629277.00 L 30027342.00 2679311.00 L 29977308.00 2754192.00 L 29969683.69 2792521.00  zM 30140552.00 3167014.06 L 30064574.00 3146656.00 A 329197.42 329197.42 0 0 1 29886415.00 2968497.00 L 29866057.47 2892521.00 L 29969684.08 2892521.00 L 29977308.00 2930848.00 L 30027342.00 3005729.00 L 30102223.00 3055763.00 L 30140552.00 3063387.31 L 30140552.00 3167014.06  zM 30190550.13 2842521.07 m -150528.93 0 a 150528.93 150528.93 0 1 1 301057.86 0a 150528.93 150528.93 0 1 1 -301057.86 0M 30515045.07 2792521.00 L 30411418.32 2792521.00 L 30403794.00 2754192.00 L 30353760.00 2679311.00 L 30278879.00 2629277.00 L 30240552.00 2621653.08 L 30240552.00 2518026.47 L 30316528.00 2538384.00 A 329197.42 329197.42 0 0 1 30494687.00 2716543.00 L 30515045.07 2792521.00  zM 30240552.00 3167013.53 L 30240552.00 3063386.92 L 30278879.00 3055763.00 L 30353760.00 3005729.00 L 30403794.00 2930848.00 L 30411417.92 2892521.00 L 30515044.53 2892521.00 L 30494687.00 2968497.00 A 329197.42 329197.42 0 0 1 30316528.00 3146656.00 L 30240552.00 3167013.53  zM 30190551.00 4842518.58 m -329195.65 0 a 329195.65 329195.65 0 1 1 658391.29 0a 329195.65 329195.65 0 1 1 -658391.29 0M 25640552.00 5167013.53 L 25640552.00 5063386.92 L 25678879.00 5055763.00 L 25753760.00 5005729.00 L 25803794.00 4930848.00 L 25811417.92 4892521.00 L 25915044.53 4892521.00 L 25894687.00 4968497.00 A 329197.42 329197.42 0 0 1 25716528.00 5146656.00 L 25640552.00 5167013.53  zM 25590551.00 5842518.58 m -329195.65 0 a 329195.65 329195.65 0 1 1 658391.29 0a 329195.65 329195.65 0 1 1 -658391.29 0M 25590551.00 6842518.58 m -329195.65 0 a 329195.65 329195.65 0 1 1 658391.29 0a 329195.65 329195.65 0 1 1 -658391.29 0M 25590550.13 7842521.07 m -150528.93 0 a 150528.93 150528.93 0 1 1 301057.86 0a 150528.93 150528.93 0 1 1 -301057.86 0M 25915045.07 7792521.00 L 25811418.32 7792521.00 L 25803794.00 7754192.00 L 25753760.00 7679311.00 L 25678879.00 7629277.00 L 25640552.00 7621653.08 L 25640552.00 7518026.47 L 25716528.00 7538384.00 A 329197.42 329197.42 0 0 1 25894687.00 7716543.00 L 25915045.07 7792521.00  zM 30190551.00 6842518.58 m -329195.65 0 a 329195.65 329195.65 0 1 1 658391.29 0a 329195.65 329195.65 0 1 1 -658391.29 0M 30190551.00 5842518.58 m -329195.65 0 a 329195.65 329195.65 0 1 1 658391.29 0a 329195.65 329195.65 0 1 1 -658391.29 0M 30190551.00 7842518.58 m -329195.65 0 a 329195.65 329195.65 0 1 1 658391.29 0a 329195.65 329195.65 0 1 1 -658391.29 0M 23248031.00 8599995.92 m -412588.75 0 a 412588.75 412588.75 0 1 1 825177.51 0a 412588.75 412588.75 0 1 1 -825177.51 0M 23248031.00 9599995.92 m -412588.75 0 a 412588.75 412588.75 0 1 1 825177.51 0a 412588.75 412588.75 0 1 1 -825177.51 0M 18824507.60 14649999.97 L 18720473.00 14649999.97 A 394989.98 394989.98 0 0 1 19065748.03 14304725.00 L 19065748.03 14408759.60 L 19038666.00 14412325.00 A 297829.90 297829.90 0 0 0 18828073.00 14622918.00 L 18824507.60 14649999.97  zM 19511023.00 14650000.03 L 19406988.40 14650000.03 L 19403423.00 14622918.00 A 297829.90 297829.90 0 0 0 19192830.00 14412325.00 L 19165748.03 14408759.60 L 19165748.03 14304725.00 A 394989.98 394989.98 0 0 1 19511023.00 14647961.00 L 19511023.00 14650000.03  zM 25540552.00 8167014.06 L 25464574.00 8146656.00 A 329197.42 329197.42 0 0 1 25286415.00 7968497.00 L 25266057.47 7892521.00 L 25369684.08 7892521.00 L 25377308.00 7930848.00 L 25427342.00 8005729.00 L 25502223.00 8055763.00 L 25540552.00 8063387.31 L 25540552.00 8167014.06  zM 25640552.00 8167013.53 L 25640552.00 8063386.92 L 25678879.00 8055763.00 L 25753760.00 8005729.00 L 25803794.00 7930848.00 L 25811417.92 7892521.00 L 25915044.53 7892521.00 L 25894687.00 7968497.00 A 329197.42 329197.42 0 0 1 25716528.00 8146656.00 L 25640552.00 8167013.53  zM 24348469.59 14650000.00 L 24244937.43 14650000.00 L 24268349.00 14562626.00 L 24315205.00 14481469.00 L 24381469.00 14415205.00 L 24462626.00 14368349.00 L 24550000.00 14344937.42 L 24550000.00 14448469.59 L 24533195.00 14450682.00 A 258122.37 258122.37 0 0 0 24350682.00 14633195.00 L 24348469.59 14650000.00  zM 24955062.58 14650000.00 L 24851530.41 14650000.00 L 24849318.00 14633195.00 A 258122.37 258122.37 0 0 0 24666805.00 14450682.00 L 24650000.00 14448469.59 L 24650000.00 14344937.43 L 24737374.00 14368349.00 L 24818531.00 14415205.00 L 24884795.00 14481469.00 L 24931651.00 14562626.00 L 24955062.58 14650000.00  zM 19065747.97 15095275.00 A 394989.98 394989.98 0 0 1 18720473.00 14749999.97 L 18824507.60 14749999.97 L 18828073.00 14777082.00 A 297829.90 297829.90 0 0 0 19038666.00 14987675.00 L 19065747.97 14991240.40 L 19065747.97 15095275.00  zM 19115748.36 14700000.47 m -200706.53 0 a 200706.53 200706.53 0 1 1 401413.05 0a 200706.53 200706.53 0 1 1 -401413.05 0M 19165747.97 15095275.00 L 19165747.97 14991240.40 L 19192830.00 14987675.00 A 297829.90 297829.90 0 0 0 19403423.00 14777082.00 L 19406988.40 14750000.03 L 19511023.00 14750000.03 A 394989.98 394989.98 0 0 1 19165747.97 15095275.00  zM 20100000.00 14699992.41 m -398693.35 0 a 398693.35 398693.35 0 1 1 797386.70 0a 398693.35 398693.35 0 1 1 -797386.70 0M 21479527.00 15095275.00 L 20688977.00 15095275.00 L 20688977.00 14304725.00 L 21479527.00 14304725.00 L 21479527.00 15095275.00  zM 24550000.00 15055062.57 L 24462626.00 15031651.00 L 24381469.00 14984795.00 L 24315205.00 14918531.00 L 24268349.00 14837374.00 L 24244937.42 14750000.00 L 24348469.59 14750000.00 L 24350682.00 14766805.00 A 258122.37 258122.37 0 0 0 24533195.00 14949318.00 L 24550000.00 14951530.41 L 24550000.00 15055062.57  zM 24599998.59 14700001.48 m -160563.52 0 a 160563.52 160563.52 0 1 1 321127.04 0a 160563.52 160563.52 0 1 1 -321127.04 0M 24650000.00 15055062.58 L 24650000.00 14951530.41 L 24666805.00 14949318.00 A 258122.37 258122.37 0 0 0 24849318.00 14766805.00 L 24851530.41 14750000.00 L 24955062.57 14750000.00 L 24931651.00 14837374.00 L 24884795.00 14918531.00 L 24818531.00 14984795.00 L 24737374.00 15031651.00 L 24650000.00 15055062.58  zM 29969683.69 8792521.00 L 29866056.94 8792521.00 L 29886415.00 8716543.00 A 329197.42 329197.42 0 0 1 30064574.00 8538384.00 L 30140552.00 8518025.93 L 30140552.00 8621652.68 L 30102223.00 8629277.00 L 30027342.00 8679311.00 L 29977308.00 8754192.00 L 29969683.69 8792521.00  zM 30190550.13 8842521.07 m -150528.93 0 a 150528.93 150528.93 0 1 1 301057.86 0a 150528.93 150528.93 0 1 1 -301057.86 0M 30515045.07 8792521.00 L 30411418.32 8792521.00 L 30403794.00 8754192.00 L 30353760.00 8679311.00 L 30278879.00 8629277.00 L 30240552.00 8621653.08 L 30240552.00 8518026.47 L 30316528.00 8538384.00 A 329197.42 329197.42 0 0 1 30494687.00 8716543.00 L 30515045.07 8792521.00  zM 30240552.00 9167013.53 L 30240552.00 9063386.92 L 30278879.00 9055763.00 L 30353760.00 9005729.00 L 30403794.00 8930848.00 L 30411417.92 8892521.00 L 30515044.53 8892521.00 L 30494687.00 8968497.00 A 329197.42 329197.42 0 0 1 30316528.00 9146656.00 L 30240552.00 9167013.53  zM 27286415.00 9716543.00 L 27306882.36 9681092.73 L 27270279.61 9644489.99 L 27266528.00 9646656.00 A 329195.65 329195.65 0 0 1 27014574.00 9646656.00 L 27010822.39 9644489.99 L 26974219.64 9681092.73 L 26994687.00 9716543.00 A 329195.65 329195.65 0 1 1 26816528.00 9538384.00 L 26820279.61 9540550.01 L 26856882.36 9503947.27 L 26836415.00 9468497.00 A 329195.65 329195.65 0 1 1 27444687.00 9468497.00 L 27424219.64 9503947.27 L 27460822.39 9540550.01 L 27464574.00 9538384.00 A 329195.65 329195.65 0 1 1 27286415.00 9716543.00  zM 30140552.00 9167014.06 L 30064574.00 9146656.00 A 329197.42 329197.42 0 0 1 29886415.00 8968497.00 L 29866057.47 8892521.00 L 29969684.08 8892521.00 L 29977308.00 8930848.00 L 30027342.00 9005729.00 L 30102223.00 9055763.00 L 30140552.00 9063387.31 L 30140552.00 9167014.06  zM 27048469.59 14642126.00 L 26944937.43 14642126.00 L 26968349.00 14554752.00 L 27015205.00 14473595.00 L 27081469.00 14407331.00 L 27162626.00 14360475.00 L 27250000.00 14337063.42 L 27250000.00 14440595.59 L 27233195.00 14442808.00 A 258122.37 258122.37 0 0 0 27050682.00 14625321.00 L 27048469.59 14642126.00  zM 29748469.59 14642126.00 L 29644937.43 14642126.00 L 29668349.00 14554752.00 L 29715205.00 14473595.00 L 29781469.00 14407331.00 L 29862626.00 14360475.00 L 29950000.00 14337063.42 L 29950000.00 14440595.59 L 29933195.00 14442808.00 A 258122.37 258122.37 0 0 0 29750682.00 14625321.00 L 29748469.59 14642126.00  zM 27250000.00 15047188.57 L 27162626.00 15023777.00 L 27081469.00 14976921.00 L 27015205.00 14910657.00 L 26968349.00 14829500.00 L 26944937.42 14742126.00 L 27048469.59 14742126.00 L 27050682.00 14758931.00 A 258122.37 258122.37 0 0 0 27233195.00 14941444.00 L 27250000.00 14943656.41 L 27250000.00 15047188.57  zM 27299998.59 14692127.48 m -160563.52 0 a 160563.52 160563.52 0 1 1 321127.04 0a 160563.52 160563.52 0 1 1 -321127.04 0M 27655062.58 14642126.00 L 27551530.41 14642126.00 L 27549318.00 14625321.00 A 258122.37 258122.37 0 0 0 27366805.00 14442808.00 L 27350000.00 14440595.59 L 27350000.00 14337063.43 L 27437374.00 14360475.00 L 27518531.00 14407331.00 L 27584795.00 14473595.00 L 27631651.00 14554752.00 L 27655062.58 14642126.00  zM 27350000.00 15047188.58 L 27350000.00 14943656.41 L 27366805.00 14941444.00 A 258122.37 258122.37 0 0 0 27549318.00 14758931.00 L 27551530.41 14742126.00 L 27655062.57 14742126.00 L 27631651.00 14829500.00 L 27584795.00 14910657.00 L 27518531.00 14976921.00 L 27437374.00 15023777.00 L 27350000.00 15047188.58  zM 29950000.00 15047188.57 L 29862626.00 15023777.00 L 29781469.00 14976921.00 L 29715205.00 14910657.00 L 29668349.00 14829500.00 L 29644937.42 14742126.00 L 29748469.59 14742126.00 L 29750682.00 14758931.00 A 258122.37 258122.37 0 0 0 29933195.00 14941444.00 L 29950000.00 14943656.41 L 29950000.00 15047188.57  zM 29999998.59 14692127.48 m -160563.52 0 a 160563.52 160563.52 0 1 1 321127.04 0a 160563.52 160563.52 0 1 1 -321127.04 0M 30355062.58 14642126.00 L 30251530.41 14642126.00 L 30249318.00 14625321.00 A 258122.37 258122.37 0 0 0 30066805.00 14442808.00 L 30050000.00 14440595.59 L 30050000.00 14337063.43 L 30137374.00 14360475.00 L 30218531.00 14407331.00 L 30284795.00 14473595.00 L 30331651.00 14554752.00 L 30355062.58 14642126.00  zM 30050000.00 15047188.58 L 30050000.00 14943656.41 L 30066805.00 14941444.00 A 258122.37 258122.37 0 0 0 30249318.00 14758931.00 L 30251530.41 14742126.00 L 30355062.57 14742126.00 L 30331651.00 14829500.00 L 30284795.00 14910657.00 L 30218531.00 14976921.00 L 30137374.00 15023777.00 L 30050000.00 15047188.58  z"/>
<path id="N" d="M 1613243.00 6754192.00 L 1593865.73 6725191.94 L 1890921.03 6428136.00 L 7943434.22 6428136.00 L 7946931.00 6454696.00 A 311728.46 311728.46 0 1 0 7946931.00 6293336.00 L 7943434.22 6319896.00 L 1868504.00 6319895.00 L 1830234.29 6335748.71 L 1517328.06 6648654.27 L 1488328.00 6629277.00 A 230806.50 230806.50 0 1 0 1613243.00 6754192.00  zM 1399999.13 6842521.07 m -150528.93 0 a 150528.93 150528.93 0 1 1 301057.86 0a 150528.93 150528.93 0 1 1 -301057.86 0M 8248030.24 6374015.93 m -204721.07 0 a 204721.07 204721.07 0 1 1 409442.13 0a 204721.07 204721.07 0 1 1 -409442.13 0"/>
<path id="N" d="M 25590549.85 6842518.85 m -230814.01 0 a 230814.01 230814.01 0 1 1 461628.02 0a 230814.01 230814.01 0 1 1 -461628.02 0M 25590550.13 6842521.07 m -150528.93 0 a 150528.93 150528.93 0 1 1 301057.86 0a 150528.93 150528.93 0 1 1 -301057.86 0"/>
<path id="N" d="M 1399998.85 5842518.85 m -230814.01 0 a 230814.01 230814.01 0 1 1 461628.02 0a 230814.01 230814.01 0 1 1 -461628.02 0M 1399999.13 5842521.07 m -150528.93 0 a 150528.93 150528.93 0 1 1 301057.86 0a 150528.93 150528.93 0 1 1 -301057.86 0"/>
<path id="N" d="M 25590549.85 5842518.85 m -230814.01 0 a 230814.01 230814.01 0 1 1 461628.02 0a 230814.01 230814.01 0 1 1 -461628.02 0M 25590550.13 5842521.07 m -150528.93 0 a 150528.93 150528.93 0 1 1 301057.86 0a 150528.93 150528.93 0 1 1 -301057.86 0"/>
<path id="N" d="M 7155905.00 13877614.00 L 13124923.00 13877614.00 L 13183297.00 13866003.00 L 13232783.00 13832937.00 L 14231075.00 12834645.00 L 14468925.00 12834645.00 L 15457888.00 13823608.00 L 15507375.00 13856674.00 L 15565748.00 13868285.00 L 24344095.00 13868285.00 L 24344095.00 13971653.00 L 24855905.00 13971653.00 L 24855905.00 13864348.00 L 27044095.00 13864348.00 L 27044095.00 13963779.00 L 27555905.00 13963779.00 L 27555905.00 13864348.00 L 29744095.00 13864348.00 L 29744095.00 13963779.00 L 30255905.00 13963779.00 L 30255905.00 13667689.00 L 30298411.00 13625183.00 L 30331477.00 13575697.00 L 30343088.00 13517323.00 L 30343088.00 10068898.00 L 30416929.00 10068898.00 L 30416929.00 9616142.00 L 29964173.00 9616142.00 L 29964173.00 10068898.00 L 30038014.00 10068898.00 L 30038014.00 13451969.00 L 29744095.00 13451969.00 L 29744095.00 13559274.00 L 27555905.00 13559274.00 L 27555905.00 13451969.00 L 27044095.00 13451969.00 L 27044095.00 13559274.00 L 24855905.00 13559274.00 L 24855905.00 13459843.00 L 24344095.00 13459843.00 L 24344095.00 13563211.00 L 15628931.00 13563211.00 L 14684645.00 12618925.00 L 14684645.00 12165355.00 L 14015355.00 12165355.00 L 14015355.00 12618925.00 L 13061740.00 13572540.00 L 7155905.00 13572540.00 L 7155905.00 13469172.00 L 6859815.00 13469172.00 L 6152537.00 12761894.00 L 6152537.00 10068898.00 L 6226378.00 10068898.00 L 6226378.00 9616142.00 L 5773622.00 9616142.00 L 5773622.00 10068898.00 L 5847463.00 10068898.00 L 5847463.00 12825077.00 L 5859074.00 12883451.00 L 5892140.00 12932937.00 L 6527806.00 13568603.00 L 4455905.00 13568603.00 L 4455905.00 13469172.00 L 3944095.00 13469172.00 L 3944095.00 13568603.00 L 1655905.00 13568603.00 L 1655905.00 13461298.00 L 1144095.00 13461298.00 L 1144095.00 13973108.00 L 1655905.00 13973108.00 L 1655905.00 13873677.00 L 3944095.00 13873677.00 L 3944095.00 13980982.00 L 4455905.00 13980982.00 L 4455905.00 13873677.00 L 6644095.00 13873677.00 L 6644095.00 13980982.00 L 7155905.00 13980982.00 L 7155905.00 13877614.00  zM 1399998.59 13717204.48 m -160563.52 0 a 160563.52 160563.52 0 1 1 321127.04 0a 160563.52 160563.52 0 1 1 -321127.04 0M 4199998.59 13725078.48 m -160563.52 0 a 160563.52 160563.52 0 1 1 321127.04 0a 160563.52 160563.52 0 1 1 -321127.04 0M 5999999.13 9842521.07 m -150528.93 0 a 150528.93 150528.93 0 1 1 301057.86 0a 150528.93 150528.93 0 1 1 -301057.86 0M 6899998.59 13725078.48 m -160563.52 0 a 160563.52 160563.52 0 1 1 321127.04 0a 160563.52 160563.52 0 1 1 -321127.04 0M 14349996.50 12500009.68 m -240838.32 0 a 240838.32 240838.32 0 1 1 481676.63 0a 240838.32 240838.32 0 1 1 -481676.63 0M 24599998.59 13715749.48 m -160563.52 0 a 160563.52 160563.52 0 1 1 321127.04 0a 160563.52 160563.52 0 1 1 -321127.04 0M 27299998.59 13707875.48 m -160563.52 0 a 160563.52 160563.52 0 1 1 321127.04 0a 160563.52 160563.52 0 1 1 -321127.04 0M 30190550.13 9842521.07 m -150528.93 0 a 150528.93 150528.93 0 1 1 301057.86 0a 150528.93 150528.93 0 1 1 -301057.86 0M 29999998.59 13707875.48 m -160563.52 0 a 160563.52 160563.52 0 1 1 321127.04 0a 160563.52 160563.52 0 1 1 -321127.04 0"/>
<path id="N" d="M 1399998.85 3842518.85 m -230814.01 0 a 230814.01 230814.01 0 1 1 461628.02 0a 230814.01 230814.01 0 1 1 -461628.02 0M 1399999.13 3842521.07 m -150528.93 0 a 150528.93 150528.93 0 1 1 301057.86 0a 150528.93 150528.93 0 1 1 -301057.86 0"/>
<path id="N" d="M 23248028.67 8599993.71 m -311728.46 0 a 311728.46 311728.46 0 1 1 623456.93 0a 311728.46 311728.46 0 1 1 -623456.93 0M 23248030.24 8599999.93 m -204721.07 0 a 204721.07 204721.07 0 1 1 409442.13 0a 204721.07 204721.07 0 1 1 -409442.13 0"/>
<path id="N" d="M 13799997.67 1699993.71 m -311728.46 0 a 311728.46 311728.46 0 1 1 623456.93 0a 311728.46 311728.46 0 1 1 -623456.93 0M 13799999.24 1699999.93 m -204721.07 0 a 204721.07 204721.07 0 1 1 409442.13 0a 204721.07 204721.07 0 1 1 -409442.13 0"/>
<path id="N" d="M 5999998.85 6842518.85 m -230814.01 0 a 230814.01 230814.01 0 1 1 461628.02 0a 230814.01 230814.01 0 1 1 -461628.02 0M 5999999.13 6842521.07 m -150528.93 0 a 150528.93 150528.93 0 1 1 301057.86 0a 150528.93 150528.93 0 1 1 -301057.86 0"/>
<path id="N" d="M 25590549.85 3842518.85 m -230814.01 0 a 230814.01 230814.01 0 1 1 461628.02 0a 230814.01 230814.01 0 1 1 -461628.02 0M 25590550.13 3842521.07 m -150528.93 0 a 150528.93 150528.93 0 1 1 301057.86 0a 150528.93 150528.93 0 1 1 -301057.86 0"/>
<path id="N" d="M 8248028.67 8374009.71 m -311728.46 0 a 311728.46 311728.46 0 1 1 623456.93 0a 311728.46 311728.46 0 1 1 -623456.93 0M 8248030.24 8374015.93 m -204721.07 0 a 204721.07 204721.07 0 1 1 409442.13 0a 204721.07 204721.07 0 1 1 -409442.13 0"/>
<path id="N" d="M 1399998.85 2842518.85 m -230814.01 0 a 230814.01 230814.01 0 1 1 461628.02 0a 230814.01 230814.01 0 1 1 -461628.02 0M 1399999.13 2842521.07 m -150528.93 0 a 150528.93 150528.93 0 1 1 301057.86 0a 150528.93 150528.93 0 1 1 -301057.86 0"/>
<path id="N" d="M 20099997.35 14699993.57 m -297829.90 0 a 297829.90 297829.90 0 1 1 595659.80 0a 297829.90 297829.90 0 1 1 -595659.80 0M 20100000.36 14700000.47 m -200706.53 0 a 200706.53 200706.53 0 1 1 401413.05 0a 200706.53 200706.53 0 1 1 -401413.05 0"/>
<path id="N" d="M 25816929.00 9616142.00 L 25364173.00 9616142.00 L 25364173.00 10068898.00 L 25816929.00 10068898.00 L 25816929.00 9616142.00  zM 25590550.13 9842521.07 m -150528.93 0 a 150528.93 150528.93 0 1 1 301057.86 0a 150528.93 150528.93 0 1 1 -301057.86 0"/>
<path id="N" d="M 1626378.00 9616142.00 L 1173622.00 9616142.00 L 1173622.00 10068898.00 L 1626378.00 10068898.00 L 1626378.00 9616142.00  zM 1399999.13 9842521.07 m -150528.93 0 a 150528.93 150528.93 0 1 1 301057.86 0a 150528.93 150528.93 0 1 1 -301057.86 0"/>
<path id="N" d="M 23248028.67 5599993.71 m -311728.46 0 a 311728.46 311728.46 0 1 1 623456.93 0a 311728.46 311728.46 0 1 1 -623456.93 0M 23248030.24 5599999.93 m -204721.07 0 a 204721.07 204721.07 0 1 1 409442.13 0a 204721.07 204721.07 0 1 1 -409442.13 0"/>
<path id="N" d="M 23248028.67 7599993.71 m -311728.46 0 a 311728.46 311728.46 0 1 1 623456.93 0a 311728.46 311728.46 0 1 1 -623456.93 0M 23248030.24 7599999.93 m -204721.07 0 a 204721.07 204721.07 0 1 1 409442.13 0a 204721.07 204721.07 0 1 1 -409442.13 0"/>
<path id="N" d="M 23557086.00 11506665.00 L 24592185.00 10471566.00 L 24625251.00 10422080.00 L 24636862.00 10363706.00 L 24636862.00 10011929.00 L 25577962.15 9070828.85 L 25590551.00 9073333.00 A 230814.94 230814.94 0 0 0 25821364.00 8842520.00 L 25818859.85 8829931.15 L 27998411.00 6650380.00 L 28031477.00 6600894.00 L 28043088.00 6542520.00 L 28043088.00 6205703.00 L 30177962.15 4070828.85 L 30190551.00 4073333.00 A 230814.94 230814.94 0 1 0 29959738.00 3842520.00 L 29962242.15 3855108.85 L 27782691.00 6034660.00 L 27749625.00 6084146.00 L 27738014.00 6142520.00 L 27738014.00 6479337.00 L 25603139.85 8614211.15 L 25590551.00 8611707.00 A 230814.94 230814.94 0 0 0 25359738.00 8842520.00 L 25362242.15 8855108.85 L 24376465.00 9840886.00 L 24343399.00 9890372.00 L 24331788.00 9948746.00 L 24331788.00 10300523.00 L 23341366.00 11290945.00 L 22938976.00 11290945.00 L 22938976.00 11447463.00 L 15537198.00 11447463.00 L 8557086.00 4467351.00 L 8557086.00 4064961.00 L 8154696.00 4064961.00 L 7824395.00 3734660.00 L 7774909.00 3701594.00 L 7716535.00 3689983.00 L 6170339.82 3689983.00 L 6163209.00 3679311.00 A 230814.94 230814.94 0 1 0 6163209.00 4005729.00 L 6170339.82 3995057.00 L 7653352.00 3995057.00 L 7938976.00 4280681.00 L 7938976.00 4683071.00 L 8341366.00 4683071.00 L 15366155.00 11707860.00 L 15415642.00 11740926.00 L 15474015.00 11752537.00 L 22938976.00 11752537.00 L 22938976.00 11909055.00 L 23557086.00 11909055.00 L 23557086.00 11506665.00  zM 5999999.13 3842521.07 m -150528.93 0 a 150528.93 150528.93 0 1 1 301057.86 0a 150528.93 150528.93 0 1 1 -301057.86 0M 8248030.24 4374015.93 m -204721.07 0 a 204721.07 204721.07 0 1 1 409442.13 0a 204721.07 204721.07 0 1 1 -409442.13 0M 30190550.13 3842521.07 m -150528.93 0 a 150528.93 150528.93 0 1 1 301057.86 0a 150528.93 150528.93 0 1 1 -301057.86 0M 25590550.13 8842521.07 m -150528.93 0 a 150528.93 150528.93 0 1 1 301057.86 0a 150528.93 150528.93 0 1 1 -301057.86 0M 23248030.24 11599999.93 m -204721.07 0 a 204721.07 204721.07 0 1 1 409442.13 0a 204721.07 204721.07 0 1 1 -409442.13 0"/>
<path id="N" d="M 21379527.00 14404725.00 L 20788977.00 14404725.00 L 20788977.00 14995275.00 L 21379527.00 14995275.00 L 21379527.00 14404725.00  zM 21084252.36 14700000.47 m -200706.53 0 a 200706.53 200706.53 0 1 1 401413.05 0a 200706.53 200706.53 0 1 1 -401413.05 0"/>
<path id="N" d="M 27590549.85 9842518.85 m -230814.01 0 a 230814.01 230814.01 0 1 1 461628.02 0a 230814.01 230814.01 0 1 1 -461628.02 0M 27590550.13 9842521.07 m -150528.93 0 a 150528.93 150528.93 0 1 1 301057.86 0a 150528.93 150528.93 0 1 1 -301057.86 0"/>
<path id="N" d="M 26690549.85 9842518.85 m -230814.01 0 a 230814.01 230814.01 0 1 1 461628.02 0a 230814.01 230814.01 0 1 1 -461628.02 0M 26690550.13 9842521.07 m -150528.93 0 a 150528.93 150528.93 0 1 1 301057.86 0a 150528.93 150528.93 0 1 1 -301057.86 0"/>
<path id="N" d="M 3399998.85 9842518.85 m -230814.01 0 a 230814.01 230814.01 0 1 1 461628.02 0a 230814.01 230814.01 0 1 1 -461628.02 0M 3399999.13 9842521.07 m -150528.93 0 a 150528.93 150528.93 0 1 1 301057.86 0a 150528.93 150528.93 0 1 1 -301057.86 0"/>
<path id="N" d="M 2949998.85 9342518.85 m -230814.01 0 a 230814.01 230814.01 0 1 1 461628.02 0a 230814.01 230814.01 0 1 1 -461628.02 0M 2949999.13 9342521.07 m -150528.93 0 a 150528.93 150528.93 0 1 1 301057.86 0a 150528.93 150528.93 0 1 1 -301057.86 0"/>
<path id="N" d="M 2499998.85 9842518.85 m -230814.01 0 a 230814.01 230814.01 0 1 1 461628.02 0a 230814.01 230814.01 0 1 1 -461628.02 0M 2499999.13 9842521.07 m -150528.93 0 a 150528.93 150528.93 0 1 1 301057.86 0a 150528.93 150528.93 0 1 1 -301057.86 0"/>
<path id="N" d="M 27140549.85 9342518.85 m -230814.01 0 a 230814.01 230814.01 0 1 1 461628.02 0a 230814.01 230814.01 0 1 1 -461628.02 0M 27140550.13 9342521.07 m -150528.93 0 a 150528.93 150528.93 0 1 1 301057.86 0a 150528.93 150528.93 0 1 1 -301057.86 0"/>
<path id="N" d="M 8248028.67 10374009.71 m -311728.46 0 a 311728.46 311728.46 0 1 1 623456.93 0a 311728.46 311728.46 0 1 1 -623456.93 0M 8248030.24 10374015.93 m -204721.07 0 a 204721.07 204721.07 0 1 1 409442.13 0a 204721.07 204721.07 0 1 1 -409442.13 0"/>
<path id="N" d="M 23248028.67 9599993.71 m -311728.46 0 a 311728.46 311728.46 0 1 1 623456.93 0a 311728.46 311728.46 0 1 1 -623456.93 0M 23248030.24 9599999.93 m -204721.07 0 a 204721.07 204721.07 0 1 1 409442.13 0a 204721.07 204721.07 0 1 1 -409442.13 0"/>
<path id="N" d="M 30190549.85 4842518.85 m -230814.01 0 a 230814.01 230814.01 0 1 1 461628.02 0a 230814.01 230814.01 0 1 1 -461628.02 0M 30190550.13 4842521.07 m -150528.93 0 a 150528.93 150528.93 0 1 1 301057.86 0a 150528.93 150528.93 0 1 1 -301057.86 0"/>
<path id="N" d="M 19609055.00 1141339.00 L 18990945.00 1141339.00 L 18990945.00 1759449.00 L 19609055.00 1759449.00 L 19609055.00 1141339.00  zM 19299999.24 1450393.93 m -204721.07 0 a 204721.07 204721.07 0 1 1 409442.13 0a 204721.07 204721.07 0 1 1 -409442.13 0"/>
<path id="N" d="M 12799997.67 1699993.71 m -311728.46 0 a 311728.46 311728.46 0 1 1 623456.93 0a 311728.46 311728.46 0 1 1 -623456.93 0M 12799999.24 1699999.93 m -204721.07 0 a 204721.07 204721.07 0 1 1 409442.13 0a 204721.07 204721.07 0 1 1 -409442.13 0"/>
<path id="N" d="M 5999998.85 5842518.85 m -230814.01 0 a 230814.01 230814.01 0 1 1 461628.02 0a 230814.01 230814.01 0 1 1 -461628.02 0M 5999999.13 5842521.07 m -150528.93 0 a 150528.93 150528.93 0 1 1 301057.86 0a 150528.93 150528.93 0 1 1 -301057.86 0"/>
<path id="N" d="M 23248028.67 10599993.71 m -311728.46 0 a 311728.46 311728.46 0 1 1 623456.93 0a 311728.46 311728.46 0 1 1 -623456.93 0M 23248030.24 10599999.93 m -204721.07 0 a 204721.07 204721.07 0 1 1 409442.13 0a 204721.07 204721.07 0 1 1 -409442.13 0"/>
<path id="N" d="M 8248028.67 5374009.71 m -311728.46 0 a 311728.46 311728.46 0 1 1 623456.93 0a 311728.46 311728.46 0 1 1 -623456.93 0M 8248030.24 5374015.93 m -204721.07 0 a 204721.07 204721.07 0 1 1 409442.13 0a 204721.07 204721.07 0 1 1 -409442.13 0"/>
<path id="N" d="M 17299997.67 1450387.71 m -311728.46 0 a 311728.46 311728.46 0 1 1 623456.93 0a 311728.46 311728.46 0 1 1 -623456.93 0M 17299999.24 1450393.93 m -204721.07 0 a 204721.07 204721.07 0 1 1 409442.13 0a 204721.07 204721.07 0 1 1 -409442.13 0"/>
<path id="N" d="M 30190549.85 6842518.85 m -230814.01 0 a 230814.01 230814.01 0 1 1 461628.02 0a 230814.01 230814.01 0 1 1 -461628.02 0M 30190550.13 6842521.07 m -150528.93 0 a 150528.93 150528.93 0 1 1 301057.86 0a 150528.93 150528.93 0 1 1 -301057.86 0"/>
<path id="N" d="M 14799997.67 1699993.71 m -311728.46 0 a 311728.46 311728.46 0 1 1 623456.93 0a 311728.46 311728.46 0 1 1 -623456.93 0M 14799999.24 1699999.93 m -204721.07 0 a 204721.07 204721.07 0 1 1 409442.13 0a 204721.07 204721.07 0 1 1 -409442.13 0"/>
<path id="N" d="M 5999998.85 7842518.85 m -230814.01 0 a 230814.01 230814.01 0 1 1 461628.02 0a 230814.01 230814.01 0 1 1 -461628.02 0M 5999999.13 7842521.07 m -150528.93 0 a 150528.93 150528.93 0 1 1 301057.86 0a 150528.93 150528.93 0 1 1 -301057.86 0"/>
</g>
</svg>
