<svg width="80.00000002mm" height="39.99999874mm" viewBox="0 0 31496063 15748031"  version="1.1" xmlns="http://www.w3.org/2000/svg" xmlns:xlink="http://www.w3.org/1999/xlink">
<desc>
Origin 0 0 Bound 0 1 31496063 15748031
</desc>
<g fill-rule="evenodd" fill="rgb(255, 0, 255)" stroke="black" stroke-width="1" transform="translate(0, 15748031) scale(1, -1) translate(0, -1)">
<path id="N" d="M 31496063.00 1.00 L 0.00 1.00 L 0.00 15748032.00 L 31496063.00 15748032.00 L 31496063.00 1.00  zM 1399999.19 2842525.60 m -268671.40 0 a 268671.40 268671.40 0 1 1 537342.81 0a 268671.40 268671.40 0 1 1 -537342.81 0M 1399999.19 3842525.60 m -268671.40 0 a 268671.40 268671.40 0 1 1 537342.81 0a 268671.40 268671.40 0 1 1 -537342.81 0M 1399999.19 4842525.60 m -268671.40 0 a 268671.40 268671.40 0 1 1 537342.81 0a 268671.40 268671.40 0 1 1 -537342.81 0M 5999999.19 2842525.60 m -268671.40 0 a 268671.40 268671.40 0 1 1 537342.81 0a 268671.40 268671.40 0 1 1 -537342.81 0M 5999999.19 3842525.60 m -268671.40 0 a 268671.40 268671.40 0 1 1 537342.81 0a 268671.40 268671.40 0 1 1 -537342.81 0M 5999999.19 4842525.60 m -268671.40 0 a 268671.40 268671.40 0 1 1 537342.81 0a 268671.40 268671.40 0 1 1 -537342.81 0M 1399999.19 5842525.60 m -268671.40 0 a 268671.40 268671.40 0 1 1 537342.81 0a 268671.40 268671.40 0 1 1 -537342.81 0M 1399999.19 6842525.60 m -268671.40 0 a 268671.40 268671.40 0 1 1 537342.81 0a 268671.40 268671.40 0 1 1 -537342.81 0M 1399999.19 7842525.60 m -268671.40 0 a 268671.40 268671.40 0 1 1 537342.81 0a 268671.40 268671.40 0 1 1 -537342.81 0M 5999999.19 5842525.60 m -268671.40 0 a 268671.40 268671.40 0 1 1 537342.81 0a 268671.40 268671.40 0 1 1 -537342.81 0M 5999999.19 6842525.60 m -268671.40 0 a 268671.40 268671.40 0 1 1 537342.81 0a 268671.40 268671.40 0 1 1 -537342.81 0M 1399999.19 8842525.60 m -268671.40 0 a 268671.40 268671.40 0 1 1 537342.81 0a 268671.40 268671.40 0 1 1 -537342.81 0M 1666378.00 10108898.00 L 1133622.00 10108898.00 L 1133622.00 9576142.00 L 1666378.00 9576142.00 L 1666378.00 10108898.00  zM 2499999.19 9842525.60 m -268671.40 0 a 268671.40 268671.40 0 1 1 537342.81 0a 268671.40 268671.40 0 1 1 -537342.81 0M 2949999.19 9342525.60 m -268671.40 0 a 268671.40 268671.40 0 1 1 537342.81 0a 268671.40 268671.40 0 1 1 -537342.81 0M 3399999.19 9842525.60 m -268671.40 0 a 268671.40 268671.40 0 1 1 537342.81 0a 268671.40 268671.40 0 1 1 -537342.81 0M 1695905.00 14013108.00 L 1104095.00 14013108.00 L 1104095.00 13421298.00 L 1695905.00 13421298.00 L 1695905.00 14013108.00  zM 4495905.00 14020982.00 L 3904095.00 14020982.00 L 3904095.00 13429172.00 L 4495905.00 13429172.00 L 4495905.00 14020982.00  zM 6266378.00 10108898.00 L 5733622.00 10108898.00 L 5733622.00 9576142.00 L 6266378.00 9576142.00 L 6266378.00 10108898.00  zM 1400001.02 14701452.55 m -298460.45 0 a 298460.45 298460.45 0 1 1 596920.90 0a 298460.45 298460.45 0 1 1 -596920.90 0M 4200001.02 14709326.55 m -298460.45 0 a 298460.45 298460.45 0 1 1 596920.90 0a 298460.45 298460.45 0 1 1 -596920.90 0M 8557086.00 4683071.00 L 7938976.00 4683071.00 L 7938976.00 4064961.00 L 8557086.00 4064961.00 L 8557086.00 4683071.00  zM 12109055.00 2009055.00 L 11490945.00 2009055.00 L 11490945.00 1390945.00 L 12109055.00 1390945.00 L 12109055.00 2009055.00  zM 8248032.33 5374012.13 m -311725.87 0 a 311725.87 311725.87 0 1 1 623451.74 0a 311725.87 311725.87 0 1 1 -623451.74 0M 8248032.33 6374012.13 m -311725.87 0 a 311725.87 311725.87 0 1 1 623451.74 0a 311725.87 311725.87 0 1 1 -623451.74 0M 8248032.33 7374012.13 m -311725.87 0 a 311725.87 311725.87 0 1 1 623451.74 0a 311725.87 311725.87 0 1 1 -623451.74 0M 12800001.33 1699996.13 m -311725.87 0 a 311725.87 311725.87 0 1 1 623451.74 0a 311725.87 311725.87 0 1 1 -623451.74 0M 13799998.81 2550395.80 m -250882.20 0 a 250882.20 250882.20 0 1 1 501764.39 0a 250882.20 250882.20 0 1 1 -501764.39 0M 13800001.33 1699996.13 m -311725.87 0 a 311725.87 311725.87 0 1 1 623451.74 0a 311725.87 311725.87 0 1 1 -623451.74 0M 14800001.33 1699996.13 m -311725.87 0 a 311725.87 311725.87 0 1 1 623451.74 0a 311725.87 311725.87 0 1 1 -623451.74 0M 16300001.33 1450390.13 m -311725.87 0 a 311725.87 311725.87 0 1 1 623451.74 0a 311725.87 311725.87 0 1 1 -623451.74 0M 5999999.19 7842525.60 m -268671.40 0 a 268671.40 268671.40 0 1 1 537342.81 0a 268671.40 268671.40 0 1 1 -537342.81 0M 5999999.19 8842525.60 m -268671.40 0 a 268671.40 268671.40 0 1 1 537342.81 0a 268671.40 268671.40 0 1 1 -537342.81 0M 8248032.33 10374012.13 m -311725.87 0 a 311725.87 311725.87 0 1 1 623451.74 0a 311725.87 311725.87 0 1 1 -623451.74 0M 7195905.00 14020982.00 L 6604095.00 14020982.00 L 6604095.00 13429172.00 L 7195905.00 13429172.00 L 7195905.00 14020982.00  zM 6900001.02 14709326.55 m -298460.45 0 a 298460.45 298460.45 0 1 1 596920.90 0a 298460.45 298460.45 0 1 1 -596920.90 0M 8248032.33 8374012.13 m -311725.87 0 a 311725.87 311725.87 0 1 1 623451.74 0a 311725.87 311725.87 0 1 1 -623451.74 0M 8248032.33 9374012.13 m -311725.87 0 a 311725.87 311725.87 0 1 1 623451.74 0a 311725.87 311725.87 0 1 1 -623451.74 0M 8248032.33 11374012.13 m -311725.87 0 a 311725.87 311725.87 0 1 1 623451.74 0a 311725.87 311725.87 0 1 1 -623451.74 0M 12850001.01 12499995.89 m -377882.11 0 a 377882.11 377882.11 0 1 1 755764.21 0a 377882.11 377882.11 0 1 1 -755764.21 0M 14724645.00 12874645.00 L 13975355.00 12874645.00 L 13975355.00 12125355.00 L 14724645.00 12125355.00 L 14724645.00 12874645.00  zM 17299998.81 600001.80 m -250882.20 0 a 250882.20 250882.20 0 1 1 501764.39 0a 250882.20 250882.20 0 1 1 -501764.39 0M 17300001.33 1450390.13 m -311725.87 0 a 311725.87 311725.87 0 1 1 623451.74 0a 311725.87 311725.87 0 1 1 -623451.74 0M 18300001.33 1450390.13 m -311725.87 0 a 311725.87 311725.87 0 1 1 623451.74 0a 311725.87 311725.87 0 1 1 -623451.74 0M 19609055.00 1759449.00 L 18990945.00 1759449.00 L 18990945.00 1141339.00 L 19609055.00 1141339.00 L 19609055.00 1759449.00  zM 23248032.33 5599996.13 m -311725.87 0 a 311725.87 311725.87 0 1 1 623451.74 0a 311725.87 311725.87 0 1 1 -623451.74 0M 23248032.33 4599996.13 m -311725.87 0 a 311725.87 311725.87 0 1 1 623451.74 0a 311725.87 311725.87 0 1 1 -623451.74 0M 25590550.19 4842525.60 m -268671.40 0 a 268671.40 268671.40 0 1 1 537342.81 0a 268671.40 268671.40 0 1 1 -537342.81 0M 25590550.19 5842525.60 m -268671.40 0 a 268671.40 268671.40 0 1 1 537342.81 0a 268671.40 268671.40 0 1 1 -537342.81 0M 23248032.33 6599996.13 m -311725.87 0 a 311725.87 311725.87 0 1 1 623451.74 0a 311725.87 311725.87 0 1 1 -623451.74 0M 23248032.33 7599996.13 m -311725.87 0 a 311725.87 311725.87 0 1 1 623451.74 0a 311725.87 311725.87 0 1 1 -623451.74 0M 25590550.19 2842525.60 m -268671.40 0 a 268671.40 268671.40 0 1 1 537342.81 0a 268671.40 268671.40 0 1 1 -537342.81 0M 25590550.19 3842525.60 m -268671.40 0 a 268671.40 268671.40 0 1 1 537342.81 0a 268671.40 268671.40 0 1 1 -537342.81 0M 30190550.19 3842525.60 m -268671.40 0 a 268671.40 268671.40 0 1 1 537342.81 0a 268671.40 268671.40 0 1 1 -537342.81 0M 30190550.19 2842525.60 m -268671.40 0 a 268671.40 268671.40 0 1 1 537342.81 0a 268671.40 268671.40 0 1 1 -537342.81 0M 30190550.19 4842525.60 m -268671.40 0 a 268671.40 268671.40 0 1 1 537342.81 0a 268671.40 268671.40 0 1 1 -537342.81 0M 25590550.19 6842525.60 m -268671.40 0 a 268671.40 268671.40 0 1 1 537342.81 0a 268671.40 268671.40 0 1 1 -537342.81 0M 25590550.19 7842525.60 m -268671.40 0 a 268671.40 268671.40 0 1 1 537342.81 0a 268671.40 268671.40 0 1 1 -537342.81 0M 30190550.19 5842525.60 m -268671.40 0 a 268671.40 268671.40 0 1 1 537342.81 0a 268671.40 268671.40 0 1 1 -537342.81 0M 30190550.19 6842525.60 m -268671.40 0 a 268671.40 268671.40 0 1 1 537342.81 0a 268671.40 268671.40 0 1 1 -537342.81 0M 30190550.19 7842525.60 m -268671.40 0 a 268671.40 268671.40 0 1 1 537342.81 0a 268671.40 268671.40 0 1 1 -537342.81 0M 23248032.33 9599996.13 m -311725.87 0 a 311725.87 311725.87 0 1 1 623451.74 0a 311725.87 311725.87 0 1 1 -623451.74 0M 23248032.33 10599996.13 m -311725.87 0 a 311725.87 311725.87 0 1 1 623451.74 0a 311725.87 311725.87 0 1 1 -623451.74 0M 19115750.00 14699993.05 m -338174.95 0 a 338174.95 338174.95 0 1 1 676349.89 0a 338174.95 338174.95 0 1 1 -676349.89 0M 20100002.00 14699993.05 m -338174.95 0 a 338174.95 338174.95 0 1 1 676349.89 0a 338174.95 338174.95 0 1 1 -676349.89 0M 21419527.00 15035275.00 L 20748977.00 15035275.00 L 20748977.00 14364725.00 L 21419527.00 14364725.00 L 21419527.00 15035275.00  zM 23248032.33 8599996.13 m -311725.87 0 a 311725.87 311725.87 0 1 1 623451.74 0a 311725.87 311725.87 0 1 1 -623451.74 0M 25856929.00 10108898.00 L 25324173.00 10108898.00 L 25324173.00 9576142.00 L 25856929.00 9576142.00 L 25856929.00 10108898.00  zM 23557086.00 11909055.00 L 22938976.00 11909055.00 L 22938976.00 11290945.00 L 23557086.00 11290945.00 L 23557086.00 11909055.00  zM 24895905.00 14011653.00 L 24304095.00 14011653.00 L 24304095.00 13419843.00 L 24895905.00 13419843.00 L 24895905.00 14011653.00  zM 24600001.02 14699997.55 m -298460.45 0 a 298460.45 298460.45 0 1 1 596920.90 0a 298460.45 298460.45 0 1 1 -596920.90 0M 25590550.19 8842525.60 m -268671.40 0 a 268671.40 268671.40 0 1 1 537342.81 0a 268671.40 268671.40 0 1 1 -537342.81 0M 26690550.19 9842525.60 m -268671.40 0 a 268671.40 268671.40 0 1 1 537342.81 0a 268671.40 268671.40 0 1 1 -537342.81 0M 27140551.15 9342518.26 m -268678.74 0 a 268678.74 268678.74 0 1 1 537357.48 0a 268678.74 268678.74 0 1 1 -537357.48 0M 30190550.19 8842525.60 m -268671.40 0 a 268671.40 268671.40 0 1 1 537342.81 0a 268671.40 268671.40 0 1 1 -537342.81 0M 30456929.00 10108898.00 L 29924173.00 10108898.00 L 29924173.00 9576142.00 L 30456929.00 9576142.00 L 30456929.00 10108898.00  zM 27590551.15 9842518.26 m -268678.74 0 a 268678.74 268678.74 0 1 1 537357.48 0a 268678.74 268678.74 0 1 1 -537357.48 0M 30295905.00 14003779.00 L 29704095.00 14003779.00 L 29704095.00 13411969.00 L 30295905.00 13411969.00 L 30295905.00 14003779.00  zM 27595905.00 14003779.00 L 27004095.00 14003779.00 L 27004095.00 13411969.00 L 27595905.00 13411969.00 L 27595905.00 14003779.00  zM 27300001.02 14692123.55 m -298460.45 0 a 298460.45 298460.45 0 1 1 596920.90 0a 298460.45 298460.45 0 1 1 -596920.90 0M 30000001.02 14692123.55 m -298460.45 0 a 298460.45 298460.45 0 1 1 596920.90 0a 298460.45 298460.45 0 1 1 -596920.90 0"/>
</g>
</svg>
