<svg width="80.00000002mm" height="39.99999874mm" viewBox="0 0 31496063 15748031"  version="1.1" xmlns="http://www.w3.org/2000/svg" xmlns:xlink="http://www.w3.org/1999/xlink">
<desc>
Origin 0 0 Bound 0 1 31496063 15748031
</desc>
<g fill-rule="evenodd" fill="rgb(128, 128, 0)" stroke="black" stroke-width="1" transform="translate(0, 15748031) scale(1, -1) translate(0, -1)">
<path id="N" d="M 7850293.41 13003926.00 L 8050226.00 13003926.00 L 8088495.00 12988075.00 L 8188463.00 12888107.00 A 54119.43 54119.43 0 0 0 8111925.00 12811569.00 L 8027808.00 12895686.00 L 7872709.00 12895686.00 L 7804443.00 12827420.00 L 7804443.00 12772289.00 L 7872709.00 12704023.00 L 7950259.00 12704023.00 A 54118.70 54118.70 0 0 0 7950259.00 12595783.00 L 7872709.00 12595783.00 L 7804443.00 12527517.00 L 7804443.00 12472386.00 L 7872709.00 12404120.00 L 8027808.00 12404120.00 L 8111925.00 12488237.00 A 54121.84 54121.84 0 0 0 8188463.00 12411699.00 L 8088495.00 12311731.00 L 8050223.59 12295880.00 L 7850291.00 12295880.00 L 7812022.00 12311731.00 L 7712054.00 12411699.00 L 7696203.00 12449970.41 L 7696203.00 12549935.00 L 7712054.00 12588204.00 L 7773753.00 12649903.00 L 7712054.00 12711602.00 L 7696203.00 12749873.41 L 7696203.00 12849838.00 L 7712054.00 12888107.00 L 7812022.00 12988075.00 L 7850293.41 13003926.00  z"/>
<path id="N" d="M 23088495.00 13468075.00 L 23188463.00 13368107.00 A 54121.84 54121.84 0 1 0 23111925.00 13291569.00 L 23027808.00 13375686.00 L 22872709.00 13375686.00 L 22804443.00 13307420.00 L 22804443.00 13252289.00 L 23188463.00 12868269.00 A 54119.43 54119.43 0 0 0 23150191.59 12775880.00 L 22750323.00 12775880.00 A 54118.70 54118.70 0 0 0 22750323.00 12884120.00 L 23019536.00 12884120.00 L 22712054.00 13191602.00 L 22696203.00 13229873.41 L 22696202.00 13329838.00 L 22712054.00 13368107.00 L 22812022.00 13468075.00 L 22850291.00 13483926.00 L 23050226.00 13483927.00 L 23088495.00 13468075.00  z"/>
<path id="N" d="M 23550065.00 13375686.00 L 23504217.00 13375686.00 L 23504217.00 12952386.00 L 23572483.00 12884120.00 L 23627614.00 12884120.00 L 23711731.00 12968237.00 A 54121.84 54121.84 0 0 0 23788269.00 12891699.00 L 23688301.00 12791731.00 L 23650029.59 12775880.00 L 23550065.00 12775880.00 L 23511796.00 12791731.00 L 23411828.00 12891699.00 L 23395977.00 12929970.41 L 23395977.00 13375686.00 L 23350129.00 13375686.00 A 54118.70 54118.70 0 1 0 23350129.00 13483926.00 L 23550065.00 13483926.00 A 54121.84 54121.84 0 0 0 23550065.00 13375686.00  z"/>
<path id="N" d="M 8550065.00 12895686.00 L 8504217.00 12895686.00 L 8504217.00 12472386.00 L 8572483.00 12404120.00 L 8627614.00 12404120.00 L 8711731.00 12488237.00 A 54121.84 54121.84 0 1 0 8788269.00 12411699.00 L 8688301.00 12311731.00 L 8650029.59 12295880.00 L 8550065.00 12295880.00 L 8511796.00 12311731.00 L 8411828.00 12411699.00 L 8395977.00 12449970.41 L 8395977.00 12895686.00 L 8350129.00 12895686.00 A 54118.70 54118.70 0 0 0 8350129.00 13003926.00 L 8550065.00 13003926.00 A 54121.84 54121.84 0 0 0 8550065.00 12895686.00  z"/>
<path id="N" d="M 8797849.00 12002574.00 L 8810330.00 11972441.00 L 8810330.00 3775591.00 L 8797849.00 3745458.00 L 8767716.00 3732977.00 L 7728346.00 3732977.00 L 7698213.00 3745458.00 L 7685732.00 3775591.00 L 7685732.00 11972441.00 L 7698213.00 12002574.00 L 7728346.00 12015055.00 L 8767716.00 12015055.00 L 8797849.00 12002574.00  zM 8725102.00 11929827.00 L 7770960.00 11929827.00 L 7770960.00 3818205.00 L 8725102.00 3818205.00 L 8725102.00 11929827.00  z"/>
<path id="N" d="M 23797849.00 12228558.00 L 23810330.00 12198425.00 L 23810330.00 4001575.00 L 23797849.00 3971442.00 L 23767716.00 3958961.00 L 22728346.00 3958961.00 L 22698213.00 3971442.00 L 22685732.00 4001575.00 L 22685732.00 12198425.00 L 22698213.00 12228558.00 L 22728346.00 12241039.00 L 23767716.00 12241039.00 L 23797849.00 12228558.00  zM 23725102.00 12155811.00 L 22770960.00 12155811.00 L 22770960.00 4044189.00 L 23725102.00 4044189.00 L 23725102.00 12155811.00  z"/>
<path id="N" d="M 8248029.47 3539368.47 m -100354.75 0 a 100354.75 100354.75 0 1 1 200709.51 0a 100354.75 100354.75 0 1 1 -200709.51 0"/>
<path id="N" d="M 23248029.47 12434644.47 m -100354.75 0 a 100354.75 100354.75 0 1 1 200709.51 0a 100354.75 100354.75 0 1 1 -200709.51 0"/>
</g>
</svg>
