<svg width="29.99999842mm" height="49.99999906mm" viewBox="0 0 11811023 19685039"  version="1.1" xmlns="http://www.w3.org/2000/svg" xmlns:xlink="http://www.w3.org/1999/xlink">
<desc>
Origin 0 0 Bound 3937008 3937008 11811023 19685039
</desc>
<g fill-rule="evenodd" fill="rgb(0, 128, 0)" stroke="black" stroke-width="1" transform="translate(0, 19685039) scale(1, -1) translate(-3937008, -3937008)">
<path id="N" d="M 14403388.00 23421077.00 L 14378342.00 23383593.00 L 14359771.00 23348848.00 L 14312515.00 23234763.00 L 14301079.00 23197062.00 L 14276988.00 23075949.00 L 14273126.00 23036742.00 L 14273126.00 22913256.00 L 14276988.00 22874049.00 L 14301079.00 22752935.00 L 14312515.00 22715235.00 L 14359771.00 22601149.00 L 14378342.00 22566404.00 L 14446947.00 22463729.00 L 14471940.00 22433275.00 L 14559258.00 22345957.00 L 14589712.00 22320964.00 L 14692387.00 22252359.00 L 14727132.00 22233788.00 L 14841218.00 22186532.00 L 14878918.00 22175096.00 L 15000032.00 22151004.00 L 15035724.00 22147489.00 L 15162725.00 22147143.00 L 15201932.00 22151005.00 L 15323045.00 22175096.00 L 15360749.00 22186534.00 L 15474831.00 22233788.00 L 15509576.00 22252359.00 L 15547063.00 22277407.00 L 15547062.00 17248212.00 L 14549336.00 17248212.00 L 14510129.00 17244349.00 L 14472429.00 17232913.00 L 14429019.00 17214931.00 L 14394275.00 17196358.00 L 14363824.00 17171368.00 L 14330599.00 17138143.00 L 14305606.00 17107688.00 L 14287035.00 17072944.00 L 14269054.00 17029534.00 L 14257618.00 16991834.00 L 14253756.00 16952627.00 L 14253756.00 16905640.00 L 14257618.00 16866433.00 L 14269054.00 16828733.00 L 14287035.00 16785323.00 L 14305606.00 16750579.00 L 14330599.00 16720124.00 L 14363824.00 16686899.00 L 14394278.00 16661907.00 L 14429023.00 16643335.00 L 14472433.00 16625354.00 L 14510133.00 16613918.00 L 14549340.00 16610056.00 L 15547062.00 16610056.00 L 15547061.00 5281649.00 L 15509577.00 5306695.00 L 15474832.00 5325266.00 L 15360747.00 5372522.00 L 15323046.00 5383958.00 L 15201933.00 5408049.00 L 15162726.00 5411911.00 L 15039240.00 5411911.00 L 15000000.00 5408043.44 L 14878919.00 5383958.00 L 14841219.00 5372522.00 L 14727133.00 5325266.00 L 14692388.00 5306695.00 L 14589713.00 5238090.00 L 14559259.00 5213097.00 L 14471941.00 5125779.00 L 14446948.00 5095325.00 L 14383254.10 5000000.00 L 14359772.00 4957905.00 L 14312516.00 4843819.00 L 14301080.00 4806119.00 L 14276989.00 4685005.00 L 14273127.00 4645798.00 L 14273127.00 4522312.00 L 14276989.00 4483105.00 L 14301080.00 4361992.00 L 14312518.00 4324288.00 L 14359772.00 4210206.00 L 14378343.00 4175461.00 L 14403390.00 4137976.00 L 5281649.00 4137976.00 L 5306695.00 4175460.00 L 5325266.00 4210205.00 L 5372522.00 4324291.00 L 5383958.00 4361991.00 L 5408050.00 4483105.00 L 5411565.00 4518797.00 L 5411911.00 4645798.00 L 5408049.00 4685005.00 L 5383958.00 4806118.00 L 5372522.00 4843818.00 L 5325266.00 4957904.00 L 5306695.00 4992649.00 L 5238090.00 5095324.00 L 5213097.00 5125778.00 L 5125779.00 5213096.00 L 5095325.00 5238089.00 L 5000000.00 5301782.90 L 4957905.00 5325265.00 L 4843820.00 5372521.00 L 4806119.00 5383957.00 L 4685006.00 5408048.00 L 4645799.00 5411910.00 L 4522313.00 5411910.00 L 4483106.00 5408049.00 L 4361992.00 5383957.00 L 4324292.00 5372521.00 L 4210206.00 5325265.00 L 4175461.00 5306694.00 L 4137976.00 5281647.00 L 4137976.00 22277404.00 L 4175460.00 22252358.00 L 4210205.00 22233787.00 L 4324291.00 22186531.00 L 4361991.00 22175095.00 L 4483105.00 22151003.00 L 4518797.00 22147488.00 L 4645798.00 22147142.00 L 4685005.00 22151004.00 L 4806118.00 22175095.00 L 4843822.00 22186533.00 L 4957904.00 22233787.00 L 4992649.00 22252358.00 L 5095324.00 22320963.00 L 5125778.00 22345956.00 L 5213096.00 22433274.00 L 5238089.00 22463728.00 L 5306694.00 22566403.00 L 5325265.00 22601148.00 L 5372521.00 22715234.00 L 5383957.00 22752934.00 L 5408048.00 22874047.00 L 5411910.00 22913254.00 L 5411910.00 23036740.00 L 5408049.00 23075947.00 L 5383957.00 23197061.00 L 5372521.00 23234761.00 L 5325265.00 23348847.00 L 5306694.00 23383592.00 L 5281646.00 23421079.00 L 14403388.00 23421077.00  zM 9110950.00 21265031.00 L 9110950.00 20950071.00 A 218822.96 218822.96 0 1 1 9548518.00 20950071.00 L 9548518.00 21265031.00 A 218822.96 218822.96 0 0 1 9110950.00 21265031.00  zM 9107594.00 23036220.00 L 9107594.00 22563780.00 A 218822.96 218822.96 0 1 1 9545162.00 22563780.00 L 9545162.00 23036220.00 A 218822.96 218822.96 0 0 1 9107594.00 23036220.00  zM 12507594.00 21311810.00 L 12507594.00 20996850.00 A 218822.96 218822.96 0 0 1 12945162.00 20996850.00 L 12945162.00 21311810.00 A 218822.96 218822.96 0 0 1 12507594.00 21311810.00  zM 12507594.00 23036220.00 L 12507594.00 22563780.00 A 218822.96 218822.96 0 0 1 12945162.00 22563780.00 L 12945162.00 23036220.00 A 218822.96 218822.96 0 0 1 12507594.00 23036220.00  z"/>
</g>
</svg>
