<svg width="29.99999842mm" height="49.99999906mm" viewBox="0 0 11811023 19685039"  version="1.1" xmlns="http://www.w3.org/2000/svg" xmlns:xlink="http://www.w3.org/1999/xlink">
<desc>
Origin 0 0 Bound 3937008 3937008 11811023 19685039
</desc>
<g fill-rule="evenodd" fill="rgb(112, 219, 250)" stroke="black" stroke-width="1" transform="translate(0, 19685039) scale(1, -1) translate(-3937008, -3937008)">
<path id="N" d="M 12927085.00 23036221.00 L 12927085.00 22563779.00 A 200706.53 200706.53 0 0 0 12525671.00 22563779.00 L 12525671.00 23036221.00 A 200706.53 200706.53 0 1 0 12927085.00 23036221.00  zM 12605954.00 23036220.00 L 12605954.00 22563780.00 A 120431.73 120431.73 0 0 1 12846802.00 22563780.00 L 12846802.00 23036220.00 A 120431.73 120431.73 0 0 1 12605954.00 23036220.00  z"/>
<path id="N" d="M 9527085.00 23036221.00 L 9527085.00 22563779.00 A 200706.53 200706.53 0 0 0 9125671.00 22563779.00 L 9125671.00 23036221.00 A 200706.53 200706.53 0 1 0 9527085.00 23036221.00  zM 9205954.00 23036220.00 L 9205954.00 22563780.00 A 120431.73 120431.73 0 0 1 9446802.00 22563780.00 L 9446802.00 23036220.00 A 120431.73 120431.73 0 0 1 9205954.00 23036220.00  z"/>
<path id="N" d="M 12927085.00 21311810.00 L 12927085.00 20996850.00 A 200706.53 200706.53 0 0 0 12525671.00 20996850.00 L 12525671.00 21311810.00 A 200706.53 200706.53 0 1 0 12927085.00 21311810.00  zM 12605954.00 21311810.00 L 12605954.00 20996850.00 A 120431.73 120431.73 0 0 1 12846802.00 20996850.00 L 12846802.00 21311810.00 A 120431.73 120431.73 0 0 1 12605954.00 21311810.00  z"/>
<path id="N" d="M 9530441.00 21265031.00 L 9530441.00 20950071.00 A 200706.53 200706.53 0 0 0 9129027.00 20950071.00 L 9129027.00 21265031.00 A 200706.53 200706.53 0 0 0 9530441.00 21265031.00  zM 9209310.00 21265031.00 L 9209310.00 20950071.00 A 120431.73 120431.73 0 1 1 9450158.00 20950071.00 L 9450158.00 21265031.00 A 120431.73 120431.73 0 0 1 9209310.00 21265031.00  z"/>
</g>
</svg>
