<svg width="29.99999842mm" height="49.99999906mm" viewBox="0 0 11811023 19685039"  version="1.1" xmlns="http://www.w3.org/2000/svg" xmlns:xlink="http://www.w3.org/1999/xlink">
<desc>
Origin 0 0 Bound 3937008 3937008 11811023 19685039
</desc>
<g fill-rule="evenodd" fill="rgb(0, 128, 0)" stroke="black" stroke-width="1" transform="translate(0, 19685039) scale(1, -1) translate(-3937008, -3937008)">
<path id="N" d="M 6028977.70 23421078.84 L 6050600.59 23399455.88 L 6064909.00 23408224.00 L 6095943.20 23421078.82 L 6231616.87 23421078.79 L 6262651.00 23408224.00 L 6276959.41 23399455.88 L 6298582.24 23421078.78 L 9428978.45 23421078.09 L 9450600.59 23399455.88 L 9464909.00 23408224.00 L 9495941.40 23421078.08 L 9631618.67 23421078.05 L 9662651.00 23408224.00 L 9676959.41 23399455.88 L 9698581.49 23421078.03 L 14403388.00 23421077.00 L 14378342.00 23383593.00 L 14359771.00 23348848.00 L 14312515.00 23234763.00 L 14301079.00 23197062.00 L 14276988.00 23075949.00 L 14273126.00 23036742.00 L 14273126.00 22913256.00 L 14276988.00 22874049.00 L 14301079.00 22752935.00 L 14312515.00 22715235.00 L 14359771.00 22601149.00 L 14378342.00 22566404.00 L 14446947.00 22463729.00 L 14471940.00 22433275.00 L 14559258.00 22345957.00 L 14589712.00 22320964.00 L 14692387.00 22252359.00 L 14727132.00 22233788.00 L 14841218.00 22186532.00 L 14878918.00 22175096.00 L 15000032.00 22151004.00 L 15035724.00 22147489.00 L 15162725.00 22147143.00 L 15201932.00 22151005.00 L 15323045.00 22175096.00 L 15360749.00 22186534.00 L 15474831.00 22233788.00 L 15509576.00 22252359.00 L 15547063.00 22277407.00 L 15547062.00 14886007.00 L 14549336.00 14886007.00 L 14510129.00 14882144.00 L 14472429.00 14870708.00 L 14429019.00 14852726.00 L 14394275.00 14834153.00 L 14363824.00 14809163.00 L 14330599.00 14775938.00 L 14305606.00 14745483.00 L 14287035.00 14710739.00 L 14269054.00 14667329.00 L 14257618.00 14629629.00 L 14253756.00 14590422.00 L 14253756.00 14543435.00 L 14257618.00 14504228.00 L 14269054.00 14466528.00 L 14287035.00 14423118.00 L 14305606.00 14388374.00 L 14330599.00 14357919.00 L 14363824.00 14324694.00 L 14394278.00 14299702.00 L 14429023.00 14281130.00 L 14472433.00 14263149.00 L 14510133.00 14251713.00 L 14549340.00 14247851.00 L 15547062.00 14247851.00 L 15547061.00 5281649.00 L 15509577.00 5306695.00 L 15474832.00 5325266.00 L 15360747.00 5372522.00 L 15323046.00 5383958.00 L 15201933.00 5408049.00 L 15162726.00 5411911.00 L 15039240.00 5411911.00 L 15000000.00 5408043.44 L 14878919.00 5383958.00 L 14841219.00 5372522.00 L 14727133.00 5325266.00 L 14692388.00 5306695.00 L 14589713.00 5238090.00 L 14559259.00 5213097.00 L 14471941.00 5125779.00 L 14446948.00 5095325.00 L 14383254.10 5000000.00 L 14359772.00 4957905.00 L 14312516.00 4843819.00 L 14301080.00 4806119.00 L 14276989.00 4685005.00 L 14273127.00 4645798.00 L 14273127.00 4522312.00 L 14276989.00 4483105.00 L 14301080.00 4361992.00 L 14312518.00 4324288.00 L 14359772.00 4210206.00 L 14378343.00 4175461.00 L 14403390.00 4137976.00 L 5281649.00 4137976.00 L 5306695.00 4175460.00 L 5325266.00 4210205.00 L 5372522.00 4324291.00 L 5383958.00 4361991.00 L 5408050.00 4483105.00 L 5411565.00 4518797.00 L 5411911.00 4645798.00 L 5408049.00 4685005.00 L 5383958.00 4806118.00 L 5372522.00 4843818.00 L 5325266.00 4957904.00 L 5306695.00 4992649.00 L 5238090.00 5095324.00 L 5213097.00 5125778.00 L 5125779.00 5213096.00 L 5095325.00 5238089.00 L 5000000.00 5301782.90 L 4957905.00 5325265.00 L 4843820.00 5372521.00 L 4806119.00 5383957.00 L 4685006.00 5408048.00 L 4645799.00 5411910.00 L 4522313.00 5411910.00 L 4483106.00 5408049.00 L 4361992.00 5383957.00 L 4324292.00 5372521.00 L 4210206.00 5325265.00 L 4175461.00 5306694.00 L 4137976.00 5281647.00 L 4137975.00 9627454.00 A 519515.98 519515.98 0 0 0 4213207.00 9858516.00 L 4241776.00 9898004.00 L 4285255.00 9965431.00 L 4336653.00 10066083.00 L 4348766.00 10095263.00 L 4383754.00 10202726.00 L 4391143.00 10233445.00 L 4408856.00 10345064.00 L 4413410.00 10425161.00 L 4413409.00 10834679.00 L 4408856.00 10914777.00 L 4391143.00 11026396.00 L 4383754.00 11057115.00 L 4348766.00 11164578.00 L 4336653.00 11193760.00 L 4285255.00 11294411.00 L 4273247.00 11314851.00 L 4213207.00 11401325.00 A 519476.62 519476.62 0 0 0 4137975.00 11632387.00 L 4137975.00 16221942.00 A 519515.98 519515.98 0 0 0 4213207.00 16453004.00 L 4241776.00 16492492.00 L 4285255.00 16559919.00 L 4336653.00 16660571.00 L 4348766.00 16689751.00 L 4383754.00 16797214.00 L 4391143.00 16827933.00 L 4408856.00 16939552.00 L 4413410.00 17019649.00 L 4413409.00 17429167.00 L 4408856.00 17509265.00 L 4391143.00 17620884.00 L 4383754.00 17651603.00 L 4348766.00 17759066.00 L 4336653.00 17788248.00 L 4285255.00 17888899.00 L 4273247.00 17909339.00 L 4213206.00 17995814.00 A 519584.91 519584.91 0 0 0 4137975.00 18226876.00 L 4137977.00 22277403.00 L 4175460.00 22252358.00 L 4210205.00 22233787.00 L 4324291.00 22186531.00 L 4361991.00 22175095.00 L 4483105.00 22151003.00 L 4518797.00 22147488.00 L 4645798.00 22147142.00 L 4685005.00 22151004.00 L 4806118.00 22175095.00 L 4843822.00 22186533.00 L 4957904.00 22233787.00 L 4992649.00 22252358.00 L 5095324.00 22320963.00 L 5125778.00 22345956.00 L 5213096.00 22433274.00 L 5238089.00 22463728.00 L 5306694.00 22566403.00 L 5325265.00 22601148.00 L 5372521.00 22715234.00 L 5383957.00 22752934.00 L 5408048.00 22874047.00 L 5411910.00 22913254.00 L 5411910.00 23036740.00 L 5408049.00 23075947.00 L 5383957.00 23197061.00 L 5372521.00 23234761.00 L 5325265.00 23348847.00 L 5306694.00 23383592.00 L 5281646.00 23421079.00 L 6028977.70 23421078.84  zM 4450002.37 7799983.06 m -140060.94 0 a 140060.94 140060.94 0 1 1 280121.87 0a 140060.94 140060.94 0 1 1 -280121.87 0M 4450002.37 8799983.06 m -140060.94 0 a 140060.94 140060.94 0 1 1 280121.87 0a 140060.94 140060.94 0 1 1 -280121.87 0M 5300002.37 8799983.06 m -140060.94 0 a 140060.94 140060.94 0 1 1 280121.87 0a 140060.94 140060.94 0 1 1 -280121.87 0M 10050000.00 4897839.15 A 136739.37 136739.37 0 0 1 9850000.00 4897839.15 A 136739.37 136739.37 0 0 1 9650000.00 4897839.15 A 136739.37 136739.37 0 0 1 9411534.63 4783972.61 L 9396407.00 4779384.00 A 140073.58 140073.58 0 0 1 9396407.00 4520616.00 L 9411534.63 4516027.39 L 9409956.00 4500000.00 A 140060.94 140060.94 0 0 1 9650000.00 4402160.85 A 136739.37 136739.37 0 0 1 9850000.00 4402160.85 A 136739.37 136739.37 0 0 1 10000000.00 4369526.15 L 10027804.00 4383558.00 L 10050000.00 4402160.85 A 136739.37 136739.37 0 0 1 10288465.37 4516027.39 L 10303593.00 4520616.00 A 140073.58 140073.58 0 0 1 10303593.00 4779384.00 L 10288465.37 4783972.61 L 10290044.00 4800000.00 A 140060.94 140060.94 0 0 1 10050000.00 4897839.15  zM 8826802.37 10856883.06 m -140060.94 0 a 140060.94 140060.94 0 1 1 280121.87 0a 140060.94 140060.94 0 1 1 -280121.87 0M 9252516.00 10962653.00 L 9247722.49 10946849.89 L 9231800.00 10966252.00 L 9210578.00 10983668.00 A 140009.76 140009.76 0 1 1 9262158.00 10813633.00 L 9266951.51 10829436.11 L 9282874.00 10810034.00 L 9304096.00 10792618.00 A 140009.76 140009.76 0 1 1 9252516.00 10962653.00  zM 9940778.00 11018364.00 L 9936851.82 11011019.18 L 9919204.00 11025502.00 A 140009.76 140009.76 0 1 1 9957842.00 10831256.00 L 9961768.18 10838600.82 L 9979416.00 10824118.00 L 10000000.00 10813114.81 L 10029899.00 10803207.00 A 140036.89 140036.89 0 0 1 10156246.00 10841534.00 L 10161401.22 10847815.81 L 10175994.00 10830034.00 A 140073.58 140073.58 0 1 1 10175994.00 11028086.00 L 10170838.78 11021804.19 L 10156246.00 11039586.00 A 140073.58 140073.58 0 0 1 9940778.00 11018364.00  zM 5150002.37 11299983.06 m -140060.94 0 a 140060.94 140060.94 0 1 1 280121.87 0a 140060.94 140060.94 0 1 1 -280121.87 0M 4900000.00 12040044.00 A 140060.94 140060.94 0 1 1 4927321.00 12037353.00 L 4900000.00 12040044.00  zM 5250002.37 11899983.06 m -140060.94 0 a 140060.94 140060.94 0 1 1 280121.87 0a 140060.94 140060.94 0 1 1 -280121.87 0M 6136426.37 11849983.06 m -140060.94 0 a 140060.94 140060.94 0 1 1 280121.87 0a 140060.94 140060.94 0 1 1 -280121.87 0M 8976382.37 11449028.06 m -140060.94 0 a 140060.94 140060.94 0 1 1 280121.87 0a 140060.94 140060.94 0 1 1 -280121.87 0M 7498614.37 12948595.06 m -140060.94 0 a 140060.94 140060.94 0 1 1 280121.87 0a 140060.94 140060.94 0 1 1 -280121.87 0M 9727450.21 12730636.21 L 9722742.00 12739444.00 A 140026.16 140026.16 0 1 1 9743229.79 12632923.79 L 9747938.00 12624116.00 A 140026.16 140026.16 0 0 1 9942184.00 12585478.00 L 9955554.75 12596450.81 L 9962298.00 12583836.00 A 140026.16 140026.16 0 1 1 10000000.00 12777313.86 L 9987565.25 12767109.19 L 9980822.00 12779724.00 A 140026.16 140026.16 0 0 1 9727450.21 12730636.21  zM 12783558.00 7169142.00 L 12775000.00 7153132.28 L 12766442.00 7169142.00 A 140026.16 140026.16 0 1 1 12766442.00 7013534.00 L 12775000.00 7029543.72 L 12783558.00 7013534.00 A 140026.16 140026.16 0 1 1 12783558.00 7169142.00  zM 13200002.37 7091321.06 m -140060.94 0 a 140060.94 140060.94 0 1 1 280121.87 0a 140060.94 140060.94 0 1 1 -280121.87 0M 13851360.00 8703679.15 A 136739.37 136739.37 0 0 1 13651360.00 8703679.15 A 136739.37 136739.37 0 0 1 13451360.00 8703679.15 A 136739.37 136739.37 0 1 1 13277321.00 8487353.00 A 140036.89 140036.89 0 0 1 13150000.00 8447839.15 A 136739.37 136739.37 0 0 1 12950000.00 8447839.15 A 136739.37 136739.37 0 1 1 12950000.00 8252160.85 A 136739.37 136739.37 0 0 1 13150000.00 8252160.85 A 136739.37 136739.37 0 0 1 13350000.00 8252160.85 A 136739.37 136739.37 0 0 1 13550000.00 8252160.85 A 136739.37 136739.37 0 0 1 13750000.00 8252160.85 A 136739.37 136739.37 0 0 1 13950000.00 8252160.85 A 136739.37 136739.37 0 1 1 14050000.00 8490044.00 L 14025939.05 8487674.10 L 14050386.00 8506814.00 L 14067802.00 8528036.00 A 140009.76 140009.76 0 0 1 13851360.00 8703679.15  zM 13801360.00 8103679.15 A 136739.37 136739.37 0 0 1 13601360.00 8103679.15 A 136739.37 136739.37 0 0 1 13401360.00 8103679.15 A 136739.37 136739.37 0 1 1 13401360.00 7908000.85 A 136739.37 136739.37 0 0 1 13601360.00 7908000.85 A 136739.37 136739.37 0 0 1 13801360.00 7908000.85 A 136739.37 136739.37 0 1 1 13801360.00 8103679.15  zM 14802160.85 8050000.00 A 136739.37 136739.37 0 1 1 15000000.00 8047839.15 L 15000000.00 8052160.85 A 136157.25 136157.25 0 0 1 15000000.00 8247839.15 A 136739.37 136739.37 0 1 1 14802160.85 8050000.00  zM 14822196.00 8583558.00 L 14838205.72 8575000.00 L 14822196.00 8566442.00 A 140026.16 140026.16 0 1 1 15000000.00 8547839.15 L 15000000.00 8602160.85 A 136157.25 136157.25 0 0 1 15000000.00 8797839.15 A 136739.37 136739.37 0 1 1 14822196.00 8583558.00  zM 14272679.00 9362647.00 L 14286304.91 9361304.91 L 14287647.00 9347679.00 A 140009.76 140009.76 0 0 1 14397679.00 9237647.00 L 14411304.91 9236304.91 L 14412647.00 9222679.00 A 140009.76 140009.76 0 0 1 14650000.00 9152160.85 A 136739.37 136739.37 0 0 1 14850000.00 9152160.85 A 136739.37 136739.37 0 0 1 15000000.00 9119526.15 L 15027804.00 9133558.00 L 15050000.00 9152160.85 A 136739.37 136739.37 0 1 1 15203593.00 9379384.00 L 15188465.37 9383972.61 L 15190044.00 9400000.00 A 140060.94 140060.94 0 0 1 14950000.00 9497839.15 A 136739.37 136739.37 0 0 1 14750000.00 9497839.15 A 136739.37 136739.37 0 0 1 14533558.00 9477804.00 L 14528575.24 9468482.59 L 14524026.00 9474026.00 A 140073.58 140073.58 0 0 1 14452321.00 9512353.00 L 14438695.09 9513695.09 L 14437353.00 9527321.00 A 140009.76 140009.76 0 1 1 14272679.00 9362647.00  zM 10392378.00 11586644.00 L 10384429.58 11571774.65 L 10380362.00 11579384.00 A 140026.16 140026.16 0 1 1 10380362.00 11423776.00 L 10388310.42 11438645.35 L 10392378.00 11431036.00 A 140026.16 140026.16 0 1 1 10392378.00 11586644.00  zM 10577498.00 12236464.00 L 10573518.47 12229019.37 L 10555944.00 12243442.00 A 140009.76 140009.76 0 1 1 10594582.00 12049196.00 L 10598561.53 12056640.63 L 10616136.00 12042218.00 A 140009.76 140009.76 0 1 1 10577498.00 12236464.00  zM 10393702.37 12661623.06 m -140060.94 0 a 140060.94 140060.94 0 1 1 280121.87 0a 140060.94 140060.94 0 1 1 -280121.87 0M 10866142.37 12661623.06 m -140060.94 0 a 140060.94 140060.94 0 1 1 280121.87 0a 140060.94 140060.94 0 1 1 -280121.87 0M 11400000.00 10040044.00 A 140060.94 140060.94 0 1 1 11427321.00 10037353.00 L 11400000.00 10040044.00  zM 13450002.37 10749983.06 m -140060.94 0 a 140060.94 140060.94 0 1 1 280121.87 0a 140060.94 140060.94 0 1 1 -280121.87 0M 13950002.37 10749983.06 m -140060.94 0 a 140060.94 140060.94 0 1 1 280121.87 0a 140060.94 140060.94 0 1 1 -280121.87 0M 4500002.37 15199983.06 m -140060.94 0 a 140060.94 140060.94 0 1 1 280121.87 0a 140060.94 140060.94 0 1 1 -280121.87 0M 6005662.37 14138283.06 m -140060.94 0 a 140060.94 140060.94 0 1 1 280121.87 0a 140060.94 140060.94 0 1 1 -280121.87 0M 6500002.37 13828723.06 m -140060.94 0 a 140060.94 140060.94 0 1 1 280121.87 0a 140060.94 140060.94 0 1 1 -280121.87 0M 7000002.37 14449983.06 m -140060.94 0 a 140060.94 140060.94 0 1 1 280121.87 0a 140060.94 140060.94 0 1 1 -280121.87 0M 4615742.37 15842503.06 m -140060.94 0 a 140060.94 140060.94 0 1 1 280121.87 0a 140060.94 140060.94 0 1 1 -280121.87 0M 6732102.37 16344523.06 m -140060.94 0 a 140060.94 140060.94 0 1 1 280121.87 0a 140060.94 140060.94 0 1 1 -280121.87 0M 6935502.37 16135483.06 m -140060.94 0 a 140060.94 140060.94 0 1 1 280121.87 0a 140060.94 140060.94 0 1 1 -280121.87 0M 7400002.37 13299983.06 m -140060.94 0 a 140060.94 140060.94 0 1 1 280121.87 0a 140060.94 140060.94 0 1 1 -280121.87 0M 7950002.37 13149983.06 m -140060.94 0 a 140060.94 140060.94 0 1 1 280121.87 0a 140060.94 140060.94 0 1 1 -280121.87 0M 8914182.37 13810723.06 m -140060.94 0 a 140060.94 140060.94 0 1 1 280121.87 0a 140060.94 140060.94 0 1 1 -280121.87 0M 7961622.37 15358103.06 m -140060.94 0 a 140060.94 140060.94 0 1 1 280121.87 0a 140060.94 140060.94 0 1 1 -280121.87 0M 8400002.37 15599983.06 m -140060.94 0 a 140060.94 140060.94 0 1 1 280121.87 0a 140060.94 140060.94 0 1 1 -280121.87 0M 8400002.37 15899983.06 m -140060.94 0 a 140060.94 140060.94 0 1 1 280121.87 0a 140060.94 140060.94 0 1 1 -280121.87 0M 7950002.37 16199983.06 m -140060.94 0 a 140060.94 140060.94 0 1 1 280121.87 0a 140060.94 140060.94 0 1 1 -280121.87 0M 9189009.63 13144401.18 A 135268.07 135268.07 0 0 1 9118761.00 13181533.00 A 140036.89 140036.89 0 0 1 8962056.00 13097773.00 L 8956188.99 13078430.79 L 8946066.00 13090766.00 A 140073.58 140073.58 0 0 1 8709687.00 13019061.00 L 8705764.00 13029973.00 A 140073.58 140073.58 0 1 1 8713733.00 12949059.00 L 8717656.00 12938147.00 A 140073.58 140073.58 0 0 1 8982291.01 12957489.21 L 8992414.00 12945154.00 A 140073.58 140073.58 0 0 1 9210310.37 12970918.82 A 135268.07 135268.07 0 0 1 9280559.00 12933787.00 A 140036.89 140036.89 0 1 1 9189009.63 13144401.18  zM 10050000.00 14040044.00 L 10022679.00 14037353.00 L 10000000.00 14030473.85 L 9972196.00 14016442.00 L 9950974.00 13999026.00 A 140073.58 140073.58 0 1 1 10050000.00 14040044.00  zM 10292122.37 13071123.06 m -140060.94 0 a 140060.94 140060.94 0 1 1 280121.87 0a 140060.94 140060.94 0 1 1 -280121.87 0M 10350002.37 14599983.06 m -140060.94 0 a 140060.94 140060.94 0 1 1 280121.87 0a 140060.94 140060.94 0 1 1 -280121.87 0M 10000000.00 15061304.00 A 140060.94 140060.94 0 1 1 10027321.00 15058613.00 L 10000000.00 15061304.00  zM 10000002.37 15299983.06 m -140060.94 0 a 140060.94 140060.94 0 1 1 280121.87 0a 140060.94 140060.94 0 1 1 -280121.87 0M 9177804.00 16183558.00 L 9187117.05 16191200.83 L 9170616.00 16162653.00 A 140060.94 140060.94 0 1 1 9222196.00 16225502.00 L 9212882.95 16217859.17 L 9229384.00 16246407.00 A 140060.94 140060.94 0 1 1 9177804.00 16183558.00  zM 11572822.37 13449983.06 m -140060.94 0 a 140060.94 140060.94 0 1 1 280121.87 0a 140060.94 140060.94 0 1 1 -280121.87 0M 12350002.37 13449983.06 m -140060.94 0 a 140060.94 140060.94 0 1 1 280121.87 0a 140060.94 140060.94 0 1 1 -280121.87 0M 12392154.00 14977694.00 L 12401526.53 14970002.36 L 12392696.00 14965282.00 A 140026.16 140026.16 0 0 1 12392696.00 14732398.00 L 12403937.80 14726388.69 L 12392018.00 14711864.00 A 140009.76 140009.76 0 1 1 12586264.00 14750502.00 L 12575022.20 14756511.31 L 12586942.00 14771036.00 A 140009.76 140009.76 0 0 1 12569526.00 14947866.00 L 12560153.47 14955557.64 L 12568984.00 14960278.00 A 140026.16 140026.16 0 1 1 12392154.00 14977694.00  zM 12428862.37 15601563.06 m -140060.94 0 a 140060.94 140060.94 0 1 1 280121.87 0a 140060.94 140060.94 0 1 1 -280121.87 0M 11130862.37 15697623.06 m -140060.94 0 a 140060.94 140060.94 0 1 1 280121.87 0a 140060.94 140060.94 0 1 1 -280121.87 0M 12550002.37 16149983.06 m -140060.94 0 a 140060.94 140060.94 0 1 1 280121.87 0a 140060.94 140060.94 0 1 1 -280121.87 0M 12600002.37 15849983.06 m -140060.94 0 a 140060.94 140060.94 0 1 1 280121.87 0a 140060.94 140060.94 0 1 1 -280121.87 0M 6000002.37 17249983.06 m -140060.94 0 a 140060.94 140060.94 0 1 1 280121.87 0a 140060.94 140060.94 0 1 1 -280121.87 0M 4594102.37 18666903.06 m -140060.94 0 a 140060.94 140060.94 0 1 1 280121.87 0a 140060.94 140060.94 0 1 1 -280121.87 0M 6900002.37 16649983.06 m -140060.94 0 a 140060.94 140060.94 0 1 1 280121.87 0a 140060.94 140060.94 0 1 1 -280121.87 0M 6447302.37 17250063.06 m -140060.94 0 a 140060.94 140060.94 0 1 1 280121.87 0a 140060.94 140060.94 0 1 1 -280121.87 0M 4550002.37 19099983.06 m -140060.94 0 a 140060.94 140060.94 0 1 1 280121.87 0a 140060.94 140060.94 0 1 1 -280121.87 0M 6450002.37 18699983.06 m -140060.94 0 a 140060.94 140060.94 0 1 1 280121.87 0a 140060.94 140060.94 0 1 1 -280121.87 0M 7100002.37 19573203.06 m -140060.94 0 a 140060.94 140060.94 0 1 1 280121.87 0a 140060.94 140060.94 0 1 1 -280121.87 0M 7910742.37 16585803.06 m -140060.94 0 a 140060.94 140060.94 0 1 1 280121.87 0a 140060.94 140060.94 0 1 1 -280121.87 0M 8386497.37 16399983.06 m -140060.94 0 a 140060.94 140060.94 0 1 1 280121.87 0a 140060.94 140060.94 0 1 1 -280121.87 0M 7450002.37 17428803.06 m -140060.94 0 a 140060.94 140060.94 0 1 1 280121.87 0a 140060.94 140060.94 0 1 1 -280121.87 0M 8387882.37 16701363.06 m -140060.94 0 a 140060.94 140060.94 0 1 1 280121.87 0a 140060.94 140060.94 0 1 1 -280121.87 0M 7350002.37 18449983.06 m -140060.94 0 a 140060.94 140060.94 0 1 1 280121.87 0a 140060.94 140060.94 0 1 1 -280121.87 0M 7470710.37 19199983.06 m -140060.94 0 a 140060.94 140060.94 0 1 1 280121.87 0a 140060.94 140060.94 0 1 1 -280121.87 0M 8423222.37 19549983.06 m -140060.94 0 a 140060.94 140060.94 0 1 1 280121.87 0a 140060.94 140060.94 0 1 1 -280121.87 0M 5906104.37 19617337.06 m -140060.94 0 a 140060.94 140060.94 0 1 1 280121.87 0a 140060.94 140060.94 0 1 1 -280121.87 0M 5050000.00 20640044.00 L 5022679.00 20637353.00 L 5000000.00 20630473.85 L 4972196.00 20616442.00 L 4950974.00 20599026.00 A 140073.58 140073.58 0 1 1 5050000.00 20640044.00  zM 6722842.37 19999983.06 m -140060.94 0 a 140060.94 140060.94 0 1 1 280121.87 0a 140060.94 140060.94 0 1 1 -280121.87 0M 7077162.37 19999983.06 m -140060.94 0 a 140060.94 140060.94 0 1 1 280121.87 0a 140060.94 140060.94 0 1 1 -280121.87 0M 7550002.37 20499983.06 m -140060.94 0 a 140060.94 140060.94 0 1 1 280121.87 0a 140060.94 140060.94 0 1 1 -280121.87 0M 7751962.37 20699983.06 m -140060.94 0 a 140060.94 140060.94 0 1 1 280121.87 0a 140060.94 140060.94 0 1 1 -280121.87 0M 8018236.05 20654253.17 L 7997401.00 20660573.00 A 140036.89 140036.89 0 1 1 8107433.00 20550541.00 L 8101843.95 20568966.83 L 8122679.00 20562647.00 A 140036.89 140036.89 0 1 1 8018236.05 20654253.17  zM 6280319.41 20942744.12 L 6266011.00 20933976.00 A 217790.26 217790.26 0 0 0 6068269.00 20933976.00 L 6053960.59 20942744.12 L 5980513.34 20869296.64 A 315554.05 315554.05 0 0 1 6353766.66 20869296.64 L 6280319.41 20942744.12  zM 6425863.36 21629606.66 L 6352415.88 21556159.41 L 6361184.00 21541851.00 A 217790.26 217790.26 0 0 0 6384921.00 21442980.00 L 6384921.00 21128020.00 A 217765.36 217765.36 0 0 0 6361184.00 21029149.00 L 6352415.88 21014840.59 L 6425863.36 20941393.34 A 315554.05 315554.05 0 0 1 6486234.00 21128020.00 L 6486234.00 21442980.00 A 319108.89 319108.89 0 0 1 6425863.36 21629606.66  zM 5908416.64 21629606.66 A 315554.05 315554.05 0 0 1 5848046.00 21442980.00 L 5848046.00 21128020.00 A 319108.89 319108.89 0 0 1 5908416.64 20941393.34 L 5981864.12 21014840.59 L 5973096.00 21029149.00 A 217790.26 217790.26 0 0 0 5949359.00 21128020.00 L 5949359.00 21442980.00 A 217765.36 217765.36 0 0 0 5973096.00 21541851.00 L 5981864.12 21556159.41 L 5908416.64 21629606.66  zM 5980513.34 21701703.36 L 6053960.59 21628255.88 L 6068269.00 21637024.00 A 217790.26 217790.26 0 0 0 6266011.00 21637024.00 L 6280319.41 21628255.88 L 6353766.66 21701703.36 A 315554.05 315554.05 0 0 1 5980513.34 21701703.36  zM 6276959.41 22556464.12 L 6262651.00 22547696.00 A 217790.26 217790.26 0 0 0 6064909.00 22547696.00 L 6050600.59 22556464.12 L 5977153.34 22483016.64 A 315554.05 315554.05 0 0 1 6350406.66 22483016.64 L 6276959.41 22556464.12  zM 6422503.36 23400806.66 L 6349055.88 23327359.41 L 6357824.00 23313051.00 A 217790.26 217790.26 0 0 0 6381561.00 23214180.00 L 6381561.00 22741740.00 A 217765.36 217765.36 0 0 0 6357824.00 22642869.00 L 6349055.88 22628560.59 L 6422503.36 22555113.34 A 315554.05 315554.05 0 0 1 6482874.00 22741740.00 L 6482874.00 23214180.00 A 319108.89 319108.89 0 0 1 6422503.36 23400806.66  zM 5905056.64 23400806.66 A 315554.05 315554.05 0 0 1 5844686.00 23214180.00 L 5844686.00 22741740.00 A 319108.89 319108.89 0 0 1 5905056.64 22555113.34 L 5978504.12 22628560.59 L 5969736.00 22642869.00 A 217790.26 217790.26 0 0 0 5945999.00 22741740.00 L 5945999.00 23214180.00 A 217765.36 217765.36 0 0 0 5969736.00 23313051.00 L 5978504.12 23327359.41 L 5905056.64 23400806.66  zM 8502362.37 17563923.06 m -140060.94 0 a 140060.94 140060.94 0 1 1 280121.87 0a 140060.94 140060.94 0 1 1 -280121.87 0M 10350000.00 16430736.00 L 10364104.24 16432125.21 L 10359956.00 16400000.00 L 10362647.00 16372679.00 L 10370616.00 16346407.00 L 10375316.93 16337612.82 A 134880.71 134880.71 0 0 1 10300974.00 16299026.00 A 140073.58 140073.58 0 1 1 10529384.00 16253593.00 L 10524683.07 16262387.18 A 134880.71 134880.71 0 0 1 10599026.00 16300974.00 A 140073.58 140073.58 0 0 1 10500000.00 16540044.00 L 10485895.76 16538654.79 L 10490044.00 16570780.00 A 140060.94 140060.94 0 1 1 10350000.00 16430736.00  zM 12650002.37 17223203.06 m -140060.94 0 a 140060.94 140060.94 0 1 1 280121.87 0a 140060.94 140060.94 0 1 1 -280121.87 0M 12800002.37 17576763.06 m -140060.94 0 a 140060.94 140060.94 0 1 1 280121.87 0a 140060.94 140060.94 0 1 1 -280121.87 0M 13050002.37 17223203.06 m -140060.94 0 a 140060.94 140060.94 0 1 1 280121.87 0a 140060.94 140060.94 0 1 1 -280121.87 0M 13150002.37 17576763.06 m -140060.94 0 a 140060.94 140060.94 0 1 1 280121.87 0a 140060.94 140060.94 0 1 1 -280121.87 0M 13450002.37 17299983.06 m -140060.94 0 a 140060.94 140060.94 0 1 1 280121.87 0a 140060.94 140060.94 0 1 1 -280121.87 0M 14750002.37 16894843.06 m -140060.94 0 a 140060.94 140060.94 0 1 1 280121.87 0a 140060.94 140060.94 0 1 1 -280121.87 0M 14872840.00 17390044.00 A 140060.94 140060.94 0 1 1 14900161.00 17387353.00 L 14872840.00 17390044.00  zM 14150002.37 17948403.06 m -140060.94 0 a 140060.94 140060.94 0 1 1 280121.87 0a 140060.94 140060.94 0 1 1 -280121.87 0M 14850002.37 17649983.06 m -140060.94 0 a 140060.94 140060.94 0 1 1 280121.87 0a 140060.94 140060.94 0 1 1 -280121.87 0M 13391919.00 18169084.00 L 13404139.68 18159055.00 L 13391919.00 18149026.00 A 140073.58 140073.58 0 1 1 13589971.00 18149026.00 L 13577750.32 18159055.00 L 13589971.00 18169084.00 A 140073.58 140073.58 0 1 1 13391919.00 18169084.00  zM 14250002.37 18449983.06 m -140060.94 0 a 140060.94 140060.94 0 1 1 280121.87 0a 140060.94 140060.94 0 1 1 -280121.87 0M 14900000.00 18290044.00 A 140060.94 140060.94 0 1 1 14927321.00 18287353.00 L 14900000.00 18290044.00  zM 10450000.00 20450980.00 L 9650000.00 20450980.00 L 9630491.00 20447099.00 L 9613951.00 20436048.00 L 8689032.00 19511128.00 L 8677981.00 19494589.00 L 8674100.00 19475080.00 L 8674100.00 18845680.00 L 8677981.00 18826171.00 L 8689032.00 18809632.00 L 9034711.00 18463952.00 L 9051251.00 18452901.00 L 9070760.00 18449020.00 L 9728884.00 18449020.00 L 9863952.00 18313952.00 L 9880491.00 18302901.00 L 9900000.00 18299020.00 L 10128883.70 18299020.00 L 10149020.00 18278883.30 L 10149020.00 17350000.00 L 10151020.58 17339943.48 A 137713.99 137713.99 0 1 1 10249030.92 17299020.00 L 11000000.00 17299020.00 A 50982.36 50982.36 0 0 1 11050980.00 17350000.00 L 11050980.00 18199020.00 L 12200000.00 18199020.00 L 12219509.00 18202901.00 L 12236048.00 18213952.00 L 12586048.00 18563952.00 L 12597099.00 18580491.00 L 12600980.00 18600000.00 L 12600980.00 19750000.00 L 12597099.00 19769509.00 L 12586048.00 19786049.00 L 12336048.00 20036048.00 L 12319509.00 20047099.00 L 12300000.00 20050980.00 L 11150000.00 20050980.00 L 11130491.00 20047099.00 L 11113952.00 20036048.00 L 10975490.00 19897586.00 L 10973550.00 19909755.00 L 10968024.00 19918024.00 L 10498502.40 20387545.60 L 10500980.00 20400000.00 A 50982.36 50982.36 0 0 1 10450000.00 20450980.00  zM 9676959.41 20989524.12 L 9662651.00 20980756.00 A 217790.26 217790.26 0 0 0 9464909.00 20980756.00 L 9450600.59 20989524.12 L 9377153.34 20916076.64 A 315554.05 315554.05 0 0 1 9750406.66 20916076.64 L 9676959.41 20989524.12  zM 13300002.37 19999983.06 m -140060.94 0 a 140060.94 140060.94 0 1 1 280121.87 0a 140060.94 140060.94 0 1 1 -280121.87 0M 13845277.37 20299983.06 m -140060.94 0 a 140060.94 140060.94 0 1 1 280121.87 0a 140060.94 140060.94 0 1 1 -280121.87 0M 14251802.37 18793163.06 m -140060.94 0 a 140060.94 140060.94 0 1 1 280121.87 0a 140060.94 140060.94 0 1 1 -280121.87 0M 14650002.37 20649983.06 m -140060.94 0 a 140060.94 140060.94 0 1 1 280121.87 0a 140060.94 140060.94 0 1 1 -280121.87 0M 14100002.37 20649983.06 m -140060.94 0 a 140060.94 140060.94 0 1 1 280121.87 0a 140060.94 140060.94 0 1 1 -280121.87 0M 9305056.64 21676386.66 A 315554.05 315554.05 0 0 1 9244686.00 21489760.00 L 9244686.00 21174800.00 A 319108.89 319108.89 0 0 1 9305056.64 20988173.34 L 9378504.12 21061620.59 L 9369736.00 21075929.00 A 217790.26 217790.26 0 0 0 9345999.00 21174800.00 L 9345999.00 21489760.00 A 217765.36 217765.36 0 0 0 9369736.00 21588631.00 L 9378504.12 21602939.41 L 9305056.64 21676386.66  zM 9377153.34 21748483.36 L 9450600.59 21675035.88 L 9464909.00 21683804.00 A 217790.26 217790.26 0 0 0 9662651.00 21683804.00 L 9676959.41 21675035.88 L 9750406.66 21748483.36 A 315554.05 315554.05 0 0 1 9377153.34 21748483.36  zM 9822503.36 21676386.66 L 9749055.88 21602939.41 L 9757824.00 21588631.00 A 217790.26 217790.26 0 0 0 9781561.00 21489760.00 L 9781561.00 21174800.00 A 217765.36 217765.36 0 0 0 9757824.00 21075929.00 L 9749055.88 21061620.59 L 9822503.36 20988173.34 A 315554.05 315554.05 0 0 1 9882874.00 21174800.00 L 9882874.00 21489760.00 A 319108.89 319108.89 0 0 1 9822503.36 21676386.66  zM 11350002.37 21099983.06 m -140060.94 0 a 140060.94 140060.94 0 1 1 280121.87 0a 140060.94 140060.94 0 1 1 -280121.87 0M 9676959.41 22556464.12 L 9662651.00 22547696.00 A 217790.26 217790.26 0 0 0 9464909.00 22547696.00 L 9450600.59 22556464.12 L 9377153.34 22483016.64 A 315554.05 315554.05 0 0 1 9750406.66 22483016.64 L 9676959.41 22556464.12  zM 9305056.64 23400806.66 A 315554.05 315554.05 0 0 1 9244686.00 23214180.00 L 9244686.00 22741740.00 A 319108.89 319108.89 0 0 1 9305056.64 22555113.34 L 9378504.12 22628560.59 L 9369736.00 22642869.00 A 217790.26 217790.26 0 0 0 9345999.00 22741740.00 L 9345999.00 23214180.00 A 217765.36 217765.36 0 0 0 9369736.00 23313051.00 L 9378504.12 23327359.41 L 9305056.64 23400806.66  zM 9822503.36 23400806.66 L 9749055.88 23327359.41 L 9757824.00 23313051.00 A 217790.26 217790.26 0 0 0 9781561.00 23214180.00 L 9781561.00 22741740.00 A 217765.36 217765.36 0 0 0 9757824.00 22642869.00 L 9749055.88 22628560.59 L 9822503.36 22555113.34 A 315554.05 315554.05 0 0 1 9882874.00 22741740.00 L 9882874.00 23214180.00 A 319108.89 319108.89 0 0 1 9822503.36 23400806.66  z"/>
<path id="N" d="M 12499020.00 19728883.00 L 12499020.00 18621116.00 L 12178884.00 18300980.00 L 11000000.00 18300980.00 A 50982.36 50982.36 0 0 1 10949020.00 18250000.00 L 10949020.00 17549030.92 A 140053.78 140053.78 0 0 1 10719228.89 17400980.00 L 10650980.00 17400980.00 L 10650980.00 18524510.00 L 10700000.00 18524510.00 L 10709755.00 18526450.00 L 10718024.00 18531976.00 L 10968024.00 18781976.00 L 10973550.00 18790245.00 L 10975490.00 18800000.00 L 10975490.00 19806243.00 L 10980491.00 19802901.00 A 50974.39 50974.39 0 0 1 11036048.00 19813952.00 L 11171116.00 19949020.00 L 12278884.00 19949020.00 L 12499020.00 19728883.00  z"/>
<path id="N" d="M 10924510.00 19889442.00 L 10924510.00 18810558.00 L 10689442.00 18575490.00 L 10643103.00 18575490.00 L 10636048.00 18586048.00 A 50982.36 50982.36 0 0 1 10549020.00 18550000.00 L 10549020.00 17400980.00 L 10250980.00 17400980.00 L 10250980.00 18300000.00 L 10247099.00 18319509.00 L 10236049.00 18336048.00 L 10186048.00 18386048.00 L 10169509.00 18397099.00 L 10150000.00 18400980.00 L 9921116.00 18400980.00 L 9786048.00 18536048.00 L 9769509.00 18547099.00 L 9750000.00 18550980.00 L 9091877.00 18550980.00 L 8776060.00 18866796.00 L 8776060.00 19453964.00 L 9671117.00 20349020.00 L 10450000.00 20349020.00 L 10462454.00 20351498.00 L 10924510.00 19889442.00  z"/>
</g>
</svg>
