<svg width="29.99999842mm" height="49.99999906mm" viewBox="0 0 11811023 19685039"  version="1.1" xmlns="http://www.w3.org/2000/svg" xmlns:xlink="http://www.w3.org/1999/xlink">
<desc>
Origin 0 0 Bound 3937008 3937008 11811023 19685039
</desc>
<g fill-rule="evenodd" fill="rgb(128, 0, 128)" stroke="black" stroke-width="1" transform="translate(0, 19685039) scale(1, -1) translate(-3937008, -3937008)">
<path id="N" d="M 14589564.00 23622046.00 A 119403.94 119403.94 0 0 0 14667948.00 23432809.00 L 14614046.00 23374616.00 A 629926.01 629926.01 0 0 1 15558792.00 22541965.00 A 119406.16 119406.16 0 0 0 15748029.00 22463580.00 L 15748030.38 17047244.00 L 14549340.00 17047244.00 A 120429.94 120429.94 0 0 1 14549340.00 16811024.00 L 15748030.35 16811024.00 L 15748030.00 5095473.00 A 119403.94 119403.94 0 0 0 15558793.00 5017089.00 L 15500600.00 5070991.00 A 629926.01 629926.01 0 0 1 14667949.00 4126245.00 A 119406.16 119406.16 0 0 0 14589564.00 3937008.00 L 5095473.00 3937008.00 A 119400.25 119400.25 0 0 0 5017088.00 4126244.00 L 5070991.00 4184437.00 A 629926.01 629926.01 0 0 1 4126245.00 5017088.00 A 119406.16 119406.16 0 0 0 3937008.00 5095473.00 L 3937008.00 22463580.00 A 119390.75 119390.75 0 0 0 4126245.00 22541965.00 L 4184437.00 22488062.00 A 629926.01 629926.01 0 0 1 5017088.00 23432808.00 A 119406.16 119406.16 0 0 0 5095473.00 23622045.00 L 14589564.00 23622046.00  zM 6476377.00 5492125.00 L 5846457.00 5492125.00 L 5846457.00 4114173.00 L 6476377.00 4114173.00 L 6476377.00 5492125.00  zM 7303149.00 7775590.00 L 6870079.00 7775590.00 L 6870079.00 6358268.00 L 7303149.00 6358268.00 L 7303149.00 7775590.00  zM 8090551.00 7775590.00 L 7657481.00 7775590.00 L 7657481.00 6358268.00 L 8090551.00 6358268.00 L 8090551.00 7775590.00  zM 9114173.00 5492125.00 L 8484253.00 5492125.00 L 8484253.00 4114173.00 L 9114173.00 4114173.00 L 9114173.00 5492125.00  zM 10440551.00 4953936.00 L 9259449.00 4953936.00 L 9259449.00 4324016.00 L 10440551.00 4324016.00 L 10440551.00 4953936.00  zM 10440551.00 6764960.00 L 9259449.00 6764960.00 L 9259449.00 6135040.00 L 10440551.00 6135040.00 L 10440551.00 6764960.00  zM 8937008.00 11342520.00 L 8858268.00 11342520.00 L 8858268.00 11066930.00 L 8937008.00 11066930.00 L 8937008.00 11342520.00  zM 9094488.00 11342520.00 L 9015748.00 11342520.00 L 9015748.00 11066930.00 L 9094488.00 11066930.00 L 9094488.00 11342520.00  zM 9409449.00 11342520.00 L 9330709.00 11342520.00 L 9330709.00 11066930.00 L 9409449.00 11066930.00 L 9409449.00 11342520.00  zM 9566929.00 11342520.00 L 9488189.00 11342520.00 L 9488189.00 11066930.00 L 9566929.00 11066930.00 L 9566929.00 11342520.00  zM 9724410.00 11342520.00 L 9645670.00 11342520.00 L 9645670.00 11066930.00 L 9724410.00 11066930.00 L 9724410.00 11342520.00  zM 8779528.00 11342520.00 L 8700788.00 11342520.00 L 8700788.00 11066930.00 L 8779528.00 11066930.00 L 8779528.00 11342520.00  zM 9251969.00 11342520.00 L 9173229.00 11342520.00 L 9173229.00 11066930.00 L 9251969.00 11066930.00 L 9251969.00 11342520.00  zM 9881890.00 11342520.00 L 9803150.00 11342520.00 L 9803150.00 11066930.00 L 9881890.00 11066930.00 L 9881890.00 11342520.00  zM 10039370.00 11342520.00 L 9960630.00 11342520.00 L 9960630.00 11066930.00 L 10039370.00 11066930.00 L 10039370.00 11342520.00  zM 8937008.00 12555118.00 L 8858268.00 12555118.00 L 8858268.00 12279528.00 L 8937008.00 12279528.00 L 8937008.00 12555118.00  zM 8779528.00 12555118.00 L 8700788.00 12555118.00 L 8700788.00 12279528.00 L 8779528.00 12279528.00 L 8779528.00 12555118.00  zM 9409449.00 12555118.00 L 9330709.00 12555118.00 L 9330709.00 12279528.00 L 9409449.00 12279528.00 L 9409449.00 12555118.00  zM 9566929.00 12555118.00 L 9488189.00 12555118.00 L 9488189.00 12279528.00 L 9566929.00 12279528.00 L 9566929.00 12555118.00  zM 9724410.00 12555118.00 L 9645670.00 12555118.00 L 9645670.00 12279528.00 L 9724410.00 12279528.00 L 9724410.00 12555118.00  zM 9881890.00 12555118.00 L 9803150.00 12555118.00 L 9803150.00 12279528.00 L 9881890.00 12279528.00 L 9881890.00 12555118.00  zM 10563779.00 7654330.00 L 10012599.00 7654330.00 L 10012599.00 6945670.00 L 10563779.00 6945670.00 L 10563779.00 7654330.00  zM 11587401.00 7654330.00 L 11036221.00 7654330.00 L 11036221.00 6945670.00 L 11587401.00 6945670.00 L 11587401.00 7654330.00  zM 13787008.00 6863385.00 L 11149214.00 6863385.00 L 11149214.00 4225591.00 L 13787008.00 4225591.00 L 13787008.00 6863385.00  zM 12560096.00 8987799.00 L 12406046.00 8987799.00 A 183244.99 183244.99 0 0 1 12222799.00 8804552.00 L 12222799.00 7895448.00 A 183244.99 183244.99 0 0 1 12406046.00 7712201.00 L 12560096.00 7712201.00 A 183244.99 183244.99 0 0 1 12743343.00 7895448.00 L 12743343.00 8804552.00 A 183244.99 183244.99 0 0 1 12560096.00 8987799.00  zM 15373680.00 7627978.00 L 14860178.00 7627978.00 L 14860178.00 7268872.00 L 15373680.00 7268872.00 L 15373680.00 7627978.00  zM 10772835.00 8882283.00 L 9887009.00 8882283.00 L 9887009.00 7917717.00 L 10772835.00 7917717.00 L 10772835.00 8882283.00  zM 12012992.00 8882283.00 L 11127166.00 8882283.00 L 11127166.00 7917717.00 L 12012992.00 7917717.00 L 12012992.00 8882283.00  zM 10669292.00 11342520.00 L 10590552.00 11342520.00 L 10590552.00 11066930.00 L 10669292.00 11066930.00 L 10669292.00 11342520.00  zM 15194127.00 8533071.00 L 15039731.00 8533071.00 A 183069.43 183069.43 0 0 1 15039731.00 8166929.00 L 15194127.00 8166929.00 A 183069.43 183069.43 0 0 1 15194127.00 8533071.00  zM 15194127.00 9434646.00 L 15039731.00 9434646.00 A 183069.43 183069.43 0 0 1 15039731.00 9068504.00 L 15194127.00 9068504.00 A 183069.43 183069.43 0 0 1 15194127.00 9434646.00  zM 10196851.00 11342520.00 L 10118111.00 11342520.00 L 10118111.00 11066930.00 L 10196851.00 11066930.00 L 10196851.00 11342520.00  zM 10354331.00 11342520.00 L 10275591.00 11342520.00 L 10275591.00 11066930.00 L 10354331.00 11066930.00 L 10354331.00 11342520.00  zM 10511811.00 11342520.00 L 10433071.00 11342520.00 L 10433071.00 11066930.00 L 10511811.00 11066930.00 L 10511811.00 11342520.00  zM 10826772.00 11342520.00 L 10748032.00 11342520.00 L 10748032.00 11066930.00 L 10826772.00 11066930.00 L 10826772.00 11342520.00  zM 10984252.00 11342520.00 L 10905512.00 11342520.00 L 10905512.00 11066930.00 L 10984252.00 11066930.00 L 10984252.00 11342520.00  zM 10039370.00 12555118.00 L 9960630.00 12555118.00 L 9960630.00 12279528.00 L 10039370.00 12279528.00 L 10039370.00 12555118.00  zM 10196851.00 12555118.00 L 10118111.00 12555118.00 L 10118111.00 12279528.00 L 10196851.00 12279528.00 L 10196851.00 12555118.00  zM 10511811.00 12555118.00 L 10433071.00 12555118.00 L 10433071.00 12279528.00 L 10511811.00 12279528.00 L 10511811.00 12555118.00  zM 10669292.00 12555118.00 L 10590552.00 12555118.00 L 10590552.00 12279528.00 L 10669292.00 12279528.00 L 10669292.00 12555118.00  zM 10984252.00 12555118.00 L 10905512.00 12555118.00 L 10905512.00 12279528.00 L 10984252.00 12279528.00 L 10984252.00 12555118.00  zM 9251969.00 12555118.00 L 9173229.00 12555118.00 L 9173229.00 12279528.00 L 9251969.00 12279528.00 L 9251969.00 12555118.00  zM 9094488.00 12555118.00 L 9015748.00 12555118.00 L 9015748.00 12279528.00 L 9094488.00 12279528.00 L 9094488.00 12555118.00  zM 8739764.00 14600983.00 L 8582284.00 14600983.00 L 8582284.00 13980905.00 L 8739764.00 13980905.00 L 8739764.00 14600983.00  zM 8936613.00 14600984.00 L 8779133.00 14600984.00 L 8779133.00 13980906.00 L 8936613.00 13980906.00 L 8936613.00 14600984.00  zM 9527165.00 14600984.00 L 9369685.00 14600984.00 L 9369685.00 13980906.00 L 9527165.00 13980906.00 L 9527165.00 14600984.00  zM 9724016.00 14600984.00 L 9566536.00 14600984.00 L 9566536.00 13980906.00 L 9724016.00 13980906.00 L 9724016.00 14600984.00  zM 8346063.00 14600984.00 L 8188583.00 14600984.00 L 8188583.00 13980906.00 L 8346063.00 13980906.00 L 8346063.00 14600984.00  zM 8149212.00 14600984.00 L 7991732.00 14600984.00 L 7991732.00 13980906.00 L 8149212.00 13980906.00 L 8149212.00 14600984.00  zM 8542913.00 14600984.00 L 8385433.00 14600984.00 L 8385433.00 13980906.00 L 8542913.00 13980906.00 L 8542913.00 14600984.00  zM 9133464.00 14600984.00 L 8975984.00 14600984.00 L 8975984.00 13980906.00 L 9133464.00 13980906.00 L 9133464.00 14600984.00  zM 9330315.00 14600984.00 L 9172835.00 14600984.00 L 9172835.00 13980906.00 L 9330315.00 13980906.00 L 9330315.00 14600984.00  zM 7400984.00 15152362.00 L 6780906.00 15152362.00 L 6780906.00 14994882.00 L 7400984.00 14994882.00 L 7400984.00 15152362.00  zM 7952362.00 14600984.00 L 7794882.00 14600984.00 L 7794882.00 13980906.00 L 7952362.00 13980906.00 L 7952362.00 14600984.00  zM 7400984.00 15349212.00 L 6780906.00 15349212.00 L 6780906.00 15191732.00 L 7400984.00 15191732.00 L 7400984.00 15349212.00  zM 7400984.00 15546063.00 L 6780906.00 15546063.00 L 6780906.00 15388583.00 L 7400984.00 15388583.00 L 7400984.00 15546063.00  zM 7400984.00 15742913.00 L 6780906.00 15742913.00 L 6780906.00 15585433.00 L 7400984.00 15585433.00 L 7400984.00 15742913.00  zM 7400983.00 15939764.00 L 6780905.00 15939764.00 L 6780905.00 15782284.00 L 7400983.00 15782284.00 L 7400983.00 15939764.00  zM 7400984.00 16136613.00 L 6780906.00 16136613.00 L 6780906.00 15979133.00 L 7400984.00 15979133.00 L 7400984.00 16136613.00  zM 7400984.00 16333464.00 L 6780906.00 16333464.00 L 6780906.00 16175984.00 L 7400984.00 16175984.00 L 7400984.00 16333464.00  zM 7400984.00 16727165.00 L 6780906.00 16727165.00 L 6780906.00 16569685.00 L 7400984.00 16569685.00 L 7400984.00 16727165.00  zM 7400984.00 16530315.00 L 6780906.00 16530315.00 L 6780906.00 16372835.00 L 7400984.00 16372835.00 L 7400984.00 16530315.00  zM 10354331.00 12555118.00 L 10275591.00 12555118.00 L 10275591.00 12279528.00 L 10354331.00 12279528.00 L 10354331.00 12555118.00  zM 10826772.00 12555118.00 L 10748032.00 12555118.00 L 10748032.00 12279528.00 L 10826772.00 12279528.00 L 10826772.00 12555118.00  zM 10117716.00 14600983.00 L 9960236.00 14600983.00 L 9960236.00 13980905.00 L 10117716.00 13980905.00 L 10117716.00 14600983.00  zM 10708268.00 14600984.00 L 10550788.00 14600984.00 L 10550788.00 13980906.00 L 10708268.00 13980906.00 L 10708268.00 14600984.00  zM 10314567.00 14600984.00 L 10157087.00 14600984.00 L 10157087.00 13980906.00 L 10314567.00 13980906.00 L 10314567.00 14600984.00  zM 9920867.00 14600984.00 L 9763387.00 14600984.00 L 9763387.00 13980906.00 L 9920867.00 13980906.00 L 9920867.00 14600984.00  zM 10511417.00 14600984.00 L 10353937.00 14600984.00 L 10353937.00 13980906.00 L 10511417.00 13980906.00 L 10511417.00 14600984.00  zM 10905118.00 14600984.00 L 10747638.00 14600984.00 L 10747638.00 13980906.00 L 10905118.00 13980906.00 L 10905118.00 14600984.00  zM 11919094.00 15152362.00 L 11299016.00 15152362.00 L 11299016.00 14994882.00 L 11919094.00 14994882.00 L 11919094.00 15152362.00  zM 11919094.00 15546063.00 L 11299016.00 15546063.00 L 11299016.00 15388583.00 L 11919094.00 15388583.00 L 11919094.00 15546063.00  zM 11919094.00 15349212.00 L 11299016.00 15349212.00 L 11299016.00 15191732.00 L 11919094.00 15191732.00 L 11919094.00 15349212.00  zM 11919094.00 15742913.00 L 11299016.00 15742913.00 L 11299016.00 15585433.00 L 11919094.00 15585433.00 L 11919094.00 15742913.00  zM 11919094.00 16333464.00 L 11299016.00 16333464.00 L 11299016.00 16175984.00 L 11919094.00 16175984.00 L 11919094.00 16333464.00  zM 11919094.00 16727165.00 L 11299016.00 16727165.00 L 11299016.00 16569685.00 L 11919094.00 16569685.00 L 11919094.00 16727165.00  zM 11919094.00 16530315.00 L 11299016.00 16530315.00 L 11299016.00 16372835.00 L 11919094.00 16372835.00 L 11919094.00 16530315.00  zM 11919094.00 16136613.00 L 11299016.00 16136613.00 L 11299016.00 15979133.00 L 11919094.00 15979133.00 L 11919094.00 16136613.00  zM 11919095.00 15939764.00 L 11299017.00 15939764.00 L 11299017.00 15782284.00 L 11919095.00 15782284.00 L 11919095.00 15939764.00  zM 11919094.00 16924016.00 L 11299016.00 16924016.00 L 11299016.00 16766536.00 L 11919094.00 16766536.00 L 11919094.00 16924016.00  zM 15550590.00 15968087.00 L 13936418.00 15968087.00 L 13936418.00 15535017.00 L 15550590.00 15535017.00 L 15550590.00 15968087.00  zM 15550590.00 16755488.00 L 13936418.00 16755488.00 L 13936418.00 16322418.00 L 15550590.00 16322418.00 L 15550590.00 16755488.00  zM 4862598.00 19727165.00 L 4850000.00 19724803.00 L 4832283.00 19714567.00 L 4821654.00 19700394.00 L 4816929.00 19685827.00 L 4816142.00 19501969.00 L 4818504.00 19489370.00 L 4828740.00 19471654.00 L 4842913.00 19461024.00 L 4857480.00 19456299.00 L 4946850.00 19455512.00 L 4959449.00 19457874.00 L 4977165.00 19468110.00 L 4987795.00 19482283.00 L 4992520.00 19496850.00 L 4993307.00 19680709.00 L 4990945.00 19693307.00 L 4980709.00 19711024.00 L 4966535.00 19721654.00 L 4951969.00 19726378.00 L 4862598.00 19727165.00  zM 5059449.00 19727165.00 L 5046850.00 19724803.00 L 5029134.00 19714567.00 L 5018504.00 19700394.00 L 5013780.00 19685827.00 L 5012992.00 19501969.00 L 5015354.00 19489370.00 L 5025591.00 19471654.00 L 5039764.00 19461024.00 L 5054331.00 19456299.00 L 5143701.00 19455512.00 L 5156299.00 19457874.00 L 5174016.00 19468110.00 L 5184646.00 19482283.00 L 5189370.00 19496850.00 L 5190157.00 19680709.00 L 5187795.00 19693307.00 L 5177559.00 19711024.00 L 5163386.00 19721654.00 L 5148819.00 19726378.00 L 5059449.00 19727165.00  zM 5453150.00 19727165.00 L 5440551.00 19724803.00 L 5422835.00 19714567.00 L 5412205.00 19700394.00 L 5407480.00 19685827.00 L 5406693.00 19501969.00 L 5409055.00 19489370.00 L 5419291.00 19471654.00 L 5433465.00 19461024.00 L 5448031.00 19456299.00 L 5537402.00 19455512.00 L 5550000.00 19457874.00 L 5567717.00 19468110.00 L 5578346.00 19482283.00 L 5583071.00 19496850.00 L 5583858.00 19680709.00 L 5581496.00 19693307.00 L 5571260.00 19711024.00 L 5557087.00 19721654.00 L 5542520.00 19726378.00 L 5453150.00 19727165.00  zM 7400983.00 17317716.00 L 6780905.00 17317716.00 L 6780905.00 17160236.00 L 7400983.00 17160236.00 L 7400983.00 17317716.00  zM 7400984.00 18105118.00 L 6780906.00 18105118.00 L 6780906.00 17947638.00 L 7400984.00 17947638.00 L 7400984.00 18105118.00  zM 6441732.00 19726378.00 L 6158268.00 19726378.00 L 6158268.00 19427166.00 L 6441732.00 19427166.00 L 6441732.00 19726378.00  zM 4750394.00 19941732.00 L 4737795.00 19939370.00 L 4720079.00 19929134.00 L 4709449.00 19914961.00 L 4704724.00 19900394.00 L 4703937.00 19811024.00 L 4706299.00 19798425.00 L 4716535.00 19780709.00 L 4730709.00 19770079.00 L 4745276.00 19765354.00 L 4929134.00 19764567.00 L 4941732.00 19766929.00 L 4959449.00 19777165.00 L 4970079.00 19791339.00 L 4974803.00 19805906.00 L 4975591.00 19895276.00 L 4973228.00 19907874.00 L 4962992.00 19925591.00 L 4948819.00 19936220.00 L 4934252.00 19940945.00 L 4750394.00 19941732.00  zM 5256299.00 19727165.00 L 5243701.00 19724803.00 L 5225984.00 19714567.00 L 5215354.00 19700394.00 L 5210630.00 19685827.00 L 5209843.00 19501969.00 L 5212205.00 19489370.00 L 5222441.00 19471654.00 L 5236614.00 19461024.00 L 5251181.00 19456299.00 L 5340551.00 19455512.00 L 5353150.00 19457874.00 L 5370866.00 19468110.00 L 5381496.00 19482283.00 L 5386220.00 19496850.00 L 5387008.00 19680709.00 L 5384646.00 19693307.00 L 5374409.00 19711024.00 L 5360236.00 19721654.00 L 5345669.00 19726378.00 L 5256299.00 19727165.00  zM 5470866.00 19941732.00 L 5458268.00 19939370.00 L 5440551.00 19929134.00 L 5429921.00 19914961.00 L 5425197.00 19900394.00 L 5424409.00 19811024.00 L 5426772.00 19798425.00 L 5437008.00 19780709.00 L 5451181.00 19770079.00 L 5465748.00 19765354.00 L 5649606.00 19764567.00 L 5662205.00 19766929.00 L 5679921.00 19777165.00 L 5690551.00 19791339.00 L 5695276.00 19805906.00 L 5696063.00 19895276.00 L 5693701.00 19907874.00 L 5683465.00 19925591.00 L 5669291.00 19936220.00 L 5654724.00 19940945.00 L 5470866.00 19941732.00  zM 6894488.00 19993110.00 L 6748820.00 19993110.00 L 6748820.00 19841536.00 L 6894488.00 19841536.00 L 6894488.00 19993110.00  zM 7091338.00 19993110.00 L 6945670.00 19993110.00 L 6945670.00 19841536.00 L 7091338.00 19841536.00 L 7091338.00 19993110.00  zM 7400984.00 16924016.00 L 6780906.00 16924016.00 L 6780906.00 16766536.00 L 7400984.00 16766536.00 L 7400984.00 16924016.00  zM 7400984.00 17120867.00 L 6780906.00 17120867.00 L 6780906.00 16963387.00 L 7400984.00 16963387.00 L 7400984.00 17120867.00  zM 7400984.00 17514567.00 L 6780906.00 17514567.00 L 6780906.00 17357087.00 L 7400984.00 17357087.00 L 7400984.00 17514567.00  zM 7400984.00 17711417.00 L 6780906.00 17711417.00 L 6780906.00 17553937.00 L 7400984.00 17553937.00 L 7400984.00 17711417.00  zM 7400984.00 17908268.00 L 6780906.00 17908268.00 L 6780906.00 17750788.00 L 7400984.00 17750788.00 L 7400984.00 17908268.00  zM 8346063.00 19119094.00 L 8188583.00 19119094.00 L 8188583.00 18499016.00 L 8346063.00 18499016.00 L 8346063.00 19119094.00  zM 8149212.00 19119094.00 L 7991732.00 19119094.00 L 7991732.00 18499016.00 L 8149212.00 18499016.00 L 8149212.00 19119094.00  zM 8542913.00 19119094.00 L 8385433.00 19119094.00 L 8385433.00 18499016.00 L 8542913.00 18499016.00 L 8542913.00 19119094.00  zM 7952362.00 19119094.00 L 7794882.00 19119094.00 L 7794882.00 18499016.00 L 7952362.00 18499016.00 L 7952362.00 19119094.00  zM 7288188.00 19993110.00 L 7142520.00 19993110.00 L 7142520.00 19841536.00 L 7288188.00 19841536.00 L 7288188.00 19993110.00  zM 4750394.00 20138583.00 L 4737795.00 20136220.00 L 4720079.00 20125984.00 L 4709449.00 20111811.00 L 4704724.00 20097244.00 L 4703937.00 20007874.00 L 4706299.00 19995276.00 L 4716535.00 19977559.00 L 4730709.00 19966929.00 L 4745276.00 19962205.00 L 4929134.00 19961417.00 L 4941732.00 19963780.00 L 4959449.00 19974016.00 L 4970079.00 19988189.00 L 4974803.00 20002756.00 L 4975591.00 20092126.00 L 4973228.00 20104724.00 L 4962992.00 20122441.00 L 4948819.00 20133071.00 L 4934252.00 20137795.00 L 4750394.00 20138583.00  zM 4750394.00 20335433.00 L 4737795.00 20333071.00 L 4720079.00 20322835.00 L 4709449.00 20308661.00 L 4704724.00 20294094.00 L 4703937.00 20204724.00 L 4706299.00 20192126.00 L 4716535.00 20174409.00 L 4730709.00 20163780.00 L 4745276.00 20159055.00 L 4929134.00 20158268.00 L 4941732.00 20160630.00 L 4959449.00 20170866.00 L 4970079.00 20185039.00 L 4974803.00 20199606.00 L 4975591.00 20288976.00 L 4973228.00 20301575.00 L 4962992.00 20319291.00 L 4948819.00 20329921.00 L 4934252.00 20334646.00 L 4750394.00 20335433.00  zM 5470866.00 20138583.00 L 5458268.00 20136220.00 L 5440551.00 20125984.00 L 5429921.00 20111811.00 L 5425197.00 20097244.00 L 5424409.00 20007874.00 L 5426772.00 19995276.00 L 5437008.00 19977559.00 L 5451181.00 19966929.00 L 5465748.00 19962205.00 L 5649606.00 19961417.00 L 5662205.00 19963780.00 L 5679921.00 19974016.00 L 5690551.00 19988189.00 L 5695276.00 20002756.00 L 5696063.00 20092126.00 L 5693701.00 20104724.00 L 5683465.00 20122441.00 L 5669291.00 20133071.00 L 5654724.00 20137795.00 L 5470866.00 20138583.00  zM 5470866.00 20335433.00 L 5458268.00 20333071.00 L 5440551.00 20322835.00 L 5429921.00 20308661.00 L 5425197.00 20294094.00 L 5424409.00 20204724.00 L 5426772.00 20192126.00 L 5437008.00 20174409.00 L 5451181.00 20163780.00 L 5465748.00 20159055.00 L 5649606.00 20158268.00 L 5662205.00 20160630.00 L 5679921.00 20170866.00 L 5690551.00 20185039.00 L 5695276.00 20199606.00 L 5696063.00 20288976.00 L 5693701.00 20301575.00 L 5683465.00 20319291.00 L 5669291.00 20329921.00 L 5654724.00 20334646.00 L 5470866.00 20335433.00  zM 6441732.00 20072835.00 L 6158268.00 20072835.00 L 6158268.00 19773623.00 L 6441732.00 19773623.00 L 6441732.00 20072835.00  zM 4862598.00 20644488.00 L 4850000.00 20642126.00 L 4832283.00 20631890.00 L 4821654.00 20617717.00 L 4816929.00 20603150.00 L 4816142.00 20419291.00 L 4818504.00 20406693.00 L 4828740.00 20388976.00 L 4842913.00 20378346.00 L 4857480.00 20373622.00 L 4946850.00 20372835.00 L 4959449.00 20375197.00 L 4977165.00 20385433.00 L 4987795.00 20399606.00 L 4992520.00 20414173.00 L 4993307.00 20598031.00 L 4990945.00 20610630.00 L 4980709.00 20628346.00 L 4966535.00 20638976.00 L 4951969.00 20643701.00 L 4862598.00 20644488.00  zM 5256299.00 20644488.00 L 5243701.00 20642126.00 L 5225984.00 20631890.00 L 5215354.00 20617717.00 L 5210630.00 20603150.00 L 5209843.00 20419291.00 L 5212205.00 20406693.00 L 5222441.00 20388976.00 L 5236614.00 20378346.00 L 5251181.00 20373622.00 L 5340551.00 20372835.00 L 5353150.00 20375197.00 L 5370866.00 20385433.00 L 5381496.00 20399606.00 L 5386220.00 20414173.00 L 5387008.00 20598031.00 L 5384646.00 20610630.00 L 5374409.00 20628346.00 L 5360236.00 20638976.00 L 5345669.00 20643701.00 L 5256299.00 20644488.00  zM 5453150.00 20644488.00 L 5440551.00 20642126.00 L 5422835.00 20631890.00 L 5412205.00 20617717.00 L 5407480.00 20603150.00 L 5406693.00 20419291.00 L 5409055.00 20406693.00 L 5419291.00 20388976.00 L 5433465.00 20378346.00 L 5448031.00 20373622.00 L 5537402.00 20372835.00 L 5550000.00 20375197.00 L 5567717.00 20385433.00 L 5578346.00 20399606.00 L 5583071.00 20414173.00 L 5583858.00 20598031.00 L 5581496.00 20610630.00 L 5571260.00 20628346.00 L 5557087.00 20638976.00 L 5542520.00 20643701.00 L 5453150.00 20644488.00  zM 5059449.00 20644488.00 L 5046850.00 20642126.00 L 5029134.00 20631890.00 L 5018504.00 20617717.00 L 5013780.00 20603150.00 L 5012992.00 20419291.00 L 5015354.00 20406693.00 L 5025591.00 20388976.00 L 5039764.00 20378346.00 L 5054331.00 20373622.00 L 5143701.00 20372835.00 L 5156299.00 20375197.00 L 5174016.00 20385433.00 L 5184646.00 20399606.00 L 5189370.00 20414173.00 L 5190157.00 20598031.00 L 5187795.00 20610630.00 L 5177559.00 20628346.00 L 5163386.00 20638976.00 L 5148819.00 20643701.00 L 5059449.00 20644488.00  zM 6403543.00 23498031.00 L 5872047.00 23498031.00 L 5872047.00 21844489.00 L 6403543.00 21844489.00 L 6403543.00 23498031.00  zM 6795866.00 20189763.00 L 6644292.00 20189763.00 L 6644292.00 20044095.00 L 6795866.00 20044095.00 L 6795866.00 20189763.00  zM 6795866.00 20386613.00 L 6644292.00 20386613.00 L 6644292.00 20240945.00 L 6795866.00 20240945.00 L 6795866.00 20386613.00  zM 7392716.00 20189763.00 L 7241142.00 20189763.00 L 7241142.00 20044095.00 L 7392716.00 20044095.00 L 7392716.00 20189763.00  zM 7392716.00 20386613.00 L 7241142.00 20386613.00 L 7241142.00 20240945.00 L 7392716.00 20240945.00 L 7392716.00 20386613.00  zM 7941732.00 20176377.00 L 7658268.00 20176377.00 L 7658268.00 19877165.00 L 7941732.00 19877165.00 L 7941732.00 20176377.00  zM 6894488.00 20589172.00 L 6748820.00 20589172.00 L 6748820.00 20437598.00 L 6894488.00 20437598.00 L 6894488.00 20589172.00  zM 7288188.00 20589172.00 L 7142520.00 20589172.00 L 7142520.00 20437598.00 L 7288188.00 20437598.00 L 7288188.00 20589172.00  zM 7941732.00 20522834.00 L 7658268.00 20522834.00 L 7658268.00 20223622.00 L 7941732.00 20223622.00 L 7941732.00 20522834.00  zM 7091338.00 20589172.00 L 6945670.00 20589172.00 L 6945670.00 20437598.00 L 7091338.00 20437598.00 L 7091338.00 20589172.00  zM 8627953.00 23498031.00 L 8096457.00 23498031.00 L 8096457.00 21844489.00 L 8627953.00 21844489.00 L 8627953.00 23498031.00  zM 9133464.00 19119094.00 L 8975984.00 19119094.00 L 8975984.00 18499016.00 L 9133464.00 18499016.00 L 9133464.00 19119094.00  zM 8936613.00 19119094.00 L 8779133.00 19119094.00 L 8779133.00 18499016.00 L 8936613.00 18499016.00 L 8936613.00 19119094.00  zM 9330315.00 19119094.00 L 9172835.00 19119094.00 L 9172835.00 18499016.00 L 9330315.00 18499016.00 L 9330315.00 19119094.00  zM 9724016.00 19119094.00 L 9566536.00 19119094.00 L 9566536.00 18499016.00 L 9724016.00 18499016.00 L 9724016.00 19119094.00  zM 9527165.00 19119094.00 L 9369685.00 19119094.00 L 9369685.00 18499016.00 L 9527165.00 18499016.00 L 9527165.00 19119094.00  zM 9920867.00 19119094.00 L 9763387.00 19119094.00 L 9763387.00 18499016.00 L 9920867.00 18499016.00 L 9920867.00 19119094.00  zM 10314567.00 19119094.00 L 10157087.00 19119094.00 L 10157087.00 18499016.00 L 10314567.00 18499016.00 L 10314567.00 19119094.00  zM 10511417.00 19119094.00 L 10353937.00 19119094.00 L 10353937.00 18499016.00 L 10511417.00 18499016.00 L 10511417.00 19119094.00  zM 10117716.00 19119095.00 L 9960236.00 19119095.00 L 9960236.00 18499017.00 L 10117716.00 18499017.00 L 10117716.00 19119095.00  zM 10708268.00 19119094.00 L 10550788.00 19119094.00 L 10550788.00 18499016.00 L 10708268.00 18499016.00 L 10708268.00 19119094.00  zM 10905118.00 19119094.00 L 10747638.00 19119094.00 L 10747638.00 18499016.00 L 10905118.00 18499016.00 L 10905118.00 19119094.00  zM 8739764.00 19119095.00 L 8582284.00 19119095.00 L 8582284.00 18499017.00 L 8739764.00 18499017.00 L 8739764.00 19119095.00  zM 10533464.00 20377952.00 L 10257874.00 20377952.00 L 10257874.00 20122048.00 L 10533464.00 20122048.00 L 10533464.00 20377952.00  zM 10887795.00 20377952.00 L 10612205.00 20377952.00 L 10612205.00 20122048.00 L 10887795.00 20122048.00 L 10887795.00 20377952.00  zM 9901575.00 21166141.00 L 9625984.00 21166141.00 L 9625984.00 20677953.00 L 9901575.00 20677953.00 L 9901575.00 21166141.00  zM 10807086.00 21166141.00 L 10649606.00 21166141.00 L 10649606.00 20677953.00 L 10807086.00 20677953.00 L 10807086.00 21166141.00  zM 10216535.00 21166141.00 L 9940945.00 21166141.00 L 9940945.00 20677953.00 L 10216535.00 20677953.00 L 10216535.00 21166141.00  zM 10413386.00 21166141.00 L 10255906.00 21166141.00 L 10255906.00 20677953.00 L 10413386.00 20677953.00 L 10413386.00 21166141.00  zM 10610236.00 21166141.00 L 10452756.00 21166141.00 L 10452756.00 20677953.00 L 10610236.00 20677953.00 L 10610236.00 21166141.00  zM 9108957.00 21265031.00 L 9108957.00 20950071.00 A 220780.35 220780.35 0 1 1 9550511.00 20950071.00 L 9550511.00 21265031.00 A 220780.35 220780.35 0 0 1 9108957.00 21265031.00  zM 9105601.00 23036221.00 L 9105601.00 22563779.00 A 220780.35 220780.35 0 1 1 9547155.00 22563779.00 L 9547155.00 23036221.00 A 220780.35 220780.35 0 1 1 9105601.00 23036221.00  zM 11919094.00 17120867.00 L 11299016.00 17120867.00 L 11299016.00 16963387.00 L 11919094.00 16963387.00 L 11919094.00 17120867.00  zM 11919094.00 17514567.00 L 11299016.00 17514567.00 L 11299016.00 17357087.00 L 11919094.00 17357087.00 L 11919094.00 17514567.00  zM 11919094.00 17711417.00 L 11299016.00 17711417.00 L 11299016.00 17553937.00 L 11919094.00 17553937.00 L 11919094.00 17711417.00  zM 11919094.00 17908268.00 L 11299016.00 17908268.00 L 11299016.00 17750788.00 L 11919094.00 17750788.00 L 11919094.00 17908268.00  zM 11919094.00 18105118.00 L 11299016.00 18105118.00 L 11299016.00 17947638.00 L 11919094.00 17947638.00 L 11919094.00 18105118.00  zM 11919095.00 17317716.00 L 11299017.00 17317716.00 L 11299017.00 17160236.00 L 11919095.00 17160236.00 L 11919095.00 17317716.00  zM 12310629.00 20377952.00 L 12035039.00 20377952.00 L 12035039.00 20122048.00 L 12310629.00 20122048.00 L 12310629.00 20377952.00  zM 15550590.00 18330292.00 L 13936418.00 18330292.00 L 13936418.00 17897222.00 L 15550590.00 17897222.00 L 15550590.00 18330292.00  zM 15550590.00 17542890.00 L 13936418.00 17542890.00 L 13936418.00 17109820.00 L 15550590.00 17109820.00 L 15550590.00 17542890.00  zM 15550590.00 19117693.00 L 13936418.00 19117693.00 L 13936418.00 18684623.00 L 15550590.00 18684623.00 L 15550590.00 19117693.00  zM 11003937.00 21166141.00 L 10846457.00 21166141.00 L 10846457.00 20677953.00 L 11003937.00 20677953.00 L 11003937.00 21166141.00  zM 11397638.00 21166141.00 L 11240158.00 21166141.00 L 11240158.00 20677953.00 L 11397638.00 20677953.00 L 11397638.00 21166141.00  zM 11594488.00 21166141.00 L 11437008.00 21166141.00 L 11437008.00 20677953.00 L 11594488.00 20677953.00 L 11594488.00 21166141.00  zM 12664960.00 20377952.00 L 12389370.00 20377952.00 L 12389370.00 20122048.00 L 12664960.00 20122048.00 L 12664960.00 20377952.00  zM 12106299.00 21166141.00 L 11830709.00 21166141.00 L 11830709.00 20677953.00 L 12106299.00 20677953.00 L 12106299.00 21166141.00  zM 11200787.00 21166141.00 L 11043307.00 21166141.00 L 11043307.00 20677953.00 L 11200787.00 20677953.00 L 11200787.00 21166141.00  zM 11791338.00 21166141.00 L 11633858.00 21166141.00 L 11633858.00 20677953.00 L 11791338.00 20677953.00 L 11791338.00 21166141.00  zM 12421260.00 21166141.00 L 12145669.00 21166141.00 L 12145669.00 20677953.00 L 12421260.00 20677953.00 L 12421260.00 21166141.00  zM 12505601.00 21311810.00 L 12505601.00 20996850.00 A 220780.35 220780.35 0 1 1 12947155.00 20996850.00 L 12947155.00 21311810.00 A 220780.35 220780.35 0 1 1 12505601.00 21311810.00  zM 12505601.00 23036221.00 L 12505601.00 22563779.00 A 220780.35 220780.35 0 1 1 12947155.00 22563779.00 L 12947155.00 23036221.00 A 220780.35 220780.35 0 1 1 12505601.00 23036221.00  z"/>
</g>
</svg>
