<svg width="29.99999842mm" height="49.99999906mm" viewBox="0 0 11811023 19685039"  version="1.1" xmlns="http://www.w3.org/2000/svg" xmlns:xlink="http://www.w3.org/1999/xlink">
<desc>
Origin 0 0 Bound 3937008 3937008 11811023 19685039
</desc>
<g fill-rule="evenodd" fill="rgb(128, 128, 0)" stroke="black" stroke-width="1" transform="translate(0, 19685039) scale(1, -1) translate(-3937008, -3937008)">
<path id="N" d="M 6749994.00 14499992.29 m -299421.33 0 a 299421.33 299421.33 0 1 1 598842.67 0a 299421.33 299421.33 0 1 1 -598842.67 0"/>
<path id="N" d="M 13022259.00 5837220.00 L 13034740.00 5807087.00 L 13034740.00 5708662.00 L 13022259.00 5678529.00 L 12992126.00 5666048.00 L 6692914.00 5666048.00 L 6662781.00 5678529.00 L 6650300.00 5708662.00 L 6650300.00 5807087.00 L 6662781.00 5837220.00 L 6692914.00 5849701.00 L 6723047.00 5837220.00 L 6735528.00 5807087.00 L 6735528.00 5751276.00 L 12949512.00 5751276.00 L 12949512.00 5807087.00 L 12961993.00 5837220.00 L 12992126.00 5849701.00 L 13022259.00 5837220.00  z"/>
<path id="N" d="M 13022259.00 12038007.00 L 13034740.00 12007874.00 L 13034740.00 11515748.00 L 13022259.00 11485615.00 L 12992126.00 11473134.00 L 12961993.00 11485615.00 L 12949512.00 11515748.00 L 12949512.00 11965260.00 L 6735528.00 11965260.00 L 6735528.00 11515748.00 L 6723047.00 11485615.00 L 6692914.00 11473134.00 L 6662781.00 11485615.00 L 6650300.00 11515748.00 L 6650300.00 12007874.00 L 6662781.00 12038007.00 L 6692914.00 12050488.00 L 12992126.00 12050488.00 L 13022259.00 12038007.00  z"/>
<path id="N" d="M 15557086.00 18893518.00 L 13918293.00 18893518.00 L 13918293.00 14964750.00 L 15557086.00 14964750.00 A 54118.70 54118.70 0 1 0 15557086.00 14856510.00 L 13864173.00 14856510.00 L 13825904.00 14872361.00 L 13810053.00 14910630.00 L 13810053.00 18947638.00 L 13825904.00 18985907.00 L 13864173.00 19001758.00 L 15557086.00 19001758.00 A 54121.84 54121.84 0 1 0 15557086.00 18893518.00  z"/>
<path id="N" d="M 13602361.47 11158266.47 m -100354.75 0 a 100354.75 100354.75 0 1 1 200709.51 0a 100354.75 100354.75 0 1 1 -200709.51 0"/>
<path id="N" d="M 12399998.47 21637006.47 m -100354.75 0 a 100354.75 100354.75 0 1 1 200709.51 0a 100354.75 100354.75 0 1 1 -200709.51 0"/>
<path id="N" d="M 13965566.00 23186826.00 L 13978047.00 23156693.00 L 13978047.00 21640945.00 L 13965566.00 21610812.00 L 13935433.00 21598331.00 L 12636220.00 21598331.00 L 12606087.00 21610812.00 L 12593606.00 21640945.00 L 12606087.00 21671078.00 L 12636220.00 21683559.00 L 13892819.00 21683559.00 L 13892819.00 23156693.00 L 13905300.00 23186826.00 L 13935433.00 23199307.00 L 13965566.00 23186826.00  z"/>
<path id="N" d="M 10894700.00 23186826.00 L 10907181.00 23156693.00 L 10907181.00 21683559.00 L 12163780.00 21683559.00 L 12193913.00 21671078.00 L 12206394.00 21640945.00 L 12193913.00 21610812.00 L 12163780.00 21598331.00 L 10864567.00 21598331.00 L 10834434.00 21610812.00 L 10821953.00 21640945.00 L 10821953.00 23156693.00 L 10834434.00 23186826.00 L 10864567.00 23199307.00 L 10894700.00 23186826.00  z"/>
<path id="N" d="M 11699606.00 13928163.00 L 5400394.00 13928163.00 A 54118.70 54118.70 0 0 0 5400394.00 14036403.00 L 11699606.00 14036403.00 A 54121.84 54121.84 0 0 0 11699606.00 13928163.00  z"/>
<path id="N" d="M 11699606.00 20463597.00 L 5400394.00 20463597.00 A 54118.70 54118.70 0 0 0 5400394.00 20571837.00 L 11699606.00 20571837.00 A 54121.84 54121.84 0 0 0 11699606.00 20463597.00  z"/>
</g>
</svg>
