<svg width="29.99999842mm" height="49.99999906mm" viewBox="0 0 11811023 19685039"  version="1.1" xmlns="http://www.w3.org/2000/svg" xmlns:xlink="http://www.w3.org/1999/xlink">
<desc>
Origin 0 0 Bound 3937008 3937008 11811023 19685039
</desc>
<g fill-rule="evenodd" fill="rgb(255, 0, 0)" stroke="black" stroke-width="1" transform="translate(0, 19685039) scale(1, -1) translate(-3937008, -3937008)">
<path id="N" d="M 10393701.00 20697638.00 L 10275591.00 20697638.00 L 10275591.00 21146456.00 L 10393701.00 21146456.00 L 10393701.00 20697638.00  z"/>
<path id="N" d="M 10868110.00 20141733.00 L 10631890.00 20141733.00 L 10631890.00 20358267.00 L 10868110.00 20358267.00 L 10868110.00 20141733.00  z"/>
<path id="N" d="M 12743343.00 8804552.00 L 12743343.00 7895448.00 A 183244.99 183244.99 0 0 0 12560096.00 7712201.00 L 12406046.00 7712201.00 A 183244.99 183244.99 0 0 0 12222799.00 7895448.00 L 12222799.00 8804552.00 A 183244.99 183244.99 0 0 0 12406046.00 8987799.00 L 12560096.00 8987799.00 A 183250.57 183250.57 0 0 0 12743343.00 8804552.00  z"/>
<path id="N" d="M 15194127.00 8166929.00 L 15039731.00 8166929.00 A 183069.43 183069.43 0 0 0 15039731.00 8533071.00 L 15194127.00 8533071.00 A 183070.90 183070.90 0 0 0 15194127.00 8166929.00  z"/>
<path id="N" d="M 4947822.00 20307664.00 L 4958743.00 20281299.00 L 4958743.00 20212401.00 L 4947822.00 20186036.00 L 4921457.00 20175115.00 L 4758071.00 20175115.00 L 4731706.00 20186036.00 L 4720785.00 20212401.00 L 4720785.00 20281299.00 L 4731706.00 20307664.00 L 4758071.00 20318585.00 L 4921457.00 20318585.00 L 4947822.00 20307664.00  z"/>
<path id="N" d="M 4965538.00 19699397.00 L 4976459.00 19673032.00 L 4976459.00 19509646.00 L 4965538.00 19483281.00 L 4939173.00 19472360.00 L 4870275.00 19472360.00 L 4843910.00 19483281.00 L 4832989.00 19509646.00 L 4832989.00 19673032.00 L 4843910.00 19699397.00 L 4870275.00 19710318.00 L 4939173.00 19710318.00 L 4965538.00 19699397.00  z"/>
<path id="N" d="M 6776181.00 20260630.00 L 6663977.00 20260630.00 L 6663977.00 20366928.00 L 6776181.00 20366928.00 L 6776181.00 20260630.00  z"/>
<path id="N" d="M 6874803.00 20457283.00 L 6768505.00 20457283.00 L 6768505.00 20569487.00 L 6874803.00 20569487.00 L 6874803.00 20457283.00  z"/>
<path id="N" d="M 7922047.00 19896850.00 L 7677953.00 19896850.00 L 7677953.00 20156692.00 L 7922047.00 20156692.00 L 7922047.00 19896850.00  z"/>
<path id="N" d="M 6422047.00 19793308.00 L 6177953.00 19793308.00 L 6177953.00 20053150.00 L 6422047.00 20053150.00 L 6422047.00 19793308.00  z"/>
<path id="N" d="M 7268503.00 19861221.00 L 7162205.00 19861221.00 L 7162205.00 19973425.00 L 7268503.00 19973425.00 L 7268503.00 19861221.00  z"/>
<path id="N" d="M 7373031.00 20063780.00 L 7260827.00 20063780.00 L 7260827.00 20170078.00 L 7373031.00 20170078.00 L 7373031.00 20063780.00  z"/>
<path id="N" d="M 11993307.00 7937402.00 L 11146851.00 7937402.00 L 11146851.00 8862598.00 L 11993307.00 8862598.00 L 11993307.00 7937402.00  z"/>
<path id="N" d="M 9527085.00 23036221.00 L 9527085.00 22563779.00 A 200706.53 200706.53 0 0 0 9125671.00 22563779.00 L 9125671.00 23036221.00 A 200706.53 200706.53 0 1 0 9527085.00 23036221.00  zM 9205954.00 23036220.00 L 9205954.00 22563780.00 A 120431.73 120431.73 0 0 1 9446802.00 22563780.00 L 9446802.00 23036220.00 A 120431.73 120431.73 0 0 1 9205954.00 23036220.00  z"/>
<path id="N" d="M 12927085.00 23036221.00 L 12927085.00 22563779.00 A 200706.53 200706.53 0 0 0 12525671.00 22563779.00 L 12525671.00 23036221.00 A 200706.53 200706.53 0 1 0 12927085.00 23036221.00  zM 12605954.00 23036220.00 L 12605954.00 22563780.00 A 120431.73 120431.73 0 0 1 12846802.00 22563780.00 L 12846802.00 23036220.00 A 120431.73 120431.73 0 0 1 12605954.00 23036220.00  z"/>
<path id="N" d="M 9530441.00 21265031.00 L 9530441.00 20950071.00 A 200706.53 200706.53 0 0 0 9129027.00 20950071.00 L 9129027.00 21265031.00 A 200706.53 200706.53 0 0 0 9530441.00 21265031.00  zM 9209310.00 21265031.00 L 9209310.00 20950071.00 A 120431.73 120431.73 0 1 1 9450158.00 20950071.00 L 9450158.00 21265031.00 A 120431.73 120431.73 0 0 1 9209310.00 21265031.00  z"/>
<path id="N" d="M 12927085.00 21311810.00 L 12927085.00 20996850.00 A 200706.53 200706.53 0 0 0 12525671.00 20996850.00 L 12525671.00 21311810.00 A 200706.53 200706.53 0 1 0 12927085.00 21311810.00  zM 12605954.00 21311810.00 L 12605954.00 20996850.00 A 120431.73 120431.73 0 0 1 12846802.00 20996850.00 L 12846802.00 21311810.00 A 120431.73 120431.73 0 0 1 12605954.00 21311810.00  z"/>
<path id="N" d="M 5556090.00 19699397.00 L 5567011.00 19673032.00 L 5567011.00 19509646.00 L 5556090.00 19483281.00 L 5529725.00 19472360.00 L 5460827.00 19472360.00 L 5434462.00 19483281.00 L 5423541.00 19509646.00 L 5423541.00 19673032.00 L 5434462.00 19699397.00 L 5460827.00 19710318.00 L 5529725.00 19710318.00 L 5556090.00 19699397.00  z"/>
<path id="N" d="M 5359239.00 20616719.00 L 5370160.00 20590354.00 L 5370160.00 20426968.00 L 5359239.00 20400603.00 L 5332874.00 20389682.00 L 5263976.00 20389682.00 L 5237611.00 20400603.00 L 5226690.00 20426968.00 L 5226690.00 20590354.00 L 5237611.00 20616719.00 L 5263976.00 20627640.00 L 5332874.00 20627640.00 L 5359239.00 20616719.00  z"/>
<path id="N" d="M 4947822.00 20110814.00 L 4958743.00 20084449.00 L 4958743.00 20015551.00 L 4947822.00 19989186.00 L 4921457.00 19978265.00 L 4758071.00 19978265.00 L 4731706.00 19989186.00 L 4720785.00 20015551.00 L 4720785.00 20084449.00 L 4731706.00 20110814.00 L 4758071.00 20121735.00 L 4921457.00 20121735.00 L 4947822.00 20110814.00  z"/>
<path id="N" d="M 5359239.00 19699397.00 L 5370160.00 19673032.00 L 5370160.00 19509646.00 L 5359239.00 19483281.00 L 5332874.00 19472360.00 L 5263976.00 19472360.00 L 5237611.00 19483281.00 L 5226690.00 19509646.00 L 5226690.00 19673032.00 L 5237611.00 19699397.00 L 5263976.00 19710318.00 L 5332874.00 19710318.00 L 5359239.00 19699397.00  z"/>
<path id="N" d="M 5162389.00 20616719.00 L 5173310.00 20590354.00 L 5173310.00 20426968.00 L 5162389.00 20400603.00 L 5136024.00 20389682.00 L 5067126.00 20389682.00 L 5040761.00 20400603.00 L 5029840.00 20426968.00 L 5029840.00 20590354.00 L 5040761.00 20616719.00 L 5067126.00 20627640.00 L 5136024.00 20627640.00 L 5162389.00 20616719.00  z"/>
<path id="N" d="M 4947822.00 19913964.00 L 4958743.00 19887599.00 L 4958743.00 19818701.00 L 4947822.00 19792336.00 L 4921457.00 19781415.00 L 4758071.00 19781415.00 L 4731706.00 19792336.00 L 4720785.00 19818701.00 L 4720785.00 19887599.00 L 4731706.00 19913964.00 L 4758071.00 19924885.00 L 4921457.00 19924885.00 L 4947822.00 19913964.00  z"/>
<path id="N" d="M 13787008.00 4225591.00 L 11149214.00 4225591.00 L 11149214.00 6863385.00 L 13787008.00 6863385.00 L 13787008.00 4225591.00  z"/>
<path id="N" d="M 10753150.00 7937402.00 L 9906694.00 7937402.00 L 9906694.00 8862598.00 L 10753150.00 8862598.00 L 10753150.00 7937402.00  z"/>
<path id="N" d="M 15373680.00 7268872.00 L 14860178.00 7268872.00 L 14860178.00 7627978.00 L 15373680.00 7627978.00 L 15373680.00 7268872.00  z"/>
<path id="N" d="M 7922047.00 20243307.00 L 7677953.00 20243307.00 L 7677953.00 20503149.00 L 7922047.00 20503149.00 L 7922047.00 20243307.00  z"/>
<path id="N" d="M 7283464.00 6377953.00 L 6889764.00 6377953.00 L 6889764.00 7755905.00 L 7283464.00 7755905.00 L 7283464.00 6377953.00  z"/>
<path id="N" d="M 11587401.00 6945670.00 L 11036221.00 6945670.00 L 11036221.00 7654330.00 L 11587401.00 7654330.00 L 11587401.00 6945670.00  z"/>
<path id="N" d="M 6874803.00 19861221.00 L 6768505.00 19861221.00 L 6768505.00 19973425.00 L 6874803.00 19973425.00 L 6874803.00 19861221.00  z"/>
<path id="N" d="M 9881890.00 20697638.00 L 9763780.00 20697638.00 L 9763780.00 21146456.00 L 9881890.00 21146456.00 L 9881890.00 20697638.00  z"/>
<path id="N" d="M 12401575.00 20697638.00 L 12283465.00 20697638.00 L 12283465.00 21146456.00 L 12401575.00 21146456.00 L 12401575.00 20697638.00  z"/>
<path id="N" d="M 6422047.00 19446851.00 L 6177953.00 19446851.00 L 6177953.00 19706693.00 L 6422047.00 19706693.00 L 6422047.00 19446851.00  z"/>
<path id="N" d="M 9763779.00 20697638.00 L 9645669.00 20697638.00 L 9645669.00 21146456.00 L 9763779.00 21146456.00 L 9763779.00 20697638.00  z"/>
<path id="N" d="M 12283464.00 20697638.00 L 12165354.00 20697638.00 L 12165354.00 21146456.00 L 12283464.00 21146456.00 L 12283464.00 20697638.00  z"/>
<path id="N" d="M 7268503.00 20457283.00 L 7162205.00 20457283.00 L 7162205.00 20569487.00 L 7268503.00 20569487.00 L 7268503.00 20457283.00  z"/>
<path id="N" d="M 7071653.00 19861221.00 L 6965355.00 19861221.00 L 6965355.00 19973425.00 L 7071653.00 19973425.00 L 7071653.00 19861221.00  z"/>
<path id="N" d="M 12645275.00 20141733.00 L 12409055.00 20141733.00 L 12409055.00 20358267.00 L 12645275.00 20358267.00 L 12645275.00 20141733.00  z"/>
<path id="N" d="M 10513779.00 20141733.00 L 10277559.00 20141733.00 L 10277559.00 20358267.00 L 10513779.00 20358267.00 L 10513779.00 20141733.00  z"/>
<path id="N" d="M 10491732.00 14000591.00 L 10373622.00 14000591.00 L 10373622.00 14581299.00 L 10491732.00 14581299.00 L 10491732.00 14000591.00  z"/>
<path id="N" d="M 15530905.00 17129505.00 L 13956103.00 17129505.00 L 13956103.00 17523205.00 L 15530905.00 17523205.00 L 15530905.00 17129505.00  z"/>
<path id="N" d="M 6776181.00 20063780.00 L 6663977.00 20063780.00 L 6663977.00 20170078.00 L 6776181.00 20170078.00 L 6776181.00 20063780.00  z"/>
<path id="N" d="M 4965538.00 20616719.00 L 4976459.00 20590354.00 L 4976459.00 20426968.00 L 4965538.00 20400603.00 L 4939173.00 20389682.00 L 4870275.00 20389682.00 L 4843910.00 20400603.00 L 4832989.00 20426968.00 L 4832989.00 20590354.00 L 4843910.00 20616719.00 L 4870275.00 20627640.00 L 4939173.00 20627640.00 L 4965538.00 20616719.00  z"/>
<path id="N" d="M 5668294.00 19913964.00 L 5679215.00 19887599.00 L 5679215.00 19818701.00 L 5668294.00 19792336.00 L 5641929.00 19781415.00 L 5478543.00 19781415.00 L 5452178.00 19792336.00 L 5441257.00 19818701.00 L 5441257.00 19887599.00 L 5452178.00 19913964.00 L 5478543.00 19924885.00 L 5641929.00 19924885.00 L 5668294.00 19913964.00  z"/>
<path id="N" d="M 5162389.00 19699397.00 L 5173310.00 19673032.00 L 5173310.00 19509646.00 L 5162389.00 19483281.00 L 5136024.00 19472360.00 L 5067126.00 19472360.00 L 5040761.00 19483281.00 L 5029840.00 19509646.00 L 5029840.00 19673032.00 L 5040761.00 19699397.00 L 5067126.00 19710318.00 L 5136024.00 19710318.00 L 5162389.00 19699397.00  z"/>
<path id="N" d="M 5556090.00 20616719.00 L 5567011.00 20590354.00 L 5567011.00 20426968.00 L 5556090.00 20400603.00 L 5529725.00 20389682.00 L 5460827.00 20389682.00 L 5434462.00 20400603.00 L 5423541.00 20426968.00 L 5423541.00 20590354.00 L 5434462.00 20616719.00 L 5460827.00 20627640.00 L 5529725.00 20627640.00 L 5556090.00 20616719.00  z"/>
<path id="N" d="M 5668294.00 20307664.00 L 5679215.00 20281299.00 L 5679215.00 20212401.00 L 5668294.00 20186036.00 L 5641929.00 20175115.00 L 5478543.00 20175115.00 L 5452178.00 20186036.00 L 5441257.00 20212401.00 L 5441257.00 20281299.00 L 5452178.00 20307664.00 L 5478543.00 20318585.00 L 5641929.00 20318585.00 L 5668294.00 20307664.00  z"/>
<path id="N" d="M 5668294.00 20110814.00 L 5679215.00 20084449.00 L 5679215.00 20015551.00 L 5668294.00 19989186.00 L 5641929.00 19978265.00 L 5478543.00 19978265.00 L 5452178.00 19989186.00 L 5441257.00 20015551.00 L 5441257.00 20084449.00 L 5452178.00 20110814.00 L 5478543.00 20121735.00 L 5641929.00 20121735.00 L 5668294.00 20110814.00  z"/>
<path id="N" d="M 11899409.00 16983072.00 L 11318701.00 16983072.00 L 11318701.00 17101182.00 L 11899409.00 17101182.00 L 11899409.00 16983072.00  z"/>
<path id="N" d="M 7381299.00 17376772.00 L 6800591.00 17376772.00 L 6800591.00 17494882.00 L 7381299.00 17494882.00 L 7381299.00 17376772.00  z"/>
<path id="N" d="M 7381298.00 17179921.00 L 6800590.00 17179921.00 L 6800590.00 17298031.00 L 7381298.00 17298031.00 L 7381298.00 17179921.00  z"/>
<path id="N" d="M 7381299.00 16983072.00 L 6800591.00 16983072.00 L 6800591.00 17101182.00 L 7381299.00 17101182.00 L 7381299.00 16983072.00  z"/>
<path id="N" d="M 11899409.00 16589370.00 L 11318701.00 16589370.00 L 11318701.00 16707480.00 L 11899409.00 16707480.00 L 11899409.00 16589370.00  z"/>
<path id="N" d="M 11899409.00 16786221.00 L 11318701.00 16786221.00 L 11318701.00 16904331.00 L 11899409.00 16904331.00 L 11899409.00 16786221.00  z"/>
<path id="N" d="M 11899409.00 16392520.00 L 11318701.00 16392520.00 L 11318701.00 16510630.00 L 11899409.00 16510630.00 L 11899409.00 16392520.00  z"/>
<path id="N" d="M 11899410.00 17179921.00 L 11318702.00 17179921.00 L 11318702.00 17298031.00 L 11899410.00 17298031.00 L 11899410.00 17179921.00  z"/>
<path id="N" d="M 7381299.00 16589370.00 L 6800591.00 16589370.00 L 6800591.00 16707480.00 L 7381299.00 16707480.00 L 7381299.00 16589370.00  z"/>
<path id="N" d="M 9507480.00 18518701.00 L 9389370.00 18518701.00 L 9389370.00 19099409.00 L 9507480.00 19099409.00 L 9507480.00 18518701.00  z"/>
<path id="N" d="M 9113779.00 18518701.00 L 8995669.00 18518701.00 L 8995669.00 19099409.00 L 9113779.00 19099409.00 L 9113779.00 18518701.00  z"/>
<path id="N" d="M 10294882.00 18518701.00 L 10176772.00 18518701.00 L 10176772.00 19099409.00 L 10294882.00 19099409.00 L 10294882.00 18518701.00  z"/>
<path id="N" d="M 11899409.00 17376772.00 L 11318701.00 17376772.00 L 11318701.00 17494882.00 L 11899409.00 17494882.00 L 11899409.00 17376772.00  z"/>
<path id="N" d="M 9901182.00 18518701.00 L 9783072.00 18518701.00 L 9783072.00 19099409.00 L 9901182.00 19099409.00 L 9901182.00 18518701.00  z"/>
<path id="N" d="M 10885433.00 18518701.00 L 10767323.00 18518701.00 L 10767323.00 19099409.00 L 10885433.00 19099409.00 L 10885433.00 18518701.00  z"/>
<path id="N" d="M 10491732.00 18518701.00 L 10373622.00 18518701.00 L 10373622.00 19099409.00 L 10491732.00 19099409.00 L 10491732.00 18518701.00  z"/>
<path id="N" d="M 10098031.00 18518702.00 L 9979921.00 18518702.00 L 9979921.00 19099410.00 L 10098031.00 19099410.00 L 10098031.00 18518702.00  z"/>
<path id="N" d="M 9310630.00 18518701.00 L 9192520.00 18518701.00 L 9192520.00 19099409.00 L 9310630.00 19099409.00 L 9310630.00 18518701.00  z"/>
<path id="N" d="M 8720079.00 18518702.00 L 8601969.00 18518702.00 L 8601969.00 19099410.00 L 8720079.00 19099410.00 L 8720079.00 18518702.00  z"/>
<path id="N" d="M 11899410.00 15801969.00 L 11318702.00 15801969.00 L 11318702.00 15920079.00 L 11899410.00 15920079.00 L 11899410.00 15801969.00  z"/>
<path id="N" d="M 11899409.00 15408268.00 L 11318701.00 15408268.00 L 11318701.00 15526378.00 L 11899409.00 15526378.00 L 11899409.00 15408268.00  z"/>
<path id="N" d="M 11899409.00 15211417.00 L 11318701.00 15211417.00 L 11318701.00 15329527.00 L 11899409.00 15329527.00 L 11899409.00 15211417.00  z"/>
<path id="N" d="M 11899409.00 15605118.00 L 11318701.00 15605118.00 L 11318701.00 15723228.00 L 11899409.00 15723228.00 L 11899409.00 15605118.00  z"/>
<path id="N" d="M 7381299.00 16392520.00 L 6800591.00 16392520.00 L 6800591.00 16510630.00 L 7381299.00 16510630.00 L 7381299.00 16392520.00  z"/>
<path id="N" d="M 7381299.00 15605118.00 L 6800591.00 15605118.00 L 6800591.00 15723228.00 L 7381299.00 15723228.00 L 7381299.00 15605118.00  z"/>
<path id="N" d="M 7381299.00 15998818.00 L 6800591.00 15998818.00 L 6800591.00 16116928.00 L 7381299.00 16116928.00 L 7381299.00 15998818.00  z"/>
<path id="N" d="M 7381298.00 15801969.00 L 6800590.00 15801969.00 L 6800590.00 15920079.00 L 7381298.00 15920079.00 L 7381298.00 15801969.00  z"/>
<path id="N" d="M 7381299.00 16195669.00 L 6800591.00 16195669.00 L 6800591.00 16313779.00 L 7381299.00 16313779.00 L 7381299.00 16195669.00  z"/>
<path id="N" d="M 7381299.00 15408268.00 L 6800591.00 15408268.00 L 6800591.00 15526378.00 L 7381299.00 15526378.00 L 7381299.00 15408268.00  z"/>
<path id="N" d="M 11899409.00 15998818.00 L 11318701.00 15998818.00 L 11318701.00 16116928.00 L 11899409.00 16116928.00 L 11899409.00 15998818.00  z"/>
<path id="N" d="M 7381299.00 16786221.00 L 6800591.00 16786221.00 L 6800591.00 16904331.00 L 7381299.00 16904331.00 L 7381299.00 16786221.00  z"/>
<path id="N" d="M 8627953.00 21844489.00 L 8096457.00 21844489.00 L 8096457.00 23498031.00 L 8627953.00 23498031.00 L 8627953.00 21844489.00  z"/>
<path id="N" d="M 6403543.00 21844489.00 L 5872047.00 21844489.00 L 5872047.00 23498031.00 L 6403543.00 23498031.00 L 6403543.00 21844489.00  z"/>
<path id="N" d="M 15530905.00 15554702.00 L 13956103.00 15554702.00 L 13956103.00 15948402.00 L 15530905.00 15948402.00 L 15530905.00 15554702.00  z"/>
<path id="N" d="M 15530905.00 16342103.00 L 13956103.00 16342103.00 L 13956103.00 16735803.00 L 15530905.00 16735803.00 L 15530905.00 16342103.00  z"/>
<path id="N" d="M 6456692.00 4133858.00 L 5866142.00 4133858.00 L 5866142.00 5472440.00 L 6456692.00 5472440.00 L 6456692.00 4133858.00  z"/>
<path id="N" d="M 9094488.00 4133858.00 L 8503938.00 4133858.00 L 8503938.00 5472440.00 L 9094488.00 5472440.00 L 9094488.00 4133858.00  z"/>
<path id="N" d="M 10688583.00 18518701.00 L 10570473.00 18518701.00 L 10570473.00 19099409.00 L 10688583.00 19099409.00 L 10688583.00 18518701.00  z"/>
<path id="N" d="M 8779528.00 12279528.00 L 8700788.00 12279528.00 L 8700788.00 12555118.00 L 8779528.00 12555118.00 L 8779528.00 12279528.00  z"/>
<path id="N" d="M 8937008.00 12279528.00 L 8858268.00 12279528.00 L 8858268.00 12555118.00 L 8937008.00 12555118.00 L 8937008.00 12279528.00  z"/>
<path id="N" d="M 10984252.00 12279528.00 L 10905512.00 12279528.00 L 10905512.00 12555118.00 L 10984252.00 12555118.00 L 10984252.00 12279528.00  z"/>
<path id="N" d="M 9881890.00 12279528.00 L 9803150.00 12279528.00 L 9803150.00 12555118.00 L 9881890.00 12555118.00 L 9881890.00 12279528.00  z"/>
<path id="N" d="M 10826772.00 11066930.00 L 10748032.00 11066930.00 L 10748032.00 11342520.00 L 10826772.00 11342520.00 L 10826772.00 11066930.00  z"/>
<path id="N" d="M 9566929.00 12279528.00 L 9488189.00 12279528.00 L 9488189.00 12555118.00 L 9566929.00 12555118.00 L 9566929.00 12279528.00  z"/>
<path id="N" d="M 9724410.00 12279528.00 L 9645670.00 12279528.00 L 9645670.00 12555118.00 L 9724410.00 12555118.00 L 9724410.00 12279528.00  z"/>
<path id="N" d="M 10984252.00 11066930.00 L 10905512.00 11066930.00 L 10905512.00 11342520.00 L 10984252.00 11342520.00 L 10984252.00 11066930.00  z"/>
<path id="N" d="M 9094488.00 12279528.00 L 9015748.00 12279528.00 L 9015748.00 12555118.00 L 9094488.00 12555118.00 L 9094488.00 12279528.00  z"/>
<path id="N" d="M 10826772.00 12279528.00 L 10748032.00 12279528.00 L 10748032.00 12555118.00 L 10826772.00 12555118.00 L 10826772.00 12279528.00  z"/>
<path id="N" d="M 10354331.00 12279528.00 L 10275591.00 12279528.00 L 10275591.00 12555118.00 L 10354331.00 12555118.00 L 10354331.00 12279528.00  z"/>
<path id="N" d="M 10511811.00 12279528.00 L 10433071.00 12279528.00 L 10433071.00 12555118.00 L 10511811.00 12555118.00 L 10511811.00 12279528.00  z"/>
<path id="N" d="M 9724410.00 11066930.00 L 9645670.00 11066930.00 L 9645670.00 11342520.00 L 9724410.00 11342520.00 L 9724410.00 11066930.00  z"/>
<path id="N" d="M 9566929.00 11066930.00 L 9488189.00 11066930.00 L 9488189.00 11342520.00 L 9566929.00 11342520.00 L 9566929.00 11066930.00  z"/>
<path id="N" d="M 10039370.00 12279528.00 L 9960630.00 12279528.00 L 9960630.00 12555118.00 L 10039370.00 12555118.00 L 10039370.00 12279528.00  z"/>
<path id="N" d="M 9094488.00 11066930.00 L 9015748.00 11066930.00 L 9015748.00 11342520.00 L 9094488.00 11342520.00 L 9094488.00 11066930.00  z"/>
<path id="N" d="M 9251969.00 11066930.00 L 9173229.00 11066930.00 L 9173229.00 11342520.00 L 9251969.00 11342520.00 L 9251969.00 11066930.00  z"/>
<path id="N" d="M 10196851.00 12279528.00 L 10118111.00 12279528.00 L 10118111.00 12555118.00 L 10196851.00 12555118.00 L 10196851.00 12279528.00  z"/>
<path id="N" d="M 10669292.00 12279528.00 L 10590552.00 12279528.00 L 10590552.00 12555118.00 L 10669292.00 12555118.00 L 10669292.00 12279528.00  z"/>
<path id="N" d="M 9251969.00 12279528.00 L 9173229.00 12279528.00 L 9173229.00 12555118.00 L 9251969.00 12555118.00 L 9251969.00 12279528.00  z"/>
<path id="N" d="M 9409449.00 12279528.00 L 9330709.00 12279528.00 L 9330709.00 12555118.00 L 9409449.00 12555118.00 L 9409449.00 12279528.00  z"/>
<path id="N" d="M 9409449.00 11066930.00 L 9330709.00 11066930.00 L 9330709.00 11342520.00 L 9409449.00 11342520.00 L 9409449.00 11066930.00  z"/>
<path id="N" d="M 8523228.00 14000591.00 L 8405118.00 14000591.00 L 8405118.00 14581299.00 L 8523228.00 14581299.00 L 8523228.00 14000591.00  z"/>
<path id="N" d="M 9310630.00 14000591.00 L 9192520.00 14000591.00 L 9192520.00 14581299.00 L 9310630.00 14581299.00 L 9310630.00 14000591.00  z"/>
<path id="N" d="M 7932677.00 18518701.00 L 7814567.00 18518701.00 L 7814567.00 19099409.00 L 7932677.00 19099409.00 L 7932677.00 18518701.00  z"/>
<path id="N" d="M 8916928.00 14000591.00 L 8798818.00 14000591.00 L 8798818.00 14581299.00 L 8916928.00 14581299.00 L 8916928.00 14000591.00  z"/>
<path id="N" d="M 9113779.00 14000591.00 L 8995669.00 14000591.00 L 8995669.00 14581299.00 L 9113779.00 14581299.00 L 9113779.00 14000591.00  z"/>
<path id="N" d="M 8720079.00 14000590.00 L 8601969.00 14000590.00 L 8601969.00 14581298.00 L 8720079.00 14581298.00 L 8720079.00 14000590.00  z"/>
<path id="N" d="M 8129527.00 14000591.00 L 8011417.00 14000591.00 L 8011417.00 14581299.00 L 8129527.00 14581299.00 L 8129527.00 14000591.00  z"/>
<path id="N" d="M 8326378.00 14000591.00 L 8208268.00 14000591.00 L 8208268.00 14581299.00 L 8326378.00 14581299.00 L 8326378.00 14000591.00  z"/>
<path id="N" d="M 10098031.00 14000590.00 L 9979921.00 14000590.00 L 9979921.00 14581298.00 L 10098031.00 14581298.00 L 10098031.00 14000590.00  z"/>
<path id="N" d="M 11899409.00 17967323.00 L 11318701.00 17967323.00 L 11318701.00 18085433.00 L 11899409.00 18085433.00 L 11899409.00 17967323.00  z"/>
<path id="N" d="M 7381299.00 17967323.00 L 6800591.00 17967323.00 L 6800591.00 18085433.00 L 7381299.00 18085433.00 L 7381299.00 17967323.00  z"/>
<path id="N" d="M 7381299.00 17770473.00 L 6800591.00 17770473.00 L 6800591.00 17888583.00 L 7381299.00 17888583.00 L 7381299.00 17770473.00  z"/>
<path id="N" d="M 8916928.00 18518701.00 L 8798818.00 18518701.00 L 8798818.00 19099409.00 L 8916928.00 19099409.00 L 8916928.00 18518701.00  z"/>
<path id="N" d="M 11899409.00 17770473.00 L 11318701.00 17770473.00 L 11318701.00 17888583.00 L 11899409.00 17888583.00 L 11899409.00 17770473.00  z"/>
<path id="N" d="M 7381299.00 17573622.00 L 6800591.00 17573622.00 L 6800591.00 17691732.00 L 7381299.00 17691732.00 L 7381299.00 17573622.00  z"/>
<path id="N" d="M 8523228.00 18518701.00 L 8405118.00 18518701.00 L 8405118.00 19099409.00 L 8523228.00 19099409.00 L 8523228.00 18518701.00  z"/>
<path id="N" d="M 8129527.00 18518701.00 L 8011417.00 18518701.00 L 8011417.00 19099409.00 L 8129527.00 19099409.00 L 8129527.00 18518701.00  z"/>
<path id="N" d="M 11899409.00 17573622.00 L 11318701.00 17573622.00 L 11318701.00 17691732.00 L 11899409.00 17691732.00 L 11899409.00 17573622.00  z"/>
<path id="N" d="M 8326378.00 18518701.00 L 8208268.00 18518701.00 L 8208268.00 19099409.00 L 8326378.00 19099409.00 L 8326378.00 18518701.00  z"/>
<path id="N" d="M 10039370.00 11066930.00 L 9960630.00 11066930.00 L 9960630.00 11342520.00 L 10039370.00 11342520.00 L 10039370.00 11066930.00  z"/>
<path id="N" d="M 10354331.00 11066930.00 L 10275591.00 11066930.00 L 10275591.00 11342520.00 L 10354331.00 11342520.00 L 10354331.00 11066930.00  z"/>
<path id="N" d="M 10590551.00 20697638.00 L 10472441.00 20697638.00 L 10472441.00 21146456.00 L 10590551.00 21146456.00 L 10590551.00 20697638.00  z"/>
<path id="N" d="M 10196851.00 11066930.00 L 10118111.00 11066930.00 L 10118111.00 11342520.00 L 10196851.00 11342520.00 L 10196851.00 11066930.00  z"/>
<path id="N" d="M 10669292.00 11066930.00 L 10590552.00 11066930.00 L 10590552.00 11342520.00 L 10669292.00 11342520.00 L 10669292.00 11066930.00  z"/>
<path id="N" d="M 8937008.00 11066930.00 L 8858268.00 11066930.00 L 8858268.00 11342520.00 L 8937008.00 11342520.00 L 8937008.00 11066930.00  z"/>
<path id="N" d="M 8779528.00 11066930.00 L 8700788.00 11066930.00 L 8700788.00 11342520.00 L 8779528.00 11342520.00 L 8779528.00 11066930.00  z"/>
<path id="N" d="M 10511811.00 11066930.00 L 10433071.00 11066930.00 L 10433071.00 11342520.00 L 10511811.00 11342520.00 L 10511811.00 11066930.00  z"/>
<path id="N" d="M 9881890.00 11066930.00 L 9803150.00 11066930.00 L 9803150.00 11342520.00 L 9881890.00 11342520.00 L 9881890.00 11066930.00  z"/>
<path id="N" d="M 11771653.00 20697638.00 L 11653543.00 20697638.00 L 11653543.00 21146456.00 L 11771653.00 21146456.00 L 11771653.00 20697638.00  z"/>
<path id="N" d="M 10688583.00 14000591.00 L 10570473.00 14000591.00 L 10570473.00 14581299.00 L 10688583.00 14581299.00 L 10688583.00 14000591.00  z"/>
<path id="N" d="M 7381299.00 15211417.00 L 6800591.00 15211417.00 L 6800591.00 15329527.00 L 7381299.00 15329527.00 L 7381299.00 15211417.00  z"/>
<path id="N" d="M 7932677.00 14000591.00 L 7814567.00 14000591.00 L 7814567.00 14581299.00 L 7932677.00 14581299.00 L 7932677.00 14000591.00  z"/>
<path id="N" d="M 10885433.00 14000591.00 L 10767323.00 14000591.00 L 10767323.00 14581299.00 L 10885433.00 14581299.00 L 10885433.00 14000591.00  z"/>
<path id="N" d="M 7381299.00 15014567.00 L 6800591.00 15014567.00 L 6800591.00 15132677.00 L 7381299.00 15132677.00 L 7381299.00 15014567.00  z"/>
<path id="N" d="M 9507480.00 14000591.00 L 9389370.00 14000591.00 L 9389370.00 14581299.00 L 9507480.00 14581299.00 L 9507480.00 14000591.00  z"/>
<path id="N" d="M 9901182.00 14000591.00 L 9783072.00 14000591.00 L 9783072.00 14581299.00 L 9901182.00 14581299.00 L 9901182.00 14000591.00  z"/>
<path id="N" d="M 10294882.00 14000591.00 L 10176772.00 14000591.00 L 10176772.00 14581299.00 L 10294882.00 14581299.00 L 10294882.00 14000591.00  z"/>
<path id="N" d="M 9704331.00 14000591.00 L 9586221.00 14000591.00 L 9586221.00 14581299.00 L 9704331.00 14581299.00 L 9704331.00 14000591.00  z"/>
<path id="N" d="M 15194127.00 9068504.00 L 15039731.00 9068504.00 A 183069.43 183069.43 0 0 0 15039731.00 9434646.00 L 15194127.00 9434646.00 A 183070.90 183070.90 0 0 0 15194127.00 9068504.00  z"/>
<path id="N" d="M 10440551.00 4324016.00 L 9259449.00 4324016.00 L 9259449.00 4953936.00 L 10440551.00 4953936.00 L 10440551.00 4324016.00  z"/>
<path id="N" d="M 12086614.00 20697638.00 L 11850394.00 20697638.00 L 11850394.00 21146456.00 L 12086614.00 21146456.00 L 12086614.00 20697638.00  z"/>
<path id="N" d="M 10196850.00 20697638.00 L 9960630.00 20697638.00 L 9960630.00 21146456.00 L 10196850.00 21146456.00 L 10196850.00 20697638.00  z"/>
<path id="N" d="M 15530905.00 17916907.00 L 13956103.00 17916907.00 L 13956103.00 18310607.00 L 15530905.00 18310607.00 L 15530905.00 17916907.00  z"/>
<path id="N" d="M 11899409.00 15014567.00 L 11318701.00 15014567.00 L 11318701.00 15132677.00 L 11899409.00 15132677.00 L 11899409.00 15014567.00  z"/>
<path id="N" d="M 11899409.00 16195669.00 L 11318701.00 16195669.00 L 11318701.00 16313779.00 L 11899409.00 16313779.00 L 11899409.00 16195669.00  z"/>
<path id="N" d="M 15530905.00 18704308.00 L 13956103.00 18704308.00 L 13956103.00 19098008.00 L 15530905.00 19098008.00 L 15530905.00 18704308.00  z"/>
<path id="N" d="M 10984252.00 20697638.00 L 10866142.00 20697638.00 L 10866142.00 21146456.00 L 10984252.00 21146456.00 L 10984252.00 20697638.00  z"/>
<path id="N" d="M 11377953.00 20697638.00 L 11259843.00 20697638.00 L 11259843.00 21146456.00 L 11377953.00 21146456.00 L 11377953.00 20697638.00  z"/>
<path id="N" d="M 7373031.00 20260630.00 L 7260827.00 20260630.00 L 7260827.00 20366928.00 L 7373031.00 20366928.00 L 7373031.00 20260630.00  z"/>
<path id="N" d="M 12290944.00 20141733.00 L 12054724.00 20141733.00 L 12054724.00 20358267.00 L 12290944.00 20358267.00 L 12290944.00 20141733.00  z"/>
<path id="N" d="M 11574803.00 20697638.00 L 11456693.00 20697638.00 L 11456693.00 21146456.00 L 11574803.00 21146456.00 L 11574803.00 20697638.00  z"/>
<path id="N" d="M 7071653.00 20457283.00 L 6965355.00 20457283.00 L 6965355.00 20569487.00 L 7071653.00 20569487.00 L 7071653.00 20457283.00  z"/>
<path id="N" d="M 11181102.00 20697638.00 L 11062992.00 20697638.00 L 11062992.00 21146456.00 L 11181102.00 21146456.00 L 11181102.00 20697638.00  z"/>
<path id="N" d="M 10787401.00 20697638.00 L 10669291.00 20697638.00 L 10669291.00 21146456.00 L 10787401.00 21146456.00 L 10787401.00 20697638.00  z"/>
<path id="N" d="M 9704331.00 18518701.00 L 9586221.00 18518701.00 L 9586221.00 19099409.00 L 9704331.00 19099409.00 L 9704331.00 18518701.00  z"/>
<path id="N" d="M 10563779.00 6945670.00 L 10012599.00 6945670.00 L 10012599.00 7654330.00 L 10563779.00 7654330.00 L 10563779.00 6945670.00  z"/>
<path id="N" d="M 10440551.00 6135040.00 L 9259449.00 6135040.00 L 9259449.00 6764960.00 L 10440551.00 6764960.00 L 10440551.00 6135040.00  z"/>
<path id="N" d="M 8070866.00 6377953.00 L 7677166.00 6377953.00 L 7677166.00 7755905.00 L 8070866.00 7755905.00 L 8070866.00 6377953.00  z"/>
</g>
</svg>
