<svg width="29.99999842mm" height="49.99999906mm" viewBox="0 0 11811023 19685039"  version="1.1" xmlns="http://www.w3.org/2000/svg" xmlns:xlink="http://www.w3.org/1999/xlink">
<desc>
Origin 0 0 Bound 3937008 3937008 11811023 19685039
</desc>
<g fill-rule="evenodd" fill="rgb(128, 0, 128)" stroke="black" stroke-width="1" transform="translate(0, 19685039) scale(1, -1) translate(-3937008, -3937008)">
<path id="N" d="M 14589564.00 23622046.00 A 119403.94 119403.94 0 0 0 14667948.00 23432809.00 L 14614046.00 23374616.00 A 629926.01 629926.01 0 0 1 15558792.00 22541965.00 A 119406.16 119406.16 0 0 0 15748029.00 22463580.00 L 15748030.33 16653543.00 L 14549340.00 16653543.00 A 120429.94 120429.94 0 0 1 14549340.00 16417323.00 L 15748030.30 16417323.00 L 15748030.00 5095473.00 A 119403.94 119403.94 0 0 0 15558793.00 5017089.00 L 15500600.00 5070991.00 A 629926.01 629926.01 0 0 1 14667949.00 4126245.00 A 119406.16 119406.16 0 0 0 14589564.00 3937008.00 L 5095473.00 3937007.00 A 119403.94 119403.94 0 0 0 5017089.00 4126244.00 L 5070991.00 4184437.00 A 629926.01 629926.01 0 0 1 4126245.00 5017088.00 A 119406.16 119406.16 0 0 0 3937008.00 5095473.00 L 3937007.00 9643297.00 A 721075.40 721075.40 0 0 0 4041430.00 9964024.00 L 4074802.00 10009842.00 L 4106273.00 10056828.00 A 718876.83 718876.83 0 0 1 4212598.00 10433071.00 L 4212597.00 10826772.00 L 4210372.00 10883279.00 A 718868.63 718868.63 0 0 1 4074802.00 11249999.00 L 4041430.00 11295817.00 A 721094.89 721094.89 0 0 0 3937007.00 11616544.00 L 3937007.00 16729911.00 A 721075.40 721075.40 0 0 0 4041430.00 17050638.00 L 4074802.00 17096456.00 L 4106273.00 17143442.00 A 718876.83 718876.83 0 0 1 4212598.00 17519685.00 L 4212597.00 17913386.00 L 4210372.00 17969893.00 A 718868.63 718868.63 0 0 1 4074802.00 18336613.00 L 4041430.00 18382431.00 A 721116.06 721116.06 0 0 0 3937007.00 18703159.00 L 3937009.00 22463580.00 A 119400.25 119400.25 0 0 0 4126245.00 22541965.00 L 4184437.00 22488062.00 A 629926.01 629926.01 0 0 1 5017088.00 23432808.00 A 119406.16 119406.16 0 0 0 5095473.00 23622045.00 L 14589564.00 23622046.00  zM 4757480.00 6612205.00 L 4442520.00 6612205.00 L 4442520.00 6297245.00 L 4757480.00 6297245.00 L 4757480.00 6612205.00  zM 5457480.00 6612205.00 L 5142520.00 6612205.00 L 5142520.00 6297245.00 L 5457480.00 6297245.00 L 5457480.00 6612205.00  zM 5457480.00 7202756.00 L 5142520.00 7202756.00 L 5142520.00 6887796.00 L 5457480.00 6887796.00 L 5457480.00 7202756.00  zM 4757480.00 7202756.00 L 4442520.00 7202756.00 L 4442520.00 6887796.00 L 4757480.00 6887796.00 L 4757480.00 7202756.00  zM 4727952.00 7560630.00 L 4472048.00 7560630.00 L 4472048.00 7285040.00 L 4727952.00 7285040.00 L 4727952.00 7560630.00  zM 4727952.00 7914961.00 L 4472048.00 7914961.00 L 4472048.00 7639371.00 L 4727952.00 7639371.00 L 4727952.00 7914961.00  zM 5427952.00 7560630.00 L 5172048.00 7560630.00 L 5172048.00 7285040.00 L 5427952.00 7285040.00 L 5427952.00 7560630.00  zM 5427952.00 7914961.00 L 5172048.00 7914961.00 L 5172048.00 7639371.00 L 5427952.00 7639371.00 L 5427952.00 7914961.00  zM 4797244.00 8440945.00 L 4482284.00 8440945.00 L 4482284.00 8125985.00 L 4797244.00 8125985.00 L 4797244.00 8440945.00  zM 5517716.00 8440945.00 L 5202756.00 8440945.00 L 5202756.00 8125985.00 L 5517716.00 8125985.00 L 5517716.00 8440945.00  zM 6476377.00 5492125.00 L 5846457.00 5492125.00 L 5846457.00 4114173.00 L 6476377.00 4114173.00 L 6476377.00 5492125.00  zM 9114173.00 5492125.00 L 8484253.00 5492125.00 L 8484253.00 4114173.00 L 9114173.00 4114173.00 L 9114173.00 5492125.00  zM 8090551.00 7775590.00 L 7657481.00 7775590.00 L 7657481.00 6358268.00 L 8090551.00 6358268.00 L 8090551.00 7775590.00  zM 7303149.00 7775590.00 L 6870079.00 7775590.00 L 6870079.00 6358268.00 L 7303149.00 6358268.00 L 7303149.00 7775590.00  zM 9110629.00 7627952.00 L 8835039.00 7627952.00 L 8835039.00 7372048.00 L 9110629.00 7372048.00 L 9110629.00 7627952.00  zM 8060630.00 8269291.00 L 7639370.00 8269291.00 L 7639370.00 7844095.00 L 8060630.00 7844095.00 L 8060630.00 8269291.00  zM 8653149.00 8054724.00 L 8298819.00 8054724.00 L 8298819.00 7700394.00 L 8653149.00 7700394.00 L 8653149.00 8054724.00  zM 8060630.00 8855905.00 L 7639370.00 8855905.00 L 7639370.00 8430709.00 L 8060630.00 8430709.00 L 8060630.00 8855905.00  zM 9464960.00 7627952.00 L 9189370.00 7627952.00 L 9189370.00 7372048.00 L 9464960.00 7372048.00 L 9464960.00 7627952.00  zM 9401180.00 8054724.00 L 9046850.00 8054724.00 L 9046850.00 7700394.00 L 9401180.00 7700394.00 L 9401180.00 8054724.00  zM 4797244.00 8874015.00 L 4482284.00 8874015.00 L 4482284.00 8559055.00 L 4797244.00 8559055.00 L 4797244.00 8874015.00  zM 4910629.00 9427952.00 L 4635039.00 9427952.00 L 4635039.00 9172048.00 L 4910629.00 9172048.00 L 4910629.00 9427952.00  zM 5517716.00 8874015.00 L 5202756.00 8874015.00 L 5202756.00 8559055.00 L 5517716.00 8559055.00 L 5517716.00 8874015.00  zM 5264960.00 9427952.00 L 4989370.00 9427952.00 L 4989370.00 9172048.00 L 5264960.00 9172048.00 L 5264960.00 9427952.00  zM 5344488.00 10196850.00 L 4931102.00 10196850.00 L 4931102.00 9645670.00 L 5344488.00 9645670.00 L 5344488.00 10196850.00  zM 4773622.00 10196850.00 L 4360236.00 10196850.00 L 4360236.00 9645670.00 L 4773622.00 9645670.00 L 4773622.00 10196850.00  zM 4773622.00 11614172.00 L 4360236.00 11614172.00 L 4360236.00 11062992.00 L 4773622.00 11062992.00 L 4773622.00 11614172.00  zM 5344488.00 11614172.00 L 4931102.00 11614172.00 L 4931102.00 11062992.00 L 5344488.00 11062992.00 L 5344488.00 11614172.00  zM 4910630.00 12327952.00 L 4635040.00 12327952.00 L 4635040.00 12072048.00 L 4910630.00 12072048.00 L 4910630.00 12327952.00  zM 5264961.00 12327952.00 L 4989371.00 12327952.00 L 4989371.00 12072048.00 L 5264961.00 12072048.00 L 5264961.00 12327952.00  zM 9027165.00 8999606.00 L 8672835.00 8999606.00 L 8672835.00 8645276.00 L 9027165.00 8645276.00 L 9027165.00 8999606.00  zM 9488189.00 11342520.00 L 9409449.00 11342520.00 L 9409449.00 11066930.00 L 9488189.00 11066930.00 L 9488189.00 11342520.00  zM 9645670.00 11342520.00 L 9566930.00 11342520.00 L 9566930.00 11066930.00 L 9645670.00 11066930.00 L 9645670.00 11342520.00  zM 9015748.00 11342520.00 L 8937008.00 11342520.00 L 8937008.00 11066930.00 L 9015748.00 11066930.00 L 9015748.00 11342520.00  zM 9173229.00 11342520.00 L 9094489.00 11342520.00 L 9094489.00 11066930.00 L 9173229.00 11066930.00 L 9173229.00 11342520.00  zM 8385827.00 11342520.00 L 8307087.00 11342520.00 L 8307087.00 11066930.00 L 8385827.00 11066930.00 L 8385827.00 11342520.00  zM 8543307.00 11342520.00 L 8464567.00 11342520.00 L 8464567.00 11066930.00 L 8543307.00 11066930.00 L 8543307.00 11342520.00  zM 8700788.00 11342520.00 L 8622048.00 11342520.00 L 8622048.00 11066930.00 L 8700788.00 11066930.00 L 8700788.00 11342520.00  zM 8858268.00 11342520.00 L 8779528.00 11342520.00 L 8779528.00 11066930.00 L 8858268.00 11066930.00 L 8858268.00 11342520.00  zM 9330709.00 11342520.00 L 9251969.00 11342520.00 L 9251969.00 11066930.00 L 9330709.00 11066930.00 L 9330709.00 11342520.00  zM 10440551.00 4953936.00 L 9259449.00 4953936.00 L 9259449.00 4324016.00 L 10440551.00 4324016.00 L 10440551.00 4953936.00  zM 10440551.00 6764960.00 L 9259449.00 6764960.00 L 9259449.00 6135040.00 L 10440551.00 6135040.00 L 10440551.00 6764960.00  zM 10563779.00 7654330.00 L 10012599.00 7654330.00 L 10012599.00 6945670.00 L 10563779.00 6945670.00 L 10563779.00 7654330.00  zM 13787008.00 6863385.00 L 11149214.00 6863385.00 L 11149214.00 4225591.00 L 13787008.00 4225591.00 L 13787008.00 6863385.00  zM 11587401.00 7654330.00 L 11036221.00 7654330.00 L 11036221.00 6945670.00 L 11587401.00 6945670.00 L 11587401.00 7654330.00  zM 10772835.00 8882283.00 L 9887009.00 8882283.00 L 9887009.00 7917717.00 L 10772835.00 7917717.00 L 10772835.00 8882283.00  zM 12012992.00 8882283.00 L 11127166.00 8882283.00 L 11127166.00 7917717.00 L 12012992.00 7917717.00 L 12012992.00 8882283.00  zM 11772835.00 9541732.00 L 11473623.00 9541732.00 L 11473623.00 9258268.00 L 11772835.00 9258268.00 L 11772835.00 9541732.00  zM 12560096.00 8987799.00 L 12406046.00 8987799.00 A 183244.99 183244.99 0 0 1 12222799.00 8804552.00 L 12222799.00 7895448.00 A 183244.99 183244.99 0 0 1 12406046.00 7712201.00 L 12560096.00 7712201.00 A 183244.99 183244.99 0 0 1 12743343.00 7895448.00 L 12743343.00 8804552.00 A 183244.99 183244.99 0 0 1 12560096.00 8987799.00  zM 12326377.00 9541732.00 L 12027165.00 9541732.00 L 12027165.00 9258268.00 L 12326377.00 9258268.00 L 12326377.00 9541732.00  zM 14191732.00 6526378.00 L 13908268.00 6526378.00 L 13908268.00 6227166.00 L 14191732.00 6227166.00 L 14191732.00 6526378.00  zM 14591732.00 6526378.00 L 14308268.00 6526378.00 L 14308268.00 6227166.00 L 14591732.00 6227166.00 L 14591732.00 6526378.00  zM 14591732.00 6872835.00 L 14308268.00 6872835.00 L 14308268.00 6573623.00 L 14591732.00 6573623.00 L 14591732.00 6872835.00  zM 14991732.00 6526378.00 L 14708268.00 6526378.00 L 14708268.00 6227166.00 L 14991732.00 6227166.00 L 14991732.00 6526378.00  zM 14991732.00 6872835.00 L 14708268.00 6872835.00 L 14708268.00 6573623.00 L 14991732.00 6573623.00 L 14991732.00 6872835.00  zM 14191732.00 6872835.00 L 13908268.00 6872835.00 L 13908268.00 6573623.00 L 14191732.00 6573623.00 L 14191732.00 6872835.00  zM 12672834.00 9541732.00 L 12373622.00 9541732.00 L 12373622.00 9258268.00 L 12672834.00 9258268.00 L 12672834.00 9541732.00  zM 15194127.00 8533071.00 L 15039731.00 8533071.00 A 183069.43 183069.43 0 0 1 15039731.00 8166929.00 L 15194127.00 8166929.00 A 183069.43 183069.43 0 0 1 15194127.00 8533071.00  zM 15373680.00 7627978.00 L 14860178.00 7627978.00 L 14860178.00 7268872.00 L 15373680.00 7268872.00 L 15373680.00 7627978.00  zM 15194127.00 9434646.00 L 15039731.00 9434646.00 A 183069.43 183069.43 0 0 1 15039731.00 9068504.00 L 15194127.00 9068504.00 A 183069.43 183069.43 0 0 1 15194127.00 9434646.00  zM 9803150.00 11342520.00 L 9724410.00 11342520.00 L 9724410.00 11066930.00 L 9803150.00 11066930.00 L 9803150.00 11342520.00  zM 9960630.00 11342520.00 L 9881890.00 11342520.00 L 9881890.00 11066930.00 L 9960630.00 11066930.00 L 9960630.00 11342520.00  zM 10118110.00 11342520.00 L 10039370.00 11342520.00 L 10039370.00 11066930.00 L 10118110.00 11066930.00 L 10118110.00 11342520.00  zM 10275591.00 11342520.00 L 10196851.00 11342520.00 L 10196851.00 11066930.00 L 10275591.00 11066930.00 L 10275591.00 11342520.00  zM 10433071.00 11342520.00 L 10354331.00 11342520.00 L 10354331.00 11066930.00 L 10433071.00 11066930.00 L 10433071.00 11342520.00  zM 10590551.00 11342520.00 L 10511811.00 11342520.00 L 10511811.00 11066930.00 L 10590551.00 11066930.00 L 10590551.00 11342520.00  zM 10748032.00 11342520.00 L 10669292.00 11342520.00 L 10669292.00 11066930.00 L 10748032.00 11066930.00 L 10748032.00 11342520.00  zM 10905512.00 11342520.00 L 10826772.00 11342520.00 L 10826772.00 11066930.00 L 10905512.00 11066930.00 L 10905512.00 11342520.00  zM 11062992.00 11342520.00 L 10984252.00 11342520.00 L 10984252.00 11066930.00 L 11062992.00 11066930.00 L 11062992.00 11342520.00  zM 11220473.00 11342520.00 L 11141733.00 11342520.00 L 11141733.00 11066930.00 L 11220473.00 11066930.00 L 11220473.00 11342520.00  zM 11426378.00 9541732.00 L 11127166.00 9541732.00 L 11127166.00 9258268.00 L 11426378.00 9258268.00 L 11426378.00 9541732.00  zM 11691931.00 10039317.00 L 11331693.00 10039317.00 A 79283.25 79283.25 0 0 1 11252415.00 9960039.00 L 11252415.00 9843897.00 A 79283.25 79283.25 0 0 1 11331693.00 9764619.00 L 11691931.00 9764619.00 A 79283.25 79283.25 0 0 1 11771209.00 9843897.00 L 11771209.00 9960039.00 A 79283.25 79283.25 0 0 1 11691931.00 10039317.00  zM 12680119.00 10413333.00 L 12319881.00 10413333.00 A 79283.25 79283.25 0 0 1 12240603.00 10334055.00 L 12240603.00 10217913.00 A 79283.25 79283.25 0 0 1 12319881.00 10138635.00 L 12680119.00 10138635.00 A 79283.25 79283.25 0 0 1 12759397.00 10217913.00 L 12759397.00 10334055.00 A 79283.25 79283.25 0 0 1 12680119.00 10413333.00  zM 11691931.00 10787349.00 L 11331693.00 10787349.00 A 79283.25 79283.25 0 0 1 11252415.00 10708071.00 L 11252415.00 10591929.00 A 79283.25 79283.25 0 0 1 11331693.00 10512651.00 L 11691931.00 10512651.00 A 79283.25 79283.25 0 0 1 11771209.00 10591929.00 L 11771209.00 10708071.00 A 79283.25 79283.25 0 0 1 11691931.00 10787349.00  zM 11377953.00 11342520.00 L 11299213.00 11342520.00 L 11299213.00 11066930.00 L 11377953.00 11066930.00 L 11377953.00 11342520.00  zM 12680119.00 10039317.00 L 12319881.00 10039317.00 A 79283.25 79283.25 0 0 1 12240603.00 9960039.00 L 12240603.00 9843897.00 A 79283.25 79283.25 0 0 1 12319881.00 9764619.00 L 12680119.00 9764619.00 A 79283.25 79283.25 0 0 1 12759397.00 9843897.00 L 12759397.00 9960039.00 A 79283.25 79283.25 0 0 1 12680119.00 10039317.00  zM 12680119.00 10787349.00 L 12319881.00 10787349.00 A 79283.25 79283.25 0 0 1 12240603.00 10708071.00 L 12240603.00 10591929.00 A 79283.25 79283.25 0 0 1 12319881.00 10512651.00 L 12680119.00 10512651.00 A 79283.25 79283.25 0 0 1 12759397.00 10591929.00 L 12759397.00 10708071.00 A 79283.25 79283.25 0 0 1 12680119.00 10787349.00  zM 13875984.00 11755511.00 L 13127954.00 11755511.00 L 13127954.00 11322441.00 L 13875984.00 11322441.00 L 13875984.00 11755511.00  zM 15372046.00 10377559.00 L 14624016.00 10377559.00 L 14624016.00 9944489.00 L 15372046.00 9944489.00 L 15372046.00 10377559.00  zM 15372046.00 11755511.00 L 14624016.00 11755511.00 L 14624016.00 11322441.00 L 15372046.00 11322441.00 L 15372046.00 11755511.00  zM 4585630.00 13121297.00 L 4414370.00 13121297.00 L 4377458.00 13106007.00 L 4362168.00 13069095.00 L 4362168.00 12492323.00 L 4377458.00 12455411.00 L 4414370.00 12440121.00 L 4585630.00 12440121.00 L 4622542.00 12455411.00 L 4637832.00 12492323.00 L 4637832.00 13069095.00 L 4622542.00 13106007.00 L 4585630.00 13121297.00  zM 5085630.00 13121297.00 L 4914370.00 13121297.00 L 4877458.00 13106007.00 L 4862168.00 13069095.00 L 4862168.00 12492323.00 L 4877458.00 12455411.00 L 4914370.00 12440121.00 L 5085630.00 12440121.00 L 5122542.00 12455411.00 L 5137832.00 12492323.00 L 5137832.00 13069095.00 L 5122542.00 13106007.00 L 5085630.00 13121297.00  zM 5585630.00 13121297.00 L 5414370.00 13121297.00 L 5377458.00 13106007.00 L 5362168.00 13069095.00 L 5362168.00 12492323.00 L 5377458.00 12455411.00 L 5414370.00 12440121.00 L 5585630.00 12440121.00 L 5622542.00 12455411.00 L 5637832.00 12492323.00 L 5637832.00 13069095.00 L 5622542.00 13106007.00 L 5585630.00 13121297.00  zM 6085630.00 13121297.00 L 5914370.00 13121297.00 L 5877458.00 13106007.00 L 5862168.00 13069095.00 L 5862168.00 12492323.00 L 5877458.00 12455411.00 L 5914370.00 12440121.00 L 6085630.00 12440121.00 L 6122542.00 12455411.00 L 6137832.00 12492323.00 L 6137832.00 13069095.00 L 6122542.00 13106007.00 L 6085630.00 13121297.00  zM 6671941.00 14828498.00 L 6471502.00 14628059.00 L 6683077.00 14416484.00 L 6883516.00 14616923.00 L 6671941.00 14828498.00  zM 6916923.00 14583516.00 L 6716484.00 14383077.00 L 6928059.00 14171502.00 L 7128498.00 14371941.00 L 6916923.00 14583516.00  zM 6916923.00 15133516.00 L 6716484.00 14933077.00 L 6928059.00 14721502.00 L 7128498.00 14921941.00 L 6916923.00 15133516.00  zM 7850983.00 15089764.00 L 7230905.00 15089764.00 L 7230905.00 14932284.00 L 7850983.00 14932284.00 L 7850983.00 15089764.00  zM 7850984.00 14302362.00 L 7230906.00 14302362.00 L 7230906.00 14144882.00 L 7850984.00 14144882.00 L 7850984.00 14302362.00  zM 7850984.00 14696063.00 L 7230906.00 14696063.00 L 7230906.00 14538583.00 L 7850984.00 14538583.00 L 7850984.00 14696063.00  zM 4585630.00 15959879.00 L 4414370.00 15959879.00 L 4377458.00 15944589.00 L 4362168.00 15907677.00 L 4362168.00 15330905.00 L 4377458.00 15293993.00 L 4414370.00 15278703.00 L 4585630.00 15278703.00 L 4622542.00 15293993.00 L 4637832.00 15330905.00 L 4637832.00 15907677.00 L 4622542.00 15944589.00 L 4585630.00 15959879.00  zM 5085630.00 15959879.00 L 4914370.00 15959879.00 L 4877458.00 15944589.00 L 4862168.00 15907677.00 L 4862168.00 15330905.00 L 4877458.00 15293993.00 L 4914370.00 15278703.00 L 5085630.00 15278703.00 L 5122542.00 15293993.00 L 5137832.00 15330905.00 L 5137832.00 15907677.00 L 5122542.00 15944589.00 L 5085630.00 15959879.00  zM 5585630.00 15959879.00 L 5414370.00 15959879.00 L 5377458.00 15944589.00 L 5362168.00 15907677.00 L 5362168.00 15330905.00 L 5377458.00 15293993.00 L 5414370.00 15278703.00 L 5585630.00 15278703.00 L 5622542.00 15293993.00 L 5637832.00 15330905.00 L 5637832.00 15907677.00 L 5622542.00 15944589.00 L 5585630.00 15959879.00  zM 6085630.00 15959879.00 L 5914370.00 15959879.00 L 5877458.00 15944589.00 L 5862168.00 15907677.00 L 5862168.00 15330905.00 L 5877458.00 15293993.00 L 5914370.00 15278703.00 L 6085630.00 15278703.00 L 6122542.00 15293993.00 L 6137832.00 15330905.00 L 6137832.00 15907677.00 L 6122542.00 15944589.00 L 6085630.00 15959879.00  zM 6617765.00 15863187.00 L 6436813.00 15682235.00 L 6631685.00 15487363.00 L 6812637.00 15668315.00 L 6617765.00 15863187.00  zM 6671941.00 15378498.00 L 6471502.00 15178059.00 L 6683077.00 14966484.00 L 6883516.00 15166923.00 L 6671941.00 15378498.00  zM 6868315.00 15612637.00 L 6687363.00 15431685.00 L 6882235.00 15236813.00 L 7063187.00 15417765.00 L 6868315.00 15612637.00  zM 7850984.00 15483464.00 L 7230906.00 15483464.00 L 7230906.00 15325984.00 L 7850984.00 15325984.00 L 7850984.00 15483464.00  zM 7850984.00 15680315.00 L 7230906.00 15680315.00 L 7230906.00 15522835.00 L 7850984.00 15522835.00 L 7850984.00 15680315.00  zM 7850984.00 15877165.00 L 7230906.00 15877165.00 L 7230906.00 15719685.00 L 7850984.00 15719685.00 L 7850984.00 15877165.00  zM 8385827.00 12555118.00 L 8307087.00 12555118.00 L 8307087.00 12279528.00 L 8385827.00 12279528.00 L 8385827.00 12555118.00  zM 8543307.00 12555118.00 L 8464567.00 12555118.00 L 8464567.00 12279528.00 L 8543307.00 12279528.00 L 8543307.00 12555118.00  zM 9173229.00 12555118.00 L 9094489.00 12555118.00 L 9094489.00 12279528.00 L 9173229.00 12279528.00 L 9173229.00 12555118.00  zM 9330709.00 12555118.00 L 9251969.00 12555118.00 L 9251969.00 12279528.00 L 9330709.00 12279528.00 L 9330709.00 12555118.00  zM 9488189.00 12555118.00 L 9409449.00 12555118.00 L 9409449.00 12279528.00 L 9488189.00 12279528.00 L 9488189.00 12555118.00  zM 8700788.00 12555118.00 L 8622048.00 12555118.00 L 8622048.00 12279528.00 L 8700788.00 12279528.00 L 8700788.00 12555118.00  zM 9015748.00 12555118.00 L 8937008.00 12555118.00 L 8937008.00 12279528.00 L 9015748.00 12279528.00 L 9015748.00 12555118.00  zM 9645670.00 12555118.00 L 9566930.00 12555118.00 L 9566930.00 12279528.00 L 9645670.00 12279528.00 L 9645670.00 12555118.00  zM 8858268.00 12555118.00 L 8779528.00 12555118.00 L 8779528.00 12279528.00 L 8858268.00 12279528.00 L 8858268.00 12555118.00  zM 9189764.00 13750983.00 L 9032284.00 13750983.00 L 9032284.00 13130905.00 L 9189764.00 13130905.00 L 9189764.00 13750983.00  zM 8402362.00 13750984.00 L 8244882.00 13750984.00 L 8244882.00 13130906.00 L 8402362.00 13130906.00 L 8402362.00 13750984.00  zM 7850984.00 14499212.00 L 7230906.00 14499212.00 L 7230906.00 14341732.00 L 7850984.00 14341732.00 L 7850984.00 14499212.00  zM 8599212.00 13750984.00 L 8441732.00 13750984.00 L 8441732.00 13130906.00 L 8599212.00 13130906.00 L 8599212.00 13750984.00  zM 7850984.00 14892913.00 L 7230906.00 14892913.00 L 7230906.00 14735433.00 L 7850984.00 14735433.00 L 7850984.00 14892913.00  zM 7850984.00 15286613.00 L 7230906.00 15286613.00 L 7230906.00 15129133.00 L 7850984.00 15129133.00 L 7850984.00 15286613.00  zM 8796063.00 13750984.00 L 8638583.00 13750984.00 L 8638583.00 13130906.00 L 8796063.00 13130906.00 L 8796063.00 13750984.00  zM 8992913.00 13750984.00 L 8835433.00 13750984.00 L 8835433.00 13130906.00 L 8992913.00 13130906.00 L 8992913.00 13750984.00  zM 9386613.00 13750984.00 L 9229133.00 13750984.00 L 9229133.00 13130906.00 L 9386613.00 13130906.00 L 9386613.00 13750984.00  zM 9583464.00 13750984.00 L 9425984.00 13750984.00 L 9425984.00 13130906.00 L 9583464.00 13130906.00 L 9583464.00 13750984.00  zM 9780315.00 13750984.00 L 9622835.00 13750984.00 L 9622835.00 13130906.00 L 9780315.00 13130906.00 L 9780315.00 13750984.00  zM 9803150.00 12555118.00 L 9724410.00 12555118.00 L 9724410.00 12279528.00 L 9803150.00 12279528.00 L 9803150.00 12555118.00  zM 10118110.00 12555118.00 L 10039370.00 12555118.00 L 10039370.00 12279528.00 L 10118110.00 12279528.00 L 10118110.00 12555118.00  zM 10275591.00 12555118.00 L 10196851.00 12555118.00 L 10196851.00 12279528.00 L 10275591.00 12279528.00 L 10275591.00 12555118.00  zM 10590551.00 12555118.00 L 10511811.00 12555118.00 L 10511811.00 12279528.00 L 10590551.00 12279528.00 L 10590551.00 12555118.00  zM 10433071.00 12555118.00 L 10354331.00 12555118.00 L 10354331.00 12279528.00 L 10433071.00 12279528.00 L 10433071.00 12555118.00  zM 9960630.00 12555118.00 L 9881890.00 12555118.00 L 9881890.00 12279528.00 L 9960630.00 12279528.00 L 9960630.00 12555118.00  zM 10567716.00 13750983.00 L 10410236.00 13750983.00 L 10410236.00 13130905.00 L 10567716.00 13130905.00 L 10567716.00 13750983.00  zM 10174016.00 13750984.00 L 10016536.00 13750984.00 L 10016536.00 13130906.00 L 10174016.00 13130906.00 L 10174016.00 13750984.00  zM 10370867.00 13750984.00 L 10213387.00 13750984.00 L 10213387.00 13130906.00 L 10370867.00 13130906.00 L 10370867.00 13750984.00  zM 9977165.00 13750984.00 L 9819685.00 13750984.00 L 9819685.00 13130906.00 L 9977165.00 13130906.00 L 9977165.00 13750984.00  zM 10748032.00 12555118.00 L 10669292.00 12555118.00 L 10669292.00 12279528.00 L 10748032.00 12279528.00 L 10748032.00 12555118.00  zM 10905512.00 12555118.00 L 10826772.00 12555118.00 L 10826772.00 12279528.00 L 10905512.00 12279528.00 L 10905512.00 12555118.00  zM 11062992.00 12555118.00 L 10984252.00 12555118.00 L 10984252.00 12279528.00 L 11062992.00 12279528.00 L 11062992.00 12555118.00  zM 11377953.00 12555118.00 L 11299213.00 12555118.00 L 11299213.00 12279528.00 L 11377953.00 12279528.00 L 11377953.00 12555118.00  zM 11220473.00 12555118.00 L 11141733.00 12555118.00 L 11141733.00 12279528.00 L 11220473.00 12279528.00 L 11220473.00 12555118.00  zM 10961417.00 13750984.00 L 10803937.00 13750984.00 L 10803937.00 13130906.00 L 10961417.00 13130906.00 L 10961417.00 13750984.00  zM 10764567.00 13750984.00 L 10607087.00 13750984.00 L 10607087.00 13130906.00 L 10764567.00 13130906.00 L 10764567.00 13750984.00  zM 11158268.00 13750984.00 L 11000788.00 13750984.00 L 11000788.00 13130906.00 L 11158268.00 13130906.00 L 11158268.00 13750984.00  zM 11355118.00 13750984.00 L 11197638.00 13750984.00 L 11197638.00 13130906.00 L 11355118.00 13130906.00 L 11355118.00 13750984.00  zM 11726377.00 13591732.00 L 11427165.00 13591732.00 L 11427165.00 13308268.00 L 11726377.00 13308268.00 L 11726377.00 13591732.00  zM 12072834.00 13591732.00 L 11773622.00 13591732.00 L 11773622.00 13308268.00 L 12072834.00 13308268.00 L 12072834.00 13591732.00  zM 12369094.00 14302362.00 L 11749016.00 14302362.00 L 11749016.00 14144882.00 L 12369094.00 14144882.00 L 12369094.00 14302362.00  zM 12369094.00 14499212.00 L 11749016.00 14499212.00 L 11749016.00 14341732.00 L 12369094.00 14341732.00 L 12369094.00 14499212.00  zM 12369094.00 14696063.00 L 11749016.00 14696063.00 L 11749016.00 14538583.00 L 12369094.00 14538583.00 L 12369094.00 14696063.00  zM 12369094.00 14892913.00 L 11749016.00 14892913.00 L 11749016.00 14735433.00 L 12369094.00 14735433.00 L 12369094.00 14892913.00  zM 12369094.00 15286613.00 L 11749016.00 15286613.00 L 11749016.00 15129133.00 L 12369094.00 15129133.00 L 12369094.00 15286613.00  zM 12369094.00 15483464.00 L 11749016.00 15483464.00 L 11749016.00 15325984.00 L 12369094.00 15325984.00 L 12369094.00 15483464.00  zM 12369095.00 15089764.00 L 11749017.00 15089764.00 L 11749017.00 14932284.00 L 12369095.00 14932284.00 L 12369095.00 15089764.00  zM 12369094.00 15680315.00 L 11749016.00 15680315.00 L 11749016.00 15522835.00 L 12369094.00 15522835.00 L 12369094.00 15680315.00  zM 12369094.00 15877165.00 L 11749016.00 15877165.00 L 11749016.00 15719685.00 L 12369094.00 15719685.00 L 12369094.00 15877165.00  zM 13854685.00 12609685.00 L 13455315.00 12609685.00 L 13455315.00 12090315.00 L 13854685.00 12090315.00 L 13854685.00 12609685.00  zM 14850827.00 13130734.00 L 14376325.00 13130734.00 L 14376325.00 12921234.00 L 14850827.00 12921234.00 L 14850827.00 13130734.00  zM 15144685.00 12609685.00 L 14745315.00 12609685.00 L 14745315.00 12090315.00 L 15144685.00 12090315.00 L 15144685.00 12609685.00  zM 15227952.00 13060630.00 L 14972048.00 13060630.00 L 14972048.00 12785040.00 L 15227952.00 12785040.00 L 15227952.00 13060630.00  zM 15227952.00 13414961.00 L 14972048.00 13414961.00 L 14972048.00 13139371.00 L 15227952.00 13139371.00 L 15227952.00 13414961.00  zM 13918925.00 13506802.00 L 13653923.00 13506802.00 A 106801.81 106801.81 0 0 1 13653923.00 13293198.00 L 13918925.00 13293198.00 A 106801.81 106801.81 0 0 1 13918925.00 13506802.00  zM 14746077.00 13880818.00 L 14481075.00 13880818.00 A 106801.81 106801.81 0 0 1 14481075.00 13667214.00 L 14746077.00 13667214.00 A 106801.81 106801.81 0 1 1 14746077.00 13880818.00  zM 15227952.00 13760629.00 L 14972048.00 13760629.00 L 14972048.00 13485039.00 L 15227952.00 13485039.00 L 15227952.00 13760629.00  zM 15227952.00 14114960.00 L 14972048.00 14114960.00 L 14972048.00 13839370.00 L 15227952.00 13839370.00 L 15227952.00 14114960.00  zM 15550590.00 15574386.00 L 13936418.00 15574386.00 L 13936418.00 15141316.00 L 15550590.00 15141316.00 L 15550590.00 15574386.00  zM 4676377.00 16341732.00 L 4377165.00 16341732.00 L 4377165.00 16058268.00 L 4676377.00 16058268.00 L 4676377.00 16341732.00  zM 5022834.00 16341732.00 L 4723622.00 16341732.00 L 4723622.00 16058268.00 L 5022834.00 16058268.00 L 5022834.00 16341732.00  zM 4773622.00 17283464.00 L 4360236.00 17283464.00 L 4360236.00 16732284.00 L 4773622.00 16732284.00 L 4773622.00 17283464.00  zM 5344488.00 17283464.00 L 4931102.00 17283464.00 L 4931102.00 16732284.00 L 5344488.00 16732284.00 L 5344488.00 17283464.00  zM 5927952.00 17260630.00 L 5672048.00 17260630.00 L 5672048.00 16985040.00 L 5927952.00 16985040.00 L 5927952.00 17260630.00  zM 4773622.00 18700786.00 L 4360236.00 18700786.00 L 4360236.00 18149606.00 L 4773622.00 18149606.00 L 4773622.00 18700786.00  zM 5344488.00 18700786.00 L 4931102.00 18700786.00 L 4931102.00 18149606.00 L 5344488.00 18149606.00 L 5344488.00 18700786.00  zM 5941732.00 18472835.00 L 5658268.00 18472835.00 L 5658268.00 18173623.00 L 5941732.00 18173623.00 L 5941732.00 18472835.00  zM 5927952.00 17614961.00 L 5672048.00 17614961.00 L 5672048.00 17339371.00 L 5927952.00 17339371.00 L 5927952.00 17614961.00  zM 5941732.00 18126378.00 L 5658268.00 18126378.00 L 5658268.00 17827166.00 L 5941732.00 17827166.00 L 5941732.00 18126378.00  zM 7041732.00 16776378.00 L 6758268.00 16776378.00 L 6758268.00 16477166.00 L 7041732.00 16477166.00 L 7041732.00 16776378.00  zM 7850983.00 16467716.00 L 7230905.00 16467716.00 L 7230905.00 16310236.00 L 7850983.00 16310236.00 L 7850983.00 16467716.00  zM 7850984.00 16664567.00 L 7230906.00 16664567.00 L 7230906.00 16507087.00 L 7850984.00 16507087.00 L 7850984.00 16664567.00  zM 7850984.00 16074016.00 L 7230906.00 16074016.00 L 7230906.00 15916536.00 L 7850984.00 15916536.00 L 7850984.00 16074016.00  zM 7850984.00 16270867.00 L 7230906.00 16270867.00 L 7230906.00 16113387.00 L 7850984.00 16113387.00 L 7850984.00 16270867.00  zM 7041732.00 17122834.00 L 6758268.00 17122834.00 L 6758268.00 16823622.00 L 7041732.00 16823622.00 L 7041732.00 17122834.00  zM 7850984.00 17255118.00 L 7230906.00 17255118.00 L 7230906.00 17097638.00 L 7850984.00 17097638.00 L 7850984.00 17255118.00  zM 6410630.00 19027952.00 L 6135040.00 19027952.00 L 6135040.00 18772048.00 L 6410630.00 18772048.00 L 6410630.00 19027952.00  zM 6764961.00 19027952.00 L 6489371.00 19027952.00 L 6489371.00 18772048.00 L 6764961.00 18772048.00 L 6764961.00 19027952.00  zM 6771259.00 19327362.00 L 6625591.00 19327362.00 L 6625591.00 19175788.00 L 6771259.00 19175788.00 L 6771259.00 19327362.00  zM 7850984.00 16861417.00 L 7230906.00 16861417.00 L 7230906.00 16703937.00 L 7850984.00 16703937.00 L 7850984.00 16861417.00  zM 7850984.00 17058268.00 L 7230906.00 17058268.00 L 7230906.00 16900788.00 L 7850984.00 16900788.00 L 7850984.00 17058268.00  zM 8599212.00 18269094.00 L 8441732.00 18269094.00 L 8441732.00 17649016.00 L 8599212.00 17649016.00 L 8599212.00 18269094.00  zM 8402362.00 18269094.00 L 8244882.00 18269094.00 L 8244882.00 17649016.00 L 8402362.00 17649016.00 L 8402362.00 18269094.00  zM 7782377.00 18702406.00 L 7517623.00 18702406.00 L 7517623.00 18420774.00 L 7782377.00 18420774.00 L 7782377.00 18702406.00  zM 8141732.00 18726377.00 L 7858268.00 18726377.00 L 7858268.00 18427165.00 L 8141732.00 18427165.00 L 8141732.00 18726377.00  zM 8141732.00 19072834.00 L 7858268.00 19072834.00 L 7858268.00 18773622.00 L 8141732.00 18773622.00 L 8141732.00 19072834.00  zM 7782377.00 19079227.00 L 7517623.00 19079227.00 L 7517623.00 18797595.00 L 7782377.00 18797595.00 L 7782377.00 19079227.00  zM 8541732.00 18726377.00 L 8258268.00 18726377.00 L 8258268.00 18427165.00 L 8541732.00 18427165.00 L 8541732.00 18726377.00  zM 8541732.00 19072834.00 L 8258268.00 19072834.00 L 8258268.00 18773622.00 L 8541732.00 18773622.00 L 8541732.00 19072834.00  zM 8796063.00 18269094.00 L 8638583.00 18269094.00 L 8638583.00 17649016.00 L 8796063.00 17649016.00 L 8796063.00 18269094.00  zM 9386613.00 18269094.00 L 9229133.00 18269094.00 L 9229133.00 17649016.00 L 9386613.00 17649016.00 L 9386613.00 18269094.00  zM 9583464.00 18269094.00 L 9425984.00 18269094.00 L 9425984.00 17649016.00 L 9583464.00 17649016.00 L 9583464.00 18269094.00  zM 9977165.00 18269094.00 L 9819685.00 18269094.00 L 9819685.00 17649016.00 L 9977165.00 17649016.00 L 9977165.00 18269094.00  zM 10174016.00 18269094.00 L 10016536.00 18269094.00 L 10016536.00 17649016.00 L 10174016.00 17649016.00 L 10174016.00 18269094.00  zM 8992913.00 18269094.00 L 8835433.00 18269094.00 L 8835433.00 17649016.00 L 8992913.00 17649016.00 L 8992913.00 18269094.00  zM 9189764.00 18269095.00 L 9032284.00 18269095.00 L 9032284.00 17649017.00 L 9189764.00 17649017.00 L 9189764.00 18269095.00  zM 9780315.00 18269094.00 L 9622835.00 18269094.00 L 9622835.00 17649016.00 L 9780315.00 17649016.00 L 9780315.00 18269094.00  zM 9241732.00 19176377.00 L 8958268.00 19176377.00 L 8958268.00 18877165.00 L 9241732.00 18877165.00 L 9241732.00 19176377.00  zM 9842519.00 19221259.00 L 9291339.00 19221259.00 L 9291339.00 18748819.00 L 9842519.00 18748819.00 L 9842519.00 19221259.00  zM 6377756.00 19425984.00 L 6226182.00 19425984.00 L 6226182.00 19280316.00 L 6377756.00 19280316.00 L 6377756.00 19425984.00  zM 6574409.00 19327362.00 L 6428741.00 19327362.00 L 6428741.00 19175788.00 L 6574409.00 19175788.00 L 6574409.00 19327362.00  zM 6377756.00 19622834.00 L 6226182.00 19622834.00 L 6226182.00 19477166.00 L 6377756.00 19477166.00 L 6377756.00 19622834.00  zM 6377756.00 19819684.00 L 6226182.00 19819684.00 L 6226182.00 19674016.00 L 6377756.00 19674016.00 L 6377756.00 19819684.00  zM 6574409.00 19924212.00 L 6428741.00 19924212.00 L 6428741.00 19772638.00 L 6574409.00 19772638.00 L 6574409.00 19924212.00  zM 6973818.00 19622834.00 L 6822244.00 19622834.00 L 6822244.00 19477166.00 L 6973818.00 19477166.00 L 6973818.00 19622834.00  zM 6973818.00 19819684.00 L 6822244.00 19819684.00 L 6822244.00 19674016.00 L 6973818.00 19674016.00 L 6973818.00 19819684.00  zM 6771259.00 19924212.00 L 6625591.00 19924212.00 L 6625591.00 19772638.00 L 6771259.00 19772638.00 L 6771259.00 19924212.00  zM 6973818.00 19425984.00 L 6822244.00 19425984.00 L 6822244.00 19280316.00 L 6973818.00 19280316.00 L 6973818.00 19425984.00  zM 7391732.00 19576378.00 L 7108268.00 19576378.00 L 7108268.00 19277166.00 L 7391732.00 19277166.00 L 7391732.00 19576378.00  zM 6376378.00 20391732.00 L 6077166.00 20391732.00 L 6077166.00 20108268.00 L 6376378.00 20108268.00 L 6376378.00 20391732.00  zM 6722835.00 20391732.00 L 6423623.00 20391732.00 L 6423623.00 20108268.00 L 6722835.00 20108268.00 L 6722835.00 20391732.00  zM 6710630.00 20827952.00 L 6435040.00 20827952.00 L 6435040.00 20572048.00 L 6710630.00 20572048.00 L 6710630.00 20827952.00  zM 7060630.00 20377952.00 L 6785040.00 20377952.00 L 6785040.00 20122048.00 L 7060630.00 20122048.00 L 7060630.00 20377952.00  zM 7064961.00 20827952.00 L 6789371.00 20827952.00 L 6789371.00 20572048.00 L 7064961.00 20572048.00 L 7064961.00 20827952.00  zM 6738977.00 21344094.00 L 6463386.00 21344094.00 L 6463386.00 20855906.00 L 6738977.00 20855906.00 L 6738977.00 21344094.00  zM 7053937.00 21344094.00 L 6778347.00 21344094.00 L 6778347.00 20855906.00 L 7053937.00 20855906.00 L 7053937.00 21344094.00  zM 7250788.00 21344094.00 L 7093308.00 21344094.00 L 7093308.00 20855906.00 L 7250788.00 20855906.00 L 7250788.00 21344094.00  zM 5946359.00 21442984.00 L 5946359.00 21128024.00 A 220780.35 220780.35 0 0 1 6387913.00 21128024.00 L 6387913.00 21442984.00 A 220780.35 220780.35 0 0 1 5946359.00 21442984.00  zM 5943003.00 23214174.00 L 5943003.00 22741732.00 A 220780.35 220780.35 0 1 1 6384557.00 22741732.00 L 6384557.00 23214174.00 A 220780.35 220780.35 0 1 1 5943003.00 23214174.00  zM 7391732.00 19922835.00 L 7108268.00 19922835.00 L 7108268.00 19623623.00 L 7391732.00 19623623.00 L 7391732.00 19922835.00  zM 7414961.00 20377952.00 L 7139371.00 20377952.00 L 7139371.00 20122048.00 L 7414961.00 20122048.00 L 7414961.00 20377952.00  zM 8710629.00 20827952.00 L 8435039.00 20827952.00 L 8435039.00 20572048.00 L 8710629.00 20572048.00 L 8710629.00 20827952.00  zM 8431890.00 21344094.00 L 8274410.00 21344094.00 L 8274410.00 20855906.00 L 8431890.00 20855906.00 L 8431890.00 21344094.00  zM 8235040.00 21344094.00 L 8077560.00 21344094.00 L 8077560.00 20855906.00 L 8235040.00 20855906.00 L 8235040.00 21344094.00  zM 9241732.00 19522834.00 L 8958268.00 19522834.00 L 8958268.00 19223622.00 L 9241732.00 19223622.00 L 9241732.00 19522834.00  zM 9842519.00 19851181.00 L 9291339.00 19851181.00 L 9291339.00 19378741.00 L 9842519.00 19378741.00 L 9842519.00 19851181.00  zM 10026378.00 20191732.00 L 9727166.00 20191732.00 L 9727166.00 19908268.00 L 10026378.00 19908268.00 L 10026378.00 20191732.00  zM 9064960.00 20827952.00 L 8789370.00 20827952.00 L 8789370.00 20572048.00 L 9064960.00 20572048.00 L 9064960.00 20827952.00  zM 10372835.00 20191732.00 L 10073623.00 20191732.00 L 10073623.00 19908268.00 L 10372835.00 19908268.00 L 10372835.00 20191732.00  zM 7447638.00 21344094.00 L 7290158.00 21344094.00 L 7290158.00 20855906.00 L 7447638.00 20855906.00 L 7447638.00 21344094.00  zM 7644488.00 21344094.00 L 7487008.00 21344094.00 L 7487008.00 20855906.00 L 7644488.00 20855906.00 L 7644488.00 21344094.00  zM 7841339.00 21344094.00 L 7683859.00 21344094.00 L 7683859.00 20855906.00 L 7841339.00 20855906.00 L 7841339.00 21344094.00  zM 8038189.00 21344094.00 L 7880709.00 21344094.00 L 7880709.00 20855906.00 L 8038189.00 20855906.00 L 8038189.00 21344094.00  zM 8628740.00 21344094.00 L 8471260.00 21344094.00 L 8471260.00 20855906.00 L 8628740.00 20855906.00 L 8628740.00 21344094.00  zM 8943701.00 21344094.00 L 8668111.00 21344094.00 L 8668111.00 20855906.00 L 8943701.00 20855906.00 L 8943701.00 21344094.00  zM 9258662.00 21344094.00 L 8983071.00 21344094.00 L 8983071.00 20855906.00 L 9258662.00 20855906.00 L 9258662.00 21344094.00  zM 9343003.00 21489763.00 L 9343003.00 21174803.00 A 220780.35 220780.35 0 0 1 9784557.00 21174803.00 L 9784557.00 21489763.00 A 220780.35 220780.35 0 1 1 9343003.00 21489763.00  zM 10162526.00 21805979.00 L 10162526.00 21707407.00 A 87473.96 87473.96 0 1 1 10337474.00 21707407.00 L 10337474.00 21805979.00 A 87473.96 87473.96 0 0 1 10162526.00 21805979.00  zM 9343003.00 23214174.00 L 9343003.00 22741732.00 A 220780.35 220780.35 0 1 1 9784557.00 22741732.00 L 9784557.00 23214174.00 A 220780.35 220780.35 0 1 1 9343003.00 23214174.00  zM 12369094.00 16270867.00 L 11749016.00 16270867.00 L 11749016.00 16113387.00 L 12369094.00 16113387.00 L 12369094.00 16270867.00  zM 12369094.00 16074016.00 L 11749016.00 16074016.00 L 11749016.00 15916536.00 L 12369094.00 15916536.00 L 12369094.00 16074016.00  zM 12369095.00 16467716.00 L 11749017.00 16467716.00 L 11749017.00 16310236.00 L 12369095.00 16310236.00 L 12369095.00 16467716.00  zM 12369094.00 16664567.00 L 11749016.00 16664567.00 L 11749016.00 16507087.00 L 12369094.00 16507087.00 L 12369094.00 16664567.00  zM 12369094.00 16861417.00 L 11749016.00 16861417.00 L 11749016.00 16703937.00 L 12369094.00 16703937.00 L 12369094.00 16861417.00  zM 10961417.00 18269094.00 L 10803937.00 18269094.00 L 10803937.00 17649016.00 L 10961417.00 17649016.00 L 10961417.00 18269094.00  zM 11726377.00 18041732.00 L 11427165.00 18041732.00 L 11427165.00 17758268.00 L 11726377.00 17758268.00 L 11726377.00 18041732.00  zM 12072834.00 18041732.00 L 11773622.00 18041732.00 L 11773622.00 17758268.00 L 12072834.00 17758268.00 L 12072834.00 18041732.00  zM 12369094.00 17255118.00 L 11749016.00 17255118.00 L 11749016.00 17097638.00 L 12369094.00 17097638.00 L 12369094.00 17255118.00  zM 12369094.00 17058268.00 L 11749016.00 17058268.00 L 11749016.00 16900788.00 L 12369094.00 16900788.00 L 12369094.00 17058268.00  zM 10370867.00 18269094.00 L 10213387.00 18269094.00 L 10213387.00 17649016.00 L 10370867.00 17649016.00 L 10370867.00 18269094.00  zM 10764567.00 18269094.00 L 10607087.00 18269094.00 L 10607087.00 17649016.00 L 10764567.00 17649016.00 L 10764567.00 18269094.00  zM 11158268.00 18269094.00 L 11000788.00 18269094.00 L 11000788.00 17649016.00 L 11158268.00 17649016.00 L 11158268.00 18269094.00  zM 10567716.00 18269095.00 L 10410236.00 18269095.00 L 10410236.00 17649017.00 L 10567716.00 17649017.00 L 10567716.00 18269095.00  zM 10708661.00 19221259.00 L 10157481.00 19221259.00 L 10157481.00 18748819.00 L 10708661.00 18748819.00 L 10708661.00 19221259.00  zM 11355118.00 18269094.00 L 11197638.00 18269094.00 L 11197638.00 17649016.00 L 11355118.00 17649016.00 L 11355118.00 18269094.00  zM 11954330.00 18854724.00 L 11245670.00 18854724.00 L 11245670.00 18461024.00 L 11954330.00 18461024.00 L 11954330.00 18854724.00  zM 12291732.00 18826377.00 L 12008268.00 18826377.00 L 12008268.00 18527165.00 L 12291732.00 18527165.00 L 12291732.00 18826377.00  zM 12291732.00 19172834.00 L 12008268.00 19172834.00 L 12008268.00 18873622.00 L 12291732.00 18873622.00 L 12291732.00 19172834.00  zM 12291732.00 19476378.00 L 12008268.00 19476378.00 L 12008268.00 19177166.00 L 12291732.00 19177166.00 L 12291732.00 19476378.00  zM 12791732.00 17026378.00 L 12508268.00 17026378.00 L 12508268.00 16727166.00 L 12791732.00 16727166.00 L 12791732.00 17026378.00  zM 12791732.00 17372835.00 L 12508268.00 17372835.00 L 12508268.00 17073623.00 L 12791732.00 17073623.00 L 12791732.00 17372835.00  zM 13191732.00 17026378.00 L 12908268.00 17026378.00 L 12908268.00 16727166.00 L 13191732.00 16727166.00 L 13191732.00 17026378.00  zM 15550590.00 16361787.00 L 13936418.00 16361787.00 L 13936418.00 15928717.00 L 15550590.00 15928717.00 L 15550590.00 16361787.00  zM 15550590.00 17149189.00 L 13936418.00 17149189.00 L 13936418.00 16716119.00 L 15550590.00 16716119.00 L 15550590.00 17149189.00  zM 13191732.00 17372835.00 L 12908268.00 17372835.00 L 12908268.00 17073623.00 L 13191732.00 17073623.00 L 13191732.00 17372835.00  zM 13578391.00 18834878.00 L 13548936.00 18822677.00 L 13536735.00 18793222.00 L 13548936.00 18763767.00 L 13578391.00 18751566.00 L 13607846.00 18763767.00 L 13620047.00 18793222.00 L 13607846.00 18822677.00 L 13578391.00 18834878.00  zM 13717585.00 18974072.00 L 13688130.00 18961871.00 L 13675929.00 18932416.00 L 13688130.00 18902961.00 L 13717585.00 18890760.00 L 13747040.00 18902961.00 L 13759241.00 18932416.00 L 13747040.00 18961871.00 L 13717585.00 18974072.00  zM 15550590.00 17936591.00 L 13936418.00 17936591.00 L 13936418.00 17503521.00 L 15550590.00 17503521.00 L 15550590.00 17936591.00  zM 15550590.00 18723992.00 L 13936418.00 18723992.00 L 13936418.00 18290922.00 L 15550590.00 18290922.00 L 15550590.00 18723992.00  zM 13160807.00 19252462.00 L 13131352.00 19240261.00 L 13119151.00 19210806.00 L 13131352.00 19181351.00 L 13160807.00 19169150.00 L 13190262.00 19181351.00 L 13202463.00 19210806.00 L 13190262.00 19240261.00 L 13160807.00 19252462.00  zM 13300002.00 19113267.00 L 13270547.00 19101066.00 L 13258346.00 19071611.00 L 13270547.00 19042156.00 L 13300002.00 19029955.00 L 13329457.00 19042156.00 L 13341658.00 19071611.00 L 13329457.00 19101066.00 L 13300002.00 19113267.00  zM 13439196.00 18974073.00 L 13409741.00 18961872.00 L 13397540.00 18932417.00 L 13409741.00 18902962.00 L 13439196.00 18890761.00 L 13468651.00 18902962.00 L 13480852.00 18932417.00 L 13468651.00 18961872.00 L 13439196.00 18974073.00  zM 13300001.00 19391656.00 L 13270546.00 19379455.00 L 13258345.00 19350000.00 L 13270546.00 19320545.00 L 13300001.00 19308344.00 L 13329456.00 19320545.00 L 13341657.00 19350000.00 L 13329456.00 19379455.00 L 13300001.00 19391656.00  zM 13439195.00 19530850.00 L 13409740.00 19518649.00 L 13397539.00 19489194.00 L 13409740.00 19459739.00 L 13439195.00 19447538.00 L 13468650.00 19459739.00 L 13480851.00 19489194.00 L 13468650.00 19518649.00 L 13439195.00 19530850.00  zM 13439196.00 19252461.00 L 13409741.00 19240260.00 L 13397540.00 19210805.00 L 13409741.00 19181350.00 L 13439196.00 19169149.00 L 13468651.00 19181350.00 L 13480852.00 19210805.00 L 13468651.00 19240260.00 L 13439196.00 19252461.00  zM 13578390.00 19113267.00 L 13548935.00 19101066.00 L 13536734.00 19071611.00 L 13548935.00 19042156.00 L 13578390.00 19029955.00 L 13607845.00 19042156.00 L 13620046.00 19071611.00 L 13607845.00 19101066.00 L 13578390.00 19113267.00  zM 13578390.00 19391655.00 L 13548935.00 19379454.00 L 13536734.00 19349999.00 L 13548935.00 19320544.00 L 13578390.00 19308343.00 L 13607845.00 19320544.00 L 13620046.00 19349999.00 L 13607845.00 19379454.00 L 13578390.00 19391655.00  zM 13717584.00 19252461.00 L 13688129.00 19240260.00 L 13675928.00 19210805.00 L 13688129.00 19181350.00 L 13717584.00 19169149.00 L 13747039.00 19181350.00 L 13759240.00 19210805.00 L 13747039.00 19240260.00 L 13717584.00 19252461.00  zM 13856779.00 19113266.00 L 13827324.00 19101065.00 L 13815123.00 19071610.00 L 13827324.00 19042155.00 L 13856779.00 19029954.00 L 13886234.00 19042155.00 L 13898435.00 19071610.00 L 13886234.00 19101065.00 L 13856779.00 19113266.00  zM 10708661.00 19851181.00 L 10157481.00 19851181.00 L 10157481.00 19378741.00 L 10708661.00 19378741.00 L 10708661.00 19851181.00  zM 11954330.00 19838976.00 L 11245670.00 19838976.00 L 11245670.00 19445276.00 L 11954330.00 19445276.00 L 11954330.00 19838976.00  zM 12291732.00 19822835.00 L 12008268.00 19822835.00 L 12008268.00 19523623.00 L 12291732.00 19523623.00 L 12291732.00 19822835.00  zM 13027952.00 20610630.00 L 12772048.00 20610630.00 L 12772048.00 20335040.00 L 13027952.00 20335040.00 L 13027952.00 20610630.00  zM 13027952.00 20964961.00 L 12772048.00 20964961.00 L 12772048.00 20689371.00 L 13027952.00 20689371.00 L 13027952.00 20964961.00  zM 13391732.00 20626378.00 L 13108268.00 20626378.00 L 13108268.00 20327166.00 L 13391732.00 20327166.00 L 13391732.00 20626378.00  zM 13391732.00 20972835.00 L 13108268.00 20972835.00 L 13108268.00 20673623.00 L 13391732.00 20673623.00 L 13391732.00 20972835.00  zM 13774804.00 20757622.00 L 13597638.00 20757622.00 A 63920.91 63920.91 0 1 1 13597638.00 20629780.00 L 13774804.00 20629780.00 A 63920.91 63920.91 0 1 1 13774804.00 20757622.00  zM 13774804.00 20600141.00 L 13597638.00 20600141.00 A 63920.91 63920.91 0 1 1 13597638.00 20472299.00 L 13774804.00 20472299.00 A 63920.91 63920.91 0 1 1 13774804.00 20600141.00  zM 13848677.00 20398426.00 L 13848677.00 20221260.00 A 63920.91 63920.91 0 0 1 13976519.00 20221260.00 L 13976519.00 20398426.00 A 63920.91 63920.91 0 0 1 13848677.00 20398426.00  zM 10335793.00 20978386.00 L 10164207.00 20978386.00 L 10164207.00 20708228.00 L 10335793.00 20708228.00 L 10335793.00 20978386.00  zM 11553543.00 23448031.00 L 11022047.00 23448031.00 L 11022047.00 21794489.00 L 11553543.00 21794489.00 L 11553543.00 23448031.00  zM 13176378.00 21441732.00 L 12877166.00 21441732.00 L 12877166.00 21158268.00 L 13176378.00 21158268.00 L 13176378.00 21441732.00  zM 13522835.00 21441732.00 L 13223623.00 21441732.00 L 13223623.00 21158268.00 L 13522835.00 21158268.00 L 13522835.00 21441732.00  zM 13777953.00 23448031.00 L 13246457.00 23448031.00 L 13246457.00 21794489.00 L 13777953.00 21794489.00 L 13777953.00 23448031.00  zM 13774804.00 20915102.00 L 13597638.00 20915102.00 A 63920.91 63920.91 0 1 1 13597638.00 20787260.00 L 13774804.00 20787260.00 A 63920.91 63920.91 0 1 1 13774804.00 20915102.00  zM 13774804.00 21072582.00 L 13597638.00 21072582.00 A 63920.91 63920.91 0 1 1 13597638.00 20944740.00 L 13774804.00 20944740.00 A 63920.91 63920.91 0 1 1 13774804.00 21072582.00  zM 13774804.00 21230063.00 L 13597638.00 21230063.00 A 63920.91 63920.91 0 1 1 13597638.00 21102221.00 L 13774804.00 21102221.00 A 63920.91 63920.91 0 1 1 13774804.00 21230063.00  zM 13774804.00 21387543.00 L 13597638.00 21387543.00 A 63920.91 63920.91 0 1 1 13597638.00 21259701.00 L 13774804.00 21259701.00 A 63920.91 63920.91 0 1 1 13774804.00 21387543.00  zM 13848677.00 21638583.00 L 13848677.00 21461417.00 A 63920.91 63920.91 0 1 1 13976519.00 21461417.00 L 13976519.00 21638583.00 A 63920.91 63920.91 0 1 1 13848677.00 21638583.00  zM 14176377.00 20091732.00 L 13877165.00 20091732.00 L 13877165.00 19808268.00 L 14176377.00 19808268.00 L 14176377.00 20091732.00  zM 14522834.00 20091732.00 L 14223622.00 20091732.00 L 14223622.00 19808268.00 L 14522834.00 19808268.00 L 14522834.00 20091732.00  zM 14163638.00 20398426.00 L 14163638.00 20221260.00 A 63920.91 63920.91 0 0 1 14291480.00 20221260.00 L 14291480.00 20398426.00 A 63920.91 63920.91 0 0 1 14163638.00 20398426.00  zM 14006158.00 20398426.00 L 14006158.00 20221260.00 A 63920.91 63920.91 0 0 1 14134000.00 20221260.00 L 14134000.00 20398426.00 A 63920.91 63920.91 0 0 1 14006158.00 20398426.00  zM 14321118.00 20398426.00 L 14321118.00 20221260.00 A 63920.91 63920.91 0 0 1 14448960.00 20221260.00 L 14448960.00 20398426.00 A 63920.91 63920.91 0 0 1 14321118.00 20398426.00  zM 14478599.00 20398426.00 L 14478599.00 20221260.00 A 63920.91 63920.91 0 0 1 14606441.00 20221260.00 L 14606441.00 20398426.00 A 63920.91 63920.91 0 0 1 14478599.00 20398426.00  zM 14636079.00 20398426.00 L 14636079.00 20221260.00 A 63920.91 63920.91 0 0 1 14763921.00 20221260.00 L 14763921.00 20398426.00 A 63920.91 63920.91 0 0 1 14636079.00 20398426.00  zM 15014961.00 20600141.00 L 14837795.00 20600141.00 A 63920.91 63920.91 0 0 1 14837795.00 20472299.00 L 15014961.00 20472299.00 A 63920.91 63920.91 0 0 1 15014961.00 20600141.00  zM 15014961.00 20757622.00 L 14837795.00 20757622.00 A 63920.91 63920.91 0 0 1 14837795.00 20629780.00 L 15014961.00 20629780.00 A 63920.91 63920.91 0 0 1 15014961.00 20757622.00  zM 15014961.00 20915102.00 L 14837795.00 20915102.00 A 63920.91 63920.91 0 0 1 14837795.00 20787260.00 L 15014961.00 20787260.00 A 63920.91 63920.91 0 0 1 15014961.00 20915102.00  zM 14629133.00 21284251.00 L 13983465.00 21284251.00 L 13983465.00 20575591.00 L 14629133.00 20575591.00 L 14629133.00 21284251.00  zM 15014961.00 21072582.00 L 14837795.00 21072582.00 A 63920.91 63920.91 0 0 1 14837795.00 20944740.00 L 15014961.00 20944740.00 A 63920.91 63920.91 0 0 1 15014961.00 21072582.00  zM 15014961.00 21230063.00 L 14837795.00 21230063.00 A 63920.91 63920.91 0 0 1 14837795.00 21102221.00 L 15014961.00 21102221.00 A 63920.91 63920.91 0 0 1 15014961.00 21230063.00  zM 14163638.00 21638583.00 L 14163638.00 21461417.00 A 63920.91 63920.91 0 0 1 14291480.00 21461417.00 L 14291480.00 21638583.00 A 63920.91 63920.91 0 0 1 14163638.00 21638583.00  zM 15014961.00 21387543.00 L 14837795.00 21387543.00 A 63920.91 63920.91 0 0 1 14837795.00 21259701.00 L 15014961.00 21259701.00 A 63920.91 63920.91 0 0 1 15014961.00 21387543.00  zM 14006158.00 21638583.00 L 14006158.00 21461417.00 A 63920.91 63920.91 0 1 1 14134000.00 21461417.00 L 14134000.00 21638583.00 A 63920.91 63920.91 0 1 1 14006158.00 21638583.00  zM 14321118.00 21638583.00 L 14321118.00 21461417.00 A 63920.91 63920.91 0 1 1 14448960.00 21461417.00 L 14448960.00 21638583.00 A 63920.91 63920.91 0 1 1 14321118.00 21638583.00  zM 14478599.00 21638583.00 L 14478599.00 21461417.00 A 63920.91 63920.91 0 1 1 14606441.00 21461417.00 L 14606441.00 21638583.00 A 63920.91 63920.91 0 1 1 14478599.00 21638583.00  zM 14636079.00 21638583.00 L 14636079.00 21461417.00 A 63920.91 63920.91 0 0 1 14763921.00 21461417.00 L 14763921.00 21638583.00 A 63920.91 63920.91 0 0 1 14636079.00 21638583.00  z"/>
</g>
</svg>
