<svg width="29.99999842mm" height="49.99999906mm" viewBox="0 0 11811023 19685039"  version="1.1" xmlns="http://www.w3.org/2000/svg" xmlns:xlink="http://www.w3.org/1999/xlink">
<desc>
Origin 0 0 Bound 3937008 3937008 11811023 19685039
</desc>
<g fill-rule="evenodd" fill="rgb(255, 255, 0)" stroke="black" stroke-width="1" transform="translate(0, 19685039) scale(1, -1) translate(-3937008, -3937008)">
<path id="N" d="M 12495628.00 11974486.00 L 12595596.00 11874518.00 L 12611447.00 11836249.00 L 12611448.00 11636314.00 L 12595596.00 11598045.00 L 12495628.00 11498077.00 L 12457359.00 11482226.00 L 12357392.00 11482225.00 L 12319123.00 11498077.00 L 12257424.00 11559776.00 L 12195725.00 11498077.00 L 12157456.00 11482226.00 L 12057489.00 11482225.00 L 12019220.00 11498077.00 L 11919252.00 11598045.00 L 11903401.00 11636314.00 L 11903400.00 11836249.00 L 11919252.00 11874518.00 L 12019220.00 11974486.00 A 54121.84 54121.84 0 0 0 12095758.00 11897948.00 L 12011641.00 11813831.00 L 12011641.00 11658732.00 L 12079907.00 11590466.00 L 12135038.00 11590466.00 L 12203304.00 11658732.00 L 12203304.00 11736282.00 A 54118.70 54118.70 0 1 0 12311544.00 11736282.00 L 12311544.00 11658732.00 L 12379810.00 11590466.00 L 12434941.00 11590466.00 L 12503207.00 11658732.00 L 12503207.00 11813831.00 L 12419090.00 11897948.00 A 54119.43 54119.43 0 0 0 12495628.00 11974486.00  z"/>
<path id="N" d="M 10918716.00 6975802.00 L 10931197.00 6945669.00 L 10918716.00 6915536.00 L 10909949.64 6911905.00 L 11001575.00 6911905.00 L 11031708.00 6899424.00 L 11044189.00 6869291.00 L 11031708.00 6839158.00 L 11001575.00 6826677.00 L 10712496.00 6826677.00 L 10712496.00 4262299.00 L 11001575.00 4262299.00 L 11031708.00 4249818.00 L 11044189.00 4219685.00 L 11031708.00 4189552.00 L 11001575.00 4177071.00 L 10669882.00 4177071.00 L 10639749.00 4189552.00 L 10627268.00 4219685.00 L 10627268.00 6869291.00 L 10639749.00 6899424.00 L 10669882.00 6911905.00 L 10690050.36 6911905.00 L 10681284.00 6915536.00 L 10668803.00 6945669.00 L 10681284.00 6975802.00 L 10711417.00 6988283.00 L 10888583.00 6988283.00 L 10918716.00 6975802.00  z"/>
<path id="N" d="M 12095758.00 12497754.00 L 12011641.00 12413637.00 L 12011641.00 12358506.00 L 12079907.00 12290240.00 L 12503207.00 12290240.00 L 12503207.00 12336088.00 A 54118.70 54118.70 0 1 0 12611447.00 12336088.00 L 12611447.00 12136152.00 A 54118.70 54118.70 0 0 0 12503207.00 12136152.00 L 12503207.00 12182000.00 L 12057489.00 12181999.00 L 12019220.00 12197851.00 L 11919252.00 12297819.00 L 11903401.00 12336088.00 L 11903400.00 12436055.00 L 11919252.00 12474324.00 L 12019220.00 12574292.00 A 54121.84 54121.84 0 0 0 12095758.00 12497754.00  z"/>
<path id="N" d="M 9786826.00 7428558.00 L 9799307.00 7398425.00 L 9799307.00 7342614.00 L 9855118.00 7342614.00 L 9885251.00 7330133.00 L 9897732.00 7300000.00 L 9885251.00 7269867.00 L 9855118.00 7257386.00 L 9799307.00 7257386.00 L 9799307.00 7201575.00 L 9786826.00 7171442.00 L 9756693.00 7158961.00 L 9726560.00 7171442.00 L 9714079.00 7201575.00 L 9714079.00 7257386.00 L 9658268.00 7257386.00 L 9628135.00 7269867.00 L 9615654.00 7300000.00 L 9628135.00 7330133.00 L 9658268.00 7342614.00 L 9714079.00 7342614.00 L 9714079.00 7398425.00 L 9726560.00 7428558.00 L 9756693.00 7441039.00 L 9786826.00 7428558.00  z"/>
<path id="N" d="M 6270291.00 7234857.00 L 6282772.00 7204724.00 L 6282772.00 6617417.00 L 6732284.00 6617417.00 L 6762417.00 6604936.00 L 6774898.00 6574803.00 L 6762417.00 6544670.00 L 6732284.00 6532189.00 L 6240158.00 6532189.00 L 6210025.00 6544670.00 L 6197544.00 6574803.00 L 6197544.00 7162110.00 L 5967811.00 7162110.00 L 5967811.00 5629921.00 L 5955330.00 5599788.00 L 5925197.00 5587307.00 L 5895064.00 5599788.00 L 5882583.00 5629921.00 L 5882583.00 7204724.00 L 5895064.00 7234857.00 L 5925197.00 7247338.00 L 6240158.00 7247338.00 L 6270291.00 7234857.00  z"/>
<path id="N" d="M 9065566.00 7234857.00 L 9078047.00 7204724.00 L 9078047.00 5629921.00 L 9065566.00 5599788.00 L 9035433.00 5587307.00 L 9005300.00 5599788.00 L 8992819.00 5629921.00 L 8992819.00 7162110.00 L 8763086.00 7162110.00 L 8763086.00 6574803.00 L 8750605.00 6544670.00 L 8720472.00 6532189.00 L 8228346.00 6532189.00 L 8198213.00 6544670.00 L 8185732.00 6574803.00 L 8198213.00 6604936.00 L 8228346.00 6617417.00 L 8677858.00 6617417.00 L 8677858.00 7204724.00 L 8690339.00 7234857.00 L 8720472.00 7247338.00 L 9035433.00 7247338.00 L 9065566.00 7234857.00  z"/>
<path id="N" d="M 8583283.00 12459267.00 L 8595764.00 12429134.00 L 8583283.00 12399001.00 L 8553150.00 12386520.00 L 8152851.00 12386520.00 L 8152851.00 11235528.00 L 8553150.00 11235528.00 L 8583283.00 11223047.00 L 8595764.00 11192914.00 L 8583283.00 11162781.00 L 8553150.00 11150300.00 L 8110237.00 11150300.00 L 8080104.00 11162781.00 L 8067623.00 11192914.00 L 8067623.00 12429134.00 L 8080104.00 12459267.00 L 8110237.00 12471748.00 L 8553150.00 12471748.00 L 8583283.00 12459267.00  z"/>
<path id="N" d="M 11604936.00 12459267.00 L 11617417.00 12429134.00 L 11617417.00 11192914.00 L 11604936.00 11162781.00 L 11574803.00 11150300.00 L 11131890.00 11150300.00 L 11101757.00 11162781.00 L 11089276.00 11192914.00 L 11101757.00 11223047.00 L 11131890.00 11235528.00 L 11532189.00 11235528.00 L 11532189.00 12386520.00 L 11131890.00 12386520.00 L 11101757.00 12399001.00 L 11089276.00 12429134.00 L 11101757.00 12459267.00 L 11131890.00 12471748.00 L 11574803.00 12471748.00 L 11604936.00 12459267.00  z"/>
<path id="N" d="M 12270408.00 8990520.00 L 12270408.00 7809417.00 A 80284.08 80284.08 0 1 0 12109842.00 7809417.00 L 12109842.00 8990520.00 A 80284.08 80284.08 0 1 0 12270408.00 8990520.00  z"/>
<path id="N" d="M 15557086.00 19287219.00 L 13918293.00 19287219.00 L 13918293.00 15358451.00 L 15557086.00 15358451.00 A 54118.70 54118.70 0 1 0 15557086.00 15250211.00 L 13864173.00 15250211.00 L 13825904.00 15266062.00 L 13810053.00 15304331.00 L 13810053.00 19341339.00 L 13825904.00 19379608.00 L 13864173.00 19395459.00 L 15557086.00 19395459.00 A 54121.84 54121.84 0 1 0 15557086.00 19287219.00  z"/>
<path id="N" d="M 11121652.47 19000786.47 m -100354.75 0 a 100354.75 100354.75 0 1 1 200709.51 0a 100354.75 100354.75 0 1 1 -200709.51 0"/>
<path id="N" d="M 5514963.92 20837404.92 m -80279.37 0 a 80279.37 80279.37 0 1 1 160558.73 0a 80279.37 80279.37 0 1 1 -160558.73 0"/>
<path id="N" d="M 14520094.00 9660645.00 L 14532575.00 9630512.00 L 14532575.00 7069488.00 L 14520094.00 7039355.00 L 14489961.00 7026874.00 L 13110039.00 7026874.00 L 13079906.00 7039355.00 L 13067425.00 7069488.00 L 13067425.00 9630512.00 L 13079906.00 9660645.00 L 13110039.00 9673126.00 L 14489961.00 9673126.00 L 14520094.00 9660645.00  zM 14447347.00 9587898.00 L 13152653.00 9587898.00 L 13152653.00 7112102.00 L 14447347.00 7112102.00 L 14447347.00 9587898.00  z"/>
<path id="N" d="M 11210842.00 18410842.00 L 11223323.00 18380709.00 L 11223323.00 14719291.00 L 11210842.00 14689158.00 L 11180709.00 14676677.00 L 7519291.00 14676677.00 L 7489158.00 14689158.00 L 7476677.00 14719291.00 L 7476677.00 18380709.00 L 7489158.00 18410842.00 L 7519291.00 18423323.00 L 11180709.00 18423323.00 L 11210842.00 18410842.00  zM 11138095.00 18338095.00 L 7561905.00 18338095.00 L 7561905.00 14761905.00 L 11138095.00 14761905.00 L 11138095.00 18338095.00  z"/>
<path id="N" d="M 13218506.92 20922049.92 m -80279.37 0 a 80279.37 80279.37 0 1 1 160558.73 0a 80279.37 80279.37 0 1 1 -160558.73 0"/>
<path id="N" d="M 15116927.47 6972045.47 m -100354.75 0 a 100354.75 100354.75 0 1 1 200709.51 0a 100354.75 100354.75 0 1 1 -200709.51 0"/>
<path id="N" d="M 8740156.47 10840550.47 m -100354.75 0 a 100354.75 100354.75 0 1 1 200709.51 0a 100354.75 100354.75 0 1 1 -200709.51 0"/>
<path id="N" d="M 7086612.47 7972439.47 m -100354.75 0 a 100354.75 100354.75 0 1 1 200709.51 0a 100354.75 100354.75 0 1 1 -200709.51 0"/>
<path id="N" d="M 10918716.00 7684464.00 L 10931197.00 7654331.00 L 10918716.00 7624198.00 L 10888583.00 7611717.00 L 10711417.00 7611717.00 L 10681284.00 7624198.00 L 10668803.00 7654331.00 L 10681284.00 7684464.00 L 10711417.00 7696945.00 L 10888583.00 7696945.00 L 10918716.00 7684464.00  z"/>
<path id="N" d="M 4727008.00 19679370.00 L 4734934.00 19660236.00 L 4734934.00 19459449.00 L 4727008.00 19440315.00 L 4707874.00 19432389.00 L 4688740.00 19440315.00 L 4680814.00 19459449.00 L 4680814.00 19660236.00 L 4688740.00 19679370.00 L 4707874.00 19687296.00 L 4727008.00 19679370.00  z"/>
<path id="N" d="M 4727008.00 20659685.00 L 4734934.00 20640551.00 L 4734934.00 20439764.00 L 4727008.00 20420630.00 L 4707874.00 20412704.00 L 4688740.00 20420630.00 L 4680814.00 20439764.00 L 4680814.00 20640551.00 L 4688740.00 20659685.00 L 4707874.00 20667611.00 L 4727008.00 20659685.00  z"/>
<path id="N" d="M 5711260.00 20659685.00 L 5719186.00 20640551.00 L 5719186.00 20439764.00 L 5711260.00 20420630.00 L 5692126.00 20412704.00 L 5672992.00 20420630.00 L 5665066.00 20439764.00 L 5665066.00 20640551.00 L 5672992.00 20659685.00 L 5692126.00 20667611.00 L 5711260.00 20659685.00  z"/>
<path id="N" d="M 8376590.00 4242731.00 L 8389071.00 4212598.00 L 8376590.00 4182465.00 L 8346457.00 4169984.00 L 6614173.00 4169984.00 L 6584040.00 4182465.00 L 6571559.00 4212598.00 L 6584040.00 4242731.00 L 6614173.00 4255212.00 L 8346457.00 4255212.00 L 8376590.00 4242731.00  z"/>
<path id="N" d="M 5711260.00 19679370.00 L 5719186.00 19660236.00 L 5719186.00 19459449.00 L 5711260.00 19440315.00 L 5692126.00 19432389.00 L 5672992.00 19440315.00 L 5665066.00 19459449.00 L 5665066.00 19660236.00 L 5672992.00 19679370.00 L 5692126.00 19687296.00 L 5711260.00 19679370.00  z"/>
<path id="N" d="M 11708480.00 7839582.00 L 11720961.00 7809449.00 L 11708480.00 7779316.00 L 11678347.00 7766835.00 L 10221654.00 7766835.00 L 10191521.00 7779316.00 L 10179040.00 7809449.00 L 10191521.00 7839582.00 L 10221654.00 7852063.00 L 11678347.00 7852063.00 L 11708480.00 7839582.00  z"/>
<path id="N" d="M 11708480.00 9020685.00 L 11720961.00 8990552.00 L 11708480.00 8960419.00 L 11678347.00 8947938.00 L 10221654.00 8947938.00 L 10191521.00 8960419.00 L 10179040.00 8990552.00 L 10191521.00 9020685.00 L 10221654.00 9033166.00 L 11678347.00 9033166.00 L 11708480.00 9020685.00  z"/>
<path id="N" d="M 7628739.87 20116929.00 m -63921.13 0 a 63921.13 63921.13 0 1 1 127842.26 0a 63921.13 63921.13 0 1 1 -127842.26 0"/>
</g>
</svg>
