<svg width="29.99999842mm" height="49.99999906mm" viewBox="0 0 11811023 19685039"  version="1.1" xmlns="http://www.w3.org/2000/svg" xmlns:xlink="http://www.w3.org/1999/xlink">
<desc>
Origin 0 0 Bound 3937008 3937008 11811023 19685039
</desc>
<g fill-rule="evenodd" fill="rgb(112, 219, 250)" stroke="black" stroke-width="1" transform="translate(0, 19685039) scale(1, -1) translate(-3937008, -3937008)">
<path id="N" d="M 8621579.00 12931181.00 L 8597687.00 12921284.63 L 8597687.00 12415885.00 L 9892265.00 11121307.00 L 9947222.00 11121307.00 L 9962288.00 11115065.00 L 10057208.00 11020125.00 L 10060105.26 11013127.09 L 10063447.00 11001901.70 L 10102419.00 10985759.00 A 63921.13 63921.13 0 1 0 10012021.00 10985759.00 L 10020833.00 10989409.04 L 10020833.00 10996235.31 L 9938392.69 11078693.00 L 9883440.00 11078693.00 L 9868374.00 11084934.00 L 8561314.00 12391994.00 L 8555073.00 12407060.00 L 8555073.00 12921284.63 L 8531181.00 12931181.00 A 63921.13 63921.13 0 1 0 8621579.00 12931181.00  z"/>
<path id="N" d="M 12445981.00 15031521.00 L 12436084.63 15055413.00 L 12053745.00 15055413.00 L 10121307.00 13122975.00 L 10121307.00 12937540.00 L 10115066.00 12922474.00 L 9918404.45 12725812.45 L 9928301.00 12701920.00 A 63920.91 63920.91 0 1 0 9864380.00 12765841.00 L 9888272.45 12755944.45 L 10078693.00 12946365.00 L 10078693.00 13131800.00 L 10084934.00 13146866.00 L 12029854.00 15091786.00 L 12044920.00 15098027.00 L 12436084.63 15098027.00 L 12445981.00 15121919.00 A 63921.13 63921.13 0 1 0 12445981.00 15031521.00  z"/>
<path id="N" d="M 9954801.00 14876061.00 L 9944904.63 14899953.00 L 9730085.00 14899953.00 L 8004024.45 13173892.45 L 8013921.00 13150000.00 A 63920.91 63920.91 0 1 0 7950000.00 13213921.00 L 7973892.45 13204024.45 L 9706194.00 14936326.00 L 9721260.00 14942567.00 L 9944904.63 14942567.00 L 9954801.00 14966459.00 A 63921.13 63921.13 0 1 0 9954801.00 14876061.00  z"/>
<path id="N" d="M 6786761.00 20000000.00 L 6773221.07 19967311.64 L 6787907.00 19952626.00 L 6794147.00 19937560.00 L 6794147.00 19309989.00 L 7170578.00 18933558.00 L 7537749.00 18933558.00 L 7552815.00 18927317.00 L 10066786.00 16413347.00 L 10441607.50 16413347.00 L 10454801.00 16445199.00 L 10500000.00 16463921.00 L 10545199.00 16445199.00 L 10558392.50 16413347.00 L 11031635.00 16413347.00 L 12901464.00 18283177.00 L 12916530.00 18289417.00 L 13435849.63 18289417.00 L 13445746.00 18313309.00 A 63921.13 63921.13 0 1 0 13445746.00 18222911.00 L 13435849.63 18246803.00 L 12925356.00 18246803.00 L 11055526.00 16376974.00 L 11040460.00 16370733.00 L 10551798.24 16370733.00 L 10545199.00 16354801.00 L 10500000.00 16336079.00 L 10454801.00 16354801.00 L 10448201.76 16370733.00 L 10057960.00 16370733.00 L 10042894.00 16376973.00 L 7528924.00 18890944.00 L 7161753.00 18890944.00 L 7146687.00 18897185.00 L 6757774.00 19286098.00 L 6751533.00 19301164.00 L 6751533.00 19928734.12 L 6737935.61 19942331.79 L 6722840.00 19936079.00 A 63920.91 63920.91 0 1 0 6786761.00 20000000.00  z"/>
<path id="N" d="M 9136639.00 12998981.00 L 9112747.00 12989084.63 L 9112747.00 12667385.03 L 9315066.00 12465067.00 L 9321307.00 12450000.00 L 9321307.00 12258825.01 L 10057245.99 11522887.00 L 10208824.63 11522887.00 L 10218721.00 11546779.00 A 63921.13 63921.13 0 1 0 10218721.00 11456381.00 L 10208824.63 11480273.00 L 10048420.00 11480273.00 L 10033354.00 11486513.00 L 9284934.00 12234934.00 L 9278693.00 12250000.00 L 9278693.00 12441174.03 L 9076374.00 12643494.00 L 9070133.00 12658560.00 L 9070133.00 12989084.63 L 9046241.00 12998981.00 A 63921.13 63921.13 0 1 0 9136639.00 12998981.00  z"/>
<path id="N" d="M 9353079.00 13025941.00 L 9329187.00 13016044.63 L 9329187.00 12716125.00 L 9624005.00 12421307.00 L 9756440.00 12421307.00 L 9771506.00 12415066.00 L 10523886.00 11662686.00 L 10530127.00 11647620.00 L 10530127.00 11563935.37 L 10554019.00 11554039.00 A 63921.13 63921.13 0 1 0 10463621.00 11554039.00 L 10487513.00 11563935.37 L 10487513.00 11638795.00 L 9747615.00 12378693.00 L 9615180.00 12378693.00 L 9600114.00 12384934.00 L 9292814.00 12692234.00 L 9286573.00 12707300.00 L 9286573.00 13016044.63 L 9262681.00 13025941.00 A 63921.13 63921.13 0 1 0 9353079.00 13025941.00  z"/>
<path id="N" d="M 7949999.87 16200000.00 m -63921.13 0 a 63921.13 63921.13 0 1 1 127842.26 0a 63921.13 63921.13 0 1 1 -127842.26 0"/>
<path id="N" d="M 7961619.87 15358120.00 m -63921.13 0 a 63921.13 63921.13 0 1 1 127842.26 0a 63921.13 63921.13 0 1 1 -127842.26 0"/>
<path id="N" d="M 9345199.00 16063861.00 L 9321307.00 16053964.63 L 9321307.00 15200000.00 L 9315066.00 15184934.00 L 7454024.45 13323892.45 L 7463921.00 13300000.00 A 63920.91 63920.91 0 1 0 7400000.00 13363921.00 L 7423892.45 13354024.45 L 9278693.00 15208825.00 L 9278693.00 16053964.63 L 9254801.00 16063861.00 A 63921.13 63921.13 0 1 0 9345199.00 16063861.00  z"/>
<path id="N" d="M 6935499.87 16135500.00 m -63921.13 0 a 63921.13 63921.13 0 1 1 127842.26 0a 63921.13 63921.13 0 1 1 -127842.26 0"/>
<path id="N" d="M 7515907.00 19245199.00 L 7525803.37 19221307.00 L 7720780.00 19221307.00 L 7735846.00 19215066.00 L 10326108.25 16624804.73 L 10350000.00 16634701.00 A 63920.91 63920.91 0 1 0 10286079.00 16570780.00 L 10295975.27 16594671.75 L 7711955.00 19178693.00 L 7525803.37 19178693.00 L 7515907.00 19154801.00 A 63921.13 63921.13 0 1 0 7515907.00 19245199.00  z"/>
<path id="N" d="M 6364487.00 23214181.00 L 6364487.00 22741739.00 A 200706.53 200706.53 0 0 0 5963073.00 22741739.00 L 5963073.00 23214181.00 A 200706.53 200706.53 0 0 0 6364487.00 23214181.00  zM 6043356.00 23214180.00 L 6043356.00 22741740.00 A 120431.73 120431.73 0 0 1 6284204.00 22741740.00 L 6284204.00 23214180.00 A 120431.73 120431.73 0 0 1 6043356.00 23214180.00  z"/>
<path id="N" d="M 9764487.00 23214181.00 L 9764487.00 22741739.00 A 200706.53 200706.53 0 0 0 9363073.00 22741739.00 L 9363073.00 23214181.00 A 200706.53 200706.53 0 0 0 9764487.00 23214181.00  zM 9443356.00 23214180.00 L 9443356.00 22741740.00 A 120431.73 120431.73 0 0 1 9684204.00 22741740.00 L 9684204.00 23214180.00 A 120431.73 120431.73 0 0 1 9443356.00 23214180.00  z"/>
<path id="N" d="M 9764487.00 21489760.00 L 9764487.00 21174800.00 A 200706.53 200706.53 0 0 0 9363073.00 21174800.00 L 9363073.00 21489760.00 A 200706.53 200706.53 0 0 0 9764487.00 21489760.00  zM 9443356.00 21489760.00 L 9443356.00 21174800.00 A 120431.73 120431.73 0 0 1 9684204.00 21174800.00 L 9684204.00 21489760.00 A 120431.73 120431.73 0 0 1 9443356.00 21489760.00  z"/>
<path id="N" d="M 6367847.00 21442980.00 L 6367847.00 21128020.00 A 200706.53 200706.53 0 0 0 5966433.00 21128020.00 L 5966433.00 21442980.00 A 200706.53 200706.53 0 1 0 6367847.00 21442980.00  zM 6046716.00 21442980.00 L 6046716.00 21128020.00 A 120431.73 120431.73 0 0 1 6287564.00 21128020.00 L 6287564.00 21442980.00 A 120431.73 120431.73 0 0 1 6046716.00 21442980.00  z"/>
<path id="N" d="M 5314958.87 10629918.00 m -63921.13 0 a 63921.13 63921.13 0 1 1 127842.26 0a 63921.13 63921.13 0 1 1 -127842.26 0"/>
<path id="N" d="M 9123459.87 18569280.00 m -63921.13 0 a 63921.13 63921.13 0 1 1 127842.26 0a 63921.13 63921.13 0 1 1 -127842.26 0"/>
<path id="N" d="M 9930099.87 18408460.00 m -63921.13 0 a 63921.13 63921.13 0 1 1 127842.26 0a 63921.13 63921.13 0 1 1 -127842.26 0"/>
<path id="N" d="M 8699999.87 17450000.00 m -63921.13 0 a 63921.13 63921.13 0 1 1 127842.26 0a 63921.13 63921.13 0 1 1 -127842.26 0"/>
<path id="N" d="M 15249999.87 17250000.00 m -63921.13 0 a 63921.13 63921.13 0 1 1 127842.26 0a 63921.13 63921.13 0 1 1 -127842.26 0"/>
<path id="N" d="M 9446379.87 18569280.00 m -63921.13 0 a 63921.13 63921.13 0 1 1 127842.26 0a 63921.13 63921.13 0 1 1 -127842.26 0"/>
<path id="N" d="M 8818899.87 19050000.00 m -63921.13 0 a 63921.13 63921.13 0 1 1 127842.26 0a 63921.13 63921.13 0 1 1 -127842.26 0"/>
<path id="N" d="M 10433079.87 18985040.00 m -63921.13 0 a 63921.13 63921.13 0 1 1 127842.26 0a 63921.13 63921.13 0 1 1 -127842.26 0"/>
<path id="N" d="M 14199999.87 17450000.00 m -63921.13 0 a 63921.13 63921.13 0 1 1 127842.26 0a 63921.13 63921.13 0 1 1 -127842.26 0"/>
<path id="N" d="M 7349999.87 17650000.00 m -63921.13 0 a 63921.13 63921.13 0 1 1 127842.26 0a 63921.13 63921.13 0 1 1 -127842.26 0"/>
<path id="N" d="M 15201119.87 17646100.00 m -63921.13 0 a 63921.13 63921.13 0 1 1 127842.26 0a 63921.13 63921.13 0 1 1 -127842.26 0"/>
<path id="N" d="M 6349999.87 9550000.00 m -63921.13 0 a 63921.13 63921.13 0 1 1 127842.26 0a 63921.13 63921.13 0 1 1 -127842.26 0"/>
<path id="N" d="M 10039366.87 10629918.00 m -63921.13 0 a 63921.13 63921.13 0 1 1 127842.26 0a 63921.13 63921.13 0 1 1 -127842.26 0"/>
<path id="N" d="M 6949999.87 9550000.00 m -63921.13 0 a 63921.13 63921.13 0 1 1 127842.26 0a 63921.13 63921.13 0 1 1 -127842.26 0"/>
<path id="N" d="M 13582672.87 9448816.00 m -63921.13 0 a 63921.13 63921.13 0 1 1 127842.26 0a 63921.13 63921.13 0 1 1 -127842.26 0"/>
<path id="N" d="M 6649999.87 9550000.00 m -63921.13 0 a 63921.13 63921.13 0 1 1 127842.26 0a 63921.13 63921.13 0 1 1 -127842.26 0"/>
<path id="N" d="M 8999999.87 9650000.00 m -63921.13 0 a 63921.13 63921.13 0 1 1 127842.26 0a 63921.13 63921.13 0 1 1 -127842.26 0"/>
<path id="N" d="M 12167939.87 18037400.00 m -63921.13 0 a 63921.13 63921.13 0 1 1 127842.26 0a 63921.13 63921.13 0 1 1 -127842.26 0"/>
<path id="N" d="M 5905509.87 10629918.00 m -63921.13 0 a 63921.13 63921.13 0 1 1 127842.26 0a 63921.13 63921.13 0 1 1 -127842.26 0"/>
<path id="N" d="M 12949999.87 10517320.00 m -63921.13 0 a 63921.13 63921.13 0 1 1 127842.26 0a 63921.13 63921.13 0 1 1 -127842.26 0"/>
<path id="N" d="M 4558459.87 17933660.00 m -63921.13 0 a 63921.13 63921.13 0 1 1 127842.26 0a 63921.13 63921.13 0 1 1 -127842.26 0"/>
<path id="N" d="M 7086611.87 17716530.00 m -63921.13 0 a 63921.13 63921.13 0 1 1 127842.26 0a 63921.13 63921.13 0 1 1 -127842.26 0"/>
<path id="N" d="M 10629917.87 10629918.00 m -63921.13 0 a 63921.13 63921.13 0 1 1 127842.26 0a 63921.13 63921.13 0 1 1 -127842.26 0"/>
<path id="N" d="M 10849999.87 8700000.00 m -63921.13 0 a 63921.13 63921.13 0 1 1 127842.26 0a 63921.13 63921.13 0 1 1 -127842.26 0"/>
<path id="N" d="M 13404339.87 13450000.00 m -63921.13 0 a 63921.13 63921.13 0 1 1 127842.26 0a 63921.13 63921.13 0 1 1 -127842.26 0"/>
<path id="N" d="M 6496060.87 12992122.00 m -63921.13 0 a 63921.13 63921.13 0 1 1 127842.26 0a 63921.13 63921.13 0 1 1 -127842.26 0"/>
<path id="N" d="M 6626779.87 14450000.00 m -63921.13 0 a 63921.13 63921.13 0 1 1 127842.26 0a 63921.13 63921.13 0 1 1 -127842.26 0"/>
<path id="N" d="M 11811019.87 12992122.00 m -63921.13 0 a 63921.13 63921.13 0 1 1 127842.26 0a 63921.13 63921.13 0 1 1 -127842.26 0"/>
<path id="N" d="M 14468498.87 17125979.00 m -63921.13 0 a 63921.13 63921.13 0 1 1 127842.26 0a 63921.13 63921.13 0 1 1 -127842.26 0"/>
<path id="N" d="M 12649999.87 16850000.00 m -63921.13 0 a 63921.13 63921.13 0 1 1 127842.26 0a 63921.13 63921.13 0 1 1 -127842.26 0"/>
<path id="N" d="M 4326779.87 15900000.00 m -63921.13 0 a 63921.13 63921.13 0 1 1 127842.26 0a 63921.13 63921.13 0 1 1 -127842.26 0"/>
<path id="N" d="M 5549999.87 14500000.00 m -63921.13 0 a 63921.13 63921.13 0 1 1 127842.26 0a 63921.13 63921.13 0 1 1 -127842.26 0"/>
<path id="N" d="M 13049999.87 16850000.00 m -63921.13 0 a 63921.13 63921.13 0 1 1 127842.26 0a 63921.13 63921.13 0 1 1 -127842.26 0"/>
<path id="N" d="M 11923219.87 13450000.00 m -63921.13 0 a 63921.13 63921.13 0 1 1 127842.26 0a 63921.13 63921.13 0 1 1 -127842.26 0"/>
<path id="N" d="M 7952601.87 14455390.00 m -63921.13 0 a 63921.13 63921.13 0 1 1 127842.26 0a 63921.13 63921.13 0 1 1 -127842.26 0"/>
<path id="N" d="M 10369879.87 18650000.00 m -63921.13 0 a 63921.13 63921.13 0 1 1 127842.26 0a 63921.13 63921.13 0 1 1 -127842.26 0"/>
<path id="N" d="M 10845419.87 18598200.00 m -63921.13 0 a 63921.13 63921.13 0 1 1 127842.26 0a 63921.13 63921.13 0 1 1 -127842.26 0"/>
<path id="N" d="M 7099999.87 19226780.00 m -63921.13 0 a 63921.13 63921.13 0 1 1 127842.26 0a 63921.13 63921.13 0 1 1 -127842.26 0"/>
<path id="N" d="M 8423219.87 19200000.00 m -63921.13 0 a 63921.13 63921.13 0 1 1 127842.26 0a 63921.13 63921.13 0 1 1 -127842.26 0"/>
<path id="N" d="M 8818899.87 19409440.00 m -63921.13 0 a 63921.13 63921.13 0 1 1 127842.26 0a 63921.13 63921.13 0 1 1 -127842.26 0"/>
<path id="N" d="M 8423219.87 18800000.00 m -63921.13 0 a 63921.13 63921.13 0 1 1 127842.26 0a 63921.13 63921.13 0 1 1 -127842.26 0"/>
<path id="N" d="M 5019682.87 13582673.00 m -63921.13 0 a 63921.13 63921.13 0 1 1 127842.26 0a 63921.13 63921.13 0 1 1 -127842.26 0"/>
<path id="N" d="M 10549999.87 14400000.00 m -63921.13 0 a 63921.13 63921.13 0 1 1 127842.26 0a 63921.13 63921.13 0 1 1 -127842.26 0"/>
<path id="N" d="M 6299999.87 14050000.00 m -63921.13 0 a 63921.13 63921.13 0 1 1 127842.26 0a 63921.13 63921.13 0 1 1 -127842.26 0"/>
<path id="N" d="M 12449999.87 18950000.00 m -63921.13 0 a 63921.13 63921.13 0 1 1 127842.26 0a 63921.13 63921.13 0 1 1 -127842.26 0"/>
<path id="N" d="M 10848839.87 18825980.00 m -63921.13 0 a 63921.13 63921.13 0 1 1 127842.26 0a 63921.13 63921.13 0 1 1 -127842.26 0"/>
<path id="N" d="M 12780158.87 21867248.00 m -63921.13 0 a 63921.13 63921.13 0 1 1 127842.26 0a 63921.13 63921.13 0 1 1 -127842.26 0"/>
<path id="N" d="M 13499999.87 22000000.00 m -63921.13 0 a 63921.13 63921.13 0 1 1 127842.26 0a 63921.13 63921.13 0 1 1 -127842.26 0"/>
<path id="N" d="M 12830635.87 22079437.00 m -63921.13 0 a 63921.13 63921.13 0 1 1 127842.26 0a 63921.13 63921.13 0 1 1 -127842.26 0"/>
<path id="N" d="M 11249999.87 22000000.00 m -63921.13 0 a 63921.13 63921.13 0 1 1 127842.26 0a 63921.13 63921.13 0 1 1 -127842.26 0"/>
<path id="N" d="M 12634755.87 21268456.00 m -63921.13 0 a 63921.13 63921.13 0 1 1 127842.26 0a 63921.13 63921.13 0 1 1 -127842.26 0"/>
<path id="N" d="M 10039366.87 21259836.00 m -63921.13 0 a 63921.13 63921.13 0 1 1 127842.26 0a 63921.13 63921.13 0 1 1 -127842.26 0"/>
<path id="N" d="M 5610233.87 21850387.00 m -63921.13 0 a 63921.13 63921.13 0 1 1 127842.26 0a 63921.13 63921.13 0 1 1 -127842.26 0"/>
<path id="N" d="M 11969363.87 22035667.00 m -63921.13 0 a 63921.13 63921.13 0 1 1 127842.26 0a 63921.13 63921.13 0 1 1 -127842.26 0"/>
<path id="N" d="M 7972437.87 21850387.00 m -63921.13 0 a 63921.13 63921.13 0 1 1 127842.26 0a 63921.13 63921.13 0 1 1 -127842.26 0"/>
<path id="N" d="M 9155519.87 19428740.00 m -63921.13 0 a 63921.13 63921.13 0 1 1 127842.26 0a 63921.13 63921.13 0 1 1 -127842.26 0"/>
<path id="N" d="M 10236219.87 12173000.00 m -63921.13 0 a 63921.13 63921.13 0 1 1 127842.26 0a 63921.13 63921.13 0 1 1 -127842.26 0"/>
<path id="N" d="M 8562988.87 21850387.00 m -63921.13 0 a 63921.13 63921.13 0 1 1 127842.26 0a 63921.13 63921.13 0 1 1 -127842.26 0"/>
<path id="N" d="M 6791335.87 21850387.00 m -63921.13 0 a 63921.13 63921.13 0 1 1 127842.26 0a 63921.13 63921.13 0 1 1 -127842.26 0"/>
<path id="N" d="M 6200784.87 21850387.00 m -63921.13 0 a 63921.13 63921.13 0 1 1 127842.26 0a 63921.13 63921.13 0 1 1 -127842.26 0"/>
<path id="N" d="M 7381886.87 21850387.00 m -63921.13 0 a 63921.13 63921.13 0 1 1 127842.26 0a 63921.13 63921.13 0 1 1 -127842.26 0"/>
<path id="N" d="M 11969363.87 22689997.00 m -63921.13 0 a 63921.13 63921.13 0 1 1 127842.26 0a 63921.13 63921.13 0 1 1 -127842.26 0"/>
<path id="N" d="M 11969363.87 22908107.00 m -63921.13 0 a 63921.13 63921.13 0 1 1 127842.26 0a 63921.13 63921.13 0 1 1 -127842.26 0"/>
<path id="N" d="M 12830635.87 22733767.00 m -63921.13 0 a 63921.13 63921.13 0 1 1 127842.26 0a 63921.13 63921.13 0 1 1 -127842.26 0"/>
<path id="N" d="M 13499999.87 22550000.00 m -63921.13 0 a 63921.13 63921.13 0 1 1 127842.26 0a 63921.13 63921.13 0 1 1 -127842.26 0"/>
<path id="N" d="M 12830635.87 23388097.00 m -63921.13 0 a 63921.13 63921.13 0 1 1 127842.26 0a 63921.13 63921.13 0 1 1 -127842.26 0"/>
<path id="N" d="M 11969363.87 23344327.00 m -63921.13 0 a 63921.13 63921.13 0 1 1 127842.26 0a 63921.13 63921.13 0 1 1 -127842.26 0"/>
<path id="N" d="M 11249999.87 22650000.00 m -63921.13 0 a 63921.13 63921.13 0 1 1 127842.26 0a 63921.13 63921.13 0 1 1 -127842.26 0"/>
<path id="N" d="M 12634755.87 21486566.00 m -63921.13 0 a 63921.13 63921.13 0 1 1 127842.26 0a 63921.13 63921.13 0 1 1 -127842.26 0"/>
<path id="N" d="M 12165243.87 21209935.00 m -63921.13 0 a 63921.13 63921.13 0 1 1 127842.26 0a 63921.13 63921.13 0 1 1 -127842.26 0"/>
<path id="N" d="M 12634755.87 21050346.00 m -63921.13 0 a 63921.13 63921.13 0 1 1 127842.26 0a 63921.13 63921.13 0 1 1 -127842.26 0"/>
<path id="N" d="M 5314958.87 21259836.00 m -63921.13 0 a 63921.13 63921.13 0 1 1 127842.26 0a 63921.13 63921.13 0 1 1 -127842.26 0"/>
<path id="N" d="M 12634755.87 21704676.00 m -63921.13 0 a 63921.13 63921.13 0 1 1 127842.26 0a 63921.13 63921.13 0 1 1 -127842.26 0"/>
<path id="N" d="M 12165243.87 21428045.00 m -63921.13 0 a 63921.13 63921.13 0 1 1 127842.26 0a 63921.13 63921.13 0 1 1 -127842.26 0"/>
<path id="N" d="M 12165243.87 21646155.00 m -63921.13 0 a 63921.13 63921.13 0 1 1 127842.26 0a 63921.13 63921.13 0 1 1 -127842.26 0"/>
<path id="N" d="M 12060991.87 21837737.00 m -63921.13 0 a 63921.13 63921.13 0 1 1 127842.26 0a 63921.13 63921.13 0 1 1 -127842.26 0"/>
<path id="N" d="M 9746856.87 12156806.00 m -63921.13 0 a 63921.13 63921.13 0 1 1 127842.26 0a 63921.13 63921.13 0 1 1 -127842.26 0"/>
<path id="N" d="M 6649999.87 8800000.00 m -63921.13 0 a 63921.13 63921.13 0 1 1 127842.26 0a 63921.13 63921.13 0 1 1 -127842.26 0"/>
<path id="N" d="M 6949999.87 8800000.00 m -63921.13 0 a 63921.13 63921.13 0 1 1 127842.26 0a 63921.13 63921.13 0 1 1 -127842.26 0"/>
<path id="N" d="M 11249999.87 9350000.00 m -63921.13 0 a 63921.13 63921.13 0 1 1 127842.26 0a 63921.13 63921.13 0 1 1 -127842.26 0"/>
<path id="N" d="M 5999999.87 12600000.00 m -63921.13 0 a 63921.13 63921.13 0 1 1 127842.26 0a 63921.13 63921.13 0 1 1 -127842.26 0"/>
<path id="N" d="M 14468498.87 12401571.00 m -63921.13 0 a 63921.13 63921.13 0 1 1 127842.26 0a 63921.13 63921.13 0 1 1 -127842.26 0"/>
<path id="N" d="M 8818899.87 12417320.00 m -63921.13 0 a 63921.13 63921.13 0 1 1 127842.26 0a 63921.13 63921.13 0 1 1 -127842.26 0"/>
<path id="N" d="M 12349999.87 12650000.00 m -63921.13 0 a 63921.13 63921.13 0 1 1 127842.26 0a 63921.13 63921.13 0 1 1 -127842.26 0"/>
<path id="N" d="M 10039366.87 9448816.00 m -63921.13 0 a 63921.13 63921.13 0 1 1 127842.26 0a 63921.13 63921.13 0 1 1 -127842.26 0"/>
<path id="N" d="M 5227159.87 9300000.00 m -63921.13 0 a 63921.13 63921.13 0 1 1 127842.26 0a 63921.13 63921.13 0 1 1 -127842.26 0"/>
<path id="N" d="M 12400399.87 9149440.00 m -63921.13 0 a 63921.13 63921.13 0 1 1 127842.26 0a 63921.13 63921.13 0 1 1 -127842.26 0"/>
<path id="N" d="M 10629917.87 9448816.00 m -63921.13 0 a 63921.13 63921.13 0 1 1 127842.26 0a 63921.13 63921.13 0 1 1 -127842.26 0"/>
<path id="N" d="M 9153539.87 8858265.00 m -63921.13 0 a 63921.13 63921.13 0 1 1 127842.26 0a 63921.13 63921.13 0 1 1 -127842.26 0"/>
<path id="N" d="M 12499999.87 9400000.00 m -63921.13 0 a 63921.13 63921.13 0 1 1 127842.26 0a 63921.13 63921.13 0 1 1 -127842.26 0"/>
<path id="N" d="M 7381886.87 8858265.00 m -63921.13 0 a 63921.13 63921.13 0 1 1 127842.26 0a 63921.13 63921.13 0 1 1 -127842.26 0"/>
<path id="N" d="M 5019682.87 8858265.00 m -63921.13 0 a 63921.13 63921.13 0 1 1 127842.26 0a 63921.13 63921.13 0 1 1 -127842.26 0"/>
<path id="N" d="M 14763774.87 10629918.00 m -63921.13 0 a 63921.13 63921.13 0 1 1 127842.26 0a 63921.13 63921.13 0 1 1 -127842.26 0"/>
<path id="N" d="M 6599999.87 11150000.00 m -63921.13 0 a 63921.13 63921.13 0 1 1 127842.26 0a 63921.13 63921.13 0 1 1 -127842.26 0"/>
<path id="N" d="M 11181099.87 11204720.00 m -63921.13 0 a 63921.13 63921.13 0 1 1 127842.26 0a 63921.13 63921.13 0 1 1 -127842.26 0"/>
<path id="N" d="M 9599999.87 10909060.00 m -63921.13 0 a 63921.13 63921.13 0 1 1 127842.26 0a 63921.13 63921.13 0 1 1 -127842.26 0"/>
<path id="N" d="M 6849999.87 12250000.00 m -63921.13 0 a 63921.13 63921.13 0 1 1 127842.26 0a 63921.13 63921.13 0 1 1 -127842.26 0"/>
<path id="N" d="M 12696845.87 12401571.00 m -63921.13 0 a 63921.13 63921.13 0 1 1 127842.26 0a 63921.13 63921.13 0 1 1 -127842.26 0"/>
<path id="N" d="M 5999999.87 12300000.00 m -63921.13 0 a 63921.13 63921.13 0 1 1 127842.26 0a 63921.13 63921.13 0 1 1 -127842.26 0"/>
<path id="N" d="M 10866139.87 11204720.00 m -63921.13 0 a 63921.13 63921.13 0 1 1 127842.26 0a 63921.13 63921.13 0 1 1 -127842.26 0"/>
<path id="N" d="M 5905509.87 12992122.00 m -63921.13 0 a 63921.13 63921.13 0 1 1 127842.26 0a 63921.13 63921.13 0 1 1 -127842.26 0"/>
<path id="N" d="M 6349999.87 8800000.00 m -63921.13 0 a 63921.13 63921.13 0 1 1 127842.26 0a 63921.13 63921.13 0 1 1 -127842.26 0"/>
<path id="N" d="M 8346459.87 12417320.00 m -63921.13 0 a 63921.13 63921.13 0 1 1 127842.26 0a 63921.13 63921.13 0 1 1 -127842.26 0"/>
<path id="N" d="M 14749999.87 12950000.00 m -63921.13 0 a 63921.13 63921.13 0 1 1 127842.26 0a 63921.13 63921.13 0 1 1 -127842.26 0"/>
<path id="N" d="M 13287396.87 12401571.00 m -63921.13 0 a 63921.13 63921.13 0 1 1 127842.26 0a 63921.13 63921.13 0 1 1 -127842.26 0"/>
<path id="N" d="M 12349999.87 12900000.00 m -63921.13 0 a 63921.13 63921.13 0 1 1 127842.26 0a 63921.13 63921.13 0 1 1 -127842.26 0"/>
<path id="N" d="M 10973619.87 12873620.00 m -63921.13 0 a 63921.13 63921.13 0 1 1 127842.26 0a 63921.13 63921.13 0 1 1 -127842.26 0"/>
<path id="N" d="M 8267713.87 15354326.00 m -63921.13 0 a 63921.13 63921.13 0 1 1 127842.26 0a 63921.13 63921.13 0 1 1 -127842.26 0"/>
<path id="N" d="M 14763774.87 15354326.00 m -63921.13 0 a 63921.13 63921.13 0 1 1 127842.26 0a 63921.13 63921.13 0 1 1 -127842.26 0"/>
<path id="N" d="M 12992121.87 15354326.00 m -63921.13 0 a 63921.13 63921.13 0 1 1 127842.26 0a 63921.13 63921.13 0 1 1 -127842.26 0"/>
<path id="N" d="M 6899999.87 17000000.00 m -63921.13 0 a 63921.13 63921.13 0 1 1 127842.26 0a 63921.13 63921.13 0 1 1 -127842.26 0"/>
<path id="N" d="M 6549999.87 15150000.00 m -63921.13 0 a 63921.13 63921.13 0 1 1 127842.26 0a 63921.13 63921.13 0 1 1 -127842.26 0"/>
<path id="N" d="M 6626779.87 14800000.00 m -63921.13 0 a 63921.13 63921.13 0 1 1 127842.26 0a 63921.13 63921.13 0 1 1 -127842.26 0"/>
<path id="N" d="M 12099999.87 6750000.00 m -63921.13 0 a 63921.13 63921.13 0 1 1 127842.26 0a 63921.13 63921.13 0 1 1 -127842.26 0"/>
<path id="N" d="M 13582672.87 7086612.00 m -63921.13 0 a 63921.13 63921.13 0 1 1 127842.26 0a 63921.13 63921.13 0 1 1 -127842.26 0"/>
<path id="N" d="M 15149999.87 7550000.00 m -63921.13 0 a 63921.13 63921.13 0 1 1 127842.26 0a 63921.13 63921.13 0 1 1 -127842.26 0"/>
<path id="N" d="M 12349999.87 6750000.00 m -63921.13 0 a 63921.13 63921.13 0 1 1 127842.26 0a 63921.13 63921.13 0 1 1 -127842.26 0"/>
<path id="N" d="M 13356199.87 6749440.00 m -63921.13 0 a 63921.13 63921.13 0 1 1 127842.26 0a 63921.13 63921.13 0 1 1 -127842.26 0"/>
<path id="N" d="M 13106199.87 6749440.00 m -63921.13 0 a 63921.13 63921.13 0 1 1 127842.26 0a 63921.13 63921.13 0 1 1 -127842.26 0"/>
<path id="N" d="M 11349999.87 6750000.00 m -63921.13 0 a 63921.13 63921.13 0 1 1 127842.26 0a 63921.13 63921.13 0 1 1 -127842.26 0"/>
<path id="N" d="M 14763774.87 7086612.00 m -63921.13 0 a 63921.13 63921.13 0 1 1 127842.26 0a 63921.13 63921.13 0 1 1 -127842.26 0"/>
<path id="N" d="M 14173223.87 7086612.00 m -63921.13 0 a 63921.13 63921.13 0 1 1 127842.26 0a 63921.13 63921.13 0 1 1 -127842.26 0"/>
<path id="N" d="M 10223219.87 7150000.00 m -63921.13 0 a 63921.13 63921.13 0 1 1 127842.26 0a 63921.13 63921.13 0 1 1 -127842.26 0"/>
<path id="N" d="M 14945152.87 7552810.00 m -63921.13 0 a 63921.13 63921.13 0 1 1 127842.26 0a 63921.13 63921.13 0 1 1 -127842.26 0"/>
<path id="N" d="M 15349999.87 7350000.00 m -63921.13 0 a 63921.13 63921.13 0 1 1 127842.26 0a 63921.13 63921.13 0 1 1 -127842.26 0"/>
<path id="N" d="M 15349999.87 7550000.00 m -63921.13 0 a 63921.13 63921.13 0 1 1 127842.26 0a 63921.13 63921.13 0 1 1 -127842.26 0"/>
<path id="N" d="M 5019682.87 7677163.00 m -63921.13 0 a 63921.13 63921.13 0 1 1 127842.26 0a 63921.13 63921.13 0 1 1 -127842.26 0"/>
<path id="N" d="M 8858264.87 7086612.00 m -63921.13 0 a 63921.13 63921.13 0 1 1 127842.26 0a 63921.13 63921.13 0 1 1 -127842.26 0"/>
<path id="N" d="M 11220468.87 8267714.00 m -63921.13 0 a 63921.13 63921.13 0 1 1 127842.26 0a 63921.13 63921.13 0 1 1 -127842.26 0"/>
<path id="N" d="M 8858264.87 8267714.00 m -63921.13 0 a 63921.13 63921.13 0 1 1 127842.26 0a 63921.13 63921.13 0 1 1 -127842.26 0"/>
<path id="N" d="M 4499999.87 8300000.00 m -63921.13 0 a 63921.13 63921.13 0 1 1 127842.26 0a 63921.13 63921.13 0 1 1 -127842.26 0"/>
<path id="N" d="M 6949999.87 8550000.00 m -63921.13 0 a 63921.13 63921.13 0 1 1 127842.26 0a 63921.13 63921.13 0 1 1 -127842.26 0"/>
<path id="N" d="M 10849999.87 8375000.00 m -63921.13 0 a 63921.13 63921.13 0 1 1 127842.26 0a 63921.13 63921.13 0 1 1 -127842.26 0"/>
<path id="N" d="M 6649999.87 8550000.00 m -63921.13 0 a 63921.13 63921.13 0 1 1 127842.26 0a 63921.13 63921.13 0 1 1 -127842.26 0"/>
<path id="N" d="M 10279899.87 8700000.00 m -63921.13 0 a 63921.13 63921.13 0 1 1 127842.26 0a 63921.13 63921.13 0 1 1 -127842.26 0"/>
<path id="N" d="M 13599999.87 6750000.00 m -63921.13 0 a 63921.13 63921.13 0 1 1 127842.26 0a 63921.13 63921.13 0 1 1 -127842.26 0"/>
<path id="N" d="M 7677162.87 7086612.00 m -63921.13 0 a 63921.13 63921.13 0 1 1 127842.26 0a 63921.13 63921.13 0 1 1 -127842.26 0"/>
<path id="N" d="M 10629917.87 7086612.00 m -63921.13 0 a 63921.13 63921.13 0 1 1 127842.26 0a 63921.13 63921.13 0 1 1 -127842.26 0"/>
<path id="N" d="M 5905509.87 7086612.00 m -63921.13 0 a 63921.13 63921.13 0 1 1 127842.26 0a 63921.13 63921.13 0 1 1 -127842.26 0"/>
<path id="N" d="M 10564959.87 8375000.00 m -63921.13 0 a 63921.13 63921.13 0 1 1 127842.26 0a 63921.13 63921.13 0 1 1 -127842.26 0"/>
<path id="N" d="M 10279899.87 8375000.00 m -63921.13 0 a 63921.13 63921.13 0 1 1 127842.26 0a 63921.13 63921.13 0 1 1 -127842.26 0"/>
<path id="N" d="M 6200784.87 7677163.00 m -63921.13 0 a 63921.13 63921.13 0 1 1 127842.26 0a 63921.13 63921.13 0 1 1 -127842.26 0"/>
<path id="N" d="M 11299999.87 4750000.00 m -63921.13 0 a 63921.13 63921.13 0 1 1 127842.26 0a 63921.13 63921.13 0 1 1 -127842.26 0"/>
<path id="N" d="M 13306199.87 4749440.00 m -63921.13 0 a 63921.13 63921.13 0 1 1 127842.26 0a 63921.13 63921.13 0 1 1 -127842.26 0"/>
<path id="N" d="M 12049999.87 4750000.00 m -63921.13 0 a 63921.13 63921.13 0 1 1 127842.26 0a 63921.13 63921.13 0 1 1 -127842.26 0"/>
<path id="N" d="M 12906199.87 4949440.00 m -63921.13 0 a 63921.13 63921.13 0 1 1 127842.26 0a 63921.13 63921.13 0 1 1 -127842.26 0"/>
<path id="N" d="M 11656199.87 4949440.00 m -63921.13 0 a 63921.13 63921.13 0 1 1 127842.26 0a 63921.13 63921.13 0 1 1 -127842.26 0"/>
<path id="N" d="M 12656199.87 4949440.00 m -63921.13 0 a 63921.13 63921.13 0 1 1 127842.26 0a 63921.13 63921.13 0 1 1 -127842.26 0"/>
<path id="N" d="M 13156199.87 4949440.00 m -63921.13 0 a 63921.13 63921.13 0 1 1 127842.26 0a 63921.13 63921.13 0 1 1 -127842.26 0"/>
<path id="N" d="M 13306199.87 4349440.00 m -63921.13 0 a 63921.13 63921.13 0 1 1 127842.26 0a 63921.13 63921.13 0 1 1 -127842.26 0"/>
<path id="N" d="M 6649999.87 4350000.00 m -63921.13 0 a 63921.13 63921.13 0 1 1 127842.26 0a 63921.13 63921.13 0 1 1 -127842.26 0"/>
<path id="N" d="M 11299999.87 4350000.00 m -63921.13 0 a 63921.13 63921.13 0 1 1 127842.26 0a 63921.13 63921.13 0 1 1 -127842.26 0"/>
<path id="N" d="M 6349999.87 4350000.00 m -63921.13 0 a 63921.13 63921.13 0 1 1 127842.26 0a 63921.13 63921.13 0 1 1 -127842.26 0"/>
<path id="N" d="M 13549999.87 4750000.00 m -63921.13 0 a 63921.13 63921.13 0 1 1 127842.26 0a 63921.13 63921.13 0 1 1 -127842.26 0"/>
<path id="N" d="M 12299999.87 4750000.00 m -63921.13 0 a 63921.13 63921.13 0 1 1 127842.26 0a 63921.13 63921.13 0 1 1 -127842.26 0"/>
<path id="N" d="M 12399999.87 4550000.00 m -63921.13 0 a 63921.13 63921.13 0 1 1 127842.26 0a 63921.13 63921.13 0 1 1 -127842.26 0"/>
<path id="N" d="M 11906199.87 4949440.00 m -63921.13 0 a 63921.13 63921.13 0 1 1 127842.26 0a 63921.13 63921.13 0 1 1 -127842.26 0"/>
<path id="N" d="M 8858264.87 4724408.00 m -63921.13 0 a 63921.13 63921.13 0 1 1 127842.26 0a 63921.13 63921.13 0 1 1 -127842.26 0"/>
<path id="N" d="M 11806199.87 4749440.00 m -63921.13 0 a 63921.13 63921.13 0 1 1 127842.26 0a 63921.13 63921.13 0 1 1 -127842.26 0"/>
<path id="N" d="M 12806199.87 4749440.00 m -63921.13 0 a 63921.13 63921.13 0 1 1 127842.26 0a 63921.13 63921.13 0 1 1 -127842.26 0"/>
<path id="N" d="M 11556199.87 4749440.00 m -63921.13 0 a 63921.13 63921.13 0 1 1 127842.26 0a 63921.13 63921.13 0 1 1 -127842.26 0"/>
<path id="N" d="M 15149999.87 7350000.00 m -63921.13 0 a 63921.13 63921.13 0 1 1 127842.26 0a 63921.13 63921.13 0 1 1 -127842.26 0"/>
<path id="N" d="M 14949999.87 7350000.00 m -63921.13 0 a 63921.13 63921.13 0 1 1 127842.26 0a 63921.13 63921.13 0 1 1 -127842.26 0"/>
<path id="N" d="M 6349999.87 5700000.00 m -63921.13 0 a 63921.13 63921.13 0 1 1 127842.26 0a 63921.13 63921.13 0 1 1 -127842.26 0"/>
<path id="N" d="M 7677162.87 4724408.00 m -63921.13 0 a 63921.13 63921.13 0 1 1 127842.26 0a 63921.13 63921.13 0 1 1 -127842.26 0"/>
<path id="N" d="M 6949999.87 4700000.00 m -63921.13 0 a 63921.13 63921.13 0 1 1 127842.26 0a 63921.13 63921.13 0 1 1 -127842.26 0"/>
<path id="N" d="M 13056199.87 4749440.00 m -63921.13 0 a 63921.13 63921.13 0 1 1 127842.26 0a 63921.13 63921.13 0 1 1 -127842.26 0"/>
<path id="N" d="M 6649999.87 4700000.00 m -63921.13 0 a 63921.13 63921.13 0 1 1 127842.26 0a 63921.13 63921.13 0 1 1 -127842.26 0"/>
<path id="N" d="M 12556199.87 4749440.00 m -63921.13 0 a 63921.13 63921.13 0 1 1 127842.26 0a 63921.13 63921.13 0 1 1 -127842.26 0"/>
<path id="N" d="M 6349999.87 4700000.00 m -63921.13 0 a 63921.13 63921.13 0 1 1 127842.26 0a 63921.13 63921.13 0 1 1 -127842.26 0"/>
<path id="N" d="M 13649999.87 4550000.00 m -63921.13 0 a 63921.13 63921.13 0 1 1 127842.26 0a 63921.13 63921.13 0 1 1 -127842.26 0"/>
<path id="N" d="M 13206199.87 6549440.00 m -63921.13 0 a 63921.13 63921.13 0 1 1 127842.26 0a 63921.13 63921.13 0 1 1 -127842.26 0"/>
<path id="N" d="M 12956199.87 6549440.00 m -63921.13 0 a 63921.13 63921.13 0 1 1 127842.26 0a 63921.13 63921.13 0 1 1 -127842.26 0"/>
<path id="N" d="M 11199999.87 6550000.00 m -63921.13 0 a 63921.13 63921.13 0 1 1 127842.26 0a 63921.13 63921.13 0 1 1 -127842.26 0"/>
<path id="N" d="M 12606199.87 6749440.00 m -63921.13 0 a 63921.13 63921.13 0 1 1 127842.26 0a 63921.13 63921.13 0 1 1 -127842.26 0"/>
<path id="N" d="M 13449999.87 6550000.00 m -63921.13 0 a 63921.13 63921.13 0 1 1 127842.26 0a 63921.13 63921.13 0 1 1 -127842.26 0"/>
<path id="N" d="M 11856199.87 6749440.00 m -63921.13 0 a 63921.13 63921.13 0 1 1 127842.26 0a 63921.13 63921.13 0 1 1 -127842.26 0"/>
<path id="N" d="M 12856199.87 6749440.00 m -63921.13 0 a 63921.13 63921.13 0 1 1 127842.26 0a 63921.13 63921.13 0 1 1 -127842.26 0"/>
<path id="N" d="M 11849999.87 5850000.00 m -63921.13 0 a 63921.13 63921.13 0 1 1 127842.26 0a 63921.13 63921.13 0 1 1 -127842.26 0"/>
<path id="N" d="M 5314958.87 5905510.00 m -63921.13 0 a 63921.13 63921.13 0 1 1 127842.26 0a 63921.13 63921.13 0 1 1 -127842.26 0"/>
<path id="N" d="M 7677162.87 5905510.00 m -63921.13 0 a 63921.13 63921.13 0 1 1 127842.26 0a 63921.13 63921.13 0 1 1 -127842.26 0"/>
<path id="N" d="M 12099999.87 5850000.00 m -63921.13 0 a 63921.13 63921.13 0 1 1 127842.26 0a 63921.13 63921.13 0 1 1 -127842.26 0"/>
<path id="N" d="M 12199999.87 6550000.00 m -63921.13 0 a 63921.13 63921.13 0 1 1 127842.26 0a 63921.13 63921.13 0 1 1 -127842.26 0"/>
<path id="N" d="M 11949999.87 6550000.00 m -63921.13 0 a 63921.13 63921.13 0 1 1 127842.26 0a 63921.13 63921.13 0 1 1 -127842.26 0"/>
<path id="N" d="M 11843799.87 6300560.00 m -63921.13 0 a 63921.13 63921.13 0 1 1 127842.26 0a 63921.13 63921.13 0 1 1 -127842.26 0"/>
<path id="N" d="M 11606199.87 6749440.00 m -63921.13 0 a 63921.13 63921.13 0 1 1 127842.26 0a 63921.13 63921.13 0 1 1 -127842.26 0"/>
<path id="N" d="M 14468498.87 6496061.00 m -63921.13 0 a 63921.13 63921.13 0 1 1 127842.26 0a 63921.13 63921.13 0 1 1 -127842.26 0"/>
<path id="N" d="M 11456199.87 6549440.00 m -63921.13 0 a 63921.13 63921.13 0 1 1 127842.26 0a 63921.13 63921.13 0 1 1 -127842.26 0"/>
<path id="N" d="M 12456199.87 6549440.00 m -63921.13 0 a 63921.13 63921.13 0 1 1 127842.26 0a 63921.13 63921.13 0 1 1 -127842.26 0"/>
<path id="N" d="M 15059049.87 6496061.00 m -63921.13 0 a 63921.13 63921.13 0 1 1 127842.26 0a 63921.13 63921.13 0 1 1 -127842.26 0"/>
<path id="N" d="M 7381886.87 6496061.00 m -63921.13 0 a 63921.13 63921.13 0 1 1 127842.26 0a 63921.13 63921.13 0 1 1 -127842.26 0"/>
<path id="N" d="M 5249999.87 6450000.00 m -63921.13 0 a 63921.13 63921.13 0 1 1 127842.26 0a 63921.13 63921.13 0 1 1 -127842.26 0"/>
<path id="N" d="M 12706199.87 6549440.00 m -63921.13 0 a 63921.13 63921.13 0 1 1 127842.26 0a 63921.13 63921.13 0 1 1 -127842.26 0"/>
<path id="N" d="M 4949999.87 6450000.00 m -63921.13 0 a 63921.13 63921.13 0 1 1 127842.26 0a 63921.13 63921.13 0 1 1 -127842.26 0"/>
<path id="N" d="M 11706199.87 6549440.00 m -63921.13 0 a 63921.13 63921.13 0 1 1 127842.26 0a 63921.13 63921.13 0 1 1 -127842.26 0"/>
<path id="N" d="M 4649999.87 6450000.00 m -63921.13 0 a 63921.13 63921.13 0 1 1 127842.26 0a 63921.13 63921.13 0 1 1 -127842.26 0"/>
<path id="N" d="M 12093799.87 6300560.00 m -63921.13 0 a 63921.13 63921.13 0 1 1 127842.26 0a 63921.13 63921.13 0 1 1 -127842.26 0"/>
<path id="N" d="M 10279899.87 8050000.00 m -63921.13 0 a 63921.13 63921.13 0 1 1 127842.26 0a 63921.13 63921.13 0 1 1 -127842.26 0"/>
<path id="N" d="M 10849999.87 8050000.00 m -63921.13 0 a 63921.13 63921.13 0 1 1 127842.26 0a 63921.13 63921.13 0 1 1 -127842.26 0"/>
<path id="N" d="M 10564959.87 8050000.00 m -63921.13 0 a 63921.13 63921.13 0 1 1 127842.26 0a 63921.13 63921.13 0 1 1 -127842.26 0"/>
<path id="N" d="M 10925192.87 7677163.00 m -63921.13 0 a 63921.13 63921.13 0 1 1 127842.26 0a 63921.13 63921.13 0 1 1 -127842.26 0"/>
<path id="N" d="M 11449999.87 6100000.00 m -63921.13 0 a 63921.13 63921.13 0 1 1 127842.26 0a 63921.13 63921.13 0 1 1 -127842.26 0"/>
<path id="N" d="M 11199999.87 6100000.00 m -63921.13 0 a 63921.13 63921.13 0 1 1 127842.26 0a 63921.13 63921.13 0 1 1 -127842.26 0"/>
<path id="N" d="M 14468498.87 7677163.00 m -63921.13 0 a 63921.13 63921.13 0 1 1 127842.26 0a 63921.13 63921.13 0 1 1 -127842.26 0"/>
<path id="N" d="M 9153539.87 7677163.00 m -63921.13 0 a 63921.13 63921.13 0 1 1 127842.26 0a 63921.13 63921.13 0 1 1 -127842.26 0"/>
<path id="N" d="M 7677162.87 8267714.00 m -63921.13 0 a 63921.13 63921.13 0 1 1 127842.26 0a 63921.13 63921.13 0 1 1 -127842.26 0"/>
<path id="N" d="M 6349999.87 8550000.00 m -63921.13 0 a 63921.13 63921.13 0 1 1 127842.26 0a 63921.13 63921.13 0 1 1 -127842.26 0"/>
<path id="N" d="M 10334641.87 7677163.00 m -63921.13 0 a 63921.13 63921.13 0 1 1 127842.26 0a 63921.13 63921.13 0 1 1 -127842.26 0"/>
<path id="N" d="M 7381886.87 7677163.00 m -63921.13 0 a 63921.13 63921.13 0 1 1 127842.26 0a 63921.13 63921.13 0 1 1 -127842.26 0"/>
<path id="N" d="M 6791335.87 7677163.00 m -63921.13 0 a 63921.13 63921.13 0 1 1 127842.26 0a 63921.13 63921.13 0 1 1 -127842.26 0"/>
<path id="N" d="M 8562988.87 7677163.00 m -63921.13 0 a 63921.13 63921.13 0 1 1 127842.26 0a 63921.13 63921.13 0 1 1 -127842.26 0"/>
<path id="N" d="M 14763774.87 5905510.00 m -63921.13 0 a 63921.13 63921.13 0 1 1 127842.26 0a 63921.13 63921.13 0 1 1 -127842.26 0"/>
<path id="N" d="M 11606199.87 5849440.00 m -63921.13 0 a 63921.13 63921.13 0 1 1 127842.26 0a 63921.13 63921.13 0 1 1 -127842.26 0"/>
<path id="N" d="M 11356199.87 5849440.00 m -63921.13 0 a 63921.13 63921.13 0 1 1 127842.26 0a 63921.13 63921.13 0 1 1 -127842.26 0"/>
<path id="N" d="M 8858264.87 5905510.00 m -63921.13 0 a 63921.13 63921.13 0 1 1 127842.26 0a 63921.13 63921.13 0 1 1 -127842.26 0"/>
<path id="N" d="M 9599999.87 5700000.00 m -63921.13 0 a 63921.13 63921.13 0 1 1 127842.26 0a 63921.13 63921.13 0 1 1 -127842.26 0"/>
<path id="N" d="M 5905509.87 5905510.00 m -63921.13 0 a 63921.13 63921.13 0 1 1 127842.26 0a 63921.13 63921.13 0 1 1 -127842.26 0"/>
<path id="N" d="M 6949999.87 5700000.00 m -63921.13 0 a 63921.13 63921.13 0 1 1 127842.26 0a 63921.13 63921.13 0 1 1 -127842.26 0"/>
<path id="N" d="M 6649999.87 5700000.00 m -63921.13 0 a 63921.13 63921.13 0 1 1 127842.26 0a 63921.13 63921.13 0 1 1 -127842.26 0"/>
<path id="N" d="M 11349999.87 6300000.00 m -63921.13 0 a 63921.13 63921.13 0 1 1 127842.26 0a 63921.13 63921.13 0 1 1 -127842.26 0"/>
<path id="N" d="M 14173223.87 5905510.00 m -63921.13 0 a 63921.13 63921.13 0 1 1 127842.26 0a 63921.13 63921.13 0 1 1 -127842.26 0"/>
<path id="N" d="M 10039366.87 5905510.00 m -63921.13 0 a 63921.13 63921.13 0 1 1 127842.26 0a 63921.13 63921.13 0 1 1 -127842.26 0"/>
<path id="N" d="M 11599999.87 6300000.00 m -63921.13 0 a 63921.13 63921.13 0 1 1 127842.26 0a 63921.13 63921.13 0 1 1 -127842.26 0"/>
<path id="N" d="M 11693799.87 6100560.00 m -63921.13 0 a 63921.13 63921.13 0 1 1 127842.26 0a 63921.13 63921.13 0 1 1 -127842.26 0"/>
<path id="N" d="M 12199999.87 6100000.00 m -63921.13 0 a 63921.13 63921.13 0 1 1 127842.26 0a 63921.13 63921.13 0 1 1 -127842.26 0"/>
<path id="N" d="M 11943799.87 6100560.00 m -63921.13 0 a 63921.13 63921.13 0 1 1 127842.26 0a 63921.13 63921.13 0 1 1 -127842.26 0"/>
<path id="N" d="M 6949999.87 4350000.00 m -63921.13 0 a 63921.13 63921.13 0 1 1 127842.26 0a 63921.13 63921.13 0 1 1 -127842.26 0"/>
<path id="N" d="M 13287396.87 20669285.00 m -63921.13 0 a 63921.13 63921.13 0 1 1 127842.26 0a 63921.13 63921.13 0 1 1 -127842.26 0"/>
<path id="N" d="M 6572839.87 20700000.00 m -63921.13 0 a 63921.13 63921.13 0 1 1 127842.26 0a 63921.13 63921.13 0 1 1 -127842.26 0"/>
<path id="N" d="M 12165243.87 20773715.00 m -63921.13 0 a 63921.13 63921.13 0 1 1 127842.26 0a 63921.13 63921.13 0 1 1 -127842.26 0"/>
<path id="N" d="M 15059049.87 20669285.00 m -63921.13 0 a 63921.13 63921.13 0 1 1 127842.26 0a 63921.13 63921.13 0 1 1 -127842.26 0"/>
<path id="N" d="M 12165243.87 20991825.00 m -63921.13 0 a 63921.13 63921.13 0 1 1 127842.26 0a 63921.13 63921.13 0 1 1 -127842.26 0"/>
<path id="N" d="M 14649999.87 21000000.00 m -63921.13 0 a 63921.13 63921.13 0 1 1 127842.26 0a 63921.13 63921.13 0 1 1 -127842.26 0"/>
<path id="N" d="M 13749999.87 21000000.00 m -63921.13 0 a 63921.13 63921.13 0 1 1 127842.26 0a 63921.13 63921.13 0 1 1 -127842.26 0"/>
<path id="N" d="M 9566919.87 19614960.00 m -63921.13 0 a 63921.13 63921.13 0 1 1 127842.26 0a 63921.13 63921.13 0 1 1 -127842.26 0"/>
<path id="N" d="M 13299999.87 19600000.00 m -63921.13 0 a 63921.13 63921.13 0 1 1 127842.26 0a 63921.13 63921.13 0 1 1 -127842.26 0"/>
<path id="N" d="M 14054919.87 19493700.00 m -63921.13 0 a 63921.13 63921.13 0 1 1 127842.26 0a 63921.13 63921.13 0 1 1 -127842.26 0"/>
<path id="N" d="M 10867719.87 19600000.00 m -63921.13 0 a 63921.13 63921.13 0 1 1 127842.26 0a 63921.13 63921.13 0 1 1 -127842.26 0"/>
<path id="N" d="M 8927159.87 20700000.00 m -63921.13 0 a 63921.13 63921.13 0 1 1 127842.26 0a 63921.13 63921.13 0 1 1 -127842.26 0"/>
<path id="N" d="M 4594099.87 19533080.00 m -63921.13 0 a 63921.13 63921.13 0 1 1 127842.26 0a 63921.13 63921.13 0 1 1 -127842.26 0"/>
<path id="N" d="M 11042543.87 19507456.00 m -63921.13 0 a 63921.13 63921.13 0 1 1 127842.26 0a 63921.13 63921.13 0 1 1 -127842.26 0"/>
<path id="N" d="M 12634755.87 20832236.00 m -63921.13 0 a 63921.13 63921.13 0 1 1 127842.26 0a 63921.13 63921.13 0 1 1 -127842.26 0"/>
<path id="N" d="M 11528421.87 20427384.00 m -63921.13 0 a 63921.13 63921.13 0 1 1 127842.26 0a 63921.13 63921.13 0 1 1 -127842.26 0"/>
<path id="N" d="M 5610233.87 20669285.00 m -63921.13 0 a 63921.13 63921.13 0 1 1 127842.26 0a 63921.13 63921.13 0 1 1 -127842.26 0"/>
<path id="N" d="M 12626078.87 20614298.00 m -63921.13 0 a 63921.13 63921.13 0 1 1 127842.26 0a 63921.13 63921.13 0 1 1 -127842.26 0"/>
<path id="N" d="M 12579954.87 20401121.00 m -63921.13 0 a 63921.13 63921.13 0 1 1 127842.26 0a 63921.13 63921.13 0 1 1 -127842.26 0"/>
<path id="N" d="M 11299999.87 5150000.00 m -63921.13 0 a 63921.13 63921.13 0 1 1 127842.26 0a 63921.13 63921.13 0 1 1 -127842.26 0"/>
<path id="N" d="M 10564959.87 8700000.00 m -63921.13 0 a 63921.13 63921.13 0 1 1 127842.26 0a 63921.13 63921.13 0 1 1 -127842.26 0"/>
<path id="N" d="M 11310311.87 20427384.00 m -63921.13 0 a 63921.13 63921.13 0 1 1 127842.26 0a 63921.13 63921.13 0 1 1 -127842.26 0"/>
<path id="N" d="M 10449219.87 20300780.00 m -63921.13 0 a 63921.13 63921.13 0 1 1 127842.26 0a 63921.13 63921.13 0 1 1 -127842.26 0"/>
<path id="N" d="M 6200784.87 20669285.00 m -63921.13 0 a 63921.13 63921.13 0 1 1 127842.26 0a 63921.13 63921.13 0 1 1 -127842.26 0"/>
<path id="N" d="M 4594099.87 20933080.00 m -63921.13 0 a 63921.13 63921.13 0 1 1 127842.26 0a 63921.13 63921.13 0 1 1 -127842.26 0"/>
<path id="N" d="M 11095849.87 20387657.00 m -63921.13 0 a 63921.13 63921.13 0 1 1 127842.26 0a 63921.13 63921.13 0 1 1 -127842.26 0"/>
<path id="N" d="M 10927556.87 20248915.00 m -63921.13 0 a 63921.13 63921.13 0 1 1 127842.26 0a 63921.13 63921.13 0 1 1 -127842.26 0"/>
<path id="N" d="M 12506483.87 20195758.00 m -63921.13 0 a 63921.13 63921.13 0 1 1 127842.26 0a 63921.13 63921.13 0 1 1 -127842.26 0"/>
<path id="N" d="M 9825399.87 20300780.00 m -63921.13 0 a 63921.13 63921.13 0 1 1 127842.26 0a 63921.13 63921.13 0 1 1 -127842.26 0"/>
<path id="N" d="M 10039366.87 22440938.00 m -63921.13 0 a 63921.13 63921.13 0 1 1 127842.26 0a 63921.13 63921.13 0 1 1 -127842.26 0"/>
<path id="N" d="M 12830635.87 22297547.00 m -63921.13 0 a 63921.13 63921.13 0 1 1 127842.26 0a 63921.13 63921.13 0 1 1 -127842.26 0"/>
<path id="N" d="M 11969363.87 22253777.00 m -63921.13 0 a 63921.13 63921.13 0 1 1 127842.26 0a 63921.13 63921.13 0 1 1 -127842.26 0"/>
<path id="N" d="M 11969363.87 22471887.00 m -63921.13 0 a 63921.13 63921.13 0 1 1 127842.26 0a 63921.13 63921.13 0 1 1 -127842.26 0"/>
<path id="N" d="M 8267713.87 22440938.00 m -63921.13 0 a 63921.13 63921.13 0 1 1 127842.26 0a 63921.13 63921.13 0 1 1 -127842.26 0"/>
<path id="N" d="M 7677162.87 22440938.00 m -63921.13 0 a 63921.13 63921.13 0 1 1 127842.26 0a 63921.13 63921.13 0 1 1 -127842.26 0"/>
<path id="N" d="M 8858264.87 22440938.00 m -63921.13 0 a 63921.13 63921.13 0 1 1 127842.26 0a 63921.13 63921.13 0 1 1 -127842.26 0"/>
<path id="N" d="M 11969363.87 23126217.00 m -63921.13 0 a 63921.13 63921.13 0 1 1 127842.26 0a 63921.13 63921.13 0 1 1 -127842.26 0"/>
<path id="N" d="M 12830635.87 22951877.00 m -63921.13 0 a 63921.13 63921.13 0 1 1 127842.26 0a 63921.13 63921.13 0 1 1 -127842.26 0"/>
<path id="N" d="M 12830635.87 23169987.00 m -63921.13 0 a 63921.13 63921.13 0 1 1 127842.26 0a 63921.13 63921.13 0 1 1 -127842.26 0"/>
<path id="N" d="M 12830635.87 22515657.00 m -63921.13 0 a 63921.13 63921.13 0 1 1 127842.26 0a 63921.13 63921.13 0 1 1 -127842.26 0"/>
<path id="N" d="M 5905509.87 22440938.00 m -63921.13 0 a 63921.13 63921.13 0 1 1 127842.26 0a 63921.13 63921.13 0 1 1 -127842.26 0"/>
<path id="N" d="M 7086611.87 22440938.00 m -63921.13 0 a 63921.13 63921.13 0 1 1 127842.26 0a 63921.13 63921.13 0 1 1 -127842.26 0"/>
<path id="N" d="M 6496060.87 22440938.00 m -63921.13 0 a 63921.13 63921.13 0 1 1 127842.26 0a 63921.13 63921.13 0 1 1 -127842.26 0"/>
<path id="N" d="M 14054919.87 19893700.00 m -63921.13 0 a 63921.13 63921.13 0 1 1 127842.26 0a 63921.13 63921.13 0 1 1 -127842.26 0"/>
<path id="N" d="M 8999999.87 19650000.00 m -63921.13 0 a 63921.13 63921.13 0 1 1 127842.26 0a 63921.13 63921.13 0 1 1 -127842.26 0"/>
<path id="N" d="M 6223219.87 20000000.00 m -63921.13 0 a 63921.13 63921.13 0 1 1 127842.26 0a 63921.13 63921.13 0 1 1 -127842.26 0"/>
<path id="N" d="M 14504919.87 19893700.00 m -63921.13 0 a 63921.13 63921.13 0 1 1 127842.26 0a 63921.13 63921.13 0 1 1 -127842.26 0"/>
<path id="N" d="M 14504919.87 19493700.00 m -63921.13 0 a 63921.13 63921.13 0 1 1 127842.26 0a 63921.13 63921.13 0 1 1 -127842.26 0"/>
<path id="N" d="M 7381886.87 19488183.00 m -63921.13 0 a 63921.13 63921.13 0 1 1 127842.26 0a 63921.13 63921.13 0 1 1 -127842.26 0"/>
<path id="N" d="M 14279919.87 19493700.00 m -63921.13 0 a 63921.13 63921.13 0 1 1 127842.26 0a 63921.13 63921.13 0 1 1 -127842.26 0"/>
<path id="N" d="M 12449999.87 19500000.00 m -63921.13 0 a 63921.13 63921.13 0 1 1 127842.26 0a 63921.13 63921.13 0 1 1 -127842.26 0"/>
<path id="N" d="M 14054919.87 19693700.00 m -63921.13 0 a 63921.13 63921.13 0 1 1 127842.26 0a 63921.13 63921.13 0 1 1 -127842.26 0"/>
<path id="N" d="M 14504919.87 19693700.00 m -63921.13 0 a 63921.13 63921.13 0 1 1 127842.26 0a 63921.13 63921.13 0 1 1 -127842.26 0"/>
<path id="N" d="M 14279919.87 19893700.00 m -63921.13 0 a 63921.13 63921.13 0 1 1 127842.26 0a 63921.13 63921.13 0 1 1 -127842.26 0"/>
<path id="N" d="M 14279919.87 19693700.00 m -63921.13 0 a 63921.13 63921.13 0 1 1 127842.26 0a 63921.13 63921.13 0 1 1 -127842.26 0"/>
<path id="N" d="M 9884639.87 20050000.00 m -63921.13 0 a 63921.13 63921.13 0 1 1 127842.26 0a 63921.13 63921.13 0 1 1 -127842.26 0"/>
<path id="N" d="M 9449999.87 20100000.00 m -63921.13 0 a 63921.13 63921.13 0 1 1 127842.26 0a 63921.13 63921.13 0 1 1 -127842.26 0"/>
<path id="N" d="M 8267713.87 20078734.00 m -63921.13 0 a 63921.13 63921.13 0 1 1 127842.26 0a 63921.13 63921.13 0 1 1 -127842.26 0"/>
<path id="N" d="M 6349999.87 5400000.00 m -63921.13 0 a 63921.13 63921.13 0 1 1 127842.26 0a 63921.13 63921.13 0 1 1 -127842.26 0"/>
<path id="N" d="M 13649999.87 5350000.00 m -63921.13 0 a 63921.13 63921.13 0 1 1 127842.26 0a 63921.13 63921.13 0 1 1 -127842.26 0"/>
<path id="N" d="M 12656199.87 5349440.00 m -63921.13 0 a 63921.13 63921.13 0 1 1 127842.26 0a 63921.13 63921.13 0 1 1 -127842.26 0"/>
<path id="N" d="M 12399999.87 5350000.00 m -63921.13 0 a 63921.13 63921.13 0 1 1 127842.26 0a 63921.13 63921.13 0 1 1 -127842.26 0"/>
<path id="N" d="M 11906199.87 4549440.00 m -63921.13 0 a 63921.13 63921.13 0 1 1 127842.26 0a 63921.13 63921.13 0 1 1 -127842.26 0"/>
<path id="N" d="M 12149999.87 5350000.00 m -63921.13 0 a 63921.13 63921.13 0 1 1 127842.26 0a 63921.13 63921.13 0 1 1 -127842.26 0"/>
<path id="N" d="M 11399999.87 5350000.00 m -63921.13 0 a 63921.13 63921.13 0 1 1 127842.26 0a 63921.13 63921.13 0 1 1 -127842.26 0"/>
<path id="N" d="M 6649999.87 5400000.00 m -63921.13 0 a 63921.13 63921.13 0 1 1 127842.26 0a 63921.13 63921.13 0 1 1 -127842.26 0"/>
<path id="N" d="M 11299999.87 5600000.00 m -63921.13 0 a 63921.13 63921.13 0 1 1 127842.26 0a 63921.13 63921.13 0 1 1 -127842.26 0"/>
<path id="N" d="M 13306199.87 5599440.00 m -63921.13 0 a 63921.13 63921.13 0 1 1 127842.26 0a 63921.13 63921.13 0 1 1 -127842.26 0"/>
<path id="N" d="M 13156199.87 5349440.00 m -63921.13 0 a 63921.13 63921.13 0 1 1 127842.26 0a 63921.13 63921.13 0 1 1 -127842.26 0"/>
<path id="N" d="M 11906199.87 5349440.00 m -63921.13 0 a 63921.13 63921.13 0 1 1 127842.26 0a 63921.13 63921.13 0 1 1 -127842.26 0"/>
<path id="N" d="M 12906199.87 5349440.00 m -63921.13 0 a 63921.13 63921.13 0 1 1 127842.26 0a 63921.13 63921.13 0 1 1 -127842.26 0"/>
<path id="N" d="M 13406199.87 5349440.00 m -63921.13 0 a 63921.13 63921.13 0 1 1 127842.26 0a 63921.13 63921.13 0 1 1 -127842.26 0"/>
<path id="N" d="M 12656199.87 4549440.00 m -63921.13 0 a 63921.13 63921.13 0 1 1 127842.26 0a 63921.13 63921.13 0 1 1 -127842.26 0"/>
<path id="N" d="M 12806199.87 4349440.00 m -63921.13 0 a 63921.13 63921.13 0 1 1 127842.26 0a 63921.13 63921.13 0 1 1 -127842.26 0"/>
<path id="N" d="M 12049999.87 4350000.00 m -63921.13 0 a 63921.13 63921.13 0 1 1 127842.26 0a 63921.13 63921.13 0 1 1 -127842.26 0"/>
<path id="N" d="M 13156199.87 4549440.00 m -63921.13 0 a 63921.13 63921.13 0 1 1 127842.26 0a 63921.13 63921.13 0 1 1 -127842.26 0"/>
<path id="N" d="M 13056199.87 4349440.00 m -63921.13 0 a 63921.13 63921.13 0 1 1 127842.26 0a 63921.13 63921.13 0 1 1 -127842.26 0"/>
<path id="N" d="M 11806199.87 4349440.00 m -63921.13 0 a 63921.13 63921.13 0 1 1 127842.26 0a 63921.13 63921.13 0 1 1 -127842.26 0"/>
<path id="N" d="M 11556199.87 4349440.00 m -63921.13 0 a 63921.13 63921.13 0 1 1 127842.26 0a 63921.13 63921.13 0 1 1 -127842.26 0"/>
<path id="N" d="M 12556199.87 4349440.00 m -63921.13 0 a 63921.13 63921.13 0 1 1 127842.26 0a 63921.13 63921.13 0 1 1 -127842.26 0"/>
<path id="N" d="M 13549999.87 4350000.00 m -63921.13 0 a 63921.13 63921.13 0 1 1 127842.26 0a 63921.13 63921.13 0 1 1 -127842.26 0"/>
<path id="N" d="M 12299999.87 4350000.00 m -63921.13 0 a 63921.13 63921.13 0 1 1 127842.26 0a 63921.13 63921.13 0 1 1 -127842.26 0"/>
<path id="N" d="M 11656199.87 4549440.00 m -63921.13 0 a 63921.13 63921.13 0 1 1 127842.26 0a 63921.13 63921.13 0 1 1 -127842.26 0"/>
<path id="N" d="M 11399999.87 4550000.00 m -63921.13 0 a 63921.13 63921.13 0 1 1 127842.26 0a 63921.13 63921.13 0 1 1 -127842.26 0"/>
<path id="N" d="M 12906199.87 4549440.00 m -63921.13 0 a 63921.13 63921.13 0 1 1 127842.26 0a 63921.13 63921.13 0 1 1 -127842.26 0"/>
<path id="N" d="M 13406199.87 4549440.00 m -63921.13 0 a 63921.13 63921.13 0 1 1 127842.26 0a 63921.13 63921.13 0 1 1 -127842.26 0"/>
<path id="N" d="M 12149999.87 4550000.00 m -63921.13 0 a 63921.13 63921.13 0 1 1 127842.26 0a 63921.13 63921.13 0 1 1 -127842.26 0"/>
<path id="N" d="M 12556199.87 5149440.00 m -63921.13 0 a 63921.13 63921.13 0 1 1 127842.26 0a 63921.13 63921.13 0 1 1 -127842.26 0"/>
<path id="N" d="M 13549999.87 5150000.00 m -63921.13 0 a 63921.13 63921.13 0 1 1 127842.26 0a 63921.13 63921.13 0 1 1 -127842.26 0"/>
<path id="N" d="M 12299999.87 5150000.00 m -63921.13 0 a 63921.13 63921.13 0 1 1 127842.26 0a 63921.13 63921.13 0 1 1 -127842.26 0"/>
<path id="N" d="M 12399999.87 4950000.00 m -63921.13 0 a 63921.13 63921.13 0 1 1 127842.26 0a 63921.13 63921.13 0 1 1 -127842.26 0"/>
<path id="N" d="M 13406199.87 4949440.00 m -63921.13 0 a 63921.13 63921.13 0 1 1 127842.26 0a 63921.13 63921.13 0 1 1 -127842.26 0"/>
<path id="N" d="M 12149999.87 4950000.00 m -63921.13 0 a 63921.13 63921.13 0 1 1 127842.26 0a 63921.13 63921.13 0 1 1 -127842.26 0"/>
<path id="N" d="M 13649999.87 4950000.00 m -63921.13 0 a 63921.13 63921.13 0 1 1 127842.26 0a 63921.13 63921.13 0 1 1 -127842.26 0"/>
<path id="N" d="M 12806199.87 5149440.00 m -63921.13 0 a 63921.13 63921.13 0 1 1 127842.26 0a 63921.13 63921.13 0 1 1 -127842.26 0"/>
<path id="N" d="M 13306199.87 5149440.00 m -63921.13 0 a 63921.13 63921.13 0 1 1 127842.26 0a 63921.13 63921.13 0 1 1 -127842.26 0"/>
<path id="N" d="M 12049999.87 5150000.00 m -63921.13 0 a 63921.13 63921.13 0 1 1 127842.26 0a 63921.13 63921.13 0 1 1 -127842.26 0"/>
<path id="N" d="M 13056199.87 5149440.00 m -63921.13 0 a 63921.13 63921.13 0 1 1 127842.26 0a 63921.13 63921.13 0 1 1 -127842.26 0"/>
<path id="N" d="M 7381886.87 5314959.00 m -63921.13 0 a 63921.13 63921.13 0 1 1 127842.26 0a 63921.13 63921.13 0 1 1 -127842.26 0"/>
<path id="N" d="M 10334641.87 5314959.00 m -63921.13 0 a 63921.13 63921.13 0 1 1 127842.26 0a 63921.13 63921.13 0 1 1 -127842.26 0"/>
<path id="N" d="M 9153539.87 5314959.00 m -63921.13 0 a 63921.13 63921.13 0 1 1 127842.26 0a 63921.13 63921.13 0 1 1 -127842.26 0"/>
<path id="N" d="M 11399999.87 4950000.00 m -63921.13 0 a 63921.13 63921.13 0 1 1 127842.26 0a 63921.13 63921.13 0 1 1 -127842.26 0"/>
<path id="N" d="M 6949999.87 5400000.00 m -63921.13 0 a 63921.13 63921.13 0 1 1 127842.26 0a 63921.13 63921.13 0 1 1 -127842.26 0"/>
<path id="N" d="M 11806199.87 5599440.00 m -63921.13 0 a 63921.13 63921.13 0 1 1 127842.26 0a 63921.13 63921.13 0 1 1 -127842.26 0"/>
<path id="N" d="M 13056199.87 5599440.00 m -63921.13 0 a 63921.13 63921.13 0 1 1 127842.26 0a 63921.13 63921.13 0 1 1 -127842.26 0"/>
<path id="N" d="M 11556199.87 5599440.00 m -63921.13 0 a 63921.13 63921.13 0 1 1 127842.26 0a 63921.13 63921.13 0 1 1 -127842.26 0"/>
<path id="N" d="M 12049999.87 5600000.00 m -63921.13 0 a 63921.13 63921.13 0 1 1 127842.26 0a 63921.13 63921.13 0 1 1 -127842.26 0"/>
<path id="N" d="M 13549999.87 5600000.00 m -63921.13 0 a 63921.13 63921.13 0 1 1 127842.26 0a 63921.13 63921.13 0 1 1 -127842.26 0"/>
<path id="N" d="M 12299999.87 5600000.00 m -63921.13 0 a 63921.13 63921.13 0 1 1 127842.26 0a 63921.13 63921.13 0 1 1 -127842.26 0"/>
<path id="N" d="M 6949999.87 5050000.00 m -63921.13 0 a 63921.13 63921.13 0 1 1 127842.26 0a 63921.13 63921.13 0 1 1 -127842.26 0"/>
<path id="N" d="M 11806199.87 5149440.00 m -63921.13 0 a 63921.13 63921.13 0 1 1 127842.26 0a 63921.13 63921.13 0 1 1 -127842.26 0"/>
<path id="N" d="M 11556199.87 5149440.00 m -63921.13 0 a 63921.13 63921.13 0 1 1 127842.26 0a 63921.13 63921.13 0 1 1 -127842.26 0"/>
<path id="N" d="M 6349999.87 5050000.00 m -63921.13 0 a 63921.13 63921.13 0 1 1 127842.26 0a 63921.13 63921.13 0 1 1 -127842.26 0"/>
<path id="N" d="M 12806199.87 5599440.00 m -63921.13 0 a 63921.13 63921.13 0 1 1 127842.26 0a 63921.13 63921.13 0 1 1 -127842.26 0"/>
<path id="N" d="M 11656199.87 5349440.00 m -63921.13 0 a 63921.13 63921.13 0 1 1 127842.26 0a 63921.13 63921.13 0 1 1 -127842.26 0"/>
<path id="N" d="M 6649999.87 5050000.00 m -63921.13 0 a 63921.13 63921.13 0 1 1 127842.26 0a 63921.13 63921.13 0 1 1 -127842.26 0"/>
<path id="N" d="M 9145199.00 16254801.00 L 9121307.00 16244904.63 L 9121307.00 15300000.00 L 9115066.00 15284934.00 L 7221307.00 13391175.00 L 7221307.00 12945785.12 L 8212584.88 11954527.00 L 8830620.00 11954527.00 L 8845686.00 11948286.00 L 9826968.65 10967003.35 L 9841400.00 10972981.00 A 63920.91 63920.91 0 1 0 9777479.00 10909060.00 L 9791294.46 10942413.54 L 8821795.00 11911913.00 L 8203760.00 11911913.00 L 8188694.00 11918153.00 L 7184934.00 12921894.00 L 7178693.00 12936960.00 L 7178693.00 13400000.00 L 7184934.00 13415066.00 L 9078693.00 15308825.00 L 9078693.00 16244904.63 L 9054801.00 16254801.00 A 63921.13 63921.13 0 1 0 9145199.00 16254801.00  z"/>
<path id="N" d="M 7924881.00 20478021.00 L 7923719.96 20480824.00 L 7605978.06 20480824.00 L 7595199.00 20454801.00 A 63921.13 63921.13 0 1 0 7595199.00 20545199.00 L 7605978.06 20519176.00 L 7907834.08 20519176.00 L 7906159.00 20523220.00 A 63920.91 63920.91 0 1 0 7924881.00 20478021.00  z"/>
<path id="N" d="M 4639299.00 18712119.00 L 4649099.47 18688458.53 L 4888269.00 18449289.00 L 4904120.00 18411020.00 L 4904120.00 14350000.00 L 4888267.29 14311730.29 L 4504120.00 13927582.04 L 4504120.00 8823661.76 L 4513921.00 8800000.00 A 63920.91 63920.91 0 1 0 4386079.00 8800000.00 L 4395880.00 8823661.76 L 4395879.00 13950000.00 L 4411731.00 13988269.00 L 4795880.00 14372417.04 L 4795880.00 18388602.00 L 4572561.47 18611920.53 L 4548901.00 18621721.00 A 63921.13 63921.13 0 1 0 4639299.00 18712119.00  z"/>
<path id="N" d="M 8104801.00 20654801.00 L 8094021.94 20680824.00 L 7807938.06 20680824.00 L 7797159.00 20654801.00 A 63921.13 63921.13 0 1 0 7797159.00 20745199.00 L 7807938.06 20719176.00 L 8094021.94 20719176.00 L 8104801.00 20745199.00 A 63921.13 63921.13 0 1 0 8104801.00 20654801.00  z"/>
<path id="N" d="M 7413921.00 18450000.00 L 7404024.46 18426107.58 L 8476541.00 17353592.00 L 8482781.00 17338526.00 L 8482781.00 17297351.00 L 9566705.00 16213427.00 L 10341640.63 16213427.00 L 10354801.00 16245199.00 L 10400000.00 16263921.00 L 10445199.00 16245199.00 L 10458359.37 16213427.00 L 11083295.00 16213427.00 L 12889284.00 18019416.00 L 12900355.82 18028698.85 L 12898717.00 18030680.00 L 12911067.00 18038933.00 L 12919982.00 18052274.00 L 12922654.00 18050097.00 L 12936400.00 18065066.00 L 12951466.00 18071307.00 L 13435849.63 18071307.00 L 13445746.00 18095199.00 A 63921.13 63921.13 0 1 0 13445746.00 18004801.00 L 13435849.63 18028693.00 L 12960291.00 18028693.00 L 12952961.71 18021768.05 L 12943056.00 18006944.00 L 12928092.25 17996945.91 L 12918702.05 17988570.05 L 11107186.00 16177054.00 L 11092120.00 16170813.00 L 10451831.37 16170813.00 L 10445199.00 16154801.00 L 10400000.00 16136079.00 L 10354801.00 16154801.00 L 10348168.63 16170813.00 L 9557880.00 16170813.00 L 9542814.00 16177054.00 L 8446408.00 17273460.00 L 8440167.00 17288526.00 L 8440167.00 17329700.01 L 7373892.42 18395975.54 L 7350000.00 18386079.00 A 63920.91 63920.91 0 1 0 7413921.00 18450000.00  z"/>
<path id="N" d="M 6499999.87 13828740.00 m -63921.13 0 a 63921.13 63921.13 0 1 1 127842.26 0a 63921.13 63921.13 0 1 1 -127842.26 0"/>
<path id="N" d="M 10349999.87 14600000.00 m -63921.13 0 a 63921.13 63921.13 0 1 1 127842.26 0a 63921.13 63921.13 0 1 1 -127842.26 0"/>
<path id="N" d="M 12463261.00 14588861.00 L 12453364.63 14612753.00 L 12374925.06 14612753.00 L 10447724.33 12685532.72 L 10457621.00 12661640.00 A 63920.91 63920.91 0 1 0 10393700.00 12725561.00 L 10417592.17 12715664.56 L 12351034.00 14649126.00 L 12366100.00 14655367.00 L 12453364.63 14655367.00 L 12463261.00 14679259.00 A 63921.13 63921.13 0 1 0 12463261.00 14588861.00  z"/>
<path id="N" d="M 8502359.87 17563940.00 m -63921.13 0 a 63921.13 63921.13 0 1 1 127842.26 0a 63921.13 63921.13 0 1 1 -127842.26 0"/>
<path id="N" d="M 7449999.87 17428820.00 m -63921.13 0 a 63921.13 63921.13 0 1 1 127842.26 0a 63921.13 63921.13 0 1 1 -127842.26 0"/>
<path id="N" d="M 8399999.87 15900000.00 m -63921.13 0 a 63921.13 63921.13 0 1 1 127842.26 0a 63921.13 63921.13 0 1 1 -127842.26 0"/>
<path id="N" d="M 6492499.00 17295279.00 L 6502395.37 17271387.00 L 7839200.00 17271387.00 L 7854267.00 17265146.00 L 8363989.27 16755405.15 L 8387880.00 16765301.00 A 63920.91 63920.91 0 1 0 8323959.00 16701380.00 L 8333855.95 16725273.40 L 7830373.78 17228773.00 L 6502395.37 17228773.00 L 6492499.00 17204881.00 A 63921.13 63921.13 0 1 0 6492499.00 17295279.00  z"/>
<path id="N" d="M 10149999.87 17200000.00 m -63921.13 0 a 63921.13 63921.13 0 1 1 127842.26 0a 63921.13 63921.13 0 1 1 -127842.26 0"/>
<path id="N" d="M 10292119.87 13071140.00 m -63921.13 0 a 63921.13 63921.13 0 1 1 127842.26 0a 63921.13 63921.13 0 1 1 -127842.26 0"/>
<path id="N" d="M 8892239.00 12946541.00 L 8868347.00 12936644.63 L 8868347.00 12650785.03 L 9047467.00 12471666.00 L 9053707.00 12456600.00 L 9053707.00 12250905.00 L 10281146.00 11023466.00 L 10287387.00 11008400.00 L 10287387.00 10987858.43 L 10320219.00 10974259.00 A 63921.13 63921.13 0 1 0 10229821.00 10974259.00 L 10244773.00 10980452.31 L 10244773.00 10999575.00 L 9017334.00 12227014.00 L 9011093.00 12242080.00 L 9011093.00 12447774.03 L 8831974.00 12626894.00 L 8825733.00 12641960.00 L 8825733.00 12936644.63 L 8801841.00 12946541.00 A 63921.13 63921.13 0 1 0 8892239.00 12946541.00  z"/>
<path id="N" d="M 13495199.00 17254801.00 L 13471307.00 17244904.63 L 13471307.00 16950000.00 L 13465067.00 16934934.00 L 13136326.00 16606194.00 L 13121260.00 16599953.00 L 12063325.86 16599953.00 L 11184884.70 15721531.82 L 11194781.00 15697640.00 A 63920.91 63920.91 0 1 0 11130860.00 15761561.00 L 11154753.04 15751664.20 L 12039434.00 16636326.00 L 12054500.00 16642567.00 L 13112434.98 16642567.00 L 13428693.00 16958825.98 L 13428693.00 17244904.63 L 13404801.00 17254801.00 A 63921.13 63921.13 0 1 0 13495199.00 17254801.00  z"/>
<path id="N" d="M 12550000.00 16086079.00 L 12526107.55 16095975.55 L 11515066.00 15084934.00 L 11500000.00 15078693.00 L 9558826.00 15078693.00 L 7519919.00 13039787.00 L 7519919.00 13003707.37 L 7543811.00 12993811.00 A 63921.13 63921.13 0 1 0 7453413.00 12993811.00 L 7477305.00 13003707.37 L 7477305.00 13048612.00 L 7483546.00 13063678.00 L 9534934.00 15115067.00 L 9550000.00 15121307.00 L 11491175.00 15121307.00 L 12495975.55 16126107.55 L 12486079.00 16150000.00 A 63920.91 63920.91 0 1 0 12550000.00 16086079.00  z"/>
<path id="N" d="M 6136423.87 11850000.00 m -63921.13 0 a 63921.13 63921.13 0 1 1 127842.26 0a 63921.13 63921.13 0 1 1 -127842.26 0"/>
<path id="N" d="M 8914179.87 13810740.00 m -63921.13 0 a 63921.13 63921.13 0 1 1 127842.26 0a 63921.13 63921.13 0 1 1 -127842.26 0"/>
<path id="N" d="M 13890474.00 20345199.00 L 13900370.37 20321307.00 L 14450000.00 20321307.00 L 14465066.00 20315066.00 L 14915066.00 19865066.00 L 14921307.00 19850000.00 L 14921307.00 18205095.37 L 14945199.00 18195199.00 A 63921.13 63921.13 0 1 0 14854801.00 18195199.00 L 14878693.00 18205095.37 L 14878693.00 19841175.00 L 14441175.00 20278693.00 L 13900370.37 20278693.00 L 13890474.00 20254801.00 A 63921.13 63921.13 0 1 0 13890474.00 20345199.00  z"/>
<path id="N" d="M 6732099.87 16344540.00 m -63921.13 0 a 63921.13 63921.13 0 1 1 127842.26 0a 63921.13 63921.13 0 1 1 -127842.26 0"/>
<path id="N" d="M 10049999.87 13900000.00 m -63921.13 0 a 63921.13 63921.13 0 1 1 127842.26 0a 63921.13 63921.13 0 1 1 -127842.26 0"/>
<path id="N" d="M 6005659.87 14138300.00 m -63921.13 0 a 63921.13 63921.13 0 1 1 127842.26 0a 63921.13 63921.13 0 1 1 -127842.26 0"/>
<path id="N" d="M 9999999.87 15300000.00 m -63921.13 0 a 63921.13 63921.13 0 1 1 127842.26 0a 63921.13 63921.13 0 1 1 -127842.26 0"/>
<path id="N" d="M 6899999.87 16650000.00 m -63921.13 0 a 63921.13 63921.13 0 1 1 127842.26 0a 63921.13 63921.13 0 1 1 -127842.26 0"/>
<path id="N" d="M 11572819.87 13450000.00 m -63921.13 0 a 63921.13 63921.13 0 1 1 127842.26 0a 63921.13 63921.13 0 1 1 -127842.26 0"/>
<path id="N" d="M 6999999.87 14450000.00 m -63921.13 0 a 63921.13 63921.13 0 1 1 127842.26 0a 63921.13 63921.13 0 1 1 -127842.26 0"/>
<path id="N" d="M 8976379.87 11449045.00 m -63921.13 0 a 63921.13 63921.13 0 1 1 127842.26 0a 63921.13 63921.13 0 1 1 -127842.26 0"/>
<path id="N" d="M 8423219.87 19550000.00 m -63921.13 0 a 63921.13 63921.13 0 1 1 127842.26 0a 63921.13 63921.13 0 1 1 -127842.26 0"/>
<path id="N" d="M 7099999.87 19573220.00 m -63921.13 0 a 63921.13 63921.13 0 1 1 127842.26 0a 63921.13 63921.13 0 1 1 -127842.26 0"/>
<path id="N" d="M 10693939.87 12158660.00 m -63921.13 0 a 63921.13 63921.13 0 1 1 127842.26 0a 63921.13 63921.13 0 1 1 -127842.26 0"/>
<path id="N" d="M 4899999.87 11900000.00 m -63921.13 0 a 63921.13 63921.13 0 1 1 127842.26 0a 63921.13 63921.13 0 1 1 -127842.26 0"/>
<path id="N" d="M 13049999.87 17223220.00 m -63921.13 0 a 63921.13 63921.13 0 1 1 127842.26 0a 63921.13 63921.13 0 1 1 -127842.26 0"/>
<path id="N" d="M 4499999.87 15200000.00 m -63921.13 0 a 63921.13 63921.13 0 1 1 127842.26 0a 63921.13 63921.13 0 1 1 -127842.26 0"/>
<path id="N" d="M 4615739.87 15842520.00 m -63921.13 0 a 63921.13 63921.13 0 1 1 127842.26 0a 63921.13 63921.13 0 1 1 -127842.26 0"/>
<path id="N" d="M 5249999.87 11900000.00 m -63921.13 0 a 63921.13 63921.13 0 1 1 127842.26 0a 63921.13 63921.13 0 1 1 -127842.26 0"/>
<path id="N" d="M 14749999.87 16894860.00 m -63921.13 0 a 63921.13 63921.13 0 1 1 127842.26 0a 63921.13 63921.13 0 1 1 -127842.26 0"/>
<path id="N" d="M 12649999.87 17223220.00 m -63921.13 0 a 63921.13 63921.13 0 1 1 127842.26 0a 63921.13 63921.13 0 1 1 -127842.26 0"/>
<path id="N" d="M 4549999.87 19100000.00 m -63921.13 0 a 63921.13 63921.13 0 1 1 127842.26 0a 63921.13 63921.13 0 1 1 -127842.26 0"/>
<path id="N" d="M 13849999.87 8350000.00 m -63921.13 0 a 63921.13 63921.13 0 1 1 127842.26 0a 63921.13 63921.13 0 1 1 -127842.26 0"/>
<path id="N" d="M 13449999.87 8350000.00 m -63921.13 0 a 63921.13 63921.13 0 1 1 127842.26 0a 63921.13 63921.13 0 1 1 -127842.26 0"/>
<path id="N" d="M 13649999.87 8350000.00 m -63921.13 0 a 63921.13 63921.13 0 1 1 127842.26 0a 63921.13 63921.13 0 1 1 -127842.26 0"/>
<path id="N" d="M 13951359.87 8605840.00 m -63921.13 0 a 63921.13 63921.13 0 1 1 127842.26 0a 63921.13 63921.13 0 1 1 -127842.26 0"/>
<path id="N" d="M 14049999.87 8350000.00 m -63921.13 0 a 63921.13 63921.13 0 1 1 127842.26 0a 63921.13 63921.13 0 1 1 -127842.26 0"/>
<path id="N" d="M 14899999.87 8450000.00 m -63921.13 0 a 63921.13 63921.13 0 1 1 127842.26 0a 63921.13 63921.13 0 1 1 -127842.26 0"/>
<path id="N" d="M 13249999.87 8350000.00 m -63921.13 0 a 63921.13 63921.13 0 1 1 127842.26 0a 63921.13 63921.13 0 1 1 -127842.26 0"/>
<path id="N" d="M 14899999.87 8700000.00 m -63921.13 0 a 63921.13 63921.13 0 1 1 127842.26 0a 63921.13 63921.13 0 1 1 -127842.26 0"/>
<path id="N" d="M 5149999.87 11300000.00 m -63921.13 0 a 63921.13 63921.13 0 1 1 127842.26 0a 63921.13 63921.13 0 1 1 -127842.26 0"/>
<path id="N" d="M 13149999.87 17576780.00 m -63921.13 0 a 63921.13 63921.13 0 1 1 127842.26 0a 63921.13 63921.13 0 1 1 -127842.26 0"/>
<path id="N" d="M 14249999.87 18450000.00 m -63921.13 0 a 63921.13 63921.13 0 1 1 127842.26 0a 63921.13 63921.13 0 1 1 -127842.26 0"/>
<path id="N" d="M 13501359.87 8005840.00 m -63921.13 0 a 63921.13 63921.13 0 1 1 127842.26 0a 63921.13 63921.13 0 1 1 -127842.26 0"/>
<path id="N" d="M 13701359.87 8005840.00 m -63921.13 0 a 63921.13 63921.13 0 1 1 127842.26 0a 63921.13 63921.13 0 1 1 -127842.26 0"/>
<path id="N" d="M 13901359.87 8005840.00 m -63921.13 0 a 63921.13 63921.13 0 1 1 127842.26 0a 63921.13 63921.13 0 1 1 -127842.26 0"/>
<path id="N" d="M 6449999.87 18700000.00 m -63921.13 0 a 63921.13 63921.13 0 1 1 127842.26 0a 63921.13 63921.13 0 1 1 -127842.26 0"/>
<path id="N" d="M 5906101.87 19617354.00 m -63921.13 0 a 63921.13 63921.13 0 1 1 127842.26 0a 63921.13 63921.13 0 1 1 -127842.26 0"/>
<path id="N" d="M 7077159.87 20000000.00 m -63921.13 0 a 63921.13 63921.13 0 1 1 127842.26 0a 63921.13 63921.13 0 1 1 -127842.26 0"/>
<path id="N" d="M 5049999.87 20500000.00 m -63921.13 0 a 63921.13 63921.13 0 1 1 127842.26 0a 63921.13 63921.13 0 1 1 -127842.26 0"/>
<path id="N" d="M 5999999.87 17250000.00 m -63921.13 0 a 63921.13 63921.13 0 1 1 127842.26 0a 63921.13 63921.13 0 1 1 -127842.26 0"/>
<path id="N" d="M 10849999.87 17450000.00 m -63921.13 0 a 63921.13 63921.13 0 1 1 127842.26 0a 63921.13 63921.13 0 1 1 -127842.26 0"/>
<path id="N" d="M 12799999.87 17576780.00 m -63921.13 0 a 63921.13 63921.13 0 1 1 127842.26 0a 63921.13 63921.13 0 1 1 -127842.26 0"/>
<path id="N" d="M 13751359.87 8605840.00 m -63921.13 0 a 63921.13 63921.13 0 1 1 127842.26 0a 63921.13 63921.13 0 1 1 -127842.26 0"/>
<path id="N" d="M 4449999.87 7800000.00 m -63921.13 0 a 63921.13 63921.13 0 1 1 127842.26 0a 63921.13 63921.13 0 1 1 -127842.26 0"/>
<path id="N" d="M 14899999.87 7950000.00 m -63921.13 0 a 63921.13 63921.13 0 1 1 127842.26 0a 63921.13 63921.13 0 1 1 -127842.26 0"/>
<path id="N" d="M 5299999.87 8800000.00 m -63921.13 0 a 63921.13 63921.13 0 1 1 127842.26 0a 63921.13 63921.13 0 1 1 -127842.26 0"/>
<path id="N" d="M 13351359.87 8605840.00 m -63921.13 0 a 63921.13 63921.13 0 1 1 127842.26 0a 63921.13 63921.13 0 1 1 -127842.26 0"/>
<path id="N" d="M 13551359.87 8605840.00 m -63921.13 0 a 63921.13 63921.13 0 1 1 127842.26 0a 63921.13 63921.13 0 1 1 -127842.26 0"/>
<path id="N" d="M 13301359.87 8005840.00 m -63921.13 0 a 63921.13 63921.13 0 1 1 127842.26 0a 63921.13 63921.13 0 1 1 -127842.26 0"/>
<path id="N" d="M 14899999.87 8150000.00 m -63921.13 0 a 63921.13 63921.13 0 1 1 127842.26 0a 63921.13 63921.13 0 1 1 -127842.26 0"/>
<path id="N" d="M 12849999.87 8350000.00 m -63921.13 0 a 63921.13 63921.13 0 1 1 127842.26 0a 63921.13 63921.13 0 1 1 -127842.26 0"/>
<path id="N" d="M 13049999.87 8350000.00 m -63921.13 0 a 63921.13 63921.13 0 1 1 127842.26 0a 63921.13 63921.13 0 1 1 -127842.26 0"/>
<path id="N" d="M 12649999.87 7091338.00 m -63921.13 0 a 63921.13 63921.13 0 1 1 127842.26 0a 63921.13 63921.13 0 1 1 -127842.26 0"/>
<path id="N" d="M 12899999.87 7091338.00 m -63921.13 0 a 63921.13 63921.13 0 1 1 127842.26 0a 63921.13 63921.13 0 1 1 -127842.26 0"/>
<path id="N" d="M 13199999.87 7091338.00 m -63921.13 0 a 63921.13 63921.13 0 1 1 127842.26 0a 63921.13 63921.13 0 1 1 -127842.26 0"/>
<path id="N" d="M 9849999.87 4650000.00 m -63921.13 0 a 63921.13 63921.13 0 1 1 127842.26 0a 63921.13 63921.13 0 1 1 -127842.26 0"/>
<path id="N" d="M 9949999.87 4800000.00 m -63921.13 0 a 63921.13 63921.13 0 1 1 127842.26 0a 63921.13 63921.13 0 1 1 -127842.26 0"/>
<path id="N" d="M 9749999.87 4800000.00 m -63921.13 0 a 63921.13 63921.13 0 1 1 127842.26 0a 63921.13 63921.13 0 1 1 -127842.26 0"/>
<path id="N" d="M 10249999.87 4650000.00 m -63921.13 0 a 63921.13 63921.13 0 1 1 127842.26 0a 63921.13 63921.13 0 1 1 -127842.26 0"/>
<path id="N" d="M 10049999.87 4650000.00 m -63921.13 0 a 63921.13 63921.13 0 1 1 127842.26 0a 63921.13 63921.13 0 1 1 -127842.26 0"/>
<path id="N" d="M 9549999.87 4800000.00 m -63921.13 0 a 63921.13 63921.13 0 1 1 127842.26 0a 63921.13 63921.13 0 1 1 -127842.26 0"/>
<path id="N" d="M 9649999.87 4650000.00 m -63921.13 0 a 63921.13 63921.13 0 1 1 127842.26 0a 63921.13 63921.13 0 1 1 -127842.26 0"/>
<path id="N" d="M 9449999.87 4650000.00 m -63921.13 0 a 63921.13 63921.13 0 1 1 127842.26 0a 63921.13 63921.13 0 1 1 -127842.26 0"/>
<path id="N" d="M 10149999.87 4500000.00 m -63921.13 0 a 63921.13 63921.13 0 1 1 127842.26 0a 63921.13 63921.13 0 1 1 -127842.26 0"/>
<path id="N" d="M 9949999.87 4500000.00 m -63921.13 0 a 63921.13 63921.13 0 1 1 127842.26 0a 63921.13 63921.13 0 1 1 -127842.26 0"/>
<path id="N" d="M 9749999.87 4500000.00 m -63921.13 0 a 63921.13 63921.13 0 1 1 127842.26 0a 63921.13 63921.13 0 1 1 -127842.26 0"/>
<path id="N" d="M 9549999.87 4500000.00 m -63921.13 0 a 63921.13 63921.13 0 1 1 127842.26 0a 63921.13 63921.13 0 1 1 -127842.26 0"/>
<path id="N" d="M 10149999.87 4800000.00 m -63921.13 0 a 63921.13 63921.13 0 1 1 127842.26 0a 63921.13 63921.13 0 1 1 -127842.26 0"/>
<path id="N" d="M 11349999.87 21100000.00 m -63921.13 0 a 63921.13 63921.13 0 1 1 127842.26 0a 63921.13 63921.13 0 1 1 -127842.26 0"/>
<path id="N" d="M 10866139.87 12661640.00 m -63921.13 0 a 63921.13 63921.13 0 1 1 127842.26 0a 63921.13 63921.13 0 1 1 -127842.26 0"/>
<path id="N" d="M 8826799.87 10856900.00 m -63921.13 0 a 63921.13 63921.13 0 1 1 127842.26 0a 63921.13 63921.13 0 1 1 -127842.26 0"/>
<path id="N" d="M 14299999.87 9500000.00 m -63921.13 0 a 63921.13 63921.13 0 1 1 127842.26 0a 63921.13 63921.13 0 1 1 -127842.26 0"/>
<path id="N" d="M 15049999.87 9400000.00 m -63921.13 0 a 63921.13 63921.13 0 1 1 127842.26 0a 63921.13 63921.13 0 1 1 -127842.26 0"/>
<path id="N" d="M 14849999.87 9400000.00 m -63921.13 0 a 63921.13 63921.13 0 1 1 127842.26 0a 63921.13 63921.13 0 1 1 -127842.26 0"/>
<path id="N" d="M 14949999.87 9250000.00 m -63921.13 0 a 63921.13 63921.13 0 1 1 127842.26 0a 63921.13 63921.13 0 1 1 -127842.26 0"/>
<path id="N" d="M 14424999.87 9375000.00 m -63921.13 0 a 63921.13 63921.13 0 1 1 127842.26 0a 63921.13 63921.13 0 1 1 -127842.26 0"/>
<path id="N" d="M 15149999.87 9250000.00 m -63921.13 0 a 63921.13 63921.13 0 1 1 127842.26 0a 63921.13 63921.13 0 1 1 -127842.26 0"/>
<path id="N" d="M 14749999.87 9250000.00 m -63921.13 0 a 63921.13 63921.13 0 1 1 127842.26 0a 63921.13 63921.13 0 1 1 -127842.26 0"/>
<path id="N" d="M 14549999.87 9250000.00 m -63921.13 0 a 63921.13 63921.13 0 1 1 127842.26 0a 63921.13 63921.13 0 1 1 -127842.26 0"/>
<path id="N" d="M 14649999.87 9400000.00 m -63921.13 0 a 63921.13 63921.13 0 1 1 127842.26 0a 63921.13 63921.13 0 1 1 -127842.26 0"/>
<path id="N" d="M 12425301.00 14803641.00 L 12415404.63 14827533.00 L 12331406.00 14827533.00 L 10165526.00 12661654.00 L 10150460.00 12655413.00 L 10140081.70 12655413.00 L 10123939.00 12616441.00 A 63921.13 63921.13 0 1 0 10123939.00 12706839.00 L 10127589.04 12698027.00 L 10141635.00 12698027.00 L 12307514.00 14863907.00 L 12322580.00 14870147.00 L 12415404.63 14870147.00 L 12425301.00 14894039.00 A 63921.13 63921.13 0 1 0 12425301.00 14803641.00  z"/>
<path id="N" d="M 8399999.87 15600000.00 m -63921.13 0 a 63921.13 63921.13 0 1 1 127842.26 0a 63921.13 63921.13 0 1 1 -127842.26 0"/>
<path id="N" d="M 12383661.00 15556381.00 L 12374419.09 15578693.00 L 12308825.00 15578693.00 L 9627607.00 12897475.00 L 9627607.00 12716735.37 L 9651499.00 12706839.00 A 63921.13 63921.13 0 1 0 9561101.00 12706839.00 L 9584993.00 12716735.37 L 9584993.00 12906300.00 L 9591234.00 12921366.00 L 12284934.00 15615066.00 L 12300000.00 15621307.00 L 12373110.17 15621307.00 L 12383661.00 15646779.00 A 63921.13 63921.13 0 1 0 12383661.00 15556381.00  z"/>
<path id="N" d="M 8341296.00 16354801.00 L 8333951.18 16372533.00 L 7802665.00 16372533.00 L 7571307.00 16141175.00 L 7571307.00 14200000.00 L 7565066.00 14184933.00 L 7021307.00 13641174.99 L 7021307.00 12458825.00 L 8258825.00 11221307.00 L 9090960.00 11221307.00 L 9106026.00 11215066.00 L 9358008.17 10963084.70 L 9381900.00 10972981.00 A 63920.91 63920.91 0 1 0 9317979.00 10909060.00 L 9327875.30 10932951.83 L 9082134.98 11178693.00 L 8250000.00 11178693.00 L 8234934.00 11184934.00 L 6984934.00 12434934.00 L 6978693.00 12450000.00 L 6978693.00 13650000.00 L 6984934.00 13665066.00 L 7528693.00 14208825.99 L 7528693.00 16150000.00 L 7534934.00 16165066.00 L 7778774.00 16408906.00 L 7793840.00 16415147.00 L 8328848.08 16415147.00 L 8341296.00 16445199.00 A 63921.13 63921.13 0 1 0 8341296.00 16354801.00  z"/>
<path id="N" d="M 12645199.00 15804801.00 L 12628907.00 15798052.65 L 12628907.00 15313385.50 L 12871327.00 15070946.00 L 12877567.00 15055880.00 L 12877567.00 13956260.00 L 12871326.00 13941194.00 L 12404024.45 13473892.45 L 12413921.00 13450000.00 A 63920.91 63920.91 0 1 0 12350000.00 13513921.00 L 12373892.45 13504024.45 L 12834953.00 13965085.00 L 12834953.00 15047055.48 L 12592533.00 15289494.00 L 12586293.00 15304560.00 L 12586293.00 15791756.61 L 12554801.00 15804801.00 A 63921.13 63921.13 0 1 0 12645199.00 15804801.00  z"/>
<path id="N" d="M 7910739.87 16585820.00 m -63921.13 0 a 63921.13 63921.13 0 1 1 127842.26 0a 63921.13 63921.13 0 1 1 -127842.26 0"/>
<path id="N" d="M 14872839.87 17250000.00 m -63921.13 0 a 63921.13 63921.13 0 1 1 127842.26 0a 63921.13 63921.13 0 1 1 -127842.26 0"/>
<path id="N" d="M 11399999.87 9900000.00 m -63921.13 0 a 63921.13 63921.13 0 1 1 127842.26 0a 63921.13 63921.13 0 1 1 -127842.26 0"/>
<path id="N" d="M 13449999.87 10750000.00 m -63921.13 0 a 63921.13 63921.13 0 1 1 127842.26 0a 63921.13 63921.13 0 1 1 -127842.26 0"/>
<path id="N" d="M 9132773.87 10867226.00 m -63921.13 0 a 63921.13 63921.13 0 1 1 127842.26 0a 63921.13 63921.13 0 1 1 -127842.26 0"/>
<path id="N" d="M 10478139.87 12127000.00 m -63921.13 0 a 63921.13 63921.13 0 1 1 127842.26 0a 63921.13 63921.13 0 1 1 -127842.26 0"/>
<path id="N" d="M 13949999.87 10750000.00 m -63921.13 0 a 63921.13 63921.13 0 1 1 127842.26 0a 63921.13 63921.13 0 1 1 -127842.26 0"/>
<path id="N" d="M 14849999.87 17650000.00 m -63921.13 0 a 63921.13 63921.13 0 1 1 127842.26 0a 63921.13 63921.13 0 1 1 -127842.26 0"/>
<path id="N" d="M 14149999.87 17948420.00 m -63921.13 0 a 63921.13 63921.13 0 1 1 127842.26 0a 63921.13 63921.13 0 1 1 -127842.26 0"/>
<path id="N" d="M 14251799.87 18793180.00 m -63921.13 0 a 63921.13 63921.13 0 1 1 127842.26 0a 63921.13 63921.13 0 1 1 -127842.26 0"/>
<path id="N" d="M 13299999.87 20000000.00 m -63921.13 0 a 63921.13 63921.13 0 1 1 127842.26 0a 63921.13 63921.13 0 1 1 -127842.26 0"/>
<path id="N" d="M 14099999.87 20650000.00 m -63921.13 0 a 63921.13 63921.13 0 1 1 127842.26 0a 63921.13 63921.13 0 1 1 -127842.26 0"/>
<path id="N" d="M 14649999.87 20650000.00 m -63921.13 0 a 63921.13 63921.13 0 1 1 127842.26 0a 63921.13 63921.13 0 1 1 -127842.26 0"/>
</g>
</svg>
