<svg width="29.99999842mm" height="49.99999906mm" viewBox="0 0 11811023 19685039"  version="1.1" xmlns="http://www.w3.org/2000/svg" xmlns:xlink="http://www.w3.org/1999/xlink">
<desc>
Origin 0 0 Bound 3937008 3937008 11811023 19685039
</desc>
<g fill-rule="evenodd" fill="rgb(112, 219, 250)" stroke="black" stroke-width="1" transform="translate(0, 19685039) scale(1, -1) translate(-3937008, -3937008)">
<path id="N" d="M 7961611.87 15358126.00 m -63921.13 0 a 63921.13 63921.13 0 1 1 127842.26 0a 63921.13 63921.13 0 1 1 -127842.26 0"/>
<path id="N" d="M 5599999.87 7800000.00 m -63921.13 0 a 63921.13 63921.13 0 1 1 127842.26 0a 63921.13 63921.13 0 1 1 -127842.26 0"/>
<path id="N" d="M 7245199.00 19304801.00 L 7221307.00 19294904.63 L 7221307.00 19073171.00 L 9871596.00 16422882.00 L 10993329.63 16422882.00 L 11003226.00 16446774.00 A 63921.13 63921.13 0 1 0 11003226.00 16356376.00 L 10993329.63 16380268.00 L 9862771.00 16380268.00 L 9847705.00 16386509.00 L 7841175.00 18393039.00 L 6570394.00 18393039.00 L 6252486.45 18075131.45 L 6262383.00 18051239.00 A 63920.91 63920.91 0 1 0 6198462.00 18115160.00 L 6222354.45 18105263.45 L 6546503.00 18429412.00 L 6561569.00 18435653.00 L 7798561.00 18435653.00 L 7184934.00 19049280.00 L 7178693.00 19064346.00 L 7178693.00 19294904.63 L 7154801.00 19304801.00 A 63921.13 63921.13 0 1 0 7245199.00 19304801.00  z"/>
<path id="N" d="M 7949999.87 16200000.00 m -63921.13 0 a 63921.13 63921.13 0 1 1 127842.26 0a 63921.13 63921.13 0 1 1 -127842.26 0"/>
<path id="N" d="M 7149999.87 16000000.00 m -63921.13 0 a 63921.13 63921.13 0 1 1 127842.26 0a 63921.13 63921.13 0 1 1 -127842.26 0"/>
<path id="N" d="M 8595199.00 20654801.00 L 8571307.00 20644904.63 L 8571307.00 18665694.00 L 9944434.00 17292567.00 L 10431516.00 17292567.00 L 10446582.00 17286326.00 L 11242232.00 16490677.00 L 11248472.00 16475611.00 L 11248472.00 15877165.00 L 11242231.00 15862099.00 L 11054024.45 15673892.45 L 11063921.00 15650000.00 A 63920.91 63920.91 0 1 0 11000000.00 15713921.00 L 11023892.45 15704024.45 L 11205858.00 15885990.00 L 11205858.00 16466785.01 L 10422690.99 17249953.00 L 9935609.00 17249953.00 L 9920543.00 17256194.00 L 8534934.00 18641803.00 L 8528693.00 18656869.00 L 8528693.00 20644904.63 L 8504801.00 20654801.00 A 63921.13 63921.13 0 1 0 8595199.00 20654801.00  z"/>
<path id="N" d="M 13714487.00 21311810.00 L 13714487.00 20996850.00 A 200706.53 200706.53 0 0 0 13313073.00 20996850.00 L 13313073.00 21311810.00 A 200706.53 200706.53 0 1 0 13714487.00 21311810.00  zM 13393356.00 21311810.00 L 13393356.00 20996850.00 A 120431.73 120431.73 0 0 1 13634204.00 20996850.00 L 13634204.00 21311810.00 A 120431.73 120431.73 0 0 1 13393356.00 21311810.00  z"/>
<path id="N" d="M 10317843.00 21265031.00 L 10317843.00 20950071.00 A 200706.53 200706.53 0 0 0 9916429.00 20950071.00 L 9916429.00 21265031.00 A 200706.53 200706.53 0 0 0 10317843.00 21265031.00  zM 9996712.00 21265031.00 L 9996712.00 20950071.00 A 120431.73 120431.73 0 1 1 10237560.00 20950071.00 L 10237560.00 21265031.00 A 120431.73 120431.73 0 0 1 9996712.00 21265031.00  z"/>
<path id="N" d="M 10314487.00 23036221.00 L 10314487.00 22563779.00 A 200706.53 200706.53 0 0 0 9913073.00 22563779.00 L 9913073.00 23036221.00 A 200706.53 200706.53 0 1 0 10314487.00 23036221.00  zM 9993356.00 23036220.00 L 9993356.00 22563780.00 A 120431.73 120431.73 0 0 1 10234204.00 22563780.00 L 10234204.00 23036220.00 A 120431.73 120431.73 0 0 1 9993356.00 23036220.00  z"/>
<path id="N" d="M 13714487.00 23036221.00 L 13714487.00 22563779.00 A 200706.53 200706.53 0 0 0 13313073.00 22563779.00 L 13313073.00 23036221.00 A 200706.53 200706.53 0 1 0 13714487.00 23036221.00  zM 13393356.00 23036220.00 L 13393356.00 22563780.00 A 120431.73 120431.73 0 0 1 13634204.00 22563780.00 L 13634204.00 23036220.00 A 120431.73 120431.73 0 0 1 13393356.00 23036220.00  z"/>
<path id="N" d="M 8818897.87 19409449.00 m -63921.13 0 a 63921.13 63921.13 0 1 1 127842.26 0a 63921.13 63921.13 0 1 1 -127842.26 0"/>
<path id="N" d="M 9155511.87 19428740.00 m -63921.13 0 a 63921.13 63921.13 0 1 1 127842.26 0a 63921.13 63921.13 0 1 1 -127842.26 0"/>
<path id="N" d="M 10867716.87 19600000.00 m -63921.13 0 a 63921.13 63921.13 0 1 1 127842.26 0a 63921.13 63921.13 0 1 1 -127842.26 0"/>
<path id="N" d="M 9566928.87 19614961.00 m -63921.13 0 a 63921.13 63921.13 0 1 1 127842.26 0a 63921.13 63921.13 0 1 1 -127842.26 0"/>
<path id="N" d="M 4699999.87 19750000.00 m -63921.13 0 a 63921.13 63921.13 0 1 1 127842.26 0a 63921.13 63921.13 0 1 1 -127842.26 0"/>
<path id="N" d="M 11049999.87 19650000.00 m -63921.13 0 a 63921.13 63921.13 0 1 1 127842.26 0a 63921.13 63921.13 0 1 1 -127842.26 0"/>
<path id="N" d="M 12449999.87 18950000.00 m -63921.13 0 a 63921.13 63921.13 0 1 1 127842.26 0a 63921.13 63921.13 0 1 1 -127842.26 0"/>
<path id="N" d="M 10848834.87 18825981.00 m -63921.13 0 a 63921.13 63921.13 0 1 1 127842.26 0a 63921.13 63921.13 0 1 1 -127842.26 0"/>
<path id="N" d="M 12449999.87 19500000.00 m -63921.13 0 a 63921.13 63921.13 0 1 1 127842.26 0a 63921.13 63921.13 0 1 1 -127842.26 0"/>
<path id="N" d="M 8999999.87 19650000.00 m -63921.13 0 a 63921.13 63921.13 0 1 1 127842.26 0a 63921.13 63921.13 0 1 1 -127842.26 0"/>
<path id="N" d="M 7999999.87 18923228.00 m -63921.13 0 a 63921.13 63921.13 0 1 1 127842.26 0a 63921.13 63921.13 0 1 1 -127842.26 0"/>
<path id="N" d="M 8349999.87 18900000.00 m -63921.13 0 a 63921.13 63921.13 0 1 1 127842.26 0a 63921.13 63921.13 0 1 1 -127842.26 0"/>
<path id="N" d="M 9930096.87 18408465.00 m -63921.13 0 a 63921.13 63921.13 0 1 1 127842.26 0a 63921.13 63921.13 0 1 1 -127842.26 0"/>
<path id="N" d="M 12167932.87 18037401.00 m -63921.13 0 a 63921.13 63921.13 0 1 1 127842.26 0a 63921.13 63921.13 0 1 1 -127842.26 0"/>
<path id="N" d="M 14499999.87 13800000.00 m -63921.13 0 a 63921.13 63921.13 0 1 1 127842.26 0a 63921.13 63921.13 0 1 1 -127842.26 0"/>
<path id="N" d="M 10299999.87 17500000.00 m -63921.13 0 a 63921.13 63921.13 0 1 1 127842.26 0a 63921.13 63921.13 0 1 1 -127842.26 0"/>
<path id="N" d="M 4549999.87 18600000.00 m -63921.13 0 a 63921.13 63921.13 0 1 1 127842.26 0a 63921.13 63921.13 0 1 1 -127842.26 0"/>
<path id="N" d="M 9123460.87 18569281.00 m -63921.13 0 a 63921.13 63921.13 0 1 1 127842.26 0a 63921.13 63921.13 0 1 1 -127842.26 0"/>
<path id="N" d="M 10849999.87 17500000.00 m -63921.13 0 a 63921.13 63921.13 0 1 1 127842.26 0a 63921.13 63921.13 0 1 1 -127842.26 0"/>
<path id="N" d="M 4449999.87 8300000.00 m -63921.13 0 a 63921.13 63921.13 0 1 1 127842.26 0a 63921.13 63921.13 0 1 1 -127842.26 0"/>
<path id="N" d="M 6099999.87 6800000.00 m -63921.13 0 a 63921.13 63921.13 0 1 1 127842.26 0a 63921.13 63921.13 0 1 1 -127842.26 0"/>
<path id="N" d="M 5899999.87 6800000.00 m -63921.13 0 a 63921.13 63921.13 0 1 1 127842.26 0a 63921.13 63921.13 0 1 1 -127842.26 0"/>
<path id="N" d="M 6499999.87 6800000.00 m -63921.13 0 a 63921.13 63921.13 0 1 1 127842.26 0a 63921.13 63921.13 0 1 1 -127842.26 0"/>
<path id="N" d="M 6749999.87 6800000.00 m -63921.13 0 a 63921.13 63921.13 0 1 1 127842.26 0a 63921.13 63921.13 0 1 1 -127842.26 0"/>
<path id="N" d="M 9399999.87 7250000.00 m -63921.13 0 a 63921.13 63921.13 0 1 1 127842.26 0a 63921.13 63921.13 0 1 1 -127842.26 0"/>
<path id="N" d="M 5349999.87 9300000.00 m -63921.13 0 a 63921.13 63921.13 0 1 1 127842.26 0a 63921.13 63921.13 0 1 1 -127842.26 0"/>
<path id="N" d="M 12899999.87 9150000.00 m -63921.13 0 a 63921.13 63921.13 0 1 1 127842.26 0a 63921.13 63921.13 0 1 1 -127842.26 0"/>
<path id="N" d="M 10369880.87 18650000.00 m -63921.13 0 a 63921.13 63921.13 0 1 1 127842.26 0a 63921.13 63921.13 0 1 1 -127842.26 0"/>
<path id="N" d="M 6899999.87 17000000.00 m -63921.13 0 a 63921.13 63921.13 0 1 1 127842.26 0a 63921.13 63921.13 0 1 1 -127842.26 0"/>
<path id="N" d="M 12649999.87 16900000.00 m -63921.13 0 a 63921.13 63921.13 0 1 1 127842.26 0a 63921.13 63921.13 0 1 1 -127842.26 0"/>
<path id="N" d="M 10699999.87 17450000.00 m -63921.13 0 a 63921.13 63921.13 0 1 1 127842.26 0a 63921.13 63921.13 0 1 1 -127842.26 0"/>
<path id="N" d="M 10449999.87 17450000.00 m -63921.13 0 a 63921.13 63921.13 0 1 1 127842.26 0a 63921.13 63921.13 0 1 1 -127842.26 0"/>
<path id="N" d="M 5549999.87 14500000.00 m -63921.13 0 a 63921.13 63921.13 0 1 1 127842.26 0a 63921.13 63921.13 0 1 1 -127842.26 0"/>
<path id="N" d="M 10845417.87 18598194.00 m -63921.13 0 a 63921.13 63921.13 0 1 1 127842.26 0a 63921.13 63921.13 0 1 1 -127842.26 0"/>
<path id="N" d="M 9446370.87 18569281.00 m -63921.13 0 a 63921.13 63921.13 0 1 1 127842.26 0a 63921.13 63921.13 0 1 1 -127842.26 0"/>
<path id="N" d="M 4932065.87 16462598.00 m -63921.13 0 a 63921.13 63921.13 0 1 1 127842.26 0a 63921.13 63921.13 0 1 1 -127842.26 0"/>
<path id="N" d="M 13049999.87 16850000.00 m -63921.13 0 a 63921.13 63921.13 0 1 1 127842.26 0a 63921.13 63921.13 0 1 1 -127842.26 0"/>
<path id="N" d="M 10749999.87 14350000.00 m -63921.13 0 a 63921.13 63921.13 0 1 1 127842.26 0a 63921.13 63921.13 0 1 1 -127842.26 0"/>
<path id="N" d="M 6449999.87 14150000.00 m -63921.13 0 a 63921.13 63921.13 0 1 1 127842.26 0a 63921.13 63921.13 0 1 1 -127842.26 0"/>
<path id="N" d="M 6299999.87 6800000.00 m -63921.13 0 a 63921.13 63921.13 0 1 1 127842.26 0a 63921.13 63921.13 0 1 1 -127842.26 0"/>
<path id="N" d="M 8223227.87 21300000.00 m -63921.13 0 a 63921.13 63921.13 0 1 1 127842.26 0a 63921.13 63921.13 0 1 1 -127842.26 0"/>
<path id="N" d="M 4749999.87 21050000.00 m -63921.13 0 a 63921.13 63921.13 0 1 1 127842.26 0a 63921.13 63921.13 0 1 1 -127842.26 0"/>
<path id="N" d="M 5699999.87 20400000.00 m -63921.13 0 a 63921.13 63921.13 0 1 1 127842.26 0a 63921.13 63921.13 0 1 1 -127842.26 0"/>
<path id="N" d="M 5699999.87 20600000.00 m -63921.13 0 a 63921.13 63921.13 0 1 1 127842.26 0a 63921.13 63921.13 0 1 1 -127842.26 0"/>
<path id="N" d="M 5499999.87 20200000.00 m -63921.13 0 a 63921.13 63921.13 0 1 1 127842.26 0a 63921.13 63921.13 0 1 1 -127842.26 0"/>
<path id="N" d="M 7399999.87 20150000.00 m -63921.13 0 a 63921.13 63921.13 0 1 1 127842.26 0a 63921.13 63921.13 0 1 1 -127842.26 0"/>
<path id="N" d="M 5899999.87 20600000.00 m -63921.13 0 a 63921.13 63921.13 0 1 1 127842.26 0a 63921.13 63921.13 0 1 1 -127842.26 0"/>
<path id="N" d="M 5499999.87 20400000.00 m -63921.13 0 a 63921.13 63921.13 0 1 1 127842.26 0a 63921.13 63921.13 0 1 1 -127842.26 0"/>
<path id="N" d="M 10433070.87 18985039.00 m -63921.13 0 a 63921.13 63921.13 0 1 1 127842.26 0a 63921.13 63921.13 0 1 1 -127842.26 0"/>
<path id="N" d="M 12149999.87 19326772.00 m -63921.13 0 a 63921.13 63921.13 0 1 1 127842.26 0a 63921.13 63921.13 0 1 1 -127842.26 0"/>
<path id="N" d="M 8818897.87 19050000.00 m -63921.13 0 a 63921.13 63921.13 0 1 1 127842.26 0a 63921.13 63921.13 0 1 1 -127842.26 0"/>
<path id="N" d="M 12149999.87 19023228.00 m -63921.13 0 a 63921.13 63921.13 0 1 1 127842.26 0a 63921.13 63921.13 0 1 1 -127842.26 0"/>
<path id="N" d="M 5499999.87 20600000.00 m -63921.13 0 a 63921.13 63921.13 0 1 1 127842.26 0a 63921.13 63921.13 0 1 1 -127842.26 0"/>
<path id="N" d="M 5899999.87 20400000.00 m -63921.13 0 a 63921.13 63921.13 0 1 1 127842.26 0a 63921.13 63921.13 0 1 1 -127842.26 0"/>
<path id="N" d="M 4349999.87 19822835.00 m -63921.13 0 a 63921.13 63921.13 0 1 1 127842.26 0a 63921.13 63921.13 0 1 1 -127842.26 0"/>
<path id="N" d="M 9884646.87 20050000.00 m -63921.13 0 a 63921.13 63921.13 0 1 1 127842.26 0a 63921.13 63921.13 0 1 1 -127842.26 0"/>
<path id="N" d="M 5999999.87 12600000.00 m -63921.13 0 a 63921.13 63921.13 0 1 1 127842.26 0a 63921.13 63921.13 0 1 1 -127842.26 0"/>
<path id="N" d="M 12499999.87 9400000.00 m -63921.13 0 a 63921.13 63921.13 0 1 1 127842.26 0a 63921.13 63921.13 0 1 1 -127842.26 0"/>
<path id="N" d="M 11249999.87 9350000.00 m -63921.13 0 a 63921.13 63921.13 0 1 1 127842.26 0a 63921.13 63921.13 0 1 1 -127842.26 0"/>
<path id="N" d="M 11923227.87 13450000.00 m -63921.13 0 a 63921.13 63921.13 0 1 1 127842.26 0a 63921.13 63921.13 0 1 1 -127842.26 0"/>
<path id="N" d="M 5999999.87 12950000.00 m -63921.13 0 a 63921.13 63921.13 0 1 1 127842.26 0a 63921.13 63921.13 0 1 1 -127842.26 0"/>
<path id="N" d="M 15099999.87 12900000.00 m -63921.13 0 a 63921.13 63921.13 0 1 1 127842.26 0a 63921.13 63921.13 0 1 1 -127842.26 0"/>
<path id="N" d="M 14699999.87 13750000.00 m -63921.13 0 a 63921.13 63921.13 0 1 1 127842.26 0a 63921.13 63921.13 0 1 1 -127842.26 0"/>
<path id="N" d="M 6799999.87 11150000.00 m -63921.13 0 a 63921.13 63921.13 0 1 1 127842.26 0a 63921.13 63921.13 0 1 1 -127842.26 0"/>
<path id="N" d="M 10449213.87 20300787.00 m -63921.13 0 a 63921.13 63921.13 0 1 1 127842.26 0a 63921.13 63921.13 0 1 1 -127842.26 0"/>
<path id="N" d="M 9825393.87 20300787.00 m -63921.13 0 a 63921.13 63921.13 0 1 1 127842.26 0a 63921.13 63921.13 0 1 1 -127842.26 0"/>
<path id="N" d="M 9449999.87 20100000.00 m -63921.13 0 a 63921.13 63921.13 0 1 1 127842.26 0a 63921.13 63921.13 0 1 1 -127842.26 0"/>
<path id="N" d="M 5699999.87 20200000.00 m -63921.13 0 a 63921.13 63921.13 0 1 1 127842.26 0a 63921.13 63921.13 0 1 1 -127842.26 0"/>
<path id="N" d="M 12949999.87 10517324.00 m -63921.13 0 a 63921.13 63921.13 0 1 1 127842.26 0a 63921.13 63921.13 0 1 1 -127842.26 0"/>
<path id="N" d="M 7149999.87 18750000.00 m -63921.13 0 a 63921.13 63921.13 0 1 1 127842.26 0a 63921.13 63921.13 0 1 1 -127842.26 0"/>
<path id="N" d="M 5899999.87 20200000.00 m -63921.13 0 a 63921.13 63921.13 0 1 1 127842.26 0a 63921.13 63921.13 0 1 1 -127842.26 0"/>
<path id="N" d="M 7663921.00 17678740.00 L 7654024.45 17654847.55 L 10225968.00 15082904.00 L 10842004.63 15082904.00 L 10851901.00 15106796.00 A 63921.13 63921.13 0 1 0 10851901.00 15016398.00 L 10842004.63 15040290.00 L 10217143.00 15040290.00 L 10202077.00 15046531.00 L 7623892.45 17624715.55 L 7600000.00 17614819.00 A 63920.91 63920.91 0 1 0 7663921.00 17678740.00  z"/>
<path id="N" d="M 11732676.87 20457284.00 m -63921.13 0 a 63921.13 63921.13 0 1 1 127842.26 0a 63921.13 63921.13 0 1 1 -127842.26 0"/>
<path id="N" d="M 12105062.87 20616089.00 m -63921.13 0 a 63921.13 63921.13 0 1 1 127842.26 0a 63921.13 63921.13 0 1 1 -127842.26 0"/>
<path id="N" d="M 7395199.00 18280805.00 L 7405095.37 18256913.00 L 7764394.00 18256913.00 L 7779460.00 18250672.00 L 10058825.00 15971307.00 L 10694904.63 15971307.00 L 10704801.00 15995199.00 A 63921.13 63921.13 0 1 0 10704801.00 15904801.00 L 10694904.63 15928693.00 L 10050000.00 15928693.00 L 10034934.00 15934934.00 L 7755569.00 18214299.00 L 7405095.37 18214299.00 L 7395199.00 18190407.00 L 7350000.00 18171685.00 L 7304801.00 18190407.00 L 7288942.45 18228693.00 L 6742617.00 18228693.00 L 6304024.45 17790100.45 L 6313921.00 17766208.00 A 63920.91 63920.91 0 1 0 6250000.00 17830129.00 L 6273892.45 17820232.45 L 6718726.00 18265066.00 L 6733792.00 18271307.00 L 7300866.81 18271307.00 L 7304801.00 18280805.00 L 7350000.00 18299527.00 L 7395199.00 18280805.00  z"/>
<path id="N" d="M 10573631.87 14517892.00 m -63921.13 0 a 63921.13 63921.13 0 1 1 127842.26 0a 63921.13 63921.13 0 1 1 -127842.26 0"/>
<path id="N" d="M 6599999.87 13950000.00 m -63921.13 0 a 63921.13 63921.13 0 1 1 127842.26 0a 63921.13 63921.13 0 1 1 -127842.26 0"/>
<path id="N" d="M 8360479.87 15900000.00 m -63921.13 0 a 63921.13 63921.13 0 1 1 127842.26 0a 63921.13 63921.13 0 1 1 -127842.26 0"/>
<path id="N" d="M 6904801.00 17254801.00 L 6901145.16 17263627.00 L 6264889.00 17263627.00 L 6260163.11 17258901.11 L 6263819.00 17250075.00 A 63920.91 63920.91 0 1 0 6199898.00 17313996.00 L 6238856.78 17297858.78 L 6256064.00 17306241.00 L 6888664.10 17306241.00 L 6904801.00 17345199.00 A 63921.13 63921.13 0 1 0 6904801.00 17254801.00  z"/>
<path id="N" d="M 9949999.87 17509645.00 m -63921.13 0 a 63921.13 63921.13 0 1 1 127842.26 0a 63921.13 63921.13 0 1 1 -127842.26 0"/>
<path id="N" d="M 10299999.87 13050000.00 m -63921.13 0 a 63921.13 63921.13 0 1 1 127842.26 0a 63921.13 63921.13 0 1 1 -127842.26 0"/>
<path id="N" d="M 6745199.00 17945199.00 L 6755095.37 17921307.00 L 7631516.00 17921307.00 L 7646582.00 17915066.00 L 10140341.00 15421307.00 L 10494904.63 15421307.00 L 10504801.00 15445199.00 A 63921.13 63921.13 0 1 0 10504801.00 15354801.00 L 10494904.63 15378693.00 L 10131516.00 15378693.00 L 10116450.00 15384934.00 L 7622691.00 17878693.00 L 6755095.37 17878693.00 L 6745199.00 17854801.00 A 63921.13 63921.13 0 1 0 6745199.00 17945199.00  z"/>
<path id="N" d="M 12645199.00 16454801.00 L 12621307.00 16444904.63 L 12621307.00 15947224.00 L 12615067.00 15932158.00 L 9417842.00 12734934.00 L 9402776.00 12728693.00 L 7155095.37 12728693.00 L 7145199.00 12704801.00 A 63921.13 63921.13 0 1 0 7145199.00 12795199.00 L 7155095.37 12771307.00 L 9393951.00 12771307.00 L 12578693.00 15956050.00 L 12578693.00 16444904.63 L 12554801.00 16454801.00 A 63921.13 63921.13 0 1 0 12645199.00 16454801.00  z"/>
<path id="N" d="M 4413921.00 20177166.00 L 4404024.45 20153273.55 L 4585991.00 19971307.00 L 6800000.00 19971307.00 L 6815066.00 19965066.00 L 6915066.00 19865067.00 L 6921307.00 19850000.00 L 6921307.00 19305095.37 L 6945199.00 19295199.00 A 63921.13 63921.13 0 1 0 6854801.00 19295199.00 L 6878693.00 19305095.37 L 6878693.00 19841174.06 L 6791174.94 19928693.00 L 4577166.00 19928693.00 L 4562100.00 19934934.00 L 4373892.45 20123141.55 L 4350000.00 20113245.00 A 63920.91 63920.91 0 1 0 4413921.00 20177166.00  z"/>
<path id="N" d="M 8899999.87 13050000.00 m -63921.13 0 a 63921.13 63921.13 0 1 1 127842.26 0a 63921.13 63921.13 0 1 1 -127842.26 0"/>
<path id="N" d="M 4545199.00 19445199.00 L 4555095.37 19421307.00 L 6531890.00 19421307.00 L 6546956.00 19415066.00 L 6657997.55 19304024.45 L 6681890.00 19313921.00 A 63920.91 63920.91 0 1 0 6617969.00 19250000.00 L 6627865.55 19273892.45 L 6523065.00 19378693.00 L 4555095.37 19378693.00 L 4545199.00 19354801.00 A 63921.13 63921.13 0 1 0 4545199.00 19445199.00  z"/>
<path id="N" d="M 7091535.87 16287880.00 m -63921.13 0 a 63921.13 63921.13 0 1 1 127842.26 0a 63921.13 63921.13 0 1 1 -127842.26 0"/>
<path id="N" d="M 10186007.87 13883232.00 m -63921.13 0 a 63921.13 63921.13 0 1 1 127842.26 0a 63921.13 63921.13 0 1 1 -127842.26 0"/>
<path id="N" d="M 7649999.87 18950000.00 m -63921.13 0 a 63921.13 63921.13 0 1 1 127842.26 0a 63921.13 63921.13 0 1 1 -127842.26 0"/>
<path id="N" d="M 6049999.87 18850000.00 m -63921.13 0 a 63921.13 63921.13 0 1 1 127842.26 0a 63921.13 63921.13 0 1 1 -127842.26 0"/>
<path id="N" d="M 12649999.87 17378740.00 m -63921.13 0 a 63921.13 63921.13 0 1 1 127842.26 0a 63921.13 63921.13 0 1 1 -127842.26 0"/>
<path id="N" d="M 5099999.87 12200000.00 m -63921.13 0 a 63921.13 63921.13 0 1 1 127842.26 0a 63921.13 63921.13 0 1 1 -127842.26 0"/>
<path id="N" d="M 4449999.87 7800000.00 m -63921.13 0 a 63921.13 63921.13 0 1 1 127842.26 0a 63921.13 63921.13 0 1 1 -127842.26 0"/>
<path id="N" d="M 14049999.87 6723229.00 m -63921.13 0 a 63921.13 63921.13 0 1 1 127842.26 0a 63921.13 63921.13 0 1 1 -127842.26 0"/>
<path id="N" d="M 6686893.87 16550000.00 m -63921.13 0 a 63921.13 63921.13 0 1 1 127842.26 0a 63921.13 63921.13 0 1 1 -127842.26 0"/>
<path id="N" d="M 4526770.87 16200000.00 m -63921.13 0 a 63921.13 63921.13 0 1 1 127842.26 0a 63921.13 63921.13 0 1 1 -127842.26 0"/>
<path id="N" d="M 4499999.87 15619291.00 m -63921.13 0 a 63921.13 63921.13 0 1 1 127842.26 0a 63921.13 63921.13 0 1 1 -127842.26 0"/>
<path id="N" d="M 11411416.87 16764567.00 m -63921.13 0 a 63921.13 63921.13 0 1 1 127842.26 0a 63921.13 63921.13 0 1 1 -127842.26 0"/>
<path id="N" d="M 5499999.87 11250000.00 m -63921.13 0 a 63921.13 63921.13 0 1 1 127842.26 0a 63921.13 63921.13 0 1 1 -127842.26 0"/>
<path id="N" d="M 7349999.87 20900000.00 m -63921.13 0 a 63921.13 63921.13 0 1 1 127842.26 0a 63921.13 63921.13 0 1 1 -127842.26 0"/>
<path id="N" d="M 7349999.87 19800000.00 m -63921.13 0 a 63921.13 63921.13 0 1 1 127842.26 0a 63921.13 63921.13 0 1 1 -127842.26 0"/>
<path id="N" d="M 13049999.87 17378740.00 m -63921.13 0 a 63921.13 63921.13 0 1 1 127842.26 0a 63921.13 63921.13 0 1 1 -127842.26 0"/>
<path id="N" d="M 7849999.87 21300000.00 m -63921.13 0 a 63921.13 63921.13 0 1 1 127842.26 0a 63921.13 63921.13 0 1 1 -127842.26 0"/>
<path id="N" d="M 5549999.87 8800000.00 m -63921.13 0 a 63921.13 63921.13 0 1 1 127842.26 0a 63921.13 63921.13 0 1 1 -127842.26 0"/>
<path id="N" d="M 8349999.87 20200000.00 m -63921.13 0 a 63921.13 63921.13 0 1 1 127842.26 0a 63921.13 63921.13 0 1 1 -127842.26 0"/>
<path id="N" d="M 8371259.87 19800000.00 m -63921.13 0 a 63921.13 63921.13 0 1 1 127842.26 0a 63921.13 63921.13 0 1 1 -127842.26 0"/>
<path id="N" d="M 14299999.87 9250000.00 m -63921.13 0 a 63921.13 63921.13 0 1 1 127842.26 0a 63921.13 63921.13 0 1 1 -127842.26 0"/>
<path id="N" d="M 14749999.87 19600000.00 m -63921.13 0 a 63921.13 63921.13 0 1 1 127842.26 0a 63921.13 63921.13 0 1 1 -127842.26 0"/>
<path id="N" d="M 14549999.87 9250000.00 m -63921.13 0 a 63921.13 63921.13 0 1 1 127842.26 0a 63921.13 63921.13 0 1 1 -127842.26 0"/>
<path id="N" d="M 10299999.87 5500000.00 m -63921.13 0 a 63921.13 63921.13 0 1 1 127842.26 0a 63921.13 63921.13 0 1 1 -127842.26 0"/>
<path id="N" d="M 10499999.87 5700000.00 m -63921.13 0 a 63921.13 63921.13 0 1 1 127842.26 0a 63921.13 63921.13 0 1 1 -127842.26 0"/>
<path id="N" d="M 8360479.87 15597088.00 m -63921.13 0 a 63921.13 63921.13 0 1 1 127842.26 0a 63921.13 63921.13 0 1 1 -127842.26 0"/>
<path id="N" d="M 7910739.87 16585826.00 m -63921.13 0 a 63921.13 63921.13 0 1 1 127842.26 0a 63921.13 63921.13 0 1 1 -127842.26 0"/>
<path id="N" d="M 4749999.87 20750000.00 m -63921.13 0 a 63921.13 63921.13 0 1 1 127842.26 0a 63921.13 63921.13 0 1 1 -127842.26 0"/>
<path id="N" d="M 6565995.87 20429870.00 m -63921.13 0 a 63921.13 63921.13 0 1 1 127842.26 0a 63921.13 63921.13 0 1 1 -127842.26 0"/>
<path id="N" d="M 4675425.87 20272438.00 m -63921.13 0 a 63921.13 63921.13 0 1 1 127842.26 0a 63921.13 63921.13 0 1 1 -127842.26 0"/>
<path id="N" d="M 11349999.87 10200000.00 m -63921.13 0 a 63921.13 63921.13 0 1 1 127842.26 0a 63921.13 63921.13 0 1 1 -127842.26 0"/>
<path id="N" d="M 4688436.87 18938386.00 m -63921.13 0 a 63921.13 63921.13 0 1 1 127842.26 0a 63921.13 63921.13 0 1 1 -127842.26 0"/>
<path id="N" d="M 6601574.87 18750000.00 m -63921.13 0 a 63921.13 63921.13 0 1 1 127842.26 0a 63921.13 63921.13 0 1 1 -127842.26 0"/>
</g>
</svg>
