<svg width="29.99999842mm" height="49.99999906mm" viewBox="0 0 11811023 19685039"  version="1.1" xmlns="http://www.w3.org/2000/svg" xmlns:xlink="http://www.w3.org/1999/xlink">
<desc>
Origin 0 0 Bound 3937008 3937008 11811023 19685039
</desc>
<g fill-rule="evenodd" fill="rgb(255, 255, 0)" stroke="black" stroke-width="1" transform="translate(0, 19685039) scale(1, -1) translate(-3937008, -3937008)">
<path id="N" d="M 11129528.00 10057874.00 L 8570473.00 10057874.00 L 8570473.00 11042126.00 L 11129528.00 11042126.00 L 11129528.00 10057874.00  zM 9496030.00 10396613.00 L 9417370.00 10396613.00 L 9417370.00 10357283.00 L 9378040.00 10357283.00 L 9378040.00 10396613.00 L 9260050.00 10396613.00 L 9260050.00 10160633.00 L 9338710.00 10160633.00 L 9338710.00 10317953.00 L 9378040.00 10317953.00 L 9378040.00 10199963.00 L 9417370.00 10199963.00 L 9417370.00 10317953.00 L 9456700.00 10317953.00 L 9456700.00 10160633.00 L 9535360.00 10160633.00 L 9535360.00 10357283.00 L 9496030.00 10357283.00 L 9496030.00 10396613.00  zM 9771340.00 10396613.00 L 9653350.00 10396613.00 L 9653350.00 10357283.00 L 9692680.00 10357283.00 L 9692680.00 10199963.00 L 9653350.00 10199963.00 L 9653350.00 10160633.00 L 9810670.00 10160633.00 L 9810670.00 10199963.00 L 9771340.00 10199963.00 L 9771340.00 10396613.00  zM 9771340.00 10514603.00 L 9692680.00 10514603.00 L 9692680.00 10435943.00 L 9771340.00 10435943.00 L 9771340.00 10514603.00  zM 9633685.00 10939367.00 L 9397705.00 10939367.00 L 9397705.00 10900037.00 L 9437035.00 10900037.00 L 9437035.00 10624727.00 L 9397705.00 10624727.00 L 9397705.00 10585397.00 L 9515695.00 10585397.00 L 9515695.00 10742717.00 L 9555025.00 10742717.00 L 9555025.00 10703387.00 L 9594355.00 10703387.00 L 9594355.00 10585397.00 L 9673015.00 10585397.00 L 9673015.00 10703387.00 L 9633685.00 10703387.00 L 9633685.00 10782047.00 L 9673015.00 10782047.00 L 9673015.00 10900037.00 L 9633685.00 10900037.00 L 9633685.00 10939367.00  zM 9967990.00 10396613.00 L 9889330.00 10396613.00 L 9889330.00 10357283.00 L 9928660.00 10357283.00 L 9928660.00 10160633.00 L 10007320.00 10160633.00 L 10007320.00 10357283.00 L 9967990.00 10357283.00 L 9967990.00 10396613.00  zM 10125310.00 10396613.00 L 10007320.00 10396613.00 L 10007320.00 10357283.00 L 10085980.00 10357283.00 L 10085980.00 10160633.00 L 10164640.00 10160633.00 L 10164640.00 10357283.00 L 10125310.00 10357283.00 L 10125310.00 10396613.00  zM 10302295.00 10939367.00 L 10026985.00 10939367.00 L 10026985.00 10900037.00 L 10066315.00 10900037.00 L 10066315.00 10624727.00 L 10026985.00 10624727.00 L 10026985.00 10585397.00 L 10184305.00 10585397.00 L 10184305.00 10624727.00 L 10144975.00 10624727.00 L 10144975.00 10742717.00 L 10184305.00 10742717.00 L 10184305.00 10703387.00 L 10223635.00 10703387.00 L 10223635.00 10821377.00 L 10184305.00 10821377.00 L 10184305.00 10782047.00 L 10144975.00 10782047.00 L 10144975.00 10900037.00 L 10223635.00 10900037.00 L 10223635.00 10860707.00 L 10262965.00 10860707.00 L 10262965.00 10821377.00 L 10302295.00 10821377.00 L 10302295.00 10939367.00  zM 10400620.00 10396613.00 L 10282630.00 10396613.00 L 10282630.00 10357283.00 L 10321960.00 10357283.00 L 10321960.00 10199963.00 L 10282630.00 10199963.00 L 10282630.00 10160633.00 L 10439950.00 10160633.00 L 10439950.00 10199963.00 L 10400620.00 10199963.00 L 10400620.00 10396613.00  zM 10400620.00 10514603.00 L 10321960.00 10514603.00 L 10321960.00 10435943.00 L 10400620.00 10435943.00 L 10400620.00 10514603.00  zM 9043735.00 10939367.00 L 8768425.00 10939367.00 L 8768425.00 10900037.00 L 8807755.00 10900037.00 L 8807755.00 10624727.00 L 8768425.00 10624727.00 L 8768425.00 10585397.00 L 8925745.00 10585397.00 L 8925745.00 10624727.00 L 8886415.00 10624727.00 L 8886415.00 10742717.00 L 8925745.00 10742717.00 L 8925745.00 10703387.00 L 8965075.00 10703387.00 L 8965075.00 10821377.00 L 8925745.00 10821377.00 L 8925745.00 10782047.00 L 8886415.00 10782047.00 L 8886415.00 10900037.00 L 8965075.00 10900037.00 L 8965075.00 10860707.00 L 9004405.00 10860707.00 L 9004405.00 10821377.00 L 9043735.00 10821377.00 L 9043735.00 10939367.00  zM 9319045.00 10939367.00 L 9161725.00 10939367.00 L 9161725.00 10900037.00 L 9201055.00 10900037.00 L 9201055.00 10624727.00 L 9161725.00 10624727.00 L 9161725.00 10585397.00 L 9319045.00 10585397.00 L 9319045.00 10624727.00 L 9279715.00 10624727.00 L 9279715.00 10900037.00 L 9319045.00 10900037.00 L 9319045.00 10939367.00  zM 9987655.00 10939367.00 L 9712345.00 10939367.00 L 9712345.00 10900037.00 L 9751675.00 10900037.00 L 9751675.00 10624727.00 L 9712345.00 10624727.00 L 9712345.00 10585397.00 L 9987655.00 10585397.00 L 9987655.00 10703387.00 L 9948325.00 10703387.00 L 9948325.00 10664057.00 L 9908995.00 10664057.00 L 9908995.00 10624727.00 L 9830335.00 10624727.00 L 9830335.00 10742717.00 L 9869665.00 10742717.00 L 9869665.00 10703387.00 L 9908995.00 10703387.00 L 9908995.00 10821377.00 L 9869665.00 10821377.00 L 9869665.00 10782047.00 L 9830335.00 10782047.00 L 9830335.00 10900037.00 L 9908995.00 10900037.00 L 9908995.00 10860707.00 L 9948325.00 10860707.00 L 9948325.00 10821377.00 L 9987655.00 10821377.00 L 9987655.00 10939367.00  zM 10498945.00 10939367.00 L 10341625.00 10939367.00 L 10341625.00 10900037.00 L 10380955.00 10900037.00 L 10380955.00 10624727.00 L 10341625.00 10624727.00 L 10341625.00 10585397.00 L 10616935.00 10585397.00 L 10616935.00 10703387.00 L 10577605.00 10703387.00 L 10577605.00 10664057.00 L 10538275.00 10664057.00 L 10538275.00 10624727.00 L 10459615.00 10624727.00 L 10459615.00 10900037.00 L 10498945.00 10900037.00 L 10498945.00 10939367.00  zM 10931575.00 10939367.00 L 10852915.00 10939367.00 L 10852915.00 10782047.00 L 10774255.00 10782047.00 L 10774255.00 10939367.00 L 10695595.00 10939367.00 L 10695595.00 10782047.00 L 10734925.00 10782047.00 L 10734925.00 10742717.00 L 10774255.00 10742717.00 L 10774255.00 10624727.00 L 10734925.00 10624727.00 L 10734925.00 10585397.00 L 10892245.00 10585397.00 L 10892245.00 10624727.00 L 10852915.00 10624727.00 L 10852915.00 10742717.00 L 10892245.00 10742717.00 L 10892245.00 10782047.00 L 10931575.00 10782047.00 L 10931575.00 10939367.00  z"/>
<path id="N" d="M 12055146.51 21901988.32 L 12060614.00 21903070.00 L 12073711.19 21894298.84 L 12088269.00 21888269.00 L 12090401.01 21883121.69 L 12095031.00 21880021.00 L 12098090.14 21864557.87 L 12104120.00 21850000.00 L 12104120.00 21804120.00 L 12900000.00 21804120.00 L 12938269.00 21788269.00 L 12954120.00 21750000.00 L 12954120.00 20954120.00 L 13000000.00 20954120.00 L 13014557.87 20948090.14 L 13030021.00 20945031.00 L 13033121.69 20940401.01 L 13038269.00 20938269.00 L 13044298.84 20923711.19 L 13053070.00 20910614.00 L 13051988.32 20905146.51 L 13054120.00 20900000.00 L 13048089.90 20885441.57 L 13045031.00 20869980.00 L 12945031.00 20719980.00 L 12940401.51 20716879.50 L 12938269.00 20711731.00 L 12933121.69 20709598.99 L 12930021.00 20704969.00 L 12919513.54 20702890.26 L 12910614.00 20696930.00 L 12905146.51 20698011.68 L 12900000.00 20695880.00 L 12894853.53 20698011.67 L 12889386.00 20696930.00 L 12880485.97 20702890.51 L 12869980.00 20704969.00 L 12866879.50 20709598.49 L 12861731.00 20711731.00 L 12859598.66 20716879.11 L 12854970.00 20719979.00 L 12754969.00 20869980.00 L 12751910.10 20885441.57 L 12745880.00 20900000.00 L 12748011.68 20905146.51 L 12746930.00 20910614.00 L 12755700.54 20923709.70 L 12761731.00 20938269.00 L 12766879.50 20940401.51 L 12769980.00 20945031.00 L 12785441.57 20948089.90 L 12800000.00 20954120.00 L 12845880.00 20954120.00 L 12845880.00 21695880.00 L 12104120.00 21695880.00 L 12104120.00 21650000.00 L 12098090.14 21635442.13 L 12095031.00 21619979.00 L 12090401.01 21616878.31 L 12088269.00 21611731.00 L 12073711.19 21605701.16 L 12060614.00 21596930.00 L 12055146.51 21598011.68 L 12050000.00 21595880.00 L 12035441.57 21601910.10 L 12019980.00 21604969.00 L 11869980.00 21704969.00 L 11866879.50 21709598.49 L 11861731.00 21711731.00 L 11859598.49 21716879.50 L 11854969.00 21719980.00 L 11852890.47 21730486.15 L 11846930.00 21739386.00 L 11848011.68 21744853.49 L 11845880.00 21750000.00 L 11848011.68 21755146.51 L 11846930.00 21760614.00 L 11852890.47 21769513.85 L 11854969.00 21780020.00 L 11859598.49 21783120.50 L 11861731.00 21788269.00 L 11866879.50 21790401.51 L 11869980.00 21795031.00 L 12019980.00 21895031.00 L 12035441.57 21898089.90 L 12050000.00 21904120.00 L 12055146.51 21901988.32  z"/>
<path id="N" d="M 5522253.00 11388393.00 L 5534734.00 11358260.00 L 5534734.00 11288977.00 L 6204330.00 11288977.00 L 6204330.00 9911024.00 L 5534734.00 9911024.00 L 5534734.00 9901580.00 L 5522253.00 9871447.00 L 5492120.00 9858966.00 L 5461987.00 9871447.00 L 5449506.00 9901580.00 L 5449506.00 11358260.00 L 5461987.00 11388393.00 L 5492120.00 11400874.00 L 5522253.00 11388393.00  zM 5628869.98 10378869.97 L 5628869.99 10034889.97 L 5678009.99 10034889.98 L 5678009.99 10084029.98 L 6021989.99 10084029.99 L 6021989.99 10034889.99 L 6071129.99 10034889.99 L 6071129.98 10329729.99 L 6021989.98 10329729.99 L 6021989.98 10378869.99 L 5628869.98 10378869.97  zM 5776289.96 10771989.98 L 5628869.96 10771989.97 L 5628869.98 10477149.97 L 5776289.98 10477149.98 L 5776289.97 10526289.98 L 5727149.97 10526289.98 L 5727149.97 10575429.98 L 6021989.97 10575429.99 L 6021989.97 10526289.99 L 6071129.97 10526289.99 L 6071129.96 10722849.99 L 6021989.96 10722849.99 L 6021989.97 10673709.99 L 5727149.97 10673709.98 L 5727149.96 10722849.98 L 5776289.96 10722849.98 L 5776289.96 10771989.98  zM 6071129.95 11066829.99 L 6021989.95 11066829.99 L 6021989.95 11115969.99 L 5972849.95 11115969.99 L 5972849.95 11165109.99 L 5727149.95 11165109.98 L 5727149.95 11115969.98 L 5678009.95 11115969.98 L 5678009.95 11066829.98 L 5628869.95 11066829.97 L 5628869.96 10919409.97 L 5678009.96 10919409.98 L 5678009.96 10870269.98 L 5727149.96 10870269.98 L 5727149.96 10821129.98 L 6071129.96 10821129.99 L 6071129.95 11066829.99  z"/>
<path id="N" d="M 6693700.00 16620078.00 L 5906298.00 16620078.00 L 5906298.00 17879921.00 L 6693700.00 17879921.00 L 6693700.00 16620078.00  zM 6521128.98 17028868.99 L 6078868.98 17028868.97 L 6078869.00 16684888.97 L 6128009.00 16684888.98 L 6128009.00 16734028.98 L 6471989.00 16734028.99 L 6471989.00 16684888.99 L 6521129.00 16684888.99 L 6521128.99 16832308.99 L 6324568.99 16832308.98 L 6324568.99 16881448.98 L 6373708.99 16881448.99 L 6373708.99 16930588.99 L 6521128.99 16930588.99 L 6521128.98 17028868.99  zM 6521128.97 17372848.99 L 6471988.97 17372848.99 L 6471988.96 17421988.99 L 6373708.96 17421988.99 L 6373708.97 17372848.99 L 6324568.97 17372848.98 L 6324568.97 17323708.98 L 6275428.97 17323708.98 L 6275428.97 17225428.98 L 6226288.97 17225428.98 L 6226288.98 17176288.98 L 6128008.98 17176288.98 L 6128008.97 17323708.98 L 6226288.97 17323708.98 L 6226288.96 17421988.98 L 6128008.96 17421988.98 L 6128008.97 17372848.98 L 6078868.97 17372848.97 L 6078868.98 17127148.97 L 6128008.98 17127148.98 L 6128008.98 17078008.98 L 6521128.98 17078008.99 L 6521128.97 17372848.99  zM 6521128.95 17765968.99 L 6471988.95 17765968.99 L 6471988.95 17716828.99 L 6177148.95 17716828.98 L 6177148.95 17765968.98 L 6226288.95 17765968.98 L 6226288.95 17815108.98 L 6078868.95 17815108.97 L 6078868.96 17520268.97 L 6521128.96 17520268.99 L 6521128.95 17765968.99  z"/>
<path id="N" d="M 11314904.00 17451910.00 L 11339010.00 17441925.00 L 11348995.00 17417819.00 L 11339010.00 17393713.00 L 11314904.00 17383728.00 L 11236258.85 17383728.85 L 11163463.00 17310933.00 L 11163463.00 17246408.00 L 11329025.00 17080846.00 L 11393550.00 17080846.00 L 11466345.85 17153641.85 L 11466345.00 17232287.00 L 11476330.00 17256393.00 L 11500436.00 17266378.00 L 11524542.00 17256393.00 L 11534527.00 17232287.00 L 11534528.00 17139521.00 L 11524543.00 17115415.00 L 11431777.00 17022649.00 L 11407671.00 17012664.00 L 11314904.00 17012664.00 L 11290798.00 17022649.00 L 11105266.00 17208181.00 L 11095281.00 17232287.00 L 11095281.00 17325054.00 L 11105266.00 17349160.00 L 11198032.00 17441926.00 L 11222138.00 17451911.00 L 11314904.00 17451910.00  z"/>
<path id="N" d="M 9669217.00 15772132.00 L 9679202.00 15748026.00 L 9669217.00 15723920.00 L 9645111.00 15713935.00 L 9566466.00 15713935.00 L 9493670.00 15641139.00 L 9493670.00 15576615.00 L 9659232.00 15411053.00 L 9723757.00 15411053.00 L 9796552.85 15483848.85 L 9796552.00 15562494.00 L 9806537.00 15586600.00 L 9830643.00 15596585.00 L 9854749.00 15586600.00 L 9864734.00 15562494.00 L 9864735.00 15469728.00 L 9854750.00 15445622.00 L 9761984.00 15352856.00 L 9737878.00 15342871.00 L 9645111.00 15342871.00 L 9621005.00 15352856.00 L 9435473.00 15538388.00 L 9425488.00 15562494.00 L 9425488.00 15655260.00 L 9435473.00 15679366.00 L 9528239.00 15772132.00 L 9552345.00 15782117.00 L 9645111.00 15782117.00 L 9669217.00 15772132.00  z"/>
<path id="N" d="M 10480007.00 16617013.00 L 10504113.00 16607028.00 L 10514098.00 16582922.00 L 10504113.00 16558816.00 L 10480007.00 16548831.00 L 10401361.85 16548831.85 L 10328566.00 16476036.00 L 10328566.00 16411511.00 L 10494128.00 16245949.00 L 10558653.00 16245949.00 L 10631448.85 16318744.85 L 10631448.00 16397390.00 L 10641433.00 16421496.00 L 10665539.00 16431481.00 L 10689645.00 16421496.00 L 10699630.00 16397390.00 L 10699631.00 16304624.00 L 10689646.00 16280518.00 L 10596880.00 16187752.00 L 10572774.00 16177767.00 L 10480007.00 16177767.00 L 10455901.00 16187752.00 L 10270369.00 16373284.00 L 10260384.00 16397390.00 L 10260384.00 16490157.00 L 10270369.00 16514263.00 L 10363135.00 16607029.00 L 10387241.00 16617014.00 L 10480007.00 16617013.00  z"/>
<path id="N" d="M 8810214.00 14947220.00 L 8834320.00 14937235.00 L 8844305.00 14913129.00 L 8834320.00 14889023.00 L 8810214.00 14879038.00 L 8731568.85 14879038.85 L 8658773.00 14806243.00 L 8658773.00 14741718.00 L 8824335.00 14576156.00 L 8888860.00 14576156.00 L 8961655.85 14648951.85 L 8961655.00 14727597.00 L 8971640.00 14751703.00 L 8995746.00 14761688.00 L 9019852.00 14751703.00 L 9029837.00 14727597.00 L 9029838.00 14634831.00 L 9019853.00 14610725.00 L 8927087.00 14517959.00 L 8902981.00 14507974.00 L 8810214.00 14507974.00 L 8786108.00 14517959.00 L 8600576.00 14703491.00 L 8590591.00 14727597.00 L 8590591.00 14820364.00 L 8600576.00 14844470.00 L 8693342.00 14937236.00 L 8717448.00 14947221.00 L 8810214.00 14947220.00  z"/>
<path id="N" d="M 9901132.00 16096814.00 L 9911117.00 16072708.00 L 9901132.00 16048602.00 L 9878855.50 16026325.50 L 10086665.00 15818516.00 L 10096650.00 15794410.00 L 10096650.00 15701643.00 L 10086665.00 15677537.00 L 10040282.00 15631154.00 L 10016176.00 15621169.00 L 9923410.00 15621169.00 L 9899304.00 15631154.00 L 9889319.00 15655260.00 L 9899304.00 15679366.00 L 9923410.00 15689351.00 L 10002055.00 15689351.00 L 10028468.00 15715764.00 L 10028468.00 15780289.00 L 9830643.74 15978113.26 L 9808366.00 15955836.00 L 9784260.00 15945851.00 L 9760154.00 15955836.00 L 9750169.00 15979942.00 L 9760154.00 16004048.00 L 9852920.00 16096814.00 L 9877026.00 16106799.00 L 9901132.00 16096814.00  z"/>
<path id="N" d="M 10736029.00 16931711.00 L 10746014.00 16907605.00 L 10736029.00 16883499.00 L 10713752.12 16861221.88 L 10921562.00 16653412.00 L 10931547.00 16629306.00 L 10931547.00 16536540.00 L 10921562.00 16512434.00 L 10875179.00 16466051.00 L 10851073.00 16456066.00 L 10758306.00 16456066.00 L 10734200.00 16466051.00 L 10724215.00 16490157.00 L 10734200.00 16514263.00 L 10758306.00 16524248.00 L 10836952.00 16524248.00 L 10863365.00 16550661.00 L 10863365.00 16615185.00 L 10665540.38 16813009.62 L 10643263.00 16790732.00 L 10619157.00 16780747.00 L 10595051.00 16790732.00 L 10585066.00 16814838.00 L 10595051.00 16838944.00 L 10687817.00 16931711.00 L 10711923.00 16941696.00 L 10736029.00 16931711.00  z"/>
<path id="N" d="M 9066236.00 15261917.00 L 9076221.00 15237811.00 L 9066236.00 15213705.00 L 9043959.50 15191428.50 L 9251769.00 14983619.00 L 9261754.00 14959513.00 L 9261754.00 14866747.00 L 9251769.00 14842641.00 L 9205386.00 14796258.00 L 9181280.00 14786273.00 L 9088513.00 14786273.00 L 9064407.00 14796258.00 L 9054422.00 14820364.00 L 9064407.00 14844470.00 L 9088513.00 14854455.00 L 9167159.00 14854455.00 L 9193572.00 14880868.00 L 9193572.00 14945392.00 L 8995747.50 15143216.50 L 8973470.00 15120939.00 L 8949364.00 15110954.00 L 8925258.00 15120939.00 L 8915273.00 15145045.00 L 8925258.00 15169151.00 L 9018024.00 15261917.00 L 9042130.00 15271902.00 L 9066236.00 15261917.00  z"/>
<path id="N" d="M 8231339.00 14427021.00 L 8241324.00 14402915.00 L 8231339.00 14378809.00 L 8209062.50 14356532.50 L 8416872.00 14148723.00 L 8426857.00 14124617.00 L 8426857.00 14031850.00 L 8416872.00 14007744.00 L 8370489.00 13961361.00 L 8346383.00 13951376.00 L 8253617.00 13951376.00 L 8229511.00 13961361.00 L 8219526.00 13985467.00 L 8229511.00 14009573.00 L 8253617.00 14019558.00 L 8332262.00 14019558.00 L 8358675.00 14045971.00 L 8358675.00 14110496.00 L 8160850.74 14308320.26 L 8138573.00 14286043.00 L 8114467.00 14276058.00 L 8090361.00 14286043.00 L 8080376.00 14310149.00 L 8090361.00 14334255.00 L 8183127.00 14427021.00 L 8207233.00 14437006.00 L 8231339.00 14427021.00  z"/>
<path id="N" d="M 12640064.00 20486851.00 L 12652545.00 20456718.00 L 12652545.00 20368141.00 L 12741122.00 20368141.00 L 12771255.00 20355660.00 L 12783736.00 20325527.00 L 12771255.00 20295394.00 L 12741122.00 20282913.00 L 12652545.00 20282913.00 L 12652545.00 20194336.00 L 12640064.00 20164203.00 L 12609931.00 20151722.00 L 12579798.00 20164203.00 L 12567317.00 20194336.00 L 12567317.00 20282913.00 L 12478740.00 20282913.00 L 12448607.00 20295394.00 L 12436126.00 20325527.00 L 12448607.00 20355660.00 L 12478740.00 20368141.00 L 12567317.00 20368141.00 L 12567317.00 20456718.00 L 12579798.00 20486851.00 L 12609931.00 20499332.00 L 12640064.00 20486851.00  z"/>
<path id="N" d="M 13164829.00 20552447.00 L 13177310.00 20522314.00 L 13177310.00 20456718.00 L 13164829.00 20426585.00 L 13046119.00 20307875.00 L 13046119.00 20128740.00 L 13033638.00 20098607.00 L 13003505.00 20086126.00 L 12973372.00 20098607.00 L 12960891.00 20128740.00 L 12960891.00 20307875.00 L 12842181.00 20426585.00 L 12829700.00 20456718.00 L 12829700.00 20522314.00 L 12842181.00 20552447.00 L 12872314.00 20564928.00 L 12902447.00 20552447.00 L 12914928.00 20522314.00 L 12914928.00 20474370.00 L 13003505.00 20385793.00 L 13092082.00 20474370.00 L 13092082.00 20522314.00 L 13104563.00 20552447.00 L 13134696.00 20564928.00 L 13164829.00 20552447.00  z"/>
<path id="N" d="M 12220202.00 21435797.00 L 12232683.00 21405664.00 L 12232683.00 21317087.00 L 12321260.00 21317087.00 L 12351393.00 21304606.00 L 12363874.00 21274473.00 L 12351393.00 21244340.00 L 12321260.00 21231859.00 L 12232683.00 21231859.00 L 12232683.00 21143282.00 L 12220202.00 21113149.00 L 12190069.00 21100668.00 L 12159936.00 21113149.00 L 12147455.00 21143282.00 L 12147455.00 21231859.00 L 12058878.00 21231859.00 L 12028745.00 21244340.00 L 12016264.00 21274473.00 L 12028745.00 21304606.00 L 12058878.00 21317087.00 L 12147455.00 21317087.00 L 12147455.00 21405664.00 L 12159936.00 21435797.00 L 12190069.00 21448278.00 L 12220202.00 21435797.00  z"/>
<path id="N" d="M 11951324.00 21506717.00 L 11969473.00 21479618.00 L 11963143.00 21447622.00 L 11847710.63 21274473.00 L 11963143.00 21101324.00 L 11969473.00 21069329.00 L 11951324.00 21042229.00 L 11919329.00 21035899.00 L 11892229.00 21054048.00 L 11796495.00 21197649.36 L 11700761.00 21054048.00 L 11673661.00 21035899.00 L 11641666.00 21042229.00 L 11623517.00 21069329.00 L 11629847.00 21101324.00 L 11745279.37 21274473.00 L 11629847.00 21447622.00 L 11623517.00 21479618.00 L 11641666.00 21506717.00 L 11673661.00 21513047.00 L 11700761.00 21494898.00 L 11796495.00 21351296.64 L 11892229.00 21494898.00 L 11919329.00 21513047.00 L 11951324.00 21506717.00  z"/>
<path id="N" d="M 8189573.00 12459273.00 L 8202054.00 12429140.00 L 8189573.00 12399007.00 L 8159440.00 12386526.00 L 7759154.00 12386526.00 L 7759154.00 11235534.00 L 8159440.00 11235534.00 L 8189573.00 11223053.00 L 8202054.00 11192920.00 L 8189573.00 11162787.00 L 8159440.00 11150306.00 L 7716540.00 11150306.00 L 7686407.00 11162787.00 L 7673926.00 11192920.00 L 7673926.00 12429140.00 L 7686407.00 12459273.00 L 7716540.00 12471754.00 L 8159440.00 12471754.00 L 8189573.00 12459273.00  z"/>
<path id="N" d="M 11031713.00 6899433.00 L 11044194.00 6869300.00 L 11031713.00 6839167.00 L 11001580.00 6826686.00 L 10712494.00 6826686.00 L 10712494.00 4262294.00 L 11001580.00 4262294.00 L 11031713.00 4249813.00 L 11044194.00 4219680.00 L 11031713.00 4189547.00 L 11001580.00 4177066.00 L 10669880.00 4177066.00 L 10639747.00 4189547.00 L 10627266.00 4219680.00 L 10627266.00 6869300.00 L 10639747.00 6899433.00 L 10669880.00 6911914.00 L 11001580.00 6911914.00 L 11031713.00 6899433.00  z"/>
<path id="N" d="M 9035253.00 9325013.00 L 9047734.00 9294880.00 L 9047734.00 4294880.00 L 9035253.00 4264747.00 L 9005120.00 4252266.00 L 8788580.00 4252266.00 L 8758447.00 4264747.00 L 8745966.00 4294880.00 L 8758447.00 4325013.00 L 8788580.00 4337494.00 L 8962506.00 4337494.00 L 8962506.00 9252266.00 L 8788580.00 9252266.00 L 8758447.00 9264747.00 L 8745966.00 9294880.00 L 8758447.00 9325013.00 L 8788580.00 9337494.00 L 9005120.00 9337494.00 L 9035253.00 9325013.00  z"/>
<path id="N" d="M 11998633.00 12459273.00 L 12011114.00 12429140.00 L 12011114.00 11192920.00 L 11998633.00 11162787.00 L 11968500.00 11150306.00 L 11525600.00 11150306.00 L 11495467.00 11162787.00 L 11482986.00 11192920.00 L 11495467.00 11223053.00 L 11525600.00 11235534.00 L 11925886.00 11235534.00 L 11925886.00 12386526.00 L 11525600.00 12386526.00 L 11495467.00 12399007.00 L 11482986.00 12429140.00 L 11495467.00 12459273.00 L 11525600.00 12471754.00 L 11968500.00 12471754.00 L 11998633.00 12459273.00  z"/>
<path id="N" d="M 6141553.00 9325013.00 L 6154034.00 9294880.00 L 6141553.00 9264747.00 L 6111420.00 9252266.00 L 5937494.00 9252266.00 L 5937494.00 4337494.00 L 6111420.00 4337494.00 L 6141553.00 4325013.00 L 6154034.00 4294880.00 L 6141553.00 4264747.00 L 6111420.00 4252266.00 L 5894880.00 4252266.00 L 5864747.00 4264747.00 L 5852266.00 4294880.00 L 5852266.00 9294880.00 L 5864747.00 9325013.00 L 5894880.00 9337494.00 L 6111420.00 9337494.00 L 6141553.00 9325013.00  z"/>
<path id="N" d="M 15401943.00 12674800.00 L 15401943.00 12025200.00 A 80284.08 80284.08 0 1 0 15241377.00 12025200.00 L 15241377.00 12674800.00 A 80284.08 80284.08 0 0 0 15401943.00 12674800.00  z"/>
<path id="N" d="M 15557080.00 16925020.00 L 13918300.00 16925020.00 L 13918300.00 12996240.00 L 15557080.00 12996240.00 A 54118.70 54118.70 0 0 0 15557080.00 12888000.00 L 13864180.00 12888000.00 L 13825911.00 12903851.00 L 13810060.00 12942120.00 L 13810060.00 16979140.00 L 13825911.00 17017409.00 L 13864180.00 17033260.00 L 15557080.00 17033260.00 A 54121.84 54121.84 0 0 0 15557080.00 16925020.00  z"/>
<path id="N" d="M 11571652.47 18150786.47 m -100354.75 0 a 100354.75 100354.75 0 1 1 200709.51 0a 100354.75 100354.75 0 1 1 -200709.51 0"/>
<path id="N" d="M 4249999.95 20949999.95 m -101959.21 0 a 101959.21 101959.21 0 1 1 203918.42 0a 101959.21 101959.21 0 1 1 -203918.42 0"/>
<path id="N" d="M 5399998.47 18407872.47 m -100354.75 0 a 100354.75 100354.75 0 1 1 200709.51 0a 100354.75 100354.75 0 1 1 -200709.51 0"/>
<path id="N" d="M 8199998.47 11499998.47 m -100354.75 0 a 100354.75 100354.75 0 1 1 200709.51 0a 100354.75 100354.75 0 1 1 -200709.51 0"/>
<path id="N" d="M 13837604.47 18403052.47 m -100354.75 0 a 100354.75 100354.75 0 1 1 200709.51 0a 100354.75 100354.75 0 1 1 -200709.51 0"/>
<path id="N" d="M 4299999.95 7999999.95 m -101959.21 0 a 101959.21 101959.21 0 1 1 203918.42 0a 101959.21 101959.21 0 1 1 -203918.42 0"/>
<path id="N" d="M 14520093.00 9660653.00 L 14532574.00 9630520.00 L 14532574.00 7069480.00 L 14520093.00 7039347.00 L 14489960.00 7026866.00 L 13110040.00 7026866.00 L 13079907.00 7039347.00 L 13067426.00 7069480.00 L 13067426.00 9630520.00 L 13079907.00 9660653.00 L 13110040.00 9673134.00 L 14489960.00 9673134.00 L 14520093.00 9660653.00  zM 14447346.00 9587906.00 L 13152654.00 9587906.00 L 13152654.00 7112094.00 L 14447346.00 7112094.00 L 14447346.00 9587906.00  z"/>
<path id="N" d="M 11660833.00 17560833.00 L 11673314.00 17530700.00 L 11673314.00 13869300.00 L 11660833.00 13839167.00 L 11630700.00 13826686.00 L 7969300.00 13826686.00 L 7939167.00 13839167.00 L 7926686.00 13869300.00 L 7926686.00 17530700.00 L 7939167.00 17560833.00 L 7969300.00 17573314.00 L 11630700.00 17573314.00 L 11660833.00 17560833.00  zM 11588086.00 17488086.00 L 8011914.00 17488086.00 L 8011914.00 13911914.00 L 11588086.00 13911914.00 L 11588086.00 17488086.00  z"/>
<path id="N" d="M 5972849.95 11017689.99 L 6021989.95 11017689.99 L 6021989.95 10968549.99 L 5972849.95 10968549.99 L 5972849.96 10919409.99 L 5727149.96 10919409.98 L 5727149.95 10968549.98 L 5678009.95 10968549.98 L 5678009.95 11017689.98 L 5727149.95 11017689.98 L 5727149.95 11066829.98 L 5972849.95 11066829.99 L 5972849.95 11017689.99  zM 5874569.95 11017689.99 L 5825429.95 11017689.98 L 5825429.95 10968549.98 L 5874569.95 10968549.99 L 5874569.95 11017689.99  z"/>
<path id="N" d="M 4249999.95 19549999.95 m -101959.21 0 a 101959.21 101959.21 0 1 1 203918.42 0a 101959.21 101959.21 0 1 1 -203918.42 0"/>
<path id="N" d="M 12049999.95 7549999.95 m -101959.21 0 a 101959.21 101959.21 0 1 1 203918.42 0a 101959.21 101959.21 0 1 1 -203918.42 0"/>
<path id="N" d="M 10499998.47 20749998.47 m -100354.75 0 a 100354.75 100354.75 0 1 1 200709.51 0a 100354.75 100354.75 0 1 1 -200709.51 0"/>
<path id="N" d="M 7949998.47 9949998.47 m -100354.75 0 a 100354.75 100354.75 0 1 1 200709.51 0a 100354.75 100354.75 0 1 1 -200709.51 0"/>
<path id="N" d="M 15205116.47 19083463.47 m -100354.75 0 a 100354.75 100354.75 0 1 1 200709.51 0a 100354.75 100354.75 0 1 1 -200709.51 0"/>
<path id="N" d="M 12954727.92 9862600.92 m -80279.37 0 a 80279.37 80279.37 0 1 1 160558.73 0a 80279.37 80279.37 0 1 1 -160558.73 0"/>
<path id="N" d="M 4250002.92 12000002.92 m -80279.37 0 a 80279.37 80279.37 0 1 1 160558.73 0a 80279.37 80279.37 0 1 1 -160558.73 0"/>
<path id="N" d="M 15116927.47 6972045.47 m -100354.75 0 a 100354.75 100354.75 0 1 1 200709.51 0a 100354.75 100354.75 0 1 1 -200709.51 0"/>
<path id="N" d="M 10472439.47 20126770.47 m -100354.75 0 a 100354.75 100354.75 0 1 1 200709.51 0a 100354.75 100354.75 0 1 1 -200709.51 0"/>
<path id="N" d="M 5299998.47 6041337.47 m -100354.75 0 a 100354.75 100354.75 0 1 1 200709.51 0a 100354.75 100354.75 0 1 1 -200709.51 0"/>
<path id="N" d="M 5099998.47 10849998.47 m -100354.75 0 a 100354.75 100354.75 0 1 1 200709.51 0a 100354.75 100354.75 0 1 1 -200709.51 0"/>
<path id="N" d="M 9550002.92 20750002.92 m -80279.37 0 a 80279.37 80279.37 0 1 1 160558.73 0a 80279.37 80279.37 0 1 1 -160558.73 0"/>
<path id="N" d="M 4599998.47 6041337.47 m -100354.75 0 a 100354.75 100354.75 0 1 1 200709.51 0a 100354.75 100354.75 0 1 1 -200709.51 0"/>
<path id="N" d="M 6465177.00 11594693.00 L 6477658.00 11564560.00 L 6477658.00 11321754.00 L 6750004.00 11321754.00 L 6780137.00 11309273.00 L 6792618.00 11279140.00 L 6780137.00 11249007.00 L 6750004.00 11236526.00 L 6435044.00 11236526.00 L 6404911.00 11249007.00 L 6392430.00 11279140.00 L 6392430.00 11564560.00 L 6404911.00 11594693.00 L 6435044.00 11607174.00 L 6465177.00 11594693.00  z"/>
<path id="N" d="M 6780137.00 12450993.00 L 6792618.00 12420860.00 L 6780137.00 12390727.00 L 6750004.00 12378246.00 L 6477658.00 12378246.00 L 6477658.00 12135440.00 L 6465177.00 12105307.00 L 6435044.00 12092826.00 L 6404911.00 12105307.00 L 6392430.00 12135440.00 L 6392430.00 12420860.00 L 6404911.00 12450993.00 L 6435044.00 12463474.00 L 6750004.00 12463474.00 L 6780137.00 12450993.00  z"/>
<path id="N" d="M 13640773.00 19133293.00 L 13653254.00 19103160.00 L 13653254.00 19067014.00 L 13689380.00 19067014.00 L 13719513.00 19054533.00 L 13731994.00 19024400.00 L 13719513.00 18994267.00 L 13689380.00 18981786.00 L 13610640.00 18981786.00 L 13580507.00 18994267.00 L 13568026.00 19024400.00 L 13568026.00 19103160.00 L 13580507.00 19133293.00 L 13610640.00 19145774.00 L 13640773.00 19133293.00  z"/>
<path id="N" d="M 7987613.00 10990373.00 L 8000094.00 10960240.00 L 7987613.00 10930107.00 L 7957480.00 10917626.00 L 7488274.00 10917626.00 L 7488274.00 10664960.00 L 7475793.00 10634827.00 L 7445660.00 10622346.00 L 7415527.00 10634827.00 L 7403046.00 10664960.00 L 7403046.00 10960240.00 L 7415527.00 10990373.00 L 7445660.00 11002854.00 L 7957480.00 11002854.00 L 7987613.00 10990373.00  z"/>
<path id="N" d="M 4995493.00 7114773.00 L 5007974.00 7084640.00 L 5007974.00 6415360.00 L 4995493.00 6385227.00 L 4965360.00 6372746.00 L 4950000.00 6379108.07 L 4934640.00 6372746.00 L 4904507.00 6385227.00 L 4892026.00 6415360.00 L 4892026.00 7084640.00 L 4904507.00 7114773.00 L 4934640.00 7127254.00 L 4950000.00 7120891.93 L 4965360.00 7127254.00 L 4995493.00 7114773.00  z"/>
<path id="N" d="M 7475793.00 10065173.00 L 7488274.00 10035040.00 L 7488274.00 9782374.00 L 7957480.00 9782374.00 L 7987613.00 9769893.00 L 8000094.00 9739760.00 L 7987613.00 9709627.00 L 7957480.00 9697146.00 L 7445660.00 9697146.00 L 7415527.00 9709627.00 L 7403046.00 9739760.00 L 7403046.00 10035040.00 L 7415527.00 10065173.00 L 7445660.00 10077654.00 L 7475793.00 10065173.00  z"/>
<path id="N" d="M 13719513.00 20393133.00 L 13731994.00 20363000.00 L 13719513.00 20332867.00 L 13689380.00 20320386.00 L 13653254.00 20320386.00 L 13653254.00 20284260.00 L 13640773.00 20254127.00 L 13610640.00 20241646.00 L 13580507.00 20254127.00 L 13568026.00 20284260.00 L 13568026.00 20363000.00 L 13580507.00 20393133.00 L 13610640.00 20405614.00 L 13689380.00 20405614.00 L 13719513.00 20393133.00  z"/>
<path id="N" d="M 14979353.00 20393133.00 L 14991834.00 20363000.00 L 14991834.00 20284260.00 L 14979353.00 20254127.00 L 14949220.00 20241646.00 L 14919087.00 20254127.00 L 14906606.00 20284260.00 L 14906606.00 20320386.00 L 14870480.00 20320386.00 L 14840347.00 20332867.00 L 14827866.00 20363000.00 L 14840347.00 20393133.00 L 14870480.00 20405614.00 L 14949220.00 20405614.00 L 14979353.00 20393133.00  z"/>
<path id="N" d="M 14979353.00 19133293.00 L 14991834.00 19103160.00 L 14991834.00 19024400.00 L 14979353.00 18994267.00 L 14949220.00 18981786.00 L 14870480.00 18981786.00 L 14840347.00 18994267.00 L 14827866.00 19024400.00 L 14840347.00 19054533.00 L 14870480.00 19067014.00 L 14906606.00 19067014.00 L 14906606.00 19103160.00 L 14919087.00 19133293.00 L 14949220.00 19145774.00 L 14979353.00 19133293.00  z"/>
<path id="N" d="M 9993899.00 16189581.00 L 10248092.00 15935388.00 L 10409518.00 16096814.00 L 10433624.00 16106799.00 L 10457730.00 16096814.00 L 10467715.00 16072708.00 L 10457730.00 16048602.00 L 10272198.00 15863070.00 L 10248092.00 15853085.00 L 10223986.00 15863070.00 L 9945687.00 16141369.00 L 9935702.00 16165475.00 L 9945687.00 16189581.00 L 9969793.00 16199566.00 L 9993899.00 16189581.00  z"/>
<path id="N" d="M 10828796.00 17024477.00 L 11082988.04 16770284.04 L 11244415.00 16931711.00 L 11268521.00 16941696.00 L 11292627.00 16931711.00 L 11302612.00 16907605.00 L 11292627.00 16883499.00 L 11107094.00 16697966.00 L 11082988.00 16687981.00 L 11058882.00 16697966.00 L 10780584.00 16976265.00 L 10770599.00 17000371.00 L 10780584.00 17024477.00 L 10804690.00 17034462.00 L 10828796.00 17024477.00  z"/>
<path id="N" d="M 9159003.00 15354684.00 L 9413195.04 15100491.04 L 9574621.00 15261917.00 L 9598727.00 15271902.00 L 9622833.00 15261917.00 L 9632818.00 15237811.00 L 9622833.00 15213705.00 L 9437301.00 15028173.00 L 9413195.00 15018188.00 L 9389089.00 15028173.00 L 9110791.00 15306472.00 L 9100806.00 15330578.00 L 9110791.00 15354684.00 L 9134897.00 15364669.00 L 9159003.00 15354684.00  z"/>
<path id="N" d="M 8324106.00 14519788.00 L 8578299.00 14265595.00 L 8739725.00 14427021.00 L 8763831.00 14437006.00 L 8787937.00 14427021.00 L 8797922.00 14402915.00 L 8787937.00 14378809.00 L 8602405.00 14193277.00 L 8578299.00 14183292.00 L 8554193.00 14193277.00 L 8275894.00 14471576.00 L 8265909.00 14495682.00 L 8275894.00 14519788.00 L 8300000.00 14529773.00 L 8324106.00 14519788.00  z"/>
<path id="N" d="M 6471988.98 17176288.99 L 6373708.98 17176288.99 L 6373708.98 17078008.99 L 6226288.98 17078008.98 L 6226288.98 17127148.98 L 6275428.98 17127148.98 L 6275428.98 17176288.98 L 6324568.98 17176288.98 L 6324568.97 17274568.98 L 6373708.97 17274568.99 L 6373708.97 17323708.99 L 6471988.97 17323708.99 L 6471988.98 17176288.99  z"/>
<path id="N" d="M 10039973.00 18818313.00 L 10052454.00 18788180.00 L 10039973.00 18758047.00 L 10009840.00 18745566.00 L 9990160.00 18745566.00 L 9960027.00 18758047.00 L 9947546.00 18788180.00 L 9960027.00 18818313.00 L 9990160.00 18830794.00 L 10009840.00 18830794.00 L 10039973.00 18818313.00  z"/>
<path id="N" d="M 6308514.00 14908514.00 L 6316440.00 14889380.00 L 6316440.00 12810640.00 L 6308514.00 12791506.00 L 6289380.00 12783580.00 L 6270246.00 12791506.00 L 6262320.00 12810640.00 L 6262320.00 14889380.00 L 6270246.00 14908514.00 L 6289380.00 14916440.00 L 6308514.00 14908514.00  z"/>
<path id="N" d="M 4229774.00 14908514.00 L 4237700.00 14889380.00 L 4237700.00 12810640.00 L 4229774.00 12791506.00 L 4210640.00 12783580.00 L 4191506.00 12791506.00 L 4183580.00 12810640.00 L 4183580.00 14889380.00 L 4191506.00 14908514.00 L 4210640.00 14916440.00 L 4229774.00 14908514.00  z"/>
<path id="N" d="M 11958473.00 7839573.00 L 11970954.00 7809440.00 L 11958473.00 7779307.00 L 11928340.00 7766826.00 L 10471660.00 7766826.00 L 10441527.00 7779307.00 L 10429046.00 7809440.00 L 10441527.00 7839573.00 L 10471660.00 7852054.00 L 11928340.00 7852054.00 L 11958473.00 7839573.00  z"/>
<path id="N" d="M 15315899.00 11915899.00 L 15325260.00 11893300.00 L 15315899.00 11870701.00 L 15293300.00 11861340.00 L 13206700.00 11861340.00 L 13184101.00 11870701.00 L 13174740.00 11893300.00 L 13184101.00 11915899.00 L 13206700.00 11925260.00 L 15293300.00 11925260.00 L 15315899.00 11915899.00  z"/>
<path id="N" d="M 5522253.00 17982893.00 L 5534734.00 17952760.00 L 5534734.00 16496060.00 L 5522253.00 16465927.00 L 5492120.00 16453446.00 L 5461987.00 16465927.00 L 5449506.00 16496060.00 L 5449506.00 17952760.00 L 5461987.00 17982893.00 L 5492120.00 17995374.00 L 5522253.00 17982893.00  z"/>
<path id="N" d="M 11958473.00 9020693.00 L 11970954.00 8990560.00 L 11958473.00 8960427.00 L 11928340.00 8947946.00 L 10471660.00 8947946.00 L 10441527.00 8960427.00 L 10429046.00 8990560.00 L 10441527.00 9020693.00 L 10471660.00 9033174.00 L 11928340.00 9033174.00 L 11958473.00 9020693.00  z"/>
<path id="N" d="M 10039973.00 19841953.00 L 10052454.00 19811820.00 L 10039973.00 19781687.00 L 10009840.00 19769206.00 L 9990160.00 19769206.00 L 9960027.00 19781687.00 L 9947546.00 19811820.00 L 9960027.00 19841953.00 L 9990160.00 19854434.00 L 10009840.00 19854434.00 L 10039973.00 19841953.00  z"/>
<path id="N" d="M 15315899.00 9829299.00 L 15325260.00 9806700.00 L 15315899.00 9784101.00 L 15293300.00 9774740.00 L 13600400.00 9774740.00 L 13577801.00 9784101.00 L 13568440.00 9806700.00 L 13577801.00 9829299.00 L 13600400.00 9838660.00 L 15293300.00 9838660.00 L 15315899.00 9829299.00  z"/>
<path id="N" d="M 5664773.00 7114773.00 L 5677254.00 7084640.00 L 5677254.00 6415360.00 L 5664773.00 6385227.00 L 5634640.00 6372746.00 L 5604507.00 6385227.00 L 5592026.00 6415360.00 L 5592026.00 7084640.00 L 5604507.00 7114773.00 L 5634640.00 7127254.00 L 5664773.00 7114773.00  z"/>
<path id="N" d="M 11710074.00 10427014.00 L 11718000.00 10407880.00 L 11718000.00 10144100.00 L 11710074.00 10124966.00 L 11690940.00 10117040.00 L 11671806.00 10124966.00 L 11663880.00 10144100.00 L 11663880.00 10407880.00 L 11671806.00 10427014.00 L 11690940.00 10434940.00 L 11710074.00 10427014.00  z"/>
<path id="N" d="M 11315173.00 19327773.00 L 11327654.00 19297640.00 L 11327654.00 19002360.00 L 11315173.00 18972227.00 L 11285040.00 18959746.00 L 11254907.00 18972227.00 L 11242426.00 19002360.00 L 11242426.00 19297640.00 L 11254907.00 19327773.00 L 11285040.00 19340254.00 L 11315173.00 19327773.00  z"/>
<path id="N" d="M 4295493.00 7114773.00 L 4307974.00 7084640.00 L 4307974.00 6415360.00 L 4295493.00 6385227.00 L 4265360.00 6372746.00 L 4235227.00 6385227.00 L 4222746.00 6415360.00 L 4222746.00 7084640.00 L 4235227.00 7114773.00 L 4265360.00 7127254.00 L 4295493.00 7114773.00  z"/>
<path id="N" d="M 11945093.00 19327773.00 L 11957574.00 19297640.00 L 11957574.00 19002360.00 L 11945093.00 18972227.00 L 11914960.00 18959746.00 L 11884827.00 18972227.00 L 11872346.00 19002360.00 L 11872346.00 19297640.00 L 11884827.00 19327773.00 L 11914960.00 19340254.00 L 11945093.00 19327773.00  z"/>
<path id="N" d="M 12154954.00 9724254.00 L 12162880.00 9705120.00 L 12154954.00 9685986.00 L 12135820.00 9678060.00 L 11875980.00 9678060.00 L 11856846.00 9685986.00 L 11848920.00 9705120.00 L 11856846.00 9724254.00 L 11875980.00 9732180.00 L 12135820.00 9732180.00 L 12154954.00 9724254.00  z"/>
<path id="N" d="M 12154954.00 10865994.00 L 12162880.00 10846860.00 L 12154954.00 10827726.00 L 12135820.00 10819800.00 L 11875980.00 10819800.00 L 11856846.00 10827726.00 L 11848920.00 10846860.00 L 11856846.00 10865994.00 L 11875980.00 10873920.00 L 12135820.00 10873920.00 L 12154954.00 10865994.00  z"/>
<path id="N" d="M 6549999.87 19869685.00 m -63921.13 0 a 63921.13 63921.13 0 1 1 127842.26 0a 63921.13 63921.13 0 1 1 -127842.26 0"/>
<path id="N" d="M 6471988.96 17569408.99 L 6521128.96 17569408.99 L 6521128.96 17520268.99 L 6226288.96 17520268.98 L 6226288.96 17569408.98 L 6177148.96 17569408.98 L 6177148.96 17618548.98 L 6471988.96 17618548.99 L 6471988.96 17569408.99  z"/>
<path id="N" d="M 6071129.96 10821129.99 L 5972849.96 10821129.99 L 5972849.96 10870269.99 L 6021989.96 10870269.99 L 6021989.96 10919409.99 L 6071129.96 10919409.99 L 6071129.96 10821129.99  z"/>
<path id="N" d="M 5678009.98 10329729.98 L 5628869.98 10329729.97 L 5628869.98 10378869.97 L 5678009.98 10378869.98 L 5678009.98 10329729.98  z"/>
<path id="N" d="M 6128008.98 16979728.98 L 6078868.98 16979728.97 L 6078868.98 17028868.97 L 6128008.98 17028868.98 L 6128008.98 16979728.98  z"/>
<path id="N" d="M 6521128.98 17078008.99 L 6471988.98 17078008.99 L 6471988.98 17127148.99 L 6521128.98 17127148.99 L 6521128.98 17078008.99  z"/>
<path id="N" d="M 5874569.98 10329729.99 L 5825429.98 10329729.98 L 5825429.98 10378869.98 L 5874569.98 10378869.99 L 5874569.98 10329729.99  z"/>
<path id="N" d="M 6373708.98 16979728.99 L 6275428.98 16979728.98 L 6275428.98 17028868.98 L 6373708.98 17028868.99 L 6373708.98 16979728.99  z"/>
<path id="N" d="M 5825429.99 10182309.98 L 5678009.99 10182309.98 L 5678009.98 10280589.98 L 5825429.98 10280589.98 L 5825429.99 10182309.98  z"/>
<path id="N" d="M 6021989.99 10182309.99 L 5874569.99 10182309.99 L 5874569.98 10280589.99 L 6021989.98 10280589.99 L 6021989.99 10182309.99  z"/>
<path id="N" d="M 9594355.00 10782047.00 L 9515695.00 10782047.00 L 9515695.00 10900037.00 L 9594355.00 10900037.00 L 9594355.00 10782047.00  z"/>
<path id="N" d="M 6275428.99 16832308.98 L 6128008.99 16832308.98 L 6128008.99 16930588.98 L 6275428.99 16930588.98 L 6275428.99 16832308.98  z"/>
</g>
</svg>
