<svg width="29.99999842mm" height="49.99999906mm" viewBox="0 0 11811023 19685039"  version="1.1" xmlns="http://www.w3.org/2000/svg" xmlns:xlink="http://www.w3.org/1999/xlink">
<desc>
Origin 0 0 Bound 3937008 3937008 11811023 19685039
</desc>
<g fill-rule="evenodd" fill="rgb(128, 128, 0)" stroke="black" stroke-width="1" transform="translate(0, 19685039) scale(1, -1) translate(-3937008, -3937008)">
<path id="N" d="M 6849994.00 13949992.29 m -299421.33 0 a 299421.33 299421.33 0 1 1 598842.67 0a 299421.33 299421.33 0 1 1 -598842.67 0"/>
<path id="N" d="M 13022259.00 4852968.00 L 13034740.00 4822835.00 L 13034740.00 4724410.00 L 13022259.00 4694277.00 L 12992126.00 4681796.00 L 6692914.00 4681796.00 L 6662781.00 4694277.00 L 6650300.00 4724410.00 L 6650300.00 4822835.00 L 6662781.00 4852968.00 L 6692914.00 4865449.00 L 6723047.00 4852968.00 L 6735528.00 4822835.00 L 6735528.00 4767024.00 L 12949512.00 4767024.00 L 12949512.00 4822835.00 L 12961993.00 4852968.00 L 12992126.00 4865449.00 L 13022259.00 4852968.00  z"/>
<path id="N" d="M 13022259.00 11053755.00 L 13034740.00 11023622.00 L 13034740.00 10531496.00 L 13022259.00 10501363.00 L 12992126.00 10488882.00 L 12961993.00 10501363.00 L 12949512.00 10531496.00 L 12949512.00 10981008.00 L 6735528.00 10981008.00 L 6735528.00 10531496.00 L 6723047.00 10501363.00 L 6692914.00 10488882.00 L 6662781.00 10501363.00 L 6650300.00 10531496.00 L 6650300.00 11023622.00 L 6662781.00 11053755.00 L 6692914.00 11066236.00 L 12992126.00 11066236.00 L 13022259.00 11053755.00  z"/>
<path id="N" d="M 15557086.00 19287219.00 L 13918293.00 19287219.00 L 13918293.00 15358451.00 L 15557086.00 15358451.00 A 54118.70 54118.70 0 1 0 15557086.00 15250211.00 L 13864173.00 15250211.00 L 13825904.00 15266062.00 L 13810053.00 15304331.00 L 13810053.00 19341339.00 L 13825904.00 19379608.00 L 13864173.00 19395459.00 L 15557086.00 19395459.00 A 54121.84 54121.84 0 1 0 15557086.00 19287219.00  z"/>
<path id="N" d="M 13602361.47 10174014.47 m -100354.75 0 a 100354.75 100354.75 0 1 1 200709.51 0a 100354.75 100354.75 0 1 1 -200709.51 0"/>
<path id="N" d="M 7249998.47 21687006.47 m -100354.75 0 a 100354.75 100354.75 0 1 1 200709.51 0a 100354.75 100354.75 0 1 1 -200709.51 0"/>
<path id="N" d="M 8815566.00 23236826.00 L 8828047.00 23206693.00 L 8828047.00 21690945.00 L 8815566.00 21660812.00 L 8785433.00 21648331.00 L 7486220.00 21648331.00 L 7456087.00 21660812.00 L 7443606.00 21690945.00 L 7456087.00 21721078.00 L 7486220.00 21733559.00 L 8742819.00 21733559.00 L 8742819.00 23206693.00 L 8755300.00 23236826.00 L 8785433.00 23249307.00 L 8815566.00 23236826.00  z"/>
<path id="N" d="M 5744700.00 23236826.00 L 5757181.00 23206693.00 L 5757181.00 21733559.00 L 7013780.00 21733559.00 L 7043913.00 21721078.00 L 7056394.00 21690945.00 L 7043913.00 21660812.00 L 7013780.00 21648331.00 L 5714567.00 21648331.00 L 5684434.00 21660812.00 L 5671953.00 21690945.00 L 5671953.00 23206693.00 L 5684434.00 23236826.00 L 5714567.00 23249307.00 L 5744700.00 23236826.00  z"/>
<path id="N" d="M 11799606.00 13378163.00 L 5500394.00 13378163.00 A 54118.70 54118.70 0 0 0 5500394.00 13486403.00 L 11799606.00 13486403.00 A 54121.84 54121.84 0 0 0 11799606.00 13378163.00  z"/>
<path id="N" d="M 11799606.00 19913597.00 L 5500394.00 19913597.00 A 54118.70 54118.70 0 1 0 5500394.00 20021837.00 L 11799606.00 20021837.00 A 54121.84 54121.84 0 1 0 11799606.00 19913597.00  z"/>
</g>
</svg>
