<svg width="29.99999842mm" height="49.99999906mm" viewBox="0 0 11811023 19685039"  version="1.1" xmlns="http://www.w3.org/2000/svg" xmlns:xlink="http://www.w3.org/1999/xlink">
<desc>
Origin 0 0 Bound 3937008 3937008 11811023 19685039
</desc>
<g fill-rule="evenodd" fill="rgb(128, 0, 128)" stroke="black" stroke-width="1" transform="translate(0, 19685039) scale(1, -1) translate(-3937008, -3937008)">
<path id="N" d="M 14589564.00 23622046.00 A 119403.94 119403.94 0 0 0 14667948.00 23432809.00 L 14614046.00 23374616.00 A 629926.01 629926.01 0 0 1 15558792.00 22541965.00 A 119406.16 119406.16 0 0 0 15748029.00 22463580.00 L 15748030.10 14685039.00 L 14549340.00 14685039.00 A 120429.94 120429.94 0 0 1 14549340.00 14448819.00 L 15748030.08 14448819.00 L 15748030.00 5095473.00 A 119403.94 119403.94 0 0 0 15558793.00 5017089.00 L 15500600.00 5070991.00 A 629926.01 629926.01 0 0 1 14667949.00 4126245.00 A 119406.16 119406.16 0 0 0 14589564.00 3937008.00 L 5095473.00 3937007.00 A 119403.94 119403.94 0 0 0 5017089.00 4126244.00 L 5070991.00 4184437.00 A 629926.01 629926.01 0 0 1 4126245.00 5017088.00 A 119406.16 119406.16 0 0 0 3937008.00 5095473.00 L 3937007.00 9643297.00 A 721075.40 721075.40 0 0 0 4041430.00 9964024.00 L 4074802.00 10009842.00 L 4106273.00 10056828.00 A 718876.83 718876.83 0 0 1 4212598.00 10433071.00 L 4212597.00 10826772.00 L 4210372.00 10883279.00 A 718868.63 718868.63 0 0 1 4074802.00 11249999.00 L 4041430.00 11295817.00 A 721094.89 721094.89 0 0 0 3937007.00 11616544.00 L 3937007.00 16237785.00 A 721075.40 721075.40 0 0 0 4041430.00 16558512.00 L 4074802.00 16604330.00 L 4106273.00 16651316.00 A 718876.83 718876.83 0 0 1 4212598.00 17027559.00 L 4212597.00 17421260.00 L 4210372.00 17477767.00 A 718868.63 718868.63 0 0 1 4074802.00 17844487.00 L 4041430.00 17890305.00 A 721116.06 721116.06 0 0 0 3937007.00 18211033.00 L 3937009.00 22463580.00 A 119400.25 119400.25 0 0 0 4126245.00 22541965.00 L 4184437.00 22488062.00 A 629926.01 629926.01 0 0 1 5017088.00 23432808.00 A 119406.16 119406.16 0 0 0 5095473.00 23622045.00 L 14589564.00 23622046.00  zM 4757480.00 6612200.00 L 4442520.00 6612200.00 L 4442520.00 6297240.00 L 4757480.00 6297240.00 L 4757480.00 6612200.00  zM 4757480.00 7202760.00 L 4442520.00 7202760.00 L 4442520.00 6887800.00 L 4757480.00 6887800.00 L 4757480.00 7202760.00  zM 5457480.00 6612200.00 L 5142520.00 6612200.00 L 5142520.00 6297240.00 L 5457480.00 6297240.00 L 5457480.00 6612200.00  zM 7075986.00 6479927.00 L 6249214.00 6479927.00 L 6249214.00 4078353.00 L 7075986.00 4078353.00 L 7075986.00 6479927.00  zM 5457480.00 7202760.00 L 5142520.00 7202760.00 L 5142520.00 6887800.00 L 5457480.00 6887800.00 L 5457480.00 7202760.00  zM 8650786.00 6479927.00 L 7824014.00 6479927.00 L 7824014.00 4078353.00 L 8650786.00 4078353.00 L 8650786.00 6479927.00  zM 4727952.00 7560635.00 L 4472048.00 7560635.00 L 4472048.00 7285045.00 L 4727952.00 7285045.00 L 4727952.00 7560635.00  zM 4727952.00 7914955.00 L 4472048.00 7914955.00 L 4472048.00 7639365.00 L 4727952.00 7639365.00 L 4727952.00 7914955.00  zM 5427952.00 7914955.00 L 5172048.00 7914955.00 L 5172048.00 7639365.00 L 5427952.00 7639365.00 L 5427952.00 7914955.00  zM 5427952.00 7560635.00 L 5172048.00 7560635.00 L 5172048.00 7285045.00 L 5427952.00 7285045.00 L 5427952.00 7560635.00  zM 5599615.00 8412210.00 L 5166545.00 8412210.00 L 5166545.00 8175990.00 L 5599615.00 8175990.00 L 5599615.00 8412210.00  zM 4733455.00 8412210.00 L 4300385.00 8412210.00 L 4300385.00 8175990.00 L 4733455.00 8175990.00 L 4733455.00 8412210.00  zM 4733455.00 8924010.00 L 4300385.00 8924010.00 L 4300385.00 8687790.00 L 4733455.00 8687790.00 L 4733455.00 8924010.00  zM 4787795.00 9427952.00 L 4512205.00 9427952.00 L 4512205.00 9172048.00 L 4787795.00 9172048.00 L 4787795.00 9427952.00  zM 5599615.00 8924010.00 L 5166545.00 8924010.00 L 5166545.00 8687790.00 L 5599615.00 8687790.00 L 5599615.00 8924010.00  zM 5142135.00 9427952.00 L 4866545.00 9427952.00 L 4866545.00 9172048.00 L 5142135.00 9172048.00 L 5142135.00 9427952.00  zM 6769298.00 10110630.00 L 6344102.00 10110630.00 L 6344102.00 9689370.00 L 6769298.00 9689370.00 L 6769298.00 10110630.00  zM 7075986.00 9629521.00 L 6249214.00 9629521.00 L 6249214.00 8212199.00 L 7075986.00 8212199.00 L 7075986.00 9629521.00  zM 7355898.00 10110630.00 L 6930702.00 10110630.00 L 6930702.00 9689370.00 L 7355898.00 9689370.00 L 7355898.00 10110630.00  zM 8650786.00 9629521.00 L 7824014.00 9629521.00 L 7824014.00 8212199.00 L 8650786.00 8212199.00 L 8650786.00 9629521.00  zM 8717760.00 10063192.00 L 8536808.00 9882240.00 L 8731680.00 9687368.00 L 8912632.00 9868320.00 L 8717760.00 10063192.00  zM 8968320.00 9812632.00 L 8787368.00 9631680.00 L 8982240.00 9436808.00 L 9163192.00 9617760.00 L 8968320.00 9812632.00  zM 4773613.00 10196850.00 L 4360227.00 10196850.00 L 4360227.00 9645670.00 L 4773613.00 9645670.00 L 4773613.00 10196850.00  zM 5344493.00 10196850.00 L 4931107.00 10196850.00 L 4931107.00 9645670.00 L 5344493.00 9645670.00 L 5344493.00 10196850.00  zM 5344493.00 11614170.00 L 4931107.00 11614170.00 L 4931107.00 11062990.00 L 5344493.00 11062990.00 L 5344493.00 11614170.00  zM 4773613.00 11614170.00 L 4360227.00 11614170.00 L 4360227.00 11062990.00 L 4773613.00 11062990.00 L 4773613.00 11614170.00  zM 5860635.00 11627956.00 L 5585045.00 11627956.00 L 5585045.00 11372052.00 L 5860635.00 11372052.00 L 5860635.00 11627956.00  zM 6214955.00 11627956.00 L 5939365.00 11627956.00 L 5939365.00 11372052.00 L 6214955.00 11372052.00 L 6214955.00 11627956.00  zM 4660635.00 12027952.00 L 4385045.00 12027952.00 L 4385045.00 11772048.00 L 4660635.00 11772048.00 L 4660635.00 12027952.00  zM 5014955.00 12027952.00 L 4739365.00 12027952.00 L 4739365.00 11772048.00 L 5014955.00 11772048.00 L 5014955.00 12027952.00  zM 5410635.00 12027952.00 L 5135045.00 12027952.00 L 5135045.00 11772048.00 L 5410635.00 11772048.00 L 5410635.00 12027952.00  zM 5764955.00 12027952.00 L 5489365.00 12027952.00 L 5489365.00 11772048.00 L 5764955.00 11772048.00 L 5764955.00 12027952.00  zM 6468925.00 11956802.00 L 6203923.00 11956802.00 A 106801.81 106801.81 0 1 1 6203923.00 11743198.00 L 6468925.00 11743198.00 A 106801.81 106801.81 0 1 1 6468925.00 11956802.00  zM 7504725.00 10527165.00 L 7150395.00 10527165.00 L 7150395.00 10172835.00 L 7504725.00 10172835.00 L 7504725.00 10527165.00  zM 8449605.00 10153145.00 L 8095275.00 10153145.00 L 8095275.00 9798815.00 L 8449605.00 9798815.00 L 8449605.00 10153145.00  zM 8449605.00 10901185.00 L 8095275.00 10901185.00 L 8095275.00 10546855.00 L 8449605.00 10546855.00 L 8449605.00 10901185.00  zM 7400835.00 11580730.00 L 6926333.00 11580730.00 L 6926333.00 11371230.00 L 7400835.00 11371230.00 L 7400835.00 11580730.00  zM 8385830.00 11342515.00 L 8307090.00 11342515.00 L 8307090.00 11066925.00 L 8385830.00 11066925.00 L 8385830.00 11342515.00  zM 8543310.00 11342515.00 L 8464570.00 11342515.00 L 8464570.00 11066925.00 L 8543310.00 11066925.00 L 8543310.00 11342515.00  zM 8700790.00 11342515.00 L 8622050.00 11342515.00 L 8622050.00 11066925.00 L 8700790.00 11066925.00 L 8700790.00 11342515.00  zM 8858270.00 11342515.00 L 8779530.00 11342515.00 L 8779530.00 11066925.00 L 8858270.00 11066925.00 L 8858270.00 11342515.00  zM 9015750.00 11342515.00 L 8937010.00 11342515.00 L 8937010.00 11066925.00 L 9015750.00 11066925.00 L 9015750.00 11342515.00  zM 9173230.00 11342515.00 L 9094490.00 11342515.00 L 9094490.00 11066925.00 L 9173230.00 11066925.00 L 9173230.00 11342515.00  zM 9330710.00 11342515.00 L 9251970.00 11342515.00 L 9251970.00 11066925.00 L 9330710.00 11066925.00 L 9330710.00 11342515.00  zM 10440551.00 4953940.00 L 9259449.00 4953940.00 L 9259449.00 4324020.00 L 10440551.00 4324020.00 L 10440551.00 4953940.00  zM 9741732.00 5526386.00 L 9458268.00 5526386.00 L 9458268.00 5227174.00 L 9741732.00 5227174.00 L 9741732.00 5526386.00  zM 9741732.00 5872826.00 L 9458268.00 5872826.00 L 9458268.00 5573614.00 L 9741732.00 5573614.00 L 9741732.00 5872826.00  zM 10440551.00 6764960.00 L 9259449.00 6764960.00 L 9259449.00 6135040.00 L 10440551.00 6135040.00 L 10440551.00 6764960.00  zM 10372826.00 7291732.00 L 10073614.00 7291732.00 L 10073614.00 7008268.00 L 10372826.00 7008268.00 L 10372826.00 7291732.00  zM 12091732.00 7276386.00 L 11808268.00 7276386.00 L 11808268.00 6977174.00 L 12091732.00 6977174.00 L 12091732.00 7276386.00  zM 10026386.00 7291732.00 L 9727174.00 7291732.00 L 9727174.00 7008268.00 L 10026386.00 7008268.00 L 10026386.00 7291732.00  zM 11022833.00 8882283.00 L 10137007.00 8882283.00 L 10137007.00 7917717.00 L 11022833.00 7917717.00 L 11022833.00 8882283.00  zM 12091732.00 7622826.00 L 11808268.00 7622826.00 L 11808268.00 7323614.00 L 12091732.00 7323614.00 L 12091732.00 7622826.00  zM 11426386.00 9541732.00 L 11127174.00 9541732.00 L 11127174.00 9258268.00 L 11426386.00 9258268.00 L 11426386.00 9541732.00  zM 11772826.00 9541732.00 L 11473614.00 9541732.00 L 11473614.00 9258268.00 L 11772826.00 9258268.00 L 11772826.00 9541732.00  zM 13787017.00 6863377.00 L 11149223.00 6863377.00 L 11149223.00 4225583.00 L 13787017.00 4225583.00 L 13787017.00 6863377.00  zM 12491732.00 7276386.00 L 12208268.00 7276386.00 L 12208268.00 6977174.00 L 12491732.00 6977174.00 L 12491732.00 7276386.00  zM 12491732.00 7622826.00 L 12208268.00 7622826.00 L 12208268.00 7323614.00 L 12491732.00 7323614.00 L 12491732.00 7622826.00  zM 12891732.00 7276386.00 L 12608268.00 7276386.00 L 12608268.00 6977174.00 L 12891732.00 6977174.00 L 12891732.00 7276386.00  zM 12891732.00 7622826.00 L 12608268.00 7622826.00 L 12608268.00 7323614.00 L 12891732.00 7323614.00 L 12891732.00 7622826.00  zM 15373671.00 7627973.00 L 14860169.00 7627973.00 L 14860169.00 7268867.00 L 15373671.00 7268867.00 L 15373671.00 7627973.00  zM 12560105.00 8987799.00 L 12406055.00 8987799.00 L 12335929.00 8973850.00 L 12276480.00 8934127.00 L 12241838.56 8882283.00 L 11377167.00 8882283.00 L 11377167.00 7917717.00 L 12222808.00 7917717.00 L 12222808.00 7895448.00 A 183244.99 183244.99 0 0 1 12406055.00 7712201.00 L 12560105.00 7712201.00 A 183244.99 183244.99 0 0 1 12743352.00 7895448.00 L 12743352.00 8804552.00 A 183244.99 183244.99 0 0 1 12560105.00 8987799.00  zM 12326386.00 9541732.00 L 12027174.00 9541732.00 L 12027174.00 9258268.00 L 12326386.00 9258268.00 L 12326386.00 9541732.00  zM 12672826.00 9541732.00 L 12373614.00 9541732.00 L 12373614.00 9258268.00 L 12672826.00 9258268.00 L 12672826.00 9541732.00  zM 15194118.00 8533071.00 L 15039722.00 8533071.00 A 183069.43 183069.43 0 1 1 15039722.00 8166929.00 L 15194118.00 8166929.00 A 183069.43 183069.43 0 1 1 15194118.00 8533071.00  zM 15194118.00 9434651.00 L 15039722.00 9434651.00 A 183069.43 183069.43 0 1 1 15039722.00 9068509.00 L 15194118.00 9068509.00 A 183069.43 183069.43 0 1 1 15194118.00 9434651.00  zM 9488190.00 11342515.00 L 9409450.00 11342515.00 L 9409450.00 11066925.00 L 9488190.00 11066925.00 L 9488190.00 11342515.00  zM 9645670.00 11342515.00 L 9566930.00 11342515.00 L 9566930.00 11066925.00 L 9645670.00 11066925.00 L 9645670.00 11342515.00  zM 9803150.00 11342515.00 L 9724410.00 11342515.00 L 9724410.00 11066925.00 L 9803150.00 11066925.00 L 9803150.00 11342515.00  zM 9960630.00 11342515.00 L 9881890.00 11342515.00 L 9881890.00 11066925.00 L 9960630.00 11066925.00 L 9960630.00 11342515.00  zM 10118110.00 11342515.00 L 10039370.00 11342515.00 L 10039370.00 11066925.00 L 10118110.00 11066925.00 L 10118110.00 11342515.00  zM 10275590.00 11342515.00 L 10196850.00 11342515.00 L 10196850.00 11066925.00 L 10275590.00 11066925.00 L 10275590.00 11342515.00  zM 10433070.00 11342515.00 L 10354330.00 11342515.00 L 10354330.00 11066925.00 L 10433070.00 11066925.00 L 10433070.00 11342515.00  zM 10590550.00 11342515.00 L 10511810.00 11342515.00 L 10511810.00 11066925.00 L 10590550.00 11066925.00 L 10590550.00 11342515.00  zM 10748030.00 11342515.00 L 10669290.00 11342515.00 L 10669290.00 11066925.00 L 10748030.00 11066925.00 L 10748030.00 11342515.00  zM 10905510.00 11342515.00 L 10826770.00 11342515.00 L 10826770.00 11066925.00 L 10905510.00 11066925.00 L 10905510.00 11342515.00  zM 11062990.00 11342515.00 L 10984250.00 11342515.00 L 10984250.00 11066925.00 L 11062990.00 11066925.00 L 11062990.00 11342515.00  zM 11691939.00 10039309.00 L 11331701.00 10039309.00 A 79283.25 79283.25 0 0 1 11252423.00 9960031.00 L 11252423.00 9843889.00 A 79283.25 79283.25 0 0 1 11331701.00 9764611.00 L 11691939.00 9764611.00 A 79283.25 79283.25 0 0 1 11771217.00 9843889.00 L 11771217.00 9960031.00 A 79283.25 79283.25 0 0 1 11691939.00 10039309.00  zM 11377950.00 11342515.00 L 11299210.00 11342515.00 L 11299210.00 11066925.00 L 11377950.00 11066925.00 L 11377950.00 11342515.00  zM 11220470.00 11342515.00 L 11141730.00 11342515.00 L 11141730.00 11066925.00 L 11220470.00 11066925.00 L 11220470.00 11342515.00  zM 11691939.00 10787349.00 L 11331701.00 10787349.00 A 79283.25 79283.25 0 0 1 11252423.00 10708071.00 L 11252423.00 10591929.00 A 79283.25 79283.25 0 0 1 11331701.00 10512651.00 L 11691939.00 10512651.00 A 79283.25 79283.25 0 0 1 11771217.00 10591929.00 L 11771217.00 10708071.00 A 79283.25 79283.25 0 0 1 11691939.00 10787349.00  zM 12680119.00 10413329.00 L 12319881.00 10413329.00 A 79283.25 79283.25 0 0 1 12240603.00 10334051.00 L 12240603.00 10217909.00 A 79283.25 79283.25 0 0 1 12319881.00 10138631.00 L 12680119.00 10138631.00 A 79283.25 79283.25 0 0 1 12759397.00 10217909.00 L 12759397.00 10334051.00 A 79283.25 79283.25 0 0 1 12680119.00 10413329.00  zM 12680119.00 10039309.00 L 12319881.00 10039309.00 A 79283.25 79283.25 0 0 1 12240603.00 9960031.00 L 12240603.00 9843889.00 A 79283.25 79283.25 0 0 1 12319881.00 9764611.00 L 12680119.00 9764611.00 A 79283.25 79283.25 0 0 1 12759397.00 9843889.00 L 12759397.00 9960031.00 A 79283.25 79283.25 0 0 1 12680119.00 10039309.00  zM 12680119.00 10787349.00 L 12319881.00 10787349.00 A 79283.25 79283.25 0 0 1 12240603.00 10708071.00 L 12240603.00 10591929.00 A 79283.25 79283.25 0 0 1 12319881.00 10512651.00 L 12680119.00 10512651.00 A 79283.25 79283.25 0 0 1 12759397.00 10591929.00 L 12759397.00 10708071.00 A 79283.25 79283.25 0 0 1 12680119.00 10787349.00  zM 13875975.00 11755515.00 L 13127945.00 11755515.00 L 13127945.00 11322445.00 L 13875975.00 11322445.00 L 13875975.00 11755515.00  zM 15372055.00 10377555.00 L 14624025.00 10377555.00 L 14624025.00 9944485.00 L 15372055.00 9944485.00 L 15372055.00 10377555.00  zM 15372055.00 11755515.00 L 14624025.00 11755515.00 L 14624025.00 11322445.00 L 15372055.00 11322445.00 L 15372055.00 11755515.00  zM 5085630.00 12771288.00 L 4914370.00 12771288.00 L 4877458.00 12755998.00 L 4862168.00 12719086.00 L 4862168.00 12142314.00 L 4877458.00 12105402.00 L 4914370.00 12090112.00 L 5085630.00 12090112.00 L 5122542.00 12105402.00 L 5137832.00 12142314.00 L 5137832.00 12719086.00 L 5122542.00 12755998.00 L 5085630.00 12771288.00  zM 5585630.00 12771288.00 L 5414370.00 12771288.00 L 5377458.00 12755998.00 L 5362168.00 12719086.00 L 5362168.00 12142314.00 L 5377458.00 12105402.00 L 5414370.00 12090112.00 L 5585630.00 12090112.00 L 5622542.00 12105402.00 L 5637832.00 12142314.00 L 5637832.00 12719086.00 L 5622542.00 12755998.00 L 5585630.00 12771288.00  zM 6085630.00 12771288.00 L 5914370.00 12771288.00 L 5877458.00 12755998.00 L 5862168.00 12719086.00 L 5862168.00 12142314.00 L 5877458.00 12105402.00 L 5914370.00 12090112.00 L 6085630.00 12090112.00 L 6122542.00 12105402.00 L 6137832.00 12142314.00 L 6137832.00 12719086.00 L 6122542.00 12755998.00 L 6085630.00 12771288.00  zM 4585630.00 12771288.00 L 4414370.00 12771288.00 L 4377458.00 12755998.00 L 4362168.00 12719086.00 L 4362168.00 12142314.00 L 4377458.00 12105402.00 L 4414370.00 12090112.00 L 4585630.00 12090112.00 L 4622542.00 12105402.00 L 4637832.00 12142314.00 L 4637832.00 12719086.00 L 4622542.00 12755998.00 L 4585630.00 12771288.00  zM 6776386.00 14591732.00 L 6477174.00 14591732.00 L 6477174.00 14308268.00 L 6776386.00 14308268.00 L 6776386.00 14591732.00  zM 6776386.00 14941732.00 L 6477174.00 14941732.00 L 6477174.00 14658268.00 L 6776386.00 14658268.00 L 6776386.00 14941732.00  zM 7296085.00 12330822.00 L 7031083.00 12330822.00 A 106801.81 106801.81 0 0 1 7031083.00 12117218.00 L 7296085.00 12117218.00 A 106801.81 106801.81 0 0 1 7296085.00 12330822.00  zM 7122826.00 14591732.00 L 6823614.00 14591732.00 L 6823614.00 14308268.00 L 7122826.00 14308268.00 L 7122826.00 14591732.00  zM 7122826.00 14941732.00 L 6823614.00 14941732.00 L 6823614.00 14658268.00 L 7122826.00 14658268.00 L 7122826.00 14941732.00  zM 7850979.00 14892920.00 L 7230901.00 14892920.00 L 7230901.00 14735440.00 L 7850979.00 14735440.00 L 7850979.00 14892920.00  zM 7850979.00 15089760.00 L 7230901.00 15089760.00 L 7230901.00 14932280.00 L 7850979.00 14932280.00 L 7850979.00 15089760.00  zM 4585630.00 15609888.00 L 4414370.00 15609888.00 L 4377458.00 15594598.00 L 4362168.00 15557686.00 L 4362168.00 14980914.00 L 4377458.00 14944002.00 L 4414370.00 14928712.00 L 4585630.00 14928712.00 L 4622542.00 14944002.00 L 4637832.00 14980914.00 L 4637832.00 15557686.00 L 4622542.00 15594598.00 L 4585630.00 15609888.00  zM 4476386.00 16041732.00 L 4177174.00 16041732.00 L 4177174.00 15758268.00 L 4476386.00 15758268.00 L 4476386.00 16041732.00  zM 4822826.00 16041732.00 L 4523614.00 16041732.00 L 4523614.00 15758268.00 L 4822826.00 15758268.00 L 4822826.00 16041732.00  zM 5085630.00 15609888.00 L 4914370.00 15609888.00 L 4877458.00 15594598.00 L 4862168.00 15557686.00 L 4862168.00 14980914.00 L 4877458.00 14944002.00 L 4914370.00 14928712.00 L 5085630.00 14928712.00 L 5122542.00 14944002.00 L 5137832.00 14980914.00 L 5137832.00 15557686.00 L 5122542.00 15594598.00 L 5085630.00 15609888.00  zM 5585630.00 15609888.00 L 5414370.00 15609888.00 L 5377458.00 15594598.00 L 5362168.00 15557686.00 L 5362168.00 14980914.00 L 5377458.00 14944002.00 L 5414370.00 14928712.00 L 5585630.00 14928712.00 L 5622542.00 14944002.00 L 5637832.00 14980914.00 L 5637832.00 15557686.00 L 5622542.00 15594598.00 L 5585630.00 15609888.00  zM 6085630.00 15609888.00 L 5914370.00 15609888.00 L 5877458.00 15594598.00 L 5862168.00 15557686.00 L 5862168.00 14980914.00 L 5877458.00 14944002.00 L 5914370.00 14928712.00 L 6085630.00 14928712.00 L 6122542.00 14944002.00 L 6137832.00 14980914.00 L 6137832.00 15557686.00 L 6122542.00 15594598.00 L 6085630.00 15609888.00  zM 6710635.00 15277952.00 L 6435045.00 15277952.00 L 6435045.00 15022048.00 L 6710635.00 15022048.00 L 6710635.00 15277952.00  zM 7064955.00 15277952.00 L 6789365.00 15277952.00 L 6789365.00 15022048.00 L 7064955.00 15022048.00 L 7064955.00 15277952.00  zM 7850979.00 15877160.00 L 7230901.00 15877160.00 L 7230901.00 15719680.00 L 7850979.00 15719680.00 L 7850979.00 15877160.00  zM 7850979.00 15680320.00 L 7230901.00 15680320.00 L 7230901.00 15522840.00 L 7850979.00 15522840.00 L 7850979.00 15680320.00  zM 7850979.00 15483460.00 L 7230901.00 15483460.00 L 7230901.00 15325980.00 L 7850979.00 15325980.00 L 7850979.00 15483460.00  zM 8385830.00 12555115.00 L 8307090.00 12555115.00 L 8307090.00 12279525.00 L 8385830.00 12279525.00 L 8385830.00 12555115.00  zM 8700790.00 12555115.00 L 8622050.00 12555115.00 L 8622050.00 12279525.00 L 8700790.00 12279525.00 L 8700790.00 12555115.00  zM 8858270.00 12555115.00 L 8779530.00 12555115.00 L 8779530.00 12279525.00 L 8858270.00 12279525.00 L 8858270.00 12555115.00  zM 9015750.00 12555115.00 L 8937010.00 12555115.00 L 8937010.00 12279525.00 L 9015750.00 12279525.00 L 9015750.00 12555115.00  zM 9173230.00 12555115.00 L 9094490.00 12555115.00 L 9094490.00 12279525.00 L 9173230.00 12279525.00 L 9173230.00 12555115.00  zM 9645670.00 12555115.00 L 9566930.00 12555115.00 L 9566930.00 12279525.00 L 9645670.00 12279525.00 L 9645670.00 12555115.00  zM 8543310.00 12555115.00 L 8464570.00 12555115.00 L 8464570.00 12279525.00 L 8543310.00 12279525.00 L 8543310.00 12555115.00  zM 9330710.00 12555115.00 L 9251970.00 12555115.00 L 9251970.00 12279525.00 L 9330710.00 12279525.00 L 9330710.00 12555115.00  zM 9488190.00 12555115.00 L 9409450.00 12555115.00 L 9409450.00 12279525.00 L 9488190.00 12279525.00 L 9488190.00 12555115.00  zM 8402360.00 13750979.00 L 8244880.00 13750979.00 L 8244880.00 13130901.00 L 8402360.00 13130901.00 L 8402360.00 13750979.00  zM 9583460.00 13750979.00 L 9425980.00 13750979.00 L 9425980.00 13130901.00 L 9583460.00 13130901.00 L 9583460.00 13750979.00  zM 7850979.00 14499220.00 L 7230901.00 14499220.00 L 7230901.00 14341740.00 L 7850979.00 14341740.00 L 7850979.00 14499220.00  zM 7850979.00 14302360.00 L 7230901.00 14302360.00 L 7230901.00 14144880.00 L 7850979.00 14144880.00 L 7850979.00 14302360.00  zM 8599220.00 13750979.00 L 8441740.00 13750979.00 L 8441740.00 13130901.00 L 8599220.00 13130901.00 L 8599220.00 13750979.00  zM 7850979.00 14696060.00 L 7230901.00 14696060.00 L 7230901.00 14538580.00 L 7850979.00 14538580.00 L 7850979.00 14696060.00  zM 7850979.00 15286620.00 L 7230901.00 15286620.00 L 7230901.00 15129140.00 L 7850979.00 15129140.00 L 7850979.00 15286620.00  zM 8992920.00 13750979.00 L 8835440.00 13750979.00 L 8835440.00 13130901.00 L 8992920.00 13130901.00 L 8992920.00 13750979.00  zM 8796060.00 13750979.00 L 8638580.00 13750979.00 L 8638580.00 13130901.00 L 8796060.00 13130901.00 L 8796060.00 13750979.00  zM 9189760.00 13750979.00 L 9032280.00 13750979.00 L 9032280.00 13130901.00 L 9189760.00 13130901.00 L 9189760.00 13750979.00  zM 9386620.00 13750979.00 L 9229140.00 13750979.00 L 9229140.00 13130901.00 L 9386620.00 13130901.00 L 9386620.00 13750979.00  zM 9780320.00 13750979.00 L 9622840.00 13750979.00 L 9622840.00 13130901.00 L 9780320.00 13130901.00 L 9780320.00 13750979.00  zM 9803150.00 12555115.00 L 9724410.00 12555115.00 L 9724410.00 12279525.00 L 9803150.00 12279525.00 L 9803150.00 12555115.00  zM 9960630.00 12555115.00 L 9881890.00 12555115.00 L 9881890.00 12279525.00 L 9960630.00 12279525.00 L 9960630.00 12555115.00  zM 10118110.00 12555115.00 L 10039370.00 12555115.00 L 10039370.00 12279525.00 L 10118110.00 12279525.00 L 10118110.00 12555115.00  zM 10275590.00 12555115.00 L 10196850.00 12555115.00 L 10196850.00 12279525.00 L 10275590.00 12279525.00 L 10275590.00 12555115.00  zM 10433070.00 12555115.00 L 10354330.00 12555115.00 L 10354330.00 12279525.00 L 10433070.00 12279525.00 L 10433070.00 12555115.00  zM 10590550.00 12555115.00 L 10511810.00 12555115.00 L 10511810.00 12279525.00 L 10590550.00 12279525.00 L 10590550.00 12555115.00  zM 10748030.00 12555115.00 L 10669290.00 12555115.00 L 10669290.00 12279525.00 L 10748030.00 12279525.00 L 10748030.00 12555115.00  zM 10905510.00 12555115.00 L 10826770.00 12555115.00 L 10826770.00 12279525.00 L 10905510.00 12279525.00 L 10905510.00 12555115.00  zM 11062990.00 12555115.00 L 10984250.00 12555115.00 L 10984250.00 12279525.00 L 11062990.00 12279525.00 L 11062990.00 12555115.00  zM 11220470.00 12555115.00 L 11141730.00 12555115.00 L 11141730.00 12279525.00 L 11220470.00 12279525.00 L 11220470.00 12555115.00  zM 11377950.00 12555115.00 L 11299210.00 12555115.00 L 11299210.00 12279525.00 L 11377950.00 12279525.00 L 11377950.00 12555115.00  zM 10174020.00 13750979.00 L 10016540.00 13750979.00 L 10016540.00 13130901.00 L 10174020.00 13130901.00 L 10174020.00 13750979.00  zM 9977160.00 13750979.00 L 9819680.00 13750979.00 L 9819680.00 13130901.00 L 9977160.00 13130901.00 L 9977160.00 13750979.00  zM 10370860.00 13750979.00 L 10213380.00 13750979.00 L 10213380.00 13130901.00 L 10370860.00 13130901.00 L 10370860.00 13750979.00  zM 10764560.00 13750979.00 L 10607080.00 13750979.00 L 10607080.00 13130901.00 L 10764560.00 13130901.00 L 10764560.00 13750979.00  zM 10567720.00 13750979.00 L 10410240.00 13750979.00 L 10410240.00 13130901.00 L 10567720.00 13130901.00 L 10567720.00 13750979.00  zM 10961420.00 13750979.00 L 10803940.00 13750979.00 L 10803940.00 13130901.00 L 10961420.00 13130901.00 L 10961420.00 13750979.00  zM 11158260.00 13750979.00 L 11000780.00 13750979.00 L 11000780.00 13130901.00 L 11158260.00 13130901.00 L 11158260.00 13750979.00  zM 11355120.00 13750979.00 L 11197640.00 13750979.00 L 11197640.00 13130901.00 L 11355120.00 13130901.00 L 11355120.00 13750979.00  zM 12072826.00 13591732.00 L 11773614.00 13591732.00 L 11773614.00 13308268.00 L 12072826.00 13308268.00 L 12072826.00 13591732.00  zM 11726386.00 13591732.00 L 11427174.00 13591732.00 L 11427174.00 13308268.00 L 11726386.00 13308268.00 L 11726386.00 13591732.00  zM 12369099.00 15089760.00 L 11749021.00 15089760.00 L 11749021.00 14932280.00 L 12369099.00 14932280.00 L 12369099.00 15089760.00  zM 12593198.00 12068921.00 L 12593198.00 11803919.00 A 106801.81 106801.81 0 0 1 12806802.00 11803919.00 L 12806802.00 12068921.00 A 106801.81 106801.81 0 1 1 12593198.00 12068921.00  zM 13178770.00 13000831.00 L 12969270.00 13000831.00 L 12969270.00 12526329.00 L 13178770.00 12526329.00 L 13178770.00 13000831.00  zM 12219178.00 12896081.00 L 12219178.00 12631079.00 A 106801.81 106801.81 0 1 1 12432782.00 12631079.00 L 12432782.00 12896081.00 A 106801.81 106801.81 0 0 1 12219178.00 12896081.00  zM 12487795.00 13577952.00 L 12212205.00 13577952.00 L 12212205.00 13322048.00 L 12487795.00 13322048.00 L 12487795.00 13577952.00  zM 12842135.00 13577952.00 L 12566545.00 13577952.00 L 12566545.00 13322048.00 L 12842135.00 13322048.00 L 12842135.00 13577952.00  zM 13187795.00 13577952.00 L 12912205.00 13577952.00 L 12912205.00 13322048.00 L 13187795.00 13322048.00 L 13187795.00 13577952.00  zM 13854685.00 12609685.00 L 13455315.00 12609685.00 L 13455315.00 12090315.00 L 13854685.00 12090315.00 L 13854685.00 12609685.00  zM 15550586.00 13605875.00 L 13936414.00 13605875.00 L 13936414.00 13172805.00 L 15550586.00 13172805.00 L 15550586.00 13605875.00  zM 15144685.00 12609685.00 L 14745315.00 12609685.00 L 14745315.00 12090315.00 L 15144685.00 12090315.00 L 15144685.00 12609685.00  zM 13542135.00 13577952.00 L 13266545.00 13577952.00 L 13266545.00 13322048.00 L 13542135.00 13322048.00 L 13542135.00 13577952.00  zM 15550586.00 14393275.00 L 13936414.00 14393275.00 L 13936414.00 13960205.00 L 15550586.00 13960205.00 L 15550586.00 14393275.00  zM 12369099.00 14302360.00 L 11749021.00 14302360.00 L 11749021.00 14144880.00 L 12369099.00 14144880.00 L 12369099.00 14302360.00  zM 12369099.00 14499220.00 L 11749021.00 14499220.00 L 11749021.00 14341740.00 L 12369099.00 14341740.00 L 12369099.00 14499220.00  zM 12369099.00 15286620.00 L 11749021.00 15286620.00 L 11749021.00 15129140.00 L 12369099.00 15129140.00 L 12369099.00 15286620.00  zM 12369099.00 15483460.00 L 11749021.00 15483460.00 L 11749021.00 15325980.00 L 12369099.00 15325980.00 L 12369099.00 15483460.00  zM 12369099.00 15680320.00 L 11749021.00 15680320.00 L 11749021.00 15522840.00 L 12369099.00 15522840.00 L 12369099.00 15680320.00  zM 12369099.00 14696060.00 L 11749021.00 14696060.00 L 11749021.00 14538580.00 L 12369099.00 14538580.00 L 12369099.00 14696060.00  zM 12369099.00 14892920.00 L 11749021.00 14892920.00 L 11749021.00 14735440.00 L 12369099.00 14735440.00 L 12369099.00 14892920.00  zM 12369099.00 15877160.00 L 11749021.00 15877160.00 L 11749021.00 15719680.00 L 12369099.00 15719680.00 L 12369099.00 15877160.00  zM 15550586.00 15968095.00 L 13936414.00 15968095.00 L 13936414.00 15535025.00 L 15550586.00 15535025.00 L 15550586.00 15968095.00  zM 15550586.00 15180695.00 L 13936414.00 15180695.00 L 13936414.00 14747625.00 L 15550586.00 14747625.00 L 15550586.00 15180695.00  zM 4773613.00 16791330.00 L 4360227.00 16791330.00 L 4360227.00 16240150.00 L 4773613.00 16240150.00 L 4773613.00 16791330.00  zM 5344493.00 16791330.00 L 4931107.00 16791330.00 L 4931107.00 16240150.00 L 5344493.00 16240150.00 L 5344493.00 16791330.00  zM 5827952.00 16860635.00 L 5572048.00 16860635.00 L 5572048.00 16585045.00 L 5827952.00 16585045.00 L 5827952.00 16860635.00  zM 5827952.00 17214955.00 L 5572048.00 17214955.00 L 5572048.00 16939365.00 L 5827952.00 16939365.00 L 5827952.00 17214955.00  zM 5841732.00 17626386.00 L 5558268.00 17626386.00 L 5558268.00 17327174.00 L 5841732.00 17327174.00 L 5841732.00 17626386.00  zM 5841732.00 17972826.00 L 5558268.00 17972826.00 L 5558268.00 17673614.00 L 5841732.00 17673614.00 L 5841732.00 17972826.00  zM 4773613.00 18208670.00 L 4360227.00 18208670.00 L 4360227.00 17657490.00 L 4773613.00 17657490.00 L 4773613.00 18208670.00  zM 4712210.00 18883455.00 L 4475990.00 18883455.00 L 4475990.00 18450385.00 L 4712210.00 18450385.00 L 4712210.00 18883455.00  zM 5224010.00 18883455.00 L 4987790.00 18883455.00 L 4987790.00 18450385.00 L 5224010.00 18450385.00 L 5224010.00 18883455.00  zM 5344493.00 18208670.00 L 4931107.00 18208670.00 L 4931107.00 17657490.00 L 5344493.00 17657490.00 L 5344493.00 18208670.00  zM 6210635.00 18827952.00 L 5935045.00 18827952.00 L 5935045.00 18572048.00 L 6210635.00 18572048.00 L 6210635.00 18827952.00  zM 7041732.00 16776386.00 L 6758268.00 16776386.00 L 6758268.00 16477174.00 L 7041732.00 16477174.00 L 7041732.00 16776386.00  zM 7850979.00 16467720.00 L 7230901.00 16467720.00 L 7230901.00 16310240.00 L 7850979.00 16310240.00 L 7850979.00 16467720.00  zM 7850979.00 16664560.00 L 7230901.00 16664560.00 L 7230901.00 16507080.00 L 7850979.00 16507080.00 L 7850979.00 16664560.00  zM 7041732.00 17122826.00 L 6758268.00 17122826.00 L 6758268.00 16823614.00 L 7041732.00 16823614.00 L 7041732.00 17122826.00  zM 7850979.00 17255120.00 L 7230901.00 17255120.00 L 7230901.00 17097640.00 L 7850979.00 17097640.00 L 7850979.00 17255120.00  zM 6564955.00 18827952.00 L 6289365.00 18827952.00 L 6289365.00 18572048.00 L 6564955.00 18572048.00 L 6564955.00 18827952.00  zM 6227756.00 19225984.00 L 6076182.00 19225984.00 L 6076182.00 19080316.00 L 6227756.00 19080316.00 L 6227756.00 19225984.00  zM 6424409.00 19127362.00 L 6278741.00 19127362.00 L 6278741.00 18975788.00 L 6424409.00 18975788.00 L 6424409.00 19127362.00  zM 6621259.00 19127362.00 L 6475591.00 19127362.00 L 6475591.00 18975788.00 L 6621259.00 18975788.00 L 6621259.00 19127362.00  zM 6823818.00 19225984.00 L 6672244.00 19225984.00 L 6672244.00 19080316.00 L 6823818.00 19080316.00 L 6823818.00 19225984.00  zM 7241732.00 19376386.00 L 6958268.00 19376386.00 L 6958268.00 19077174.00 L 7241732.00 19077174.00 L 7241732.00 19376386.00  zM 7850979.00 16074020.00 L 7230901.00 16074020.00 L 7230901.00 15916540.00 L 7850979.00 15916540.00 L 7850979.00 16074020.00  zM 7850979.00 16270860.00 L 7230901.00 16270860.00 L 7230901.00 16113380.00 L 7850979.00 16113380.00 L 7850979.00 16270860.00  zM 7850979.00 16861420.00 L 7230901.00 16861420.00 L 7230901.00 16703940.00 L 7850979.00 16703940.00 L 7850979.00 16861420.00  zM 7850979.00 17058260.00 L 7230901.00 17058260.00 L 7230901.00 16900780.00 L 7850979.00 16900780.00 L 7850979.00 17058260.00  zM 8402360.00 18269099.00 L 8244880.00 18269099.00 L 8244880.00 17649021.00 L 8402360.00 17649021.00 L 8402360.00 18269099.00  zM 8992920.00 18269099.00 L 8835440.00 18269099.00 L 8835440.00 17649021.00 L 8992920.00 17649021.00 L 8992920.00 18269099.00  zM 9780320.00 18269099.00 L 9622840.00 18269099.00 L 9622840.00 17649021.00 L 9780320.00 17649021.00 L 9780320.00 18269099.00  zM 9583460.00 18269099.00 L 9425980.00 18269099.00 L 9425980.00 17649021.00 L 9583460.00 17649021.00 L 9583460.00 18269099.00  zM 9977160.00 18269099.00 L 9819680.00 18269099.00 L 9819680.00 17649021.00 L 9977160.00 17649021.00 L 9977160.00 18269099.00  zM 10370860.00 18269099.00 L 10213380.00 18269099.00 L 10213380.00 17649021.00 L 10370860.00 17649021.00 L 10370860.00 18269099.00  zM 10174020.00 18269099.00 L 10016540.00 18269099.00 L 10016540.00 17649021.00 L 10174020.00 17649021.00 L 10174020.00 18269099.00  zM 8599220.00 18269099.00 L 8441740.00 18269099.00 L 8441740.00 17649021.00 L 8599220.00 17649021.00 L 8599220.00 18269099.00  zM 8572826.00 18941732.00 L 8273614.00 18941732.00 L 8273614.00 18658268.00 L 8572826.00 18658268.00 L 8572826.00 18941732.00  zM 8226386.00 18941732.00 L 7927174.00 18941732.00 L 7927174.00 18658268.00 L 8226386.00 18658268.00 L 8226386.00 18941732.00  zM 8226386.00 19341732.00 L 7927174.00 19341732.00 L 7927174.00 19058268.00 L 8226386.00 19058268.00 L 8226386.00 19341732.00  zM 8572826.00 19341732.00 L 8273614.00 19341732.00 L 8273614.00 19058268.00 L 8572826.00 19058268.00 L 8572826.00 19341732.00  zM 8796060.00 18269099.00 L 8638580.00 18269099.00 L 8638580.00 17649021.00 L 8796060.00 17649021.00 L 8796060.00 18269099.00  zM 9189760.00 18269099.00 L 9032280.00 18269099.00 L 9032280.00 17649021.00 L 9189760.00 17649021.00 L 9189760.00 18269099.00  zM 9386620.00 18269099.00 L 9229140.00 18269099.00 L 9229140.00 17649021.00 L 9386620.00 17649021.00 L 9386620.00 18269099.00  zM 9241732.00 19176386.00 L 8958268.00 19176386.00 L 8958268.00 18877174.00 L 9241732.00 18877174.00 L 9241732.00 19176386.00  zM 9842510.00 19221260.00 L 9291330.00 19221260.00 L 9291330.00 18748820.00 L 9842510.00 18748820.00 L 9842510.00 19221260.00  zM 4712210.00 19749615.00 L 4475990.00 19749615.00 L 4475990.00 19316545.00 L 4712210.00 19316545.00 L 4712210.00 19749615.00  zM 5224010.00 19749615.00 L 4987790.00 19749615.00 L 4987790.00 19316545.00 L 5224010.00 19316545.00 L 5224010.00 19749615.00  zM 6227756.00 19619684.00 L 6076182.00 19619684.00 L 6076182.00 19474016.00 L 6227756.00 19474016.00 L 6227756.00 19619684.00  zM 6227756.00 19422834.00 L 6076182.00 19422834.00 L 6076182.00 19277166.00 L 6227756.00 19277166.00 L 6227756.00 19422834.00  zM 6424409.00 19724212.00 L 6278741.00 19724212.00 L 6278741.00 19572638.00 L 6424409.00 19572638.00 L 6424409.00 19724212.00  zM 6372826.00 20141732.00 L 6073614.00 20141732.00 L 6073614.00 19858268.00 L 6372826.00 19858268.00 L 6372826.00 20141732.00  zM 6823818.00 19422834.00 L 6672244.00 19422834.00 L 6672244.00 19277166.00 L 6823818.00 19277166.00 L 6823818.00 19422834.00  zM 6823818.00 19619684.00 L 6672244.00 19619684.00 L 6672244.00 19474016.00 L 6823818.00 19474016.00 L 6823818.00 19619684.00  zM 6621259.00 19724212.00 L 6475591.00 19724212.00 L 6475591.00 19572638.00 L 6621259.00 19572638.00 L 6621259.00 19724212.00  zM 6860635.00 20127952.00 L 6585045.00 20127952.00 L 6585045.00 19872048.00 L 6860635.00 19872048.00 L 6860635.00 20127952.00  zM 7214955.00 20127952.00 L 6939365.00 20127952.00 L 6939365.00 19872048.00 L 7214955.00 19872048.00 L 7214955.00 20127952.00  zM 4712210.00 20283455.00 L 4475990.00 20283455.00 L 4475990.00 19850385.00 L 4712210.00 19850385.00 L 4712210.00 20283455.00  zM 5224010.00 20283455.00 L 4987790.00 20283455.00 L 4987790.00 19850385.00 L 5224010.00 19850385.00 L 5224010.00 20283455.00  zM 4712210.00 21149615.00 L 4475990.00 21149615.00 L 4475990.00 20716545.00 L 4712210.00 20716545.00 L 4712210.00 21149615.00  zM 6026386.00 20141732.00 L 5727174.00 20141732.00 L 5727174.00 19858268.00 L 6026386.00 19858268.00 L 6026386.00 20141732.00  zM 6710635.00 20827952.00 L 6435045.00 20827952.00 L 6435045.00 20572048.00 L 6710635.00 20572048.00 L 6710635.00 20827952.00  zM 7064955.00 20827952.00 L 6789365.00 20827952.00 L 6789365.00 20572048.00 L 7064955.00 20572048.00 L 7064955.00 20827952.00  zM 5224010.00 21149615.00 L 4987790.00 21149615.00 L 4987790.00 20716545.00 L 5224010.00 20716545.00 L 5224010.00 21149615.00  zM 6738980.00 21344094.00 L 6463380.00 21344094.00 L 6463380.00 20855906.00 L 6738980.00 20855906.00 L 6738980.00 21344094.00  zM 7053940.00 21344094.00 L 6778340.00 21344094.00 L 6778340.00 20855906.00 L 7053940.00 20855906.00 L 7053940.00 21344094.00  zM 5946363.00 21442980.00 L 5946363.00 21128020.00 A 220780.35 220780.35 0 0 1 6387917.00 21128020.00 L 6387917.00 21442980.00 A 220780.35 220780.35 0 0 1 5946363.00 21442980.00  zM 5943003.00 23214181.00 L 5943003.00 22741739.00 A 220780.35 220780.35 0 1 1 6384557.00 22741739.00 L 6384557.00 23214181.00 A 220780.35 220780.35 0 0 1 5943003.00 23214181.00  zM 7241732.00 19722826.00 L 6958268.00 19722826.00 L 6958268.00 19423614.00 L 7241732.00 19423614.00 L 7241732.00 19722826.00  zM 8202416.00 19682377.00 L 7920784.00 19682377.00 L 7920784.00 19417623.00 L 8202416.00 19417623.00 L 8202416.00 19682377.00  zM 8235040.00 21344094.00 L 8077560.00 21344094.00 L 8077560.00 20855906.00 L 8235040.00 20855906.00 L 8235040.00 21344094.00  zM 8579236.00 19682377.00 L 8297604.00 19682377.00 L 8297604.00 19417623.00 L 8579236.00 19417623.00 L 8579236.00 19682377.00  zM 8710635.00 20827952.00 L 8435045.00 20827952.00 L 8435045.00 20572048.00 L 8710635.00 20572048.00 L 8710635.00 20827952.00  zM 8943700.00 21344094.00 L 8668120.00 21344094.00 L 8668120.00 20855906.00 L 8943700.00 20855906.00 L 8943700.00 21344094.00  zM 9241732.00 19522826.00 L 8958268.00 19522826.00 L 8958268.00 19223614.00 L 9241732.00 19223614.00 L 9241732.00 19522826.00  zM 9842510.00 19851180.00 L 9291330.00 19851180.00 L 9291330.00 19378740.00 L 9842510.00 19378740.00 L 9842510.00 19851180.00  zM 10026386.00 20191732.00 L 9727174.00 20191732.00 L 9727174.00 19908268.00 L 10026386.00 19908268.00 L 10026386.00 20191732.00  zM 9064955.00 20827952.00 L 8789365.00 20827952.00 L 8789365.00 20572048.00 L 9064955.00 20572048.00 L 9064955.00 20827952.00  zM 10372826.00 20191732.00 L 10073614.00 20191732.00 L 10073614.00 19908268.00 L 10372826.00 19908268.00 L 10372826.00 20191732.00  zM 7250780.00 21344094.00 L 7093300.00 21344094.00 L 7093300.00 20855906.00 L 7250780.00 20855906.00 L 7250780.00 21344094.00  zM 7447640.00 21344094.00 L 7290160.00 21344094.00 L 7290160.00 20855906.00 L 7447640.00 20855906.00 L 7447640.00 21344094.00  zM 7644480.00 21344094.00 L 7487000.00 21344094.00 L 7487000.00 20855906.00 L 7644480.00 20855906.00 L 7644480.00 21344094.00  zM 7841340.00 21344094.00 L 7683860.00 21344094.00 L 7683860.00 20855906.00 L 7841340.00 20855906.00 L 7841340.00 21344094.00  zM 8038180.00 21344094.00 L 7880700.00 21344094.00 L 7880700.00 20855906.00 L 8038180.00 20855906.00 L 8038180.00 21344094.00  zM 8431900.00 21344094.00 L 8274420.00 21344094.00 L 8274420.00 20855906.00 L 8431900.00 20855906.00 L 8431900.00 21344094.00  zM 8628740.00 21344094.00 L 8471260.00 21344094.00 L 8471260.00 20855906.00 L 8628740.00 20855906.00 L 8628740.00 21344094.00  zM 9258660.00 21344094.00 L 8983080.00 21344094.00 L 8983080.00 20855906.00 L 9258660.00 20855906.00 L 9258660.00 21344094.00  zM 9343003.00 21489760.00 L 9343003.00 21174800.00 A 220780.35 220780.35 0 0 1 9784557.00 21174800.00 L 9784557.00 21489760.00 A 220780.35 220780.35 0 1 1 9343003.00 21489760.00  zM 9343003.00 23214181.00 L 9343003.00 22741739.00 A 220780.35 220780.35 0 1 1 9784557.00 22741739.00 L 9784557.00 23214181.00 A 220780.35 220780.35 0 1 1 9343003.00 23214181.00  zM 12369099.00 16270860.00 L 11749021.00 16270860.00 L 11749021.00 16113380.00 L 12369099.00 16113380.00 L 12369099.00 16270860.00  zM 12369099.00 16074020.00 L 11749021.00 16074020.00 L 11749021.00 15916540.00 L 12369099.00 15916540.00 L 12369099.00 16074020.00  zM 12369099.00 16467720.00 L 11749021.00 16467720.00 L 11749021.00 16310240.00 L 12369099.00 16310240.00 L 12369099.00 16467720.00  zM 12369099.00 16861420.00 L 11749021.00 16861420.00 L 11749021.00 16703940.00 L 12369099.00 16703940.00 L 12369099.00 16861420.00  zM 12369099.00 16664560.00 L 11749021.00 16664560.00 L 11749021.00 16507080.00 L 12369099.00 16507080.00 L 12369099.00 16664560.00  zM 12791732.00 17026386.00 L 12508268.00 17026386.00 L 12508268.00 16727174.00 L 12791732.00 16727174.00 L 12791732.00 17026386.00  zM 12369099.00 17058260.00 L 11749021.00 17058260.00 L 11749021.00 16900780.00 L 12369099.00 16900780.00 L 12369099.00 17058260.00  zM 12369099.00 17255120.00 L 11749021.00 17255120.00 L 11749021.00 17097640.00 L 12369099.00 17097640.00 L 12369099.00 17255120.00  zM 12591732.00 17726386.00 L 12308268.00 17726386.00 L 12308268.00 17427174.00 L 12591732.00 17427174.00 L 12591732.00 17726386.00  zM 12791732.00 17372826.00 L 12508268.00 17372826.00 L 12508268.00 17073614.00 L 12791732.00 17073614.00 L 12791732.00 17372826.00  zM 12941732.00 17726386.00 L 12658268.00 17726386.00 L 12658268.00 17427174.00 L 12941732.00 17427174.00 L 12941732.00 17726386.00  zM 10567720.00 18269099.00 L 10410240.00 18269099.00 L 10410240.00 17649021.00 L 10567720.00 17649021.00 L 10567720.00 18269099.00  zM 10764560.00 18269099.00 L 10607080.00 18269099.00 L 10607080.00 17649021.00 L 10764560.00 17649021.00 L 10764560.00 18269099.00  zM 10961420.00 18269099.00 L 10803940.00 18269099.00 L 10803940.00 17649021.00 L 10961420.00 17649021.00 L 10961420.00 18269099.00  zM 11158260.00 18269099.00 L 11000780.00 18269099.00 L 11000780.00 17649021.00 L 11158260.00 17649021.00 L 11158260.00 18269099.00  zM 11355120.00 18269099.00 L 11197640.00 18269099.00 L 11197640.00 17649021.00 L 11355120.00 17649021.00 L 11355120.00 18269099.00  zM 11726386.00 18041732.00 L 11427174.00 18041732.00 L 11427174.00 17758268.00 L 11726386.00 17758268.00 L 11726386.00 18041732.00  zM 12072826.00 18041732.00 L 11773614.00 18041732.00 L 11773614.00 17758268.00 L 12072826.00 17758268.00 L 12072826.00 18041732.00  zM 11954330.00 18854730.00 L 11245670.00 18854730.00 L 11245670.00 18461030.00 L 11954330.00 18461030.00 L 11954330.00 18854730.00  zM 12291732.00 18826386.00 L 12008268.00 18826386.00 L 12008268.00 18527174.00 L 12291732.00 18527174.00 L 12291732.00 18826386.00  zM 12591732.00 18072826.00 L 12308268.00 18072826.00 L 12308268.00 17773614.00 L 12591732.00 17773614.00 L 12591732.00 18072826.00  zM 12941732.00 18072826.00 L 12658268.00 18072826.00 L 12658268.00 17773614.00 L 12941732.00 17773614.00 L 12941732.00 18072826.00  zM 13191732.00 17026386.00 L 12908268.00 17026386.00 L 12908268.00 16727174.00 L 13191732.00 16727174.00 L 13191732.00 17026386.00  zM 13191732.00 17372826.00 L 12908268.00 17372826.00 L 12908268.00 17073614.00 L 13191732.00 17073614.00 L 13191732.00 17372826.00  zM 13291732.00 17726386.00 L 13008268.00 17726386.00 L 13008268.00 17427174.00 L 13291732.00 17427174.00 L 13291732.00 17726386.00  zM 13953160.00 17694795.00 L 13923705.00 17682595.00 L 13911505.00 17653140.00 L 13923705.00 17623685.00 L 13953160.00 17611485.00 L 13982615.00 17623685.00 L 13994815.00 17653140.00 L 13982615.00 17682595.00 L 13953160.00 17694795.00  zM 14150000.00 17694795.00 L 14120545.00 17682595.00 L 14108345.00 17653140.00 L 14120545.00 17623685.00 L 14150000.00 17611485.00 L 14179455.00 17623685.00 L 14191655.00 17653140.00 L 14179455.00 17682595.00 L 14150000.00 17694795.00  zM 13953160.00 17891655.00 L 13923705.00 17879455.00 L 13911505.00 17850000.00 L 13923705.00 17820545.00 L 13953160.00 17808345.00 L 13982615.00 17820545.00 L 13994815.00 17850000.00 L 13982615.00 17879455.00 L 13953160.00 17891655.00  zM 13291732.00 18072826.00 L 13008268.00 18072826.00 L 13008268.00 17773614.00 L 13291732.00 17773614.00 L 13291732.00 18072826.00  zM 13953160.00 18285355.00 L 13923705.00 18273155.00 L 13911505.00 18243700.00 L 13923705.00 18214245.00 L 13953160.00 18202045.00 L 13982615.00 18214245.00 L 13994815.00 18243700.00 L 13982615.00 18273155.00 L 13953160.00 18285355.00  zM 13953160.00 18088515.00 L 13923705.00 18076315.00 L 13911505.00 18046860.00 L 13923705.00 18017405.00 L 13953160.00 18005205.00 L 13982615.00 18017405.00 L 13994815.00 18046860.00 L 13982615.00 18076315.00 L 13953160.00 18088515.00  zM 14150000.00 17891655.00 L 14120545.00 17879455.00 L 14108345.00 17850000.00 L 14120545.00 17820545.00 L 14150000.00 17808345.00 L 14179455.00 17820545.00 L 14191655.00 17850000.00 L 14179455.00 17879455.00 L 14150000.00 17891655.00  zM 14150000.00 18088515.00 L 14120545.00 18076315.00 L 14108345.00 18046860.00 L 14120545.00 18017405.00 L 14150000.00 18005205.00 L 14179455.00 18017405.00 L 14191655.00 18046860.00 L 14179455.00 18076315.00 L 14150000.00 18088515.00  zM 15550586.00 16755495.00 L 13936414.00 16755495.00 L 13936414.00 16322425.00 L 15550586.00 16322425.00 L 15550586.00 16755495.00  zM 15010635.00 17377952.00 L 14735045.00 17377952.00 L 14735045.00 17122048.00 L 15010635.00 17122048.00 L 15010635.00 17377952.00  zM 15026386.00 17791732.00 L 14727174.00 17791732.00 L 14727174.00 17508268.00 L 15026386.00 17508268.00 L 15026386.00 17791732.00  zM 15364955.00 17377952.00 L 15089365.00 17377952.00 L 15089365.00 17122048.00 L 15364955.00 17122048.00 L 15364955.00 17377952.00  zM 15372826.00 17791732.00 L 15073614.00 17791732.00 L 15073614.00 17508268.00 L 15372826.00 17508268.00 L 15372826.00 17791732.00  zM 14346860.00 17694795.00 L 14317405.00 17682595.00 L 14305205.00 17653140.00 L 14317405.00 17623685.00 L 14346860.00 17611485.00 L 14376315.00 17623685.00 L 14388515.00 17653140.00 L 14376315.00 17682595.00 L 14346860.00 17694795.00  zM 14346860.00 17891655.00 L 14317405.00 17879455.00 L 14305205.00 17850000.00 L 14317405.00 17820545.00 L 14346860.00 17808345.00 L 14376315.00 17820545.00 L 14388515.00 17850000.00 L 14376315.00 17879455.00 L 14346860.00 17891655.00  zM 14346860.00 18088515.00 L 14317405.00 18076315.00 L 14305205.00 18046860.00 L 14317405.00 18017405.00 L 14346860.00 18005205.00 L 14376315.00 18017405.00 L 14388515.00 18046860.00 L 14376315.00 18076315.00 L 14346860.00 18088515.00  zM 14150000.00 18285355.00 L 14120545.00 18273155.00 L 14108345.00 18243700.00 L 14120545.00 18214245.00 L 14150000.00 18202045.00 L 14179455.00 18214245.00 L 14191655.00 18243700.00 L 14179455.00 18273155.00 L 14150000.00 18285355.00  zM 14346860.00 18285355.00 L 14317405.00 18273155.00 L 14305205.00 18243700.00 L 14317405.00 18214245.00 L 14346860.00 18202045.00 L 14376315.00 18214245.00 L 14388515.00 18243700.00 L 14376315.00 18273155.00 L 14346860.00 18285355.00  zM 10708670.00 19221260.00 L 10157490.00 19221260.00 L 10157490.00 18748820.00 L 10708670.00 18748820.00 L 10708670.00 19221260.00  zM 10708670.00 19851180.00 L 10157490.00 19851180.00 L 10157490.00 19378740.00 L 10708670.00 19378740.00 L 10708670.00 19851180.00  zM 11954330.00 19838970.00 L 11245670.00 19838970.00 L 11245670.00 19445270.00 L 11954330.00 19445270.00 L 11954330.00 19838970.00  zM 12291732.00 19172826.00 L 12008268.00 19172826.00 L 12008268.00 18873614.00 L 12291732.00 18873614.00 L 12291732.00 19172826.00  zM 12291732.00 19476386.00 L 12008268.00 19476386.00 L 12008268.00 19177174.00 L 12291732.00 19177174.00 L 12291732.00 19476386.00  zM 12291732.00 19822826.00 L 12008268.00 19822826.00 L 12008268.00 19523614.00 L 12291732.00 19523614.00 L 12291732.00 19822826.00  zM 13748423.00 19363921.00 L 13571257.00 19363921.00 A 63920.91 63920.91 0 0 1 13571257.00 19236079.00 L 13748423.00 19236079.00 A 63920.91 63920.91 0 0 1 13748423.00 19363921.00  zM 13822299.00 19162203.00 L 13822299.00 18985037.00 A 63920.91 63920.91 0 1 1 13950141.00 18985037.00 L 13950141.00 19162203.00 A 63920.91 63920.91 0 1 1 13822299.00 19162203.00  zM 13748423.00 19521401.00 L 13571257.00 19521401.00 A 63920.91 63920.91 0 0 1 13571257.00 19393559.00 L 13748423.00 19393559.00 A 63920.91 63920.91 0 0 1 13748423.00 19521401.00  zM 13441732.00 19776386.00 L 13158268.00 19776386.00 L 13158268.00 19477174.00 L 13441732.00 19477174.00 L 13441732.00 19776386.00  zM 13748423.00 19678881.00 L 13571257.00 19678881.00 A 63920.91 63920.91 0 0 1 13571257.00 19551039.00 L 13748423.00 19551039.00 A 63920.91 63920.91 0 0 1 13748423.00 19678881.00  zM 13441732.00 20122826.00 L 13158268.00 20122826.00 L 13158268.00 19823614.00 L 13441732.00 19823614.00 L 13441732.00 20122826.00  zM 13748423.00 19836361.00 L 13571257.00 19836361.00 A 63920.91 63920.91 0 0 1 13571257.00 19708519.00 L 13748423.00 19708519.00 A 63920.91 63920.91 0 0 1 13748423.00 19836361.00  zM 13748423.00 19993841.00 L 13571257.00 19993841.00 A 63920.91 63920.91 0 0 1 13571257.00 19865999.00 L 13748423.00 19865999.00 A 63920.91 63920.91 0 0 1 13748423.00 19993841.00  zM 13748423.00 20151321.00 L 13571257.00 20151321.00 A 63920.91 63920.91 0 0 1 13571257.00 20023479.00 L 13748423.00 20023479.00 A 63920.91 63920.91 0 0 1 13748423.00 20151321.00  zM 13822299.00 20402363.00 L 13822299.00 20225197.00 A 63920.91 63920.91 0 0 1 13950141.00 20225197.00 L 13950141.00 20402363.00 A 63920.91 63920.91 0 0 1 13822299.00 20402363.00  zM 13913386.00 20763082.00 L 13614174.00 20763082.00 L 13614174.00 20479618.00 L 13913386.00 20479618.00 L 13913386.00 20763082.00  zM 10585793.00 21228379.00 L 10414207.00 21228379.00 L 10414207.00 20958221.00 L 10585793.00 20958221.00 L 10585793.00 21228379.00  zM 10412526.00 22055986.00 L 10412526.00 21957414.00 A 87473.96 87473.96 0 0 1 10587474.00 21957414.00 L 10587474.00 22055986.00 A 87473.96 87473.96 0 0 1 10412526.00 22055986.00  zM 11553548.00 23448031.00 L 11022052.00 23448031.00 L 11022052.00 21794489.00 L 11553548.00 21794489.00 L 11553548.00 23448031.00  zM 13910635.00 21127952.00 L 13635045.00 21127952.00 L 13635045.00 20872048.00 L 13910635.00 20872048.00 L 13910635.00 21127952.00  zM 13777948.00 23448031.00 L 13246452.00 23448031.00 L 13246452.00 21794489.00 L 13777948.00 21794489.00 L 13777948.00 23448031.00  zM 13979779.00 19162203.00 L 13979779.00 18985037.00 A 63920.91 63920.91 0 1 1 14107621.00 18985037.00 L 14107621.00 19162203.00 A 63920.91 63920.91 0 1 1 13979779.00 19162203.00  zM 14294739.00 19162203.00 L 14294739.00 18985037.00 A 63920.91 63920.91 0 0 1 14422581.00 18985037.00 L 14422581.00 19162203.00 A 63920.91 63920.91 0 0 1 14294739.00 19162203.00  zM 14609699.00 19162203.00 L 14609699.00 18985037.00 A 63920.91 63920.91 0 1 1 14737541.00 18985037.00 L 14737541.00 19162203.00 A 63920.91 63920.91 0 1 1 14609699.00 19162203.00  zM 14137259.00 19162203.00 L 14137259.00 18985037.00 A 63920.91 63920.91 0 1 1 14265101.00 18985037.00 L 14265101.00 19162203.00 A 63920.91 63920.91 0 1 1 14137259.00 19162203.00  zM 14452219.00 19162203.00 L 14452219.00 18985037.00 A 63920.91 63920.91 0 1 1 14580061.00 18985037.00 L 14580061.00 19162203.00 A 63920.91 63920.91 0 1 1 14452219.00 19162203.00  zM 14634250.00 20016534.00 L 13925590.00 20016534.00 L 13925590.00 19370866.00 L 14634250.00 19370866.00 L 14634250.00 20016534.00  zM 14988583.00 19363921.00 L 14811417.00 19363921.00 A 63920.91 63920.91 0 0 1 14811417.00 19236079.00 L 14988583.00 19236079.00 A 63920.91 63920.91 0 0 1 14988583.00 19363921.00  zM 14988583.00 19521401.00 L 14811417.00 19521401.00 A 63920.91 63920.91 0 0 1 14811417.00 19393559.00 L 14988583.00 19393559.00 A 63920.91 63920.91 0 0 1 14988583.00 19521401.00  zM 14988583.00 19678881.00 L 14811417.00 19678881.00 A 63920.91 63920.91 0 0 1 14811417.00 19551039.00 L 14988583.00 19551039.00 A 63920.91 63920.91 0 0 1 14988583.00 19678881.00  zM 14988583.00 19836361.00 L 14811417.00 19836361.00 A 63920.91 63920.91 0 0 1 14811417.00 19708519.00 L 14988583.00 19708519.00 A 63920.91 63920.91 0 0 1 14988583.00 19836361.00  zM 14988583.00 19993841.00 L 14811417.00 19993841.00 A 63920.91 63920.91 0 0 1 14811417.00 19865999.00 L 14988583.00 19865999.00 A 63920.91 63920.91 0 0 1 14988583.00 19993841.00  zM 14137259.00 20402363.00 L 14137259.00 20225197.00 A 63920.91 63920.91 0 0 1 14265101.00 20225197.00 L 14265101.00 20402363.00 A 63920.91 63920.91 0 0 1 14137259.00 20402363.00  zM 14294739.00 20402363.00 L 14294739.00 20225197.00 A 63920.91 63920.91 0 0 1 14422581.00 20225197.00 L 14422581.00 20402363.00 A 63920.91 63920.91 0 0 1 14294739.00 20402363.00  zM 14452219.00 20402363.00 L 14452219.00 20225197.00 A 63920.91 63920.91 0 0 1 14580061.00 20225197.00 L 14580061.00 20402363.00 A 63920.91 63920.91 0 0 1 14452219.00 20402363.00  zM 14609699.00 20402363.00 L 14609699.00 20225197.00 A 63920.91 63920.91 0 0 1 14737541.00 20225197.00 L 14737541.00 20402363.00 A 63920.91 63920.91 0 0 1 14609699.00 20402363.00  zM 14988583.00 20151321.00 L 14811417.00 20151321.00 A 63920.91 63920.91 0 0 1 14811417.00 20023479.00 L 14988583.00 20023479.00 A 63920.91 63920.91 0 0 1 14988583.00 20151321.00  zM 13979779.00 20402363.00 L 13979779.00 20225197.00 A 63920.91 63920.91 0 0 1 14107621.00 20225197.00 L 14107621.00 20402363.00 A 63920.91 63920.91 0 0 1 13979779.00 20402363.00  zM 14259826.00 20763082.00 L 13960614.00 20763082.00 L 13960614.00 20479618.00 L 14259826.00 20479618.00 L 14259826.00 20763082.00  zM 14791732.00 20776386.00 L 14508268.00 20776386.00 L 14508268.00 20477174.00 L 14791732.00 20477174.00 L 14791732.00 20776386.00  zM 14264955.00 21127952.00 L 13989365.00 21127952.00 L 13989365.00 20872048.00 L 14264955.00 20872048.00 L 14264955.00 21127952.00  zM 14791732.00 21122826.00 L 14508268.00 21122826.00 L 14508268.00 20823614.00 L 14791732.00 20823614.00 L 14791732.00 21122826.00  z"/>
</g>
</svg>
