<svg width="29.99999842mm" height="49.99999906mm" viewBox="0 0 11811023 19685039"  version="1.1" xmlns="http://www.w3.org/2000/svg" xmlns:xlink="http://www.w3.org/1999/xlink">
<desc>
Origin 0 0 Bound 3937008 3937008 11811023 19685039
</desc>
<g fill-rule="evenodd" fill="rgb(0, 0, 255)" stroke="black" stroke-width="1" transform="translate(0, 19685039) scale(1, -1) translate(-3937008, -3937008)">
<path id="N" d="M 5933465.00 18427656.00 L 5067323.00 18427656.00 A 240838.32 240838.32 0 1 0 5067323.00 18909352.00 L 5933465.00 18909352.00 A 240860.29 240860.29 0 0 0 5933465.00 18427656.00  z"/>
<path id="N" d="M 12232677.00 17640254.00 L 11366535.00 17640254.00 A 240838.32 240838.32 0 0 0 11366535.00 18121950.00 L 12232677.00 18121950.00 A 240860.29 240860.29 0 0 0 12232677.00 17640254.00  z"/>
<path id="N" d="M 5933465.00 16852853.00 L 5067323.00 16852853.00 A 240838.32 240838.32 0 0 0 5067323.00 17334549.00 L 5933465.00 17334549.00 A 240860.29 240860.29 0 0 0 5933465.00 16852853.00  z"/>
<path id="N" d="M 12232677.00 18427656.00 L 11366535.00 18427656.00 A 240838.32 240838.32 0 0 0 11366535.00 18909352.00 L 12232677.00 18909352.00 A 240860.29 240860.29 0 0 0 12232677.00 18427656.00  z"/>
<path id="N" d="M 12232677.00 16852853.00 L 11366535.00 16852853.00 A 240838.32 240838.32 0 0 0 11366535.00 17334549.00 L 12232677.00 17334549.00 A 240860.29 240860.29 0 0 0 12232677.00 16852853.00  z"/>
<path id="N" d="M 5933465.00 17640254.00 L 5067323.00 17640254.00 A 240838.32 240838.32 0 1 0 5067323.00 18121950.00 L 5933465.00 18121950.00 A 240860.29 240860.29 0 0 0 5933465.00 17640254.00  z"/>
<path id="N" d="M 5933465.00 19215058.00 L 5067323.00 19215058.00 A 240838.32 240838.32 0 1 0 5067323.00 19696754.00 L 5933465.00 19696754.00 A 240860.29 240860.29 0 1 0 5933465.00 19215058.00  z"/>
<path id="N" d="M 12232677.00 16065451.00 L 11366535.00 16065451.00 A 240838.32 240838.32 0 0 0 11366535.00 16547147.00 L 12232677.00 16547147.00 A 240860.29 240860.29 0 0 0 12232677.00 16065451.00  z"/>
<path id="N" d="M 12232677.00 15278050.00 L 11366535.00 15278050.00 A 240838.32 240838.32 0 0 0 11366535.00 15759746.00 L 12232677.00 15759746.00 A 240860.29 240860.29 0 0 0 12232677.00 15278050.00  z"/>
<path id="N" d="M 5933465.00 15278050.00 L 5067323.00 15278050.00 A 240838.32 240838.32 0 1 0 5067323.00 15759746.00 L 5933465.00 15759746.00 A 240860.29 240860.29 0 1 0 5933465.00 15278050.00  z"/>
<path id="N" d="M 5933465.00 16065451.00 L 5067323.00 16065451.00 A 240838.32 240838.32 0 1 0 5067323.00 16547147.00 L 5933465.00 16547147.00 A 240860.29 240860.29 0 1 0 5933465.00 16065451.00  z"/>
<path id="N" d="M 13188977.00 8976459.00 L 12598425.00 8976459.00 A 200706.53 200706.53 0 1 0 12598425.00 9377873.00 L 13188977.00 9377873.00 A 200709.51 200709.51 0 0 0 13188977.00 8976459.00  z"/>
<path id="N" d="M 7086615.00 8976459.00 L 6496063.00 8976459.00 A 200706.53 200706.53 0 0 0 6496063.00 9377873.00 L 7086615.00 9377873.00 A 200709.51 200709.51 0 1 0 7086615.00 8976459.00  z"/>
<path id="N" d="M 13188977.00 4976459.00 L 12598425.00 4976459.00 A 200706.53 200706.53 0 1 0 12598425.00 5377873.00 L 13188977.00 5377873.00 A 200709.51 200709.51 0 0 0 13188977.00 4976459.00  z"/>
<path id="N" d="M 7086615.00 5976459.00 L 6496063.00 5976459.00 A 200706.53 200706.53 0 0 0 6496063.00 6377873.00 L 7086615.00 6377873.00 A 200709.51 200709.51 0 1 0 7086615.00 5976459.00  z"/>
<path id="N" d="M 7086615.00 9976459.00 L 6496063.00 9976459.00 A 200706.53 200706.53 0 0 0 6496063.00 10377873.00 L 7086615.00 10377873.00 A 200709.51 200709.51 0 1 0 7086615.00 9976459.00  z"/>
<path id="N" d="M 13188977.00 9976459.00 L 12598425.00 9976459.00 A 200706.53 200706.53 0 1 0 12598425.00 10377873.00 L 13188977.00 10377873.00 A 200709.51 200709.51 0 0 0 13188977.00 9976459.00  z"/>
<path id="N" d="M 13188977.00 7976459.00 L 12598425.00 7976459.00 A 200706.53 200706.53 0 1 0 12598425.00 8377873.00 L 13188977.00 8377873.00 A 200709.51 200709.51 0 0 0 13188977.00 7976459.00  z"/>
<path id="N" d="M 7086615.00 7976459.00 L 6496063.00 7976459.00 A 200706.53 200706.53 0 0 0 6496063.00 8377873.00 L 7086615.00 8377873.00 A 200709.51 200709.51 0 1 0 7086615.00 7976459.00  z"/>
<path id="N" d="M 12232677.00 13703246.00 L 11366535.00 13703246.00 A 240838.32 240838.32 0 0 0 11366535.00 14184942.00 L 12232677.00 14184942.00 A 240860.29 240860.29 0 0 0 12232677.00 13703246.00  z"/>
<path id="N" d="M 5933465.00 14490648.00 L 5067323.00 14490648.00 A 240838.32 240838.32 0 1 0 5067323.00 14972344.00 L 5933465.00 14972344.00 A 240860.29 240860.29 0 0 0 5933465.00 14490648.00  z"/>
<path id="N" d="M 12232677.00 14490648.00 L 11366535.00 14490648.00 A 240838.32 240838.32 0 0 0 11366535.00 14972344.00 L 12232677.00 14972344.00 A 240860.29 240860.29 0 0 0 12232677.00 14490648.00  z"/>
<path id="N" d="M 5933465.00 13703246.00 L 5067323.00 13703246.00 A 240838.32 240838.32 0 1 0 5067323.00 14184942.00 L 5933465.00 14184942.00 A 240860.29 240860.29 0 0 0 5933465.00 13703246.00  z"/>
<path id="N" d="M 13188977.00 5976459.00 L 12598425.00 5976459.00 A 200706.53 200706.53 0 1 0 12598425.00 6377873.00 L 13188977.00 6377873.00 A 200709.51 200709.51 0 0 0 13188977.00 5976459.00  z"/>
<path id="N" d="M 13188977.00 6976459.00 L 12598425.00 6976459.00 A 200706.53 200706.53 0 1 0 12598425.00 7377873.00 L 13188977.00 7377873.00 A 200709.51 200709.51 0 0 0 13188977.00 6976459.00  z"/>
<path id="N" d="M 7086615.00 4976459.00 L 6496063.00 4976459.00 A 200706.53 200706.53 0 0 0 6496063.00 5377873.00 L 7086615.00 5377873.00 A 200709.51 200709.51 0 0 0 7086615.00 4976459.00  z"/>
<path id="N" d="M 7086615.00 6976459.00 L 6496063.00 6976459.00 A 200706.53 200706.53 0 0 0 6496063.00 7377873.00 L 7086615.00 7377873.00 A 200709.51 200709.51 0 1 0 7086615.00 6976459.00  z"/>
<path id="N" d="M 8627953.00 21844489.00 L 8096457.00 21844489.00 L 8096457.00 23498031.00 L 8627953.00 23498031.00 L 8627953.00 21844489.00  z"/>
<path id="N" d="M 15537401.00 17125985.00 L 13962599.00 17125985.00 L 13962599.00 17519685.00 L 15537401.00 17519685.00 L 15537401.00 17125985.00  z"/>
<path id="N" d="M 15537401.00 16338583.00 L 13962599.00 16338583.00 L 13962599.00 16732283.00 L 15537401.00 16732283.00 L 15537401.00 16338583.00  z"/>
<path id="N" d="M 6403543.00 21844489.00 L 5872047.00 21844489.00 L 5872047.00 23498031.00 L 6403543.00 23498031.00 L 6403543.00 21844489.00  z"/>
<path id="N" d="M 12232677.00 19215058.00 L 11366535.00 19215058.00 A 240838.32 240838.32 0 0 0 11366535.00 19696754.00 L 12232677.00 19696754.00 A 240860.29 240860.29 0 0 0 12232677.00 19215058.00  z"/>
<path id="N" d="M 7500000.00 22041339.00 L 7000000.00 22041339.00 L 7000000.00 23458661.00 L 7500000.00 23458661.00 L 7500000.00 22041339.00  z"/>
<path id="N" d="M 15537401.00 17913387.00 L 13962599.00 17913387.00 L 13962599.00 18307087.00 L 15537401.00 18307087.00 L 15537401.00 17913387.00  z"/>
<path id="N" d="M 15537401.00 18700788.00 L 13962599.00 18700788.00 L 13962599.00 19094488.00 L 15537401.00 19094488.00 L 15537401.00 18700788.00  z"/>
<path id="N" d="M 9530441.00 21265031.00 L 9530441.00 20950071.00 A 200706.53 200706.53 0 0 0 9129027.00 20950071.00 L 9129027.00 21265031.00 A 200706.53 200706.53 0 0 0 9530441.00 21265031.00  zM 9209310.00 21265031.00 L 9209310.00 20950071.00 A 120431.73 120431.73 0 1 1 9450158.00 20950071.00 L 9450158.00 21265031.00 A 120431.73 120431.73 0 0 1 9209310.00 21265031.00  z"/>
<path id="N" d="M 12927085.00 21311810.00 L 12927085.00 20996850.00 A 200706.53 200706.53 0 0 0 12525671.00 20996850.00 L 12525671.00 21311810.00 A 200706.53 200706.53 0 1 0 12927085.00 21311810.00  zM 12605954.00 21311810.00 L 12605954.00 20996850.00 A 120431.73 120431.73 0 0 1 12846802.00 20996850.00 L 12846802.00 21311810.00 A 120431.73 120431.73 0 0 1 12605954.00 21311810.00  z"/>
<path id="N" d="M 9527085.00 23036221.00 L 9527085.00 22563779.00 A 200706.53 200706.53 0 0 0 9125671.00 22563779.00 L 9125671.00 23036221.00 A 200706.53 200706.53 0 1 0 9527085.00 23036221.00  zM 9205954.00 23036220.00 L 9205954.00 22563780.00 A 120431.73 120431.73 0 0 1 9446802.00 22563780.00 L 9446802.00 23036220.00 A 120431.73 120431.73 0 0 1 9205954.00 23036220.00  z"/>
<path id="N" d="M 12927085.00 23036221.00 L 12927085.00 22563779.00 A 200706.53 200706.53 0 0 0 12525671.00 22563779.00 L 12525671.00 23036221.00 A 200706.53 200706.53 0 1 0 12927085.00 23036221.00  zM 12605954.00 23036220.00 L 12605954.00 22563780.00 A 120431.73 120431.73 0 0 1 12846802.00 22563780.00 L 12846802.00 23036220.00 A 120431.73 120431.73 0 0 1 12605954.00 23036220.00  z"/>
<path id="N" d="M 15537401.00 15551182.00 L 13962599.00 15551182.00 L 13962599.00 15944882.00 L 15537401.00 15944882.00 L 15537401.00 15551182.00  z"/>
</g>
</svg>
