<svg width="29.99999842mm" height="49.99999906mm" viewBox="0 0 11811023 19685039"  version="1.1" xmlns="http://www.w3.org/2000/svg" xmlns:xlink="http://www.w3.org/1999/xlink">
<desc>
Origin 0 0 Bound 3937008 3937008 11811023 19685039
</desc>
<g fill-rule="evenodd" fill="rgb(255, 0, 0)" stroke="black" stroke-width="1" transform="translate(0, 19685039) scale(1, -1) translate(-3937008, -3937008)">
<path id="N" d="M 7831299.00 15449789.00 L 7919168.00 15449790.00 L 7957437.00 15433938.00 L 7974783.23 15416591.31 L 8006811.00 15403325.00 A 63921.13 63921.13 0 1 0 7916413.00 15312927.00 L 7910077.50 15328222.27 L 7896750.42 15341549.00 L 7550000.00 15341548.00 L 7540051.58 15345669.00 L 7250591.00 15345669.00 L 7250591.00 15463779.00 L 7831299.00 15463779.00 L 7831299.00 15449789.00  z"/>
<path id="N" d="M 5408267.00 7831286.00 L 5549038.06 7831286.00 L 5554801.00 7845199.00 A 63921.13 63921.13 0 0 0 5645199.00 7754801.00 L 5613172.02 7741535.02 L 5610534.00 7738897.00 L 5572262.59 7723046.00 L 5408267.00 7723046.00 L 5408267.00 7659056.00 L 5191733.00 7659056.00 L 5191733.00 7895276.00 L 5408267.00 7895276.00 L 5408267.00 7831286.00  z"/>
<path id="N" d="M 12349409.00 14755118.00 L 11768701.00 14755118.00 L 11768701.00 14873228.00 L 12349409.00 14873228.00 L 12349409.00 14755118.00  z"/>
<path id="N" d="M 9803150.00 12279528.00 L 9724410.00 12279528.00 L 9724410.00 12555118.00 L 9803150.00 12555118.00 L 9803150.00 12279528.00  z"/>
<path id="N" d="M 9645670.00 12279528.00 L 9566930.00 12279528.00 L 9566930.00 12555118.00 L 9645670.00 12555118.00 L 9645670.00 12279528.00  z"/>
<path id="N" d="M 9488189.00 11066930.00 L 9409449.00 11066930.00 L 9409449.00 11342520.00 L 9488189.00 11342520.00 L 9488189.00 11066930.00  z"/>
<path id="N" d="M 6730421.00 16049711.00 L 7165066.00 15615066.00 L 7171307.00 15600000.00 L 7171307.00 15315891.00 L 7218647.00 15268551.00 L 7501575.00 15268550.00 L 7505490.57 15266928.00 L 7831299.00 15266928.00 L 7831299.00 15148818.00 L 7250591.00 15148818.00 L 7250591.00 15225936.00 L 7209822.00 15225937.00 L 7194756.00 15232178.00 L 7134934.00 15292000.00 L 7128693.00 15307066.00 L 7128693.00 15591175.00 L 6706530.00 16013338.00 L 5693470.93 16013338.00 L 5610326.00 15930193.93 L 5610326.00 15922642.56 L 5616525.00 15907677.00 L 5616525.00 15330905.00 L 5607476.00 15309059.00 L 5585630.00 15300010.00 L 5414370.00 15300010.00 L 5392524.00 15309059.00 L 5383475.00 15330905.00 L 5383475.00 15907677.00 L 5392524.00 15929523.00 L 5414370.00 15938572.00 L 5567712.00 15939019.00 L 5573953.00 15954085.00 L 5669579.00 16049712.00 L 5684645.00 16055952.00 L 6715355.00 16055952.00 L 6730421.00 16049711.00  z"/>
<path id="N" d="M 10494413.00 20345986.00 L 10504213.49 20322325.47 L 10905986.00 19920553.00 L 10921837.00 19882281.59 L 10921837.00 19623661.76 L 10931638.00 19600000.00 L 10921837.00 19576338.24 L 10921837.00 18817717.00 L 10905986.00 18779448.00 L 10899842.07 18776903.19 L 10896929.29 18769874.29 L 10738787.00 18611731.00 L 10700515.59 18595880.00 L 10393542.76 18595880.00 L 10369881.00 18586079.00 A 63920.91 63920.91 0 0 0 10369881.00 18713921.00 L 10393542.76 18704120.00 L 10678100.10 18704120.00 L 10789321.39 18815340.59 L 10784914.00 18825981.00 L 10803636.00 18871180.00 L 10813597.00 18875305.97 L 10813597.00 19576338.24 L 10803796.00 19600000.00 L 10813597.00 19623661.76 L 10813597.00 19859866.96 L 10427675.53 20245787.51 L 10022417.45 20246667.00 L 10018687.00 20242936.45 L 10018688.00 20129920.00 L 10006693.00 20100962.35 L 10006693.00 19927953.00 L 9746851.00 19927953.00 L 9746851.00 20172047.00 L 9910447.00 20172047.00 L 9910447.00 20246667.00 L 9849055.76 20246667.00 L 9825394.00 20236866.00 L 9801732.24 20246667.00 L 9673204.08 20246667.00 L 9504999.52 20078461.61 L 9495199.00 20054801.00 L 9471536.87 20044999.85 L 9054999.68 19628461.99 L 9045199.00 19604801.00 L 9021538.10 19595000.35 L 8876482.00 19449944.03 L 8876482.00 19424747.90 L 8882819.00 19409449.00 L 8873018.00 19385787.24 L 8873018.00 19347426.00 L 8977953.00 19347426.00 L 8977953.00 19503149.00 L 9222047.00 19503149.00 L 9222047.00 19482860.00 L 9291339.00 19482860.00 L 9291339.00 19851181.00 L 9842519.00 19851181.00 L 9842519.00 19378741.00 L 9390659.10 19378741.00 L 9380705.59 19374620.00 L 9222047.00 19374620.00 L 9222047.00 19243307.00 L 9037904.10 19243307.00 L 9027950.59 19239186.00 L 8873018.00 19239186.00 L 8873018.00 19073661.76 L 8882819.00 19050000.00 L 8876482.00 19034701.10 L 8876482.00 18892797.95 L 9144997.92 18624281.13 L 9422709.24 18623401.00 L 9446371.00 18633202.00 L 9470032.76 18623401.00 L 9769281.00 18623402.00 L 9807550.00 18607550.00 L 9951635.53 18463464.47 L 9975296.00 18453664.00 A 63921.13 63921.13 0 1 0 9884898.00 18363266.00 L 9875097.53 18386926.47 L 9746863.00 18515161.00 L 9470032.76 18515161.00 L 9446371.00 18505360.00 L 9422709.24 18515161.00 L 9147122.76 18515161.00 L 9123461.00 18505360.00 L 9078262.00 18524082.00 L 9068460.87 18547744.08 L 8784093.00 18832111.00 L 8768242.00 18870382.41 L 8768242.00 19017975.39 L 8754977.00 19050000.00 L 8764778.00 19073661.76 L 8764778.00 19385787.24 L 8754977.00 19409449.00 L 8768242.00 19441473.61 L 8768241.00 19472362.00 L 8784093.00 19510631.00 L 8945000.35 19671538.10 L 8954801.00 19695199.00 L 8978461.99 19704999.68 L 9394999.85 20121536.87 L 9404801.00 20145199.00 L 9428461.61 20154999.52 L 9612518.00 20339056.00 L 9650789.41 20354907.00 L 9801732.24 20354907.00 L 9825394.00 20364708.00 L 9849055.76 20354907.00 L 10425552.24 20354907.00 L 10449214.00 20364708.00 L 10494413.00 20345986.00  z"/>
<path id="N" d="M 12281050.00 19963473.00 L 12465066.00 19779457.00 L 12471307.00 19764391.00 L 12471307.00 19555095.37 L 12495199.00 19545199.00 L 12513921.00 19500000.00 L 12495199.00 19454801.00 L 12471307.00 19444904.63 L 12471307.00 19005095.37 L 12495199.00 18995199.00 L 12513921.00 18950000.00 L 12495199.00 18904801.00 L 12471307.00 18894904.63 L 12471307.00 18585609.00 L 12465066.00 18570542.00 L 12229457.00 18334934.00 L 12214391.00 18328693.00 L 11097206.00 18328693.00 L 11082140.00 18334934.00 L 11075899.00 18350000.00 L 11082140.00 18365066.00 L 11097206.00 18371307.00 L 12205565.97 18371307.00 L 12428693.00 18594434.97 L 12428693.00 18894904.63 L 12404801.00 18904801.00 L 12386079.00 18950000.00 L 12404801.00 18995199.00 L 12428693.00 19005095.37 L 12428693.00 19444904.63 L 12404801.00 19454801.00 L 12386079.00 19500000.00 L 12404801.00 19545199.00 L 12428693.00 19555095.37 L 12428693.00 19755566.00 L 12257159.00 19927100.00 L 11207232.00 19927100.00 L 11021307.00 19741175.00 L 11021307.00 19702035.99 L 11050000.00 19713921.00 A 63920.91 63920.91 0 1 0 11050000.00 19586079.00 L 11021307.00 19597964.01 L 11021307.00 18797241.00 L 11015067.00 18782175.00 L 10880482.45 18647590.86 L 10890617.00 18643393.00 A 63921.13 63921.13 0 0 0 10800219.00 18552995.00 L 10796021.06 18563129.73 L 10693610.00 18460718.98 L 10693610.00 18352604.00 L 10687369.00 18337538.00 L 10672303.00 18331297.00 L 10657237.00 18337538.00 L 10650996.00 18352604.00 L 10650996.00 18469544.00 L 10657237.00 18484610.00 L 10789046.33 18616419.73 L 10800219.00 18643393.00 L 10827192.07 18654565.59 L 10978693.00 18806066.98 L 10978693.00 19750000.00 L 10984934.00 19765066.00 L 11183341.00 19963473.00 L 11198407.00 19969714.00 L 12265984.00 19969714.00 L 12281050.00 19963473.00  z"/>
<path id="N" d="M 6009448.00 20165008.00 L 6204006.30 20165008.00 L 6207662.00 20173834.00 L 6237795.00 20186315.00 L 6414961.00 20186315.00 L 6445094.00 20173834.00 L 6457575.00 20143701.00 L 6445094.00 20113568.00 L 6414961.00 20101087.00 L 6237795.00 20101087.00 L 6207662.00 20113568.00 L 6204006.30 20122394.00 L 6009448.00 20122394.00 L 6009448.00 20075408.00 L 6115066.00 19969790.00 L 6121307.00 19954724.00 L 6121307.00 19882214.70 L 6130133.00 19878559.00 L 6142614.00 19848426.00 L 6142614.00 19671260.00 L 6130133.00 19641127.00 L 6113775.00 19634351.56 L 6113775.00 19626337.00 L 6107534.00 19611271.00 L 5983559.00 19487296.00 L 5968493.00 19481055.00 L 5903149.00 19481055.00 L 5903149.00 19277953.00 L 5643307.00 19277953.00 L 5643307.00 19522047.00 L 5871673.81 19522047.00 L 5875590.00 19523669.00 L 5959668.00 19523669.00 L 6071161.00 19635162.00 L 6071161.00 19640591.03 L 6057386.00 19671260.00 L 6057386.00 19848426.00 L 6069867.00 19878559.00 L 6078693.00 19882214.70 L 6078693.00 19945899.00 L 5979316.00 20045276.00 L 5403150.00 20045276.00 L 5403150.00 20122394.00 L 5208592.70 20122394.00 L 5204937.00 20113568.00 L 5174804.00 20101087.00 L 4997638.00 20101087.00 L 4967505.00 20113568.00 L 4955024.00 20143701.00 L 4967505.00 20173834.00 L 4997638.00 20186315.00 L 5174804.00 20186315.00 L 5204937.00 20173834.00 L 5208592.70 20165008.00 L 5403150.00 20165008.00 L 5403150.00 20714566.00 L 6009448.00 20714566.00 L 6009448.00 20165008.00  z"/>
<path id="N" d="M 10314487.00 23036221.00 L 10314487.00 22563779.00 A 200706.53 200706.53 0 0 0 9913073.00 22563779.00 L 9913073.00 23036221.00 A 200706.53 200706.53 0 1 0 10314487.00 23036221.00  zM 9993356.00 23036220.00 L 9993356.00 22563780.00 A 120431.73 120431.73 0 0 1 10234204.00 22563780.00 L 10234204.00 23036220.00 A 120431.73 120431.73 0 0 1 9993356.00 23036220.00  z"/>
<path id="N" d="M 13714487.00 23036221.00 L 13714487.00 22563779.00 A 200706.53 200706.53 0 0 0 13313073.00 22563779.00 L 13313073.00 23036221.00 A 200706.53 200706.53 0 1 0 13714487.00 23036221.00  zM 13393356.00 23036220.00 L 13393356.00 22563780.00 A 120431.73 120431.73 0 0 1 13634204.00 22563780.00 L 13634204.00 23036220.00 A 120431.73 120431.73 0 0 1 13393356.00 23036220.00  z"/>
<path id="N" d="M 10317843.00 21265031.00 L 10317843.00 20950071.00 A 200706.53 200706.53 0 0 0 9916429.00 20950071.00 L 9916429.00 21265031.00 A 200706.53 200706.53 0 0 0 10317843.00 21265031.00  zM 9996712.00 21265031.00 L 9996712.00 20950071.00 A 120431.73 120431.73 0 1 1 10237560.00 20950071.00 L 10237560.00 21265031.00 A 120431.73 120431.73 0 0 1 9996712.00 21265031.00  z"/>
<path id="N" d="M 13714487.00 21311810.00 L 13714487.00 20996850.00 A 200706.53 200706.53 0 0 0 13313073.00 20996850.00 L 13313073.00 21311810.00 A 200706.53 200706.53 0 1 0 13714487.00 21311810.00  zM 13393356.00 21311810.00 L 13393356.00 20996850.00 A 120431.73 120431.73 0 0 1 13634204.00 20996850.00 L 13634204.00 21311810.00 A 120431.73 120431.73 0 0 1 13393356.00 21311810.00  z"/>
<path id="N" d="M 12995199.00 10472125.00 L 12971536.99 10462323.89 L 12808088.00 10298874.00 L 12769816.59 10283023.00 L 12742974.00 10283023.00 L 12742974.00 10217913.00 L 12724564.00 10173468.00 L 12680119.00 10155058.00 L 12319881.00 10155058.00 L 12275436.00 10173468.00 L 12257026.00 10217913.00 L 12257026.00 10334055.00 L 12275436.00 10378500.00 L 12319881.00 10396910.00 L 12680119.00 10396910.00 L 12693751.86 10391263.00 L 12747401.09 10391263.00 L 12894999.89 10538860.99 L 12904801.00 10562523.00 A 63921.13 63921.13 0 1 0 12995199.00 10472125.00  z"/>
<path id="N" d="M 12349409.00 17025368.00 L 12449213.00 17025368.00 L 12449213.00 17014568.00 L 13152154.00 17014568.00 L 13152154.00 17006693.00 L 13172047.00 17006693.00 L 13172047.00 16746851.00 L 12927953.00 16746851.00 L 12927953.00 16750000.00 L 12772047.00 16750000.00 L 12772047.00 16746851.00 L 12527953.00 16746851.00 L 12527953.00 16750000.00 L 12450000.00 16750000.00 L 12450000.00 16922624.00 L 12349409.00 16922624.00 L 12349409.00 16920473.00 L 11768701.00 16920473.00 L 11768701.00 17038583.00 L 12349409.00 17038583.00 L 12349409.00 17025368.00  z"/>
<path id="N" d="M 4773622.00 18149606.00 L 4621049.00 18149606.00 L 4621049.00 18030892.00 L 5677953.00 18030892.00 L 5677953.00 18106693.00 L 5922047.00 18106693.00 L 5922047.00 17846851.00 L 5677953.00 17846851.00 L 5677953.00 17922652.00 L 4621049.00 17922652.00 L 4621049.00 17283464.00 L 4773622.00 17283464.00 L 4773622.00 16732284.00 L 4360236.00 16732284.00 L 4360236.00 17283464.00 L 4512809.00 17283464.00 L 4512809.00 18149606.00 L 4360236.00 18149606.00 L 4360236.00 18700786.00 L 4773622.00 18700786.00 L 4773622.00 18149606.00  z"/>
<path id="N" d="M 13188977.00 20697638.00 L 13070867.00 20697638.00 L 13070866.00 20867927.00 L 13070866.00 20697638.00 L 13056876.00 20697638.00 L 13056876.00 20575591.00 L 13041023.29 20537321.29 L 12995275.00 20491572.20 L 12995275.00 20341733.00 L 12759055.00 20341733.00 L 12759055.00 20558267.00 L 12908894.03 20558267.00 L 12948636.00 20598008.28 L 12948635.00 20912992.00 L 12952756.00 20922940.68 L 12952756.00 21146456.00 L 13070866.00 21146456.00 L 13070867.00 20976167.00 L 13070867.00 21146456.00 L 13188977.00 21146456.00 L 13188977.00 20697638.00  z"/>
<path id="N" d="M 14972047.00 6246851.00 L 14727953.00 6246851.00 L 14727953.00 6322652.00 L 14572047.00 6322652.00 L 14572047.00 6246851.00 L 14327953.00 6246851.00 L 14327953.00 6322652.00 L 14172047.00 6322652.00 L 14172047.00 6246851.00 L 13927953.00 6246851.00 L 13927953.00 6506693.00 L 14172047.00 6506693.00 L 14172047.00 6430892.00 L 14327953.00 6430892.00 L 14327953.00 6506693.00 L 14572047.00 6506693.00 L 14572047.00 6430892.00 L 14727953.00 6430892.00 L 14727953.00 6506693.00 L 14972047.00 6506693.00 L 14972047.00 6246851.00  z"/>
<path id="N" d="M 8353149.00 21177953.00 L 8249653.00 21177953.00 L 8249653.00 20988779.00 L 8281495.00 20988779.00 L 8281495.00 20876575.00 L 8175197.00 20876575.00 L 8175197.00 20911370.00 L 8084645.00 20911370.00 L 8084645.00 20876575.00 L 7978347.00 20876575.00 L 7978347.00 20988779.00 L 8084645.00 20988779.00 L 8084645.00 20953984.00 L 8175197.00 20953984.00 L 8175197.00 20988779.00 L 8207039.00 20988779.00 L 8207039.00 21177953.00 L 8093307.00 21177953.00 L 8093307.00 21422047.00 L 8353149.00 21422047.00 L 8353149.00 21177953.00  z"/>
<path id="N" d="M 10753150.00 8153122.00 L 11251942.00 7654330.00 L 11587401.00 7654330.00 L 11587401.00 6945670.00 L 11451357.00 6945670.00 L 11451357.00 6863385.00 L 13787008.00 6863385.00 L 13787008.00 4225591.00 L 11149214.00 4225591.00 L 11149214.00 6699043.47 L 11146283.00 6713779.00 L 11146283.00 6945670.00 L 11036221.00 6945670.00 L 11036221.00 7438611.00 L 10537430.00 7937402.00 L 9906694.00 7937402.00 L 9906694.00 8862598.00 L 10753150.00 8862598.00 L 10753150.00 8153122.00  z"/>
<path id="N" d="M 7104801.00 18704801.00 L 7094904.63 18728693.00 L 6929680.83 18728693.00 L 6926306.00 18720545.00 L 6896851.00 18708345.00 L 6867396.00 18720545.00 L 6855196.00 18750000.00 L 6867396.00 18779455.00 L 6896851.00 18791655.00 L 6926306.00 18779455.00 L 6929680.83 18771307.00 L 7094904.63 18771307.00 L 7104801.00 18795199.00 A 63921.13 63921.13 0 1 0 7104801.00 18704801.00  z"/>
<path id="N" d="M 10669292.00 20922940.42 L 10673412.00 20912989.59 L 10673412.00 20558267.00 L 10790945.00 20558267.00 L 10790945.00 20341733.00 L 10554725.00 20341733.00 L 10554725.00 20558267.00 L 10565172.00 20558267.00 L 10565172.00 20697638.00 L 10551182.00 20697638.00 L 10551181.00 20867927.00 L 10551181.00 20697638.00 L 10433071.00 20697638.00 L 10433071.00 21146456.00 L 10551181.00 21146456.00 L 10551182.00 20976167.00 L 10551182.00 21146456.00 L 10669292.00 21146456.00 L 10669292.00 20922940.42  z"/>
<path id="N" d="M 8522047.00 18897426.00 L 8606694.00 18897427.00 L 8644963.00 18881575.00 L 9140238.00 18386300.00 L 9156089.00 18348028.59 L 9156089.00 18249410.00 L 9170079.00 18249410.00 L 9170079.00 17668702.00 L 9051969.00 17668702.00 L 9051969.00 17958162.32 L 9047849.00 17968113.41 L 9047849.00 18325613.97 L 8584276.03 18789186.00 L 8472047.00 18789185.00 L 8462095.90 18793307.00 L 8277953.00 18793307.00 L 8277953.00 19053149.00 L 8522047.00 19053149.00 L 8522047.00 18897426.00  z"/>
<path id="N" d="M 14746077.00 13667214.00 L 14481075.00 13667214.00 A 106801.81 106801.81 0 0 0 14481075.00 13880818.00 L 14746077.00 13880818.00 A 106805.19 106805.19 0 1 0 14746077.00 13667214.00  z"/>
<path id="N" d="M 12213132.00 17992202.00 L 12181103.84 17978935.53 L 12135947.00 17933778.00 L 12097675.59 17917927.00 L 12053149.00 17917927.00 L 12053149.00 17777953.00 L 11793307.00 17777953.00 L 11793307.00 18022047.00 L 11985326.32 18022047.00 L 11995277.41 18026167.00 L 12075260.24 18026167.00 L 12116398.44 18067304.56 L 12122734.00 18082600.00 A 63921.13 63921.13 0 1 0 12213132.00 17992202.00  z"/>
<path id="N" d="M 4872047.00 19696851.00 L 4726005.96 19696851.00 L 4700000.00 19686079.00 L 4673994.04 19696851.00 L 4627953.00 19696851.00 L 4627953.00 19770683.00 L 4458267.00 19770683.00 L 4458267.00 19704725.00 L 4241733.00 19704725.00 L 4241733.00 19940945.00 L 4458267.00 19940945.00 L 4458267.00 19878923.00 L 4627953.00 19878923.00 L 4627953.00 19956693.00 L 4872047.00 19956693.00 L 4872047.00 19696851.00  z"/>
<path id="N" d="M 7283464.00 6377953.00 L 6889764.00 6377953.00 L 6889764.00 6647463.00 L 5900000.00 6647463.00 A 152537.16 152537.16 0 1 0 5900000.00 6952537.00 L 6889764.00 6952537.00 L 6889764.00 7755905.00 L 7283464.00 7755905.00 L 7283464.00 6377953.00  z"/>
<path id="N" d="M 7887795.00 20280513.00 L 7811629.00 20280513.00 L 7760569.00 20229453.00 L 7745503.00 20223212.00 L 7472047.00 20223212.00 L 7472047.00 20043307.00 L 7227953.00 20043307.00 L 7227953.00 20303149.00 L 7472047.00 20303149.00 L 7472047.00 20265826.00 L 7736678.00 20265826.00 L 7781497.00 20310645.00 L 7781497.00 20392717.00 L 7887795.00 20392717.00 L 7887795.00 20280513.00  z"/>
<path id="N" d="M 9445275.00 7451678.90 L 9449395.00 7441732.00 L 9450656.00 7430629.00 L 9450656.00 7282024.61 L 9463921.00 7250000.00 A 63920.91 63920.91 0 0 0 9336079.00 7250000.00 L 9342416.00 7265298.90 L 9342416.00 7391733.00 L 9209055.00 7391733.00 L 9209055.00 7608267.00 L 9445275.00 7608267.00 L 9445275.00 7451678.90  z"/>
<path id="N" d="M 4995987.00 16462598.00 L 4982722.00 16430573.39 L 4982722.00 16322047.00 L 5003149.00 16322047.00 L 5003149.00 16077953.00 L 4743307.00 16077953.00 L 4743307.00 16322047.00 L 4874482.00 16322047.00 L 4874482.00 16447299.10 L 4868145.00 16462598.00 A 63920.91 63920.91 0 0 0 4995987.00 16462598.00  z"/>
<path id="N" d="M 5245275.00 9354120.00 L 5326338.24 9354120.00 L 5350000.00 9363921.00 A 63920.91 63920.91 0 0 0 5350000.00 9236079.00 L 5326338.24 9245880.00 L 5245275.00 9245880.00 L 5245275.00 9191733.00 L 5009055.00 9191733.00 L 5009055.00 9408267.00 L 5245275.00 9408267.00 L 5245275.00 9354120.00  z"/>
<path id="N" d="M 4777559.00 8145670.00 L 4501969.00 8145670.00 L 4501969.00 8242416.00 L 4465298.90 8242416.00 L 4450000.00 8236079.00 A 63920.91 63920.91 0 1 0 4450000.00 8363921.00 L 4482024.61 8350656.00 L 4501969.00 8350656.00 L 4501969.00 8421260.00 L 4777559.00 8421260.00 L 4777559.00 8145670.00  z"/>
<path id="N" d="M 6107476.00 13090941.00 L 6116525.00 13069095.00 L 6116525.00 12492323.00 L 6107476.00 12470477.00 L 6085630.00 12461428.00 L 5914370.00 12461428.00 L 5892524.00 12470477.00 L 5883475.00 12492323.00 L 5883475.00 13069095.00 L 5892524.00 13090941.00 L 5914370.00 13099990.00 L 6085630.00 13099990.00 L 6107476.00 13090941.00  z"/>
<path id="N" d="M 12272047.00 19196851.00 L 12204120.00 19196851.00 L 12204120.00 19153149.00 L 12272047.00 19153149.00 L 12272047.00 18893307.00 L 12027953.00 18893307.00 L 12027953.00 19153149.00 L 12095880.00 19153149.00 L 12095880.00 19196851.00 L 12027953.00 19196851.00 L 12027953.00 19456693.00 L 12272047.00 19456693.00 L 12272047.00 19196851.00  z"/>
<path id="N" d="M 7022047.00 17030498.00 L 7250591.00 17030498.00 L 7250591.00 17038583.00 L 7831299.00 17038583.00 L 7831299.00 16920473.00 L 7250591.00 16920473.00 L 7250591.00 16922258.00 L 7022047.00 16922258.00 L 7022047.00 16843307.00 L 6777953.00 16843307.00 L 6777953.00 17103149.00 L 7022047.00 17103149.00 L 7022047.00 17030498.00  z"/>
<path id="N" d="M 12899999.87 9150000.00 m -63921.13 0 a 63921.13 63921.13 0 1 1 127842.26 0a 63921.13 63921.13 0 1 1 -127842.26 0"/>
<path id="N" d="M 10749999.87 14350000.00 m -63921.13 0 a 63921.13 63921.13 0 1 1 127842.26 0a 63921.13 63921.13 0 1 1 -127842.26 0"/>
<path id="N" d="M 6449999.87 14150000.00 m -63921.13 0 a 63921.13 63921.13 0 1 1 127842.26 0a 63921.13 63921.13 0 1 1 -127842.26 0"/>
<path id="N" d="M 6799999.87 11150000.00 m -63921.13 0 a 63921.13 63921.13 0 1 1 127842.26 0a 63921.13 63921.13 0 1 1 -127842.26 0"/>
<path id="N" d="M 10449999.87 17450000.00 m -63921.13 0 a 63921.13 63921.13 0 1 1 127842.26 0a 63921.13 63921.13 0 1 1 -127842.26 0"/>
<path id="N" d="M 10699999.87 17450000.00 m -63921.13 0 a 63921.13 63921.13 0 1 1 127842.26 0a 63921.13 63921.13 0 1 1 -127842.26 0"/>
<path id="N" d="M 5549999.87 14500000.00 m -63921.13 0 a 63921.13 63921.13 0 1 1 127842.26 0a 63921.13 63921.13 0 1 1 -127842.26 0"/>
<path id="N" d="M 10299999.87 17500000.00 m -63921.13 0 a 63921.13 63921.13 0 1 1 127842.26 0a 63921.13 63921.13 0 1 1 -127842.26 0"/>
<path id="N" d="M 10849999.87 17500000.00 m -63921.13 0 a 63921.13 63921.13 0 1 1 127842.26 0a 63921.13 63921.13 0 1 1 -127842.26 0"/>
<path id="N" d="M 11377953.00 11066930.00 L 11299213.00 11066930.00 L 11299213.00 11342520.00 L 11377953.00 11342520.00 L 11377953.00 11066930.00  z"/>
<path id="N" d="M 10275591.00 11066930.00 L 10196851.00 11066930.00 L 10196851.00 11342520.00 L 10275591.00 11342520.00 L 10275591.00 11066930.00  z"/>
<path id="N" d="M 10433071.00 12279528.00 L 10354331.00 12279528.00 L 10354331.00 12555118.00 L 10433071.00 12555118.00 L 10433071.00 12279528.00  z"/>
<path id="N" d="M 9015748.00 12279528.00 L 8937008.00 12279528.00 L 8937008.00 12555118.00 L 9015748.00 12555118.00 L 9015748.00 12279528.00  z"/>
<path id="N" d="M 9488189.00 12279528.00 L 9409449.00 12279528.00 L 9409449.00 12555118.00 L 9488189.00 12555118.00 L 9488189.00 12279528.00  z"/>
<path id="N" d="M 10748032.00 11066930.00 L 10669292.00 11066930.00 L 10669292.00 11342520.00 L 10748032.00 11342520.00 L 10748032.00 11066930.00  z"/>
<path id="N" d="M 6784798.00 15668315.00 L 6631685.00 15515202.00 L 6464652.00 15682235.00 L 6617765.00 15835348.00 L 6784798.00 15668315.00  z"/>
<path id="N" d="M 15208267.00 12804725.00 L 14991733.00 12804725.00 L 14991733.00 13040945.00 L 15208267.00 13040945.00 L 15208267.00 12804725.00  z"/>
<path id="N" d="M 10905512.00 11066930.00 L 10826772.00 11066930.00 L 10826772.00 11342520.00 L 10905512.00 11342520.00 L 10905512.00 11066930.00  z"/>
<path id="N" d="M 6855677.00 15166923.00 L 6683077.00 14994323.00 L 6499341.00 15178059.00 L 6671941.00 15350659.00 L 6855677.00 15166923.00  z"/>
<path id="N" d="M 4872047.00 20943307.00 L 4627953.00 20943307.00 L 4627953.00 21203149.00 L 4872047.00 21203149.00 L 4872047.00 20943307.00  z"/>
<path id="N" d="M 6855677.00 14616923.00 L 6683077.00 14444323.00 L 6499341.00 14628059.00 L 6671941.00 14800659.00 L 6855677.00 14616923.00  z"/>
<path id="N" d="M 9803150.00 11066930.00 L 9724410.00 11066930.00 L 9724410.00 11342520.00 L 9803150.00 11342520.00 L 9803150.00 11066930.00  z"/>
<path id="N" d="M 9330709.00 11066930.00 L 9251969.00 11066930.00 L 9251969.00 11342520.00 L 9330709.00 11342520.00 L 9330709.00 11066930.00  z"/>
<path id="N" d="M 11220473.00 11066930.00 L 11141733.00 11066930.00 L 11141733.00 11342520.00 L 11220473.00 11342520.00 L 11220473.00 11066930.00  z"/>
<path id="N" d="M 11062992.00 11066930.00 L 10984252.00 11066930.00 L 10984252.00 11342520.00 L 11062992.00 11342520.00 L 11062992.00 11066930.00  z"/>
<path id="N" d="M 9960630.00 12279528.00 L 9881890.00 12279528.00 L 9881890.00 12555118.00 L 9960630.00 12555118.00 L 9960630.00 12279528.00  z"/>
<path id="N" d="M 8700788.00 12279528.00 L 8622048.00 12279528.00 L 8622048.00 12555118.00 L 8700788.00 12555118.00 L 8700788.00 12279528.00  z"/>
<path id="N" d="M 8385827.00 12279528.00 L 8307087.00 12279528.00 L 8307087.00 12555118.00 L 8385827.00 12555118.00 L 8385827.00 12279528.00  z"/>
<path id="N" d="M 8543307.00 12279528.00 L 8464567.00 12279528.00 L 8464567.00 12555118.00 L 8543307.00 12555118.00 L 8543307.00 12279528.00  z"/>
<path id="N" d="M 8858268.00 12279528.00 L 8779528.00 12279528.00 L 8779528.00 12555118.00 L 8858268.00 12555118.00 L 8858268.00 12279528.00  z"/>
<path id="N" d="M 4757480.00 6297245.00 L 4442520.00 6297245.00 L 4442520.00 6612205.00 L 4757480.00 6612205.00 L 4757480.00 6297245.00  z"/>
<path id="N" d="M 7831299.00 14361417.00 L 7250591.00 14361417.00 L 7250591.00 14479527.00 L 7831299.00 14479527.00 L 7831299.00 14361417.00  z"/>
<path id="N" d="M 11138583.00 13150591.00 L 11020473.00 13150591.00 L 11020473.00 13731299.00 L 11138583.00 13731299.00 L 11138583.00 13150591.00  z"/>
<path id="N" d="M 10708661.00 18748819.00 L 10157481.00 18748819.00 L 10157481.00 19221259.00 L 10708661.00 19221259.00 L 10708661.00 18748819.00  z"/>
<path id="N" d="M 15373680.00 7268872.00 L 14860178.00 7268872.00 L 14860178.00 7627978.00 L 15373680.00 7627978.00 L 15373680.00 7268872.00  z"/>
<path id="N" d="M 5457480.00 6297245.00 L 5142520.00 6297245.00 L 5142520.00 6612205.00 L 5457480.00 6612205.00 L 5457480.00 6297245.00  z"/>
<path id="N" d="M 8122047.00 18793307.00 L 7877953.00 18793307.00 L 7877953.00 19053149.00 L 8122047.00 19053149.00 L 8122047.00 18793307.00  z"/>
<path id="N" d="M 12053149.00 13327953.00 L 11793307.00 13327953.00 L 11793307.00 13572047.00 L 12053149.00 13572047.00 L 12053149.00 13327953.00  z"/>
<path id="N" d="M 11406693.00 9277953.00 L 11146851.00 9277953.00 L 11146851.00 9522047.00 L 11406693.00 9522047.00 L 11406693.00 9277953.00  z"/>
<path id="N" d="M 12653149.00 9277953.00 L 12393307.00 9277953.00 L 12393307.00 9522047.00 L 12653149.00 9522047.00 L 12653149.00 9277953.00  z"/>
<path id="N" d="M 6476378.00 21773229.00 L 5944882.00 21773229.00 L 5944882.00 23426771.00 L 6476378.00 23426771.00 L 6476378.00 21773229.00  z"/>
<path id="N" d="M 8700788.00 21773229.00 L 8169292.00 21773229.00 L 8169292.00 23426771.00 L 8700788.00 23426771.00 L 8700788.00 21773229.00  z"/>
<path id="N" d="M 7831298.00 14951969.00 L 7250590.00 14951969.00 L 7250590.00 15070079.00 L 7831298.00 15070079.00 L 7831298.00 14951969.00  z"/>
<path id="N" d="M 7035348.00 15417765.00 L 6882235.00 15264652.00 L 6715202.00 15431685.00 L 6868315.00 15584798.00 L 7035348.00 15417765.00  z"/>
<path id="N" d="M 15530905.00 18310607.00 L 13986235.00 18310607.00 L 13371307.00 17695679.00 L 13371307.00 16564350.00 L 13372415.00 16564350.00 A 142105.80 142105.80 0 0 0 13130612.00 16464661.00 L 13129539.00 16463588.00 A 96859.64 96859.64 0 0 1 12992558.00 16463589.00 L 12991484.29 16464660.71 L 12992557.00 16463588.00 A 96859.64 96859.64 0 0 1 12992557.00 16326606.00 L 12991485.41 16325529.59 L 13221912.00 16096671.00 A 142105.80 142105.80 0 1 0 13021736.00 15896495.00 L 12686658.00 16231573.00 L 12685585.00 16230500.00 A 96859.64 96859.64 0 1 1 12548604.00 16093519.00 L 12547531.00 16092446.00 L 12709184.00 15932361.00 A 142105.80 142105.80 0 0 0 12708400.50 15732184.50 L 12405243.00 15429028.00 L 12390177.00 15422787.00 L 12349409.00 15422787.00 L 12349409.00 15345669.00 L 11768701.00 15345669.00 L 11768701.00 15463779.00 L 12094508.81 15463779.00 L 12098425.00 15465401.00 L 12381352.00 15465401.00 L 12678267.50 15762317.50 L 12677195.00 15763390.00 A 96859.64 96859.64 0 0 1 12677195.00 15900372.00 L 12678268.00 15901445.00 L 12516615.00 16061530.00 A 142105.80 142105.80 0 1 0 12716791.00 16261706.00 L 13051869.00 15926628.00 L 13052942.00 15927701.00 A 96859.64 96859.64 0 1 1 13189923.00 16064682.00 L 13190996.00 16065755.00 L 12960568.00 16294617.00 A 142105.80 142105.80 0 1 0 13160752.00 16494786.00 L 13161825.00 16495858.00 A 96859.64 96859.64 0 0 1 13327176.00 16564350.00 L 13328693.00 16564350.00 L 13328693.00 17704504.00 L 13334934.00 17719570.00 L 13956103.00 18340739.00 L 13956103.00 18704307.00 L 15530905.00 18704307.00 L 15530905.00 18310607.00  z"/>
<path id="N" d="M 6554801.00 13904801.00 L 6544904.63 13928693.00 L 5991640.00 13928693.00 L 5120365.00 13057418.00 L 5116525.00 13055827.30 L 5116525.00 12492323.00 L 5107476.00 12470477.00 L 5085630.00 12461428.00 L 4914370.00 12461428.00 L 4892524.00 12470477.00 L 4883475.00 12492323.00 L 4883475.00 13069095.00 L 4892524.00 13090941.00 L 4914370.00 13099990.00 L 5085630.00 13099990.00 L 5097681.19 13094998.19 L 5967749.00 13965066.00 L 5982815.00 13971307.00 L 6544904.63 13971307.00 L 6554801.00 13995199.00 A 63921.13 63921.13 0 1 0 6554801.00 13904801.00  z"/>
<path id="N" d="M 12023600.57 14676378.00 L 12349409.00 14676378.00 L 12349409.00 14558268.00 L 11768701.00 14558268.00 L 11768701.00 14635386.00 L 10721258.96 14635386.00 L 10627656.53 14541784.25 L 10637553.00 14517892.00 A 63920.91 63920.91 0 1 0 10573632.00 14581813.00 L 10597524.25 14571916.53 L 10697366.00 14671759.00 L 10712433.00 14678000.00 L 12019685.00 14678000.00 L 12023600.57 14676378.00  z"/>
<path id="N" d="M 6926306.00 18582605.00 L 6938506.00 18553150.00 L 6926306.00 18523695.00 L 6918158.00 18520320.17 L 6918158.00 18390714.00 L 7576107.55 17732764.45 L 7600000.00 17742661.00 A 63920.91 63920.91 0 1 0 7536079.00 17678740.00 L 7545975.55 17702632.45 L 6881785.00 18366823.00 L 6875544.00 18381889.00 L 6875544.00 18520320.17 L 6867396.00 18523695.00 L 6855196.00 18553150.00 L 6867396.00 18582605.00 L 6896851.00 18594805.00 L 6926306.00 18582605.00  z"/>
<path id="N" d="M 12349409.00 15542520.00 L 12023600.57 15542520.00 L 12019685.00 15540898.00 L 11406533.99 15540898.00 L 10951124.47 15085489.39 L 10961021.00 15061597.00 A 63920.91 63920.91 0 1 0 10897100.00 15125518.00 L 10920992.39 15115621.47 L 11382642.00 15577272.00 L 11397708.00 15583512.00 L 11768701.00 15583512.00 L 11768701.00 15660630.00 L 12349409.00 15660630.00 L 12349409.00 15542520.00  z"/>
<path id="N" d="M 8084645.00 20280513.00 L 8052803.00 20280513.00 L 8052803.00 19908267.00 L 8140945.00 19908267.00 L 8140945.00 19691733.00 L 7921865.00 19691733.00 L 7371307.00 19141175.00 L 7371307.00 18290701.37 L 7395199.00 18280805.00 A 63921.13 63921.13 0 1 0 7304801.00 18280805.00 L 7328693.00 18290701.37 L 7328693.00 19150000.00 L 7334934.00 19165066.00 L 7904725.00 19734857.00 L 7904725.00 19908267.00 L 8010189.00 19908267.00 L 8010189.00 20280513.00 L 7978347.00 20280513.00 L 7978347.00 20392717.00 L 8084645.00 20392717.00 L 8084645.00 20280513.00  z"/>
<path id="N" d="M 6532605.00 18582605.00 L 6544805.00 18553150.00 L 6532605.00 18523695.00 L 6524457.00 18520320.17 L 6524457.00 18019358.00 L 6518216.00 18004292.00 L 6304024.45 17790100.45 L 6313921.00 17766208.00 A 63920.91 63920.91 0 1 0 6250000.00 17830129.00 L 6273892.45 17820232.45 L 6481843.00 18028183.00 L 6481843.00 18520320.17 L 6473695.00 18523695.00 L 6461495.00 18553150.00 L 6473695.00 18582605.00 L 6503150.00 18594805.00 L 6532605.00 18582605.00  z"/>
<path id="N" d="M 12349409.00 16133072.00 L 11768701.00 16133072.00 L 11768701.00 16170820.00 L 11000952.97 16170820.00 L 10804024.49 15973892.33 L 10813921.00 15950000.00 A 63920.91 63920.91 0 1 0 10750000.00 16013921.00 L 10773892.33 16004024.49 L 10977060.00 16207193.00 L 10992127.00 16213434.00 L 11768701.00 16213434.00 L 11768701.00 16251182.00 L 12349409.00 16251182.00 L 12349409.00 16133072.00  z"/>
<path id="N" d="M 8040945.00 7863780.00 L 8014545.00 7863780.00 L 8014545.00 7755905.00 L 8070866.00 7755905.00 L 8070866.00 6377953.00 L 7677166.00 6377953.00 L 7677166.00 7755905.00 L 7709471.00 7755905.00 L 7709471.00 7863780.00 L 7659055.00 7863780.00 L 7659055.00 8249606.00 L 8040945.00 8249606.00 L 8040945.00 7863780.00  z"/>
<path id="N" d="M 10353150.00 19927953.00 L 10244536.00 19927953.00 L 10244536.00 19851181.00 L 10708661.00 19851181.00 L 10708661.00 19378741.00 L 10187613.00 19378741.00 L 10080362.00 19271490.00 L 10080362.00 18716875.00 L 10496768.00 18300469.00 L 10503009.00 18285403.00 L 10503009.00 18249410.00 L 10548031.00 18249410.00 L 10548031.00 17668702.00 L 10429921.00 17668702.00 L 10429921.00 18249410.00 L 10460395.00 18249410.00 L 10460395.00 18276578.00 L 10043989.00 18692984.00 L 10037748.00 18708050.00 L 10037748.00 19280315.00 L 10043989.00 19295381.00 L 10157481.00 19408873.00 L 10157481.00 19851181.00 L 10201922.00 19851181.00 L 10201922.00 19927953.00 L 10093308.00 19927953.00 L 10093308.00 20172047.00 L 10353150.00 20172047.00 L 10353150.00 19927953.00  z"/>
<path id="N" d="M 10154331.00 17668701.00 L 10077213.00 17668701.00 L 10077213.00 17615551.00 L 10070973.00 17600485.00 L 10004024.55 17533537.19 L 10013921.00 17509645.00 L 9995199.00 17464446.00 L 9950000.00 17445724.00 L 9926107.55 17455620.55 L 9805421.00 17334934.00 L 9790355.00 17328693.00 L 7021258.88 17328693.00 L 7007666.16 17315100.55 L 7013921.00 17300000.00 A 63920.91 63920.91 0 1 0 6950000.00 17363921.00 L 6982683.41 17350383.12 L 6997367.00 17365067.00 L 7012433.00 17371307.00 L 9781530.00 17371307.00 L 9895975.55 17485752.55 L 9886079.00 17509645.00 L 9904801.00 17554844.00 L 9950000.00 17573566.00 L 9973892.19 17563669.55 L 10034599.00 17624376.94 L 10034599.00 17919685.00 L 10036221.00 17923600.57 L 10036221.00 18249409.00 L 10154331.00 18249409.00 L 10154331.00 17668701.00  z"/>
<path id="N" d="M 6199898.00 17186154.00 L 6167149.55 17199718.82 L 6075199.00 17107769.00 L 6060133.00 17101528.00 L 5908267.00 17101528.00 L 5908267.00 17004725.00 L 5691733.00 17004725.00 L 5691733.00 17068715.00 L 5344488.00 17068715.00 L 5344488.00 16732284.00 L 4931102.00 16732284.00 L 4931102.00 17283464.00 L 5344488.00 17283464.00 L 5344488.00 17176955.00 L 5691733.00 17176955.00 L 5691733.00 17240945.00 L 5908267.00 17240945.00 L 5908267.00 17144142.00 L 6051307.95 17144142.00 L 6142204.85 17235039.61 L 6135977.00 17250075.00 A 63920.91 63920.91 0 1 0 6199898.00 17186154.00  z"/>
<path id="N" d="M 5344488.00 18479316.00 L 5705908.00 18479317.00 L 5744177.00 18463465.00 L 5754491.89 18453150.00 L 5922047.00 18453150.00 L 5922047.00 18193308.00 L 5677953.00 18193308.00 L 5677953.00 18371076.00 L 5344488.00 18371076.00 L 5344488.00 18149606.00 L 4931102.00 18149606.00 L 4931102.00 18700786.00 L 5344488.00 18700786.00 L 5344488.00 18479316.00  z"/>
<path id="N" d="M 10350656.00 13082024.61 L 10363921.00 13050000.00 A 63920.91 63920.91 0 1 0 10236079.00 13050000.00 L 10242416.00 13065298.90 L 10242416.00 13150591.00 L 10233072.00 13150591.00 L 10233072.00 13731299.00 L 10351182.00 13731299.00 L 10350656.00 13082024.61  z"/>
<path id="N" d="M 7100000.00 12686079.00 L 7076108.23 12695975.28 L 6358373.00 11978241.00 L 6343307.00 11972000.00 L 5161581.99 11972000.00 L 4773622.00 11584040.67 L 4773622.00 11062992.00 L 4621049.00 11062992.00 L 4621049.00 10196850.00 L 4773622.00 10196850.00 L 4773622.00 9694592.90 L 4777742.00 9684646.00 L 4777742.00 9408267.00 L 4890944.00 9408267.00 L 4890944.00 9191733.00 L 4654724.00 9191733.00 L 4654724.00 9408267.00 L 4669502.00 9408267.00 L 4669502.00 9645670.00 L 4360236.00 9645670.00 L 4360236.00 10196850.00 L 4512809.00 10196850.00 L 4512809.00 11062992.00 L 4360236.00 11062992.00 L 4360236.00 11614172.00 L 4743488.67 11614172.00 L 5137689.00 12008373.00 L 5152756.00 12014614.00 L 6334481.99 12014614.00 L 7045975.28 12726108.23 L 7036079.00 12750000.00 A 63920.91 63920.91 0 1 0 7100000.00 12686079.00  z"/>
<path id="N" d="M 12645199.00 16454801.00 L 12621537.08 16444999.93 L 12527245.00 16350707.00 L 12488973.59 16334856.00 L 12349410.00 16334856.00 L 12349410.00 16329921.00 L 11768702.00 16329921.00 L 11768702.00 16448031.00 L 12349410.00 16448031.00 L 12349410.00 16443096.00 L 12466558.14 16443096.00 L 12544999.93 16521537.08 L 12554801.00 16545199.00 A 63921.13 63921.13 0 0 0 12645199.00 16454801.00  z"/>
<path id="N" d="M 15208267.00 13504724.00 L 15154120.00 13504724.00 L 15154120.00 13395276.00 L 15208267.00 13395276.00 L 15208267.00 13159056.00 L 14991733.00 13159056.00 L 14991733.00 13395276.00 L 15045880.00 13395276.00 L 15045880.00 13502321.21 L 15041729.59 13500604.00 L 14909983.00 13500604.00 L 14667696.00 13258317.00 L 14667696.00 13130734.00 L 14850827.00 13130734.00 L 14850827.00 12921234.00 L 14376325.00 12921234.00 L 14376325.00 13130734.00 L 14559456.00 13130734.00 L 14559455.00 13280735.00 L 14575307.00 13319004.00 L 14849296.00 13592993.00 L 14887567.41 13608844.00 L 14991733.00 13608844.00 L 14991733.00 13740944.00 L 15208267.00 13740944.00 L 15208267.00 13504724.00  z"/>
<path id="N" d="M 5204937.00 20488794.00 L 5217418.00 20458661.00 L 5204937.00 20428528.00 L 5174804.00 20416047.00 L 4997638.00 20416047.00 L 4967505.00 20428528.00 L 4963849.30 20437354.00 L 4594587.96 20437354.00 L 4459890.00 20302656.96 L 4459890.00 20265749.00 L 4458267.00 20261831.02 L 4458267.00 20059056.00 L 4241733.00 20059056.00 L 4241733.00 20295276.00 L 4417276.00 20295276.00 L 4417276.00 20311482.00 L 4423517.00 20326548.00 L 4570696.00 20473728.00 L 4585762.00 20479968.00 L 4963849.30 20479968.00 L 4967505.00 20488794.00 L 4997638.00 20501275.00 L 5174804.00 20501275.00 L 5204937.00 20488794.00  z"/>
<path id="N" d="M 6945199.00 19204801.00 L 6919733.00 19194252.66 L 6919733.00 18979027.48 L 6926306.00 18976305.00 L 6938506.00 18946850.00 L 6926306.00 18917395.00 L 6896851.00 18905195.00 L 6867396.00 18917395.00 L 6855196.00 18946850.00 L 6867396.00 18976305.00 L 6877119.00 18980332.18 L 6877119.00 19195556.60 L 6854801.00 19204801.00 A 63921.13 63921.13 0 1 0 6945199.00 19204801.00  z"/>
<path id="N" d="M 8633464.00 7796616.63 L 8817692.05 7612388.00 L 8914566.00 7612389.00 L 8924517.10 7608267.00 L 9090944.00 7608267.00 L 9090944.00 7391733.00 L 8854724.00 7391733.00 L 8854724.00 7504148.00 L 8795275.00 7504147.00 L 8757005.29 7520000.71 L 8556926.37 7720079.00 L 8318504.00 7720079.00 L 8318504.00 8035039.00 L 8633464.00 8035039.00 L 8633464.00 7796616.63  z"/>
<path id="N" d="M 7831298.00 16329921.00 L 7541836.27 16329921.00 L 7531887.59 16325802.00 L 7210897.00 16325802.00 L 7143069.95 16257974.95 L 7136735.00 16242681.00 A 63921.13 63921.13 0 0 0 7046337.00 16333079.00 L 7078363.98 16346344.98 L 7150210.00 16418191.00 L 7188481.41 16434042.00 L 7250590.00 16434042.00 L 7250590.00 16448031.00 L 7831298.00 16448031.00 L 7831298.00 16329921.00  z"/>
<path id="N" d="M 4708267.00 7304725.00 L 4654120.00 7304725.00 L 4654120.00 7202756.00 L 4757480.00 7202756.00 L 4757480.00 6887796.00 L 4442520.00 6887796.00 L 4442520.00 7202756.00 L 4545880.00 7202756.00 L 4545880.00 7304725.00 L 4491733.00 7304725.00 L 4491733.00 7540945.00 L 4708267.00 7540945.00 L 4708267.00 7304725.00  z"/>
<path id="N" d="M 10231207.00 13838033.00 L 10215911.52 13831697.42 L 10158451.00 13774236.19 L 10158452.00 13450000.00 L 10154331.00 13440051.58 L 10154331.00 13150591.00 L 10036221.00 13150591.00 L 10036221.00 13731299.00 L 10050211.00 13731299.00 L 10050210.00 13796654.00 L 10066062.00 13834923.00 L 10127542.48 13896402.73 L 10140809.00 13928431.00 A 63921.13 63921.13 0 0 0 10231207.00 13838033.00  z"/>
<path id="N" d="M 9330709.00 12279528.00 L 9251969.00 12279528.00 L 9251969.00 12555118.00 L 9330709.00 12555118.00 L 9330709.00 12279528.00  z"/>
<path id="N" d="M 9645670.00 11066930.00 L 9566930.00 11066930.00 L 9566930.00 11342520.00 L 9645670.00 11342520.00 L 9645670.00 11066930.00  z"/>
<path id="N" d="M 15530905.00 16735804.00 L 13986235.55 16735804.00 L 13771307.00 16520875.98 L 13771307.00 15150000.00 L 13765067.00 15134934.00 L 12681208.00 14051076.00 L 12666142.00 14044835.00 L 11224947.00 14044835.00 L 10943354.00 13763242.00 L 10943354.00 13480315.00 L 10941732.00 13476398.81 L 10941732.00 13150591.00 L 10823622.00 13150591.00 L 10823622.00 13731299.00 L 10900740.00 13731299.00 L 10900740.00 13772067.00 L 10906981.00 13787133.00 L 11201056.00 14081208.00 L 11216122.00 14087449.00 L 12657316.99 14087449.00 L 13728693.00 15158825.99 L 13728693.00 16529701.00 L 13734934.00 16544767.00 L 13956103.00 16765936.55 L 13956103.00 17129504.00 L 15530905.00 17129504.00 L 15530905.00 16735804.00  z"/>
<path id="N" d="M 10118110.00 11066930.00 L 10039370.00 11066930.00 L 10039370.00 11342520.00 L 10118110.00 11342520.00 L 10118110.00 11066930.00  z"/>
<path id="N" d="M 14099687.00 21726851.00 L 14774571.00 21051967.00 L 14790422.00 21013698.00 L 14790422.00 20982152.06 L 14811853.00 20967832.00 L 14830815.00 20939454.00 L 14837474.00 20905979.00 L 14837474.00 20807407.00 A 87473.96 87473.96 0 1 0 14662526.00 20807407.00 L 14662526.00 20905979.00 L 14669185.00 20939454.00 L 14682182.00 20958904.95 L 14682182.00 20991280.00 L 14039000.00 21634462.00 L 12921234.05 21634462.00 L 12632836.87 21346063.98 L 12832444.08 21146456.00 L 12874016.00 21146456.00 L 12874016.00 20697638.00 L 12637796.00 20697638.00 L 12637796.00 21146456.00 L 12679369.62 21146456.00 L 12533881.06 21291944.00 L 11088166.06 21291944.00 L 10942678.62 21146456.00 L 10984252.00 21146456.00 L 10984252.00 20697638.00 L 10748032.00 20697638.00 L 10748032.00 21146456.00 L 10789603.08 21146456.00 L 11027480.00 21384333.00 L 11065749.00 21400184.00 L 12533881.05 21400184.00 L 12860548.00 21726851.00 L 12898819.41 21742702.00 L 14061418.00 21742703.00 L 14099687.00 21726851.00  z"/>
<path id="N" d="M 15125000.00 12110000.00 L 15097537.00 12110000.00 L 15097537.00 11735826.00 L 15352361.00 11735826.00 L 15352361.00 11342126.00 L 14857846.00 11342126.00 L 14452537.00 10936817.00 L 14452537.00 9402537.00 L 14942473.60 9402537.00 L 14969673.00 9420711.00 L 15039731.00 9434646.00 L 15194127.00 9434646.00 A 183069.43 183069.43 0 0 0 15194127.00 9068504.00 L 15039731.00 9068504.00 L 14969673.00 9082439.00 L 14947187.92 9097463.00 L 14300000.00 9097463.00 A 152537.16 152537.16 0 0 0 14147463.00 9250000.00 L 14147463.00 11000000.00 L 14159074.00 11058374.00 L 14192140.00 11107860.00 L 14643701.00 11559421.00 L 14643701.00 11735826.00 L 14792463.00 11735826.00 L 14792463.00 12110000.00 L 14765000.00 12110000.00 L 14765000.00 12590000.00 L 15125000.00 12590000.00 L 15125000.00 12110000.00  z"/>
<path id="N" d="M 10607860.00 5592140.00 L 10443481.00 5427761.00 L 10443481.00 4804330.00 L 10440551.00 4789599.50 L 10440551.00 4324016.00 L 9259449.00 4324016.00 L 9259449.00 4953936.00 L 10138407.00 4953936.00 L 10138407.00 5490944.00 L 10150018.00 5549318.00 L 10183084.00 5598804.00 L 10392140.00 5807860.00 A 152532.52 152532.52 0 0 0 10607860.00 5592140.00  z"/>
<path id="N" d="M 14835793.00 19808228.00 L 14804120.00 19808228.00 L 14804120.00 19623661.76 L 14813921.00 19600000.00 A 63920.91 63920.91 0 1 0 14686079.00 19600000.00 L 14695880.00 19623661.76 L 14695880.00 19808228.00 L 14664207.00 19808228.00 L 14664207.00 20078386.00 L 14835793.00 20078386.00 L 14835793.00 19808228.00  z"/>
<path id="N" d="M 8858268.00 11066930.00 L 8779528.00 11066930.00 L 8779528.00 11342520.00 L 8858268.00 11342520.00 L 8858268.00 11066930.00  z"/>
<path id="N" d="M 10905512.00 12279528.00 L 10826772.00 12279528.00 L 10826772.00 12555118.00 L 10905512.00 12555118.00 L 10905512.00 12279528.00  z"/>
<path id="N" d="M 15530905.00 17523206.00 L 13986236.99 17523206.00 L 13571307.00 17108276.99 L 13571307.00 15650109.00 L 13572415.00 15650109.00 A 142105.80 142105.80 0 0 0 13330611.00 15550421.00 L 13329538.00 15549348.00 A 96859.64 96859.64 0 0 1 13192557.00 15549349.00 L 13191483.29 15550420.71 L 13192556.00 15549348.00 A 96859.64 96859.64 0 0 1 13192556.00 15412366.00 L 13191484.41 15411289.59 L 13328068.00 15276274.00 A 142105.80 142105.80 0 1 0 13127891.29 15076099.71 L 12941801.00 15262189.00 L 12940728.00 15261116.00 A 96859.64 96859.64 0 1 1 12803747.00 15124135.00 L 12802675.41 15123058.59 L 12942614.00 14984689.00 A 142105.80 142105.80 0 0 0 12941831.50 14784512.50 L 12405244.00 14247926.00 L 12390178.00 14241685.00 L 12349409.00 14241685.00 L 12349409.00 14164567.00 L 11768701.00 14164567.00 L 11768701.00 14282677.00 L 12094508.81 14282677.00 L 12098425.00 14284299.00 L 12381353.00 14284299.00 L 12911698.50 14814645.50 L 12910625.00 14815718.00 A 96859.64 96859.64 0 0 1 12910625.00 14952700.00 L 12911698.00 14953773.00 L 12771758.00 15092146.00 A 142105.80 142105.80 0 1 0 12971933.00 15292321.00 L 13158025.29 15106231.29 L 13159098.00 15107304.00 A 96859.64 96859.64 0 1 1 13296079.00 15244285.00 L 13297150.59 15245361.41 L 13160567.00 15380377.00 A 142105.80 142105.80 0 1 0 13360751.29 15580545.29 L 13361824.00 15581618.00 A 96859.64 96859.64 0 0 1 13527176.00 15650109.00 L 13528693.00 15650109.00 L 13528693.00 17117102.00 L 13534934.00 17132168.00 L 13956103.00 17553337.99 L 13956103.00 17916906.00 L 15530905.00 17916906.00 L 15530905.00 17523206.00  z"/>
<path id="N" d="M 11754786.00 10708071.00 L 11754786.00 10591929.00 L 11736376.00 10547484.00 L 11691931.00 10529074.00 L 11331693.00 10529074.00 L 11287248.00 10547484.00 L 11268838.00 10591929.00 L 11268838.00 10708071.00 L 11287248.00 10752516.00 L 11331693.00 10770926.00 L 11691931.00 10770926.00 L 11736376.00 10752516.00 L 11754786.00 10708071.00  z"/>
<path id="N" d="M 5342731.00 21118716.00 L 5355212.00 21088583.00 L 5355212.00 20911417.00 L 5342731.00 20881284.00 L 5312598.00 20868803.00 L 5282465.00 20881284.00 L 5269984.00 20911417.00 L 5269984.00 21088583.00 L 5282465.00 21118716.00 L 5312598.00 21131197.00 L 5342731.00 21118716.00  z"/>
<path id="N" d="M 5500212.00 21118716.00 L 5512693.00 21088583.00 L 5512693.00 20911417.00 L 5500212.00 20881284.00 L 5470079.00 20868803.00 L 5439946.00 20881284.00 L 5427465.00 20911417.00 L 5427465.00 21088583.00 L 5439946.00 21118716.00 L 5470079.00 21131197.00 L 5500212.00 21118716.00  z"/>
<path id="N" d="M 5657692.00 19878559.00 L 5670173.00 19848426.00 L 5670173.00 19671260.00 L 5657692.00 19641127.00 L 5627559.00 19628646.00 L 5597426.00 19641127.00 L 5584945.00 19671260.00 L 5584945.00 19848426.00 L 5597426.00 19878559.00 L 5627559.00 19891040.00 L 5657692.00 19878559.00  z"/>
<path id="N" d="M 5500212.00 19878559.00 L 5512693.00 19848426.00 L 5512693.00 19671260.00 L 5500212.00 19641127.00 L 5470079.00 19628646.00 L 5439946.00 19641127.00 L 5427465.00 19671260.00 L 5427465.00 19848426.00 L 5439946.00 19878559.00 L 5470079.00 19891040.00 L 5500212.00 19878559.00  z"/>
<path id="N" d="M 5815172.00 19878559.00 L 5827653.00 19848426.00 L 5827653.00 19671260.00 L 5815172.00 19641127.00 L 5785039.00 19628646.00 L 5754906.00 19641127.00 L 5742425.00 19671260.00 L 5742425.00 19848426.00 L 5754906.00 19878559.00 L 5785039.00 19891040.00 L 5815172.00 19878559.00  z"/>
<path id="N" d="M 5204937.00 20803755.00 L 5217418.00 20773622.00 L 5204937.00 20743489.00 L 5174804.00 20731008.00 L 4997638.00 20731008.00 L 4967505.00 20743489.00 L 4955024.00 20773622.00 L 4967505.00 20803755.00 L 4997638.00 20816236.00 L 5174804.00 20816236.00 L 5204937.00 20803755.00  z"/>
<path id="N" d="M 5815172.00 21118716.00 L 5827653.00 21088583.00 L 5827653.00 20911417.00 L 5815172.00 20881284.00 L 5785039.00 20868803.00 L 5754906.00 20881284.00 L 5742425.00 20911417.00 L 5742425.00 21088583.00 L 5754906.00 21118716.00 L 5785039.00 21131197.00 L 5815172.00 21118716.00  z"/>
<path id="N" d="M 6445094.00 20331314.00 L 6457575.00 20301181.00 L 6445094.00 20271048.00 L 6414961.00 20258567.00 L 6237795.00 20258567.00 L 6207662.00 20271048.00 L 6195181.00 20301181.00 L 6207662.00 20331314.00 L 6237795.00 20343795.00 L 6414961.00 20343795.00 L 6445094.00 20331314.00  z"/>
<path id="N" d="M 6130133.00 21118716.00 L 6142614.00 21088583.00 L 6142614.00 20911417.00 L 6130133.00 20881284.00 L 6100000.00 20868803.00 L 6069867.00 20881284.00 L 6057386.00 20911417.00 L 6057386.00 21088583.00 L 6069867.00 21118716.00 L 6100000.00 21131197.00 L 6130133.00 21118716.00  z"/>
<path id="N" d="M 5972653.00 21118716.00 L 5985134.00 21088583.00 L 5985134.00 20911417.00 L 5972653.00 20881284.00 L 5942520.00 20868803.00 L 5912387.00 20881284.00 L 5899906.00 20911417.00 L 5899906.00 21088583.00 L 5912387.00 21118716.00 L 5942520.00 21131197.00 L 5972653.00 21118716.00  z"/>
<path id="N" d="M 5657692.00 21118716.00 L 5670173.00 21088583.00 L 5670173.00 20911417.00 L 5657692.00 20881284.00 L 5627559.00 20868803.00 L 5597426.00 20881284.00 L 5584945.00 20911417.00 L 5584945.00 21088583.00 L 5597426.00 21118716.00 L 5627559.00 21131197.00 L 5657692.00 21118716.00  z"/>
<path id="N" d="M 6445094.00 20016353.00 L 6457575.00 19986220.00 L 6445094.00 19956087.00 L 6414961.00 19943606.00 L 6237795.00 19943606.00 L 6207662.00 19956087.00 L 6195181.00 19986220.00 L 6207662.00 20016353.00 L 6237795.00 20028834.00 L 6414961.00 20028834.00 L 6445094.00 20016353.00  z"/>
<path id="N" d="M 5972653.00 19878559.00 L 5985134.00 19848426.00 L 5985134.00 19671260.00 L 5972653.00 19641127.00 L 5942520.00 19628646.00 L 5912387.00 19641127.00 L 5899906.00 19671260.00 L 5899906.00 19848426.00 L 5912387.00 19878559.00 L 5942520.00 19891040.00 L 5972653.00 19878559.00  z"/>
<path id="N" d="M 9957480.00 17668701.00 L 9839370.00 17668701.00 L 9839370.00 18249409.00 L 9957480.00 18249409.00 L 9957480.00 17668701.00  z"/>
<path id="N" d="M 8776378.00 17668701.00 L 8658268.00 17668701.00 L 8658268.00 18249409.00 L 8776378.00 18249409.00 L 8776378.00 17668701.00  z"/>
<path id="N" d="M 12349409.00 16723622.00 L 11768701.00 16723622.00 L 11768701.00 16841732.00 L 12349409.00 16841732.00 L 12349409.00 16723622.00  z"/>
<path id="N" d="M 9366928.00 17668701.00 L 9248818.00 17668701.00 L 9248818.00 18249409.00 L 9366928.00 18249409.00 L 9366928.00 17668701.00  z"/>
<path id="N" d="M 9760630.00 17668701.00 L 9642520.00 17668701.00 L 9642520.00 18249409.00 L 9760630.00 18249409.00 L 9760630.00 17668701.00  z"/>
<path id="N" d="M 11138583.00 17668701.00 L 11020473.00 17668701.00 L 11020473.00 18249409.00 L 11138583.00 18249409.00 L 11138583.00 17668701.00  z"/>
<path id="N" d="M 15352361.00 9964174.00 L 14643701.00 9964174.00 L 14643701.00 10357874.00 L 15352361.00 10357874.00 L 15352361.00 9964174.00  z"/>
<path id="N" d="M 15530905.00 15948402.00 L 13956103.00 15948402.00 L 13956103.00 16342102.00 L 15530905.00 16342102.00 L 15530905.00 15948402.00  z"/>
<path id="N" d="M 15530905.00 15161001.00 L 13956103.00 15161001.00 L 13956103.00 15554701.00 L 15530905.00 15554701.00 L 15530905.00 15161001.00  z"/>
<path id="N" d="M 7831299.00 17117323.00 L 7250591.00 17117323.00 L 7250591.00 17235433.00 L 7831299.00 17235433.00 L 7831299.00 17117323.00  z"/>
<path id="N" d="M 8382677.00 17668701.00 L 8264567.00 17668701.00 L 8264567.00 18249409.00 L 8382677.00 18249409.00 L 8382677.00 17668701.00  z"/>
<path id="N" d="M 4777559.00 8578740.00 L 4501969.00 8578740.00 L 4501969.00 8854330.00 L 4777559.00 8854330.00 L 4777559.00 8578740.00  z"/>
<path id="N" d="M 9563779.00 17668701.00 L 9445669.00 17668701.00 L 9445669.00 18249409.00 L 9563779.00 18249409.00 L 9563779.00 17668701.00  z"/>
<path id="N" d="M 11377953.00 20697638.00 L 11259843.00 20697638.00 L 11259843.00 21146456.00 L 11377953.00 21146456.00 L 11377953.00 20697638.00  z"/>
<path id="N" d="M 12349409.00 14361417.00 L 11768701.00 14361417.00 L 11768701.00 14479527.00 L 12349409.00 14479527.00 L 12349409.00 14361417.00  z"/>
<path id="N" d="M 9957480.00 13150591.00 L 9839370.00 13150591.00 L 9839370.00 13731299.00 L 9957480.00 13731299.00 L 9957480.00 13150591.00  z"/>
<path id="N" d="M 10590551.00 12279528.00 L 10511811.00 12279528.00 L 10511811.00 12555118.00 L 10590551.00 12555118.00 L 10590551.00 12279528.00  z"/>
<path id="N" d="M 10590551.00 11066930.00 L 10511811.00 11066930.00 L 10511811.00 11342520.00 L 10590551.00 11342520.00 L 10590551.00 11066930.00  z"/>
<path id="N" d="M 12559055.00 20697638.00 L 12440945.00 20697638.00 L 12440945.00 21146456.00 L 12559055.00 21146456.00 L 12559055.00 20697638.00  z"/>
<path id="N" d="M 9170079.00 13150590.00 L 9051969.00 13150590.00 L 9051969.00 13731298.00 L 9170079.00 13731298.00 L 9170079.00 13150590.00  z"/>
<path id="N" d="M 9366928.00 13150591.00 L 9248818.00 13150591.00 L 9248818.00 13731299.00 L 9366928.00 13731299.00 L 9366928.00 13150591.00  z"/>
<path id="N" d="M 8579527.00 13150591.00 L 8461417.00 13150591.00 L 8461417.00 13731299.00 L 8579527.00 13731299.00 L 8579527.00 13150591.00  z"/>
<path id="N" d="M 12349409.00 15148818.00 L 11768701.00 15148818.00 L 11768701.00 15266928.00 L 12349409.00 15266928.00 L 12349409.00 15148818.00  z"/>
<path id="N" d="M 7831299.00 14755118.00 L 7250591.00 14755118.00 L 7250591.00 14873228.00 L 7831299.00 14873228.00 L 7831299.00 14755118.00  z"/>
<path id="N" d="M 8382677.00 13150591.00 L 8264567.00 13150591.00 L 8264567.00 13731299.00 L 8382677.00 13731299.00 L 8382677.00 13150591.00  z"/>
<path id="N" d="M 6456692.00 4133858.00 L 5866142.00 4133858.00 L 5866142.00 5472440.00 L 6456692.00 5472440.00 L 6456692.00 4133858.00  z"/>
<path id="N" d="M 9094488.00 4133858.00 L 8503938.00 4133858.00 L 8503938.00 5472440.00 L 9094488.00 5472440.00 L 9094488.00 4133858.00  z"/>
<path id="N" d="M 11954330.00 18698078.00 L 12027953.00 18698078.00 L 12027953.00 18806692.00 L 12272047.00 18806692.00 L 12272047.00 18546850.00 L 12027953.00 18546850.00 L 12027953.00 18655464.00 L 11954330.00 18655464.00 L 11954330.00 18461024.00 L 11426751.98 18461024.00 L 11422834.00 18459401.00 L 11121403.00 18459401.00 L 10943355.00 18281353.00 L 10943354.00 17998425.00 L 10941732.00 17994508.81 L 10941732.00 17668701.00 L 10823622.00 17668701.00 L 10823622.00 18249409.00 L 10900740.00 18249409.00 L 10900741.00 18290178.00 L 10906982.00 18305244.00 L 11097512.00 18495774.00 L 11112578.00 18502015.00 L 11245670.00 18502015.00 L 11245670.00 18854724.00 L 11954330.00 18854724.00 L 11954330.00 18698078.00  z"/>
<path id="N" d="M 12362205.00 20922940.42 L 12366325.00 20912989.59 L 12366325.00 20666729.88 L 12474787.09 20558267.00 L 12640944.00 20558267.00 L 12640944.00 20341733.00 L 12404724.00 20341733.00 L 12404724.00 20475255.96 L 12273936.00 20606043.00 L 12258085.00 20644314.41 L 12258085.00 20697638.00 L 12244095.00 20697638.00 L 12244095.00 21146456.00 L 12362205.00 21146456.00 L 12362205.00 20922940.42  z"/>
<path id="N" d="M 13894990.93 13506802.00 L 13918925.00 13506802.00 A 106801.81 106801.81 0 0 0 13959796.00 13301328.00 L 13938961.00 13297183.53 L 13938961.00 12541424.00 L 13927350.00 12483050.00 L 13894284.00 12433564.00 L 13835000.00 12374280.00 L 13835000.00 12110000.00 L 13807537.00 12110000.00 L 13807537.00 11735826.00 L 13856299.00 11735826.00 L 13856299.00 11342126.00 L 13147639.00 11342126.00 L 13147639.00 11735826.00 L 13502463.00 11735826.00 L 13502463.00 12110000.00 L 13475000.00 12110000.00 L 13475000.00 12590000.00 L 13619280.00 12590000.00 L 13633887.00 12604607.00 L 13633887.00 13297183.53 L 13613052.00 13301328.00 A 106805.19 106805.19 0 0 0 13653923.00 13506802.00 L 13677857.07 13506802.00 A 151002.38 151002.38 0 0 0 13894990.93 13506802.00  z"/>
<path id="N" d="M 10433071.00 11066930.00 L 10354331.00 11066930.00 L 10354331.00 11342520.00 L 10433071.00 11342520.00 L 10433071.00 11066930.00  z"/>
<path id="N" d="M 5342731.00 19878559.00 L 5355212.00 19848426.00 L 5355212.00 19671260.00 L 5342731.00 19641127.00 L 5337841.00 19639101.58 L 5337841.00 19522047.00 L 5556692.00 19522047.00 L 5556692.00 19277953.00 L 5373386.18 19277953.00 L 4995551.00 18900117.00 L 4957279.59 18884266.00 L 4712098.76 18884266.00 L 4688437.00 18874465.00 A 63920.91 63920.91 0 0 0 4688437.00 19002307.00 L 4712098.76 18992506.00 L 4934864.03 18992506.00 L 5296850.00 19354491.18 L 5296850.00 19498444.02 L 5295227.00 19502362.00 L 5295227.00 19635841.02 L 5282465.00 19641127.00 L 5269984.00 19671260.00 L 5269984.00 19848426.00 L 5282465.00 19878559.00 L 5312598.00 19891040.00 L 5342731.00 19878559.00  z"/>
<path id="N" d="M 11413921.00 10200000.00 L 11407584.00 10184701.10 L 11407584.00 10022894.00 L 11691931.00 10022894.00 L 11736376.00 10004484.00 L 11754786.00 9960039.00 L 11754786.00 9843897.00 L 11736376.00 9799452.00 L 11691931.00 9781042.00 L 11677349.00 9781042.00 L 11677349.00 9522047.00 L 11753150.00 9522047.00 L 11753150.00 9277953.00 L 11493308.00 9277953.00 L 11493308.00 9522047.00 L 11569109.00 9522047.00 L 11569109.00 9781042.00 L 11331693.00 9781042.00 L 11287248.00 9799452.00 L 11268838.00 9843897.00 L 11268838.00 9960039.00 L 11287248.00 10004484.00 L 11299344.00 10009494.40 L 11299344.00 10167975.39 L 11286079.00 10200000.00 A 63920.91 63920.91 0 0 0 11413921.00 10200000.00  z"/>
<path id="N" d="M 6646774.00 18795199.00 L 6656670.37 18771307.00 L 6667170.17 18771307.00 L 6670545.00 18779455.00 L 6700000.00 18791655.00 L 6729455.00 18779455.00 L 6741655.00 18750000.00 L 6729455.00 18720545.00 L 6700000.00 18708345.00 L 6670545.00 18720545.00 L 6667170.17 18728693.00 L 6656670.37 18728693.00 L 6646774.00 18704801.00 L 6601575.00 18686079.00 L 6556376.00 18704801.00 L 6546479.63 18728693.00 L 6535979.83 18728693.00 L 6532605.00 18720545.00 L 6503150.00 18708345.00 L 6473695.00 18720545.00 L 6461495.00 18750000.00 L 6473695.00 18779455.00 L 6503150.00 18791655.00 L 6532605.00 18779455.00 L 6535979.83 18771307.00 L 6546479.63 18771307.00 L 6556376.00 18795199.00 L 6601575.00 18813921.00 L 6646774.00 18795199.00  z"/>
<path id="N" d="M 5204937.00 20331314.00 L 5217418.00 20301181.00 L 5204937.00 20271048.00 L 5174804.00 20258567.00 L 4997638.00 20258567.00 L 4967505.00 20271048.00 L 4963849.30 20279874.00 L 4878902.95 20279874.00 L 4872047.00 20273018.11 L 4872047.00 20043308.00 L 4627953.00 20043308.00 L 4627953.00 20232728.93 L 4611505.00 20272438.00 A 63920.91 63920.91 0 0 0 4720625.00 20317637.00 L 4726625.70 20303150.00 L 4841913.11 20303150.00 L 4855011.00 20316248.00 L 4870077.00 20322488.00 L 4963849.30 20322488.00 L 4967505.00 20331314.00 L 4997638.00 20343795.00 L 5174804.00 20343795.00 L 5204937.00 20331314.00  z"/>
<path id="N" d="M 6445094.00 20488794.00 L 6448749.70 20479968.00 L 6515898.00 20479968.00 L 6524260.81 20476503.76 L 6565996.00 20493791.00 A 63920.91 63920.91 0 1 0 6502075.00 20429870.00 L 6505174.97 20437354.00 L 6448749.70 20437354.00 L 6445094.00 20428528.00 L 6414961.00 20416047.00 L 6237795.00 20416047.00 L 6207662.00 20428528.00 L 6195181.00 20458661.00 L 6207662.00 20488794.00 L 6237795.00 20501275.00 L 6414961.00 20501275.00 L 6445094.00 20488794.00  z"/>
<path id="N" d="M 4872047.00 20637449.00 L 4963849.30 20637449.00 L 4967505.00 20646275.00 L 4997638.00 20658756.00 L 5174804.00 20658756.00 L 5204937.00 20646275.00 L 5217418.00 20616142.00 L 5204937.00 20586009.00 L 5174804.00 20573528.00 L 4997638.00 20573528.00 L 4967505.00 20586009.00 L 4963849.30 20594835.00 L 4852754.00 20594835.00 L 4847889.72 20596850.00 L 4627953.00 20596850.00 L 4627953.00 20856692.00 L 4872047.00 20856692.00 L 4872047.00 20637449.00  z"/>
<path id="N" d="M 6107476.00 15929523.00 L 6116525.00 15907677.00 L 6116525.00 15330905.00 L 6111458.51 15318673.53 L 6304086.00 15126047.00 L 6310326.00 15110981.00 L 6310326.00 14669807.00 L 6892684.00 14087449.00 L 9433858.00 14087449.00 L 9448924.00 14081208.00 L 9716641.00 13813491.00 L 9722882.00 13798425.00 L 9722882.00 13731299.00 L 9760630.00 13731299.00 L 9760630.00 13150591.00 L 9642520.00 13150591.00 L 9642520.00 13731299.00 L 9680268.00 13731299.00 L 9680268.00 13789600.00 L 9425033.00 14044835.00 L 6883859.00 14044835.00 L 6868793.00 14051076.00 L 6273953.00 14645916.00 L 6267712.00 14660982.00 L 6267712.00 15102155.03 L 6073953.00 15295915.00 L 6072256.67 15300010.00 L 5914370.00 15300010.00 L 5892524.00 15309059.00 L 5883475.00 15330905.00 L 5883475.00 15907677.00 L 5892524.00 15929523.00 L 5914370.00 15938572.00 L 6085630.00 15938572.00 L 6107476.00 15929523.00  z"/>
<path id="N" d="M 5498031.00 8145670.00 L 5222441.00 8145670.00 L 5222441.00 8421260.00 L 5498031.00 8421260.00 L 5498031.00 8145670.00  z"/>
<path id="N" d="M 12349410.00 14951969.00 L 11768702.00 14951969.00 L 11768702.00 15070079.00 L 12349410.00 15070079.00 L 12349410.00 14951969.00  z"/>
<path id="N" d="M 6445094.00 20803755.00 L 6451869.44 20787397.00 L 6683910.00 20787397.00 L 6698976.00 20781156.00 L 6915066.00 20565067.00 L 6921307.00 20550000.00 L 6921307.00 19750000.00 L 6915067.00 19734934.00 L 6524457.00 19344324.98 L 6524457.00 18979679.83 L 6532605.00 18976305.00 L 6544805.00 18946850.00 L 6532605.00 18917395.00 L 6503150.00 18905195.00 L 6473695.00 18917395.00 L 6461495.00 18946850.00 L 6473695.00 18976305.00 L 6481843.00 18979679.83 L 6481843.00 19353150.00 L 6488084.00 19368216.00 L 6878693.00 19758825.98 L 6878693.00 20541174.03 L 6675084.97 20744783.00 L 6445629.97 20744783.00 L 6414961.00 20731008.00 L 6237795.00 20731008.00 L 6207662.00 20743489.00 L 6195181.00 20773622.00 L 6207662.00 20803755.00 L 6237795.00 20816236.00 L 6414961.00 20816236.00 L 6445094.00 20803755.00  z"/>
<path id="N" d="M 7458267.00 20557528.00 L 7676969.00 20557528.00 L 7676969.00 20589370.00 L 7789173.00 20589370.00 L 7789173.00 20483072.00 L 7676969.00 20483072.00 L 7676969.00 20514914.00 L 7458267.00 20514914.00 L 7458267.00 20404725.00 L 7241733.00 20404725.00 L 7241733.00 20428693.00 L 7158825.94 20428693.00 L 7071307.00 20341174.94 L 7071307.00 19530132.00 L 7191173.89 19410265.11 L 7200000.00 19413921.00 A 63920.91 63920.91 0 1 0 7136079.00 19350000.00 L 7152216.22 19388958.78 L 7034934.00 19506241.00 L 7028693.00 19521307.00 L 7028693.00 20350000.00 L 7034934.00 20365066.00 L 7134933.00 20465066.00 L 7150000.00 20471307.00 L 7241733.00 20471307.00 L 7241733.00 20640945.00 L 7458267.00 20640945.00 L 7458267.00 20557528.00  z"/>
<path id="N" d="M 6335754.00 18582605.00 L 6347954.00 18553150.00 L 6335754.00 18523695.00 L 6327606.00 18520320.17 L 6327606.00 18413384.00 L 6321366.00 18398318.00 L 6219769.00 18296721.94 L 6219769.00 18106334.37 L 6243661.00 18096438.00 A 63921.13 63921.13 0 1 0 6153263.00 18096438.00 L 6177155.00 18106334.37 L 6177155.00 18305547.00 L 6183396.00 18320613.00 L 6284992.00 18422209.94 L 6284992.00 18520320.17 L 6276844.00 18523695.00 L 6264644.00 18553150.00 L 6276844.00 18582605.00 L 6306299.00 18594805.00 L 6335754.00 18582605.00  z"/>
<path id="N" d="M 12349409.00 16526772.00 L 11768701.00 16526772.00 L 11768701.00 16564520.00 L 11241502.97 16564520.00 L 11102449.51 16425467.30 L 11112346.00 16401575.00 A 63920.91 63920.91 0 1 0 11048425.00 16465496.00 L 11072317.30 16455599.51 L 11217611.00 16600894.00 L 11232677.00 16607134.00 L 11768701.00 16607134.00 L 11768701.00 16644882.00 L 12349409.00 16644882.00 L 12349409.00 16526772.00  z"/>
<path id="N" d="M 7950000.00 16136079.00 L 7941286.84 16139688.10 L 7937223.59 16138007.00 L 7831299.00 16138007.00 L 7831299.00 16133072.00 L 7250591.00 16133072.00 L 7250591.00 16251182.00 L 7831299.00 16251182.00 L 7831299.00 16246247.00 L 7907331.10 16246247.00 L 7950000.00 16263921.00 A 63921.13 63921.13 0 0 0 7950000.00 16136079.00  z"/>
<path id="N" d="M 11181103.00 20697638.00 L 11176168.00 20697638.00 L 11176169.00 20535040.00 L 11160315.29 20496770.29 L 11145276.00 20481730.82 L 11145276.00 20341733.00 L 10909056.00 20341733.00 L 10909056.00 20558267.00 L 11067928.00 20558267.00 L 11067928.00 20697638.00 L 11062993.00 20697638.00 L 11062993.00 21146456.00 L 11181103.00 21146456.00 L 11181103.00 20697638.00  z"/>
<path id="N" d="M 7179364.14 16051758.00 L 7250591.00 16051758.00 L 7250591.00 16054331.00 L 7831299.00 16054331.00 L 7831299.00 15936221.00 L 7250591.00 15936221.00 L 7250591.00 15943518.00 L 7167959.37 15943518.00 L 7150000.00 15936079.00 A 63920.91 63920.91 0 1 0 7150000.00 16063921.00 L 7179364.14 16051758.00  z"/>
<path id="N" d="M 9173229.00 12279528.00 L 9094489.00 12279528.00 L 9094489.00 12555118.00 L 9173229.00 12555118.00 L 9173229.00 12279528.00  z"/>
<path id="N" d="M 12349409.00 15936221.00 L 11768701.00 15936221.00 L 11768701.00 15973969.00 L 11354101.00 15973969.00 L 11054024.45 15673892.45 L 11063921.00 15650000.00 A 63920.91 63920.91 0 1 0 11000000.00 15713921.00 L 11023892.45 15704024.45 L 11330210.00 16010342.00 L 11345276.00 16016583.00 L 11768701.00 16016583.00 L 11768701.00 16054331.00 L 12349409.00 16054331.00 L 12349409.00 15936221.00  z"/>
<path id="N" d="M 8386023.00 20754378.00 L 8495622.00 20754378.00 L 8511041.23 20747783.78 L 8550000.00 20763921.00 A 63920.91 63920.91 0 1 0 8486079.00 20700000.00 L 8489734.81 20708825.92 L 8486796.81 20711764.00 L 8386023.00 20711764.00 L 8386023.00 20679922.00 L 8273819.00 20679922.00 L 8273819.00 20786220.00 L 8386023.00 20786220.00 L 8386023.00 20754378.00  z"/>
<path id="N" d="M 9415066.00 13865066.00 L 9497774.00 13782358.00 L 9504015.00 13767292.00 L 9504015.00 13731299.00 L 9563779.00 13731299.00 L 9563779.00 13150591.00 L 9445669.00 13150591.00 L 9445669.00 13731299.00 L 9461401.00 13731299.00 L 9461401.00 13758467.00 L 9391175.00 13828693.00 L 7858825.97 13828693.00 L 7665066.00 13634934.00 L 7650000.00 13628693.00 L 6179136.00 13628693.00 L 5616525.00 13066082.00 L 5616525.00 12492323.00 L 5607476.00 12470477.00 L 5585630.00 12461428.00 L 5414370.00 12461428.00 L 5392524.00 12470477.00 L 5383475.00 12492323.00 L 5383475.00 13069095.00 L 5392524.00 13090941.00 L 5414370.00 13099990.00 L 5585630.00 13099990.00 L 5588839.55 13098660.55 L 6155245.00 13665066.00 L 6170311.00 13671307.00 L 7641174.97 13671307.00 L 7834934.00 13865067.00 L 7850000.00 13871307.00 L 9400000.00 13871307.00 L 9415066.00 13865066.00  z"/>
<path id="N" d="M 7831299.00 14558268.00 L 7250591.00 14558268.00 L 7250591.00 14676378.00 L 7831299.00 14676378.00 L 7831299.00 14558268.00  z"/>
<path id="N" d="M 7100659.00 14921941.00 L 6928059.00 14749341.00 L 6744323.00 14933077.00 L 6916923.00 15105677.00 L 7100659.00 14921941.00  z"/>
<path id="N" d="M 11825166.00 21256473.00 L 11881671.00 21199969.00 L 11887287.00 21186410.00 L 11887287.00 21146456.00 L 11968504.00 21146456.00 L 11968504.00 20697638.00 L 11928625.00 20697638.00 L 11928625.00 20465226.03 L 12139242.97 20254609.00 L 12503845.00 20254609.00 L 12517404.00 20248992.00 L 12817496.00 19948901.00 L 12823113.00 19935341.00 L 12823113.00 18150798.00 L 12817496.00 18137238.00 L 12131265.00 17451008.00 L 12117706.00 17445391.00 L 11869367.00 17445391.00 L 10342404.00 15918429.00 L 10342404.00 14526245.04 L 10668677.00 14199974.00 L 10674294.00 14186414.00 L 10674294.00 13731299.00 L 10744882.00 13731299.00 L 10744882.00 13150591.00 L 10626772.00 13150591.00 L 10626772.00 13731299.00 L 10635942.00 13731299.00 L 10635942.00 14178471.03 L 10309669.00 14504744.00 L 10304052.00 14518303.00 L 10304052.00 15926371.00 L 10309669.00 15939930.00 L 11847865.00 17478127.00 L 11861424.00 17483743.00 L 12109763.99 17483743.00 L 12784761.00 18158740.99 L 12784761.00 19927398.02 L 12495902.98 20216257.00 L 12131300.00 20216257.00 L 12117741.00 20221873.00 L 11895890.00 20443725.00 L 11890273.00 20457284.00 L 11890273.00 20697638.00 L 11850394.00 20697638.00 L 11850394.00 20954544.09 L 11848935.00 20958066.00 L 11848935.00 21178467.10 L 11803664.90 21223738.00 L 11600856.91 21223738.00 L 11548025.00 21170906.91 L 11548025.00 21146456.00 L 11574803.00 21146456.00 L 11574803.00 20697638.00 L 11456693.00 20697638.00 L 11456693.00 21146456.00 L 11509673.00 21146456.00 L 11509673.00 21178849.00 L 11515290.00 21192408.00 L 11579355.00 21256474.00 L 11592914.00 21262090.00 L 11811607.00 21262090.00 L 11825166.00 21256473.00  z"/>
<path id="N" d="M 9842519.00 18778951.32 L 10307193.00 18314278.00 L 10313434.00 18299211.00 L 10313434.00 18249409.00 L 10351182.00 18249409.00 L 10351182.00 17668701.00 L 10233072.00 17668701.00 L 10233072.00 18249409.00 L 10270820.00 18249409.00 L 10270820.00 18290385.01 L 9812386.68 18748819.00 L 9291339.00 18748819.00 L 9291339.00 19005464.00 L 9222047.00 19005464.00 L 9222047.00 18896850.00 L 8977953.00 18896850.00 L 8977953.00 19156692.00 L 9222047.00 19156692.00 L 9222047.00 19048078.00 L 9291339.00 19048078.00 L 9291339.00 19221259.00 L 9842519.00 19221259.00 L 9842519.00 18778951.32  z"/>
<path id="N" d="M 8579527.00 17668701.00 L 8502409.00 17668701.00 L 8502409.00 17627932.00 L 8496168.00 17612866.00 L 8368236.00 17484934.00 L 8353170.00 17478693.00 L 6858825.99 17478693.00 L 6364374.00 16984241.99 L 6364374.00 16593067.00 L 6358134.00 16578001.00 L 6002578.00 16222446.00 L 5987512.00 16216205.00 L 5429084.00 16216205.00 L 5116525.00 15903646.00 L 5116525.00 15330905.00 L 5107476.00 15309059.00 L 5085630.00 15300010.00 L 4914370.00 15300010.00 L 4892524.00 15309059.00 L 4883475.00 15330905.00 L 4883475.00 15907677.00 L 4892524.00 15929523.00 L 4914370.00 15938572.00 L 5085630.00 15938572.00 L 5089559.38 15936944.38 L 5405193.00 16252578.00 L 5420259.00 16258819.00 L 5978686.98 16258819.00 L 6321760.00 16601892.98 L 6321760.00 16993067.00 L 6328001.00 17008133.00 L 6834934.00 17515067.00 L 6850000.00 17521307.00 L 8344345.00 17521307.00 L 8459795.00 17636757.00 L 8459795.00 17919685.00 L 8461417.00 17923600.57 L 8461417.00 18249409.00 L 8579527.00 18249409.00 L 8579527.00 17668701.00  z"/>
<path id="N" d="M 11771654.00 20697638.00 L 11731775.00 20697638.00 L 11732677.00 20521205.00 L 11777876.00 20502483.00 L 11796598.00 20457284.00 L 11781495.75 20420823.86 L 12083144.98 20119176.00 L 12447747.00 20119176.00 L 12461306.00 20113559.00 L 12682064.00 19892802.00 L 12687680.00 19879243.00 L 12687680.00 18206896.00 L 12682064.00 18193337.00 L 12075167.00 17586441.00 L 12061608.00 17580824.00 L 11813269.00 17580824.00 L 10206971.00 15974527.00 L 10206971.00 14470147.03 L 10533244.00 14143876.00 L 10538861.00 14130316.00 L 10538861.00 13731298.00 L 10548031.00 13731298.00 L 10548031.00 13150590.00 L 10429921.00 13150590.00 L 10429921.00 13731298.00 L 10500509.00 13731298.00 L 10500509.00 14122373.05 L 10174236.00 14448646.00 L 10168619.00 14462205.00 L 10168619.00 15982469.00 L 10174236.00 15996028.00 L 11791766.00 17613559.00 L 11805326.00 17619176.00 L 12053665.99 17619176.00 L 12649328.00 18214838.99 L 12649328.00 19871300.03 L 12439804.97 20080824.00 L 12075202.00 20080824.00 L 12061642.00 20086441.00 L 11748263.41 20399819.09 L 11732677.00 20393363.00 A 63920.91 63920.91 0 0 0 11687478.00 20502483.00 L 11693423.00 20504945.49 L 11693423.00 20697638.00 L 11653544.00 20697638.00 L 11653544.00 21146456.00 L 11771654.00 21146456.00 L 11771654.00 20697638.00  z"/>
<path id="N" d="M 12165355.00 20697638.00 L 12124239.00 20697638.00 L 12124239.00 20672067.06 L 12150262.00 20661288.00 A 63921.13 63921.13 0 1 0 12059864.00 20661288.00 L 12085887.00 20672067.06 L 12085887.00 20697638.00 L 12047245.00 20697638.00 L 12047245.00 21146456.00 L 12165355.00 21146456.00 L 12165355.00 20697638.00  z"/>
<path id="N" d="M 11954330.00 19694536.00 L 12027953.00 19694536.00 L 12027953.00 19803150.00 L 12272047.00 19803150.00 L 12272047.00 19543308.00 L 12027953.00 19543308.00 L 12027953.00 19651922.00 L 11954330.00 19651922.00 L 11954330.00 19445276.00 L 11289391.00 19445276.00 L 11289391.00 19418084.00 L 11283150.00 19403018.00 L 11146110.00 19265978.00 L 11146110.00 18598720.00 L 11139870.00 18583654.00 L 10941149.00 18384934.00 L 10926083.00 18378693.00 L 10843844.00 18378693.00 L 10746504.00 18281353.00 L 10746504.00 17998425.00 L 10744882.00 17994508.81 L 10744882.00 17668701.00 L 10626772.00 17668701.00 L 10626772.00 18249409.00 L 10703890.00 18249409.00 L 10703890.00 18290178.00 L 10710131.00 18305244.00 L 10819953.00 18415066.00 L 10835019.00 18421307.00 L 10917257.97 18421307.00 L 11103496.00 18607545.97 L 11103496.00 19274803.00 L 11109737.00 19289869.00 L 11246777.00 19426909.00 L 11246777.00 19445276.00 L 11245670.00 19445276.00 L 11245670.00 19838976.00 L 11954330.00 19838976.00 L 11954330.00 19694536.00  z"/>
<path id="N" d="M 8405679.00 15854801.00 L 8373650.65 15841534.45 L 8292273.00 15760156.00 L 8254001.59 15744305.00 L 7831299.00 15744305.00 L 7831299.00 15739370.00 L 7250591.00 15739370.00 L 7250591.00 15857480.00 L 7831299.00 15857480.00 L 7831299.00 15852545.00 L 8231586.16 15852545.00 L 8308945.40 15929903.49 L 8315281.00 15945199.00 A 63921.13 63921.13 0 0 0 8405679.00 15854801.00  z"/>
<path id="N" d="M 10118110.00 12279528.00 L 10039370.00 12279528.00 L 10039370.00 12555118.00 L 10118110.00 12555118.00 L 10118110.00 12279528.00  z"/>
<path id="N" d="M 9173229.00 11066930.00 L 9094489.00 11066930.00 L 9094489.00 11342520.00 L 9173229.00 11342520.00 L 9173229.00 11066930.00  z"/>
<path id="N" d="M 11377953.00 12550537.00 L 11379536.00 12550537.00 L 11379536.00 12279946.00 L 11269839.00 12169085.00 L 11251231.00 12141237.00 L 11238414.00 12110293.00 L 11234391.83 12090071.32 L 11235755.00 12083218.00 L 11224144.00 12024844.00 L 11191078.00 11975358.00 L 10957860.00 11742140.00 L 10908374.00 11709074.00 L 10850000.00 11697463.00 L 8913183.00 11697463.00 L 8700000.00 11484280.00 L 8700000.00 10915720.00 L 9657860.00 9957860.00 L 9690926.00 9908374.00 L 9702537.00 9850000.00 L 9702537.00 8013184.00 L 10058460.00 7657261.00 L 10162205.00 7657261.00 L 10176940.53 7654330.00 L 10563779.00 7654330.00 L 10563779.00 6945670.00 L 10440726.00 6945670.00 L 10440551.00 6135040.00 L 9259449.00 6135040.00 L 9259449.00 6764960.00 L 10135652.00 6764960.00 L 10135652.00 6945670.00 L 10012599.00 6945670.00 L 10012599.00 7352187.00 L 9995277.00 7352187.00 L 9936903.00 7363798.00 L 9887417.00 7396864.00 L 9540442.94 7743838.06 L 9485432.00 7732896.00 L 9381495.00 7732896.00 L 9381495.00 7720079.00 L 9066535.00 7720079.00 L 9066535.00 8035039.00 L 9217153.73 8035039.00 L 9231889.00 8037970.00 L 9397463.00 8037970.00 L 9397463.00 9786817.00 L 8392140.00 10792140.00 L 8359074.00 10841626.00 L 8347463.00 10900000.00 L 8349999.58 10912752.60 L 8349174.00 10976599.00 A 148381.01 148381.01 0 0 1 8300222.00 11071866.00 L 8298119.00 11337815.00 L 8314459.00 11354606.00 L 8341553.00 11392761.00 L 8360277.00 11435649.00 L 8365604.00 11461167.13 L 8365604.00 11518141.00 L 8377215.00 11576515.00 L 8410281.00 11626001.00 L 8742140.00 11957860.00 L 8791627.00 11990926.00 L 8850000.00 12002537.00 L 10786817.00 12002537.00 L 10975358.00 12191078.00 L 10985946.74 12198153.28 L 10986471.69 12279528.00 L 10984252.00 12279528.00 L 10984252.00 12555118.00 L 11062992.00 12555118.00 L 11062992.00 12550537.00 L 11141733.00 12550537.00 L 11141733.00 12555118.00 L 11220473.00 12555118.00 L 11220473.00 12550537.00 L 11299213.00 12550537.00 L 11299213.00 12555118.00 L 11377953.00 12555118.00 L 11377953.00 12550537.00  z"/>
<path id="N" d="M 12349409.00 15739370.00 L 12023600.57 15739370.00 L 12019685.00 15737748.00 L 11370656.98 15737748.00 L 11017842.00 15384934.00 L 11002776.00 15378693.00 L 10605095.37 15378693.00 L 10595199.00 15354801.00 A 63921.13 63921.13 0 1 0 10595199.00 15445199.00 L 10605095.37 15421307.00 L 10993950.98 15421307.00 L 11346764.00 15774121.00 L 11361831.00 15780362.00 L 11768701.00 15780362.00 L 11768701.00 15857480.00 L 12349409.00 15857480.00 L 12349409.00 15739370.00  z"/>
<path id="N" d="M 6729455.00 18582605.00 L 6741655.00 18553150.00 L 6729455.00 18523695.00 L 6721307.00 18520320.17 L 6721307.00 17955095.37 L 6745199.00 17945199.00 A 63921.13 63921.13 0 1 0 6654801.00 17945199.00 L 6678693.00 17955095.37 L 6678693.00 18520320.17 L 6670545.00 18523695.00 L 6658345.00 18553150.00 L 6670545.00 18582605.00 L 6700000.00 18594805.00 L 6729455.00 18582605.00  z"/>
<path id="N" d="M 10275591.00 12279528.00 L 10196851.00 12279528.00 L 10196851.00 12555118.00 L 10275591.00 12555118.00 L 10275591.00 12279528.00  z"/>
<path id="N" d="M 8973228.00 13150591.00 L 8959238.00 13150591.00 L 8959238.00 13061305.79 L 8963921.00 13050000.00 A 63920.91 63920.91 0 1 0 8836079.00 13050000.00 L 8850998.00 13086017.73 L 8850997.00 13431890.00 L 8855118.00 13441838.68 L 8855118.00 13731299.00 L 8973228.00 13731299.00 L 8973228.00 13150591.00  z"/>
<path id="N" d="M 5204937.00 20016353.00 L 5217418.00 19986220.00 L 5204937.00 19956087.00 L 5174804.00 19943606.00 L 5038630.00 19943606.00 L 5038630.00 19702933.00 L 5032389.00 19687867.00 L 4729456.00 19384934.00 L 4714390.00 19378693.00 L 4555095.37 19378693.00 L 4545199.00 19354801.00 A 63921.13 63921.13 0 1 0 4545199.00 19445199.00 L 4555095.37 19421307.00 L 4705565.00 19421307.00 L 4996016.00 19711758.00 L 4996016.00 19944277.83 L 4967505.00 19956087.00 L 4955024.00 19986220.00 L 4967505.00 20016353.00 L 4997638.00 20028834.00 L 5174804.00 20028834.00 L 5204937.00 20016353.00  z"/>
<path id="N" d="M 6727089.00 19204801.00 L 6714113.00 19199426.18 L 6714113.00 18982659.52 L 6729455.00 18976305.00 L 6741655.00 18946850.00 L 6729455.00 18917395.00 L 6700000.00 18905195.00 L 6670545.00 18917395.00 L 6658345.00 18946850.00 L 6671499.00 18976700.14 L 6671499.00 19190383.08 L 6636691.00 19204801.00 A 63921.13 63921.13 0 1 0 6727089.00 19204801.00  z"/>
<path id="N" d="M 9007480.00 8664961.00 L 8692520.00 8664961.00 L 8692520.00 8669904.00 L 8090348.00 8669904.00 L 8040945.00 8620501.00 L 8040945.00 8450394.00 L 7659055.00 8450394.00 L 7659055.00 8836220.00 L 7825224.00 8836220.00 L 7919305.00 8930301.00 L 7968791.00 8963367.00 L 8027165.00 8974978.00 L 8692520.00 8974978.00 L 8692520.00 8979921.00 L 9007480.00 8979921.00 L 9007480.00 8664961.00  z"/>
<path id="N" d="M 4607476.00 13090941.00 L 4616525.00 13069095.00 L 4616525.00 12720804.47 L 4618293.00 12716536.00 L 4618293.00 12421238.00 L 4731264.00 12308267.00 L 4890945.00 12308267.00 L 4890945.00 12091733.00 L 4654725.00 12091733.00 L 4654725.00 12231730.00 L 4525904.00 12360551.00 L 4510053.00 12398822.41 L 4510053.00 12461428.00 L 4414370.00 12461428.00 L 4392524.00 12470477.00 L 4383475.00 12492323.00 L 4383475.00 13069095.00 L 4392524.00 13090941.00 L 4414370.00 13099990.00 L 4585630.00 13099990.00 L 4607476.00 13090941.00  z"/>
<path id="N" d="M 8522047.00 18630891.00 L 8636401.00 18630892.00 L 8674670.00 18615040.00 L 8943387.00 18346323.00 L 8959238.00 18308054.00 L 8959238.00 18249409.00 L 8973228.00 18249409.00 L 8973228.00 17668701.00 L 8855118.00 17668701.00 L 8855118.00 17958161.32 L 8850998.00 17968112.41 L 8850998.00 18285636.94 L 8613983.06 18522651.00 L 8522047.00 18522651.00 L 8522047.00 18446850.00 L 8277953.00 18446850.00 L 8277953.00 18522651.00 L 8122047.00 18522651.00 L 8122047.00 18446850.00 L 7877953.00 18446850.00 L 7877953.00 18515060.00 L 7782377.00 18515060.00 L 7782377.00 18420774.00 L 7517623.00 18420774.00 L 7517623.00 18702406.00 L 7782377.00 18702406.00 L 7782377.00 18623300.00 L 7877953.00 18623300.00 L 7877953.00 18706692.00 L 8122047.00 18706692.00 L 8122047.00 18630891.00 L 8277953.00 18630891.00 L 8277953.00 18706692.00 L 8522047.00 18706692.00 L 8522047.00 18630891.00  z"/>
<path id="N" d="M 5408267.00 7304725.00 L 5354120.00 7304725.00 L 5354120.00 7202756.00 L 5457480.00 7202756.00 L 5457480.00 6887796.00 L 5142520.00 6887796.00 L 5142520.00 7202756.00 L 5245880.00 7202756.00 L 5245880.00 7304725.00 L 5191733.00 7304725.00 L 5191733.00 7540945.00 L 5408267.00 7540945.00 L 5408267.00 7304725.00  z"/>
<path id="N" d="M 12742974.00 10708071.00 L 12742974.00 10591929.00 L 12724564.00 10547484.00 L 12680119.00 10529074.00 L 12329197.00 10529074.00 L 12282720.00 10482597.00 L 12279391.09 10481218.08 L 12187191.00 10389017.14 L 12187191.00 10162951.00 L 12327248.00 10022894.00 L 12680119.00 10022894.00 L 12724564.00 10004484.00 L 12742974.00 9960039.00 L 12742974.00 9843897.00 L 12724564.00 9799452.00 L 12680119.00 9781042.00 L 12370914.00 9781042.00 L 12370915.00 9732148.00 L 12355061.29 9693878.29 L 12310813.00 9649629.26 L 12310814.00 9472047.00 L 12306692.00 9462095.90 L 12306692.00 9277953.00 L 12123386.37 9277953.00 L 11997428.00 9151994.07 L 11997429.00 8773229.00 L 11993307.00 8763278.16 L 11993307.00 8502537.00 L 12222799.00 8502537.00 L 12222799.00 8804552.00 A 183244.99 183244.99 0 0 0 12406046.00 8987799.00 L 12560096.00 8987799.00 A 183244.99 183244.99 0 0 0 12743343.00 8804552.00 L 12743343.00 8502537.00 L 14944830.76 8502537.00 L 14969673.00 8519136.00 L 15039731.00 8533071.00 L 15194127.00 8533071.00 A 183069.43 183069.43 0 0 0 15194127.00 8166929.00 L 15039731.00 8166929.00 L 14969673.00 8180864.00 L 14944830.76 8197463.00 L 12743343.00 8197463.00 L 12743343.00 7895448.00 A 183244.99 183244.99 0 0 0 12560096.00 7712201.00 L 12406046.00 7712201.00 A 183244.99 183244.99 0 0 0 12222799.00 7895448.00 L 12222799.00 8197463.00 L 11993307.00 8197463.00 L 11993307.00 7937402.00 L 11146851.00 7937402.00 L 11146851.00 8862598.00 L 11889188.00 8862598.00 L 11889187.00 9174412.00 L 11905039.00 9212681.00 L 12046850.00 9354491.37 L 12046850.00 9522047.00 L 12202573.00 9522047.00 L 12202572.00 9672047.00 L 12218424.00 9710316.00 L 12262674.00 9754565.26 L 12262674.00 9830261.73 L 12257026.00 9843897.00 L 12257026.00 9940040.00 L 12094802.00 10102264.00 L 12078951.00 10140535.41 L 12078950.00 10411435.00 L 12094802.00 10449704.00 L 12204233.00 10559135.00 L 12207560.07 10560513.07 L 12257026.00 10609979.00 L 12257026.00 10708071.00 L 12275436.00 10752516.00 L 12319881.00 10770926.00 L 12680119.00 10770926.00 L 12724564.00 10752516.00 L 12742974.00 10708071.00  z"/>
<path id="N" d="M 13113921.00 17378740.00 L 13104178.72 17355220.00 L 13169067.00 17355220.00 L 13169067.00 17353150.00 L 13172047.00 17353150.00 L 13172047.00 17093308.00 L 12927953.00 17093308.00 L 12927953.00 17100825.67 L 12772047.00 17101405.46 L 12772047.00 17093308.00 L 12527953.00 17093308.00 L 12527953.00 17102313.20 L 12464813.26 17102548.01 L 12449213.00 17105651.00 L 12428149.00 17105651.00 L 12428149.00 17117323.00 L 11768701.00 17117323.00 L 11768701.00 17235433.00 L 12349409.00 17235433.00 L 12349409.00 17227396.00 L 12444370.00 17227396.00 L 12444370.00 17355220.00 L 12595821.28 17355220.00 L 12586079.00 17378740.00 A 63920.91 63920.91 0 1 0 12713921.00 17378740.00 L 12704178.72 17355220.00 L 12995821.28 17355220.00 L 12986079.00 17378740.00 A 63920.91 63920.91 0 0 0 13113921.00 17378740.00  z"/>
<path id="N" d="M 7831299.00 16723622.00 L 7541838.68 16723622.00 L 7531887.59 16719502.00 L 7219683.00 16719502.00 L 7145527.00 16645346.00 L 7107255.59 16629495.00 L 7022047.00 16629495.00 L 7022047.00 16496851.00 L 6777953.00 16496851.00 L 6777953.00 16499344.00 L 6718918.61 16499344.00 L 6686894.00 16486079.00 A 63920.91 63920.91 0 0 0 6686894.00 16613921.00 L 6702192.90 16607584.00 L 6777953.00 16607584.00 L 6777953.00 16756693.00 L 7022047.00 16756693.00 L 7022047.00 16737735.00 L 7084840.00 16737735.00 L 7158996.00 16811891.00 L 7197265.00 16827742.00 L 7250591.00 16827742.00 L 7250591.00 16841732.00 L 7831299.00 16841732.00 L 7831299.00 16723622.00  z"/>
<path id="N" d="M 8006692.00 21177953.00 L 7898078.00 21177953.00 L 7898078.00 20977755.00 L 7891838.00 20962689.00 L 7887795.00 20958646.10 L 7887795.00 20876575.00 L 7808676.00 20876575.00 L 7754378.00 20822277.00 L 7754378.00 20786220.00 L 7789173.00 20786220.00 L 7789173.00 20679922.00 L 7703523.98 20679922.00 L 7699606.00 20678299.00 L 7695688.02 20679922.00 L 7676969.00 20679922.00 L 7676969.00 20786220.00 L 7711764.00 20786220.00 L 7711764.00 20831102.00 L 7718005.00 20846168.00 L 7781497.00 20909660.00 L 7781497.00 20988779.00 L 7855464.00 20988779.00 L 7855464.00 21177953.00 L 7746850.00 21177953.00 L 7746850.00 21422047.00 L 8006692.00 21422047.00 L 8006692.00 21177953.00  z"/>
<path id="N" d="M 8386023.00 20483072.00 L 8351228.00 20483072.00 L 8351228.00 20438190.00 L 8344987.00 20423124.00 L 8281495.00 20359632.00 L 8281495.00 20310645.31 L 8334599.03 20257541.72 L 8350000.00 20263921.00 A 63920.91 63920.91 0 1 0 8286079.00 20200000.00 L 8299492.40 20232382.89 L 8251362.69 20280513.00 L 8175197.00 20280513.00 L 8175197.00 20392717.00 L 8254316.00 20392717.00 L 8308614.00 20447015.00 L 8308614.00 20483072.00 L 8273819.00 20483072.00 L 8273819.00 20589370.00 L 8386023.00 20589370.00 L 8386023.00 20483072.00  z"/>
<path id="N" d="M 5344488.00 11312781.00 L 5486438.00 11312782.00 L 5491844.02 11310542.69 L 5500000.00 11313921.00 A 63920.91 63920.91 0 0 0 5500000.00 11186079.00 L 5455428.70 11204541.00 L 5344488.00 11204541.00 L 5344488.00 11062992.00 L 5191915.00 11062992.00 L 5191915.00 10196850.00 L 5344488.00 10196850.00 L 5344488.00 9645670.00 L 4931102.00 9645670.00 L 4931102.00 10196850.00 L 5083675.00 10196850.00 L 5083675.00 11062992.00 L 4931102.00 11062992.00 L 4931102.00 11614172.00 L 5344488.00 11614172.00 L 5344488.00 11312781.00  z"/>
<path id="N" d="M 6113921.00 18850000.00 L 6104024.56 18826107.83 L 6158825.94 18771307.00 L 6273469.17 18771307.00 L 6276844.00 18779455.00 L 6306299.00 18791655.00 L 6335754.00 18779455.00 L 6347954.00 18750000.00 L 6335754.00 18720545.00 L 6306299.00 18708345.00 L 6276844.00 18720545.00 L 6273469.17 18728693.00 L 6150000.00 18728693.00 L 6134933.00 18734934.00 L 6073892.17 18795975.44 L 6050000.00 18786079.00 A 63920.91 63920.91 0 1 0 6113921.00 18850000.00  z"/>
<path id="N" d="M 14972047.00 6593308.00 L 14727953.00 6593308.00 L 14727953.00 6669109.00 L 14572047.00 6669109.00 L 14572047.00 6593308.00 L 14327953.00 6593308.00 L 14327953.00 6669109.00 L 14172047.00 6669109.00 L 14172047.00 6593308.00 L 13927953.00 6593308.00 L 13927953.00 6853150.00 L 14172047.00 6853150.00 L 14172047.00 6777349.00 L 14327953.00 6777349.00 L 14327953.00 6853150.00 L 14572047.00 6853150.00 L 14572047.00 6777349.00 L 14727953.00 6777349.00 L 14727953.00 6853150.00 L 14972047.00 6853150.00 L 14972047.00 6593308.00  z"/>
<path id="N" d="M 11335433.00 18227970.00 L 11350000.00 18227970.00 L 11350000.00 18120195.00 L 11351901.00 18100885.00 A 98984.71 98984.71 0 0 1 11429671.00 18023115.00 L 11446850.00 18022047.00 L 11706692.00 18022047.00 L 11706692.00 17777953.00 L 11446850.00 17777953.00 L 11446850.00 17779760.00 L 11417994.00 17777719.00 A 106171.30 106171.30 0 0 1 11335433.00 17696371.42 L 11335433.00 17668701.00 L 11217323.00 17668701.00 L 11217323.00 18249409.00 L 11335433.00 18249409.00 L 11335433.00 18227970.00  z"/>
<path id="N" d="M 4656692.00 16077953.00 L 4567506.00 16077953.00 L 4567506.00 15938572.00 L 4585630.00 15938572.00 L 4607476.00 15929523.00 L 4616525.00 15907677.00 L 4616525.00 15330905.00 L 4607476.00 15309059.00 L 4585630.00 15300010.00 L 4414370.00 15300010.00 L 4392524.00 15309059.00 L 4383475.00 15330905.00 L 4383475.00 15907677.00 L 4392524.00 15929523.00 L 4414370.00 15938572.00 L 4459266.00 15938572.00 L 4459266.00 16077953.00 L 4396850.00 16077953.00 L 4396850.00 16322047.00 L 4656692.00 16322047.00 L 4656692.00 16077953.00  z"/>
<path id="N" d="M 11335433.00 13722924.96 L 11372405.00 13689416.00 A 509633.71 509633.71 0 0 1 11695713.00 13573733.00 L 11697283.31 13572047.00 L 11706692.00 13572047.00 L 11706692.00 13327953.00 L 11645259.40 13327953.00 L 11575633.00 13314104.00 A 432970.17 432970.17 0 0 1 11395164.00 13205934.00 L 11338902.00 13149672.00 L 11217323.00 13150591.00 L 11217323.00 13731299.00 L 11335433.00 13731299.00 L 11335433.00 13722924.96  z"/>
<path id="N" d="M 5550000.00 8736079.00 L 5534701.10 8742416.00 L 5498031.00 8742416.00 L 5498031.00 8578740.00 L 5222441.00 8578740.00 L 5222441.00 8854330.00 L 5498031.00 8854330.00 L 5498031.00 8850656.00 L 5517975.39 8850656.00 L 5550000.00 8863921.00 A 63921.13 63921.13 0 0 0 5550000.00 8736079.00  z"/>
<path id="N" d="M 4708267.00 7659056.00 L 4491733.00 7659056.00 L 4491733.00 7742416.00 L 4465298.90 7742416.00 L 4450000.00 7736079.00 A 63920.91 63920.91 0 0 0 4450000.00 7863921.00 L 4482024.61 7850656.00 L 4491733.00 7850656.00 L 4491733.00 7895276.00 L 4708267.00 7895276.00 L 4708267.00 7659056.00  z"/>
<path id="N" d="M 7472047.00 19696850.00 L 7251555.98 19696850.00 L 7247638.00 19695227.00 L 7243720.02 19696850.00 L 7227953.00 19696850.00 L 7227953.00 19712618.43 L 7226331.00 19716534.00 L 7227953.00 19720449.57 L 7227953.00 19956692.00 L 7472047.00 19956692.00 L 7472047.00 19696850.00  z"/>
<path id="N" d="M 11411416.87 16764567.00 m -63921.13 0 a 63921.13 63921.13 0 1 1 127842.26 0a 63921.13 63921.13 0 1 1 -127842.26 0"/>
<path id="N" d="M 7782377.00 18797595.00 L 7517623.00 18797595.00 L 7517623.00 19079227.00 L 7782377.00 19079227.00 L 7782377.00 18797595.00  z"/>
<path id="N" d="M 7831299.00 14164567.00 L 7250591.00 14164567.00 L 7250591.00 14282677.00 L 7831299.00 14282677.00 L 7831299.00 14164567.00  z"/>
<path id="N" d="M 5908267.00 17359056.00 L 5691733.00 17359056.00 L 5691733.00 17595276.00 L 5908267.00 17595276.00 L 5908267.00 17359056.00  z"/>
<path id="N" d="M 9015748.00 11066930.00 L 8937008.00 11066930.00 L 8937008.00 11342520.00 L 9015748.00 11342520.00 L 9015748.00 11066930.00  z"/>
<path id="N" d="M 10748032.00 12279528.00 L 10669292.00 12279528.00 L 10669292.00 12555118.00 L 10748032.00 12555118.00 L 10748032.00 12279528.00  z"/>
<path id="N" d="M 7100659.00 14371941.00 L 6928059.00 14199341.00 L 6744323.00 14383077.00 L 6916923.00 14555677.00 L 7100659.00 14371941.00  z"/>
<path id="N" d="M 8495276.00 19691733.00 L 8259056.00 19691733.00 L 8259056.00 19908267.00 L 8495276.00 19908267.00 L 8495276.00 19691733.00  z"/>
<path id="N" d="M 5245276.00 12091733.00 L 5009056.00 12091733.00 L 5009056.00 12308267.00 L 5245276.00 12308267.00 L 5245276.00 12091733.00  z"/>
<path id="N" d="M 7458267.00 20759056.00 L 7241733.00 20759056.00 L 7241733.00 20995276.00 L 7458267.00 20995276.00 L 7458267.00 20759056.00  z"/>
<path id="N" d="M 8360480.00 15533167.00 L 8336818.24 15542968.00 L 7250591.00 15542520.00 L 7250591.00 15660630.00 L 7831299.00 15660630.00 L 7831299.00 15651208.00 L 8336818.24 15651208.00 L 8360480.00 15661009.00 A 63921.13 63921.13 0 1 0 8360480.00 15533167.00  z"/>
<path id="N" d="M 9960630.00 11066930.00 L 9881890.00 11066930.00 L 9881890.00 11342520.00 L 9960630.00 11342520.00 L 9960630.00 11066930.00  z"/>
<path id="N" d="M 6445094.00 20646275.00 L 6451869.44 20629917.00 L 6641391.00 20629917.00 L 6656457.00 20623676.00 L 6765066.00 20515068.00 L 6771307.00 20500001.00 L 6771307.00 20100000.00 L 6765066.00 20084934.00 L 6327606.00 19647474.00 L 6327606.00 18979679.83 L 6335754.00 18976305.00 L 6347954.00 18946850.00 L 6335754.00 18917395.00 L 6306299.00 18905195.00 L 6276844.00 18917395.00 L 6264644.00 18946850.00 L 6276844.00 18976305.00 L 6284992.00 18979679.83 L 6284992.00 19656299.00 L 6291233.00 19671365.00 L 6728693.00 20108825.00 L 6728693.00 20491175.06 L 6632565.94 20587303.00 L 6445629.97 20587303.00 L 6414961.00 20573528.00 L 6237795.00 20573528.00 L 6207662.00 20586009.00 L 6195181.00 20616142.00 L 6207662.00 20646275.00 L 6237795.00 20658756.00 L 6414961.00 20658756.00 L 6445094.00 20646275.00  z"/>
<path id="N" d="M 15208267.00 13859055.00 L 14991733.00 13859055.00 L 14991733.00 14095275.00 L 15208267.00 14095275.00 L 15208267.00 13859055.00  z"/>
<path id="N" d="M 8776378.00 13150591.00 L 8658268.00 13150591.00 L 8658268.00 13731299.00 L 8776378.00 13731299.00 L 8776378.00 13150591.00  z"/>
<path id="N" d="M 7910740.00 16521905.00 L 7887078.24 16531706.00 L 7831299.00 16531706.00 L 7831299.00 16526772.00 L 7250591.00 16526772.00 L 7250591.00 16644882.00 L 7831299.00 16644882.00 L 7831299.00 16639946.00 L 7887078.24 16639946.00 L 7910740.00 16649747.00 A 63921.13 63921.13 0 0 0 7910740.00 16521905.00  z"/>
</g>
</svg>
