<svg width="29.99999842mm" height="49.99999906mm" viewBox="0 0 11811023 19685039"  version="1.1" xmlns="http://www.w3.org/2000/svg" xmlns:xlink="http://www.w3.org/1999/xlink">
<desc>
Origin 0 0 Bound 3937008 3937008 11811023 19685039
</desc>
<g fill-rule="evenodd" fill="rgb(255, 0, 255)" stroke="black" stroke-width="1" transform="translate(0, 19685039) scale(1, -1) translate(-3937008, -3937008)">
<path id="N" d="M 14589564.00 23622046.00 A 119403.94 119403.94 0 0 0 14667948.00 23432809.00 L 14614046.00 23374616.00 A 629926.01 629926.01 0 0 1 15558792.00 22541965.00 A 119406.16 119406.16 0 0 0 15748029.00 22463580.00 L 15748030.33 16653543.00 L 14549340.00 16653543.00 A 120429.94 120429.94 0 0 1 14549340.00 16417323.00 L 15748030.30 16417323.00 L 15748030.00 5095473.00 A 119403.94 119403.94 0 0 0 15558793.00 5017089.00 L 15500600.00 5070991.00 A 629926.01 629926.01 0 0 1 14667949.00 4126245.00 A 119406.16 119406.16 0 0 0 14589564.00 3937008.00 L 5095473.00 3937007.00 A 119403.94 119403.94 0 0 0 5017089.00 4126244.00 L 5070991.00 4184437.00 A 629926.01 629926.01 0 0 1 4126245.00 5017088.00 A 119406.16 119406.16 0 0 0 3937008.00 5095473.00 L 3937007.00 9643297.00 A 721075.40 721075.40 0 0 0 4041430.00 9964024.00 L 4074802.00 10009842.00 L 4106273.00 10056828.00 A 718876.83 718876.83 0 0 1 4212598.00 10433071.00 L 4212597.00 10826772.00 L 4210372.00 10883279.00 A 718868.63 718868.63 0 0 1 4074802.00 11249999.00 L 4041430.00 11295817.00 A 721094.89 721094.89 0 0 0 3937007.00 11616544.00 L 3937007.00 16729911.00 A 721075.40 721075.40 0 0 0 4041430.00 17050638.00 L 4074802.00 17096456.00 L 4106273.00 17143442.00 A 718876.83 718876.83 0 0 1 4212598.00 17519685.00 L 4212597.00 17913386.00 L 4210372.00 17969893.00 A 718868.63 718868.63 0 0 1 4074802.00 18336613.00 L 4041430.00 18382431.00 A 721116.06 721116.06 0 0 0 3937007.00 18703159.00 L 3937009.00 22463580.00 A 119400.25 119400.25 0 0 0 4126245.00 22541965.00 L 4184437.00 22488062.00 A 629926.01 629926.01 0 0 1 5017088.00 23432808.00 A 119406.16 119406.16 0 0 0 5095473.00 23622045.00 L 14589564.00 23622046.00  zM 7086615.00 6382195.00 L 6496063.00 6382195.00 A 220780.35 220780.35 0 0 1 6496063.00 5940641.00 L 7086615.00 5940641.00 A 220780.35 220780.35 0 1 1 7086615.00 6382195.00  zM 7086615.00 7382195.00 L 6496063.00 7382195.00 A 220780.35 220780.35 0 0 1 6496063.00 6940641.00 L 7086615.00 6940641.00 A 220780.35 220780.35 0 1 1 7086615.00 7382195.00  zM 7086615.00 8382195.00 L 6496063.00 8382195.00 A 220780.35 220780.35 0 0 1 6496063.00 7940641.00 L 7086615.00 7940641.00 A 220780.35 220780.35 0 1 1 7086615.00 8382195.00  zM 7086615.00 9382195.00 L 6496063.00 9382195.00 A 220780.35 220780.35 0 0 1 6496063.00 8940641.00 L 7086615.00 8940641.00 A 220780.35 220780.35 0 1 1 7086615.00 9382195.00  zM 7086615.00 10382195.00 L 6496063.00 10382195.00 A 220780.35 220780.35 0 0 1 6496063.00 9940641.00 L 7086615.00 9940641.00 A 220780.35 220780.35 0 1 1 7086615.00 10382195.00  zM 5833465.00 14752207.00 L 4967323.00 14752207.00 A 258108.52 258108.52 0 0 1 4967323.00 14235981.00 L 5833465.00 14235981.00 A 258108.52 258108.52 0 0 1 5833465.00 14752207.00  zM 5833465.00 15539609.00 L 4967323.00 15539609.00 A 258108.52 258108.52 0 1 1 4967323.00 15023383.00 L 5833465.00 15023383.00 A 258108.52 258108.52 0 0 1 5833465.00 15539609.00  zM 5833465.00 16327011.00 L 4967323.00 16327011.00 A 258108.52 258108.52 0 0 1 4967323.00 15810785.00 L 5833465.00 15810785.00 A 258108.52 258108.52 0 0 1 5833465.00 16327011.00  zM 7086615.00 11382195.00 L 6496063.00 11382195.00 A 220780.35 220780.35 0 0 1 6496063.00 10940641.00 L 7086615.00 10940641.00 A 220780.35 220780.35 0 1 1 7086615.00 11382195.00  zM 12132677.00 14752207.00 L 11266535.00 14752207.00 A 258108.52 258108.52 0 0 1 11266535.00 14235981.00 L 12132677.00 14235981.00 A 258108.52 258108.52 0 0 1 12132677.00 14752207.00  zM 13188977.00 6382195.00 L 12598425.00 6382195.00 A 220780.35 220780.35 0 1 1 12598425.00 5940641.00 L 13188977.00 5940641.00 A 220780.35 220780.35 0 0 1 13188977.00 6382195.00  zM 13188977.00 7382195.00 L 12598425.00 7382195.00 A 220780.35 220780.35 0 1 1 12598425.00 6940641.00 L 13188977.00 6940641.00 A 220780.35 220780.35 0 0 1 13188977.00 7382195.00  zM 13188977.00 8382195.00 L 12598425.00 8382195.00 A 220780.35 220780.35 0 1 1 12598425.00 7940641.00 L 13188977.00 7940641.00 A 220780.35 220780.35 0 0 1 13188977.00 8382195.00  zM 13188977.00 9382195.00 L 12598425.00 9382195.00 A 220780.35 220780.35 0 1 1 12598425.00 8940641.00 L 13188977.00 8940641.00 A 220780.35 220780.35 0 0 1 13188977.00 9382195.00  zM 13188977.00 10382195.00 L 12598425.00 10382195.00 A 220780.35 220780.35 0 1 1 12598425.00 9940641.00 L 13188977.00 9940641.00 A 220780.35 220780.35 0 0 1 13188977.00 10382195.00  zM 13188977.00 11382195.00 L 12598425.00 11382195.00 A 220780.35 220780.35 0 1 1 12598425.00 10940641.00 L 13188977.00 10940641.00 A 220780.35 220780.35 0 0 1 13188977.00 11382195.00  zM 12132677.00 15539609.00 L 11266535.00 15539609.00 A 258108.52 258108.52 0 1 1 11266535.00 15023383.00 L 12132677.00 15023383.00 A 258108.52 258108.52 0 0 1 12132677.00 15539609.00  zM 15557086.00 15570866.00 L 13942914.00 15570866.00 L 13942914.00 15137796.00 L 15557086.00 15137796.00 L 15557086.00 15570866.00  zM 12132677.00 16327011.00 L 11266535.00 16327011.00 A 258108.52 258108.52 0 0 1 11266535.00 15810785.00 L 12132677.00 15810785.00 A 258108.52 258108.52 0 0 1 12132677.00 16327011.00  zM 15557086.00 16358267.00 L 13942914.00 16358267.00 L 13942914.00 15925197.00 L 15557086.00 15925197.00 L 15557086.00 16358267.00  zM 5833465.00 17114412.00 L 4967323.00 17114412.00 A 258108.52 258108.52 0 1 1 4967323.00 16598186.00 L 5833465.00 16598186.00 A 258108.52 258108.52 0 0 1 5833465.00 17114412.00  zM 5833465.00 17901814.00 L 4967323.00 17901814.00 A 258108.52 258108.52 0 1 1 4967323.00 17385588.00 L 5833465.00 17385588.00 A 258108.52 258108.52 0 1 1 5833465.00 17901814.00  zM 5833465.00 18689215.00 L 4967323.00 18689215.00 A 258108.52 258108.52 0 0 1 4967323.00 18172989.00 L 5833465.00 18172989.00 A 258108.52 258108.52 0 0 1 5833465.00 18689215.00  zM 5833465.00 19476617.00 L 4967323.00 19476617.00 A 258108.52 258108.52 0 1 1 4967323.00 18960391.00 L 5833465.00 18960391.00 A 258108.52 258108.52 0 1 1 5833465.00 19476617.00  zM 5833465.00 20264019.00 L 4967323.00 20264019.00 A 258108.52 258108.52 0 1 1 4967323.00 19747793.00 L 5833465.00 19747793.00 A 258108.52 258108.52 0 0 1 5833465.00 20264019.00  zM 5946359.00 21442984.00 L 5946359.00 21128024.00 A 220780.35 220780.35 0 0 1 6387913.00 21128024.00 L 6387913.00 21442984.00 A 220780.35 220780.35 0 0 1 5946359.00 21442984.00  zM 5943003.00 23214174.00 L 5943003.00 22741732.00 A 220780.35 220780.35 0 1 1 6384557.00 22741732.00 L 6384557.00 23214174.00 A 220780.35 220780.35 0 1 1 5943003.00 23214174.00  zM 9343003.00 21489763.00 L 9343003.00 21174803.00 A 220780.35 220780.35 0 0 1 9784557.00 21174803.00 L 9784557.00 21489763.00 A 220780.35 220780.35 0 1 1 9343003.00 21489763.00  zM 9343003.00 23214174.00 L 9343003.00 22741732.00 A 220780.35 220780.35 0 1 1 9784557.00 22741732.00 L 9784557.00 23214174.00 A 220780.35 220780.35 0 1 1 9343003.00 23214174.00  zM 11553543.00 23448031.00 L 11022047.00 23448031.00 L 11022047.00 21794489.00 L 11553543.00 21794489.00 L 11553543.00 23448031.00  zM 12132677.00 17114412.00 L 11266535.00 17114412.00 A 258108.52 258108.52 0 1 1 11266535.00 16598186.00 L 12132677.00 16598186.00 A 258108.52 258108.52 0 0 1 12132677.00 17114412.00  zM 12132677.00 17901814.00 L 11266535.00 17901814.00 A 258108.52 258108.52 0 1 1 11266535.00 17385588.00 L 12132677.00 17385588.00 A 258108.52 258108.52 0 1 1 12132677.00 17901814.00  zM 12132677.00 18689215.00 L 11266535.00 18689215.00 A 258108.52 258108.52 0 0 1 11266535.00 18172989.00 L 12132677.00 18172989.00 A 258108.52 258108.52 0 0 1 12132677.00 18689215.00  zM 15557086.00 17145669.00 L 13942914.00 17145669.00 L 13942914.00 16712599.00 L 15557086.00 16712599.00 L 15557086.00 17145669.00  zM 15557086.00 17933071.00 L 13942914.00 17933071.00 L 13942914.00 17500001.00 L 15557086.00 17500001.00 L 15557086.00 17933071.00  zM 12132677.00 20264019.00 L 11266535.00 20264019.00 A 258108.52 258108.52 0 1 1 11266535.00 19747793.00 L 12132677.00 19747793.00 A 258108.52 258108.52 0 0 1 12132677.00 20264019.00  zM 12132677.00 19476617.00 L 11266535.00 19476617.00 A 258108.52 258108.52 0 1 1 11266535.00 18960391.00 L 12132677.00 18960391.00 A 258108.52 258108.52 0 1 1 12132677.00 19476617.00  zM 15557086.00 18720472.00 L 13942914.00 18720472.00 L 13942914.00 18287402.00 L 15557086.00 18287402.00 L 15557086.00 18720472.00  zM 13777953.00 23448031.00 L 13246457.00 23448031.00 L 13246457.00 21794489.00 L 13777953.00 21794489.00 L 13777953.00 23448031.00  zM 12650000.00 23408661.00 L 12150000.00 23408661.00 L 12150000.00 21991339.00 L 12650000.00 21991339.00 L 12650000.00 23408661.00  z"/>
</g>
</svg>
