<svg width="29.99999842mm" height="49.99999906mm" viewBox="0 0 11811023 19685039"  version="1.1" xmlns="http://www.w3.org/2000/svg" xmlns:xlink="http://www.w3.org/1999/xlink">
<desc>
Origin 0 0 Bound 3937008 3937008 11811023 19685039
</desc>
<g fill-rule="evenodd" fill="rgb(255, 0, 255)" stroke="black" stroke-width="1" transform="translate(0, 19685039) scale(1, -1) translate(-3937008, -3937008)">
<path id="N" d="M 14589564.00 23622046.00 A 119403.94 119403.94 0 0 0 14667948.00 23432809.00 L 14614046.00 23374616.00 A 629926.01 629926.01 0 0 1 15558792.00 22541965.00 A 119406.16 119406.16 0 0 0 15748029.00 22463580.00 L 15748030.38 17047244.00 L 14549340.00 17047244.00 A 120429.94 120429.94 0 0 1 14549340.00 16811024.00 L 15748030.35 16811024.00 L 15748030.00 5095473.00 A 119403.94 119403.94 0 0 0 15558793.00 5017089.00 L 15500600.00 5070991.00 A 629926.01 629926.01 0 0 1 14667949.00 4126245.00 A 119406.16 119406.16 0 0 0 14589564.00 3937008.00 L 5095473.00 3937008.00 A 119400.25 119400.25 0 0 0 5017088.00 4126244.00 L 5070991.00 4184437.00 A 629926.01 629926.01 0 0 1 4126245.00 5017088.00 A 119406.16 119406.16 0 0 0 3937008.00 5095473.00 L 3937008.00 22463580.00 A 119390.75 119390.75 0 0 0 4126245.00 22541965.00 L 4184437.00 22488062.00 A 629926.01 629926.01 0 0 1 5017088.00 23432808.00 A 119406.16 119406.16 0 0 0 5095473.00 23622045.00 L 14589564.00 23622046.00  zM 7086615.00 5397943.00 L 6496063.00 5397943.00 A 220780.35 220780.35 0 0 1 6496063.00 4956389.00 L 7086615.00 4956389.00 A 220780.35 220780.35 0 1 1 7086615.00 5397943.00  zM 7086615.00 6397943.00 L 6496063.00 6397943.00 A 220780.35 220780.35 0 0 1 6496063.00 5956389.00 L 7086615.00 5956389.00 A 220780.35 220780.35 0 1 1 7086615.00 6397943.00  zM 7086615.00 7397943.00 L 6496063.00 7397943.00 A 220780.35 220780.35 0 0 1 6496063.00 6956389.00 L 7086615.00 6956389.00 A 220780.35 220780.35 0 0 1 7086615.00 7397943.00  zM 7086615.00 8397943.00 L 6496063.00 8397943.00 A 220780.35 220780.35 0 0 1 6496063.00 7956389.00 L 7086615.00 7956389.00 A 220780.35 220780.35 0 1 1 7086615.00 8397943.00  zM 7086615.00 9397943.00 L 6496063.00 9397943.00 A 220780.35 220780.35 0 0 1 6496063.00 8956389.00 L 7086615.00 8956389.00 A 220780.35 220780.35 0 1 1 7086615.00 9397943.00  zM 13188977.00 5397943.00 L 12598425.00 5397943.00 A 220780.35 220780.35 0 1 1 12598425.00 4956389.00 L 13188977.00 4956389.00 A 220780.35 220780.35 0 0 1 13188977.00 5397943.00  zM 13188977.00 6397943.00 L 12598425.00 6397943.00 A 220780.35 220780.35 0 1 1 12598425.00 5956389.00 L 13188977.00 5956389.00 A 220780.35 220780.35 0 0 1 13188977.00 6397943.00  zM 13188977.00 7397943.00 L 12598425.00 7397943.00 A 220780.35 220780.35 0 0 1 12598425.00 6956389.00 L 13188977.00 6956389.00 A 220780.35 220780.35 0 0 1 13188977.00 7397943.00  zM 13188977.00 8397943.00 L 12598425.00 8397943.00 A 220780.35 220780.35 0 1 1 12598425.00 7956389.00 L 13188977.00 7956389.00 A 220780.35 220780.35 0 0 1 13188977.00 8397943.00  zM 13188977.00 9397943.00 L 12598425.00 9397943.00 A 220780.35 220780.35 0 1 1 12598425.00 8956389.00 L 13188977.00 8956389.00 A 220780.35 220780.35 0 0 1 13188977.00 9397943.00  zM 5933465.00 14202207.00 L 5067323.00 14202207.00 A 258108.52 258108.52 0 0 1 5067323.00 13685981.00 L 5933465.00 13685981.00 A 258108.52 258108.52 0 0 1 5933465.00 14202207.00  zM 5933465.00 14989609.00 L 5067323.00 14989609.00 A 258108.52 258108.52 0 0 1 5067323.00 14473383.00 L 5933465.00 14473383.00 A 258108.52 258108.52 0 0 1 5933465.00 14989609.00  zM 5933465.00 15777011.00 L 5067323.00 15777011.00 A 258108.52 258108.52 0 1 1 5067323.00 15260785.00 L 5933465.00 15260785.00 A 258108.52 258108.52 0 0 1 5933465.00 15777011.00  zM 7086615.00 10397943.00 L 6496063.00 10397943.00 A 220780.35 220780.35 0 0 1 6496063.00 9956389.00 L 7086615.00 9956389.00 A 220780.35 220780.35 0 1 1 7086615.00 10397943.00  zM 12232677.00 14202207.00 L 11366535.00 14202207.00 A 258108.52 258108.52 0 0 1 11366535.00 13685981.00 L 12232677.00 13685981.00 A 258108.52 258108.52 0 0 1 12232677.00 14202207.00  zM 13188977.00 10397943.00 L 12598425.00 10397943.00 A 220780.35 220780.35 0 1 1 12598425.00 9956389.00 L 13188977.00 9956389.00 A 220780.35 220780.35 0 0 1 13188977.00 10397943.00  zM 12232677.00 14989609.00 L 11366535.00 14989609.00 A 258108.52 258108.52 0 0 1 11366535.00 14473383.00 L 12232677.00 14473383.00 A 258108.52 258108.52 0 0 1 12232677.00 14989609.00  zM 12232677.00 15777011.00 L 11366535.00 15777011.00 A 258108.52 258108.52 0 0 1 11366535.00 15260785.00 L 12232677.00 15260785.00 A 258108.52 258108.52 0 1 1 12232677.00 15777011.00  zM 12232677.00 16564412.00 L 11366535.00 16564412.00 A 258108.52 258108.52 0 0 1 11366535.00 16048186.00 L 12232677.00 16048186.00 A 258108.52 258108.52 0 0 1 12232677.00 16564412.00  zM 15557086.00 15964567.00 L 13942914.00 15964567.00 L 13942914.00 15531497.00 L 15557086.00 15531497.00 L 15557086.00 15964567.00  zM 5933465.00 16564412.00 L 5067323.00 16564412.00 A 258108.52 258108.52 0 0 1 5067323.00 16048186.00 L 5933465.00 16048186.00 A 258108.52 258108.52 0 0 1 5933465.00 16564412.00  zM 5933465.00 17351814.00 L 5067323.00 17351814.00 A 258108.52 258108.52 0 1 1 5067323.00 16835588.00 L 5933465.00 16835588.00 A 258108.52 258108.52 0 0 1 5933465.00 17351814.00  zM 5933465.00 18139215.00 L 5067323.00 18139215.00 A 258108.52 258108.52 0 0 1 5067323.00 17622989.00 L 5933465.00 17622989.00 A 258108.52 258108.52 0 0 1 5933465.00 18139215.00  zM 5933465.00 18926617.00 L 5067323.00 18926617.00 A 258108.52 258108.52 0 0 1 5067323.00 18410391.00 L 5933465.00 18410391.00 A 258108.52 258108.52 0 0 1 5933465.00 18926617.00  zM 5933465.00 19714019.00 L 5067323.00 19714019.00 A 258108.52 258108.52 0 1 1 5067323.00 19197793.00 L 5933465.00 19197793.00 A 258108.52 258108.52 0 0 1 5933465.00 19714019.00  zM 6403543.00 23498031.00 L 5872047.00 23498031.00 L 5872047.00 21844489.00 L 6403543.00 21844489.00 L 6403543.00 23498031.00  zM 7500000.00 23458661.00 L 7000000.00 23458661.00 L 7000000.00 22041339.00 L 7500000.00 22041339.00 L 7500000.00 23458661.00  zM 8627953.00 23498031.00 L 8096457.00 23498031.00 L 8096457.00 21844489.00 L 8627953.00 21844489.00 L 8627953.00 23498031.00  zM 9108957.00 21265031.00 L 9108957.00 20950071.00 A 220780.35 220780.35 0 1 1 9550511.00 20950071.00 L 9550511.00 21265031.00 A 220780.35 220780.35 0 0 1 9108957.00 21265031.00  zM 9105601.00 23036221.00 L 9105601.00 22563779.00 A 220780.35 220780.35 0 1 1 9547155.00 22563779.00 L 9547155.00 23036221.00 A 220780.35 220780.35 0 1 1 9105601.00 23036221.00  zM 12232677.00 17351814.00 L 11366535.00 17351814.00 A 258108.52 258108.52 0 1 1 11366535.00 16835588.00 L 12232677.00 16835588.00 A 258108.52 258108.52 0 1 1 12232677.00 17351814.00  zM 12232677.00 18139215.00 L 11366535.00 18139215.00 A 258108.52 258108.52 0 0 1 11366535.00 17622989.00 L 12232677.00 17622989.00 A 258108.52 258108.52 0 0 1 12232677.00 18139215.00  zM 15557086.00 17539370.00 L 13942914.00 17539370.00 L 13942914.00 17106300.00 L 15557086.00 17106300.00 L 15557086.00 17539370.00  zM 15557086.00 16751968.00 L 13942914.00 16751968.00 L 13942914.00 16318898.00 L 15557086.00 16318898.00 L 15557086.00 16751968.00  zM 15557086.00 18326772.00 L 13942914.00 18326772.00 L 13942914.00 17893702.00 L 15557086.00 17893702.00 L 15557086.00 18326772.00  zM 12232677.00 19714019.00 L 11366535.00 19714019.00 A 258108.52 258108.52 0 1 1 11366535.00 19197793.00 L 12232677.00 19197793.00 A 258108.52 258108.52 0 1 1 12232677.00 19714019.00  zM 12232677.00 18926617.00 L 11366535.00 18926617.00 A 258108.52 258108.52 0 0 1 11366535.00 18410391.00 L 12232677.00 18410391.00 A 258108.52 258108.52 0 1 1 12232677.00 18926617.00  zM 15557086.00 19114173.00 L 13942914.00 19114173.00 L 13942914.00 18681103.00 L 15557086.00 18681103.00 L 15557086.00 19114173.00  zM 12505601.00 21311810.00 L 12505601.00 20996850.00 A 220780.35 220780.35 0 1 1 12947155.00 20996850.00 L 12947155.00 21311810.00 A 220780.35 220780.35 0 1 1 12505601.00 21311810.00  zM 12505601.00 23036221.00 L 12505601.00 22563779.00 A 220780.35 220780.35 0 1 1 12947155.00 22563779.00 L 12947155.00 23036221.00 A 220780.35 220780.35 0 1 1 12505601.00 23036221.00  z"/>
</g>
</svg>
