<svg width="29.99999842mm" height="49.99999906mm" viewBox="0 0 11811023 19685039"  version="1.1" xmlns="http://www.w3.org/2000/svg" xmlns:xlink="http://www.w3.org/1999/xlink">
<desc>
Origin 0 0 Bound 3937008 3937008 11811023 19685039
</desc>
<g fill-rule="evenodd" fill="rgb(0, 204, 102)" stroke="black" stroke-width="1" transform="translate(0, 19685039) scale(1, -1) translate(-3937008, -3937008)">
<path id="N" d="M 7961611.87 15358126.00 m -63921.13 0 a 63921.13 63921.13 0 1 1 127842.26 0a 63921.13 63921.13 0 1 1 -127842.26 0"/>
<path id="N" d="M 5599999.87 7800000.00 m -63921.13 0 a 63921.13 63921.13 0 1 1 127842.26 0a 63921.13 63921.13 0 1 1 -127842.26 0"/>
<path id="N" d="M 7199999.87 19350000.00 m -63921.13 0 a 63921.13 63921.13 0 1 1 127842.26 0a 63921.13 63921.13 0 1 1 -127842.26 0"/>
<path id="N" d="M 6198461.87 18051239.00 m -63921.13 0 a 63921.13 63921.13 0 1 1 127842.26 0a 63921.13 63921.13 0 1 1 -127842.26 0"/>
<path id="N" d="M 11048424.87 16401575.00 m -63921.13 0 a 63921.13 63921.13 0 1 1 127842.26 0a 63921.13 63921.13 0 1 1 -127842.26 0"/>
<path id="N" d="M 7949999.87 16200000.00 m -63921.13 0 a 63921.13 63921.13 0 1 1 127842.26 0a 63921.13 63921.13 0 1 1 -127842.26 0"/>
<path id="N" d="M 7149999.87 16000000.00 m -63921.13 0 a 63921.13 63921.13 0 1 1 127842.26 0a 63921.13 63921.13 0 1 1 -127842.26 0"/>
<path id="N" d="M 10999999.87 15650000.00 m -63921.13 0 a 63921.13 63921.13 0 1 1 127842.26 0a 63921.13 63921.13 0 1 1 -127842.26 0"/>
<path id="N" d="M 8549999.87 20700000.00 m -63921.13 0 a 63921.13 63921.13 0 1 1 127842.26 0a 63921.13 63921.13 0 1 1 -127842.26 0"/>
<path id="N" d="M 13714487.00 21311810.00 L 13714487.00 20996850.00 A 200706.53 200706.53 0 0 0 13313073.00 20996850.00 L 13313073.00 21311810.00 A 200706.53 200706.53 0 1 0 13714487.00 21311810.00  zM 13393356.00 21311810.00 L 13393356.00 20996850.00 A 120431.73 120431.73 0 0 1 13634204.00 20996850.00 L 13634204.00 21311810.00 A 120431.73 120431.73 0 0 1 13393356.00 21311810.00  z"/>
<path id="N" d="M 10317843.00 21265031.00 L 10317843.00 20950071.00 A 200706.53 200706.53 0 0 0 9916429.00 20950071.00 L 9916429.00 21265031.00 A 200706.53 200706.53 0 0 0 10317843.00 21265031.00  zM 9996712.00 21265031.00 L 9996712.00 20950071.00 A 120431.73 120431.73 0 1 1 10237560.00 20950071.00 L 10237560.00 21265031.00 A 120431.73 120431.73 0 0 1 9996712.00 21265031.00  z"/>
<path id="N" d="M 10314487.00 23036221.00 L 10314487.00 22563779.00 A 200706.53 200706.53 0 0 0 9913073.00 22563779.00 L 9913073.00 23036221.00 A 200706.53 200706.53 0 1 0 10314487.00 23036221.00  zM 9993356.00 23036220.00 L 9993356.00 22563780.00 A 120431.73 120431.73 0 0 1 10234204.00 22563780.00 L 10234204.00 23036220.00 A 120431.73 120431.73 0 0 1 9993356.00 23036220.00  z"/>
<path id="N" d="M 13714487.00 23036221.00 L 13714487.00 22563779.00 A 200706.53 200706.53 0 0 0 13313073.00 22563779.00 L 13313073.00 23036221.00 A 200706.53 200706.53 0 1 0 13714487.00 23036221.00  zM 13393356.00 23036220.00 L 13393356.00 22563780.00 A 120431.73 120431.73 0 0 1 13634204.00 22563780.00 L 13634204.00 23036220.00 A 120431.73 120431.73 0 0 1 13393356.00 23036220.00  z"/>
<path id="N" d="M 12149999.87 19326772.00 m -63921.13 0 a 63921.13 63921.13 0 1 1 127842.26 0a 63921.13 63921.13 0 1 1 -127842.26 0"/>
<path id="N" d="M 9566928.87 19614961.00 m -63921.13 0 a 63921.13 63921.13 0 1 1 127842.26 0a 63921.13 63921.13 0 1 1 -127842.26 0"/>
<path id="N" d="M 4699999.87 19750000.00 m -63921.13 0 a 63921.13 63921.13 0 1 1 127842.26 0a 63921.13 63921.13 0 1 1 -127842.26 0"/>
<path id="N" d="M 11049999.87 19650000.00 m -63921.13 0 a 63921.13 63921.13 0 1 1 127842.26 0a 63921.13 63921.13 0 1 1 -127842.26 0"/>
<path id="N" d="M 12449999.87 18950000.00 m -63921.13 0 a 63921.13 63921.13 0 1 1 127842.26 0a 63921.13 63921.13 0 1 1 -127842.26 0"/>
<path id="N" d="M 7999999.87 18923228.00 m -63921.13 0 a 63921.13 63921.13 0 1 1 127842.26 0a 63921.13 63921.13 0 1 1 -127842.26 0"/>
<path id="N" d="M 8999999.87 19650000.00 m -63921.13 0 a 63921.13 63921.13 0 1 1 127842.26 0a 63921.13 63921.13 0 1 1 -127842.26 0"/>
<path id="N" d="M 8818897.87 19409449.00 m -63921.13 0 a 63921.13 63921.13 0 1 1 127842.26 0a 63921.13 63921.13 0 1 1 -127842.26 0"/>
<path id="N" d="M 10848834.87 18825981.00 m -63921.13 0 a 63921.13 63921.13 0 1 1 127842.26 0a 63921.13 63921.13 0 1 1 -127842.26 0"/>
<path id="N" d="M 8349999.87 18900000.00 m -63921.13 0 a 63921.13 63921.13 0 1 1 127842.26 0a 63921.13 63921.13 0 1 1 -127842.26 0"/>
<path id="N" d="M 8818897.87 19050000.00 m -63921.13 0 a 63921.13 63921.13 0 1 1 127842.26 0a 63921.13 63921.13 0 1 1 -127842.26 0"/>
<path id="N" d="M 9155511.87 19428740.00 m -63921.13 0 a 63921.13 63921.13 0 1 1 127842.26 0a 63921.13 63921.13 0 1 1 -127842.26 0"/>
<path id="N" d="M 10867716.87 19600000.00 m -63921.13 0 a 63921.13 63921.13 0 1 1 127842.26 0a 63921.13 63921.13 0 1 1 -127842.26 0"/>
<path id="N" d="M 12449999.87 19500000.00 m -63921.13 0 a 63921.13 63921.13 0 1 1 127842.26 0a 63921.13 63921.13 0 1 1 -127842.26 0"/>
<path id="N" d="M 10433070.87 18985039.00 m -63921.13 0 a 63921.13 63921.13 0 1 1 127842.26 0a 63921.13 63921.13 0 1 1 -127842.26 0"/>
<path id="N" d="M 4549999.87 18600000.00 m -63921.13 0 a 63921.13 63921.13 0 1 1 127842.26 0a 63921.13 63921.13 0 1 1 -127842.26 0"/>
<path id="N" d="M 10369880.87 18650000.00 m -63921.13 0 a 63921.13 63921.13 0 1 1 127842.26 0a 63921.13 63921.13 0 1 1 -127842.26 0"/>
<path id="N" d="M 10849999.87 17500000.00 m -63921.13 0 a 63921.13 63921.13 0 1 1 127842.26 0a 63921.13 63921.13 0 1 1 -127842.26 0"/>
<path id="N" d="M 9123460.87 18569281.00 m -63921.13 0 a 63921.13 63921.13 0 1 1 127842.26 0a 63921.13 63921.13 0 1 1 -127842.26 0"/>
<path id="N" d="M 5549999.87 14500000.00 m -63921.13 0 a 63921.13 63921.13 0 1 1 127842.26 0a 63921.13 63921.13 0 1 1 -127842.26 0"/>
<path id="N" d="M 4932065.87 16462598.00 m -63921.13 0 a 63921.13 63921.13 0 1 1 127842.26 0a 63921.13 63921.13 0 1 1 -127842.26 0"/>
<path id="N" d="M 9446370.87 18569281.00 m -63921.13 0 a 63921.13 63921.13 0 1 1 127842.26 0a 63921.13 63921.13 0 1 1 -127842.26 0"/>
<path id="N" d="M 10845417.87 18598194.00 m -63921.13 0 a 63921.13 63921.13 0 1 1 127842.26 0a 63921.13 63921.13 0 1 1 -127842.26 0"/>
<path id="N" d="M 9399999.87 7250000.00 m -63921.13 0 a 63921.13 63921.13 0 1 1 127842.26 0a 63921.13 63921.13 0 1 1 -127842.26 0"/>
<path id="N" d="M 4449999.87 8300000.00 m -63921.13 0 a 63921.13 63921.13 0 1 1 127842.26 0a 63921.13 63921.13 0 1 1 -127842.26 0"/>
<path id="N" d="M 12899999.87 9150000.00 m -63921.13 0 a 63921.13 63921.13 0 1 1 127842.26 0a 63921.13 63921.13 0 1 1 -127842.26 0"/>
<path id="N" d="M 5349999.87 9300000.00 m -63921.13 0 a 63921.13 63921.13 0 1 1 127842.26 0a 63921.13 63921.13 0 1 1 -127842.26 0"/>
<path id="N" d="M 9930096.87 18408465.00 m -63921.13 0 a 63921.13 63921.13 0 1 1 127842.26 0a 63921.13 63921.13 0 1 1 -127842.26 0"/>
<path id="N" d="M 10299999.87 17500000.00 m -63921.13 0 a 63921.13 63921.13 0 1 1 127842.26 0a 63921.13 63921.13 0 1 1 -127842.26 0"/>
<path id="N" d="M 14499999.87 13800000.00 m -63921.13 0 a 63921.13 63921.13 0 1 1 127842.26 0a 63921.13 63921.13 0 1 1 -127842.26 0"/>
<path id="N" d="M 12167932.87 18037401.00 m -63921.13 0 a 63921.13 63921.13 0 1 1 127842.26 0a 63921.13 63921.13 0 1 1 -127842.26 0"/>
<path id="N" d="M 13049999.87 16850000.00 m -63921.13 0 a 63921.13 63921.13 0 1 1 127842.26 0a 63921.13 63921.13 0 1 1 -127842.26 0"/>
<path id="N" d="M 10449999.87 17450000.00 m -63921.13 0 a 63921.13 63921.13 0 1 1 127842.26 0a 63921.13 63921.13 0 1 1 -127842.26 0"/>
<path id="N" d="M 6449999.87 14150000.00 m -63921.13 0 a 63921.13 63921.13 0 1 1 127842.26 0a 63921.13 63921.13 0 1 1 -127842.26 0"/>
<path id="N" d="M 10749999.87 14350000.00 m -63921.13 0 a 63921.13 63921.13 0 1 1 127842.26 0a 63921.13 63921.13 0 1 1 -127842.26 0"/>
<path id="N" d="M 6899999.87 17000000.00 m -63921.13 0 a 63921.13 63921.13 0 1 1 127842.26 0a 63921.13 63921.13 0 1 1 -127842.26 0"/>
<path id="N" d="M 10699999.87 17450000.00 m -63921.13 0 a 63921.13 63921.13 0 1 1 127842.26 0a 63921.13 63921.13 0 1 1 -127842.26 0"/>
<path id="N" d="M 12649999.87 16900000.00 m -63921.13 0 a 63921.13 63921.13 0 1 1 127842.26 0a 63921.13 63921.13 0 1 1 -127842.26 0"/>
<path id="N" d="M 6749999.87 6800000.00 m -63921.13 0 a 63921.13 63921.13 0 1 1 127842.26 0a 63921.13 63921.13 0 1 1 -127842.26 0"/>
<path id="N" d="M 7399999.87 20150000.00 m -63921.13 0 a 63921.13 63921.13 0 1 1 127842.26 0a 63921.13 63921.13 0 1 1 -127842.26 0"/>
<path id="N" d="M 5499999.87 20200000.00 m -63921.13 0 a 63921.13 63921.13 0 1 1 127842.26 0a 63921.13 63921.13 0 1 1 -127842.26 0"/>
<path id="N" d="M 5699999.87 20600000.00 m -63921.13 0 a 63921.13 63921.13 0 1 1 127842.26 0a 63921.13 63921.13 0 1 1 -127842.26 0"/>
<path id="N" d="M 5899999.87 20600000.00 m -63921.13 0 a 63921.13 63921.13 0 1 1 127842.26 0a 63921.13 63921.13 0 1 1 -127842.26 0"/>
<path id="N" d="M 9825393.87 20300787.00 m -63921.13 0 a 63921.13 63921.13 0 1 1 127842.26 0a 63921.13 63921.13 0 1 1 -127842.26 0"/>
<path id="N" d="M 10449213.87 20300787.00 m -63921.13 0 a 63921.13 63921.13 0 1 1 127842.26 0a 63921.13 63921.13 0 1 1 -127842.26 0"/>
<path id="N" d="M 9884646.87 20050000.00 m -63921.13 0 a 63921.13 63921.13 0 1 1 127842.26 0a 63921.13 63921.13 0 1 1 -127842.26 0"/>
<path id="N" d="M 9449999.87 20100000.00 m -63921.13 0 a 63921.13 63921.13 0 1 1 127842.26 0a 63921.13 63921.13 0 1 1 -127842.26 0"/>
<path id="N" d="M 5899999.87 20400000.00 m -63921.13 0 a 63921.13 63921.13 0 1 1 127842.26 0a 63921.13 63921.13 0 1 1 -127842.26 0"/>
<path id="N" d="M 5499999.87 20600000.00 m -63921.13 0 a 63921.13 63921.13 0 1 1 127842.26 0a 63921.13 63921.13 0 1 1 -127842.26 0"/>
<path id="N" d="M 12149999.87 19023228.00 m -63921.13 0 a 63921.13 63921.13 0 1 1 127842.26 0a 63921.13 63921.13 0 1 1 -127842.26 0"/>
<path id="N" d="M 4349999.87 19822835.00 m -63921.13 0 a 63921.13 63921.13 0 1 1 127842.26 0a 63921.13 63921.13 0 1 1 -127842.26 0"/>
<path id="N" d="M 4749999.87 21050000.00 m -63921.13 0 a 63921.13 63921.13 0 1 1 127842.26 0a 63921.13 63921.13 0 1 1 -127842.26 0"/>
<path id="N" d="M 8223227.87 21300000.00 m -63921.13 0 a 63921.13 63921.13 0 1 1 127842.26 0a 63921.13 63921.13 0 1 1 -127842.26 0"/>
<path id="N" d="M 5499999.87 20400000.00 m -63921.13 0 a 63921.13 63921.13 0 1 1 127842.26 0a 63921.13 63921.13 0 1 1 -127842.26 0"/>
<path id="N" d="M 5699999.87 20400000.00 m -63921.13 0 a 63921.13 63921.13 0 1 1 127842.26 0a 63921.13 63921.13 0 1 1 -127842.26 0"/>
<path id="N" d="M 15099999.87 12900000.00 m -63921.13 0 a 63921.13 63921.13 0 1 1 127842.26 0a 63921.13 63921.13 0 1 1 -127842.26 0"/>
<path id="N" d="M 5999999.87 12950000.00 m -63921.13 0 a 63921.13 63921.13 0 1 1 127842.26 0a 63921.13 63921.13 0 1 1 -127842.26 0"/>
<path id="N" d="M 11923227.87 13450000.00 m -63921.13 0 a 63921.13 63921.13 0 1 1 127842.26 0a 63921.13 63921.13 0 1 1 -127842.26 0"/>
<path id="N" d="M 14699999.87 13750000.00 m -63921.13 0 a 63921.13 63921.13 0 1 1 127842.26 0a 63921.13 63921.13 0 1 1 -127842.26 0"/>
<path id="N" d="M 5899999.87 6800000.00 m -63921.13 0 a 63921.13 63921.13 0 1 1 127842.26 0a 63921.13 63921.13 0 1 1 -127842.26 0"/>
<path id="N" d="M 6099999.87 6800000.00 m -63921.13 0 a 63921.13 63921.13 0 1 1 127842.26 0a 63921.13 63921.13 0 1 1 -127842.26 0"/>
<path id="N" d="M 6299999.87 6800000.00 m -63921.13 0 a 63921.13 63921.13 0 1 1 127842.26 0a 63921.13 63921.13 0 1 1 -127842.26 0"/>
<path id="N" d="M 6499999.87 6800000.00 m -63921.13 0 a 63921.13 63921.13 0 1 1 127842.26 0a 63921.13 63921.13 0 1 1 -127842.26 0"/>
<path id="N" d="M 7149999.87 18750000.00 m -63921.13 0 a 63921.13 63921.13 0 1 1 127842.26 0a 63921.13 63921.13 0 1 1 -127842.26 0"/>
<path id="N" d="M 12949999.87 10517324.00 m -63921.13 0 a 63921.13 63921.13 0 1 1 127842.26 0a 63921.13 63921.13 0 1 1 -127842.26 0"/>
<path id="N" d="M 5699999.87 20200000.00 m -63921.13 0 a 63921.13 63921.13 0 1 1 127842.26 0a 63921.13 63921.13 0 1 1 -127842.26 0"/>
<path id="N" d="M 5899999.87 20200000.00 m -63921.13 0 a 63921.13 63921.13 0 1 1 127842.26 0a 63921.13 63921.13 0 1 1 -127842.26 0"/>
<path id="N" d="M 12499999.87 9400000.00 m -63921.13 0 a 63921.13 63921.13 0 1 1 127842.26 0a 63921.13 63921.13 0 1 1 -127842.26 0"/>
<path id="N" d="M 5999999.87 12600000.00 m -63921.13 0 a 63921.13 63921.13 0 1 1 127842.26 0a 63921.13 63921.13 0 1 1 -127842.26 0"/>
<path id="N" d="M 6799999.87 11150000.00 m -63921.13 0 a 63921.13 63921.13 0 1 1 127842.26 0a 63921.13 63921.13 0 1 1 -127842.26 0"/>
<path id="N" d="M 11249999.87 9350000.00 m -63921.13 0 a 63921.13 63921.13 0 1 1 127842.26 0a 63921.13 63921.13 0 1 1 -127842.26 0"/>
<path id="N" d="M 10897099.87 15061597.00 m -63921.13 0 a 63921.13 63921.13 0 1 1 127842.26 0a 63921.13 63921.13 0 1 1 -127842.26 0"/>
<path id="N" d="M 7599999.87 17678740.00 m -63921.13 0 a 63921.13 63921.13 0 1 1 127842.26 0a 63921.13 63921.13 0 1 1 -127842.26 0"/>
<path id="N" d="M 8360479.87 15900000.00 m -63921.13 0 a 63921.13 63921.13 0 1 1 127842.26 0a 63921.13 63921.13 0 1 1 -127842.26 0"/>
<path id="N" d="M 10749999.87 15950000.00 m -63921.13 0 a 63921.13 63921.13 0 1 1 127842.26 0a 63921.13 63921.13 0 1 1 -127842.26 0"/>
<path id="N" d="M 6249999.87 17766208.00 m -63921.13 0 a 63921.13 63921.13 0 1 1 127842.26 0a 63921.13 63921.13 0 1 1 -127842.26 0"/>
<path id="N" d="M 7349999.87 18235606.00 m -63921.13 0 a 63921.13 63921.13 0 1 1 127842.26 0a 63921.13 63921.13 0 1 1 -127842.26 0"/>
<path id="N" d="M 6599999.87 13950000.00 m -63921.13 0 a 63921.13 63921.13 0 1 1 127842.26 0a 63921.13 63921.13 0 1 1 -127842.26 0"/>
<path id="N" d="M 10573631.87 14517892.00 m -63921.13 0 a 63921.13 63921.13 0 1 1 127842.26 0a 63921.13 63921.13 0 1 1 -127842.26 0"/>
<path id="N" d="M 11732676.87 20457284.00 m -63921.13 0 a 63921.13 63921.13 0 1 1 127842.26 0a 63921.13 63921.13 0 1 1 -127842.26 0"/>
<path id="N" d="M 12105062.87 20616089.00 m -63921.13 0 a 63921.13 63921.13 0 1 1 127842.26 0a 63921.13 63921.13 0 1 1 -127842.26 0"/>
<path id="N" d="M 10299999.87 13050000.00 m -63921.13 0 a 63921.13 63921.13 0 1 1 127842.26 0a 63921.13 63921.13 0 1 1 -127842.26 0"/>
<path id="N" d="M 6199897.87 17250075.00 m -63921.13 0 a 63921.13 63921.13 0 1 1 127842.26 0a 63921.13 63921.13 0 1 1 -127842.26 0"/>
<path id="N" d="M 6949999.87 17300000.00 m -63921.13 0 a 63921.13 63921.13 0 1 1 127842.26 0a 63921.13 63921.13 0 1 1 -127842.26 0"/>
<path id="N" d="M 9949999.87 17509645.00 m -63921.13 0 a 63921.13 63921.13 0 1 1 127842.26 0a 63921.13 63921.13 0 1 1 -127842.26 0"/>
<path id="N" d="M 6699999.87 17900000.00 m -63921.13 0 a 63921.13 63921.13 0 1 1 127842.26 0a 63921.13 63921.13 0 1 1 -127842.26 0"/>
<path id="N" d="M 10549999.87 15400000.00 m -63921.13 0 a 63921.13 63921.13 0 1 1 127842.26 0a 63921.13 63921.13 0 1 1 -127842.26 0"/>
<path id="N" d="M 7099999.87 12750000.00 m -63921.13 0 a 63921.13 63921.13 0 1 1 127842.26 0a 63921.13 63921.13 0 1 1 -127842.26 0"/>
<path id="N" d="M 12599999.87 16500000.00 m -63921.13 0 a 63921.13 63921.13 0 1 1 127842.26 0a 63921.13 63921.13 0 1 1 -127842.26 0"/>
<path id="N" d="M 6899999.87 19250000.00 m -63921.13 0 a 63921.13 63921.13 0 1 1 127842.26 0a 63921.13 63921.13 0 1 1 -127842.26 0"/>
<path id="N" d="M 4349999.87 20177166.00 m -63921.13 0 a 63921.13 63921.13 0 1 1 127842.26 0a 63921.13 63921.13 0 1 1 -127842.26 0"/>
<path id="N" d="M 8899999.87 13050000.00 m -63921.13 0 a 63921.13 63921.13 0 1 1 127842.26 0a 63921.13 63921.13 0 1 1 -127842.26 0"/>
<path id="N" d="M 7091535.87 16287880.00 m -63921.13 0 a 63921.13 63921.13 0 1 1 127842.26 0a 63921.13 63921.13 0 1 1 -127842.26 0"/>
<path id="N" d="M 6681889.87 19250000.00 m -63921.13 0 a 63921.13 63921.13 0 1 1 127842.26 0a 63921.13 63921.13 0 1 1 -127842.26 0"/>
<path id="N" d="M 4499999.87 19400000.00 m -63921.13 0 a 63921.13 63921.13 0 1 1 127842.26 0a 63921.13 63921.13 0 1 1 -127842.26 0"/>
<path id="N" d="M 10186007.87 13883232.00 m -63921.13 0 a 63921.13 63921.13 0 1 1 127842.26 0a 63921.13 63921.13 0 1 1 -127842.26 0"/>
<path id="N" d="M 8349999.87 20200000.00 m -63921.13 0 a 63921.13 63921.13 0 1 1 127842.26 0a 63921.13 63921.13 0 1 1 -127842.26 0"/>
<path id="N" d="M 8371259.87 19800000.00 m -63921.13 0 a 63921.13 63921.13 0 1 1 127842.26 0a 63921.13 63921.13 0 1 1 -127842.26 0"/>
<path id="N" d="M 7849999.87 21300000.00 m -63921.13 0 a 63921.13 63921.13 0 1 1 127842.26 0a 63921.13 63921.13 0 1 1 -127842.26 0"/>
<path id="N" d="M 5549999.87 8800000.00 m -63921.13 0 a 63921.13 63921.13 0 1 1 127842.26 0a 63921.13 63921.13 0 1 1 -127842.26 0"/>
<path id="N" d="M 4449999.87 7800000.00 m -63921.13 0 a 63921.13 63921.13 0 1 1 127842.26 0a 63921.13 63921.13 0 1 1 -127842.26 0"/>
<path id="N" d="M 14049999.87 6723229.00 m -63921.13 0 a 63921.13 63921.13 0 1 1 127842.26 0a 63921.13 63921.13 0 1 1 -127842.26 0"/>
<path id="N" d="M 5499999.87 11250000.00 m -63921.13 0 a 63921.13 63921.13 0 1 1 127842.26 0a 63921.13 63921.13 0 1 1 -127842.26 0"/>
<path id="N" d="M 7349999.87 20900000.00 m -63921.13 0 a 63921.13 63921.13 0 1 1 127842.26 0a 63921.13 63921.13 0 1 1 -127842.26 0"/>
<path id="N" d="M 6049999.87 18850000.00 m -63921.13 0 a 63921.13 63921.13 0 1 1 127842.26 0a 63921.13 63921.13 0 1 1 -127842.26 0"/>
<path id="N" d="M 7649999.87 18950000.00 m -63921.13 0 a 63921.13 63921.13 0 1 1 127842.26 0a 63921.13 63921.13 0 1 1 -127842.26 0"/>
<path id="N" d="M 7349999.87 19800000.00 m -63921.13 0 a 63921.13 63921.13 0 1 1 127842.26 0a 63921.13 63921.13 0 1 1 -127842.26 0"/>
<path id="N" d="M 13049999.87 17378740.00 m -63921.13 0 a 63921.13 63921.13 0 1 1 127842.26 0a 63921.13 63921.13 0 1 1 -127842.26 0"/>
<path id="N" d="M 12649999.87 17378740.00 m -63921.13 0 a 63921.13 63921.13 0 1 1 127842.26 0a 63921.13 63921.13 0 1 1 -127842.26 0"/>
<path id="N" d="M 5099999.87 12200000.00 m -63921.13 0 a 63921.13 63921.13 0 1 1 127842.26 0a 63921.13 63921.13 0 1 1 -127842.26 0"/>
<path id="N" d="M 4499999.87 15619291.00 m -63921.13 0 a 63921.13 63921.13 0 1 1 127842.26 0a 63921.13 63921.13 0 1 1 -127842.26 0"/>
<path id="N" d="M 11411416.87 16764567.00 m -63921.13 0 a 63921.13 63921.13 0 1 1 127842.26 0a 63921.13 63921.13 0 1 1 -127842.26 0"/>
<path id="N" d="M 6686893.87 16550000.00 m -63921.13 0 a 63921.13 63921.13 0 1 1 127842.26 0a 63921.13 63921.13 0 1 1 -127842.26 0"/>
<path id="N" d="M 4526770.87 16200000.00 m -63921.13 0 a 63921.13 63921.13 0 1 1 127842.26 0a 63921.13 63921.13 0 1 1 -127842.26 0"/>
<path id="N" d="M 14813921.00 19600000.00 L 14804120.00 19576338.24 L 14804121.00 18390373.00 L 14788267.29 18352103.29 L 14304120.00 17867955.03 L 14304121.00 10700000.00 L 14288267.29 10661730.29 L 14105182.00 10478644.08 L 14105182.00 9403599.00 L 14298938.00 9403599.00 L 14304277.18 9402537.00 L 14550000.00 9402537.00 A 152537.16 152537.16 0 0 0 14550000.00 9097463.00 L 14300000.00 9097463.00 L 14294660.82 9098525.00 L 14114245.00 9098525.00 L 10407860.00 5392140.00 A 152532.52 152532.52 0 0 0 10192140.00 5607860.00 L 13943202.00 9358922.00 L 13992688.00 9391988.00 L 13996942.00 9392834.15 L 13996941.00 10501062.00 L 14012793.00 10539331.00 L 14195880.00 10722417.08 L 14195879.00 17890373.00 L 14211731.00 17928642.00 L 14695880.00 18412790.03 L 14695880.00 19576338.24 L 14686079.00 19600000.00 A 63920.91 63920.91 0 0 0 14813921.00 19600000.00  z"/>
<path id="N" d="M 8360479.87 15597088.00 m -63921.13 0 a 63921.13 63921.13 0 1 1 127842.26 0a 63921.13 63921.13 0 1 1 -127842.26 0"/>
<path id="N" d="M 7910739.87 16585826.00 m -63921.13 0 a 63921.13 63921.13 0 1 1 127842.26 0a 63921.13 63921.13 0 1 1 -127842.26 0"/>
<path id="N" d="M 4795199.00 20704801.00 L 4779903.54 20698465.42 L 4729546.00 20648107.21 L 4729546.00 20296099.76 L 4988269.00 20036133.00 L 4995294.65 20019171.00 L 6125164.99 20019171.00 L 6511971.29 20405978.20 L 6502075.00 20429870.00 A 63920.91 63920.91 0 1 0 6565996.00 20365949.00 L 6542104.20 20375845.29 L 6149056.00 19982798.00 L 6133990.00 19976557.00 L 5004120.00 19976557.00 L 5004121.00 19199949.00 L 4988269.00 19161680.00 L 4764975.00 18938386.00 L 5199241.00 18504120.00 L 5380315.00 18504121.00 L 5418584.00 18488269.00 L 5840944.57 18065907.52 L 6546574.84 18771536.87 L 6556376.00 18795199.00 A 63921.13 63921.13 0 1 0 6646774.00 18704801.00 L 6623111.87 18694999.84 L 5895065.00 17966952.02 L 5895065.00 15731473.00 L 11371536.83 10255000.17 L 11395199.00 10245199.00 A 63921.13 63921.13 0 0 0 11304801.00 10154801.00 L 11294999.83 10178463.17 L 5802676.00 15670786.00 L 5786825.00 15709057.41 L 5786825.00 17966952.97 L 5357897.03 18395880.00 L 5176823.00 18395880.00 L 5138554.00 18411731.00 L 4666898.47 18883386.53 L 4643238.00 18893187.00 L 4624516.00 18938386.00 L 4643238.00 18983585.00 L 4666898.47 18993385.47 L 4895880.00 19222367.00 L 4895880.00 19975446.94 L 4653887.57 20217438.49 L 4630227.00 20227239.00 L 4611505.00 20272438.00 L 4621306.00 20296099.76 L 4621305.00 20670525.00 L 4637157.00 20708794.00 L 4691534.50 20763170.77 L 4704801.00 20795199.00 A 63921.13 63921.13 0 0 0 4795199.00 20704801.00  z"/>
</g>
</svg>
