<svg width="29.99999842mm" height="49.99999906mm" viewBox="0 0 11811023 19685039"  version="1.1" xmlns="http://www.w3.org/2000/svg" xmlns:xlink="http://www.w3.org/1999/xlink">
<desc>
Origin 0 0 Bound 3937008 3937008 11811023 19685039
</desc>
<g fill-rule="evenodd" fill="rgb(0, 128, 0)" stroke="black" stroke-width="1" transform="translate(0, 19685039) scale(1, -1) translate(-3937008, -3937008)">
<path id="N" d="M 14403388.00 23421077.00 L 14378342.00 23383593.00 L 14359771.00 23348848.00 L 14312515.00 23234763.00 L 14301079.00 23197062.00 L 14276988.00 23075949.00 L 14273126.00 23036742.00 L 14273126.00 22913256.00 L 14276988.00 22874049.00 L 14301079.00 22752935.00 L 14312515.00 22715235.00 L 14359771.00 22601149.00 L 14378342.00 22566404.00 L 14446947.00 22463729.00 L 14471940.00 22433275.00 L 14559258.00 22345957.00 L 14589712.00 22320964.00 L 14692387.00 22252359.00 L 14727132.00 22233788.00 L 14841218.00 22186532.00 L 14878918.00 22175096.00 L 15000032.00 22151004.00 L 15035724.00 22147489.00 L 15162725.00 22147143.00 L 15201932.00 22151005.00 L 15323045.00 22175096.00 L 15360749.00 22186534.00 L 15474831.00 22233788.00 L 15509576.00 22252359.00 L 15547063.00 22277407.00 L 15547062.00 16854511.00 L 14549336.00 16854511.00 L 14510129.00 16850648.00 L 14472429.00 16839212.00 L 14429019.00 16821230.00 L 14394275.00 16802657.00 L 14363824.00 16777667.00 L 14330599.00 16744442.00 L 14305606.00 16713987.00 L 14287035.00 16679243.00 L 14269054.00 16635833.00 L 14257618.00 16598133.00 L 14253756.00 16558926.00 L 14253756.00 16511939.00 L 14257618.00 16472732.00 L 14269054.00 16435032.00 L 14287035.00 16391622.00 L 14305606.00 16356878.00 L 14330599.00 16326423.00 L 14363824.00 16293198.00 L 14394278.00 16268206.00 L 14429023.00 16249634.00 L 14472433.00 16231653.00 L 14510133.00 16220217.00 L 14549340.00 16216355.00 L 15547062.00 16216355.00 L 15547061.00 5281649.00 L 15509577.00 5306695.00 L 15474832.00 5325266.00 L 15360747.00 5372522.00 L 15323046.00 5383958.00 L 15201933.00 5408049.00 L 15162726.00 5411911.00 L 15039240.00 5411911.00 L 15000000.00 5408043.44 L 14878919.00 5383958.00 L 14841219.00 5372522.00 L 14727133.00 5325266.00 L 14692388.00 5306695.00 L 14589713.00 5238090.00 L 14559259.00 5213097.00 L 14471941.00 5125779.00 L 14446948.00 5095325.00 L 14383254.10 5000000.00 L 14359772.00 4957905.00 L 14312516.00 4843819.00 L 14301080.00 4806119.00 L 14276989.00 4685005.00 L 14273127.00 4645798.00 L 14273127.00 4522312.00 L 14276989.00 4483105.00 L 14301080.00 4361992.00 L 14312518.00 4324288.00 L 14359772.00 4210206.00 L 14378343.00 4175461.00 L 14403390.00 4137976.00 L 5281649.00 4137976.00 L 5306695.00 4175460.00 L 5325266.00 4210205.00 L 5372522.00 4324291.00 L 5383958.00 4361991.00 L 5408050.00 4483105.00 L 5411565.00 4518797.00 L 5411911.00 4645798.00 L 5408049.00 4685005.00 L 5383958.00 4806118.00 L 5372522.00 4843818.00 L 5325266.00 4957904.00 L 5306695.00 4992649.00 L 5238090.00 5095324.00 L 5213097.00 5125778.00 L 5125779.00 5213096.00 L 5095325.00 5238089.00 L 5000000.00 5301782.90 L 4957905.00 5325265.00 L 4843820.00 5372521.00 L 4806119.00 5383957.00 L 4685006.00 5408048.00 L 4645799.00 5411910.00 L 4522313.00 5411910.00 L 4483106.00 5408049.00 L 4361992.00 5383957.00 L 4324292.00 5372521.00 L 4210206.00 5325265.00 L 4175461.00 5306694.00 L 4137976.00 5281647.00 L 4137975.00 9627454.00 A 519515.98 519515.98 0 0 0 4213207.00 9858516.00 L 4241776.00 9898004.00 L 4285255.00 9965431.00 L 4336653.00 10066083.00 L 4348766.00 10095263.00 L 4383754.00 10202726.00 L 4391143.00 10233445.00 L 4408856.00 10345064.00 L 4413410.00 10425161.00 L 4413409.00 10834679.00 L 4408856.00 10914777.00 L 4391143.00 11026396.00 L 4383754.00 11057115.00 L 4348766.00 11164578.00 L 4336653.00 11193760.00 L 4285255.00 11294411.00 L 4273247.00 11314851.00 L 4213207.00 11401325.00 A 519476.62 519476.62 0 0 0 4137975.00 11632387.00 L 4137975.00 16714068.00 A 519515.98 519515.98 0 0 0 4213207.00 16945130.00 L 4241776.00 16984618.00 L 4285255.00 17052045.00 L 4336653.00 17152697.00 L 4348766.00 17181877.00 L 4383754.00 17289340.00 L 4391143.00 17320059.00 L 4408856.00 17431678.00 L 4413410.00 17511775.00 L 4413409.00 17921293.00 L 4408856.00 18001391.00 L 4391143.00 18113010.00 L 4383754.00 18143729.00 L 4348766.00 18251192.00 L 4336653.00 18280374.00 L 4285255.00 18381025.00 L 4273247.00 18401465.00 L 4213206.00 18487940.00 A 519584.91 519584.91 0 0 0 4137975.00 18719002.00 L 4137977.00 22277403.00 L 4175460.00 22252358.00 L 4210205.00 22233787.00 L 4324291.00 22186531.00 L 4361991.00 22175095.00 L 4483105.00 22151003.00 L 4518797.00 22147488.00 L 4645798.00 22147142.00 L 4685005.00 22151004.00 L 4806118.00 22175095.00 L 4843822.00 22186533.00 L 4957904.00 22233787.00 L 4992649.00 22252358.00 L 5095324.00 22320963.00 L 5125778.00 22345956.00 L 5213096.00 22433274.00 L 5238089.00 22463728.00 L 5306694.00 22566403.00 L 5325265.00 22601148.00 L 5372521.00 22715234.00 L 5383957.00 22752934.00 L 5408048.00 22874047.00 L 5411910.00 22913254.00 L 5411910.00 23036740.00 L 5408049.00 23075947.00 L 5383957.00 23197061.00 L 5372521.00 23234761.00 L 5325265.00 23348847.00 L 5306694.00 23383592.00 L 5281646.00 23421079.00 L 14403388.00 23421077.00  zM 4450002.37 7799983.06 m -140060.94 0 a 140060.94 140060.94 0 1 1 280121.87 0a 140060.94 140060.94 0 1 1 -280121.87 0M 5550002.37 8799983.06 m -140060.94 0 a 140060.94 140060.94 0 1 1 280121.87 0a 140060.94 140060.94 0 1 1 -280121.87 0M 5600002.37 7799983.06 m -140060.94 0 a 140060.94 140060.94 0 1 1 280121.87 0a 140060.94 140060.94 0 1 1 -280121.87 0M 5500002.37 11249983.06 m -140060.94 0 a 140060.94 140060.94 0 1 1 280121.87 0a 140060.94 140060.94 0 1 1 -280121.87 0M 5100000.00 12340044.00 A 140060.94 140060.94 0 1 1 5127321.00 12337353.00 L 5100000.00 12340044.00  zM 7100002.37 12749983.06 m -140060.94 0 a 140060.94 140060.94 0 1 1 280121.87 0a 140060.94 140060.94 0 1 1 -280121.87 0M 6600002.37 13949983.06 m -140060.94 0 a 140060.94 140060.94 0 1 1 280121.87 0a 140060.94 140060.94 0 1 1 -280121.87 0M 8900002.37 13049983.06 m -140060.94 0 a 140060.94 140060.94 0 1 1 280121.87 0a 140060.94 140060.94 0 1 1 -280121.87 0M 7961614.37 15358109.06 m -140060.94 0 a 140060.94 140060.94 0 1 1 280121.87 0a 140060.94 140060.94 0 1 1 -280121.87 0M 8360482.37 15597071.06 m -140060.94 0 a 140060.94 140060.94 0 1 1 280121.87 0a 140060.94 140060.94 0 1 1 -280121.87 0M 10300002.37 5499983.06 m -140060.94 0 a 140060.94 140060.94 0 1 1 280121.87 0a 140060.94 140060.94 0 1 1 -280121.87 0M 10500002.37 5699983.06 m -140060.94 0 a 140060.94 140060.94 0 1 1 280121.87 0a 140060.94 140060.94 0 1 1 -280121.87 0M 14050002.37 6723212.06 m -140060.94 0 a 140060.94 140060.94 0 1 1 280121.87 0a 140060.94 140060.94 0 1 1 -280121.87 0M 11350002.37 10199983.06 m -140060.94 0 a 140060.94 140060.94 0 1 1 280121.87 0a 140060.94 140060.94 0 1 1 -280121.87 0M 14433558.00 9327804.00 L 14425000.00 9311794.28 L 14416442.00 9327804.00 A 140026.16 140026.16 0 1 1 14416442.00 9172196.00 L 14425000.00 9188205.72 L 14433558.00 9172196.00 A 140026.16 140026.16 0 1 1 14433558.00 9327804.00  zM 10300002.37 13049983.06 m -140060.94 0 a 140060.94 140060.94 0 1 1 280121.87 0a 140060.94 140060.94 0 1 1 -280121.87 0M 10186010.37 13883215.06 m -140060.94 0 a 140060.94 140060.94 0 1 1 280121.87 0a 140060.94 140060.94 0 1 1 -280121.87 0M 10573634.37 14517875.06 m -140060.94 0 a 140060.94 140060.94 0 1 1 280121.87 0a 140060.94 140060.94 0 1 1 -280121.87 0M 10550002.37 15399983.06 m -140060.94 0 a 140060.94 140060.94 0 1 1 280121.87 0a 140060.94 140060.94 0 1 1 -280121.87 0M 10897102.37 15061580.06 m -140060.94 0 a 140060.94 140060.94 0 1 1 280121.87 0a 140060.94 140060.94 0 1 1 -280121.87 0M 4500002.37 15619274.06 m -140060.94 0 a 140060.94 140060.94 0 1 1 280121.87 0a 140060.94 140060.94 0 1 1 -280121.87 0M 4526773.37 16199983.06 m -140060.94 0 a 140060.94 140060.94 0 1 1 280121.87 0a 140060.94 140060.94 0 1 1 -280121.87 0M 6199900.37 17250058.06 m -140060.94 0 a 140060.94 140060.94 0 1 1 280121.87 0a 140060.94 140060.94 0 1 1 -280121.87 0M 6686896.37 16549983.06 m -140060.94 0 a 140060.94 140060.94 0 1 1 280121.87 0a 140060.94 140060.94 0 1 1 -280121.87 0M 6250002.37 17766191.06 m -140060.94 0 a 140060.94 140060.94 0 1 1 280121.87 0a 140060.94 140060.94 0 1 1 -280121.87 0M 7150002.37 15999983.06 m -140060.94 0 a 140060.94 140060.94 0 1 1 280121.87 0a 140060.94 140060.94 0 1 1 -280121.87 0M 7091538.37 16287863.06 m -140060.94 0 a 140060.94 140060.94 0 1 1 280121.87 0a 140060.94 140060.94 0 1 1 -280121.87 0M 7910742.37 16585809.06 m -140060.94 0 a 140060.94 140060.94 0 1 1 280121.87 0a 140060.94 140060.94 0 1 1 -280121.87 0M 6950002.37 17299983.06 m -140060.94 0 a 140060.94 140060.94 0 1 1 280121.87 0a 140060.94 140060.94 0 1 1 -280121.87 0M 7600002.37 17678723.06 m -140060.94 0 a 140060.94 140060.94 0 1 1 280121.87 0a 140060.94 140060.94 0 1 1 -280121.87 0M 7950002.37 16199983.06 m -140060.94 0 a 140060.94 140060.94 0 1 1 280121.87 0a 140060.94 140060.94 0 1 1 -280121.87 0M 8360482.37 15899983.06 m -140060.94 0 a 140060.94 140060.94 0 1 1 280121.87 0a 140060.94 140060.94 0 1 1 -280121.87 0M 9950000.00 17649689.00 A 140060.94 140060.94 0 1 1 9977321.00 17646998.00 L 9950000.00 17649689.00  zM 11000002.37 15649983.06 m -140060.94 0 a 140060.94 140060.94 0 1 1 280121.87 0a 140060.94 140060.94 0 1 1 -280121.87 0M 10750002.37 15949983.06 m -140060.94 0 a 140060.94 140060.94 0 1 1 280121.87 0a 140060.94 140060.94 0 1 1 -280121.87 0M 11048427.37 16401558.06 m -140060.94 0 a 140060.94 140060.94 0 1 1 280121.87 0a 140060.94 140060.94 0 1 1 -280121.87 0M 11411419.37 16764550.06 m -140060.94 0 a 140060.94 140060.94 0 1 1 280121.87 0a 140060.94 140060.94 0 1 1 -280121.87 0M 12600002.37 16499983.06 m -140060.94 0 a 140060.94 140060.94 0 1 1 280121.87 0a 140060.94 140060.94 0 1 1 -280121.87 0M 12650002.37 17378723.06 m -140060.94 0 a 140060.94 140060.94 0 1 1 280121.87 0a 140060.94 140060.94 0 1 1 -280121.87 0M 13050002.37 17378723.06 m -140060.94 0 a 140060.94 140060.94 0 1 1 280121.87 0a 140060.94 140060.94 0 1 1 -280121.87 0M 4688439.37 18938369.06 m -140060.94 0 a 140060.94 140060.94 0 1 1 280121.87 0a 140060.94 140060.94 0 1 1 -280121.87 0M 6050002.37 18849983.06 m -140060.94 0 a 140060.94 140060.94 0 1 1 280121.87 0a 140060.94 140060.94 0 1 1 -280121.87 0M 6198464.37 18051222.06 m -140060.94 0 a 140060.94 140060.94 0 1 1 280121.87 0a 140060.94 140060.94 0 1 1 -280121.87 0M 6700002.37 17899983.06 m -140060.94 0 a 140060.94 140060.94 0 1 1 280121.87 0a 140060.94 140060.94 0 1 1 -280121.87 0M 6601577.37 18749983.06 m -140060.94 0 a 140060.94 140060.94 0 1 1 280121.87 0a 140060.94 140060.94 0 1 1 -280121.87 0M 4500002.37 19399983.06 m -140060.94 0 a 140060.94 140060.94 0 1 1 280121.87 0a 140060.94 140060.94 0 1 1 -280121.87 0M 4350002.37 20177149.06 m -140060.94 0 a 140060.94 140060.94 0 1 1 280121.87 0a 140060.94 140060.94 0 1 1 -280121.87 0M 4675428.37 20272421.06 m -140060.94 0 a 140060.94 140060.94 0 1 1 280121.87 0a 140060.94 140060.94 0 1 1 -280121.87 0M 4750002.37 20749983.06 m -140060.94 0 a 140060.94 140060.94 0 1 1 280121.87 0a 140060.94 140060.94 0 1 1 -280121.87 0M 6565998.37 20429853.06 m -140060.94 0 a 140060.94 140060.94 0 1 1 280121.87 0a 140060.94 140060.94 0 1 1 -280121.87 0M 7350002.37 18235589.06 m -140060.94 0 a 140060.94 140060.94 0 1 1 280121.87 0a 140060.94 140060.94 0 1 1 -280121.87 0M 7650002.37 18949983.06 m -140060.94 0 a 140060.94 140060.94 0 1 1 280121.87 0a 140060.94 140060.94 0 1 1 -280121.87 0M 6800974.00 19349026.00 L 6790945.00 19336805.32 L 6780916.00 19349026.00 A 140073.58 140073.58 0 1 1 6780916.00 19150974.00 L 6790945.00 19163194.68 L 6800974.00 19150974.00 A 140073.58 140073.58 0 1 1 6800974.00 19349026.00  zM 7200002.37 19349983.06 m -140060.94 0 a 140060.94 140060.94 0 1 1 280121.87 0a 140060.94 140060.94 0 1 1 -280121.87 0M 7350002.37 19799983.06 m -140060.94 0 a 140060.94 140060.94 0 1 1 280121.87 0a 140060.94 140060.94 0 1 1 -280121.87 0M 8371262.37 19799983.06 m -140060.94 0 a 140060.94 140060.94 0 1 1 280121.87 0a 140060.94 140060.94 0 1 1 -280121.87 0M 8350002.37 20199983.06 m -140060.94 0 a 140060.94 140060.94 0 1 1 280121.87 0a 140060.94 140060.94 0 1 1 -280121.87 0M 8550002.37 20699983.06 m -140060.94 0 a 140060.94 140060.94 0 1 1 280121.87 0a 140060.94 140060.94 0 1 1 -280121.87 0M 7350002.37 20899983.06 m -140060.94 0 a 140060.94 140060.94 0 1 1 280121.87 0a 140060.94 140060.94 0 1 1 -280121.87 0M 7850002.37 21299983.06 m -140060.94 0 a 140060.94 140060.94 0 1 1 280121.87 0a 140060.94 140060.94 0 1 1 -280121.87 0M 10230315.41 20764795.12 L 10216007.00 20756027.00 A 217790.26 217790.26 0 0 0 10018265.00 20756027.00 L 10003956.59 20764795.12 L 9930509.34 20691347.64 A 315554.05 315554.05 0 0 1 10303762.66 20691347.64 L 10230315.41 20764795.12  zM 10450000.00 20450980.00 L 9650000.00 20450980.00 L 9630491.00 20447099.00 L 9613952.00 20436049.00 L 8689034.00 19511130.00 L 8677983.00 19494591.00 L 8674102.00 19475082.00 L 8674102.00 18845681.00 L 8677983.00 18826172.00 L 8689034.00 18809633.00 L 9034715.00 18463952.00 L 9051254.00 18452901.00 L 9070763.00 18449020.00 L 9728884.00 18449020.00 L 9863952.00 18313952.00 L 9880491.00 18302901.00 L 9900000.00 18299020.00 L 10128883.70 18299020.00 L 10149020.00 18278883.30 L 10149020.00 17350000.00 A 50982.36 50982.36 0 0 1 10200000.00 17299020.00 L 11000000.00 17299020.00 A 50982.36 50982.36 0 0 1 11050980.00 17350000.00 L 11050980.00 18199020.00 L 12200000.00 18199020.00 L 12219509.00 18202901.00 L 12236048.00 18213952.00 L 12586048.00 18563952.00 L 12597099.00 18580491.00 L 12600980.00 18600000.00 L 12600980.00 19750000.00 L 12597099.00 19769509.00 L 12586048.00 19786049.00 L 12336048.00 20036048.00 L 12319509.00 20047099.00 L 12300000.00 20050980.00 L 11150000.00 20050980.00 L 11130491.00 20047099.00 L 11113952.00 20036048.00 L 10975490.00 19897586.00 L 10973550.00 19909755.00 L 10968024.00 19918024.00 L 10498502.40 20387545.60 L 10500980.00 20400000.00 A 50982.36 50982.36 0 0 1 10450000.00 20450980.00  zM 11732679.37 20457267.06 m -140060.94 0 a 140060.94 140060.94 0 1 1 280121.87 0a 140060.94 140060.94 0 1 1 -280121.87 0M 10375859.36 21451657.66 L 10302411.88 21378210.41 L 10311180.00 21363902.00 A 217790.26 217790.26 0 0 0 10334917.00 21265031.00 L 10334917.00 20950071.00 A 217765.36 217765.36 0 0 0 10311180.00 20851200.00 L 10302411.88 20836891.59 L 10375859.36 20763444.34 A 315554.05 315554.05 0 0 1 10436230.00 20950071.00 L 10436230.00 21265031.00 A 319108.89 319108.89 0 0 1 10375859.36 21451657.66  zM 9858412.64 21451657.66 A 315554.05 315554.05 0 0 1 9798042.00 21265031.00 L 9798042.00 20950071.00 A 319108.89 319108.89 0 0 1 9858412.64 20763444.34 L 9931860.12 20836891.59 L 9923092.00 20851200.00 A 217790.26 217790.26 0 0 0 9899355.00 20950071.00 L 9899355.00 21265031.00 A 217765.36 217765.36 0 0 0 9923092.00 21363902.00 L 9931860.12 21378210.41 L 9858412.64 21451657.66  zM 9930509.34 21523754.36 L 10003956.59 21450306.88 L 10018265.00 21459075.00 A 217790.26 217790.26 0 0 0 10216007.00 21459075.00 L 10230315.41 21450306.88 L 10303762.66 21523754.36 A 315554.05 315554.05 0 0 1 9930509.34 21523754.36  zM 10226959.41 22378504.12 L 10212651.00 22369736.00 A 217790.26 217790.26 0 0 0 10014909.00 22369736.00 L 10000000.00 22377903.53 L 9927153.34 22305056.64 A 315554.05 315554.05 0 0 1 10300406.66 22305056.64 L 10226959.41 22378504.12  zM 10372503.36 23222846.66 L 10299055.88 23149399.41 L 10307824.00 23135091.00 A 217790.26 217790.26 0 0 0 10331561.00 23036220.00 L 10331561.00 22563780.00 A 217765.36 217765.36 0 0 0 10307824.00 22464909.00 L 10299055.88 22450600.59 L 10372503.36 22377153.34 A 315554.05 315554.05 0 0 1 10432874.00 22563780.00 L 10432874.00 23036220.00 A 319108.89 319108.89 0 0 1 10372503.36 23222846.66  zM 9855056.64 23222846.66 A 315554.05 315554.05 0 0 1 9794686.00 23036220.00 L 9794686.00 22563780.00 A 319108.89 319108.89 0 0 1 9855056.64 22377153.34 L 9928504.12 22450600.59 L 9919736.00 22464909.00 A 217790.26 217790.26 0 0 0 9895999.00 22563780.00 L 9895999.00 23036220.00 A 217765.36 217765.36 0 0 0 9919736.00 23135091.00 L 9928504.12 23149399.41 L 9855056.64 23222846.66  zM 9927153.34 23294943.36 L 10000600.59 23221495.88 L 10014909.00 23230264.00 A 217790.26 217790.26 0 0 0 10212651.00 23230264.00 L 10226959.41 23221495.88 L 10300406.66 23294943.36 A 315554.05 315554.05 0 0 1 9927153.34 23294943.36  zM 12105065.37 20616072.06 m -140060.94 0 a 140060.94 140060.94 0 1 1 280121.87 0a 140060.94 140060.94 0 1 1 -280121.87 0M 13255056.64 21498436.66 A 315554.05 315554.05 0 0 1 13194686.00 21311810.00 L 13194686.00 20996850.00 A 319108.89 319108.89 0 0 1 13255056.64 20810223.34 L 13328504.12 20883670.59 L 13319736.00 20897979.00 A 217790.26 217790.26 0 0 0 13295999.00 20996850.00 L 13295999.00 21311810.00 A 217765.36 217765.36 0 0 0 13319736.00 21410681.00 L 13328504.12 21424989.41 L 13255056.64 21498436.66  zM 13626959.41 20811574.12 L 13612651.00 20802806.00 A 217790.26 217790.26 0 0 0 13414909.00 20802806.00 L 13400600.59 20811574.12 L 13327153.34 20738126.64 A 315554.05 315554.05 0 0 1 13700406.66 20738126.64 L 13626959.41 20811574.12  zM 14750002.37 19599983.06 m -140060.94 0 a 140060.94 140060.94 0 1 1 280121.87 0a 140060.94 140060.94 0 1 1 -280121.87 0M 13772503.36 21498436.66 L 13699055.88 21424989.41 L 13707824.00 21410681.00 A 217790.26 217790.26 0 0 0 13731561.00 21311810.00 L 13731561.00 20996850.00 A 217765.36 217765.36 0 0 0 13707824.00 20897979.00 L 13699055.88 20883670.59 L 13772503.36 20810223.34 A 315554.05 315554.05 0 0 1 13832874.00 20996850.00 L 13832874.00 21311810.00 A 319108.89 319108.89 0 0 1 13772503.36 21498436.66  zM 13327153.34 21570533.36 L 13400600.59 21497085.88 L 13414909.00 21505854.00 A 217790.26 217790.26 0 0 0 13612651.00 21505854.00 L 13626959.41 21497085.88 L 13700406.66 21570533.36 A 315554.05 315554.05 0 0 1 13327153.34 21570533.36  zM 13626959.41 22378504.12 L 13612651.00 22369736.00 A 217790.26 217790.26 0 0 0 13414909.00 22369736.00 L 13400600.59 22378504.12 L 13327153.34 22305056.64 A 315554.05 315554.05 0 0 1 13700406.66 22305056.64 L 13626959.41 22378504.12  zM 13255056.64 23222846.66 A 315554.05 315554.05 0 0 1 13194686.00 23036220.00 L 13194686.00 22563780.00 A 319108.89 319108.89 0 0 1 13255056.64 22377153.34 L 13328504.12 22450600.59 L 13319736.00 22464909.00 A 217790.26 217790.26 0 0 0 13295999.00 22563780.00 L 13295999.00 23036220.00 A 217765.36 217765.36 0 0 0 13319736.00 23135091.00 L 13328504.12 23149399.41 L 13255056.64 23222846.66  zM 13772503.36 23222846.66 L 13699055.88 23149399.41 L 13707824.00 23135091.00 A 217790.26 217790.26 0 0 0 13731561.00 23036220.00 L 13731561.00 22563780.00 A 217765.36 217765.36 0 0 0 13707824.00 22464909.00 L 13699055.88 22450600.59 L 13772503.36 22377153.34 A 315554.05 315554.05 0 0 1 13832874.00 22563780.00 L 13832874.00 23036220.00 A 319108.89 319108.89 0 0 1 13772503.36 23222846.66  zM 13327153.34 23294943.36 L 13400600.59 23221495.88 L 13414909.00 23230264.00 A 217790.26 217790.26 0 0 0 13612651.00 23230264.00 L 13626959.41 23221495.88 L 13700406.66 23294943.36 A 315554.05 315554.05 0 0 1 13327153.34 23294943.36  z"/>
<path id="N" d="M 10924510.00 19889442.00 L 10924510.00 18810558.00 L 10689442.00 18575490.00 L 10643103.00 18575490.00 L 10636048.00 18586048.00 A 50982.36 50982.36 0 0 1 10549020.00 18550000.00 L 10549020.00 17400980.00 L 10250980.00 17400980.00 L 10250980.00 18300000.00 L 10247099.00 18319509.00 L 10236049.00 18336048.00 L 10186048.00 18386048.00 L 10169509.00 18397099.00 L 10150000.00 18400980.00 L 9921116.00 18400980.00 L 9786048.00 18536048.00 L 9769509.00 18547099.00 L 9750000.00 18550980.00 L 9091879.00 18550980.00 L 8776062.00 18866797.00 L 8776062.00 19453966.00 L 9671117.00 20349020.00 L 10450000.00 20349020.00 L 10462454.00 20351498.00 L 10924510.00 19889442.00  z"/>
<path id="N" d="M 12499020.00 19728883.00 L 12499020.00 18621116.00 L 12178884.00 18300980.00 L 11000000.00 18300980.00 A 50982.36 50982.36 0 0 1 10949020.00 18250000.00 L 10949020.00 17400980.00 L 10650980.00 17400980.00 L 10650980.00 18524510.00 L 10700000.00 18524510.00 L 10709755.00 18526450.00 L 10718024.00 18531976.00 L 10968024.00 18781976.00 L 10973550.00 18790245.00 L 10975490.00 18800000.00 L 10975490.00 19806243.00 L 10980491.00 19802901.00 A 50974.39 50974.39 0 0 1 11036048.00 19813952.00 L 11171116.00 19949020.00 L 12278884.00 19949020.00 L 12499020.00 19728883.00  z"/>
</g>
</svg>
