<svg width="29.99999842mm" height="49.99999906mm" viewBox="0 0 11811023 19685039"  version="1.1" xmlns="http://www.w3.org/2000/svg" xmlns:xlink="http://www.w3.org/1999/xlink">
<desc>
Origin 0 0 Bound 3937008 3937008 11811023 19685039
</desc>
<g fill-rule="evenodd" fill="rgb(255, 255, 0)" stroke="black" stroke-width="1" transform="translate(0, 19685039) scale(1, -1) translate(-3937008, -3937008)">
<path id="N" d="M 8449996.25 10787402.00 L 11065355.00 10787402.00 L 11065355.00 9212599.00 L 6734646.00 9212599.00 L 6734646.00 10787402.00 L 8262603.75 10787402.00 L 8255947.00 10820867.00 A 100353.26 100353.26 0 1 0 8449996.25 10787402.00  zM 8107424.00 10555034.00 L 8107424.00 10050458.00 L 8174240.00 10050458.00 L 8174240.00 10274714.00 L 8260256.00 10274714.00 L 8279456.00 10273178.00 L 8300192.00 10267802.00 L 8324768.00 10253978.00 L 8341664.00 10237850.00 L 8376224.00 10191770.00 L 8467616.00 10050458.00 L 8551328.00 10050458.00 L 8453792.00 10201754.00 L 8419232.00 10243994.00 L 8403104.00 10259354.00 L 8368544.00 10280090.00 L 8405408.00 10287770.00 L 8442272.00 10303130.00 L 8465312.00 10317722.00 L 8481440.00 10333082.00 L 8496032.00 10356122.00 L 8502176.00 10370714.00 L 8509088.00 10397594.00 L 8510624.00 10414490.00 L 8507552.00 10445978.00 L 8496032.00 10479770.00 L 8480672.00 10505114.00 L 8462240.00 10523546.00 L 8439200.00 10538906.00 L 8426144.00 10543514.00 L 8385440.00 10551962.00 L 8353952.00 10554266.00 L 8107424.00 10555034.00  zM 8671136.00 9818215.00 L 8637344.00 9808999.00 L 8608928.00 9792871.00 L 8588192.00 9775207.00 L 8570528.00 9754471.00 L 8560544.00 9775207.00 L 8538272.00 9799015.00 L 8512928.00 9812071.00 L 8482208.00 9818215.00 L 8454560.00 9818215.00 L 8430752.00 9813607.00 L 8403104.00 9802855.00 L 8382368.00 9788263.00 L 8357024.00 9760615.00 L 8356256.00 9810535.00 L 8300960.00 9810535.00 L 8300960.00 9444967.00 L 8363168.00 9444967.00 L 8363168.00 9634663.00 L 8364704.00 9667687.00 L 8371616.00 9706087.00 L 8377760.00 9719911.00 L 8387744.00 9735271.00 L 8405408.00 9751399.00 L 8430752.00 9762151.00 L 8453792.00 9765223.00 L 8476064.00 9762151.00 L 8496800.00 9751399.00 L 8508320.00 9736039.00 L 8512160.00 9726055.00 L 8517536.00 9696871.00 L 8518304.00 9444967.00 L 8580512.00 9444967.00 L 8581280.00 9676903.00 L 8588192.00 9707623.00 L 8602016.00 9734503.00 L 8615840.00 9747559.00 L 8627360.00 9754471.00 L 8648096.00 9762151.00 L 8670368.00 9765223.00 L 8697248.00 9760615.00 A 57684.27 57684.27 0 0 0 8731808.00 9721447.00 L 8734880.00 9695335.00 L 8735648.00 9444967.00 L 8797856.00 9444967.00 L 8797856.00 9706855.00 L 8793248.00 9736807.00 L 8783264.00 9765223.00 L 8772512.00 9782887.00 L 8755616.00 9798247.00 L 8742560.00 9805927.00 L 8714912.00 9815143.00 L 8671136.00 9818215.00  zM 8950688.00 9810535.00 L 8888480.00 9810535.00 L 8888480.00 9444967.00 L 8950688.00 9444967.00 L 8950688.00 9810535.00  zM 8950688.00 9949543.00 L 8888480.00 9949543.00 L 8888480.00 9878887.00 L 8950688.00 9878887.00 L 8950688.00 9949543.00  zM 8981408.00 10555034.00 L 8616608.00 10555034.00 L 8616608.00 10050458.00 L 8992928.00 10050458.00 L 8992928.00 10109594.00 L 8683424.00 10109594.00 L 8683424.00 10281626.00 L 8962208.00 10281626.00 L 8962208.00 10340762.00 L 8683424.00 10340762.00 L 8683424.00 10495898.00 L 8981408.00 10495898.00 L 8981408.00 10555034.00  zM 9202592.00 9818215.00 A 125825.70 125825.70 0 0 1 9138080.00 9794407.00 L 9122720.00 9782887.00 L 9100448.00 9758311.00 L 9100448.00 9810535.00 L 9044384.00 9810535.00 L 9044384.00 9444967.00 L 9106592.00 9444967.00 L 9106592.00 9656935.00 L 9111200.00 9689191.00 L 9121184.00 9718375.00 L 9130400.00 9734503.00 L 9145760.00 9748327.00 L 9168800.00 9759079.00 L 9196448.00 9765223.00 L 9212576.00 9764455.00 A 68636.63 68636.63 0 0 0 9266336.00 9733735.00 L 9274016.00 9715303.00 L 9278624.00 9688423.00 L 9279392.00 9444967.00 L 9341600.00 9444967.00 L 9341600.00 9684583.00 L 9340064.00 9716071.00 L 9332384.00 9748327.00 L 9318560.00 9775207.00 L 9306272.00 9788263.00 L 9278624.00 9805927.00 L 9245600.00 9815911.00 L 9202592.00 9818215.00  zM 9499040.00 9949543.00 L 9436832.00 9949543.00 L 9436832.00 9878887.00 L 9499040.00 9878887.00 L 9499040.00 9949543.00  zM 9428384.00 10555034.00 L 9088160.00 10555034.00 L 9088160.00 10050458.00 L 9154976.00 10050458.00 L 9154976.00 10279322.00 L 9391520.00 10279322.00 L 9391520.00 10338458.00 L 9154976.00 10338458.00 L 9154976.00 10495898.00 L 9428384.00 10495898.00 L 9428384.00 10555034.00  zM 9499040.00 9810535.00 L 9436832.00 9810535.00 L 9436832.00 9444967.00 L 9499040.00 9444967.00 L 9499040.00 9810535.00  zM 9578912.00 10555034.00 L 9512096.00 10555034.00 L 9512096.00 10050458.00 L 9826976.00 10050458.00 L 9826976.00 10109594.00 L 9578912.00 10109594.00 L 9578912.00 10555034.00  zM 7824032.00 10555034.00 L 7483808.00 10555034.00 L 7483808.00 10050458.00 L 7550624.00 10050458.00 L 7550624.00 10279322.00 L 7787168.00 10279322.00 L 7787168.00 10338458.00 L 7550624.00 10338458.00 L 7550624.00 10495898.00 L 7824032.00 10495898.00 L 7824032.00 10555034.00  zM 7989152.00 10555034.00 L 7922336.00 10555034.00 L 7922336.00 10050458.00 L 7989152.00 10050458.00 L 7989152.00 10555034.00  zM 10316192.00 10555034.00 L 10238624.00 10555034.00 L 10129568.00 10388378.00 L 10085792.00 10316954.00 L 10051232.00 10376090.00 L 9934496.00 10555034.00 L 9853856.00 10555034.00 L 10048160.00 10263962.00 L 10048160.00 10050458.00 L 10114976.00 10050458.00 L 10114976.00 10263962.00 L 10316192.00 10555034.00  z"/>
<path id="N" d="M 6496853.00 9590652.00 L 5503151.00 9590652.00 L 5503151.00 9863527.52 L 5492126.00 9858961.00 L 5461993.00 9871442.00 L 5449512.00 9901575.00 L 5449512.00 11358267.00 L 5461993.00 11388400.00 L 5492126.00 11400881.00 L 5503151.00 11396314.48 L 5503151.00 11709352.00 L 6496853.00 11709352.00 L 6496853.00 9590652.00  zM 6189216.98 10072560.99 L 6067680.98 10071984.98 L 6047520.98 10066800.98 L 6031968.98 10059312.98 L 6014112.98 10046064.98 L 5996256.98 10020144.98 L 5988192.98 10000560.98 L 5972064.98 10025328.98 L 5955360.98 10040304.98 L 5937504.98 10048368.98 L 5912160.98 10054128.97 L 5889120.98 10051824.97 L 5867232.98 10043760.97 L 5849376.98 10032816.97 L 5836128.98 10019568.97 L 5822880.98 9998832.97 L 5815392.98 9975792.97 L 5810784.98 9935472.97 L 5810784.99 9786864.97 L 6189216.99 9786864.99 L 6189216.98 9944112.99 L 6186336.98 9975216.99 L 6180576.98 10000560.99 L 6169056.98 10027056.99 L 6154080.98 10044912.99 L 6137376.98 10056432.98 L 6112032.98 10067952.98 L 6084384.98 10072560.98 L 6189216.98 10072560.99  zM 6000864.96 10487856.98 L 5980128.96 10486704.98 L 5943840.96 10480944.98 L 5911584.96 10470576.97 L 5883360.96 10456176.97 L 5857440.96 10435440.97 L 5836704.96 10411824.97 L 5821152.97 10385328.97 L 5810784.97 10353072.97 L 5805600.97 10326000.97 L 5805024.97 10292592.97 L 5809632.97 10264944.97 L 5817120.97 10241328.97 L 5830944.97 10211376.97 L 5852832.97 10181424.97 L 5879328.98 10159536.97 L 5915616.98 10142256.97 L 5951328.98 10132464.98 L 6001440.98 10126128.98 L 6005472.98 10126128.98 L 6023904.98 10127280.98 L 6064224.98 10134768.98 L 6095328.98 10145712.98 L 6129888.97 10166448.98 L 6141408.97 10177392.98 L 6165600.97 10204464.99 L 6178272.97 10227504.99 L 6189216.97 10260336.99 A 174211.05 174211.05 0 0 1 6188064.97 10357680.99 L 6175968.97 10391088.99 L 6162720.96 10413552.99 L 6140256.96 10438320.98 L 6114912.96 10457328.98 L 6086688.96 10472304.98 L 6051552.96 10482096.98 L 6006624.96 10487856.98 L 6000864.96 10487856.98  zM 6000864.94 10898544.98 L 5980128.94 10897392.98 L 5943840.94 10891632.98 L 5911584.94 10881264.97 L 5883360.94 10866864.97 L 5857440.95 10846128.97 L 5836704.95 10822512.97 L 5821152.95 10796016.97 L 5810784.95 10763760.97 L 5805024.95 10730928.97 L 5804448.96 10536816.97 L 5805024.95 10703280.97 L 5809632.95 10675632.97 L 5817120.95 10652016.97 L 5830944.95 10622064.97 L 5852832.96 10592112.97 L 5879328.96 10570224.97 L 5915616.96 10552944.97 L 5951328.96 10543152.98 L 6001440.96 10536816.98 L 6005472.96 10536816.98 L 6023904.96 10537968.98 L 6064224.96 10545456.98 L 6095328.96 10556400.98 L 6129888.96 10577136.98 L 6141408.96 10588080.98 L 6165600.96 10615152.99 L 6178272.95 10638192.99 L 6189216.95 10671024.99 A 174211.05 174211.05 0 0 1 6188064.95 10768368.99 L 6175968.95 10801776.99 L 6162720.95 10824240.99 L 6140256.94 10849008.98 L 6114912.94 10868016.98 L 6086688.94 10882992.98 L 6051552.94 10892784.98 L 6006624.94 10898544.98 L 6000864.94 10898544.98  zM 6189216.93 11109360.99 L 5855136.93 11109360.97 L 5855136.93 11233776.97 L 5810784.93 11233776.97 L 5810784.94 10934832.97 L 6189216.94 10934832.99 L 6189216.93 11109360.99  zM 6195552.92 11389872.99 L 6194400.92 11404848.99 L 6188640.92 11429616.99 L 6177120.92 11453808.99 L 6164448.92 11468208.99 L 6143712.92 11483184.98 L 6114336.92 11498160.98 L 6076320.92 11507376.98 L 6013536.92 11513136.98 L 6002592.92 11513136.98 L 5957088.92 11511408.98 L 5915040.92 11505072.97 L 5880480.92 11492976.97 L 5856864.92 11480880.97 L 5835552.92 11462448.97 L 5824032.92 11446896.97 L 5814240.92 11425008.97 L 5809632.92 11400816.97 L 5810208.92 11374896.97 L 5815968.92 11349552.97 L 5830368.92 11321904.97 L 5850528.93 11302896.97 L 5871264.93 11290224.97 L 5902944.93 11277552.97 L 5928864.93 11272368.98 L 5985888.93 11267184.98 L 6040032.93 11268336.98 L 6085536.93 11275248.98 L 6119520.93 11285040.98 L 6147744.93 11297712.99 L 6163872.92 11309808.99 L 6179424.92 11330544.99 L 6190944.92 11358768.99 L 6195552.92 11384688.99 L 6195552.92 11389872.99  z"/>
<path id="N" d="M 6743700.00 17070078.00 L 5956298.00 17070078.00 L 5956298.00 18329921.00 L 6743700.00 18329921.00 L 6743700.00 17070078.00  zM 6539214.98 17530942.99 L 6436686.98 17465278.99 L 6415950.98 17450302.99 L 6385998.98 17423806.98 L 6367566.99 17395006.98 L 6363534.99 17412862.98 L 6352590.98 17442814.98 L 6337038.98 17469310.98 L 6321486.98 17482558.98 L 6299022.98 17494078.98 L 6268494.98 17500414.98 A 110308.36 110308.36 0 0 1 6198222.98 17477950.98 L 6184398.98 17464126.98 L 6171150.98 17442238.98 L 6163086.99 17406526.97 L 6160782.99 17373694.97 L 6160782.99 17198014.97 L 6539214.99 17198014.99 L 6539214.99 17248126.99 L 6371022.99 17248126.98 L 6371598.99 17323006.98 L 6376206.99 17342590.98 L 6383694.99 17356414.98 L 6398670.99 17373694.99 L 6433230.99 17399614.99 L 6539214.98 17468158.99 L 6539214.98 17530942.99  zM 6437838.97 17862718.99 L 6411342.97 17860414.99 L 6387726.97 17851774.98 L 6371022.97 17840254.98 L 6356622.97 17824702.98 L 6343374.97 17803390.98 L 6334158.97 17782078.98 L 6308814.97 17684734.98 L 6295566.97 17650174.98 L 6289230.98 17639230.98 L 6273102.98 17628286.98 L 6259278.98 17624830.98 A 57974.69 57974.69 0 0 0 6205710.97 17663998.98 L 6201102.97 17685886.98 L 6198798.97 17711230.98 L 6201678.97 17740030.98 L 6208014.97 17760766.98 L 6217230.97 17776894.98 L 6233358.97 17790718.98 L 6250638.97 17798782.98 L 6270798.97 17803390.98 L 6267342.97 17851198.98 L 6244302.97 17847742.98 L 6218382.97 17837950.98 L 6198798.97 17825278.98 L 6183822.97 17809150.98 L 6170574.97 17787838.98 L 6160206.97 17757886.97 L 6154446.97 17715838.97 L 6154446.98 17562046.97 L 6155022.97 17695102.97 L 6160782.97 17659966.97 L 6172878.98 17628862.98 L 6185550.98 17611006.98 L 6201678.98 17595454.98 L 6214926.98 17587390.98 L 6233358.98 17580478.98 L 6258126.98 17576446.98 L 6285774.98 17580478.98 L 6302478.98 17587390.98 L 6320910.98 17601790.98 L 6341070.98 17628862.98 L 6353742.97 17662270.98 L 6380238.97 17759614.98 L 6391182.97 17785534.98 L 6401550.97 17799358.99 L 6411342.97 17807422.99 A 52213.03 52213.03 0 0 0 6474702.97 17798782.99 A 95312.70 95312.70 0 0 0 6500622.97 17730814.99 L 6499470.97 17697982.99 L 6491982.97 17666878.99 L 6481038.97 17645566.99 L 6463758.98 17626558.99 L 6445902.98 17616766.99 L 6413646.98 17609278.99 L 6417678.98 17562046.99 L 6444174.98 17565502.99 L 6478158.98 17577598.99 L 6496590.98 17590270.99 L 6513294.98 17608126.99 L 6528270.98 17631166.99 L 6535758.97 17650750.99 L 6542094.97 17679550.99 L 6545550.97 17714110.99 L 6543246.97 17750974.99 L 6534606.97 17786686.99 L 6518478.97 17817214.99 L 6498894.97 17838526.99 L 6479886.97 17851198.99 L 6459726.97 17858686.99 L 6437838.97 17862718.99  zM 6539214.96 18077566.99 L 6205134.96 18077566.98 L 6205134.95 18201982.98 L 6160782.95 18201982.97 L 6160782.96 17903038.97 L 6539214.96 17903038.99 L 6539214.96 18077566.99  z"/>
<path id="N" d="M 13469329.00 19619547.00 L 13987132.00 19101744.00 L 13999614.00 19071611.00 L 13987132.00 19041478.00 L 13947412.00 19001758.00 L 15557086.00 19001758.00 A 54118.70 54118.70 0 1 0 15557086.00 18893518.00 L 13918293.00 18893518.00 L 13918293.00 14964750.00 L 15557086.00 14964750.00 A 54118.70 54118.70 0 1 0 15557086.00 14856510.00 L 13864173.00 14856510.00 L 13825904.00 14872361.00 L 13810053.00 14910630.00 L 13810053.00 18864399.00 L 13608523.00 18662869.00 L 13578390.00 18650388.00 L 13548257.00 18662869.00 L 13141618.68 19069507.32 L 13139382.00 19058263.00 A 100354.75 100354.75 0 1 0 13008265.00 19189380.00 L 13025432.71 19192794.95 L 13017973.00 19210805.00 L 13030454.00 19240938.00 L 13409063.00 19619547.00 L 13439196.00 19632029.00 L 13469329.00 19619547.00  zM 13439196.00 19529148.00 L 13120853.00 19210805.00 L 13578390.00 18753268.00 L 13896733.00 19071611.00 L 13439196.00 19529148.00  z"/>
<path id="N" d="M 6059616.96 10427376.98 L 6084960.96 10417584.98 L 6109728.96 10402608.98 A 121462.11 121462.11 0 0 0 6147744.97 10339248.99 L 6152352.97 10315632.99 L 6151200.97 10286832.99 L 6146592.97 10268976.98 L 6133344.97 10239600.98 L 6115488.97 10215984.98 L 6097632.97 10202160.98 L 6071136.97 10190064.98 L 6045216.97 10182576.98 L 6017568.97 10178544.98 L 5976096.97 10179696.98 L 5939808.97 10186608.98 L 5913312.97 10196976.97 L 5888544.97 10212528.97 L 5872416.97 10230960.97 L 5863200.97 10246512.97 L 5852256.97 10275888.97 L 5848800.97 10293744.97 L 5848224.97 10320816.97 L 5853408.97 10345008.97 L 5866080.97 10373232.97 L 5882784.96 10393968.97 L 5908128.96 10413552.97 L 5933472.96 10425072.98 L 5961120.96 10431984.98 L 5989344.96 10435440.98 L 6026784.96 10434288.98 L 6059616.96 10427376.98  z"/>
<path id="N" d="M 6059616.95 10838064.98 L 6084960.95 10828272.98 L 6109728.95 10813296.98 A 121462.11 121462.11 0 0 0 6147744.95 10749936.99 L 6152352.95 10726320.99 L 6151200.95 10697520.99 L 6146592.95 10679664.98 L 6133344.95 10650288.98 L 6115488.95 10626672.98 L 6097632.96 10612848.98 L 6071136.96 10600752.98 L 6045216.96 10593264.98 L 6017568.96 10589232.98 L 5976096.96 10590384.98 L 5939808.96 10597296.98 L 5913312.96 10607664.97 L 5888544.95 10623216.97 L 5872416.95 10641648.97 L 5863200.95 10657200.97 L 5852256.95 10686576.97 L 5848800.95 10704432.97 L 5848224.95 10731504.97 L 5853408.95 10755696.97 L 5866080.95 10783920.97 L 5882784.95 10804656.97 L 5908128.95 10824240.97 L 5933472.95 10835760.98 L 5961120.95 10842672.98 L 5989344.95 10846128.98 L 6026784.95 10844976.98 L 6059616.95 10838064.98  z"/>
<path id="N" d="M 10918716.00 6975802.00 L 10931197.00 6945669.00 L 10918716.00 6915536.00 L 10909949.64 6911905.00 L 11001575.00 6911905.00 L 11031708.00 6899424.00 L 11044189.00 6869291.00 L 11031708.00 6839158.00 L 11001575.00 6826677.00 L 10712496.00 6826677.00 L 10712496.00 4262299.00 L 11001575.00 4262299.00 L 11031708.00 4249818.00 L 11044189.00 4219685.00 L 11031708.00 4189552.00 L 11001575.00 4177071.00 L 10669882.00 4177071.00 L 10639749.00 4189552.00 L 10627268.00 4219685.00 L 10627268.00 6869291.00 L 10639749.00 6899424.00 L 10669882.00 6911905.00 L 10690050.36 6911905.00 L 10681284.00 6915536.00 L 10668803.00 6945669.00 L 10681284.00 6975802.00 L 10711417.00 6988283.00 L 10888583.00 6988283.00 L 10918716.00 6975802.00  z"/>
<path id="N" d="M 6048672.92 11463600.98 L 6091872.92 11456688.98 L 6123552.92 11445744.98 L 6136800.92 11434800.98 L 6150048.92 11416944.99 L 6156960.92 11395056.99 L 6156960.92 11384112.99 L 6152928.92 11367984.99 L 6147744.92 11358768.99 L 6131616.92 11339760.98 L 6120672.92 11332272.98 L 6094752.92 11323632.98 L 6053280.92 11317296.98 L 6006624.92 11314416.98 L 5956512.92 11316720.98 L 5912160.92 11324208.97 L 5886240.92 11332848.97 L 5870688.92 11341488.97 L 5859168.92 11354160.97 L 5848800.92 11378352.97 A 59844.84 59844.84 0 0 0 5863200.92 11428464.97 L 5877600.92 11442288.97 L 5892576.92 11450928.97 L 5931168.92 11460144.98 L 5993952.92 11465328.98 L 6048672.92 11463600.98  z"/>
<path id="N" d="M 10046702.00 21664779.00 L 10059183.00 21634646.00 L 10046551.00 21604450.46 L 10046551.00 21178422.23 L 10055906.00 21180283.00 A 80284.08 80284.08 0 1 0 10055906.00 21019717.00 L 10046551.00 21021577.77 L 10046702.00 20995487.00 L 10059183.00 20965354.00 L 10046702.00 20935221.00 L 10016569.00 20922740.00 L 10003937.00 20922740.00 L 9973804.00 20935221.00 L 9961323.00 20965354.00 L 9961323.00 21634646.00 L 9973804.00 21664779.00 L 10003937.00 21677260.00 L 10016569.00 21677260.00 L 10046702.00 21664779.00  z"/>
<path id="N" d="M 9786826.00 7428558.00 L 9799307.00 7398425.00 L 9799307.00 7342614.00 L 9855118.00 7342614.00 L 9885251.00 7330133.00 L 9897732.00 7300000.00 L 9885251.00 7269867.00 L 9855118.00 7257386.00 L 9799307.00 7257386.00 L 9799307.00 7201575.00 L 9786826.00 7171442.00 L 9756693.00 7158961.00 L 9726560.00 7171442.00 L 9714079.00 7201575.00 L 9714079.00 7257386.00 L 9658268.00 7257386.00 L 9628135.00 7269867.00 L 9615654.00 7300000.00 L 9628135.00 7330133.00 L 9658268.00 7342614.00 L 9714079.00 7342614.00 L 9714079.00 7398425.00 L 9726560.00 7428558.00 L 9756693.00 7441039.00 L 9786826.00 7428558.00  z"/>
<path id="N" d="M 6270291.00 7234857.00 L 6282772.00 7204724.00 L 6282772.00 6617417.00 L 6732284.00 6617417.00 L 6762417.00 6604936.00 L 6774898.00 6574803.00 L 6762417.00 6544670.00 L 6732284.00 6532189.00 L 6240158.00 6532189.00 L 6210025.00 6544670.00 L 6197544.00 6574803.00 L 6197544.00 7162110.00 L 5967811.00 7162110.00 L 5967811.00 5629921.00 L 5955330.00 5599788.00 L 5925197.00 5587307.00 L 5895064.00 5599788.00 L 5882583.00 5629921.00 L 5882583.00 7204724.00 L 5895064.00 7234857.00 L 5925197.00 7247338.00 L 6240158.00 7247338.00 L 6270291.00 7234857.00  z"/>
<path id="N" d="M 9065566.00 7234857.00 L 9078047.00 7204724.00 L 9078047.00 5629921.00 L 9065566.00 5599788.00 L 9035433.00 5587307.00 L 9005300.00 5599788.00 L 8992819.00 5629921.00 L 8992819.00 7162110.00 L 8763086.00 7162110.00 L 8763086.00 6574803.00 L 8750605.00 6544670.00 L 8720472.00 6532189.00 L 8228346.00 6532189.00 L 8198213.00 6544670.00 L 8185732.00 6574803.00 L 8198213.00 6604936.00 L 8228346.00 6617417.00 L 8677858.00 6617417.00 L 8677858.00 7204724.00 L 8690339.00 7234857.00 L 8720472.00 7247338.00 L 9035433.00 7247338.00 L 9065566.00 7234857.00  z"/>
<path id="N" d="M 15401937.00 12674803.00 L 15401937.00 12025197.00 A 80284.08 80284.08 0 0 0 15241371.00 12025197.00 L 15241371.00 12674803.00 A 80284.08 80284.08 0 0 0 15401937.00 12674803.00  z"/>
<path id="N" d="M 12270408.00 8990520.00 L 12270408.00 7809417.00 A 80284.08 80284.08 0 1 0 12109842.00 7809417.00 L 12109842.00 8990520.00 A 80284.08 80284.08 0 1 0 12270408.00 8990520.00  z"/>
<path id="N" d="M 8189582.00 12459267.00 L 8202063.00 12429134.00 L 8189582.00 12399001.00 L 8159449.00 12386520.00 L 7759150.00 12386520.00 L 7759150.00 11235528.00 L 8159449.00 11235528.00 L 8189582.00 11223047.00 L 8202063.00 11192914.00 L 8189582.00 11162781.00 L 8159449.00 11150300.00 L 7716536.00 11150300.00 L 7686403.00 11162781.00 L 7673922.00 11192914.00 L 7673922.00 12429134.00 L 7686403.00 12459267.00 L 7716536.00 12471748.00 L 8159449.00 12471748.00 L 8189582.00 12459267.00  z"/>
<path id="N" d="M 11998637.00 12459267.00 L 12011118.00 12429134.00 L 12011118.00 11192914.00 L 11998637.00 11162781.00 L 11968504.00 11150300.00 L 11525591.00 11150300.00 L 11495458.00 11162781.00 L 11482977.00 11192914.00 L 11495458.00 11223047.00 L 11525591.00 11235528.00 L 11925890.00 11235528.00 L 11925890.00 12386520.00 L 11525591.00 12386520.00 L 11495458.00 12399001.00 L 11482977.00 12429134.00 L 11495458.00 12459267.00 L 11525591.00 12471748.00 L 11968504.00 12471748.00 L 11998637.00 12459267.00  z"/>
<path id="N" d="M 7086612.47 7972439.47 m -100354.75 0 a 100354.75 100354.75 0 1 1 200709.51 0a 100354.75 100354.75 0 1 1 -200709.51 0"/>
<path id="N" d="M 8101966.47 7877557.47 m -100354.75 0 a 100354.75 100354.75 0 1 1 200709.51 0a 100354.75 100354.75 0 1 1 -200709.51 0"/>
<path id="N" d="M 4599998.47 6041337.47 m -100354.75 0 a 100354.75 100354.75 0 1 1 200709.51 0a 100354.75 100354.75 0 1 1 -200709.51 0"/>
<path id="N" d="M 5137793.47 18927163.47 m -100354.75 0 a 100354.75 100354.75 0 1 1 200709.51 0a 100354.75 100354.75 0 1 1 -200709.51 0"/>
<path id="N" d="M 11571652.47 18150786.47 m -100354.75 0 a 100354.75 100354.75 0 1 1 200709.51 0a 100354.75 100354.75 0 1 1 -200709.51 0"/>
<path id="N" d="M 14520094.00 9660645.00 L 14532575.00 9630512.00 L 14532575.00 7069488.00 L 14520094.00 7039355.00 L 14489961.00 7026874.00 L 13110039.00 7026874.00 L 13079906.00 7039355.00 L 13067425.00 7069488.00 L 13067425.00 9630512.00 L 13079906.00 9660645.00 L 13110039.00 9673126.00 L 14489961.00 9673126.00 L 14520094.00 9660645.00  zM 14447347.00 9587898.00 L 13152653.00 9587898.00 L 13152653.00 7112102.00 L 14447347.00 7112102.00 L 14447347.00 9587898.00  z"/>
<path id="N" d="M 8353184.00 10498202.00 L 8383904.00 10492058.00 L 8410784.00 10479770.00 L 8423840.00 10466714.00 L 8435360.00 10446746.00 L 8441504.00 10422938.00 L 8440736.00 10407578.00 L 8432288.00 10379162.00 L 8422304.00 10364570.00 L 8409248.00 10353050.00 L 8393120.00 10343066.00 L 8367008.00 10336154.00 L 8333216.00 10333082.00 L 8174240.00 10332314.00 L 8174240.00 10498970.00 L 8333216.00 10498970.00 L 8353184.00 10498202.00  z"/>
<path id="N" d="M 15116927.47 6972045.47 m -100354.75 0 a 100354.75 100354.75 0 1 1 200709.51 0a 100354.75 100354.75 0 1 1 -200709.51 0"/>
<path id="N" d="M 11660842.00 17560842.00 L 11673323.00 17530709.00 L 11673323.00 13869291.00 L 11660842.00 13839158.00 L 11630709.00 13826677.00 L 7969291.00 13826677.00 L 7939158.00 13839158.00 L 7926677.00 13869291.00 L 7926677.00 17530709.00 L 7939158.00 17560842.00 L 7969291.00 17573323.00 L 11630709.00 17573323.00 L 11660842.00 17560842.00  zM 11588095.00 17488095.00 L 8011905.00 17488095.00 L 8011905.00 13911905.00 L 11588095.00 13911905.00 L 11588095.00 17488095.00  z"/>
<path id="N" d="M 14916533.47 21855116.47 m -100354.75 0 a 100354.75 100354.75 0 1 1 200709.51 0a 100354.75 100354.75 0 1 1 -200709.51 0"/>
<path id="N" d="M 12954727.92 9862600.92 m -80279.37 0 a 80279.37 80279.37 0 1 1 160558.73 0a 80279.37 80279.37 0 1 1 -160558.73 0"/>
<path id="N" d="M 4263782.92 8716537.92 m -80279.37 0 a 80279.37 80279.37 0 1 1 160558.73 0a 80279.37 80279.37 0 1 1 -160558.73 0"/>
<path id="N" d="M 4500002.92 12146852.92 m -80279.37 0 a 80279.37 80279.37 0 1 1 160558.73 0a 80279.37 80279.37 0 1 1 -160558.73 0"/>
<path id="N" d="M 5137793.47 11840549.47 m -100354.75 0 a 100354.75 100354.75 0 1 1 200709.51 0a 100354.75 100354.75 0 1 1 -200709.51 0"/>
<path id="N" d="M 5299998.47 6041337.47 m -100354.75 0 a 100354.75 100354.75 0 1 1 200709.51 0a 100354.75 100354.75 0 1 1 -200709.51 0"/>
<path id="N" d="M 10472439.47 20126770.47 m -100354.75 0 a 100354.75 100354.75 0 1 1 200709.51 0a 100354.75 100354.75 0 1 1 -200709.51 0"/>
<path id="N" d="M 9927984.47 20753253.47 m -100354.75 0 a 100354.75 100354.75 0 1 1 200709.51 0a 100354.75 100354.75 0 1 1 -200709.51 0"/>
<path id="N" d="M 9490369.00 8734464.00 L 9502850.00 8704331.00 L 9502850.00 8192520.00 L 9490369.00 8162387.00 L 9460236.00 8149906.00 L 9430103.00 8162387.00 L 9417622.00 8192520.00 L 9417622.00 8661717.00 L 9164960.00 8661717.00 L 9134827.00 8674198.00 L 9122346.00 8704331.00 L 9134827.00 8734464.00 L 9164960.00 8746945.00 L 9460236.00 8746945.00 L 9490369.00 8734464.00  z"/>
<path id="N" d="M 10526196.00 21664779.00 L 10538677.00 21634646.00 L 10538677.00 20965354.00 L 10526196.00 20935221.00 L 10496063.00 20922740.00 L 10483431.00 20922740.00 L 10453298.00 20935221.00 L 10440817.00 20965354.00 L 10453449.00 20995549.54 L 10453298.00 21604513.00 L 10440817.00 21634646.00 L 10453298.00 21664779.00 L 10483431.00 21677260.00 L 10496063.00 21677260.00 L 10526196.00 21664779.00  z"/>
<path id="N" d="M 8565172.00 8734464.00 L 8577653.00 8704331.00 L 8565172.00 8674198.00 L 8535039.00 8661717.00 L 8282378.00 8661717.00 L 8282378.00 8192520.00 L 8269897.00 8162387.00 L 8239764.00 8149906.00 L 8209631.00 8162387.00 L 8197150.00 8192520.00 L 8197150.00 8704331.00 L 8209631.00 8734464.00 L 8239764.00 8746945.00 L 8535039.00 8746945.00 L 8565172.00 8734464.00  z"/>
<path id="N" d="M 13745881.00 21629346.00 L 13758362.00 21599213.00 L 13745881.00 21569080.00 L 13715748.00 21556599.00 L 13679622.00 21556599.00 L 13679622.00 21520472.00 L 13667141.00 21490339.00 L 13637008.00 21477858.00 L 13606875.00 21490339.00 L 13594394.00 21520472.00 L 13594394.00 21599213.00 L 13606875.00 21629346.00 L 13637008.00 21641827.00 L 13715748.00 21641827.00 L 13745881.00 21629346.00  z"/>
<path id="N" d="M 13667141.00 20369503.00 L 13679622.00 20339370.00 L 13679622.00 20303244.00 L 13715748.00 20303244.00 L 13745881.00 20290763.00 L 13758362.00 20260630.00 L 13745881.00 20230497.00 L 13715748.00 20218016.00 L 13637008.00 20218016.00 L 13606875.00 20230497.00 L 13594394.00 20260630.00 L 13594394.00 20339370.00 L 13606875.00 20369503.00 L 13637008.00 20381984.00 L 13667141.00 20369503.00  z"/>
<path id="N" d="M 15005724.00 20369503.00 L 15018205.00 20339370.00 L 15018205.00 20260630.00 L 15005724.00 20230497.00 L 14975591.00 20218016.00 L 14896850.00 20218016.00 L 14866717.00 20230497.00 L 14854236.00 20260630.00 L 14866717.00 20290763.00 L 14896850.00 20303244.00 L 14932977.00 20303244.00 L 14932977.00 20339370.00 L 14945458.00 20369503.00 L 14975591.00 20381984.00 L 15005724.00 20369503.00  z"/>
<path id="N" d="M 4995487.00 7114779.00 L 5007968.00 7084646.00 L 5007968.00 6415354.00 L 4995487.00 6385221.00 L 4965354.00 6372740.00 L 4950000.00 6379099.58 L 4934646.00 6372740.00 L 4904513.00 6385221.00 L 4892032.00 6415354.00 L 4892032.00 7084646.00 L 4904513.00 7114779.00 L 4934646.00 7127260.00 L 4950000.00 7120900.42 L 4965354.00 7127260.00 L 4995487.00 7114779.00  z"/>
<path id="N" d="M 15005724.00 21629346.00 L 15018205.00 21599213.00 L 15018205.00 21520472.00 L 15005724.00 21490339.00 L 14975591.00 21477858.00 L 14945458.00 21490339.00 L 14932977.00 21520472.00 L 14932977.00 21556599.00 L 14896850.00 21556599.00 L 14866717.00 21569080.00 L 14854236.00 21599213.00 L 14866717.00 21629346.00 L 14896850.00 21641827.00 L 14975591.00 21641827.00 L 15005724.00 21629346.00  z"/>
<path id="N" d="M 6303630.98 17434174.98 L 6315726.98 17419774.98 L 6323214.99 17401342.98 L 6327246.99 17367358.98 L 6327822.99 17248126.98 L 6202830.99 17248126.98 L 6203406.99 17382334.98 L 6208014.99 17405374.98 L 6217230.98 17425534.98 L 6227022.98 17435326.98 L 6241998.98 17443966.98 L 6259854.98 17448574.98 A 66801.65 66801.65 0 0 0 6303630.98 17434174.98  z"/>
<path id="N" d="M 6098208.98 10018416.98 A 59248.50 59248.50 0 0 0 6143712.98 9960816.98 L 6144864.99 9836976.98 L 6014688.99 9836976.98 L 6014688.98 9936624.98 L 6015840.98 9948144.98 L 6019872.98 9975792.98 L 6027360.98 9991920.98 L 6038304.98 10004592.98 L 6049248.98 10013232.98 L 6072288.98 10020144.98 L 6098208.98 10018416.98  z"/>
<path id="N" d="M 5944992.98 9996528.98 L 5955936.98 9986160.98 L 5965152.98 9968880.98 L 5969184.98 9944688.98 L 5970336.99 9836976.98 L 5855136.99 9836976.97 L 5855136.99 9926256.97 L 5858016.98 9956208.97 L 5863200.98 9975216.97 L 5872416.98 9988464.97 L 5886240.98 9998256.97 A 65060.90 65060.90 0 0 0 5944992.98 9996528.98  z"/>
<path id="N" d="M 11315172.00 19327771.00 L 11327653.00 19297638.00 L 11327653.00 19002362.00 L 11315172.00 18972229.00 L 11285039.00 18959748.00 L 11254906.00 18972229.00 L 11242425.00 19002362.00 L 11242425.00 19297638.00 L 11254906.00 19327771.00 L 11285039.00 19340252.00 L 11315172.00 19327771.00  z"/>
<path id="N" d="M 11945094.00 19327771.00 L 11957575.00 19297638.00 L 11957575.00 19002362.00 L 11945094.00 18972229.00 L 11914961.00 18959748.00 L 11884828.00 18972229.00 L 11872347.00 19002362.00 L 11872347.00 19297638.00 L 11884828.00 19327771.00 L 11914961.00 19340252.00 L 11945094.00 19327771.00  z"/>
<path id="N" d="M 8376590.00 4242731.00 L 8389071.00 4212598.00 L 8376590.00 4182465.00 L 8346457.00 4169984.00 L 6614173.00 4169984.00 L 6584040.00 4182465.00 L 6571559.00 4212598.00 L 6584040.00 4242731.00 L 6614173.00 4255212.00 L 8346457.00 4255212.00 L 8376590.00 4242731.00  z"/>
<path id="N" d="M 15315906.00 11915906.00 L 15325267.00 11893307.00 L 15315906.00 11870708.00 L 15293307.00 11861347.00 L 13206693.00 11861347.00 L 13184094.00 11870708.00 L 13174733.00 11893307.00 L 13184094.00 11915906.00 L 13206693.00 11925267.00 L 15293307.00 11925267.00 L 15315906.00 11915906.00  z"/>
<path id="N" d="M 5115591.00 8125433.00 L 5123517.00 8106299.00 L 5115591.00 8087165.00 L 5096457.00 8079239.00 L 4903543.00 8079239.00 L 4884409.00 8087165.00 L 4876483.00 8106299.00 L 4884409.00 8125433.00 L 4903543.00 8133359.00 L 5096457.00 8133359.00 L 5115591.00 8125433.00  z"/>
<path id="N" d="M 10039976.00 18818322.00 L 10052457.00 18788189.00 L 10039976.00 18758056.00 L 10009843.00 18745575.00 L 9990157.00 18745575.00 L 9960024.00 18758056.00 L 9947543.00 18788189.00 L 9960024.00 18818322.00 L 9990157.00 18830803.00 L 10009843.00 18830803.00 L 10039976.00 18818322.00  z"/>
<path id="N" d="M 10039976.00 19841944.00 L 10052457.00 19811811.00 L 10039976.00 19781678.00 L 10009843.00 19769197.00 L 9990157.00 19769197.00 L 9960024.00 19781678.00 L 9947543.00 19811811.00 L 9960024.00 19841944.00 L 9990157.00 19854425.00 L 10009843.00 19854425.00 L 10039976.00 19841944.00  z"/>
<path id="N" d="M 5115591.00 8912835.00 L 5123517.00 8893701.00 L 5115591.00 8874567.00 L 5096457.00 8866641.00 L 4903543.00 8866641.00 L 4884409.00 8874567.00 L 4876483.00 8893701.00 L 4884409.00 8912835.00 L 4903543.00 8920761.00 L 5096457.00 8920761.00 L 5115591.00 8912835.00  z"/>
<path id="N" d="M 11710079.00 10427008.00 L 11718005.00 10407874.00 L 11718005.00 10144094.00 L 11710079.00 10124960.00 L 11690945.00 10117034.00 L 11671811.00 10124960.00 L 11663885.00 10144094.00 L 11663885.00 10407874.00 L 11671811.00 10427008.00 L 11690945.00 10434934.00 L 11710079.00 10427008.00  z"/>
<path id="N" d="M 12154961.00 9724252.00 L 12162887.00 9705118.00 L 12154961.00 9685984.00 L 12135827.00 9678058.00 L 11875985.00 9678058.00 L 11856851.00 9685984.00 L 11848925.00 9705118.00 L 11856851.00 9724252.00 L 11875985.00 9732178.00 L 12135827.00 9732178.00 L 12154961.00 9724252.00  z"/>
<path id="N" d="M 12154961.00 10865984.00 L 12162887.00 10846850.00 L 12154961.00 10827716.00 L 12135827.00 10819790.00 L 11875985.00 10819790.00 L 11856851.00 10827716.00 L 11848925.00 10846850.00 L 11856851.00 10865984.00 L 11875985.00 10873910.00 L 12135827.00 10873910.00 L 12154961.00 10865984.00  z"/>
<path id="N" d="M 7969990.00 19109360.00 L 7982471.00 19079227.00 L 7982471.00 18420773.00 L 7969990.00 18390640.00 L 7939857.00 18378159.00 L 7909724.00 18390640.00 L 7897243.00 18420773.00 L 7897243.00 19079227.00 L 7909724.00 19109360.00 L 7939857.00 19121841.00 L 7969990.00 19109360.00  z"/>
<path id="N" d="M 10918716.00 7684464.00 L 10931197.00 7654331.00 L 10918716.00 7624198.00 L 10888583.00 7611717.00 L 10711417.00 7611717.00 L 10681284.00 7624198.00 L 10668803.00 7654331.00 L 10681284.00 7684464.00 L 10711417.00 7696945.00 L 10888583.00 7696945.00 L 10918716.00 7684464.00  z"/>
<path id="N" d="M 7390276.00 19109360.00 L 7402757.00 19079227.00 L 7402757.00 18420773.00 L 7390276.00 18390640.00 L 7360143.00 18378159.00 L 7330010.00 18390640.00 L 7317529.00 18420773.00 L 7317529.00 19079227.00 L 7330010.00 19109360.00 L 7360143.00 19121841.00 L 7390276.00 19109360.00  z"/>
<path id="N" d="M 5664779.00 7114779.00 L 5677260.00 7084646.00 L 5677260.00 6415354.00 L 5664779.00 6385221.00 L 5634646.00 6372740.00 L 5604513.00 6385221.00 L 5592032.00 6415354.00 L 5592032.00 7084646.00 L 5604513.00 7114779.00 L 5634646.00 7127260.00 L 5664779.00 7114779.00  z"/>
<path id="N" d="M 4295487.00 7114779.00 L 4307968.00 7084646.00 L 4307968.00 6415354.00 L 4295487.00 6385221.00 L 4265354.00 6372740.00 L 4235221.00 6385221.00 L 4222740.00 6415354.00 L 4222740.00 7084646.00 L 4235221.00 7114779.00 L 4265354.00 7127260.00 L 4295487.00 7114779.00  z"/>
<path id="N" d="M 15315906.00 9829292.00 L 15325267.00 9806693.00 L 15315906.00 9784094.00 L 15293307.00 9774733.00 L 13600394.00 9774733.00 L 13577795.00 9784094.00 L 13568434.00 9806693.00 L 13577795.00 9829292.00 L 13600394.00 9838653.00 L 15293307.00 9838653.00 L 15315906.00 9829292.00  z"/>
<path id="N" d="M 5522259.00 18475014.00 L 5534740.00 18444881.00 L 5534740.00 16988189.00 L 5522259.00 16958056.00 L 5492126.00 16945575.00 L 5461993.00 16958056.00 L 5449512.00 16988189.00 L 5449512.00 18444881.00 L 5461993.00 18475014.00 L 5492126.00 18487495.00 L 5522259.00 18475014.00  z"/>
<path id="N" d="M 11708480.00 7839582.00 L 11720961.00 7809449.00 L 11708480.00 7779316.00 L 11678347.00 7766835.00 L 10221654.00 7766835.00 L 10191521.00 7779316.00 L 10179040.00 7809449.00 L 10191521.00 7839582.00 L 10221654.00 7852063.00 L 11678347.00 7852063.00 L 11708480.00 7839582.00  z"/>
<path id="N" d="M 11708480.00 9020685.00 L 11720961.00 8990552.00 L 11708480.00 8960419.00 L 11678347.00 8947938.00 L 10221654.00 8947938.00 L 10191521.00 8960419.00 L 10179040.00 8990552.00 L 10191521.00 9020685.00 L 10221654.00 9033166.00 L 11678347.00 9033166.00 L 11708480.00 9020685.00  z"/>
<path id="N" d="M 4229764.00 15258504.00 L 4237690.00 15239370.00 L 4237690.00 13160630.00 L 4229764.00 13141496.00 L 4210630.00 13133570.00 L 4191496.00 13141496.00 L 4183570.00 13160630.00 L 4183570.00 15239370.00 L 4191496.00 15258504.00 L 4210630.00 15266430.00 L 4229764.00 15258504.00  z"/>
<path id="N" d="M 6308504.00 15258504.00 L 6316430.00 15239370.00 L 6316430.00 13160630.00 L 6308504.00 13141496.00 L 6289370.00 13133570.00 L 6270236.00 13141496.00 L 6262310.00 13160630.00 L 6262310.00 15239370.00 L 6270236.00 15258504.00 L 6289370.00 15266430.00 L 6308504.00 15258504.00  z"/>
<path id="N" d="M 6698424.87 20160236.00 m -63921.13 0 a 63921.13 63921.13 0 1 1 127842.26 0a 63921.13 63921.13 0 1 1 -127842.26 0"/>
<path id="N" d="M 6189216.94 10934832.99 L 5855136.94 10934832.97 L 5855136.94 11059248.97 L 6189216.94 11059248.99 L 6189216.94 10934832.99  z"/>
<path id="N" d="M 6539214.96 17903038.99 L 6205134.96 17903038.98 L 6205134.96 18027454.98 L 6539214.96 18027454.99 L 6539214.96 17903038.99  z"/>
</g>
</svg>
