<svg width="29.99999842mm" height="49.99999906mm" viewBox="0 0 11811023 19685039"  version="1.1" xmlns="http://www.w3.org/2000/svg" xmlns:xlink="http://www.w3.org/1999/xlink">
<desc>
Origin 0 0 Bound 3937008 3937008 11811023 19685039
</desc>
<g fill-rule="evenodd" fill="rgb(0, 0, 255)" stroke="black" stroke-width="1" transform="translate(0, 19685039) scale(1, -1) translate(-3937008, -3937008)">
<path id="N" d="M 10057219.87 10940560.00 m -63921.13 0 a 63921.13 63921.13 0 1 1 127842.26 0a 63921.13 63921.13 0 1 1 -127842.26 0"/>
<path id="N" d="M 8576379.87 12976380.00 m -63921.13 0 a 63921.13 63921.13 0 1 1 127842.26 0a 63921.13 63921.13 0 1 1 -127842.26 0"/>
<path id="N" d="M 6074319.00 18431100.00 L 6070909.75 18413960.00 L 6090160.00 18413961.00 L 6128429.00 18398109.00 L 7677537.01 16849000.00 L 8055120.00 16849001.00 L 8093389.00 16833149.00 L 8215709.00 16710829.00 L 8231560.00 16672557.59 L 8231560.00 15573960.00 L 8215711.00 15535693.00 L 8016621.21 15336585.69 L 8006819.00 15312921.00 A 63921.13 63921.13 0 0 0 7916421.00 15403319.00 L 7940080.53 15413119.08 L 8123320.00 15596375.53 L 8123320.00 16650142.87 L 8032702.13 16740760.00 L 7655120.00 16740759.00 L 7616850.29 16756612.71 L 6067742.01 18305720.00 L 6033794.61 18305720.00 L 6003776.00 18260795.00 L 5925640.00 18208585.00 L 5833471.00 18190252.00 L 4967329.00 18190252.00 A 240838.32 240838.32 0 1 0 4967329.00 18671948.00 L 5833471.00 18671948.00 A 240860.29 240860.29 0 0 0 6074319.00 18431100.00  z"/>
<path id="N" d="M 12491179.87 15076720.00 m -63921.13 0 a 63921.13 63921.13 0 1 1 127842.26 0a 63921.13 63921.13 0 1 1 -127842.26 0"/>
<path id="N" d="M 9864379.87 12701920.00 m -63921.13 0 a 63921.13 63921.13 0 1 1 127842.26 0a 63921.13 63921.13 0 1 1 -127842.26 0"/>
<path id="N" d="M 10499999.87 16400000.00 m -63921.13 0 a 63921.13 63921.13 0 1 1 127842.26 0a 63921.13 63921.13 0 1 1 -127842.26 0"/>
<path id="N" d="M 13490944.87 18268110.00 m -63921.13 0 a 63921.13 63921.13 0 1 1 127842.26 0a 63921.13 63921.13 0 1 1 -127842.26 0"/>
<path id="N" d="M 6722839.87 20000000.00 m -63921.13 0 a 63921.13 63921.13 0 1 1 127842.26 0a 63921.13 63921.13 0 1 1 -127842.26 0"/>
<path id="N" d="M 7995199.00 16154801.00 L 7971538.53 16145000.53 L 7688269.00 15861731.00 L 7649997.59 15845880.00 L 6372418.00 15845880.00 L 5989236.94 15461519.91 L 6003776.00 15451805.00 A 240838.32 240838.32 0 0 0 5833471.00 15040652.00 L 4967329.00 15040652.00 A 240838.32 240838.32 0 0 0 4967329.00 15522348.00 L 5833471.00 15522348.00 L 5886452.50 15511809.64 L 6311731.00 15938269.00 L 6350000.00 15954120.00 L 7627582.00 15954120.00 L 7895000.53 16221538.53 L 7904801.00 16245199.00 A 63921.13 63921.13 0 0 0 7995199.00 16154801.00  z"/>
<path id="N" d="M 7949999.87 13150000.00 m -63921.13 0 a 63921.13 63921.13 0 1 1 127842.26 0a 63921.13 63921.13 0 1 1 -127842.26 0"/>
<path id="N" d="M 9999999.87 14921260.00 m -63921.13 0 a 63921.13 63921.13 0 1 1 127842.26 0a 63921.13 63921.13 0 1 1 -127842.26 0"/>
<path id="N" d="M 9307879.87 13071140.00 m -63921.13 0 a 63921.13 63921.13 0 1 1 127842.26 0a 63921.13 63921.13 0 1 1 -127842.26 0"/>
<path id="N" d="M 10508819.87 11508840.00 m -63921.13 0 a 63921.13 63921.13 0 1 1 127842.26 0a 63921.13 63921.13 0 1 1 -127842.26 0"/>
<path id="N" d="M 10263919.87 11501580.00 m -63921.13 0 a 63921.13 63921.13 0 1 1 127842.26 0a 63921.13 63921.13 0 1 1 -127842.26 0"/>
<path id="N" d="M 9091439.87 13044180.00 m -63921.13 0 a 63921.13 63921.13 0 1 1 127842.26 0a 63921.13 63921.13 0 1 1 -127842.26 0"/>
<path id="N" d="M 9299999.87 16109060.00 m -63921.13 0 a 63921.13 63921.13 0 1 1 127842.26 0a 63921.13 63921.13 0 1 1 -127842.26 0"/>
<path id="N" d="M 7399999.87 13300000.00 m -63921.13 0 a 63921.13 63921.13 0 1 1 127842.26 0a 63921.13 63921.13 0 1 1 -127842.26 0"/>
<path id="N" d="M 6003776.00 16239205.00 L 6036908.40 16189620.00 L 6911838.24 16189620.00 L 6935500.00 16199421.00 A 63920.91 63920.91 0 0 0 6935500.00 16071579.00 L 6911838.24 16081380.00 L 6071836.65 16081380.00 L 6074319.00 16068900.00 A 240838.32 240838.32 0 0 0 5833471.00 15828052.00 L 4967329.00 15828052.00 A 240838.32 240838.32 0 0 0 4967329.00 16309748.00 L 5833471.00 16309748.00 L 5925640.00 16291415.00 L 6003776.00 16239205.00  z"/>
<path id="N" d="M 10349999.87 16570780.00 m -63921.13 0 a 63921.13 63921.13 0 1 1 127842.26 0a 63921.13 63921.13 0 1 1 -127842.26 0"/>
<path id="N" d="M 7470707.87 19200000.00 m -63921.13 0 a 63921.13 63921.13 0 1 1 127842.26 0a 63921.13 63921.13 0 1 1 -127842.26 0"/>
<path id="N" d="M 12835507.89 23450000.00 L 13196452.00 23450000.00 L 13196452.00 22719685.00 L 13246452.00 22719685.00 L 13246452.00 23448031.00 L 13777948.00 23448031.00 L 13777948.00 21794489.00 L 13610625.00 21794489.00 L 13610625.00 21744489.00 L 13769163.04 21744489.00 L 13776935.24 21052764.08 L 13795199.00 21045199.00 L 13813921.00 21000000.00 L 13795199.00 20954801.00 L 13778115.45 20947724.78 L 13783745.25 20446673.18 L 13755178.00 20434840.00 A 162173.84 162173.84 0 0 1 13755178.00 20165160.00 L 13787056.68 20151955.15 L 13799600.52 19035553.94 L 13764443.82 19000000.00 L 12483608.34 19000000.00 L 12495199.00 18995199.00 A 63921.13 63921.13 0 1 0 12404801.00 18995199.00 L 12416391.66 19000000.00 L 12388807.43 19000000.00 L 12364149.77 19050000.47 L 12382684.00 19074155.00 L 12401704.39 19120075.00 L 12351005.78 19120075.00 L 12302976.00 19048195.00 L 12224840.00 18995985.00 L 12132671.00 18977652.00 L 11266529.00 18977652.00 L 11174360.00 18995985.00 L 11096224.00 19048195.00 L 11048194.22 19120075.00 L 10997495.61 19120075.00 L 11016516.00 19074155.00 L 11035050.23 19050000.47 L 11010392.57 19000000.00 L 10750000.00 19000000.00 L 10750000.00 23450000.00 L 10972052.00 23450000.00 L 10972052.00 22719685.00 L 11022052.00 22719685.00 L 11022052.00 23448031.00 L 11553548.00 23448031.00 L 11553548.00 22719685.00 L 11603548.00 22719685.00 L 11603548.00 23450000.00 L 12000429.74 23450000.00 L 12032149.66 23411348.78 L 12031615.00 23348358.75 L 12033285.00 23344327.00 L 12031615.00 23340295.25 L 12031615.00 23130248.75 L 12033285.00 23126217.00 L 12031615.00 23122185.25 L 12031615.00 22912138.75 L 12033285.00 22908107.00 L 12031615.00 22904075.25 L 12031615.00 22694028.75 L 12033285.00 22689997.00 L 12031615.00 22685965.25 L 12031615.00 22475918.75 L 12033285.00 22471887.00 L 12031615.00 22467855.25 L 12031615.00 22257808.75 L 12033285.00 22253777.00 L 12031615.00 22249745.25 L 12031615.00 22039698.75 L 12033285.00 22035667.00 L 12031615.00 22031635.25 L 12031615.00 21991339.00 A 118391.78 118391.78 0 0 1 12150000.00 21872954.00 L 12227495.00 21872954.00 L 12227495.00 21650186.75 L 12229165.00 21646155.00 L 12227495.00 21642123.25 L 12227495.00 21432076.75 L 12229165.00 21428045.00 L 12227495.00 21424013.25 L 12227495.00 21213966.75 L 12229165.00 21209935.00 L 12227495.00 21205903.25 L 12227495.00 20995856.75 L 12229165.00 20991825.00 L 12227495.00 20987793.25 L 12227495.00 20777746.75 L 12229165.00 20773715.00 L 12227495.00 20769683.25 L 12227495.00 20706300.00 L 12228611.99 20700682.93 L 12218989.59 20602984.02 L 12188855.00 20503645.64 L 12139919.05 20412092.20 L 12101380.73 20365133.00 L 11532453.75 20365133.00 L 11528422.00 20363463.00 L 11524390.25 20365133.00 L 11314343.75 20365133.00 L 11310312.00 20363463.00 L 11306280.25 20365133.00 L 11266529.00 20365133.00 L 11255092.40 20362858.00 L 11243434.00 20362858.00 L 11151263.00 20344525.00 L 11108588.00 20326848.00 L 11030452.00 20274638.00 L 10997791.00 20241977.00 L 10945581.00 20163841.00 L 10927904.00 20121166.00 L 10909571.00 20028997.00 L 10909571.00 19982805.00 L 10927904.00 19890634.00 L 10945581.00 19847959.00 L 10997791.00 19769823.00 L 11030452.00 19737162.00 L 11108588.00 19684952.00 L 11151263.00 19667275.00 L 11243434.00 19648942.00 L 11255092.40 19648942.00 L 11266529.00 19646667.00 L 12132671.00 19646667.00 L 12144107.60 19648942.00 L 12155766.00 19648942.00 L 12247937.00 19667275.00 L 12290612.00 19684952.00 L 12368748.00 19737162.00 L 12401409.00 19769823.00 L 12453619.00 19847959.00 L 12471296.00 19890634.00 L 12489629.00 19982803.00 L 12489629.00 20028995.00 L 12471296.00 20121166.00 L 12453619.00 20163841.00 L 12419482.62 20214928.54 L 12430960.00 20231577.00 L 12500640.00 20361939.00 L 12504024.68 20373096.40 L 12509521.00 20383379.00 L 12552430.00 20524830.00 L 12553572.91 20536433.24 L 12556958.00 20547592.00 L 12563264.59 20611626.45 L 12562158.00 20614298.00 L 12563954.97 20618636.28 L 12572505.00 20706298.00 L 12572505.00 20828204.25 L 12570835.00 20832236.00 L 12572505.00 20836267.75 L 12572505.00 21046314.25 L 12570835.00 21050346.00 L 12572505.00 21054377.75 L 12572505.00 21264424.25 L 12570835.00 21268456.00 L 12572505.00 21272487.75 L 12572505.00 21482534.25 L 12570835.00 21486566.00 L 12572505.00 21490597.75 L 12572505.00 21700644.25 L 12570835.00 21704676.00 L 12572505.00 21708707.75 L 12572505.00 21872954.00 L 12650000.00 21872954.00 L 12695304.00 21881966.00 L 12732678.02 21906937.81 L 12734960.00 21912447.00 L 12737685.04 21913575.75 L 12759373.00 21946035.00 L 12768385.00 21991339.00 L 12768385.00 22075405.25 L 12766715.00 22079437.00 L 12768385.00 22083468.75 L 12768385.00 22293515.25 L 12766715.00 22297547.00 L 12768385.00 22301578.75 L 12768385.00 22511625.25 L 12766715.00 22515657.00 L 12768385.00 22519688.75 L 12768385.00 22729735.25 L 12766715.00 22733767.00 L 12768385.00 22737798.75 L 12768385.00 22947845.25 L 12766715.00 22951877.00 L 12768385.00 22955908.75 L 12768385.00 23165955.25 L 12766715.00 23169987.00 L 12768385.00 23174018.75 L 12768385.00 23384065.25 L 12766715.00 23388097.00 L 12768385.00 23392128.75 L 12767850.34 23411348.78 L 12799570.26 23450000.00 L 12825764.11 23450000.00 L 12830636.00 23452018.00 L 12835507.89 23450000.00  zM 11601175.00 19507190.00 L 11266529.00 19507190.00 A 288698.52 288698.52 0 0 1 11016516.00 19362845.00 L 10997495.61 19316925.00 L 11048194.22 19316925.00 L 11096224.00 19388805.00 L 11174360.00 19441015.00 L 11266529.00 19459348.00 L 11601175.00 19459348.00 L 11601175.00 19507190.00  zM 11022052.00 22522835.00 L 10972052.00 22522835.00 L 10972052.00 21744489.00 L 11189375.00 21744489.00 L 11189375.00 21794489.00 L 11022052.00 21794489.00 L 11022052.00 22522835.00  zM 12132671.00 19507190.00 L 11798025.00 19507190.00 L 11798025.00 19459348.00 L 12132671.00 19459348.00 L 12224840.00 19441015.00 L 12302976.00 19388805.00 L 12351005.78 19316925.00 L 12401704.39 19316925.00 L 12382684.00 19362845.00 A 288679.44 288679.44 0 0 1 12132671.00 19507190.00  zM 11350000.00 21100003.33 m -162167.81 0 a 162167.81 162167.81 0 1 1 324335.62 0a 162167.81 162167.81 0 1 1 -324335.62 0M 13300000.00 20000003.33 m -162167.81 0 a 162167.81 162167.81 0 1 1 324335.62 0a 162167.81 162167.81 0 1 1 -324335.62 0M 11603548.00 22522835.00 L 11553548.00 22522835.00 L 11553548.00 21794489.00 L 11386225.00 21794489.00 L 11386225.00 21744489.00 L 11603548.00 21744489.00 L 11603548.00 22522835.00  zM 13246452.00 22522835.00 L 13196452.00 22522835.00 L 13196452.00 21744489.00 L 13413775.00 21744489.00 L 13413775.00 21794489.00 L 13246452.00 21794489.00 L 13246452.00 22522835.00  z"/>
<path id="N" d="M 6367847.00 21442980.00 L 6367847.00 21128020.00 A 200706.53 200706.53 0 0 0 5966433.00 21128020.00 L 5966433.00 21442980.00 A 200706.53 200706.53 0 1 0 6367847.00 21442980.00  zM 6046716.00 21442980.00 L 6046716.00 21128020.00 A 120431.73 120431.73 0 0 1 6287564.00 21128020.00 L 6287564.00 21442980.00 A 120431.73 120431.73 0 0 1 6046716.00 21442980.00  z"/>
<path id="N" d="M 9764487.00 23214181.00 L 9764487.00 22741739.00 A 200706.53 200706.53 0 0 0 9363073.00 22741739.00 L 9363073.00 23214181.00 A 200706.53 200706.53 0 0 0 9764487.00 23214181.00  zM 9443356.00 23214180.00 L 9443356.00 22741740.00 A 120431.73 120431.73 0 0 1 9684204.00 22741740.00 L 9684204.00 23214180.00 A 120431.73 120431.73 0 0 1 9443356.00 23214180.00  z"/>
<path id="N" d="M 9764487.00 21489760.00 L 9764487.00 21174800.00 A 200706.53 200706.53 0 0 0 9363073.00 21174800.00 L 9363073.00 21489760.00 A 200706.53 200706.53 0 0 0 9764487.00 21489760.00  zM 9443356.00 21489760.00 L 9443356.00 21174800.00 A 120431.73 120431.73 0 0 1 9684204.00 21174800.00 L 9684204.00 21489760.00 A 120431.73 120431.73 0 0 1 9443356.00 21489760.00  z"/>
<path id="N" d="M 6364487.00 23214181.00 L 6364487.00 22741739.00 A 200706.53 200706.53 0 0 0 5963073.00 22741739.00 L 5963073.00 23214181.00 A 200706.53 200706.53 0 0 0 6364487.00 23214181.00  zM 6043356.00 23214180.00 L 6043356.00 22741740.00 A 120431.73 120431.73 0 0 1 6284204.00 22741740.00 L 6284204.00 23214180.00 A 120431.73 120431.73 0 0 1 6043356.00 23214180.00  z"/>
<path id="N" d="M 12545199.00 9354801.00 L 12530051.63 9348526.77 L 12598424.00 9362127.00 L 13188976.00 9362127.00 A 200706.53 200706.53 0 0 0 13188976.00 8960713.00 L 12598424.00 8960713.00 A 200706.53 200706.53 0 0 0 12412995.00 9084613.00 L 12411869.76 9090269.92 L 12400400.00 9085519.00 A 63920.91 63920.91 0 1 0 12400400.00 9213361.00 L 12407466.57 9210433.94 L 12412995.00 9238227.00 L 12456503.00 9303341.00 L 12514466.67 9342071.28 L 12500000.00 9336079.00 A 63920.91 63920.91 0 1 0 12545199.00 9354801.00  z"/>
<path id="N" d="M 7086616.00 10960713.00 L 6496064.00 10960713.00 A 200706.53 200706.53 0 0 0 6496064.00 11362127.00 L 7086616.00 11362127.00 A 200709.51 200709.51 0 0 0 7086616.00 10960713.00  z"/>
<path id="N" d="M 5833471.00 19765052.00 L 4967329.00 19765052.00 A 240838.32 240838.32 0 1 0 4967329.00 20246748.00 L 5833471.00 20246748.00 A 240860.29 240860.29 0 1 0 5833471.00 19765052.00  z"/>
<path id="N" d="M 5833471.00 14253252.00 L 4967329.00 14253252.00 A 240838.32 240838.32 0 0 0 4967329.00 14734948.00 L 5833471.00 14734948.00 A 240860.29 240860.29 0 0 0 5833471.00 14253252.00  z"/>
<path id="N" d="M 15537401.00 13188970.00 L 14771307.00 13188970.00 L 14771307.00 13005095.37 L 14795199.00 12995199.00 A 63921.13 63921.13 0 1 0 14704801.00 12995199.00 L 14728693.00 13005095.37 L 14728693.00 13188970.00 L 13962599.00 13188970.00 L 13962599.00 13582670.00 L 15537401.00 13582670.00 L 15537401.00 13188970.00  z"/>
<path id="N" d="M 13404339.87 13450000.00 m -63921.13 0 a 63921.13 63921.13 0 1 1 127842.26 0a 63921.13 63921.13 0 1 1 -127842.26 0"/>
<path id="N" d="M 10549999.87 14400000.00 m -63921.13 0 a 63921.13 63921.13 0 1 1 127842.26 0a 63921.13 63921.13 0 1 1 -127842.26 0"/>
<path id="N" d="M 6626779.87 14450000.00 m -63921.13 0 a 63921.13 63921.13 0 1 1 127842.26 0a 63921.13 63921.13 0 1 1 -127842.26 0"/>
<path id="N" d="M 6496060.87 12992122.00 m -63921.13 0 a 63921.13 63921.13 0 1 1 127842.26 0a 63921.13 63921.13 0 1 1 -127842.26 0"/>
<path id="N" d="M 5905509.87 12992122.00 m -63921.13 0 a 63921.13 63921.13 0 1 1 127842.26 0a 63921.13 63921.13 0 1 1 -127842.26 0"/>
<path id="N" d="M 11923219.87 13450000.00 m -63921.13 0 a 63921.13 63921.13 0 1 1 127842.26 0a 63921.13 63921.13 0 1 1 -127842.26 0"/>
<path id="N" d="M 12349999.87 12900000.00 m -63921.13 0 a 63921.13 63921.13 0 1 1 127842.26 0a 63921.13 63921.13 0 1 1 -127842.26 0"/>
<path id="N" d="M 10973619.87 12873620.00 m -63921.13 0 a 63921.13 63921.13 0 1 1 127842.26 0a 63921.13 63921.13 0 1 1 -127842.26 0"/>
<path id="N" d="M 8818899.87 12417320.00 m -63921.13 0 a 63921.13 63921.13 0 1 1 127842.26 0a 63921.13 63921.13 0 1 1 -127842.26 0"/>
<path id="N" d="M 8858264.87 8267714.00 m -63921.13 0 a 63921.13 63921.13 0 1 1 127842.26 0a 63921.13 63921.13 0 1 1 -127842.26 0"/>
<path id="N" d="M 12349999.87 12650000.00 m -63921.13 0 a 63921.13 63921.13 0 1 1 127842.26 0a 63921.13 63921.13 0 1 1 -127842.26 0"/>
<path id="N" d="M 5999999.87 12600000.00 m -63921.13 0 a 63921.13 63921.13 0 1 1 127842.26 0a 63921.13 63921.13 0 1 1 -127842.26 0"/>
<path id="N" d="M 14468498.87 12401571.00 m -63921.13 0 a 63921.13 63921.13 0 1 1 127842.26 0a 63921.13 63921.13 0 1 1 -127842.26 0"/>
<path id="N" d="M 6299999.87 14050000.00 m -63921.13 0 a 63921.13 63921.13 0 1 1 127842.26 0a 63921.13 63921.13 0 1 1 -127842.26 0"/>
<path id="N" d="M 5019682.87 13582673.00 m -63921.13 0 a 63921.13 63921.13 0 1 1 127842.26 0a 63921.13 63921.13 0 1 1 -127842.26 0"/>
<path id="N" d="M 13287396.87 12401571.00 m -63921.13 0 a 63921.13 63921.13 0 1 1 127842.26 0a 63921.13 63921.13 0 1 1 -127842.26 0"/>
<path id="N" d="M 12696845.87 12401571.00 m -63921.13 0 a 63921.13 63921.13 0 1 1 127842.26 0a 63921.13 63921.13 0 1 1 -127842.26 0"/>
<path id="N" d="M 8346459.87 12417320.00 m -63921.13 0 a 63921.13 63921.13 0 1 1 127842.26 0a 63921.13 63921.13 0 1 1 -127842.26 0"/>
<path id="N" d="M 8999999.87 9650000.00 m -63921.13 0 a 63921.13 63921.13 0 1 1 127842.26 0a 63921.13 63921.13 0 1 1 -127842.26 0"/>
<path id="N" d="M 6949999.87 9550000.00 m -63921.13 0 a 63921.13 63921.13 0 1 1 127842.26 0a 63921.13 63921.13 0 1 1 -127842.26 0"/>
<path id="N" d="M 5905509.87 10629918.00 m -63921.13 0 a 63921.13 63921.13 0 1 1 127842.26 0a 63921.13 63921.13 0 1 1 -127842.26 0"/>
<path id="N" d="M 9599999.87 10909060.00 m -63921.13 0 a 63921.13 63921.13 0 1 1 127842.26 0a 63921.13 63921.13 0 1 1 -127842.26 0"/>
<path id="N" d="M 14763774.87 10629918.00 m -63921.13 0 a 63921.13 63921.13 0 1 1 127842.26 0a 63921.13 63921.13 0 1 1 -127842.26 0"/>
<path id="N" d="M 11181099.87 11204720.00 m -63921.13 0 a 63921.13 63921.13 0 1 1 127842.26 0a 63921.13 63921.13 0 1 1 -127842.26 0"/>
<path id="N" d="M 6849999.87 12250000.00 m -63921.13 0 a 63921.13 63921.13 0 1 1 127842.26 0a 63921.13 63921.13 0 1 1 -127842.26 0"/>
<path id="N" d="M 9746856.87 12156806.00 m -63921.13 0 a 63921.13 63921.13 0 1 1 127842.26 0a 63921.13 63921.13 0 1 1 -127842.26 0"/>
<path id="N" d="M 5314958.87 10629918.00 m -63921.13 0 a 63921.13 63921.13 0 1 1 127842.26 0a 63921.13 63921.13 0 1 1 -127842.26 0"/>
<path id="N" d="M 12949999.87 10517320.00 m -63921.13 0 a 63921.13 63921.13 0 1 1 127842.26 0a 63921.13 63921.13 0 1 1 -127842.26 0"/>
<path id="N" d="M 10866139.87 11204720.00 m -63921.13 0 a 63921.13 63921.13 0 1 1 127842.26 0a 63921.13 63921.13 0 1 1 -127842.26 0"/>
<path id="N" d="M 10236219.87 12173000.00 m -63921.13 0 a 63921.13 63921.13 0 1 1 127842.26 0a 63921.13 63921.13 0 1 1 -127842.26 0"/>
<path id="N" d="M 10039366.87 10629918.00 m -63921.13 0 a 63921.13 63921.13 0 1 1 127842.26 0a 63921.13 63921.13 0 1 1 -127842.26 0"/>
<path id="N" d="M 10629917.87 10629918.00 m -63921.13 0 a 63921.13 63921.13 0 1 1 127842.26 0a 63921.13 63921.13 0 1 1 -127842.26 0"/>
<path id="N" d="M 11811019.87 12992122.00 m -63921.13 0 a 63921.13 63921.13 0 1 1 127842.26 0a 63921.13 63921.13 0 1 1 -127842.26 0"/>
<path id="N" d="M 5999999.87 12300000.00 m -63921.13 0 a 63921.13 63921.13 0 1 1 127842.26 0a 63921.13 63921.13 0 1 1 -127842.26 0"/>
<path id="N" d="M 11220468.87 8267714.00 m -63921.13 0 a 63921.13 63921.13 0 1 1 127842.26 0a 63921.13 63921.13 0 1 1 -127842.26 0"/>
<path id="N" d="M 9449999.87 20100000.00 m -63921.13 0 a 63921.13 63921.13 0 1 1 127842.26 0a 63921.13 63921.13 0 1 1 -127842.26 0"/>
<path id="N" d="M 6649999.87 8800000.00 m -63921.13 0 a 63921.13 63921.13 0 1 1 127842.26 0a 63921.13 63921.13 0 1 1 -127842.26 0"/>
<path id="N" d="M 6349999.87 8800000.00 m -63921.13 0 a 63921.13 63921.13 0 1 1 127842.26 0a 63921.13 63921.13 0 1 1 -127842.26 0"/>
<path id="N" d="M 8267713.87 20078734.00 m -63921.13 0 a 63921.13 63921.13 0 1 1 127842.26 0a 63921.13 63921.13 0 1 1 -127842.26 0"/>
<path id="N" d="M 9884639.87 20050000.00 m -63921.13 0 a 63921.13 63921.13 0 1 1 127842.26 0a 63921.13 63921.13 0 1 1 -127842.26 0"/>
<path id="N" d="M 9825399.87 20300780.00 m -63921.13 0 a 63921.13 63921.13 0 1 1 127842.26 0a 63921.13 63921.13 0 1 1 -127842.26 0"/>
<path id="N" d="M 6949999.87 8550000.00 m -63921.13 0 a 63921.13 63921.13 0 1 1 127842.26 0a 63921.13 63921.13 0 1 1 -127842.26 0"/>
<path id="N" d="M 6649999.87 8550000.00 m -63921.13 0 a 63921.13 63921.13 0 1 1 127842.26 0a 63921.13 63921.13 0 1 1 -127842.26 0"/>
<path id="N" d="M 10564959.87 8700000.00 m -63921.13 0 a 63921.13 63921.13 0 1 1 127842.26 0a 63921.13 63921.13 0 1 1 -127842.26 0"/>
<path id="N" d="M 5019682.87 8858265.00 m -63921.13 0 a 63921.13 63921.13 0 1 1 127842.26 0a 63921.13 63921.13 0 1 1 -127842.26 0"/>
<path id="N" d="M 6949999.87 8800000.00 m -63921.13 0 a 63921.13 63921.13 0 1 1 127842.26 0a 63921.13 63921.13 0 1 1 -127842.26 0"/>
<path id="N" d="M 10849999.87 8700000.00 m -63921.13 0 a 63921.13 63921.13 0 1 1 127842.26 0a 63921.13 63921.13 0 1 1 -127842.26 0"/>
<path id="N" d="M 10449219.87 20300780.00 m -63921.13 0 a 63921.13 63921.13 0 1 1 127842.26 0a 63921.13 63921.13 0 1 1 -127842.26 0"/>
<path id="N" d="M 14504919.87 19693700.00 m -63921.13 0 a 63921.13 63921.13 0 1 1 127842.26 0a 63921.13 63921.13 0 1 1 -127842.26 0"/>
<path id="N" d="M 8999999.87 19650000.00 m -63921.13 0 a 63921.13 63921.13 0 1 1 127842.26 0a 63921.13 63921.13 0 1 1 -127842.26 0"/>
<path id="N" d="M 9566919.87 19614960.00 m -63921.13 0 a 63921.13 63921.13 0 1 1 127842.26 0a 63921.13 63921.13 0 1 1 -127842.26 0"/>
<path id="N" d="M 14054919.87 19893700.00 m -63921.13 0 a 63921.13 63921.13 0 1 1 127842.26 0a 63921.13 63921.13 0 1 1 -127842.26 0"/>
<path id="N" d="M 6223219.87 20000000.00 m -63921.13 0 a 63921.13 63921.13 0 1 1 127842.26 0a 63921.13 63921.13 0 1 1 -127842.26 0"/>
<path id="N" d="M 14504919.87 19893700.00 m -63921.13 0 a 63921.13 63921.13 0 1 1 127842.26 0a 63921.13 63921.13 0 1 1 -127842.26 0"/>
<path id="N" d="M 5610233.87 20669285.00 m -63921.13 0 a 63921.13 63921.13 0 1 1 127842.26 0a 63921.13 63921.13 0 1 1 -127842.26 0"/>
<path id="N" d="M 6572839.87 20700000.00 m -63921.13 0 a 63921.13 63921.13 0 1 1 127842.26 0a 63921.13 63921.13 0 1 1 -127842.26 0"/>
<path id="N" d="M 15059049.87 20669285.00 m -63921.13 0 a 63921.13 63921.13 0 1 1 127842.26 0a 63921.13 63921.13 0 1 1 -127842.26 0"/>
<path id="N" d="M 14279919.87 19693700.00 m -63921.13 0 a 63921.13 63921.13 0 1 1 127842.26 0a 63921.13 63921.13 0 1 1 -127842.26 0"/>
<path id="N" d="M 14054919.87 19693700.00 m -63921.13 0 a 63921.13 63921.13 0 1 1 127842.26 0a 63921.13 63921.13 0 1 1 -127842.26 0"/>
<path id="N" d="M 6200784.87 20669285.00 m -63921.13 0 a 63921.13 63921.13 0 1 1 127842.26 0a 63921.13 63921.13 0 1 1 -127842.26 0"/>
<path id="N" d="M 10279899.87 8700000.00 m -63921.13 0 a 63921.13 63921.13 0 1 1 127842.26 0a 63921.13 63921.13 0 1 1 -127842.26 0"/>
<path id="N" d="M 9153539.87 7677163.00 m -63921.13 0 a 63921.13 63921.13 0 1 1 127842.26 0a 63921.13 63921.13 0 1 1 -127842.26 0"/>
<path id="N" d="M 8562988.87 7677163.00 m -63921.13 0 a 63921.13 63921.13 0 1 1 127842.26 0a 63921.13 63921.13 0 1 1 -127842.26 0"/>
<path id="N" d="M 10564959.87 8375000.00 m -63921.13 0 a 63921.13 63921.13 0 1 1 127842.26 0a 63921.13 63921.13 0 1 1 -127842.26 0"/>
<path id="N" d="M 10334641.87 7677163.00 m -63921.13 0 a 63921.13 63921.13 0 1 1 127842.26 0a 63921.13 63921.13 0 1 1 -127842.26 0"/>
<path id="N" d="M 7381886.87 7677163.00 m -63921.13 0 a 63921.13 63921.13 0 1 1 127842.26 0a 63921.13 63921.13 0 1 1 -127842.26 0"/>
<path id="N" d="M 6791335.87 7677163.00 m -63921.13 0 a 63921.13 63921.13 0 1 1 127842.26 0a 63921.13 63921.13 0 1 1 -127842.26 0"/>
<path id="N" d="M 4499999.87 8300000.00 m -63921.13 0 a 63921.13 63921.13 0 1 1 127842.26 0a 63921.13 63921.13 0 1 1 -127842.26 0"/>
<path id="N" d="M 7677162.87 8267714.00 m -63921.13 0 a 63921.13 63921.13 0 1 1 127842.26 0a 63921.13 63921.13 0 1 1 -127842.26 0"/>
<path id="N" d="M 10849999.87 8050000.00 m -63921.13 0 a 63921.13 63921.13 0 1 1 127842.26 0a 63921.13 63921.13 0 1 1 -127842.26 0"/>
<path id="N" d="M 10279899.87 8375000.00 m -63921.13 0 a 63921.13 63921.13 0 1 1 127842.26 0a 63921.13 63921.13 0 1 1 -127842.26 0"/>
<path id="N" d="M 6349999.87 8550000.00 m -63921.13 0 a 63921.13 63921.13 0 1 1 127842.26 0a 63921.13 63921.13 0 1 1 -127842.26 0"/>
<path id="N" d="M 10849999.87 8375000.00 m -63921.13 0 a 63921.13 63921.13 0 1 1 127842.26 0a 63921.13 63921.13 0 1 1 -127842.26 0"/>
<path id="N" d="M 10279899.87 8050000.00 m -63921.13 0 a 63921.13 63921.13 0 1 1 127842.26 0a 63921.13 63921.13 0 1 1 -127842.26 0"/>
<path id="N" d="M 6349999.87 9550000.00 m -63921.13 0 a 63921.13 63921.13 0 1 1 127842.26 0a 63921.13 63921.13 0 1 1 -127842.26 0"/>
<path id="N" d="M 10039366.87 9448816.00 m -63921.13 0 a 63921.13 63921.13 0 1 1 127842.26 0a 63921.13 63921.13 0 1 1 -127842.26 0"/>
<path id="N" d="M 9153539.87 8858265.00 m -63921.13 0 a 63921.13 63921.13 0 1 1 127842.26 0a 63921.13 63921.13 0 1 1 -127842.26 0"/>
<path id="N" d="M 13582672.87 9448816.00 m -63921.13 0 a 63921.13 63921.13 0 1 1 127842.26 0a 63921.13 63921.13 0 1 1 -127842.26 0"/>
<path id="N" d="M 10629917.87 9448816.00 m -63921.13 0 a 63921.13 63921.13 0 1 1 127842.26 0a 63921.13 63921.13 0 1 1 -127842.26 0"/>
<path id="N" d="M 6649999.87 9550000.00 m -63921.13 0 a 63921.13 63921.13 0 1 1 127842.26 0a 63921.13 63921.13 0 1 1 -127842.26 0"/>
<path id="N" d="M 14468498.87 7677163.00 m -63921.13 0 a 63921.13 63921.13 0 1 1 127842.26 0a 63921.13 63921.13 0 1 1 -127842.26 0"/>
<path id="N" d="M 10925192.87 7677163.00 m -63921.13 0 a 63921.13 63921.13 0 1 1 127842.26 0a 63921.13 63921.13 0 1 1 -127842.26 0"/>
<path id="N" d="M 10564959.87 8050000.00 m -63921.13 0 a 63921.13 63921.13 0 1 1 127842.26 0a 63921.13 63921.13 0 1 1 -127842.26 0"/>
<path id="N" d="M 7381886.87 8858265.00 m -63921.13 0 a 63921.13 63921.13 0 1 1 127842.26 0a 63921.13 63921.13 0 1 1 -127842.26 0"/>
<path id="N" d="M 11249999.87 9350000.00 m -63921.13 0 a 63921.13 63921.13 0 1 1 127842.26 0a 63921.13 63921.13 0 1 1 -127842.26 0"/>
<path id="N" d="M 5227159.87 9300000.00 m -63921.13 0 a 63921.13 63921.13 0 1 1 127842.26 0a 63921.13 63921.13 0 1 1 -127842.26 0"/>
<path id="N" d="M 14279919.87 19893700.00 m -63921.13 0 a 63921.13 63921.13 0 1 1 127842.26 0a 63921.13 63921.13 0 1 1 -127842.26 0"/>
<path id="N" d="M 12956199.87 6549440.00 m -63921.13 0 a 63921.13 63921.13 0 1 1 127842.26 0a 63921.13 63921.13 0 1 1 -127842.26 0"/>
<path id="N" d="M 12706199.87 6549440.00 m -63921.13 0 a 63921.13 63921.13 0 1 1 127842.26 0a 63921.13 63921.13 0 1 1 -127842.26 0"/>
<path id="N" d="M 11199999.87 6550000.00 m -63921.13 0 a 63921.13 63921.13 0 1 1 127842.26 0a 63921.13 63921.13 0 1 1 -127842.26 0"/>
<path id="N" d="M 15149999.87 7350000.00 m -63921.13 0 a 63921.13 63921.13 0 1 1 127842.26 0a 63921.13 63921.13 0 1 1 -127842.26 0"/>
<path id="N" d="M 14949999.87 7350000.00 m -63921.13 0 a 63921.13 63921.13 0 1 1 127842.26 0a 63921.13 63921.13 0 1 1 -127842.26 0"/>
<path id="N" d="M 10223219.87 7150000.00 m -63921.13 0 a 63921.13 63921.13 0 1 1 127842.26 0a 63921.13 63921.13 0 1 1 -127842.26 0"/>
<path id="N" d="M 15349999.87 7350000.00 m -63921.13 0 a 63921.13 63921.13 0 1 1 127842.26 0a 63921.13 63921.13 0 1 1 -127842.26 0"/>
<path id="N" d="M 11706199.87 6549440.00 m -63921.13 0 a 63921.13 63921.13 0 1 1 127842.26 0a 63921.13 63921.13 0 1 1 -127842.26 0"/>
<path id="N" d="M 11456199.87 6549440.00 m -63921.13 0 a 63921.13 63921.13 0 1 1 127842.26 0a 63921.13 63921.13 0 1 1 -127842.26 0"/>
<path id="N" d="M 11949999.87 6550000.00 m -63921.13 0 a 63921.13 63921.13 0 1 1 127842.26 0a 63921.13 63921.13 0 1 1 -127842.26 0"/>
<path id="N" d="M 14468498.87 6496061.00 m -63921.13 0 a 63921.13 63921.13 0 1 1 127842.26 0a 63921.13 63921.13 0 1 1 -127842.26 0"/>
<path id="N" d="M 13206199.87 6549440.00 m -63921.13 0 a 63921.13 63921.13 0 1 1 127842.26 0a 63921.13 63921.13 0 1 1 -127842.26 0"/>
<path id="N" d="M 12456199.87 6549440.00 m -63921.13 0 a 63921.13 63921.13 0 1 1 127842.26 0a 63921.13 63921.13 0 1 1 -127842.26 0"/>
<path id="N" d="M 15059049.87 6496061.00 m -63921.13 0 a 63921.13 63921.13 0 1 1 127842.26 0a 63921.13 63921.13 0 1 1 -127842.26 0"/>
<path id="N" d="M 12349999.87 6750000.00 m -63921.13 0 a 63921.13 63921.13 0 1 1 127842.26 0a 63921.13 63921.13 0 1 1 -127842.26 0"/>
<path id="N" d="M 12099999.87 6750000.00 m -63921.13 0 a 63921.13 63921.13 0 1 1 127842.26 0a 63921.13 63921.13 0 1 1 -127842.26 0"/>
<path id="N" d="M 5905509.87 7086612.00 m -63921.13 0 a 63921.13 63921.13 0 1 1 127842.26 0a 63921.13 63921.13 0 1 1 -127842.26 0"/>
<path id="N" d="M 7677162.87 7086612.00 m -63921.13 0 a 63921.13 63921.13 0 1 1 127842.26 0a 63921.13 63921.13 0 1 1 -127842.26 0"/>
<path id="N" d="M 8858264.87 7086612.00 m -63921.13 0 a 63921.13 63921.13 0 1 1 127842.26 0a 63921.13 63921.13 0 1 1 -127842.26 0"/>
<path id="N" d="M 14173223.87 7086612.00 m -63921.13 0 a 63921.13 63921.13 0 1 1 127842.26 0a 63921.13 63921.13 0 1 1 -127842.26 0"/>
<path id="N" d="M 13582672.87 7086612.00 m -63921.13 0 a 63921.13 63921.13 0 1 1 127842.26 0a 63921.13 63921.13 0 1 1 -127842.26 0"/>
<path id="N" d="M 6200784.87 7677163.00 m -63921.13 0 a 63921.13 63921.13 0 1 1 127842.26 0a 63921.13 63921.13 0 1 1 -127842.26 0"/>
<path id="N" d="M 5019682.87 7677163.00 m -63921.13 0 a 63921.13 63921.13 0 1 1 127842.26 0a 63921.13 63921.13 0 1 1 -127842.26 0"/>
<path id="N" d="M 15149999.87 7550000.00 m -63921.13 0 a 63921.13 63921.13 0 1 1 127842.26 0a 63921.13 63921.13 0 1 1 -127842.26 0"/>
<path id="N" d="M 15349999.87 7550000.00 m -63921.13 0 a 63921.13 63921.13 0 1 1 127842.26 0a 63921.13 63921.13 0 1 1 -127842.26 0"/>
<path id="N" d="M 13599999.87 6750000.00 m -63921.13 0 a 63921.13 63921.13 0 1 1 127842.26 0a 63921.13 63921.13 0 1 1 -127842.26 0"/>
<path id="N" d="M 14763774.87 7086612.00 m -63921.13 0 a 63921.13 63921.13 0 1 1 127842.26 0a 63921.13 63921.13 0 1 1 -127842.26 0"/>
<path id="N" d="M 14945152.87 7552810.00 m -63921.13 0 a 63921.13 63921.13 0 1 1 127842.26 0a 63921.13 63921.13 0 1 1 -127842.26 0"/>
<path id="N" d="M 11556199.87 4749440.00 m -63921.13 0 a 63921.13 63921.13 0 1 1 127842.26 0a 63921.13 63921.13 0 1 1 -127842.26 0"/>
<path id="N" d="M 12049999.87 4750000.00 m -63921.13 0 a 63921.13 63921.13 0 1 1 127842.26 0a 63921.13 63921.13 0 1 1 -127842.26 0"/>
<path id="N" d="M 11299999.87 4750000.00 m -63921.13 0 a 63921.13 63921.13 0 1 1 127842.26 0a 63921.13 63921.13 0 1 1 -127842.26 0"/>
<path id="N" d="M 12399999.87 4550000.00 m -63921.13 0 a 63921.13 63921.13 0 1 1 127842.26 0a 63921.13 63921.13 0 1 1 -127842.26 0"/>
<path id="N" d="M 12149999.87 4550000.00 m -63921.13 0 a 63921.13 63921.13 0 1 1 127842.26 0a 63921.13 63921.13 0 1 1 -127842.26 0"/>
<path id="N" d="M 11399999.87 4550000.00 m -63921.13 0 a 63921.13 63921.13 0 1 1 127842.26 0a 63921.13 63921.13 0 1 1 -127842.26 0"/>
<path id="N" d="M 13649999.87 4550000.00 m -63921.13 0 a 63921.13 63921.13 0 1 1 127842.26 0a 63921.13 63921.13 0 1 1 -127842.26 0"/>
<path id="N" d="M 11806199.87 4749440.00 m -63921.13 0 a 63921.13 63921.13 0 1 1 127842.26 0a 63921.13 63921.13 0 1 1 -127842.26 0"/>
<path id="N" d="M 13056199.87 4749440.00 m -63921.13 0 a 63921.13 63921.13 0 1 1 127842.26 0a 63921.13 63921.13 0 1 1 -127842.26 0"/>
<path id="N" d="M 12806199.87 4749440.00 m -63921.13 0 a 63921.13 63921.13 0 1 1 127842.26 0a 63921.13 63921.13 0 1 1 -127842.26 0"/>
<path id="N" d="M 12556199.87 4749440.00 m -63921.13 0 a 63921.13 63921.13 0 1 1 127842.26 0a 63921.13 63921.13 0 1 1 -127842.26 0"/>
<path id="N" d="M 13549999.87 4750000.00 m -63921.13 0 a 63921.13 63921.13 0 1 1 127842.26 0a 63921.13 63921.13 0 1 1 -127842.26 0"/>
<path id="N" d="M 12299999.87 4750000.00 m -63921.13 0 a 63921.13 63921.13 0 1 1 127842.26 0a 63921.13 63921.13 0 1 1 -127842.26 0"/>
<path id="N" d="M 13306199.87 4749440.00 m -63921.13 0 a 63921.13 63921.13 0 1 1 127842.26 0a 63921.13 63921.13 0 1 1 -127842.26 0"/>
<path id="N" d="M 12606199.87 6749440.00 m -63921.13 0 a 63921.13 63921.13 0 1 1 127842.26 0a 63921.13 63921.13 0 1 1 -127842.26 0"/>
<path id="N" d="M 13449999.87 6550000.00 m -63921.13 0 a 63921.13 63921.13 0 1 1 127842.26 0a 63921.13 63921.13 0 1 1 -127842.26 0"/>
<path id="N" d="M 12199999.87 6550000.00 m -63921.13 0 a 63921.13 63921.13 0 1 1 127842.26 0a 63921.13 63921.13 0 1 1 -127842.26 0"/>
<path id="N" d="M 13356199.87 6749440.00 m -63921.13 0 a 63921.13 63921.13 0 1 1 127842.26 0a 63921.13 63921.13 0 1 1 -127842.26 0"/>
<path id="N" d="M 13106199.87 6749440.00 m -63921.13 0 a 63921.13 63921.13 0 1 1 127842.26 0a 63921.13 63921.13 0 1 1 -127842.26 0"/>
<path id="N" d="M 12856199.87 6749440.00 m -63921.13 0 a 63921.13 63921.13 0 1 1 127842.26 0a 63921.13 63921.13 0 1 1 -127842.26 0"/>
<path id="N" d="M 11349999.87 6750000.00 m -63921.13 0 a 63921.13 63921.13 0 1 1 127842.26 0a 63921.13 63921.13 0 1 1 -127842.26 0"/>
<path id="N" d="M 8858264.87 4724408.00 m -63921.13 0 a 63921.13 63921.13 0 1 1 127842.26 0a 63921.13 63921.13 0 1 1 -127842.26 0"/>
<path id="N" d="M 7677162.87 4724408.00 m -63921.13 0 a 63921.13 63921.13 0 1 1 127842.26 0a 63921.13 63921.13 0 1 1 -127842.26 0"/>
<path id="N" d="M 6349999.87 4700000.00 m -63921.13 0 a 63921.13 63921.13 0 1 1 127842.26 0a 63921.13 63921.13 0 1 1 -127842.26 0"/>
<path id="N" d="M 6649999.87 4700000.00 m -63921.13 0 a 63921.13 63921.13 0 1 1 127842.26 0a 63921.13 63921.13 0 1 1 -127842.26 0"/>
<path id="N" d="M 11856199.87 6749440.00 m -63921.13 0 a 63921.13 63921.13 0 1 1 127842.26 0a 63921.13 63921.13 0 1 1 -127842.26 0"/>
<path id="N" d="M 11606199.87 6749440.00 m -63921.13 0 a 63921.13 63921.13 0 1 1 127842.26 0a 63921.13 63921.13 0 1 1 -127842.26 0"/>
<path id="N" d="M 6949999.87 4700000.00 m -63921.13 0 a 63921.13 63921.13 0 1 1 127842.26 0a 63921.13 63921.13 0 1 1 -127842.26 0"/>
<path id="N" d="M 14763774.87 5905510.00 m -63921.13 0 a 63921.13 63921.13 0 1 1 127842.26 0a 63921.13 63921.13 0 1 1 -127842.26 0"/>
<path id="N" d="M 12199999.87 6100000.00 m -63921.13 0 a 63921.13 63921.13 0 1 1 127842.26 0a 63921.13 63921.13 0 1 1 -127842.26 0"/>
<path id="N" d="M 11449999.87 6100000.00 m -63921.13 0 a 63921.13 63921.13 0 1 1 127842.26 0a 63921.13 63921.13 0 1 1 -127842.26 0"/>
<path id="N" d="M 11199999.87 6100000.00 m -63921.13 0 a 63921.13 63921.13 0 1 1 127842.26 0a 63921.13 63921.13 0 1 1 -127842.26 0"/>
<path id="N" d="M 8858264.87 5905510.00 m -63921.13 0 a 63921.13 63921.13 0 1 1 127842.26 0a 63921.13 63921.13 0 1 1 -127842.26 0"/>
<path id="N" d="M 11693799.87 6100560.00 m -63921.13 0 a 63921.13 63921.13 0 1 1 127842.26 0a 63921.13 63921.13 0 1 1 -127842.26 0"/>
<path id="N" d="M 4949999.87 6450000.00 m -63921.13 0 a 63921.13 63921.13 0 1 1 127842.26 0a 63921.13 63921.13 0 1 1 -127842.26 0"/>
<path id="N" d="M 10039366.87 5905510.00 m -63921.13 0 a 63921.13 63921.13 0 1 1 127842.26 0a 63921.13 63921.13 0 1 1 -127842.26 0"/>
<path id="N" d="M 14173223.87 5905510.00 m -63921.13 0 a 63921.13 63921.13 0 1 1 127842.26 0a 63921.13 63921.13 0 1 1 -127842.26 0"/>
<path id="N" d="M 7677162.87 5905510.00 m -63921.13 0 a 63921.13 63921.13 0 1 1 127842.26 0a 63921.13 63921.13 0 1 1 -127842.26 0"/>
<path id="N" d="M 5905509.87 5905510.00 m -63921.13 0 a 63921.13 63921.13 0 1 1 127842.26 0a 63921.13 63921.13 0 1 1 -127842.26 0"/>
<path id="N" d="M 11849999.87 5850000.00 m -63921.13 0 a 63921.13 63921.13 0 1 1 127842.26 0a 63921.13 63921.13 0 1 1 -127842.26 0"/>
<path id="N" d="M 11606199.87 5849440.00 m -63921.13 0 a 63921.13 63921.13 0 1 1 127842.26 0a 63921.13 63921.13 0 1 1 -127842.26 0"/>
<path id="N" d="M 5314958.87 5905510.00 m -63921.13 0 a 63921.13 63921.13 0 1 1 127842.26 0a 63921.13 63921.13 0 1 1 -127842.26 0"/>
<path id="N" d="M 13549999.87 5600000.00 m -63921.13 0 a 63921.13 63921.13 0 1 1 127842.26 0a 63921.13 63921.13 0 1 1 -127842.26 0"/>
<path id="N" d="M 6949999.87 5400000.00 m -63921.13 0 a 63921.13 63921.13 0 1 1 127842.26 0a 63921.13 63921.13 0 1 1 -127842.26 0"/>
<path id="N" d="M 12806199.87 5599440.00 m -63921.13 0 a 63921.13 63921.13 0 1 1 127842.26 0a 63921.13 63921.13 0 1 1 -127842.26 0"/>
<path id="N" d="M 11806199.87 5599440.00 m -63921.13 0 a 63921.13 63921.13 0 1 1 127842.26 0a 63921.13 63921.13 0 1 1 -127842.26 0"/>
<path id="N" d="M 9599999.87 5700000.00 m -63921.13 0 a 63921.13 63921.13 0 1 1 127842.26 0a 63921.13 63921.13 0 1 1 -127842.26 0"/>
<path id="N" d="M 6949999.87 5700000.00 m -63921.13 0 a 63921.13 63921.13 0 1 1 127842.26 0a 63921.13 63921.13 0 1 1 -127842.26 0"/>
<path id="N" d="M 10629917.87 7086612.00 m -63921.13 0 a 63921.13 63921.13 0 1 1 127842.26 0a 63921.13 63921.13 0 1 1 -127842.26 0"/>
<path id="N" d="M 6349999.87 5700000.00 m -63921.13 0 a 63921.13 63921.13 0 1 1 127842.26 0a 63921.13 63921.13 0 1 1 -127842.26 0"/>
<path id="N" d="M 12099999.87 5850000.00 m -63921.13 0 a 63921.13 63921.13 0 1 1 127842.26 0a 63921.13 63921.13 0 1 1 -127842.26 0"/>
<path id="N" d="M 11356199.87 5849440.00 m -63921.13 0 a 63921.13 63921.13 0 1 1 127842.26 0a 63921.13 63921.13 0 1 1 -127842.26 0"/>
<path id="N" d="M 6649999.87 5700000.00 m -63921.13 0 a 63921.13 63921.13 0 1 1 127842.26 0a 63921.13 63921.13 0 1 1 -127842.26 0"/>
<path id="N" d="M 11349999.87 6300000.00 m -63921.13 0 a 63921.13 63921.13 0 1 1 127842.26 0a 63921.13 63921.13 0 1 1 -127842.26 0"/>
<path id="N" d="M 11943799.87 6100560.00 m -63921.13 0 a 63921.13 63921.13 0 1 1 127842.26 0a 63921.13 63921.13 0 1 1 -127842.26 0"/>
<path id="N" d="M 11843799.87 6300560.00 m -63921.13 0 a 63921.13 63921.13 0 1 1 127842.26 0a 63921.13 63921.13 0 1 1 -127842.26 0"/>
<path id="N" d="M 12093799.87 6300560.00 m -63921.13 0 a 63921.13 63921.13 0 1 1 127842.26 0a 63921.13 63921.13 0 1 1 -127842.26 0"/>
<path id="N" d="M 4649999.87 6450000.00 m -63921.13 0 a 63921.13 63921.13 0 1 1 127842.26 0a 63921.13 63921.13 0 1 1 -127842.26 0"/>
<path id="N" d="M 7381886.87 6496061.00 m -63921.13 0 a 63921.13 63921.13 0 1 1 127842.26 0a 63921.13 63921.13 0 1 1 -127842.26 0"/>
<path id="N" d="M 5249999.87 6450000.00 m -63921.13 0 a 63921.13 63921.13 0 1 1 127842.26 0a 63921.13 63921.13 0 1 1 -127842.26 0"/>
<path id="N" d="M 12049999.87 5600000.00 m -63921.13 0 a 63921.13 63921.13 0 1 1 127842.26 0a 63921.13 63921.13 0 1 1 -127842.26 0"/>
<path id="N" d="M 13056199.87 5599440.00 m -63921.13 0 a 63921.13 63921.13 0 1 1 127842.26 0a 63921.13 63921.13 0 1 1 -127842.26 0"/>
<path id="N" d="M 11556199.87 5599440.00 m -63921.13 0 a 63921.13 63921.13 0 1 1 127842.26 0a 63921.13 63921.13 0 1 1 -127842.26 0"/>
<path id="N" d="M 12299999.87 5600000.00 m -63921.13 0 a 63921.13 63921.13 0 1 1 127842.26 0a 63921.13 63921.13 0 1 1 -127842.26 0"/>
<path id="N" d="M 11599999.87 6300000.00 m -63921.13 0 a 63921.13 63921.13 0 1 1 127842.26 0a 63921.13 63921.13 0 1 1 -127842.26 0"/>
<path id="N" d="M 11299999.87 5600000.00 m -63921.13 0 a 63921.13 63921.13 0 1 1 127842.26 0a 63921.13 63921.13 0 1 1 -127842.26 0"/>
<path id="N" d="M 13306199.87 5599440.00 m -63921.13 0 a 63921.13 63921.13 0 1 1 127842.26 0a 63921.13 63921.13 0 1 1 -127842.26 0"/>
<path id="N" d="M 7099999.87 19226780.00 m -63921.13 0 a 63921.13 63921.13 0 1 1 127842.26 0a 63921.13 63921.13 0 1 1 -127842.26 0"/>
<path id="N" d="M 4326779.87 15900000.00 m -63921.13 0 a 63921.13 63921.13 0 1 1 127842.26 0a 63921.13 63921.13 0 1 1 -127842.26 0"/>
<path id="N" d="M 14763774.87 15354326.00 m -63921.13 0 a 63921.13 63921.13 0 1 1 127842.26 0a 63921.13 63921.13 0 1 1 -127842.26 0"/>
<path id="N" d="M 8818899.87 19409440.00 m -63921.13 0 a 63921.13 63921.13 0 1 1 127842.26 0a 63921.13 63921.13 0 1 1 -127842.26 0"/>
<path id="N" d="M 9155519.87 19428740.00 m -63921.13 0 a 63921.13 63921.13 0 1 1 127842.26 0a 63921.13 63921.13 0 1 1 -127842.26 0"/>
<path id="N" d="M 8423219.87 19200000.00 m -63921.13 0 a 63921.13 63921.13 0 1 1 127842.26 0a 63921.13 63921.13 0 1 1 -127842.26 0"/>
<path id="N" d="M 8818899.87 19050000.00 m -63921.13 0 a 63921.13 63921.13 0 1 1 127842.26 0a 63921.13 63921.13 0 1 1 -127842.26 0"/>
<path id="N" d="M 7952601.87 14455390.00 m -63921.13 0 a 63921.13 63921.13 0 1 1 127842.26 0a 63921.13 63921.13 0 1 1 -127842.26 0"/>
<path id="N" d="M 8267713.87 15354326.00 m -63921.13 0 a 63921.13 63921.13 0 1 1 127842.26 0a 63921.13 63921.13 0 1 1 -127842.26 0"/>
<path id="N" d="M 6549999.87 15150000.00 m -63921.13 0 a 63921.13 63921.13 0 1 1 127842.26 0a 63921.13 63921.13 0 1 1 -127842.26 0"/>
<path id="N" d="M 6626779.87 14800000.00 m -63921.13 0 a 63921.13 63921.13 0 1 1 127842.26 0a 63921.13 63921.13 0 1 1 -127842.26 0"/>
<path id="N" d="M 13049999.87 16850000.00 m -63921.13 0 a 63921.13 63921.13 0 1 1 127842.26 0a 63921.13 63921.13 0 1 1 -127842.26 0"/>
<path id="N" d="M 12649999.87 16850000.00 m -63921.13 0 a 63921.13 63921.13 0 1 1 127842.26 0a 63921.13 63921.13 0 1 1 -127842.26 0"/>
<path id="N" d="M 12992121.87 15354326.00 m -63921.13 0 a 63921.13 63921.13 0 1 1 127842.26 0a 63921.13 63921.13 0 1 1 -127842.26 0"/>
<path id="N" d="M 10848839.87 18825980.00 m -63921.13 0 a 63921.13 63921.13 0 1 1 127842.26 0a 63921.13 63921.13 0 1 1 -127842.26 0"/>
<path id="N" d="M 10845419.87 18598200.00 m -63921.13 0 a 63921.13 63921.13 0 1 1 127842.26 0a 63921.13 63921.13 0 1 1 -127842.26 0"/>
<path id="N" d="M 9930099.87 18408460.00 m -63921.13 0 a 63921.13 63921.13 0 1 1 127842.26 0a 63921.13 63921.13 0 1 1 -127842.26 0"/>
<path id="N" d="M 10433079.87 18985040.00 m -63921.13 0 a 63921.13 63921.13 0 1 1 127842.26 0a 63921.13 63921.13 0 1 1 -127842.26 0"/>
<path id="N" d="M 6949999.87 5050000.00 m -63921.13 0 a 63921.13 63921.13 0 1 1 127842.26 0a 63921.13 63921.13 0 1 1 -127842.26 0"/>
<path id="N" d="M 8423219.87 18800000.00 m -63921.13 0 a 63921.13 63921.13 0 1 1 127842.26 0a 63921.13 63921.13 0 1 1 -127842.26 0"/>
<path id="N" d="M 10369879.87 18650000.00 m -63921.13 0 a 63921.13 63921.13 0 1 1 127842.26 0a 63921.13 63921.13 0 1 1 -127842.26 0"/>
<path id="N" d="M 7381886.87 19488183.00 m -63921.13 0 a 63921.13 63921.13 0 1 1 127842.26 0a 63921.13 63921.13 0 1 1 -127842.26 0"/>
<path id="N" d="M 14504919.87 19493700.00 m -63921.13 0 a 63921.13 63921.13 0 1 1 127842.26 0a 63921.13 63921.13 0 1 1 -127842.26 0"/>
<path id="N" d="M 14279919.87 19493700.00 m -63921.13 0 a 63921.13 63921.13 0 1 1 127842.26 0a 63921.13 63921.13 0 1 1 -127842.26 0"/>
<path id="N" d="M 14054919.87 19493700.00 m -63921.13 0 a 63921.13 63921.13 0 1 1 127842.26 0a 63921.13 63921.13 0 1 1 -127842.26 0"/>
<path id="N" d="M 12167939.87 18037400.00 m -63921.13 0 a 63921.13 63921.13 0 1 1 127842.26 0a 63921.13 63921.13 0 1 1 -127842.26 0"/>
<path id="N" d="M 9446379.87 18569280.00 m -63921.13 0 a 63921.13 63921.13 0 1 1 127842.26 0a 63921.13 63921.13 0 1 1 -127842.26 0"/>
<path id="N" d="M 9123459.87 18569280.00 m -63921.13 0 a 63921.13 63921.13 0 1 1 127842.26 0a 63921.13 63921.13 0 1 1 -127842.26 0"/>
<path id="N" d="M 14649999.87 21000000.00 m -63921.13 0 a 63921.13 63921.13 0 1 1 127842.26 0a 63921.13 63921.13 0 1 1 -127842.26 0"/>
<path id="N" d="M 8267713.87 22440938.00 m -63921.13 0 a 63921.13 63921.13 0 1 1 127842.26 0a 63921.13 63921.13 0 1 1 -127842.26 0"/>
<path id="N" d="M 7677162.87 22440938.00 m -63921.13 0 a 63921.13 63921.13 0 1 1 127842.26 0a 63921.13 63921.13 0 1 1 -127842.26 0"/>
<path id="N" d="M 5314958.87 21259836.00 m -63921.13 0 a 63921.13 63921.13 0 1 1 127842.26 0a 63921.13 63921.13 0 1 1 -127842.26 0"/>
<path id="N" d="M 10039366.87 21259836.00 m -63921.13 0 a 63921.13 63921.13 0 1 1 127842.26 0a 63921.13 63921.13 0 1 1 -127842.26 0"/>
<path id="N" d="M 4594099.87 20933080.00 m -63921.13 0 a 63921.13 63921.13 0 1 1 127842.26 0a 63921.13 63921.13 0 1 1 -127842.26 0"/>
<path id="N" d="M 8927159.87 20700000.00 m -63921.13 0 a 63921.13 63921.13 0 1 1 127842.26 0a 63921.13 63921.13 0 1 1 -127842.26 0"/>
<path id="N" d="M 7972437.87 21850387.00 m -63921.13 0 a 63921.13 63921.13 0 1 1 127842.26 0a 63921.13 63921.13 0 1 1 -127842.26 0"/>
<path id="N" d="M 6496060.87 22440938.00 m -63921.13 0 a 63921.13 63921.13 0 1 1 127842.26 0a 63921.13 63921.13 0 1 1 -127842.26 0"/>
<path id="N" d="M 5905509.87 22440938.00 m -63921.13 0 a 63921.13 63921.13 0 1 1 127842.26 0a 63921.13 63921.13 0 1 1 -127842.26 0"/>
<path id="N" d="M 8562988.87 21850387.00 m -63921.13 0 a 63921.13 63921.13 0 1 1 127842.26 0a 63921.13 63921.13 0 1 1 -127842.26 0"/>
<path id="N" d="M 10039366.87 22440938.00 m -63921.13 0 a 63921.13 63921.13 0 1 1 127842.26 0a 63921.13 63921.13 0 1 1 -127842.26 0"/>
<path id="N" d="M 8858264.87 22440938.00 m -63921.13 0 a 63921.13 63921.13 0 1 1 127842.26 0a 63921.13 63921.13 0 1 1 -127842.26 0"/>
<path id="N" d="M 7086611.87 22440938.00 m -63921.13 0 a 63921.13 63921.13 0 1 1 127842.26 0a 63921.13 63921.13 0 1 1 -127842.26 0"/>
<path id="N" d="M 14199999.87 17450000.00 m -63921.13 0 a 63921.13 63921.13 0 1 1 127842.26 0a 63921.13 63921.13 0 1 1 -127842.26 0"/>
<path id="N" d="M 14468498.87 17125979.00 m -63921.13 0 a 63921.13 63921.13 0 1 1 127842.26 0a 63921.13 63921.13 0 1 1 -127842.26 0"/>
<path id="N" d="M 6899999.87 17000000.00 m -63921.13 0 a 63921.13 63921.13 0 1 1 127842.26 0a 63921.13 63921.13 0 1 1 -127842.26 0"/>
<path id="N" d="M 7086611.87 17716530.00 m -63921.13 0 a 63921.13 63921.13 0 1 1 127842.26 0a 63921.13 63921.13 0 1 1 -127842.26 0"/>
<path id="N" d="M 7349999.87 17650000.00 m -63921.13 0 a 63921.13 63921.13 0 1 1 127842.26 0a 63921.13 63921.13 0 1 1 -127842.26 0"/>
<path id="N" d="M 15201119.87 17646100.00 m -63921.13 0 a 63921.13 63921.13 0 1 1 127842.26 0a 63921.13 63921.13 0 1 1 -127842.26 0"/>
<path id="N" d="M 4558459.87 17933660.00 m -63921.13 0 a 63921.13 63921.13 0 1 1 127842.26 0a 63921.13 63921.13 0 1 1 -127842.26 0"/>
<path id="N" d="M 5610233.87 21850387.00 m -63921.13 0 a 63921.13 63921.13 0 1 1 127842.26 0a 63921.13 63921.13 0 1 1 -127842.26 0"/>
<path id="N" d="M 7381886.87 21850387.00 m -63921.13 0 a 63921.13 63921.13 0 1 1 127842.26 0a 63921.13 63921.13 0 1 1 -127842.26 0"/>
<path id="N" d="M 6791335.87 21850387.00 m -63921.13 0 a 63921.13 63921.13 0 1 1 127842.26 0a 63921.13 63921.13 0 1 1 -127842.26 0"/>
<path id="N" d="M 6200784.87 21850387.00 m -63921.13 0 a 63921.13 63921.13 0 1 1 127842.26 0a 63921.13 63921.13 0 1 1 -127842.26 0"/>
<path id="N" d="M 8699999.87 17450000.00 m -63921.13 0 a 63921.13 63921.13 0 1 1 127842.26 0a 63921.13 63921.13 0 1 1 -127842.26 0"/>
<path id="N" d="M 15249999.87 17250000.00 m -63921.13 0 a 63921.13 63921.13 0 1 1 127842.26 0a 63921.13 63921.13 0 1 1 -127842.26 0"/>
<path id="N" d="M 4594099.87 19533080.00 m -63921.13 0 a 63921.13 63921.13 0 1 1 127842.26 0a 63921.13 63921.13 0 1 1 -127842.26 0"/>
<path id="N" d="M 10334641.87 5314959.00 m -63921.13 0 a 63921.13 63921.13 0 1 1 127842.26 0a 63921.13 63921.13 0 1 1 -127842.26 0"/>
<path id="N" d="M 9153539.87 5314959.00 m -63921.13 0 a 63921.13 63921.13 0 1 1 127842.26 0a 63921.13 63921.13 0 1 1 -127842.26 0"/>
<path id="N" d="M 11906199.87 5349440.00 m -63921.13 0 a 63921.13 63921.13 0 1 1 127842.26 0a 63921.13 63921.13 0 1 1 -127842.26 0"/>
<path id="N" d="M 13549999.87 4350000.00 m -63921.13 0 a 63921.13 63921.13 0 1 1 127842.26 0a 63921.13 63921.13 0 1 1 -127842.26 0"/>
<path id="N" d="M 12299999.87 4350000.00 m -63921.13 0 a 63921.13 63921.13 0 1 1 127842.26 0a 63921.13 63921.13 0 1 1 -127842.26 0"/>
<path id="N" d="M 12049999.87 4350000.00 m -63921.13 0 a 63921.13 63921.13 0 1 1 127842.26 0a 63921.13 63921.13 0 1 1 -127842.26 0"/>
<path id="N" d="M 11656199.87 4549440.00 m -63921.13 0 a 63921.13 63921.13 0 1 1 127842.26 0a 63921.13 63921.13 0 1 1 -127842.26 0"/>
<path id="N" d="M 13549999.87 5150000.00 m -63921.13 0 a 63921.13 63921.13 0 1 1 127842.26 0a 63921.13 63921.13 0 1 1 -127842.26 0"/>
<path id="N" d="M 12299999.87 5150000.00 m -63921.13 0 a 63921.13 63921.13 0 1 1 127842.26 0a 63921.13 63921.13 0 1 1 -127842.26 0"/>
<path id="N" d="M 12656199.87 5349440.00 m -63921.13 0 a 63921.13 63921.13 0 1 1 127842.26 0a 63921.13 63921.13 0 1 1 -127842.26 0"/>
<path id="N" d="M 11299999.87 5150000.00 m -63921.13 0 a 63921.13 63921.13 0 1 1 127842.26 0a 63921.13 63921.13 0 1 1 -127842.26 0"/>
<path id="N" d="M 11656199.87 5349440.00 m -63921.13 0 a 63921.13 63921.13 0 1 1 127842.26 0a 63921.13 63921.13 0 1 1 -127842.26 0"/>
<path id="N" d="M 7381886.87 5314959.00 m -63921.13 0 a 63921.13 63921.13 0 1 1 127842.26 0a 63921.13 63921.13 0 1 1 -127842.26 0"/>
<path id="N" d="M 12049999.87 5150000.00 m -63921.13 0 a 63921.13 63921.13 0 1 1 127842.26 0a 63921.13 63921.13 0 1 1 -127842.26 0"/>
<path id="N" d="M 11906199.87 4549440.00 m -63921.13 0 a 63921.13 63921.13 0 1 1 127842.26 0a 63921.13 63921.13 0 1 1 -127842.26 0"/>
<path id="N" d="M 13056199.87 4349440.00 m -63921.13 0 a 63921.13 63921.13 0 1 1 127842.26 0a 63921.13 63921.13 0 1 1 -127842.26 0"/>
<path id="N" d="M 11806199.87 4349440.00 m -63921.13 0 a 63921.13 63921.13 0 1 1 127842.26 0a 63921.13 63921.13 0 1 1 -127842.26 0"/>
<path id="N" d="M 11556199.87 4349440.00 m -63921.13 0 a 63921.13 63921.13 0 1 1 127842.26 0a 63921.13 63921.13 0 1 1 -127842.26 0"/>
<path id="N" d="M 6649999.87 4350000.00 m -63921.13 0 a 63921.13 63921.13 0 1 1 127842.26 0a 63921.13 63921.13 0 1 1 -127842.26 0"/>
<path id="N" d="M 6349999.87 4350000.00 m -63921.13 0 a 63921.13 63921.13 0 1 1 127842.26 0a 63921.13 63921.13 0 1 1 -127842.26 0"/>
<path id="N" d="M 13306199.87 4349440.00 m -63921.13 0 a 63921.13 63921.13 0 1 1 127842.26 0a 63921.13 63921.13 0 1 1 -127842.26 0"/>
<path id="N" d="M 6949999.87 4350000.00 m -63921.13 0 a 63921.13 63921.13 0 1 1 127842.26 0a 63921.13 63921.13 0 1 1 -127842.26 0"/>
<path id="N" d="M 12656199.87 4549440.00 m -63921.13 0 a 63921.13 63921.13 0 1 1 127842.26 0a 63921.13 63921.13 0 1 1 -127842.26 0"/>
<path id="N" d="M 13406199.87 4549440.00 m -63921.13 0 a 63921.13 63921.13 0 1 1 127842.26 0a 63921.13 63921.13 0 1 1 -127842.26 0"/>
<path id="N" d="M 13156199.87 4549440.00 m -63921.13 0 a 63921.13 63921.13 0 1 1 127842.26 0a 63921.13 63921.13 0 1 1 -127842.26 0"/>
<path id="N" d="M 12906199.87 4549440.00 m -63921.13 0 a 63921.13 63921.13 0 1 1 127842.26 0a 63921.13 63921.13 0 1 1 -127842.26 0"/>
<path id="N" d="M 12806199.87 4349440.00 m -63921.13 0 a 63921.13 63921.13 0 1 1 127842.26 0a 63921.13 63921.13 0 1 1 -127842.26 0"/>
<path id="N" d="M 12556199.87 4349440.00 m -63921.13 0 a 63921.13 63921.13 0 1 1 127842.26 0a 63921.13 63921.13 0 1 1 -127842.26 0"/>
<path id="N" d="M 11299999.87 4350000.00 m -63921.13 0 a 63921.13 63921.13 0 1 1 127842.26 0a 63921.13 63921.13 0 1 1 -127842.26 0"/>
<path id="N" d="M 12656199.87 4949440.00 m -63921.13 0 a 63921.13 63921.13 0 1 1 127842.26 0a 63921.13 63921.13 0 1 1 -127842.26 0"/>
<path id="N" d="M 13649999.87 4950000.00 m -63921.13 0 a 63921.13 63921.13 0 1 1 127842.26 0a 63921.13 63921.13 0 1 1 -127842.26 0"/>
<path id="N" d="M 12806199.87 5149440.00 m -63921.13 0 a 63921.13 63921.13 0 1 1 127842.26 0a 63921.13 63921.13 0 1 1 -127842.26 0"/>
<path id="N" d="M 11906199.87 4949440.00 m -63921.13 0 a 63921.13 63921.13 0 1 1 127842.26 0a 63921.13 63921.13 0 1 1 -127842.26 0"/>
<path id="N" d="M 11656199.87 4949440.00 m -63921.13 0 a 63921.13 63921.13 0 1 1 127842.26 0a 63921.13 63921.13 0 1 1 -127842.26 0"/>
<path id="N" d="M 12906199.87 4949440.00 m -63921.13 0 a 63921.13 63921.13 0 1 1 127842.26 0a 63921.13 63921.13 0 1 1 -127842.26 0"/>
<path id="N" d="M 12556199.87 5149440.00 m -63921.13 0 a 63921.13 63921.13 0 1 1 127842.26 0a 63921.13 63921.13 0 1 1 -127842.26 0"/>
<path id="N" d="M 6649999.87 5050000.00 m -63921.13 0 a 63921.13 63921.13 0 1 1 127842.26 0a 63921.13 63921.13 0 1 1 -127842.26 0"/>
<path id="N" d="M 6349999.87 5050000.00 m -63921.13 0 a 63921.13 63921.13 0 1 1 127842.26 0a 63921.13 63921.13 0 1 1 -127842.26 0"/>
<path id="N" d="M 11556199.87 5149440.00 m -63921.13 0 a 63921.13 63921.13 0 1 1 127842.26 0a 63921.13 63921.13 0 1 1 -127842.26 0"/>
<path id="N" d="M 13306199.87 5149440.00 m -63921.13 0 a 63921.13 63921.13 0 1 1 127842.26 0a 63921.13 63921.13 0 1 1 -127842.26 0"/>
<path id="N" d="M 13056199.87 5149440.00 m -63921.13 0 a 63921.13 63921.13 0 1 1 127842.26 0a 63921.13 63921.13 0 1 1 -127842.26 0"/>
<path id="N" d="M 11806199.87 5149440.00 m -63921.13 0 a 63921.13 63921.13 0 1 1 127842.26 0a 63921.13 63921.13 0 1 1 -127842.26 0"/>
<path id="N" d="M 13156199.87 4949440.00 m -63921.13 0 a 63921.13 63921.13 0 1 1 127842.26 0a 63921.13 63921.13 0 1 1 -127842.26 0"/>
<path id="N" d="M 12149999.87 5350000.00 m -63921.13 0 a 63921.13 63921.13 0 1 1 127842.26 0a 63921.13 63921.13 0 1 1 -127842.26 0"/>
<path id="N" d="M 13156199.87 5349440.00 m -63921.13 0 a 63921.13 63921.13 0 1 1 127842.26 0a 63921.13 63921.13 0 1 1 -127842.26 0"/>
<path id="N" d="M 12906199.87 5349440.00 m -63921.13 0 a 63921.13 63921.13 0 1 1 127842.26 0a 63921.13 63921.13 0 1 1 -127842.26 0"/>
<path id="N" d="M 6349999.87 5400000.00 m -63921.13 0 a 63921.13 63921.13 0 1 1 127842.26 0a 63921.13 63921.13 0 1 1 -127842.26 0"/>
<path id="N" d="M 13649999.87 5350000.00 m -63921.13 0 a 63921.13 63921.13 0 1 1 127842.26 0a 63921.13 63921.13 0 1 1 -127842.26 0"/>
<path id="N" d="M 12399999.87 5350000.00 m -63921.13 0 a 63921.13 63921.13 0 1 1 127842.26 0a 63921.13 63921.13 0 1 1 -127842.26 0"/>
<path id="N" d="M 6649999.87 5400000.00 m -63921.13 0 a 63921.13 63921.13 0 1 1 127842.26 0a 63921.13 63921.13 0 1 1 -127842.26 0"/>
<path id="N" d="M 11399999.87 5350000.00 m -63921.13 0 a 63921.13 63921.13 0 1 1 127842.26 0a 63921.13 63921.13 0 1 1 -127842.26 0"/>
<path id="N" d="M 12399999.87 4950000.00 m -63921.13 0 a 63921.13 63921.13 0 1 1 127842.26 0a 63921.13 63921.13 0 1 1 -127842.26 0"/>
<path id="N" d="M 13406199.87 4949440.00 m -63921.13 0 a 63921.13 63921.13 0 1 1 127842.26 0a 63921.13 63921.13 0 1 1 -127842.26 0"/>
<path id="N" d="M 12149999.87 4950000.00 m -63921.13 0 a 63921.13 63921.13 0 1 1 127842.26 0a 63921.13 63921.13 0 1 1 -127842.26 0"/>
<path id="N" d="M 13406199.87 5349440.00 m -63921.13 0 a 63921.13 63921.13 0 1 1 127842.26 0a 63921.13 63921.13 0 1 1 -127842.26 0"/>
<path id="N" d="M 11399999.87 4950000.00 m -63921.13 0 a 63921.13 63921.13 0 1 1 127842.26 0a 63921.13 63921.13 0 1 1 -127842.26 0"/>
<path id="N" d="M 9841399.87 10909060.00 m -63921.13 0 a 63921.13 63921.13 0 1 1 127842.26 0a 63921.13 63921.13 0 1 1 -127842.26 0"/>
<path id="N" d="M 9099999.87 16300000.00 m -63921.13 0 a 63921.13 63921.13 0 1 1 127842.26 0a 63921.13 63921.13 0 1 1 -127842.26 0"/>
<path id="N" d="M 7549999.87 20500000.00 m -63921.13 0 a 63921.13 63921.13 0 1 1 127842.26 0a 63921.13 63921.13 0 1 1 -127842.26 0"/>
<path id="N" d="M 7970079.87 20523220.00 m -63921.13 0 a 63921.13 63921.13 0 1 1 127842.26 0a 63921.13 63921.13 0 1 1 -127842.26 0"/>
<path id="N" d="M 10350000.00 14536079.00 L 10326108.19 14545975.29 L 9965066.00 14184934.00 L 9950000.00 14178693.00 L 8808825.00 14178693.00 L 8443806.00 13813674.00 L 8428740.00 13807433.00 L 6555095.37 13807433.00 L 6545199.00 13783541.00 A 63921.13 63921.13 0 1 0 6545199.00 13873939.00 L 6555095.37 13850047.00 L 8419915.00 13850047.00 L 8784934.00 14215066.00 L 8800000.00 14221307.00 L 9941174.98 14221307.00 L 10295975.29 14576108.19 L 10286079.00 14600000.00 A 63920.91 63920.91 0 1 0 10350000.00 14536079.00  z"/>
<path id="N" d="M 8423661.76 15954120.00 L 10350000.00 15954121.00 L 10388269.00 15938269.00 L 10966837.03 15359700.00 L 11041235.48 15359700.00 L 11044014.00 15373669.00 A 240860.29 240860.29 0 0 0 11266529.00 15522348.00 L 12132671.00 15522348.00 A 240838.32 240838.32 0 0 0 12132671.00 15040652.00 L 11266529.00 15040652.00 A 240838.32 240838.32 0 0 0 11044014.00 15189331.00 L 11031656.15 15251460.00 L 10944420.00 15251459.00 L 10906150.29 15267312.71 L 10327582.03 15845880.00 L 8423661.76 15845880.00 L 8400000.00 15836079.00 A 63920.91 63920.91 0 0 0 8400000.00 15963921.00 L 8423661.76 15954120.00  z"/>
<path id="N" d="M 8502360.00 17500019.00 L 8478468.06 17509915.35 L 8382306.00 17413754.00 L 8367240.00 17407513.00 L 7505095.37 17407513.00 L 7495199.00 17383621.00 A 63921.13 63921.13 0 1 0 7495199.00 17474019.00 L 7505095.37 17450127.00 L 8358414.95 17450127.00 L 8448335.35 17540048.06 L 8438439.00 17563940.00 A 63920.91 63920.91 0 1 0 8502360.00 17500019.00  z"/>
<path id="N" d="M 10399999.87 16200000.00 m -63921.13 0 a 63921.13 63921.13 0 1 1 127842.26 0a 63921.13 63921.13 0 1 1 -127842.26 0"/>
<path id="N" d="M 13490944.87 18050000.00 m -63921.13 0 a 63921.13 63921.13 0 1 1 127842.26 0a 63921.13 63921.13 0 1 1 -127842.26 0"/>
<path id="N" d="M 7349999.87 18450000.00 m -63921.13 0 a 63921.13 63921.13 0 1 1 127842.26 0a 63921.13 63921.13 0 1 1 -127842.26 0"/>
<path id="N" d="M 12508459.87 14634060.00 m -63921.13 0 a 63921.13 63921.13 0 1 1 127842.26 0a 63921.13 63921.13 0 1 1 -127842.26 0"/>
<path id="N" d="M 10393699.87 12661640.00 m -63921.13 0 a 63921.13 63921.13 0 1 1 127842.26 0a 63921.13 63921.13 0 1 1 -127842.26 0"/>
<path id="N" d="M 4449999.87 8800000.00 m -63921.13 0 a 63921.13 63921.13 0 1 1 127842.26 0a 63921.13 63921.13 0 1 1 -127842.26 0"/>
<path id="N" d="M 4594099.87 18666920.00 m -63921.13 0 a 63921.13 63921.13 0 1 1 127842.26 0a 63921.13 63921.13 0 1 1 -127842.26 0"/>
<path id="N" d="M 7751959.87 20700000.00 m -63921.13 0 a 63921.13 63921.13 0 1 1 127842.26 0a 63921.13 63921.13 0 1 1 -127842.26 0"/>
<path id="N" d="M 8149999.87 20700000.00 m -63921.13 0 a 63921.13 63921.13 0 1 1 127842.26 0a 63921.13 63921.13 0 1 1 -127842.26 0"/>
<path id="N" d="M 10213921.00 17200000.00 L 10204024.45 17176107.55 L 10901345.00 16478787.00 L 13450000.00 16478787.00 L 13465066.00 16472546.00 L 13992722.74 15944890.00 L 15537401.00 15944890.00 L 15537401.00 15551190.00 L 13962599.00 15551190.00 L 13962599.00 15914748.26 L 13441174.99 16436173.00 L 10892520.00 16436173.00 L 10877454.00 16442414.00 L 10173892.45 17145975.55 L 10150000.00 17136079.00 L 10126107.55 17145975.55 L 9666446.00 16686314.00 L 9651380.00 16680073.00 L 8442975.37 16680073.00 L 8433079.00 16656181.00 A 63921.13 63921.13 0 1 0 8433079.00 16746579.00 L 8442975.37 16722687.00 L 9642555.00 16722687.00 L 10095975.55 17176107.55 L 10086079.00 17200000.00 A 63920.91 63920.91 0 0 0 10213921.00 17200000.00  z"/>
<path id="N" d="M 6447299.87 17250080.00 m -63921.13 0 a 63921.13 63921.13 0 1 1 127842.26 0a 63921.13 63921.13 0 1 1 -127842.26 0"/>
<path id="N" d="M 10337319.00 13116339.00 L 10347215.37 13092447.00 L 11028860.00 13092447.00 L 11043926.00 13086206.00 L 12215066.00 11915066.00 L 12221307.00 11900000.00 L 12221307.00 10558825.00 L 12468664.74 10311467.26 L 12521617.00 10346849.00 L 12598424.00 10362127.00 L 13188976.00 10362127.00 A 200706.53 200706.53 0 0 0 13188976.00 9960713.00 L 12598424.00 9960713.00 A 200706.53 200706.53 0 0 0 12412995.00 10238227.00 L 12440490.81 10279377.19 L 12184934.00 10534934.00 L 12178693.00 10550000.00 L 12178693.00 11891175.00 L 11020035.00 13049833.00 L 10347215.37 13049833.00 L 10337319.00 13025941.00 A 63921.13 63921.13 0 1 0 10337319.00 13116339.00  z"/>
<path id="N" d="M 8847039.87 12991740.00 m -63921.13 0 a 63921.13 63921.13 0 1 1 127842.26 0a 63921.13 63921.13 0 1 1 -127842.26 0"/>
<path id="N" d="M 10275019.87 10929060.00 m -63921.13 0 a 63921.13 63921.13 0 1 1 127842.26 0a 63921.13 63921.13 0 1 1 -127842.26 0"/>
<path id="N" d="M 11130859.87 15697640.00 m -63921.13 0 a 63921.13 63921.13 0 1 1 127842.26 0a 63921.13 63921.13 0 1 1 -127842.26 0"/>
<path id="N" d="M 13449999.87 17300000.00 m -63921.13 0 a 63921.13 63921.13 0 1 1 127842.26 0a 63921.13 63921.13 0 1 1 -127842.26 0"/>
<path id="N" d="M 7498611.87 12948612.00 m -63921.13 0 a 63921.13 63921.13 0 1 1 127842.26 0a 63921.13 63921.13 0 1 1 -127842.26 0"/>
<path id="N" d="M 12549999.87 16150000.00 m -63921.13 0 a 63921.13 63921.13 0 1 1 127842.26 0a 63921.13 63921.13 0 1 1 -127842.26 0"/>
<path id="N" d="M 8959379.00 13765541.00 L 8935716.86 13755739.84 L 8154120.00 12974142.02 L 8154120.00 10150000.00 L 8138267.29 10111730.29 L 7269128.98 9242591.10 L 7272045.00 9238227.00 A 200704.69 200704.69 0 0 0 7086616.00 8960713.00 L 6496064.00 8960713.00 A 200706.53 200706.53 0 0 0 6496064.00 9362127.00 L 7086616.00 9362127.00 L 7163423.00 9346849.00 L 7197524.87 9324062.75 L 8045880.00 10172417.02 L 8045880.00 11795880.00 L 6160085.76 11795880.00 L 6136424.00 11786079.00 A 63920.91 63920.91 0 0 0 6136424.00 11913921.00 L 6160085.76 11904120.00 L 8045880.00 11904120.00 L 8045879.00 12996560.00 L 8061731.00 13034829.00 L 8859179.84 13832276.86 L 8868981.00 13855939.00 A 63921.13 63921.13 0 0 0 8959379.00 13765541.00  z"/>
<path id="N" d="M 6055986.00 16948469.00 L 6063554.19 16910420.00 L 6220361.00 16910421.00 L 6258629.71 16894567.29 L 6753639.60 16399539.03 L 6777299.00 16389739.00 A 63921.13 63921.13 0 0 0 6686901.00 16299341.00 L 6677099.37 16323004.29 L 6197942.38 16802180.00 L 6063554.19 16802180.00 L 6055986.00 16764131.00 A 240860.29 240860.29 0 0 0 5833471.00 16615452.00 L 4967329.00 16615452.00 A 240838.32 240838.32 0 0 0 4967329.00 17097148.00 L 5833471.00 17097148.00 A 240860.29 240860.29 0 0 0 6055986.00 16948469.00  z"/>
<path id="N" d="M 14899999.87 18150000.00 m -63921.13 0 a 63921.13 63921.13 0 1 1 127842.26 0a 63921.13 63921.13 0 1 1 -127842.26 0"/>
<path id="N" d="M 13845274.87 20300000.00 m -63921.13 0 a 63921.13 63921.13 0 1 1 127842.26 0a 63921.13 63921.13 0 1 1 -127842.26 0"/>
<path id="N" d="M 10095199.00 13945199.00 L 10105095.37 13921307.00 L 10450000.00 13921307.00 L 10465066.00 13915066.00 L 12633187.00 11746966.00 L 12639427.00 11731900.00 L 12639427.00 11362127.00 L 13188976.00 11362127.00 A 200706.53 200706.53 0 0 0 13188976.00 10960713.00 L 12598424.00 10960713.00 A 200706.53 200706.53 0 0 0 12596813.00 11361806.55 L 12596813.00 11723073.95 L 10441175.05 13878693.00 L 10105095.37 13878693.00 L 10095199.00 13854801.00 A 63921.13 63921.13 0 1 0 10095199.00 13945199.00  z"/>
<path id="N" d="M 9954801.00 15254801.00 L 9944904.63 15278693.00 L 9341725.00 15278693.00 L 8297966.00 14234934.00 L 8282900.00 14228693.00 L 6126185.94 14228693.00 L 6059684.55 14162192.20 L 6069581.00 14138300.00 A 63920.91 63920.91 0 1 0 6005660.00 14202221.00 L 6029552.20 14192324.55 L 6102294.00 14265067.00 L 6117360.00 14271307.00 L 8274075.00 14271307.00 L 9317834.00 15315066.00 L 9332900.00 15321307.00 L 9944904.63 15321307.00 L 9954801.00 15345199.00 A 63921.13 63921.13 0 1 0 9954801.00 15254801.00  z"/>
<path id="N" d="M 13313921.00 8350000.00 L 13302463.71 8322339.61 L 13330897.00 8303341.00 A 200706.53 200706.53 0 0 0 13374405.00 8084613.00 L 13348630.25 8046038.55 L 13365281.00 8005840.00 A 63920.91 63920.91 0 0 0 13256161.00 7960641.00 L 13251019.26 7973054.28 L 13188976.00 7960713.00 L 12947820.00 7960713.00 L 12947820.00 7362127.00 L 13188976.00 7362127.00 A 200706.53 200706.53 0 0 0 13188976.00 6960713.00 L 12598424.00 6960713.00 A 200706.53 200706.53 0 1 0 12598424.00 7362127.00 L 12839580.00 7362127.00 L 12839580.00 7960713.00 L 12598424.00 7960713.00 A 200706.53 200706.53 0 1 0 12598424.00 8362127.00 L 12791102.16 8362127.00 L 12804801.00 8395199.00 L 12850000.00 8413921.00 L 12895199.00 8395199.00 L 12908897.84 8362127.00 L 12991102.16 8362127.00 L 13004801.00 8395199.00 L 13050000.00 8413921.00 L 13095199.00 8395199.00 L 13108897.84 8362127.00 L 13190940.31 8361736.27 L 13204801.00 8395199.00 A 63921.13 63921.13 0 0 0 13313921.00 8350000.00  z"/>
<path id="N" d="M 13150000.00 17512859.00 L 13126338.24 17522660.00 L 12827318.00 17522660.00 L 12314306.34 17009648.34 L 12355186.00 16948469.00 A 240855.93 240855.93 0 0 0 12132671.00 16615452.00 L 11266529.00 16615452.00 A 240838.32 240838.32 0 0 0 11266529.00 17097148.00 L 12132671.00 17097148.00 L 12224840.00 17078815.00 L 12228171.15 17076589.15 L 12741535.72 17589953.72 L 12754801.00 17621979.00 L 12800000.00 17640701.00 L 12823661.76 17630900.00 L 13126338.24 17630900.00 L 13150000.00 17640701.00 A 63921.13 63921.13 0 0 0 13150000.00 17512859.00  z"/>
<path id="N" d="M 14795199.00 16849661.00 L 14771307.00 16839764.63 L 14771307.00 16732290.00 L 15537401.00 16732290.00 L 15537401.00 16338590.00 L 13962599.00 16338590.00 L 13962599.00 16732290.00 L 14728693.00 16732290.00 L 14728693.00 16839764.63 L 14704801.00 16849661.00 A 63921.13 63921.13 0 1 0 14795199.00 16849661.00  z"/>
<path id="N" d="M 6899999.87 16650000.00 m -63921.13 0 a 63921.13 63921.13 0 1 1 127842.26 0a 63921.13 63921.13 0 1 1 -127842.26 0"/>
<path id="N" d="M 10693939.87 12158660.00 m -63921.13 0 a 63921.13 63921.13 0 1 1 127842.26 0a 63921.13 63921.13 0 1 1 -127842.26 0"/>
<path id="N" d="M 8423219.87 19550000.00 m -63921.13 0 a 63921.13 63921.13 0 1 1 127842.26 0a 63921.13 63921.13 0 1 1 -127842.26 0"/>
<path id="N" d="M 7099999.87 19573220.00 m -63921.13 0 a 63921.13 63921.13 0 1 1 127842.26 0a 63921.13 63921.13 0 1 1 -127842.26 0"/>
<path id="N" d="M 5999999.87 17250000.00 m -63921.13 0 a 63921.13 63921.13 0 1 1 127842.26 0a 63921.13 63921.13 0 1 1 -127842.26 0"/>
<path id="N" d="M 4549999.87 19100000.00 m -63921.13 0 a 63921.13 63921.13 0 1 1 127842.26 0a 63921.13 63921.13 0 1 1 -127842.26 0"/>
<path id="N" d="M 5906101.87 19617354.00 m -63921.13 0 a 63921.13 63921.13 0 1 1 127842.26 0a 63921.13 63921.13 0 1 1 -127842.26 0"/>
<path id="N" d="M 7077159.87 20000000.00 m -63921.13 0 a 63921.13 63921.13 0 1 1 127842.26 0a 63921.13 63921.13 0 1 1 -127842.26 0"/>
<path id="N" d="M 4499999.87 15200000.00 m -63921.13 0 a 63921.13 63921.13 0 1 1 127842.26 0a 63921.13 63921.13 0 1 1 -127842.26 0"/>
<path id="N" d="M 12649999.87 17223220.00 m -63921.13 0 a 63921.13 63921.13 0 1 1 127842.26 0a 63921.13 63921.13 0 1 1 -127842.26 0"/>
<path id="N" d="M 13049999.87 17223220.00 m -63921.13 0 a 63921.13 63921.13 0 1 1 127842.26 0a 63921.13 63921.13 0 1 1 -127842.26 0"/>
<path id="N" d="M 4615739.87 15842520.00 m -63921.13 0 a 63921.13 63921.13 0 1 1 127842.26 0a 63921.13 63921.13 0 1 1 -127842.26 0"/>
<path id="N" d="M 11572819.87 13450000.00 m -63921.13 0 a 63921.13 63921.13 0 1 1 127842.26 0a 63921.13 63921.13 0 1 1 -127842.26 0"/>
<path id="N" d="M 6999999.87 14450000.00 m -63921.13 0 a 63921.13 63921.13 0 1 1 127842.26 0a 63921.13 63921.13 0 1 1 -127842.26 0"/>
<path id="N" d="M 10849999.87 17450000.00 m -63921.13 0 a 63921.13 63921.13 0 1 1 127842.26 0a 63921.13 63921.13 0 1 1 -127842.26 0"/>
<path id="N" d="M 13849999.87 8350000.00 m -63921.13 0 a 63921.13 63921.13 0 1 1 127842.26 0a 63921.13 63921.13 0 1 1 -127842.26 0"/>
<path id="N" d="M 14049999.87 8350000.00 m -63921.13 0 a 63921.13 63921.13 0 1 1 127842.26 0a 63921.13 63921.13 0 1 1 -127842.26 0"/>
<path id="N" d="M 13649999.87 8350000.00 m -63921.13 0 a 63921.13 63921.13 0 1 1 127842.26 0a 63921.13 63921.13 0 1 1 -127842.26 0"/>
<path id="N" d="M 13501359.87 8005840.00 m -63921.13 0 a 63921.13 63921.13 0 1 1 127842.26 0a 63921.13 63921.13 0 1 1 -127842.26 0"/>
<path id="N" d="M 4449999.87 7800000.00 m -63921.13 0 a 63921.13 63921.13 0 1 1 127842.26 0a 63921.13 63921.13 0 1 1 -127842.26 0"/>
<path id="N" d="M 14899999.87 7950000.00 m -63921.13 0 a 63921.13 63921.13 0 1 1 127842.26 0a 63921.13 63921.13 0 1 1 -127842.26 0"/>
<path id="N" d="M 14249999.87 18450000.00 m -63921.13 0 a 63921.13 63921.13 0 1 1 127842.26 0a 63921.13 63921.13 0 1 1 -127842.26 0"/>
<path id="N" d="M 6449999.87 18700000.00 m -63921.13 0 a 63921.13 63921.13 0 1 1 127842.26 0a 63921.13 63921.13 0 1 1 -127842.26 0"/>
<path id="N" d="M 5049999.87 20500000.00 m -63921.13 0 a 63921.13 63921.13 0 1 1 127842.26 0a 63921.13 63921.13 0 1 1 -127842.26 0"/>
<path id="N" d="M 14899999.87 8150000.00 m -63921.13 0 a 63921.13 63921.13 0 1 1 127842.26 0a 63921.13 63921.13 0 1 1 -127842.26 0"/>
<path id="N" d="M 13449999.87 8350000.00 m -63921.13 0 a 63921.13 63921.13 0 1 1 127842.26 0a 63921.13 63921.13 0 1 1 -127842.26 0"/>
<path id="N" d="M 5249999.87 11900000.00 m -63921.13 0 a 63921.13 63921.13 0 1 1 127842.26 0a 63921.13 63921.13 0 1 1 -127842.26 0"/>
<path id="N" d="M 14899999.87 8450000.00 m -63921.13 0 a 63921.13 63921.13 0 1 1 127842.26 0a 63921.13 63921.13 0 1 1 -127842.26 0"/>
<path id="N" d="M 13351359.87 8605840.00 m -63921.13 0 a 63921.13 63921.13 0 1 1 127842.26 0a 63921.13 63921.13 0 1 1 -127842.26 0"/>
<path id="N" d="M 8976379.87 11449045.00 m -63921.13 0 a 63921.13 63921.13 0 1 1 127842.26 0a 63921.13 63921.13 0 1 1 -127842.26 0"/>
<path id="N" d="M 13751359.87 8605840.00 m -63921.13 0 a 63921.13 63921.13 0 1 1 127842.26 0a 63921.13 63921.13 0 1 1 -127842.26 0"/>
<path id="N" d="M 13951359.87 8605840.00 m -63921.13 0 a 63921.13 63921.13 0 1 1 127842.26 0a 63921.13 63921.13 0 1 1 -127842.26 0"/>
<path id="N" d="M 13551359.87 8605840.00 m -63921.13 0 a 63921.13 63921.13 0 1 1 127842.26 0a 63921.13 63921.13 0 1 1 -127842.26 0"/>
<path id="N" d="M 5299999.87 8800000.00 m -63921.13 0 a 63921.13 63921.13 0 1 1 127842.26 0a 63921.13 63921.13 0 1 1 -127842.26 0"/>
<path id="N" d="M 13701359.87 8005840.00 m -63921.13 0 a 63921.13 63921.13 0 1 1 127842.26 0a 63921.13 63921.13 0 1 1 -127842.26 0"/>
<path id="N" d="M 13901359.87 8005840.00 m -63921.13 0 a 63921.13 63921.13 0 1 1 127842.26 0a 63921.13 63921.13 0 1 1 -127842.26 0"/>
<path id="N" d="M 4899999.87 11900000.00 m -63921.13 0 a 63921.13 63921.13 0 1 1 127842.26 0a 63921.13 63921.13 0 1 1 -127842.26 0"/>
<path id="N" d="M 5149999.87 11300000.00 m -63921.13 0 a 63921.13 63921.13 0 1 1 127842.26 0a 63921.13 63921.13 0 1 1 -127842.26 0"/>
<path id="N" d="M 14899999.87 8700000.00 m -63921.13 0 a 63921.13 63921.13 0 1 1 127842.26 0a 63921.13 63921.13 0 1 1 -127842.26 0"/>
<path id="N" d="M 5833471.00 18977652.00 L 4967329.00 18977652.00 A 240838.32 240838.32 0 0 0 4967329.00 19459348.00 L 5833471.00 19459348.00 A 240860.29 240860.29 0 0 0 5833471.00 18977652.00  z"/>
<path id="N" d="M 12132671.00 17402852.00 L 11266529.00 17402852.00 A 240838.32 240838.32 0 1 0 11266529.00 17884548.00 L 12132671.00 17884548.00 A 240860.29 240860.29 0 1 0 12132671.00 17402852.00  z"/>
<path id="N" d="M 12132671.00 15828052.00 L 11266529.00 15828052.00 A 240838.32 240838.32 0 0 0 11266529.00 16309748.00 L 12132671.00 16309748.00 A 240860.29 240860.29 0 0 0 12132671.00 15828052.00  z"/>
<path id="N" d="M 7086616.00 6960713.00 L 6496064.00 6960713.00 A 200706.53 200706.53 0 0 0 6496064.00 7362127.00 L 7086616.00 7362127.00 A 200709.51 200709.51 0 0 0 7086616.00 6960713.00  z"/>
<path id="N" d="M 13188976.00 5960713.00 L 12598424.00 5960713.00 A 200706.53 200706.53 0 1 0 12598424.00 6362127.00 L 13188976.00 6362127.00 A 200709.51 200709.51 0 0 0 13188976.00 5960713.00  z"/>
<path id="N" d="M 7086616.00 9960713.00 L 6496064.00 9960713.00 A 200706.53 200706.53 0 0 0 6496064.00 10362127.00 L 7086616.00 10362127.00 A 200709.51 200709.51 0 1 0 7086616.00 9960713.00  z"/>
<path id="N" d="M 12132671.00 18190252.00 L 11266529.00 18190252.00 A 240838.32 240838.32 0 1 0 11266529.00 18671948.00 L 12132671.00 18671948.00 A 240860.29 240860.29 0 1 0 12132671.00 18190252.00  z"/>
<path id="N" d="M 7086616.00 5960713.00 L 6496064.00 5960713.00 A 200706.53 200706.53 0 0 0 6496064.00 6362127.00 L 7086616.00 6362127.00 A 200709.51 200709.51 0 0 0 7086616.00 5960713.00  z"/>
<path id="N" d="M 7086616.00 7960713.00 L 6496064.00 7960713.00 A 200706.53 200706.53 0 0 0 6496064.00 8362127.00 L 7086616.00 8362127.00 A 200709.51 200709.51 0 1 0 7086616.00 7960713.00  z"/>
<path id="N" d="M 15537401.00 14763790.00 L 13962599.00 14763790.00 L 13962599.00 15157490.00 L 15537401.00 15157490.00 L 15537401.00 14763790.00  z"/>
<path id="N" d="M 15537401.00 13976370.00 L 13962599.00 13976370.00 L 13962599.00 14370070.00 L 15537401.00 14370070.00 L 15537401.00 13976370.00  z"/>
<path id="N" d="M 10249999.87 4650000.00 m -63921.13 0 a 63921.13 63921.13 0 1 1 127842.26 0a 63921.13 63921.13 0 1 1 -127842.26 0"/>
<path id="N" d="M 10049999.87 4650000.00 m -63921.13 0 a 63921.13 63921.13 0 1 1 127842.26 0a 63921.13 63921.13 0 1 1 -127842.26 0"/>
<path id="N" d="M 9849999.87 4650000.00 m -63921.13 0 a 63921.13 63921.13 0 1 1 127842.26 0a 63921.13 63921.13 0 1 1 -127842.26 0"/>
<path id="N" d="M 9949999.87 4500000.00 m -63921.13 0 a 63921.13 63921.13 0 1 1 127842.26 0a 63921.13 63921.13 0 1 1 -127842.26 0"/>
<path id="N" d="M 9749999.87 4500000.00 m -63921.13 0 a 63921.13 63921.13 0 1 1 127842.26 0a 63921.13 63921.13 0 1 1 -127842.26 0"/>
<path id="N" d="M 9549999.87 4500000.00 m -63921.13 0 a 63921.13 63921.13 0 1 1 127842.26 0a 63921.13 63921.13 0 1 1 -127842.26 0"/>
<path id="N" d="M 9949999.87 4800000.00 m -63921.13 0 a 63921.13 63921.13 0 1 1 127842.26 0a 63921.13 63921.13 0 1 1 -127842.26 0"/>
<path id="N" d="M 9749999.87 4800000.00 m -63921.13 0 a 63921.13 63921.13 0 1 1 127842.26 0a 63921.13 63921.13 0 1 1 -127842.26 0"/>
<path id="N" d="M 9549999.87 4800000.00 m -63921.13 0 a 63921.13 63921.13 0 1 1 127842.26 0a 63921.13 63921.13 0 1 1 -127842.26 0"/>
<path id="N" d="M 15149999.87 9250000.00 m -63921.13 0 a 63921.13 63921.13 0 1 1 127842.26 0a 63921.13 63921.13 0 1 1 -127842.26 0"/>
<path id="N" d="M 14549999.87 9250000.00 m -63921.13 0 a 63921.13 63921.13 0 1 1 127842.26 0a 63921.13 63921.13 0 1 1 -127842.26 0"/>
<path id="N" d="M 14649999.87 9400000.00 m -63921.13 0 a 63921.13 63921.13 0 1 1 127842.26 0a 63921.13 63921.13 0 1 1 -127842.26 0"/>
<path id="N" d="M 14424999.87 9375000.00 m -63921.13 0 a 63921.13 63921.13 0 1 1 127842.26 0a 63921.13 63921.13 0 1 1 -127842.26 0"/>
<path id="N" d="M 10149999.87 4800000.00 m -63921.13 0 a 63921.13 63921.13 0 1 1 127842.26 0a 63921.13 63921.13 0 1 1 -127842.26 0"/>
<path id="N" d="M 14299999.87 9500000.00 m -63921.13 0 a 63921.13 63921.13 0 1 1 127842.26 0a 63921.13 63921.13 0 1 1 -127842.26 0"/>
<path id="N" d="M 15049999.87 9400000.00 m -63921.13 0 a 63921.13 63921.13 0 1 1 127842.26 0a 63921.13 63921.13 0 1 1 -127842.26 0"/>
<path id="N" d="M 9649999.87 4650000.00 m -63921.13 0 a 63921.13 63921.13 0 1 1 127842.26 0a 63921.13 63921.13 0 1 1 -127842.26 0"/>
<path id="N" d="M 9449999.87 4650000.00 m -63921.13 0 a 63921.13 63921.13 0 1 1 127842.26 0a 63921.13 63921.13 0 1 1 -127842.26 0"/>
<path id="N" d="M 10149999.87 4500000.00 m -63921.13 0 a 63921.13 63921.13 0 1 1 127842.26 0a 63921.13 63921.13 0 1 1 -127842.26 0"/>
<path id="N" d="M 8826799.87 10856900.00 m -63921.13 0 a 63921.13 63921.13 0 1 1 127842.26 0a 63921.13 63921.13 0 1 1 -127842.26 0"/>
<path id="N" d="M 14949999.87 9250000.00 m -63921.13 0 a 63921.13 63921.13 0 1 1 127842.26 0a 63921.13 63921.13 0 1 1 -127842.26 0"/>
<path id="N" d="M 14749999.87 9250000.00 m -63921.13 0 a 63921.13 63921.13 0 1 1 127842.26 0a 63921.13 63921.13 0 1 1 -127842.26 0"/>
<path id="N" d="M 14849999.87 9400000.00 m -63921.13 0 a 63921.13 63921.13 0 1 1 127842.26 0a 63921.13 63921.13 0 1 1 -127842.26 0"/>
<path id="N" d="M 11349999.87 21100000.00 m -63921.13 0 a 63921.13 63921.13 0 1 1 127842.26 0a 63921.13 63921.13 0 1 1 -127842.26 0"/>
<path id="N" d="M 10866139.87 12661640.00 m -63921.13 0 a 63921.13 63921.13 0 1 1 127842.26 0a 63921.13 63921.13 0 1 1 -127842.26 0"/>
<path id="N" d="M 10078739.87 12661640.00 m -63921.13 0 a 63921.13 63921.13 0 1 1 127842.26 0a 63921.13 63921.13 0 1 1 -127842.26 0"/>
<path id="N" d="M 12470499.87 14848840.00 m -63921.13 0 a 63921.13 63921.13 0 1 1 127842.26 0a 63921.13 63921.13 0 1 1 -127842.26 0"/>
<path id="N" d="M 8423661.76 15654120.00 L 10300000.00 15654121.00 L 10338269.00 15638269.00 L 11201389.00 14775149.00 L 11217240.00 14736877.59 L 11217240.00 14725144.10 L 11266529.00 14734948.00 L 12132671.00 14734948.00 A 240838.32 240838.32 0 1 0 12132671.00 14253252.00 L 11266529.00 14253252.00 A 240838.32 240838.32 0 0 0 11096224.00 14664405.00 L 11117054.00 14678835.25 L 11109000.00 14698280.00 L 11109000.00 14714462.00 L 10277582.00 15545880.00 L 8423661.76 15545880.00 L 8400000.00 15536079.00 A 63920.91 63920.91 0 0 0 8400000.00 15663921.00 L 8423661.76 15654120.00  z"/>
<path id="N" d="M 9606299.87 12661640.00 m -63921.13 0 a 63921.13 63921.13 0 1 1 127842.26 0a 63921.13 63921.13 0 1 1 -127842.26 0"/>
<path id="N" d="M 12428859.87 15601580.00 m -63921.13 0 a 63921.13 63921.13 0 1 1 127842.26 0a 63921.13 63921.13 0 1 1 -127842.26 0"/>
<path id="N" d="M 8386494.87 16400000.00 m -63921.13 0 a 63921.13 63921.13 0 1 1 127842.26 0a 63921.13 63921.13 0 1 1 -127842.26 0"/>
<path id="N" d="M 9381899.87 10909060.00 m -63921.13 0 a 63921.13 63921.13 0 1 1 127842.26 0a 63921.13 63921.13 0 1 1 -127842.26 0"/>
<path id="N" d="M 12650000.00 21991339.00 L 12454120.00 21991339.00 L 12454120.00 20706300.00 L 12439143.00 20559196.00 L 12396234.00 20417745.00 L 12326554.00 20287383.00 L 12259275.93 20205405.12 L 12302976.00 20176205.00 A 240838.32 240838.32 0 0 0 12132671.00 19765052.00 L 11266529.00 19765052.00 A 240838.32 240838.32 0 1 0 11266529.00 20246748.00 L 12132671.00 20246748.00 L 12152241.29 20242855.34 L 12158175.00 20247725.00 A 648528.70 648528.70 0 0 1 12335662.00 20579779.00 L 12347692.11 20701925.03 L 12345880.00 20706300.00 L 12345880.00 21991339.00 L 12150000.00 21991339.00 L 12150000.00 23408661.00 L 12650000.00 23408661.00 L 12650000.00 21991339.00  z"/>
<path id="N" d="M 12599999.87 15850000.00 m -63921.13 0 a 63921.13 63921.13 0 1 1 127842.26 0a 63921.13 63921.13 0 1 1 -127842.26 0"/>
<path id="N" d="M 12349999.87 13450000.00 m -63921.13 0 a 63921.13 63921.13 0 1 1 127842.26 0a 63921.13 63921.13 0 1 1 -127842.26 0"/>
<path id="N" d="M 6055986.00 17735869.00 L 6063554.19 17697820.00 L 6556300.00 17697821.00 L 6594569.00 17681969.00 L 7636597.01 16639940.00 L 7887078.24 16639940.00 L 7910740.00 16649741.00 A 63920.91 63920.91 0 1 0 7910740.00 16521899.00 L 7887078.24 16531700.00 L 7614180.00 16531700.00 L 7575910.29 16547552.71 L 6533882.01 17589580.00 L 6063554.19 17589580.00 L 6055986.00 17551531.00 A 240860.29 240860.29 0 0 0 5833471.00 17402852.00 L 4967329.00 17402852.00 A 240838.32 240838.32 0 1 0 4967329.00 17884548.00 L 5833471.00 17884548.00 A 240860.29 240860.29 0 0 0 6055986.00 17735869.00  z"/>
<path id="N" d="M 10523339.00 12081801.00 L 10508045.05 12075466.05 L 10485542.87 12052963.87 L 10483542.29 12048137.29 L 9847137.00 11411731.00 L 9808865.59 11395880.00 L 9622417.03 11395880.00 L 9190358.00 10963820.03 L 9190358.00 10882524.90 L 9196695.00 10867226.00 A 63920.91 63920.91 0 0 0 9068853.00 10867226.00 L 9082118.00 10899250.61 L 9082117.00 10986238.00 L 9097969.00 11024507.00 L 9561731.00 11488269.00 L 9600002.41 11504120.00 L 9786450.02 11504120.00 L 10405006.20 12122675.21 L 10407006.00 12127503.00 L 10419675.02 12140172.02 L 10432941.00 12172199.00 A 63921.13 63921.13 0 1 0 10523339.00 12081801.00  z"/>
<path id="N" d="M 13950000.00 10686079.00 L 13926338.24 10695880.00 L 13473661.76 10695880.00 L 13450000.00 10686079.00 A 63920.91 63920.91 0 0 0 13450000.00 10813921.00 L 13473661.76 10804120.00 L 13926338.24 10804120.00 L 13950000.00 10813921.00 A 63921.13 63921.13 0 1 0 13950000.00 10686079.00  z"/>
<path id="N" d="M 13299999.87 20000000.00 m -63921.13 0 a 63921.13 63921.13 0 1 1 127842.26 0a 63921.13 63921.13 0 1 1 -127842.26 0"/>
<path id="N" d="M 14649999.87 20650000.00 m -63921.13 0 a 63921.13 63921.13 0 1 1 127842.26 0a 63921.13 63921.13 0 1 1 -127842.26 0"/>
<path id="N" d="M 14251799.87 18793180.00 m -63921.13 0 a 63921.13 63921.13 0 1 1 127842.26 0a 63921.13 63921.13 0 1 1 -127842.26 0"/>
<path id="N" d="M 14099999.87 20650000.00 m -63921.13 0 a 63921.13 63921.13 0 1 1 127842.26 0a 63921.13 63921.13 0 1 1 -127842.26 0"/>
<path id="N" d="M 14849999.87 17650000.00 m -63921.13 0 a 63921.13 63921.13 0 1 1 127842.26 0a 63921.13 63921.13 0 1 1 -127842.26 0"/>
<path id="N" d="M 14872839.87 17250000.00 m -63921.13 0 a 63921.13 63921.13 0 1 1 127842.26 0a 63921.13 63921.13 0 1 1 -127842.26 0"/>
<path id="N" d="M 14149999.87 17948420.00 m -63921.13 0 a 63921.13 63921.13 0 1 1 127842.26 0a 63921.13 63921.13 0 1 1 -127842.26 0"/>
<path id="N" d="M 11399999.87 9900000.00 m -63921.13 0 a 63921.13 63921.13 0 1 1 127842.26 0a 63921.13 63921.13 0 1 1 -127842.26 0"/>
</g>
</svg>
