<svg width="29.99999842mm" height="49.99999906mm" viewBox="0 0 11811023 19685039"  version="1.1" xmlns="http://www.w3.org/2000/svg" xmlns:xlink="http://www.w3.org/1999/xlink">
<desc>
Origin 0 0 Bound 3937008 3937008 11811023 19685039
</desc>
<g fill-rule="evenodd" fill="rgb(0, 0, 255)" stroke="black" stroke-width="1" transform="translate(0, 19685039) scale(1, -1) translate(-3937008, -3937008)">
<path id="N" d="M 6055980.00 18523271.00 L 6063548.19 18485222.00 L 6464541.00 18485223.00 L 6502810.00 18469371.00 L 8197320.00 16774861.00 L 8213171.00 16736589.59 L 8213172.00 16113403.00 L 8205545.00 16094990.81 L 8205545.00 15547939.00 L 8189694.00 15509670.00 L 8016611.47 15336587.47 L 8006811.00 15312927.00 A 63921.13 63921.13 0 1 0 7916413.00 15403325.00 L 7940073.47 15413125.47 L 8097305.00 15570357.00 L 8097304.00 16105777.00 L 8104931.00 16124189.67 L 8104931.00 16714174.00 L 6442123.00 18376982.00 L 6063548.19 18376982.00 L 6055980.00 18338933.00 A 240860.29 240860.29 0 0 0 5833465.00 18190254.00 L 4967323.00 18190254.00 A 240838.32 240838.32 0 0 0 4967323.00 18671950.00 L 5833465.00 18671950.00 A 240860.29 240860.29 0 0 0 6055980.00 18523271.00  z"/>
<path id="N" d="M 5599999.87 7800000.00 m -63921.13 0 a 63921.13 63921.13 0 1 1 127842.26 0a 63921.13 63921.13 0 1 1 -127842.26 0"/>
<path id="N" d="M 12599999.87 14800000.00 m -63921.13 0 a 63921.13 63921.13 0 1 1 127842.26 0a 63921.13 63921.13 0 1 1 -127842.26 0"/>
<path id="N" d="M 11038889.87 16392040.00 m -63921.13 0 a 63921.13 63921.13 0 1 1 127842.26 0a 63921.13 63921.13 0 1 1 -127842.26 0"/>
<path id="N" d="M 13059054.87 19148244.00 m -63921.13 0 a 63921.13 63921.13 0 1 1 127842.26 0a 63921.13 63921.13 0 1 1 -127842.26 0"/>
<path id="N" d="M 6922834.87 20250000.00 m -63921.13 0 a 63921.13 63921.13 0 1 1 127842.26 0a 63921.13 63921.13 0 1 1 -127842.26 0"/>
<path id="N" d="M 7995199.00 16154801.00 L 7971538.53 16145000.53 L 7688269.00 15861731.00 L 7649997.59 15845880.00 L 7368066.00 15845880.00 L 7274862.00 15752676.00 L 7236590.59 15736825.00 L 7063407.00 15736824.00 L 7041545.09 15745880.00 L 6272417.05 15745880.00 L 5989236.33 15461512.31 L 6003770.00 15451801.00 A 240838.32 240838.32 0 0 0 5833465.00 15040648.00 L 4967323.00 15040648.00 A 240838.32 240838.32 0 1 0 4967323.00 15522344.00 L 5833465.00 15522344.00 L 5886454.01 15511804.15 L 6211731.00 15838269.00 L 6250000.00 15854120.00 L 7054352.00 15854121.00 L 7076214.48 15845065.00 L 7214175.00 15845065.00 L 7307379.00 15938269.00 L 7345648.00 15954120.00 L 7627582.00 15954120.00 L 7895000.53 16221538.53 L 7904801.00 16245199.00 A 63921.13 63921.13 0 0 0 7995199.00 16154801.00  z"/>
<path id="N" d="M 5583464.87 8283465.00 m -63921.13 0 a 63921.13 63921.13 0 1 1 127842.26 0a 63921.13 63921.13 0 1 1 -127842.26 0"/>
<path id="N" d="M 11231282.87 14887795.00 m -63921.13 0 a 63921.13 63921.13 0 1 1 127842.26 0a 63921.13 63921.13 0 1 1 -127842.26 0"/>
<path id="N" d="M 9756889.87 12165822.00 m -63921.13 0 a 63921.13 63921.13 0 1 1 127842.26 0a 63921.13 63921.13 0 1 1 -127842.26 0"/>
<path id="N" d="M 9606298.87 12661647.00 m -63921.13 0 a 63921.13 63921.13 0 1 1 127842.26 0a 63921.13 63921.13 0 1 1 -127842.26 0"/>
<path id="N" d="M 6003770.00 16239203.00 L 6036907.07 16189611.00 L 6911829.24 16189611.00 L 6935491.00 16199412.00 A 63920.91 63920.91 0 0 0 6935491.00 16071570.00 L 6911829.24 16081371.00 L 6071832.04 16081371.00 L 6074313.00 16068898.00 A 240838.32 240838.32 0 0 0 5833465.00 15828050.00 L 4967323.00 15828050.00 A 240838.32 240838.32 0 1 0 4967323.00 16309746.00 L 5833465.00 16309746.00 L 5925634.00 16291413.00 L 6003770.00 16239203.00  z"/>
<path id="N" d="M 9133857.87 12661647.00 m -63921.13 0 a 63921.13 63921.13 0 1 1 127842.26 0a 63921.13 63921.13 0 1 1 -127842.26 0"/>
<path id="N" d="M 10940999.87 15844687.00 m -63921.13 0 a 63921.13 63921.13 0 1 1 127842.26 0a 63921.13 63921.13 0 1 1 -127842.26 0"/>
<path id="N" d="M 6949999.87 18450000.00 m -63921.13 0 a 63921.13 63921.13 0 1 1 127842.26 0a 63921.13 63921.13 0 1 1 -127842.26 0"/>
<path id="N" d="M 12892887.00 23408661.00 L 12892887.00 22737798.75 L 12894557.00 22733767.00 L 12892887.00 22729735.25 L 12892887.00 22519688.75 L 12894557.00 22515657.00 L 12892887.00 22511625.25 L 12892887.00 22301578.75 L 12894557.00 22297547.00 L 12892887.00 22293515.25 L 12892887.00 22083468.75 L 12894557.00 22079437.00 L 12892887.00 22075405.25 L 12892887.00 21991339.00 L 12874398.00 21898390.00 L 12828569.89 21829803.20 L 12825358.00 21822049.00 L 12742949.00 21766941.00 L 12676418.00 21753707.00 L 12676418.00 21729792.75 L 12678088.00 21725761.00 L 12676418.00 21721729.25 L 12676418.00 21511682.75 L 12678088.00 21507651.00 L 12676418.00 21503619.25 L 12676418.00 21293572.75 L 12678088.00 21289541.00 L 12676418.00 21285509.25 L 12676418.00 21075462.75 L 12678088.00 21071431.00 L 12676418.00 21067399.25 L 12676418.00 20857352.75 L 12678088.00 20853321.00 L 12676418.00 20849289.25 L 12677405.00 20706300.00 L 12675054.00 20694482.00 L 12676235.00 20682493.00 L 12662114.00 20539119.00 L 12655170.00 20516227.00 L 12652825.00 20492419.00 L 12611004.00 20354554.00 L 12599727.00 20333456.00 L 12592783.00 20310565.00 L 12553916.00 20237849.00 L 12557146.00 20233015.00 A 481420.72 481420.72 0 0 0 12180061.00 19526838.00 L 12156140.00 19526838.00 L 12132677.00 19522171.00 L 11266535.00 19522171.00 L 11243073.00 19526838.00 L 11219152.00 19526838.00 A 481405.87 481405.87 0 0 0 11219151.00 20484974.00 L 11243072.00 20484974.00 L 11266535.00 20489641.00 L 11283303.25 20489641.00 L 11287335.00 20491311.00 L 11291366.75 20489641.00 L 11501413.25 20489641.00 L 11505445.00 20491311.00 L 11509476.75 20489641.00 L 11719523.25 20489641.00 L 11723555.00 20491311.00 L 11727586.75 20489641.00 L 12061765.00 20489641.00 L 12090933.00 20544211.00 L 12115036.00 20623666.00 L 12123582.00 20710448.00 L 12123582.00 21156439.25 L 12121912.00 21160471.00 L 12123582.00 21164502.75 L 12123582.00 21374549.25 L 12121912.00 21378581.00 L 12123582.00 21382612.75 L 12123582.00 21592659.25 L 12121912.00 21596691.00 L 12123582.00 21600722.75 L 12123582.00 21753707.00 L 12057051.00 21766941.00 L 11978253.00 21819592.00 L 11925602.00 21898390.00 L 11917081.60 21941224.25 L 11913867.00 21948985.00 L 11914995.79 21951710.15 L 11907113.00 21991339.00 L 11907113.00 22162900.25 L 11905443.00 22166932.00 L 11907113.00 22170963.75 L 11907113.00 22381010.25 L 11905443.00 22385042.00 L 11907113.00 22389073.75 L 11907113.00 22599120.25 L 11905443.00 22603152.00 L 11907113.00 22607183.75 L 11907113.00 23408661.00 L 11921292.89 23479947.00 L 12071260.00 23479947.00 L 12071260.00 21912599.00 L 12266455.00 21912599.00 L 12266455.00 20706300.00 L 12267920.86 20698931.06 L 12249493.00 20558958.00 L 12192621.00 20421658.00 L 12117366.30 20323584.00 L 11266535.00 20323584.00 A 317686.61 317686.61 0 1 1 11266535.00 19688228.00 L 12132677.00 19688228.00 A 317686.61 317686.61 0 0 1 12407794.00 20164745.00 L 12370524.37 20213315.48 L 12394212.00 20242179.00 A 835401.14 835401.14 0 0 1 12535002.00 20706300.00 L 12533545.00 20706300.00 L 12533545.00 21912599.00 L 12728740.00 21912599.00 L 12728740.00 23479947.00 L 12878707.11 23479947.00 L 12892887.00 23408661.00  z"/>
<path id="N" d="M 9764487.00 23214174.00 L 9764487.00 22741732.00 A 200706.53 200706.53 0 0 0 9363073.00 22741732.00 L 9363073.00 23214174.00 A 200706.53 200706.53 0 0 0 9764487.00 23214174.00  zM 9443356.00 23214173.00 L 9443356.00 22741733.00 A 120431.73 120431.73 0 0 1 9684204.00 22741733.00 L 9684204.00 23214173.00 A 120431.73 120431.73 0 0 1 9443356.00 23214173.00  z"/>
<path id="N" d="M 6364487.00 23214174.00 L 6364487.00 22741732.00 A 200706.53 200706.53 0 0 0 5963073.00 22741732.00 L 5963073.00 23214174.00 A 200706.53 200706.53 0 0 0 6364487.00 23214174.00  zM 6043356.00 23214173.00 L 6043356.00 22741733.00 A 120431.73 120431.73 0 0 1 6284204.00 22741733.00 L 6284204.00 23214173.00 A 120431.73 120431.73 0 0 1 6043356.00 23214173.00  z"/>
<path id="N" d="M 6367843.00 21442984.00 L 6367843.00 21128024.00 A 200706.53 200706.53 0 0 0 5966429.00 21128024.00 L 5966429.00 21442984.00 A 200706.53 200706.53 0 0 0 6367843.00 21442984.00  zM 6046712.00 21442984.00 L 6046712.00 21128024.00 A 120431.73 120431.73 0 0 1 6287560.00 21128024.00 L 6287560.00 21442984.00 A 120431.73 120431.73 0 0 1 6046712.00 21442984.00  z"/>
<path id="N" d="M 9764487.00 21489763.00 L 9764487.00 21174803.00 A 200706.53 200706.53 0 0 0 9363073.00 21174803.00 L 9363073.00 21489763.00 A 200706.53 200706.53 0 0 0 9764487.00 21489763.00  zM 9443356.00 21489763.00 L 9443356.00 21174803.00 A 120431.73 120431.73 0 0 1 9684204.00 21174803.00 L 9684204.00 21489763.00 A 120431.73 120431.73 0 1 1 9443356.00 21489763.00  z"/>
<path id="N" d="M 12545199.00 9354801.00 L 12530041.42 9348522.54 L 12598425.00 9362125.00 L 13188977.00 9362125.00 A 200706.53 200706.53 0 0 0 13188977.00 8960711.00 L 12598425.00 8960711.00 A 200706.53 200706.53 0 0 0 12412996.00 9084611.00 L 12411871.11 9090266.16 L 12400408.00 9085518.00 A 63920.91 63920.91 0 0 0 12400408.00 9213360.00 L 12407468.28 9210435.54 L 12412996.00 9238225.00 L 12456504.00 9303339.00 L 12514477.18 9342075.63 L 12500000.00 9336079.00 A 63920.91 63920.91 0 1 0 12545199.00 9354801.00  z"/>
<path id="N" d="M 12224846.00 18995989.00 L 12200644.29 18991175.13 L 12195199.00 18978029.00 L 12150000.00 18959307.00 L 12105701.50 18977656.00 L 11266535.00 18977656.00 A 240838.32 240838.32 0 0 0 11266535.00 19459352.00 L 12132677.00 19459352.00 A 240860.29 240860.29 0 0 0 12224846.00 18995989.00  z"/>
<path id="N" d="M 7086615.00 10960711.00 L 6496063.00 10960711.00 A 200706.53 200706.53 0 0 0 6496063.00 11362125.00 L 7086615.00 11362125.00 A 200709.51 200709.51 0 0 0 7086615.00 10960711.00  z"/>
<path id="N" d="M 5833465.00 14253246.00 L 4967323.00 14253246.00 A 240838.32 240838.32 0 0 0 4967323.00 14734942.00 L 5833465.00 14734942.00 A 240860.29 240860.29 0 1 0 5833465.00 14253246.00  z"/>
<path id="N" d="M 5833465.00 19765058.00 L 4967323.00 19765058.00 A 240838.32 240838.32 0 1 0 4967323.00 20246754.00 L 5833465.00 20246754.00 A 240860.29 240860.29 0 1 0 5833465.00 19765058.00  z"/>
<path id="N" d="M 15537401.00 15157481.00 L 14771307.00 15157481.00 L 14771307.00 14955095.37 L 14795199.00 14945199.00 A 63921.13 63921.13 0 1 0 14704801.00 14945199.00 L 14728693.00 14955095.37 L 14728693.00 15157481.00 L 13962599.00 15157481.00 L 13962599.00 15551181.00 L 15537401.00 15551181.00 L 15537401.00 15157481.00  z"/>
<path id="N" d="M 6427508.87 15172491.00 m -63921.13 0 a 63921.13 63921.13 0 1 1 127842.26 0a 63921.13 63921.13 0 1 1 -127842.26 0"/>
<path id="N" d="M 8809054.87 12200000.00 m -63921.13 0 a 63921.13 63921.13 0 1 1 127842.26 0a 63921.13 63921.13 0 1 1 -127842.26 0"/>
<path id="N" d="M 10449999.87 12100000.00 m -63921.13 0 a 63921.13 63921.13 0 1 1 127842.26 0a 63921.13 63921.13 0 1 1 -127842.26 0"/>
<path id="N" d="M 9448818.87 12058662.00 m -63921.13 0 a 63921.13 63921.13 0 1 1 127842.26 0a 63921.13 63921.13 0 1 1 -127842.26 0"/>
<path id="N" d="M 8346456.87 12646457.00 m -63921.13 0 a 63921.13 63921.13 0 1 1 127842.26 0a 63921.13 63921.13 0 1 1 -127842.26 0"/>
<path id="N" d="M 5999999.87 12600000.00 m -63921.13 0 a 63921.13 63921.13 0 1 1 127842.26 0a 63921.13 63921.13 0 1 1 -127842.26 0"/>
<path id="N" d="M 9763779.87 10960399.00 m -63921.13 0 a 63921.13 63921.13 0 1 1 127842.26 0a 63921.13 63921.13 0 1 1 -127842.26 0"/>
<path id="N" d="M 5899999.87 6800000.00 m -63921.13 0 a 63921.13 63921.13 0 1 1 127842.26 0a 63921.13 63921.13 0 1 1 -127842.26 0"/>
<path id="N" d="M 10236219.87 10960400.00 m -63921.13 0 a 63921.13 63921.13 0 1 1 127842.26 0a 63921.13 63921.13 0 1 1 -127842.26 0"/>
<path id="N" d="M 9291338.87 10960399.00 m -63921.13 0 a 63921.13 63921.13 0 1 1 127842.26 0a 63921.13 63921.13 0 1 1 -127842.26 0"/>
<path id="N" d="M 12099999.87 6750000.00 m -63921.13 0 a 63921.13 63921.13 0 1 1 127842.26 0a 63921.13 63921.13 0 1 1 -127842.26 0"/>
<path id="N" d="M 12349999.87 6750000.00 m -63921.13 0 a 63921.13 63921.13 0 1 1 127842.26 0a 63921.13 63921.13 0 1 1 -127842.26 0"/>
<path id="N" d="M 6099999.87 6800000.00 m -63921.13 0 a 63921.13 63921.13 0 1 1 127842.26 0a 63921.13 63921.13 0 1 1 -127842.26 0"/>
<path id="N" d="M 13599999.87 6750000.00 m -63921.13 0 a 63921.13 63921.13 0 1 1 127842.26 0a 63921.13 63921.13 0 1 1 -127842.26 0"/>
<path id="N" d="M 13356206.87 6749443.00 m -63921.13 0 a 63921.13 63921.13 0 1 1 127842.26 0a 63921.13 63921.13 0 1 1 -127842.26 0"/>
<path id="N" d="M 12949999.87 10517324.00 m -63921.13 0 a 63921.13 63921.13 0 1 1 127842.26 0a 63921.13 63921.13 0 1 1 -127842.26 0"/>
<path id="N" d="M 11349999.87 6750000.00 m -63921.13 0 a 63921.13 63921.13 0 1 1 127842.26 0a 63921.13 63921.13 0 1 1 -127842.26 0"/>
<path id="N" d="M 9825393.87 20300787.00 m -63921.13 0 a 63921.13 63921.13 0 1 1 127842.26 0a 63921.13 63921.13 0 1 1 -127842.26 0"/>
<path id="N" d="M 6425274.87 15590945.00 m -63921.13 0 a 63921.13 63921.13 0 1 1 127842.26 0a 63921.13 63921.13 0 1 1 -127842.26 0"/>
<path id="N" d="M 5349999.87 9300000.00 m -63921.13 0 a 63921.13 63921.13 0 1 1 127842.26 0a 63921.13 63921.13 0 1 1 -127842.26 0"/>
<path id="N" d="M 11181102.87 11000000.00 m -63921.13 0 a 63921.13 63921.13 0 1 1 127842.26 0a 63921.13 63921.13 0 1 1 -127842.26 0"/>
<path id="N" d="M 11249999.87 9350000.00 m -63921.13 0 a 63921.13 63921.13 0 1 1 127842.26 0a 63921.13 63921.13 0 1 1 -127842.26 0"/>
<path id="N" d="M 4449999.87 8300000.00 m -63921.13 0 a 63921.13 63921.13 0 1 1 127842.26 0a 63921.13 63921.13 0 1 1 -127842.26 0"/>
<path id="N" d="M 9399999.87 7250000.00 m -63921.13 0 a 63921.13 63921.13 0 1 1 127842.26 0a 63921.13 63921.13 0 1 1 -127842.26 0"/>
<path id="N" d="M 14499999.87 13800000.00 m -63921.13 0 a 63921.13 63921.13 0 1 1 127842.26 0a 63921.13 63921.13 0 1 1 -127842.26 0"/>
<path id="N" d="M 12856206.87 6749443.00 m -63921.13 0 a 63921.13 63921.13 0 1 1 127842.26 0a 63921.13 63921.13 0 1 1 -127842.26 0"/>
<path id="N" d="M 10749999.87 14350000.00 m -63921.13 0 a 63921.13 63921.13 0 1 1 127842.26 0a 63921.13 63921.13 0 1 1 -127842.26 0"/>
<path id="N" d="M 7910740.87 14420472.00 m -63921.13 0 a 63921.13 63921.13 0 1 1 127842.26 0a 63921.13 63921.13 0 1 1 -127842.26 0"/>
<path id="N" d="M 9949999.87 12058662.00 m -63921.13 0 a 63921.13 63921.13 0 1 1 127842.26 0a 63921.13 63921.13 0 1 1 -127842.26 0"/>
<path id="N" d="M 10866141.87 11400000.00 m -63921.13 0 a 63921.13 63921.13 0 1 1 127842.26 0a 63921.13 63921.13 0 1 1 -127842.26 0"/>
<path id="N" d="M 15099999.87 12900000.00 m -63921.13 0 a 63921.13 63921.13 0 1 1 127842.26 0a 63921.13 63921.13 0 1 1 -127842.26 0"/>
<path id="N" d="M 13106206.87 6749443.00 m -63921.13 0 a 63921.13 63921.13 0 1 1 127842.26 0a 63921.13 63921.13 0 1 1 -127842.26 0"/>
<path id="N" d="M 14699999.87 13750000.00 m -63921.13 0 a 63921.13 63921.13 0 1 1 127842.26 0a 63921.13 63921.13 0 1 1 -127842.26 0"/>
<path id="N" d="M 6299999.87 6800000.00 m -63921.13 0 a 63921.13 63921.13 0 1 1 127842.26 0a 63921.13 63921.13 0 1 1 -127842.26 0"/>
<path id="N" d="M 6499999.87 6800000.00 m -63921.13 0 a 63921.13 63921.13 0 1 1 127842.26 0a 63921.13 63921.13 0 1 1 -127842.26 0"/>
<path id="N" d="M 14751574.87 7448425.00 m -63921.13 0 a 63921.13 63921.13 0 1 1 127842.26 0a 63921.13 63921.13 0 1 1 -127842.26 0"/>
<path id="N" d="M 6749999.87 6800000.00 m -63921.13 0 a 63921.13 63921.13 0 1 1 127842.26 0a 63921.13 63921.13 0 1 1 -127842.26 0"/>
<path id="N" d="M 6476387.87 14726388.00 m -63921.13 0 a 63921.13 63921.13 0 1 1 127842.26 0a 63921.13 63921.13 0 1 1 -127842.26 0"/>
<path id="N" d="M 5999999.87 12950000.00 m -63921.13 0 a 63921.13 63921.13 0 1 1 127842.26 0a 63921.13 63921.13 0 1 1 -127842.26 0"/>
<path id="N" d="M 11079526.87 13071148.00 m -63921.13 0 a 63921.13 63921.13 0 1 1 127842.26 0a 63921.13 63921.13 0 1 1 -127842.26 0"/>
<path id="N" d="M 11923227.87 13450000.00 m -63921.13 0 a 63921.13 63921.13 0 1 1 127842.26 0a 63921.13 63921.13 0 1 1 -127842.26 0"/>
<path id="N" d="M 11943792.87 6100557.00 m -63921.13 0 a 63921.13 63921.13 0 1 1 127842.26 0a 63921.13 63921.13 0 1 1 -127842.26 0"/>
<path id="N" d="M 12099999.87 5850000.00 m -63921.13 0 a 63921.13 63921.13 0 1 1 127842.26 0a 63921.13 63921.13 0 1 1 -127842.26 0"/>
<path id="N" d="M 12199999.87 6100000.00 m -63921.13 0 a 63921.13 63921.13 0 1 1 127842.26 0a 63921.13 63921.13 0 1 1 -127842.26 0"/>
<path id="N" d="M 11693792.87 6100557.00 m -63921.13 0 a 63921.13 63921.13 0 1 1 127842.26 0a 63921.13 63921.13 0 1 1 -127842.26 0"/>
<path id="N" d="M 11199999.87 6100000.00 m -63921.13 0 a 63921.13 63921.13 0 1 1 127842.26 0a 63921.13 63921.13 0 1 1 -127842.26 0"/>
<path id="N" d="M 11843792.87 6300557.00 m -63921.13 0 a 63921.13 63921.13 0 1 1 127842.26 0a 63921.13 63921.13 0 1 1 -127842.26 0"/>
<path id="N" d="M 12093792.87 6300557.00 m -63921.13 0 a 63921.13 63921.13 0 1 1 127842.26 0a 63921.13 63921.13 0 1 1 -127842.26 0"/>
<path id="N" d="M 11449999.87 6100000.00 m -63921.13 0 a 63921.13 63921.13 0 1 1 127842.26 0a 63921.13 63921.13 0 1 1 -127842.26 0"/>
<path id="N" d="M 11599999.87 6300000.00 m -63921.13 0 a 63921.13 63921.13 0 1 1 127842.26 0a 63921.13 63921.13 0 1 1 -127842.26 0"/>
<path id="N" d="M 12199999.87 6550000.00 m -63921.13 0 a 63921.13 63921.13 0 1 1 127842.26 0a 63921.13 63921.13 0 1 1 -127842.26 0"/>
<path id="N" d="M 11706206.87 6549443.00 m -63921.13 0 a 63921.13 63921.13 0 1 1 127842.26 0a 63921.13 63921.13 0 1 1 -127842.26 0"/>
<path id="N" d="M 12456206.87 6549443.00 m -63921.13 0 a 63921.13 63921.13 0 1 1 127842.26 0a 63921.13 63921.13 0 1 1 -127842.26 0"/>
<path id="N" d="M 13206206.87 6549443.00 m -63921.13 0 a 63921.13 63921.13 0 1 1 127842.26 0a 63921.13 63921.13 0 1 1 -127842.26 0"/>
<path id="N" d="M 11456206.87 6549443.00 m -63921.13 0 a 63921.13 63921.13 0 1 1 127842.26 0a 63921.13 63921.13 0 1 1 -127842.26 0"/>
<path id="N" d="M 13449999.87 6550000.00 m -63921.13 0 a 63921.13 63921.13 0 1 1 127842.26 0a 63921.13 63921.13 0 1 1 -127842.26 0"/>
<path id="N" d="M 11199999.87 6550000.00 m -63921.13 0 a 63921.13 63921.13 0 1 1 127842.26 0a 63921.13 63921.13 0 1 1 -127842.26 0"/>
<path id="N" d="M 11949999.87 6550000.00 m -63921.13 0 a 63921.13 63921.13 0 1 1 127842.26 0a 63921.13 63921.13 0 1 1 -127842.26 0"/>
<path id="N" d="M 11606206.87 6749443.00 m -63921.13 0 a 63921.13 63921.13 0 1 1 127842.26 0a 63921.13 63921.13 0 1 1 -127842.26 0"/>
<path id="N" d="M 11856206.87 6749443.00 m -63921.13 0 a 63921.13 63921.13 0 1 1 127842.26 0a 63921.13 63921.13 0 1 1 -127842.26 0"/>
<path id="N" d="M 12399999.87 4550000.00 m -63921.13 0 a 63921.13 63921.13 0 1 1 127842.26 0a 63921.13 63921.13 0 1 1 -127842.26 0"/>
<path id="N" d="M 13649999.87 4550000.00 m -63921.13 0 a 63921.13 63921.13 0 1 1 127842.26 0a 63921.13 63921.13 0 1 1 -127842.26 0"/>
<path id="N" d="M 12556206.87 4749443.00 m -63921.13 0 a 63921.13 63921.13 0 1 1 127842.26 0a 63921.13 63921.13 0 1 1 -127842.26 0"/>
<path id="N" d="M 12806206.87 4749443.00 m -63921.13 0 a 63921.13 63921.13 0 1 1 127842.26 0a 63921.13 63921.13 0 1 1 -127842.26 0"/>
<path id="N" d="M 11556206.87 4749443.00 m -63921.13 0 a 63921.13 63921.13 0 1 1 127842.26 0a 63921.13 63921.13 0 1 1 -127842.26 0"/>
<path id="N" d="M 13306206.87 4349443.00 m -63921.13 0 a 63921.13 63921.13 0 1 1 127842.26 0a 63921.13 63921.13 0 1 1 -127842.26 0"/>
<path id="N" d="M 11556206.87 4349443.00 m -63921.13 0 a 63921.13 63921.13 0 1 1 127842.26 0a 63921.13 63921.13 0 1 1 -127842.26 0"/>
<path id="N" d="M 12806206.87 4349443.00 m -63921.13 0 a 63921.13 63921.13 0 1 1 127842.26 0a 63921.13 63921.13 0 1 1 -127842.26 0"/>
<path id="N" d="M 13056206.87 4349443.00 m -63921.13 0 a 63921.13 63921.13 0 1 1 127842.26 0a 63921.13 63921.13 0 1 1 -127842.26 0"/>
<path id="N" d="M 11806206.87 4749443.00 m -63921.13 0 a 63921.13 63921.13 0 1 1 127842.26 0a 63921.13 63921.13 0 1 1 -127842.26 0"/>
<path id="N" d="M 11349999.87 6300000.00 m -63921.13 0 a 63921.13 63921.13 0 1 1 127842.26 0a 63921.13 63921.13 0 1 1 -127842.26 0"/>
<path id="N" d="M 13406206.87 4549443.00 m -63921.13 0 a 63921.13 63921.13 0 1 1 127842.26 0a 63921.13 63921.13 0 1 1 -127842.26 0"/>
<path id="N" d="M 14049999.87 6150000.00 m -63921.13 0 a 63921.13 63921.13 0 1 1 127842.26 0a 63921.13 63921.13 0 1 1 -127842.26 0"/>
<path id="N" d="M 15026771.87 6200000.00 m -63921.13 0 a 63921.13 63921.13 0 1 1 127842.26 0a 63921.13 63921.13 0 1 1 -127842.26 0"/>
<path id="N" d="M 11399999.87 4550000.00 m -63921.13 0 a 63921.13 63921.13 0 1 1 127842.26 0a 63921.13 63921.13 0 1 1 -127842.26 0"/>
<path id="N" d="M 12906206.87 4549443.00 m -63921.13 0 a 63921.13 63921.13 0 1 1 127842.26 0a 63921.13 63921.13 0 1 1 -127842.26 0"/>
<path id="N" d="M 13156206.87 4549443.00 m -63921.13 0 a 63921.13 63921.13 0 1 1 127842.26 0a 63921.13 63921.13 0 1 1 -127842.26 0"/>
<path id="N" d="M 12149999.87 4550000.00 m -63921.13 0 a 63921.13 63921.13 0 1 1 127842.26 0a 63921.13 63921.13 0 1 1 -127842.26 0"/>
<path id="N" d="M 12656206.87 4549443.00 m -63921.13 0 a 63921.13 63921.13 0 1 1 127842.26 0a 63921.13 63921.13 0 1 1 -127842.26 0"/>
<path id="N" d="M 13056206.87 5599443.00 m -63921.13 0 a 63921.13 63921.13 0 1 1 127842.26 0a 63921.13 63921.13 0 1 1 -127842.26 0"/>
<path id="N" d="M 13306206.87 5599443.00 m -63921.13 0 a 63921.13 63921.13 0 1 1 127842.26 0a 63921.13 63921.13 0 1 1 -127842.26 0"/>
<path id="N" d="M 11299999.87 5600000.00 m -63921.13 0 a 63921.13 63921.13 0 1 1 127842.26 0a 63921.13 63921.13 0 1 1 -127842.26 0"/>
<path id="N" d="M 12806206.87 5599443.00 m -63921.13 0 a 63921.13 63921.13 0 1 1 127842.26 0a 63921.13 63921.13 0 1 1 -127842.26 0"/>
<path id="N" d="M 11356206.87 5849443.00 m -63921.13 0 a 63921.13 63921.13 0 1 1 127842.26 0a 63921.13 63921.13 0 1 1 -127842.26 0"/>
<path id="N" d="M 11556206.87 5599443.00 m -63921.13 0 a 63921.13 63921.13 0 1 1 127842.26 0a 63921.13 63921.13 0 1 1 -127842.26 0"/>
<path id="N" d="M 11806206.87 5599443.00 m -63921.13 0 a 63921.13 63921.13 0 1 1 127842.26 0a 63921.13 63921.13 0 1 1 -127842.26 0"/>
<path id="N" d="M 12399999.87 5350000.00 m -63921.13 0 a 63921.13 63921.13 0 1 1 127842.26 0a 63921.13 63921.13 0 1 1 -127842.26 0"/>
<path id="N" d="M 13649999.87 5350000.00 m -63921.13 0 a 63921.13 63921.13 0 1 1 127842.26 0a 63921.13 63921.13 0 1 1 -127842.26 0"/>
<path id="N" d="M 11656206.87 5349443.00 m -63921.13 0 a 63921.13 63921.13 0 1 1 127842.26 0a 63921.13 63921.13 0 1 1 -127842.26 0"/>
<path id="N" d="M 12149999.87 5350000.00 m -63921.13 0 a 63921.13 63921.13 0 1 1 127842.26 0a 63921.13 63921.13 0 1 1 -127842.26 0"/>
<path id="N" d="M 13156206.87 5349443.00 m -63921.13 0 a 63921.13 63921.13 0 1 1 127842.26 0a 63921.13 63921.13 0 1 1 -127842.26 0"/>
<path id="N" d="M 12706206.87 6549443.00 m -63921.13 0 a 63921.13 63921.13 0 1 1 127842.26 0a 63921.13 63921.13 0 1 1 -127842.26 0"/>
<path id="N" d="M 12956206.87 6549443.00 m -63921.13 0 a 63921.13 63921.13 0 1 1 127842.26 0a 63921.13 63921.13 0 1 1 -127842.26 0"/>
<path id="N" d="M 13406206.87 5349443.00 m -63921.13 0 a 63921.13 63921.13 0 1 1 127842.26 0a 63921.13 63921.13 0 1 1 -127842.26 0"/>
<path id="N" d="M 11399999.87 5350000.00 m -63921.13 0 a 63921.13 63921.13 0 1 1 127842.26 0a 63921.13 63921.13 0 1 1 -127842.26 0"/>
<path id="N" d="M 13549999.87 5150000.00 m -63921.13 0 a 63921.13 63921.13 0 1 1 127842.26 0a 63921.13 63921.13 0 1 1 -127842.26 0"/>
<path id="N" d="M 12049999.87 5600000.00 m -63921.13 0 a 63921.13 63921.13 0 1 1 127842.26 0a 63921.13 63921.13 0 1 1 -127842.26 0"/>
<path id="N" d="M 12299999.87 5600000.00 m -63921.13 0 a 63921.13 63921.13 0 1 1 127842.26 0a 63921.13 63921.13 0 1 1 -127842.26 0"/>
<path id="N" d="M 11606206.87 5849443.00 m -63921.13 0 a 63921.13 63921.13 0 1 1 127842.26 0a 63921.13 63921.13 0 1 1 -127842.26 0"/>
<path id="N" d="M 11849999.87 5850000.00 m -63921.13 0 a 63921.13 63921.13 0 1 1 127842.26 0a 63921.13 63921.13 0 1 1 -127842.26 0"/>
<path id="N" d="M 13549999.87 5600000.00 m -63921.13 0 a 63921.13 63921.13 0 1 1 127842.26 0a 63921.13 63921.13 0 1 1 -127842.26 0"/>
<path id="N" d="M 12906206.87 5349443.00 m -63921.13 0 a 63921.13 63921.13 0 1 1 127842.26 0a 63921.13 63921.13 0 1 1 -127842.26 0"/>
<path id="N" d="M 12299999.87 5150000.00 m -63921.13 0 a 63921.13 63921.13 0 1 1 127842.26 0a 63921.13 63921.13 0 1 1 -127842.26 0"/>
<path id="N" d="M 11906206.87 5349443.00 m -63921.13 0 a 63921.13 63921.13 0 1 1 127842.26 0a 63921.13 63921.13 0 1 1 -127842.26 0"/>
<path id="N" d="M 12656206.87 5349443.00 m -63921.13 0 a 63921.13 63921.13 0 1 1 127842.26 0a 63921.13 63921.13 0 1 1 -127842.26 0"/>
<path id="N" d="M 11806206.87 4349443.00 m -63921.13 0 a 63921.13 63921.13 0 1 1 127842.26 0a 63921.13 63921.13 0 1 1 -127842.26 0"/>
<path id="N" d="M 10845417.87 18598194.00 m -63921.13 0 a 63921.13 63921.13 0 1 1 127842.26 0a 63921.13 63921.13 0 1 1 -127842.26 0"/>
<path id="N" d="M 4549999.87 18600000.00 m -63921.13 0 a 63921.13 63921.13 0 1 1 127842.26 0a 63921.13 63921.13 0 1 1 -127842.26 0"/>
<path id="N" d="M 4932065.87 16462598.00 m -63921.13 0 a 63921.13 63921.13 0 1 1 127842.26 0a 63921.13 63921.13 0 1 1 -127842.26 0"/>
<path id="N" d="M 12649999.87 16900000.00 m -63921.13 0 a 63921.13 63921.13 0 1 1 127842.26 0a 63921.13 63921.13 0 1 1 -127842.26 0"/>
<path id="N" d="M 9446370.87 18569281.00 m -63921.13 0 a 63921.13 63921.13 0 1 1 127842.26 0a 63921.13 63921.13 0 1 1 -127842.26 0"/>
<path id="N" d="M 10867716.87 19600000.00 m -63921.13 0 a 63921.13 63921.13 0 1 1 127842.26 0a 63921.13 63921.13 0 1 1 -127842.26 0"/>
<path id="N" d="M 14099999.87 20950000.00 m -63921.13 0 a 63921.13 63921.13 0 1 1 127842.26 0a 63921.13 63921.13 0 1 1 -127842.26 0"/>
<path id="N" d="M 9930096.87 18408465.00 m -63921.13 0 a 63921.13 63921.13 0 1 1 127842.26 0a 63921.13 63921.13 0 1 1 -127842.26 0"/>
<path id="N" d="M 9123460.87 18569281.00 m -63921.13 0 a 63921.13 63921.13 0 1 1 127842.26 0a 63921.13 63921.13 0 1 1 -127842.26 0"/>
<path id="N" d="M 13049999.87 16900000.00 m -63921.13 0 a 63921.13 63921.13 0 1 1 127842.26 0a 63921.13 63921.13 0 1 1 -127842.26 0"/>
<path id="N" d="M 9155511.87 19428740.00 m -63921.13 0 a 63921.13 63921.13 0 1 1 127842.26 0a 63921.13 63921.13 0 1 1 -127842.26 0"/>
<path id="N" d="M 8818897.87 19409449.00 m -63921.13 0 a 63921.13 63921.13 0 1 1 127842.26 0a 63921.13 63921.13 0 1 1 -127842.26 0"/>
<path id="N" d="M 13799999.87 18850000.00 m -63921.13 0 a 63921.13 63921.13 0 1 1 127842.26 0a 63921.13 63921.13 0 1 1 -127842.26 0"/>
<path id="N" d="M 7249999.87 19426772.00 m -63921.13 0 a 63921.13 63921.13 0 1 1 127842.26 0a 63921.13 63921.13 0 1 1 -127842.26 0"/>
<path id="N" d="M 10433070.87 18985039.00 m -63921.13 0 a 63921.13 63921.13 0 1 1 127842.26 0a 63921.13 63921.13 0 1 1 -127842.26 0"/>
<path id="N" d="M 6899999.87 17000000.00 m -63921.13 0 a 63921.13 63921.13 0 1 1 127842.26 0a 63921.13 63921.13 0 1 1 -127842.26 0"/>
<path id="N" d="M 12167932.87 18037401.00 m -63921.13 0 a 63921.13 63921.13 0 1 1 127842.26 0a 63921.13 63921.13 0 1 1 -127842.26 0"/>
<path id="N" d="M 8818897.87 19050000.00 m -63921.13 0 a 63921.13 63921.13 0 1 1 127842.26 0a 63921.13 63921.13 0 1 1 -127842.26 0"/>
<path id="N" d="M 10369880.87 18650000.00 m -63921.13 0 a 63921.13 63921.13 0 1 1 127842.26 0a 63921.13 63921.13 0 1 1 -127842.26 0"/>
<path id="N" d="M 14599999.87 20000000.00 m -63921.13 0 a 63921.13 63921.13 0 1 1 127842.26 0a 63921.13 63921.13 0 1 1 -127842.26 0"/>
<path id="N" d="M 9566928.87 19614961.00 m -63921.13 0 a 63921.13 63921.13 0 1 1 127842.26 0a 63921.13 63921.13 0 1 1 -127842.26 0"/>
<path id="N" d="M 9884646.87 20050000.00 m -63921.13 0 a 63921.13 63921.13 0 1 1 127842.26 0a 63921.13 63921.13 0 1 1 -127842.26 0"/>
<path id="N" d="M 9449999.87 20100000.00 m -63921.13 0 a 63921.13 63921.13 0 1 1 127842.26 0a 63921.13 63921.13 0 1 1 -127842.26 0"/>
<path id="N" d="M 8999999.87 19650000.00 m -63921.13 0 a 63921.13 63921.13 0 1 1 127842.26 0a 63921.13 63921.13 0 1 1 -127842.26 0"/>
<path id="N" d="M 10449213.87 20300787.00 m -63921.13 0 a 63921.13 63921.13 0 1 1 127842.26 0a 63921.13 63921.13 0 1 1 -127842.26 0"/>
<path id="N" d="M 6249999.87 20250000.00 m -63921.13 0 a 63921.13 63921.13 0 1 1 127842.26 0a 63921.13 63921.13 0 1 1 -127842.26 0"/>
<path id="N" d="M 6572834.87 20700000.00 m -63921.13 0 a 63921.13 63921.13 0 1 1 127842.26 0a 63921.13 63921.13 0 1 1 -127842.26 0"/>
<path id="N" d="M 8927164.87 20700000.00 m -63921.13 0 a 63921.13 63921.13 0 1 1 127842.26 0a 63921.13 63921.13 0 1 1 -127842.26 0"/>
<path id="N" d="M 14099999.87 20700000.00 m -63921.13 0 a 63921.13 63921.13 0 1 1 127842.26 0a 63921.13 63921.13 0 1 1 -127842.26 0"/>
<path id="N" d="M 14299999.87 20700000.00 m -63921.13 0 a 63921.13 63921.13 0 1 1 127842.26 0a 63921.13 63921.13 0 1 1 -127842.26 0"/>
<path id="N" d="M 14499999.87 20700000.00 m -63921.13 0 a 63921.13 63921.13 0 1 1 127842.26 0a 63921.13 63921.13 0 1 1 -127842.26 0"/>
<path id="N" d="M 14299999.87 20950000.00 m -63921.13 0 a 63921.13 63921.13 0 1 1 127842.26 0a 63921.13 63921.13 0 1 1 -127842.26 0"/>
<path id="N" d="M 15149999.87 20700000.00 m -63921.13 0 a 63921.13 63921.13 0 1 1 127842.26 0a 63921.13 63921.13 0 1 1 -127842.26 0"/>
<path id="N" d="M 14499999.87 21150000.00 m -63921.13 0 a 63921.13 63921.13 0 1 1 127842.26 0a 63921.13 63921.13 0 1 1 -127842.26 0"/>
<path id="N" d="M 14499999.87 20950000.00 m -63921.13 0 a 63921.13 63921.13 0 1 1 127842.26 0a 63921.13 63921.13 0 1 1 -127842.26 0"/>
<path id="N" d="M 14099999.87 21150000.00 m -63921.13 0 a 63921.13 63921.13 0 1 1 127842.26 0a 63921.13 63921.13 0 1 1 -127842.26 0"/>
<path id="N" d="M 12999999.87 21300000.00 m -63921.13 0 a 63921.13 63921.13 0 1 1 127842.26 0a 63921.13 63921.13 0 1 1 -127842.26 0"/>
<path id="N" d="M 14299999.87 21150000.00 m -63921.13 0 a 63921.13 63921.13 0 1 1 127842.26 0a 63921.13 63921.13 0 1 1 -127842.26 0"/>
<path id="N" d="M 13306206.87 5149443.00 m -63921.13 0 a 63921.13 63921.13 0 1 1 127842.26 0a 63921.13 63921.13 0 1 1 -127842.26 0"/>
<path id="N" d="M 11299999.87 5150000.00 m -63921.13 0 a 63921.13 63921.13 0 1 1 127842.26 0a 63921.13 63921.13 0 1 1 -127842.26 0"/>
<path id="N" d="M 12399999.87 4950000.00 m -63921.13 0 a 63921.13 63921.13 0 1 1 127842.26 0a 63921.13 63921.13 0 1 1 -127842.26 0"/>
<path id="N" d="M 11399999.87 4950000.00 m -63921.13 0 a 63921.13 63921.13 0 1 1 127842.26 0a 63921.13 63921.13 0 1 1 -127842.26 0"/>
<path id="N" d="M 12149999.87 4950000.00 m -63921.13 0 a 63921.13 63921.13 0 1 1 127842.26 0a 63921.13 63921.13 0 1 1 -127842.26 0"/>
<path id="N" d="M 13056206.87 5149443.00 m -63921.13 0 a 63921.13 63921.13 0 1 1 127842.26 0a 63921.13 63921.13 0 1 1 -127842.26 0"/>
<path id="N" d="M 12049999.87 4750000.00 m -63921.13 0 a 63921.13 63921.13 0 1 1 127842.26 0a 63921.13 63921.13 0 1 1 -127842.26 0"/>
<path id="N" d="M 12806206.87 5149443.00 m -63921.13 0 a 63921.13 63921.13 0 1 1 127842.26 0a 63921.13 63921.13 0 1 1 -127842.26 0"/>
<path id="N" d="M 12049999.87 5150000.00 m -63921.13 0 a 63921.13 63921.13 0 1 1 127842.26 0a 63921.13 63921.13 0 1 1 -127842.26 0"/>
<path id="N" d="M 12556206.87 5149443.00 m -63921.13 0 a 63921.13 63921.13 0 1 1 127842.26 0a 63921.13 63921.13 0 1 1 -127842.26 0"/>
<path id="N" d="M 11906206.87 4549443.00 m -63921.13 0 a 63921.13 63921.13 0 1 1 127842.26 0a 63921.13 63921.13 0 1 1 -127842.26 0"/>
<path id="N" d="M 11299999.87 4350000.00 m -63921.13 0 a 63921.13 63921.13 0 1 1 127842.26 0a 63921.13 63921.13 0 1 1 -127842.26 0"/>
<path id="N" d="M 11656206.87 4549443.00 m -63921.13 0 a 63921.13 63921.13 0 1 1 127842.26 0a 63921.13 63921.13 0 1 1 -127842.26 0"/>
<path id="N" d="M 12556206.87 4349443.00 m -63921.13 0 a 63921.13 63921.13 0 1 1 127842.26 0a 63921.13 63921.13 0 1 1 -127842.26 0"/>
<path id="N" d="M 13549999.87 4350000.00 m -63921.13 0 a 63921.13 63921.13 0 1 1 127842.26 0a 63921.13 63921.13 0 1 1 -127842.26 0"/>
<path id="N" d="M 11556206.87 5149443.00 m -63921.13 0 a 63921.13 63921.13 0 1 1 127842.26 0a 63921.13 63921.13 0 1 1 -127842.26 0"/>
<path id="N" d="M 11806206.87 5149443.00 m -63921.13 0 a 63921.13 63921.13 0 1 1 127842.26 0a 63921.13 63921.13 0 1 1 -127842.26 0"/>
<path id="N" d="M 13649999.87 4950000.00 m -63921.13 0 a 63921.13 63921.13 0 1 1 127842.26 0a 63921.13 63921.13 0 1 1 -127842.26 0"/>
<path id="N" d="M 12049999.87 4350000.00 m -63921.13 0 a 63921.13 63921.13 0 1 1 127842.26 0a 63921.13 63921.13 0 1 1 -127842.26 0"/>
<path id="N" d="M 12299999.87 4350000.00 m -63921.13 0 a 63921.13 63921.13 0 1 1 127842.26 0a 63921.13 63921.13 0 1 1 -127842.26 0"/>
<path id="N" d="M 11906206.87 4949443.00 m -63921.13 0 a 63921.13 63921.13 0 1 1 127842.26 0a 63921.13 63921.13 0 1 1 -127842.26 0"/>
<path id="N" d="M 12656206.87 4949443.00 m -63921.13 0 a 63921.13 63921.13 0 1 1 127842.26 0a 63921.13 63921.13 0 1 1 -127842.26 0"/>
<path id="N" d="M 11656206.87 4949443.00 m -63921.13 0 a 63921.13 63921.13 0 1 1 127842.26 0a 63921.13 63921.13 0 1 1 -127842.26 0"/>
<path id="N" d="M 13156206.87 4949443.00 m -63921.13 0 a 63921.13 63921.13 0 1 1 127842.26 0a 63921.13 63921.13 0 1 1 -127842.26 0"/>
<path id="N" d="M 13406206.87 4949443.00 m -63921.13 0 a 63921.13 63921.13 0 1 1 127842.26 0a 63921.13 63921.13 0 1 1 -127842.26 0"/>
<path id="N" d="M 8349999.87 18900000.00 m -63921.13 0 a 63921.13 63921.13 0 1 1 127842.26 0a 63921.13 63921.13 0 1 1 -127842.26 0"/>
<path id="N" d="M 10848834.87 18825981.00 m -63921.13 0 a 63921.13 63921.13 0 1 1 127842.26 0a 63921.13 63921.13 0 1 1 -127842.26 0"/>
<path id="N" d="M 12449999.87 18950000.00 m -63921.13 0 a 63921.13 63921.13 0 1 1 127842.26 0a 63921.13 63921.13 0 1 1 -127842.26 0"/>
<path id="N" d="M 12606206.87 6749443.00 m -63921.13 0 a 63921.13 63921.13 0 1 1 127842.26 0a 63921.13 63921.13 0 1 1 -127842.26 0"/>
<path id="N" d="M 7999999.87 18923228.00 m -63921.13 0 a 63921.13 63921.13 0 1 1 127842.26 0a 63921.13 63921.13 0 1 1 -127842.26 0"/>
<path id="N" d="M 12299999.87 4750000.00 m -63921.13 0 a 63921.13 63921.13 0 1 1 127842.26 0a 63921.13 63921.13 0 1 1 -127842.26 0"/>
<path id="N" d="M 13056206.87 4749443.00 m -63921.13 0 a 63921.13 63921.13 0 1 1 127842.26 0a 63921.13 63921.13 0 1 1 -127842.26 0"/>
<path id="N" d="M 13549999.87 4750000.00 m -63921.13 0 a 63921.13 63921.13 0 1 1 127842.26 0a 63921.13 63921.13 0 1 1 -127842.26 0"/>
<path id="N" d="M 11299999.87 4750000.00 m -63921.13 0 a 63921.13 63921.13 0 1 1 127842.26 0a 63921.13 63921.13 0 1 1 -127842.26 0"/>
<path id="N" d="M 12906206.87 4949443.00 m -63921.13 0 a 63921.13 63921.13 0 1 1 127842.26 0a 63921.13 63921.13 0 1 1 -127842.26 0"/>
<path id="N" d="M 13306206.87 4749443.00 m -63921.13 0 a 63921.13 63921.13 0 1 1 127842.26 0a 63921.13 63921.13 0 1 1 -127842.26 0"/>
<path id="N" d="M 13777953.00 21794489.00 L 13246457.00 21794489.00 L 13246457.00 23448031.00 L 13777953.00 23448031.00 L 13777953.00 21794489.00  z"/>
<path id="N" d="M 11553543.00 21794489.00 L 11022047.00 21794489.00 L 11022047.00 23448031.00 L 11553543.00 23448031.00 L 11553543.00 21794489.00  z"/>
<path id="N" d="M 7934251.87 21634252.00 m -63921.13 0 a 63921.13 63921.13 0 1 1 127842.26 0a 63921.13 63921.13 0 1 1 -127842.26 0"/>
<path id="N" d="M 7565747.87 21634252.00 m -63921.13 0 a 63921.13 63921.13 0 1 1 127842.26 0a 63921.13 63921.13 0 1 1 -127842.26 0"/>
<path id="N" d="M 10528433.00 14472693.00 L 10518536.63 14496585.00 L 10176717.99 14496585.00 L 9765066.00 14084934.00 L 9750000.00 14078693.00 L 6758825.00 14078693.00 L 6654024.45 13973892.45 L 6663921.00 13950000.00 A 63920.91 63920.91 0 1 0 6600000.00 14013921.00 L 6623892.45 14004024.45 L 6734934.00 14115066.00 L 6750000.00 14121307.00 L 9741174.99 14121307.00 L 10152826.00 14532959.00 L 10167892.00 14539199.00 L 10518536.63 14539199.00 L 10528433.00 14563091.00 A 63921.13 63921.13 0 1 0 10528433.00 14472693.00  z"/>
<path id="N" d="M 8384141.76 15954120.00 L 10350001.00 15954121.00 L 10388270.00 15938269.00 L 10966838.03 15359700.00 L 11041242.27 15359700.00 L 11044020.00 15373665.00 A 240860.29 240860.29 0 0 0 11266535.00 15522344.00 L 12132677.00 15522344.00 A 240838.32 240838.32 0 1 0 12132677.00 15040648.00 L 11266535.00 15040648.00 A 240838.32 240838.32 0 0 0 11044020.00 15189327.00 L 11031661.35 15251460.00 L 10944421.00 15251459.00 L 10906151.29 15267312.71 L 10327583.03 15845880.00 L 8384141.76 15845880.00 L 8360480.00 15836079.00 A 63920.91 63920.91 0 0 0 8360480.00 15963921.00 L 8384141.76 15954120.00  z"/>
<path id="N" d="M 10599999.87 15300000.00 m -63921.13 0 a 63921.13 63921.13 0 1 1 127842.26 0a 63921.13 63921.13 0 1 1 -127842.26 0"/>
<path id="N" d="M 13458453.87 18641545.00 m -63921.13 0 a 63921.13 63921.13 0 1 1 127842.26 0a 63921.13 63921.13 0 1 1 -127842.26 0"/>
<path id="N" d="M 10078739.87 12661647.00 m -63921.13 0 a 63921.13 63921.13 0 1 1 127842.26 0a 63921.13 63921.13 0 1 1 -127842.26 0"/>
<path id="N" d="M 10838976.87 16192127.00 m -63921.13 0 a 63921.13 63921.13 0 1 1 127842.26 0a 63921.13 63921.13 0 1 1 -127842.26 0"/>
<path id="N" d="M 6249999.87 18900000.00 m -63921.13 0 a 63921.13 63921.13 0 1 1 127842.26 0a 63921.13 63921.13 0 1 1 -127842.26 0"/>
<path id="N" d="M 13149999.87 18950000.00 m -63921.13 0 a 63921.13 63921.13 0 1 1 127842.26 0a 63921.13 63921.13 0 1 1 -127842.26 0"/>
<path id="N" d="M 7747298.87 21811024.00 m -63921.13 0 a 63921.13 63921.13 0 1 1 127842.26 0a 63921.13 63921.13 0 1 1 -127842.26 0"/>
<path id="N" d="M 8138975.87 21811024.00 m -63921.13 0 a 63921.13 63921.13 0 1 1 127842.26 0a 63921.13 63921.13 0 1 1 -127842.26 0"/>
<path id="N" d="M 10363921.00 13050000.00 L 10357584.00 13034701.10 L 10357584.00 12818953.96 L 10754700.04 12421837.00 L 10780537.00 12421838.00 L 10818806.00 12405986.00 L 10941268.00 12283524.00 L 10957119.00 12245255.00 L 10957119.00 12219418.99 L 12286590.01 10889947.00 L 12514173.00 10889948.00 L 12552442.00 10874096.00 L 12622210.00 10804328.00 L 12638061.00 10766056.59 L 12638061.00 10362125.00 L 13188977.00 10362125.00 A 200706.53 200706.53 0 0 0 13188977.00 9960711.00 L 12598425.00 9960711.00 A 200706.53 200706.53 0 0 0 12521618.00 10346847.00 L 12529821.00 10348478.69 L 12529821.00 10743641.00 L 12491755.00 10781707.00 L 12264173.00 10781706.00 L 12225903.29 10797559.71 L 10864730.00 12158732.00 L 10848879.00 12197003.41 L 10848879.00 12222837.87 L 10758119.13 12313597.00 L 10732283.00 12313596.00 L 10694013.29 12329449.71 L 10265195.00 12758267.00 L 10249344.00 12796538.41 L 10249344.00 13017975.39 L 10236079.00 13050000.00 A 63920.91 63920.91 0 1 0 10363921.00 13050000.00  z"/>
<path id="N" d="M 15537401.00 17519686.00 L 13962599.00 17519686.00 L 13962599.00 17695229.00 L 13825361.00 17695229.00 L 13315066.00 17184934.00 L 13300000.00 17178693.00 L 10150001.00 17178692.00 L 10134935.00 17184933.00 L 9973892.45 17345975.55 L 9950000.00 17336079.00 A 63920.91 63920.91 0 1 0 10013921.00 17400000.00 L 10004024.45 17376107.55 L 10158826.00 17221306.00 L 13291175.00 17221307.00 L 13801470.00 17731602.00 L 13816536.00 17737843.00 L 13962599.00 17737843.00 L 13962599.00 17913386.00 L 15537401.00 17913386.00 L 15537401.00 17519686.00  z"/>
<path id="N" d="M 6447298.87 17250075.00 m -63921.13 0 a 63921.13 63921.13 0 1 1 127842.26 0a 63921.13 63921.13 0 1 1 -127842.26 0"/>
<path id="N" d="M 6993787.87 17262205.00 m -63921.13 0 a 63921.13 63921.13 0 1 1 127842.26 0a 63921.13 63921.13 0 1 1 -127842.26 0"/>
<path id="N" d="M 13304226.87 18795772.00 m -63921.13 0 a 63921.13 63921.13 0 1 1 127842.26 0a 63921.13 63921.13 0 1 1 -127842.26 0"/>
<path id="N" d="M 11130863.87 15697634.00 m -63921.13 0 a 63921.13 63921.13 0 1 1 127842.26 0a 63921.13 63921.13 0 1 1 -127842.26 0"/>
<path id="N" d="M 10216456.87 12154522.00 m -63921.13 0 a 63921.13 63921.13 0 1 1 127842.26 0a 63921.13 63921.13 0 1 1 -127842.26 0"/>
<path id="N" d="M 7099999.87 12750000.00 m -63921.13 0 a 63921.13 63921.13 0 1 1 127842.26 0a 63921.13 63921.13 0 1 1 -127842.26 0"/>
<path id="N" d="M 12599999.87 16500000.00 m -63921.13 0 a 63921.13 63921.13 0 1 1 127842.26 0a 63921.13 63921.13 0 1 1 -127842.26 0"/>
<path id="N" d="M 14090944.87 18972462.00 m -63921.13 0 a 63921.13 63921.13 0 1 1 127842.26 0a 63921.13 63921.13 0 1 1 -127842.26 0"/>
<path id="N" d="M 12899999.87 20827166.00 m -63921.13 0 a 63921.13 63921.13 0 1 1 127842.26 0a 63921.13 63921.13 0 1 1 -127842.26 0"/>
<path id="N" d="M 8959372.00 13765541.00 L 8935709.92 13755739.87 L 8654120.00 13474149.05 L 8654121.00 10650000.00 L 8638269.00 10611731.00 L 7269127.63 9242589.63 L 7272044.00 9238225.00 A 200704.69 200704.69 0 0 0 7086615.00 8960711.00 L 6496063.00 8960711.00 A 200706.53 200706.53 0 0 0 6496063.00 9362125.00 L 7086615.00 9362125.00 L 7163422.00 9346847.00 L 7197523.20 9324061.20 L 8545880.00 10672418.00 L 8545879.00 13496567.00 L 8561731.00 13534836.00 L 8859172.87 13832276.92 L 8868974.00 13855939.00 A 63921.13 63921.13 0 0 0 8959372.00 13765541.00  z"/>
<path id="N" d="M 6055980.00 16948468.00 L 6063548.19 16910419.00 L 6703826.00 16910420.00 L 6742095.00 16894568.00 L 6934218.00 16702445.00 L 6950069.00 16664173.59 L 6950069.00 16505884.92 L 7113072.97 16342880.11 L 7136735.00 16333079.00 A 63921.13 63921.13 0 0 0 7046337.00 16242681.00 L 7036535.89 16266343.03 L 6857680.00 16445198.00 L 6841829.00 16483469.41 L 6841829.00 16641758.00 L 6681408.00 16802179.00 L 6063548.19 16802179.00 L 6055980.00 16764130.00 A 240860.29 240860.29 0 0 0 5833465.00 16615451.00 L 4967323.00 16615451.00 A 240838.32 240838.32 0 0 0 4967323.00 17097147.00 L 5833465.00 17097147.00 A 240860.29 240860.29 0 0 0 6055980.00 16948468.00  z"/>
<path id="N" d="M 9245608.87 12137895.00 m -63921.13 0 a 63921.13 63921.13 0 1 1 127842.26 0a 63921.13 63921.13 0 1 1 -127842.26 0"/>
<path id="N" d="M 10249929.00 13883232.00 L 10240128.00 13859570.24 L 10240128.00 13686409.99 L 12536513.00 11390025.00 L 12544065.64 11371791.32 L 12561146.99 11354709.88 L 12598425.00 11362125.00 L 13188977.00 11362125.00 A 200706.53 200706.53 0 0 0 13188977.00 10960711.00 L 12598425.00 10960711.00 A 200706.53 200706.53 0 0 0 12456504.00 11303339.00 L 12459049.64 11305039.95 L 12452421.31 11321041.68 L 10147739.00 13625723.00 L 10131888.00 13663994.41 L 10131888.00 13859570.24 L 10122087.00 13883232.00 A 63920.91 63920.91 0 1 0 10249929.00 13883232.00  z"/>
<path id="N" d="M 14499999.87 19271260.00 m -63921.13 0 a 63921.13 63921.13 0 1 1 127842.26 0a 63921.13 63921.13 0 1 1 -127842.26 0"/>
<path id="N" d="M 13721072.87 19933279.00 m -63921.13 0 a 63921.13 63921.13 0 1 1 127842.26 0a 63921.13 63921.13 0 1 1 -127842.26 0"/>
<path id="N" d="M 13313921.00 8350000.00 L 13302463.28 8322338.57 L 13330898.00 8303339.00 A 200706.53 200706.53 0 0 0 13374406.00 8084611.00 L 13348626.57 8046029.54 L 13365274.00 8005839.00 A 63920.91 63920.91 0 0 0 13256154.00 7960640.00 L 13251013.25 7973050.89 L 13188977.00 7960711.00 L 12947821.00 7960711.00 L 12947821.00 7362125.00 L 13188977.00 7362125.00 A 200706.53 200706.53 0 0 0 13374406.00 7238225.00 L 13378918.57 7215539.00 L 13611810.00 7215540.00 L 13650079.00 7199688.00 L 14071536.89 6778229.15 L 14095199.00 6768428.00 A 63921.13 63921.13 0 0 0 14004801.00 6678030.00 L 13994999.85 6701692.11 L 13589392.04 7107299.00 L 13378918.96 7107299.00 L 13374406.00 7084611.00 A 200709.51 200709.51 0 0 0 13188977.00 6960711.00 L 12598425.00 6960711.00 A 200706.53 200706.53 0 1 0 12598425.00 7362125.00 L 12839581.00 7362125.00 L 12839581.00 7960711.00 L 12598425.00 7960711.00 A 200706.53 200706.53 0 1 0 12598425.00 8362125.00 L 12791101.33 8362125.00 L 12804801.00 8395199.00 L 12850000.00 8413921.00 L 12895199.00 8395199.00 L 12908898.67 8362125.00 L 12991101.33 8362125.00 L 13004801.00 8395199.00 L 13050000.00 8413921.00 L 13095199.00 8395199.00 L 13108898.67 8362125.00 L 13190939.62 8361734.61 L 13204801.00 8395199.00 A 63921.13 63921.13 0 0 0 13313921.00 8350000.00  z"/>
<path id="N" d="M 14850000.00 18836079.00 L 14826107.99 18845975.38 L 14771307.00 18791174.94 L 14771307.00 18700787.00 L 15537401.00 18700787.00 L 15537401.00 18307087.00 L 13962599.00 18307087.00 L 13962599.00 18700787.00 L 14728693.00 18700787.00 L 14728693.00 18800000.00 L 14734934.00 18815066.00 L 14795975.38 18876107.99 L 14786079.00 18900000.00 A 63920.91 63920.91 0 1 0 14850000.00 18836079.00  z"/>
<path id="N" d="M 12132677.00 16615451.00 L 11266535.00 16615451.00 A 240838.32 240838.32 0 0 0 11266535.00 17097147.00 L 12132677.00 17097147.00 A 240860.29 240860.29 0 0 0 12132677.00 16615451.00  z"/>
<path id="N" d="M 7079359.87 14534378.00 m -63921.13 0 a 63921.13 63921.13 0 1 1 127842.26 0a 63921.13 63921.13 0 1 1 -127842.26 0"/>
<path id="N" d="M 5099999.87 12200000.00 m -63921.13 0 a 63921.13 63921.13 0 1 1 127842.26 0a 63921.13 63921.13 0 1 1 -127842.26 0"/>
<path id="N" d="M 4526770.87 16200000.00 m -63921.13 0 a 63921.13 63921.13 0 1 1 127842.26 0a 63921.13 63921.13 0 1 1 -127842.26 0"/>
<path id="N" d="M 11572821.87 13450000.00 m -63921.13 0 a 63921.13 63921.13 0 1 1 127842.26 0a 63921.13 63921.13 0 1 1 -127842.26 0"/>
<path id="N" d="M 6686893.87 16550000.00 m -63921.13 0 a 63921.13 63921.13 0 1 1 127842.26 0a 63921.13 63921.13 0 1 1 -127842.26 0"/>
<path id="N" d="M 6095879.87 17348098.00 m -63921.13 0 a 63921.13 63921.13 0 1 1 127842.26 0a 63921.13 63921.13 0 1 1 -127842.26 0"/>
<path id="N" d="M 12749999.87 17378740.00 m -63921.13 0 a 63921.13 63921.13 0 1 1 127842.26 0a 63921.13 63921.13 0 1 1 -127842.26 0"/>
<path id="N" d="M 7649999.87 19000000.00 m -63921.13 0 a 63921.13 63921.13 0 1 1 127842.26 0a 63921.13 63921.13 0 1 1 -127842.26 0"/>
<path id="N" d="M 7249999.87 19773229.00 m -63921.13 0 a 63921.13 63921.13 0 1 1 127842.26 0a 63921.13 63921.13 0 1 1 -127842.26 0"/>
<path id="N" d="M 7277165.87 20250000.00 m -63921.13 0 a 63921.13 63921.13 0 1 1 127842.26 0a 63921.13 63921.13 0 1 1 -127842.26 0"/>
<path id="N" d="M 13049999.87 17378740.00 m -63921.13 0 a 63921.13 63921.13 0 1 1 127842.26 0a 63921.13 63921.13 0 1 1 -127842.26 0"/>
<path id="N" d="M 13149999.87 19650000.00 m -63921.13 0 a 63921.13 63921.13 0 1 1 127842.26 0a 63921.13 63921.13 0 1 1 -127842.26 0"/>
<path id="N" d="M 4499999.87 15619291.00 m -63921.13 0 a 63921.13 63921.13 0 1 1 127842.26 0a 63921.13 63921.13 0 1 1 -127842.26 0"/>
<path id="N" d="M 6599999.87 20250000.00 m -63921.13 0 a 63921.13 63921.13 0 1 1 127842.26 0a 63921.13 63921.13 0 1 1 -127842.26 0"/>
<path id="N" d="M 6403543.87 19251575.00 m -63921.13 0 a 63921.13 63921.13 0 1 1 127842.26 0a 63921.13 63921.13 0 1 1 -127842.26 0"/>
<path id="N" d="M 6627165.87 18900000.00 m -63921.13 0 a 63921.13 63921.13 0 1 1 127842.26 0a 63921.13 63921.13 0 1 1 -127842.26 0"/>
<path id="N" d="M 13551352.87 8605839.00 m -63921.13 0 a 63921.13 63921.13 0 1 1 127842.26 0a 63921.13 63921.13 0 1 1 -127842.26 0"/>
<path id="N" d="M 13351352.87 8605839.00 m -63921.13 0 a 63921.13 63921.13 0 1 1 127842.26 0a 63921.13 63921.13 0 1 1 -127842.26 0"/>
<path id="N" d="M 13951352.87 8605839.00 m -63921.13 0 a 63921.13 63921.13 0 1 1 127842.26 0a 63921.13 63921.13 0 1 1 -127842.26 0"/>
<path id="N" d="M 13751352.87 8605839.00 m -63921.13 0 a 63921.13 63921.13 0 1 1 127842.26 0a 63921.13 63921.13 0 1 1 -127842.26 0"/>
<path id="N" d="M 14899999.87 8450000.00 m -63921.13 0 a 63921.13 63921.13 0 1 1 127842.26 0a 63921.13 63921.13 0 1 1 -127842.26 0"/>
<path id="N" d="M 13649999.87 8350000.00 m -63921.13 0 a 63921.13 63921.13 0 1 1 127842.26 0a 63921.13 63921.13 0 1 1 -127842.26 0"/>
<path id="N" d="M 13849999.87 8350000.00 m -63921.13 0 a 63921.13 63921.13 0 1 1 127842.26 0a 63921.13 63921.13 0 1 1 -127842.26 0"/>
<path id="N" d="M 14899999.87 7950000.00 m -63921.13 0 a 63921.13 63921.13 0 1 1 127842.26 0a 63921.13 63921.13 0 1 1 -127842.26 0"/>
<path id="N" d="M 13901352.87 8005839.00 m -63921.13 0 a 63921.13 63921.13 0 1 1 127842.26 0a 63921.13 63921.13 0 1 1 -127842.26 0"/>
<path id="N" d="M 10693943.87 12158662.00 m -63921.13 0 a 63921.13 63921.13 0 1 1 127842.26 0a 63921.13 63921.13 0 1 1 -127842.26 0"/>
<path id="N" d="M 10849999.87 17450000.00 m -63921.13 0 a 63921.13 63921.13 0 1 1 127842.26 0a 63921.13 63921.13 0 1 1 -127842.26 0"/>
<path id="N" d="M 14899999.87 8150000.00 m -63921.13 0 a 63921.13 63921.13 0 1 1 127842.26 0a 63921.13 63921.13 0 1 1 -127842.26 0"/>
<path id="N" d="M 13449999.87 8350000.00 m -63921.13 0 a 63921.13 63921.13 0 1 1 127842.26 0a 63921.13 63921.13 0 1 1 -127842.26 0"/>
<path id="N" d="M 14899999.87 8700000.00 m -63921.13 0 a 63921.13 63921.13 0 1 1 127842.26 0a 63921.13 63921.13 0 1 1 -127842.26 0"/>
<path id="N" d="M 5549999.87 8800000.00 m -63921.13 0 a 63921.13 63921.13 0 1 1 127842.26 0a 63921.13 63921.13 0 1 1 -127842.26 0"/>
<path id="N" d="M 9065563.87 10865564.00 m -63921.13 0 a 63921.13 63921.13 0 1 1 127842.26 0a 63921.13 63921.13 0 1 1 -127842.26 0"/>
<path id="N" d="M 5499999.87 11250000.00 m -63921.13 0 a 63921.13 63921.13 0 1 1 127842.26 0a 63921.13 63921.13 0 1 1 -127842.26 0"/>
<path id="N" d="M 13701352.87 8005839.00 m -63921.13 0 a 63921.13 63921.13 0 1 1 127842.26 0a 63921.13 63921.13 0 1 1 -127842.26 0"/>
<path id="N" d="M 4449999.87 7800000.00 m -63921.13 0 a 63921.13 63921.13 0 1 1 127842.26 0a 63921.13 63921.13 0 1 1 -127842.26 0"/>
<path id="N" d="M 14049999.87 8350000.00 m -63921.13 0 a 63921.13 63921.13 0 1 1 127842.26 0a 63921.13 63921.13 0 1 1 -127842.26 0"/>
<path id="N" d="M 13501352.87 8005839.00 m -63921.13 0 a 63921.13 63921.13 0 1 1 127842.26 0a 63921.13 63921.13 0 1 1 -127842.26 0"/>
<path id="N" d="M 8746850.87 21446851.00 m -63921.13 0 a 63921.13 63921.13 0 1 1 127842.26 0a 63921.13 63921.13 0 1 1 -127842.26 0"/>
<path id="N" d="M 9949999.87 21900000.00 m -63921.13 0 a 63921.13 63921.13 0 1 1 127842.26 0a 63921.13 63921.13 0 1 1 -127842.26 0"/>
<path id="N" d="M 6975196.87 21425197.00 m -63921.13 0 a 63921.13 63921.13 0 1 1 127842.26 0a 63921.13 63921.13 0 1 1 -127842.26 0"/>
<path id="N" d="M 7086615.00 7960711.00 L 6496063.00 7960711.00 A 200706.53 200706.53 0 0 0 6496063.00 8362125.00 L 7086615.00 8362125.00 A 200709.51 200709.51 0 1 0 7086615.00 7960711.00  z"/>
<path id="N" d="M 7086615.00 6960711.00 L 6496063.00 6960711.00 A 200706.53 200706.53 0 0 0 6496063.00 7362125.00 L 7086615.00 7362125.00 A 200709.51 200709.51 0 1 0 7086615.00 6960711.00  z"/>
<path id="N" d="M 7086615.00 9960711.00 L 6496063.00 9960711.00 A 200706.53 200706.53 0 0 0 6496063.00 10362125.00 L 7086615.00 10362125.00 A 200709.51 200709.51 0 1 0 7086615.00 9960711.00  z"/>
<path id="N" d="M 7086615.00 5960711.00 L 6496063.00 5960711.00 A 200706.53 200706.53 0 0 0 6496063.00 6362125.00 L 7086615.00 6362125.00 A 200709.51 200709.51 0 1 0 7086615.00 5960711.00  z"/>
<path id="N" d="M 5833465.00 18977656.00 L 4967323.00 18977656.00 A 240838.32 240838.32 0 1 0 4967323.00 19459352.00 L 5833465.00 19459352.00 A 240860.29 240860.29 0 1 0 5833465.00 18977656.00  z"/>
<path id="N" d="M 12132677.00 17402853.00 L 11266535.00 17402853.00 A 240838.32 240838.32 0 0 0 11266535.00 17884549.00 L 12132677.00 17884549.00 A 240860.29 240860.29 0 0 0 12132677.00 17402853.00  z"/>
<path id="N" d="M 12132677.00 18190254.00 L 11266535.00 18190254.00 A 240838.32 240838.32 0 0 0 11266535.00 18671950.00 L 12132677.00 18671950.00 A 240860.29 240860.29 0 1 0 12132677.00 18190254.00  z"/>
<path id="N" d="M 13188977.00 5960711.00 L 12598425.00 5960711.00 A 200706.53 200706.53 0 1 0 12598425.00 6362125.00 L 13188977.00 6362125.00 A 200709.51 200709.51 0 0 0 13188977.00 5960711.00  z"/>
<path id="N" d="M 12132677.00 15828050.00 L 11266535.00 15828050.00 A 240838.32 240838.32 0 0 0 11266535.00 16309746.00 L 12132677.00 16309746.00 A 240860.29 240860.29 0 1 0 12132677.00 15828050.00  z"/>
<path id="N" d="M 15537401.00 16732284.00 L 13962599.00 16732284.00 L 13962599.00 17125984.00 L 15537401.00 17125984.00 L 15537401.00 16732284.00  z"/>
<path id="N" d="M 15537401.00 15944882.00 L 13962599.00 15944882.00 L 13962599.00 16338582.00 L 15537401.00 16338582.00 L 15537401.00 15944882.00  z"/>
<path id="N" d="M 10299999.87 4800000.00 m -63921.13 0 a 63921.13 63921.13 0 1 1 127842.26 0a 63921.13 63921.13 0 1 1 -127842.26 0"/>
<path id="N" d="M 10149999.87 4650000.00 m -63921.13 0 a 63921.13 63921.13 0 1 1 127842.26 0a 63921.13 63921.13 0 1 1 -127842.26 0"/>
<path id="N" d="M 10866141.87 12661648.00 m -63921.13 0 a 63921.13 63921.13 0 1 1 127842.26 0a 63921.13 63921.13 0 1 1 -127842.26 0"/>
<path id="N" d="M 14549999.87 9250000.00 m -63921.13 0 a 63921.13 63921.13 0 1 1 127842.26 0a 63921.13 63921.13 0 1 1 -127842.26 0"/>
<path id="N" d="M 9999999.87 4500000.00 m -63921.13 0 a 63921.13 63921.13 0 1 1 127842.26 0a 63921.13 63921.13 0 1 1 -127842.26 0"/>
<path id="N" d="M 8849999.87 10800000.00 m -63921.13 0 a 63921.13 63921.13 0 1 1 127842.26 0a 63921.13 63921.13 0 1 1 -127842.26 0"/>
<path id="N" d="M 11249999.87 20850000.00 m -63921.13 0 a 63921.13 63921.13 0 1 1 127842.26 0a 63921.13 63921.13 0 1 1 -127842.26 0"/>
<path id="N" d="M 14299999.87 9500000.00 m -63921.13 0 a 63921.13 63921.13 0 1 1 127842.26 0a 63921.13 63921.13 0 1 1 -127842.26 0"/>
<path id="N" d="M 8384141.76 15651208.00 L 9852913.00 15651209.00 L 9891182.00 15635357.00 L 10933365.00 14593174.00 L 11048637.89 14593174.00 L 11096230.00 14664399.00 L 11174366.00 14716609.00 L 11266535.00 14734942.00 L 12132677.00 14734942.00 A 240838.32 240838.32 0 1 0 12132677.00 14253246.00 L 11266535.00 14253246.00 A 240838.32 240838.32 0 0 0 11044020.00 14401925.00 L 11027508.98 14484934.00 L 10910947.00 14484933.00 L 10872678.00 14500785.00 L 9830495.00 15542968.00 L 8384141.76 15542968.00 L 8360480.00 15533167.00 A 63920.91 63920.91 0 1 0 8360480.00 15661009.00 L 8384141.76 15651208.00  z"/>
<path id="N" d="M 12650000.00 21991339.00 L 12433531.00 21991339.00 L 12434518.00 20706300.00 A 734907.56 734907.56 0 0 0 12310663.00 20298005.00 L 12243388.49 20216031.02 L 12302982.00 20176211.00 A 240838.32 240838.32 0 0 0 12132677.00 19765058.00 L 11266535.00 19765058.00 A 240838.32 240838.32 0 0 0 11266535.00 20246754.00 L 12132677.00 20246754.00 L 12175064.08 20238322.94 L 12254720.00 20335385.00 A 667615.43 667615.43 0 0 1 12367088.66 20704804.01 L 12366469.00 21991339.00 L 12150000.00 21991339.00 L 12150000.00 23408661.00 L 12650000.00 23408661.00 L 12650000.00 21991339.00  z"/>
<path id="N" d="M 6074313.00 17643701.00 L 6070300.22 17623526.78 L 6099882.59 17611273.00 L 7042847.00 17611274.00 L 7081116.00 17595422.00 L 7238269.00 17438269.00 L 7254120.00 17399997.59 L 7254120.00 17318984.00 L 7932278.53 16640825.47 L 7955939.00 16631025.00 A 63921.13 63921.13 0 1 0 7865541.00 16540627.00 L 7855740.53 16564287.47 L 7161731.00 17258297.00 L 7145880.00 17296568.41 L 7145880.00 17377582.00 L 7020429.00 17503033.00 L 6078265.00 17503033.00 L 6041362.49 17518318.00 L 6033786.61 17518318.00 L 6003770.00 17473396.00 L 5925634.00 17421186.00 L 5833465.00 17402853.00 L 4967323.00 17402853.00 A 240838.32 240838.32 0 0 0 4967323.00 17884549.00 L 5833465.00 17884549.00 A 240860.29 240860.29 0 0 0 6074313.00 17643701.00  z"/>
<path id="N" d="M 15000000.00 10736079.00 L 14976338.24 10745880.00 L 14122417.06 10745880.00 L 13904999.51 10528461.58 L 13895199.00 10504801.00 A 63921.13 63921.13 0 0 0 13804801.00 10595199.00 L 13828461.58 10604999.51 L 14061731.00 10838269.00 L 14100000.00 10854120.00 L 14976338.24 10854120.00 L 15000000.00 10863921.00 A 63921.13 63921.13 0 1 0 15000000.00 10736079.00  z"/>
<path id="N" d="M 14049999.87 19900000.00 m -63921.13 0 a 63921.13 63921.13 0 1 1 127842.26 0a 63921.13 63921.13 0 1 1 -127842.26 0"/>
<path id="N" d="M 13499999.87 19150000.00 m -63921.13 0 a 63921.13 63921.13 0 1 1 127842.26 0a 63921.13 63921.13 0 1 1 -127842.26 0"/>
<path id="N" d="M 15146484.87 21000270.00 m -63921.13 0 a 63921.13 63921.13 0 1 1 127842.26 0a 63921.13 63921.13 0 1 1 -127842.26 0"/>
<path id="N" d="M 13249999.87 20800000.00 m -63921.13 0 a 63921.13 63921.13 0 1 1 127842.26 0a 63921.13 63921.13 0 1 1 -127842.26 0"/>
<path id="N" d="M 11249999.87 10050000.00 m -63921.13 0 a 63921.13 63921.13 0 1 1 127842.26 0a 63921.13 63921.13 0 1 1 -127842.26 0"/>
<path id="N" d="M 13349999.87 21300000.00 m -63921.13 0 a 63921.13 63921.13 0 1 1 127842.26 0a 63921.13 63921.13 0 1 1 -127842.26 0"/>
</g>
</svg>
