<svg width="29.99999842mm" height="49.99999906mm" viewBox="0 0 11811023 19685039"  version="1.1" xmlns="http://www.w3.org/2000/svg" xmlns:xlink="http://www.w3.org/1999/xlink">
<desc>
Origin 0 0 Bound 3937008 3937008 11811023 19685039
</desc>
<g fill-rule="evenodd" fill="rgb(0, 0, 255)" stroke="black" stroke-width="1" transform="translate(0, 19685039) scale(1, -1) translate(-3937008, -3937008)">
<path id="N" d="M 6055980.00 18523271.00 L 6063548.19 18485222.00 L 6464541.00 18485223.00 L 6502810.00 18469371.00 L 8197320.00 16774861.00 L 8213171.00 16736589.59 L 8213172.00 16113403.00 L 8205545.00 16094990.81 L 8205545.00 15547939.00 L 8189694.00 15509670.00 L 8016611.47 15336587.47 L 8006811.00 15312927.00 A 63921.13 63921.13 0 1 0 7916413.00 15403325.00 L 7940073.47 15413125.47 L 8097305.00 15570357.00 L 8097304.00 16105777.00 L 8104931.00 16124189.67 L 8104931.00 16714174.00 L 6442123.00 18376982.00 L 6063548.19 18376982.00 L 6055980.00 18338933.00 A 240860.29 240860.29 0 0 0 5833465.00 18190254.00 L 4967323.00 18190254.00 A 240838.32 240838.32 0 0 0 4967323.00 18671950.00 L 5833465.00 18671950.00 A 240860.29 240860.29 0 0 0 6055980.00 18523271.00  z"/>
<path id="N" d="M 5599999.87 7800000.00 m -63921.13 0 a 63921.13 63921.13 0 1 1 127842.26 0a 63921.13 63921.13 0 1 1 -127842.26 0"/>
<path id="N" d="M 6198461.87 18051239.00 m -63921.13 0 a 63921.13 63921.13 0 1 1 127842.26 0a 63921.13 63921.13 0 1 1 -127842.26 0"/>
<path id="N" d="M 11048424.87 16401575.00 m -63921.13 0 a 63921.13 63921.13 0 1 1 127842.26 0a 63921.13 63921.13 0 1 1 -127842.26 0"/>
<path id="N" d="M 7199999.87 19350000.00 m -63921.13 0 a 63921.13 63921.13 0 1 1 127842.26 0a 63921.13 63921.13 0 1 1 -127842.26 0"/>
<path id="N" d="M 7995199.00 16154801.00 L 7971536.86 16144999.84 L 7069765.00 15243227.00 L 7031493.59 15227376.00 L 6063548.19 15227376.00 L 6055980.00 15189327.00 A 240860.29 240860.29 0 0 0 5833465.00 15040648.00 L 4967323.00 15040648.00 A 240838.32 240838.32 0 1 0 4967323.00 15522344.00 L 5833465.00 15522344.00 A 240838.32 240838.32 0 0 0 6055980.00 15373665.00 L 6063548.19 15335616.00 L 7009078.02 15335616.00 L 7894999.84 16221536.86 L 7904801.00 16245199.00 A 63921.13 63921.13 0 0 0 7995199.00 16154801.00  z"/>
<path id="N" d="M 6055980.00 16161067.00 L 6063548.19 16123018.00 L 7076201.00 16123019.00 L 7114470.00 16107167.00 L 7163170.81 16058465.48 L 7195199.00 16045199.00 A 63921.13 63921.13 0 0 0 7104801.00 15954801.00 L 7098465.43 15970096.45 L 7053783.23 16014778.00 L 6063548.19 16014778.00 L 6055980.00 15976729.00 A 240860.29 240860.29 0 0 0 5833465.00 15828050.00 L 4967323.00 15828050.00 A 240838.32 240838.32 0 1 0 4967323.00 16309746.00 L 5833465.00 16309746.00 A 240860.29 240860.29 0 0 0 6055980.00 16161067.00  z"/>
<path id="N" d="M 8549999.87 20700000.00 m -63921.13 0 a 63921.13 63921.13 0 1 1 127842.26 0a 63921.13 63921.13 0 1 1 -127842.26 0"/>
<path id="N" d="M 10999999.87 15650000.00 m -63921.13 0 a 63921.13 63921.13 0 1 1 127842.26 0a 63921.13 63921.13 0 1 1 -127842.26 0"/>
<path id="N" d="M 13714487.00 23036221.00 L 13714487.00 22563779.00 A 200706.53 200706.53 0 0 0 13313073.00 22563779.00 L 13313073.00 23036221.00 A 200706.53 200706.53 0 1 0 13714487.00 23036221.00  zM 13393356.00 23036220.00 L 13393356.00 22563780.00 A 120431.73 120431.73 0 0 1 13634204.00 22563780.00 L 13634204.00 23036220.00 A 120431.73 120431.73 0 0 1 13393356.00 23036220.00  z"/>
<path id="N" d="M 10314487.00 23036221.00 L 10314487.00 22563779.00 A 200706.53 200706.53 0 0 0 9913073.00 22563779.00 L 9913073.00 23036221.00 A 200706.53 200706.53 0 1 0 10314487.00 23036221.00  zM 9993356.00 23036220.00 L 9993356.00 22563780.00 A 120431.73 120431.73 0 0 1 10234204.00 22563780.00 L 10234204.00 23036220.00 A 120431.73 120431.73 0 0 1 9993356.00 23036220.00  z"/>
<path id="N" d="M 13714487.00 21311810.00 L 13714487.00 20996850.00 A 200706.53 200706.53 0 0 0 13313073.00 20996850.00 L 13313073.00 21311810.00 A 200706.53 200706.53 0 1 0 13714487.00 21311810.00  zM 13393356.00 21311810.00 L 13393356.00 20996850.00 A 120431.73 120431.73 0 0 1 13634204.00 20996850.00 L 13634204.00 21311810.00 A 120431.73 120431.73 0 0 1 13393356.00 21311810.00  z"/>
<path id="N" d="M 10317843.00 21265031.00 L 10317843.00 20950071.00 A 200706.53 200706.53 0 0 0 9916429.00 20950071.00 L 9916429.00 21265031.00 A 200706.53 200706.53 0 0 0 10317843.00 21265031.00  zM 9996712.00 21265031.00 L 9996712.00 20950071.00 A 120431.73 120431.73 0 1 1 10237560.00 20950071.00 L 10237560.00 21265031.00 A 120431.73 120431.73 0 0 1 9996712.00 21265031.00  z"/>
<path id="N" d="M 5962295.67 20203923.89 L 6003770.00 20176211.00 A 240838.32 240838.32 0 0 0 5833465.00 19765058.00 L 4967323.00 19765058.00 A 240838.32 240838.32 0 1 0 4967323.00 20246754.00 L 5458555.11 20246754.00 L 5500000.00 20263921.00 L 5541444.89 20246754.00 L 5658555.11 20246754.00 L 5700000.00 20263921.00 L 5741444.89 20246754.00 L 5833465.00 20246754.00 L 5853772.02 20242714.81 L 5854801.00 20245199.00 A 63921.13 63921.13 0 0 0 5962295.67 20203923.89  z"/>
<path id="N" d="M 12545199.00 9354801.00 L 12530041.42 9348522.54 L 12598425.00 9362125.00 L 13188977.00 9362125.00 A 200706.53 200706.53 0 0 0 13188977.00 8960711.00 L 12598425.00 8960711.00 A 200706.53 200706.53 0 0 0 12456504.00 9303339.00 L 12514477.18 9342075.63 L 12500000.00 9336079.00 A 63920.91 63920.91 0 1 0 12545199.00 9354801.00  z"/>
<path id="N" d="M 12224846.00 18995989.00 L 12200644.29 18991175.13 L 12195199.00 18978029.00 L 12150000.00 18959307.00 L 12105701.50 18977656.00 L 11266535.00 18977656.00 A 240838.32 240838.32 0 0 0 11266535.00 19459352.00 L 12132677.00 19459352.00 A 240860.29 240860.29 0 0 0 12224846.00 18995989.00  z"/>
<path id="N" d="M 7086615.00 10960711.00 L 6496063.00 10960711.00 A 200706.53 200706.53 0 0 0 6496063.00 11362125.00 L 7086615.00 11362125.00 A 200709.51 200709.51 0 0 0 7086615.00 10960711.00  z"/>
<path id="N" d="M 5833465.00 14253246.00 L 4967323.00 14253246.00 A 240838.32 240838.32 0 0 0 4967323.00 14734942.00 L 5833465.00 14734942.00 A 240860.29 240860.29 0 1 0 5833465.00 14253246.00  z"/>
<path id="N" d="M 12167932.87 18037401.00 m -63921.13 0 a 63921.13 63921.13 0 1 1 127842.26 0a 63921.13 63921.13 0 1 1 -127842.26 0"/>
<path id="N" d="M 10848834.87 18825981.00 m -63921.13 0 a 63921.13 63921.13 0 1 1 127842.26 0a 63921.13 63921.13 0 1 1 -127842.26 0"/>
<path id="N" d="M 7149999.87 18750000.00 m -63921.13 0 a 63921.13 63921.13 0 1 1 127842.26 0a 63921.13 63921.13 0 1 1 -127842.26 0"/>
<path id="N" d="M 10369880.87 18650000.00 m -63921.13 0 a 63921.13 63921.13 0 1 1 127842.26 0a 63921.13 63921.13 0 1 1 -127842.26 0"/>
<path id="N" d="M 4549999.87 18600000.00 m -63921.13 0 a 63921.13 63921.13 0 1 1 127842.26 0a 63921.13 63921.13 0 1 1 -127842.26 0"/>
<path id="N" d="M 6899999.87 17000000.00 m -63921.13 0 a 63921.13 63921.13 0 1 1 127842.26 0a 63921.13 63921.13 0 1 1 -127842.26 0"/>
<path id="N" d="M 4932065.87 16462598.00 m -63921.13 0 a 63921.13 63921.13 0 1 1 127842.26 0a 63921.13 63921.13 0 1 1 -127842.26 0"/>
<path id="N" d="M 13049999.87 16850000.00 m -63921.13 0 a 63921.13 63921.13 0 1 1 127842.26 0a 63921.13 63921.13 0 1 1 -127842.26 0"/>
<path id="N" d="M 12649999.87 16900000.00 m -63921.13 0 a 63921.13 63921.13 0 1 1 127842.26 0a 63921.13 63921.13 0 1 1 -127842.26 0"/>
<path id="N" d="M 10699999.87 17450000.00 m -63921.13 0 a 63921.13 63921.13 0 1 1 127842.26 0a 63921.13 63921.13 0 1 1 -127842.26 0"/>
<path id="N" d="M 10299999.87 17500000.00 m -63921.13 0 a 63921.13 63921.13 0 1 1 127842.26 0a 63921.13 63921.13 0 1 1 -127842.26 0"/>
<path id="N" d="M 10849999.87 17500000.00 m -63921.13 0 a 63921.13 63921.13 0 1 1 127842.26 0a 63921.13 63921.13 0 1 1 -127842.26 0"/>
<path id="N" d="M 10449999.87 17450000.00 m -63921.13 0 a 63921.13 63921.13 0 1 1 127842.26 0a 63921.13 63921.13 0 1 1 -127842.26 0"/>
<path id="N" d="M 9123460.87 18569281.00 m -63921.13 0 a 63921.13 63921.13 0 1 1 127842.26 0a 63921.13 63921.13 0 1 1 -127842.26 0"/>
<path id="N" d="M 5699999.87 20600000.00 m -63921.13 0 a 63921.13 63921.13 0 1 1 127842.26 0a 63921.13 63921.13 0 1 1 -127842.26 0"/>
<path id="N" d="M 5899999.87 20600000.00 m -63921.13 0 a 63921.13 63921.13 0 1 1 127842.26 0a 63921.13 63921.13 0 1 1 -127842.26 0"/>
<path id="N" d="M 5899999.87 20400000.00 m -63921.13 0 a 63921.13 63921.13 0 1 1 127842.26 0a 63921.13 63921.13 0 1 1 -127842.26 0"/>
<path id="N" d="M 5499999.87 20600000.00 m -63921.13 0 a 63921.13 63921.13 0 1 1 127842.26 0a 63921.13 63921.13 0 1 1 -127842.26 0"/>
<path id="N" d="M 4349999.87 19822835.00 m -63921.13 0 a 63921.13 63921.13 0 1 1 127842.26 0a 63921.13 63921.13 0 1 1 -127842.26 0"/>
<path id="N" d="M 9884646.87 20050000.00 m -63921.13 0 a 63921.13 63921.13 0 1 1 127842.26 0a 63921.13 63921.13 0 1 1 -127842.26 0"/>
<path id="N" d="M 9449999.87 20100000.00 m -63921.13 0 a 63921.13 63921.13 0 1 1 127842.26 0a 63921.13 63921.13 0 1 1 -127842.26 0"/>
<path id="N" d="M 8818897.87 19409449.00 m -63921.13 0 a 63921.13 63921.13 0 1 1 127842.26 0a 63921.13 63921.13 0 1 1 -127842.26 0"/>
<path id="N" d="M 9155511.87 19428740.00 m -63921.13 0 a 63921.13 63921.13 0 1 1 127842.26 0a 63921.13 63921.13 0 1 1 -127842.26 0"/>
<path id="N" d="M 10433070.87 18985039.00 m -63921.13 0 a 63921.13 63921.13 0 1 1 127842.26 0a 63921.13 63921.13 0 1 1 -127842.26 0"/>
<path id="N" d="M 8818897.87 19050000.00 m -63921.13 0 a 63921.13 63921.13 0 1 1 127842.26 0a 63921.13 63921.13 0 1 1 -127842.26 0"/>
<path id="N" d="M 4749999.87 21050000.00 m -63921.13 0 a 63921.13 63921.13 0 1 1 127842.26 0a 63921.13 63921.13 0 1 1 -127842.26 0"/>
<path id="N" d="M 5499999.87 20400000.00 m -63921.13 0 a 63921.13 63921.13 0 1 1 127842.26 0a 63921.13 63921.13 0 1 1 -127842.26 0"/>
<path id="N" d="M 5699999.87 20400000.00 m -63921.13 0 a 63921.13 63921.13 0 1 1 127842.26 0a 63921.13 63921.13 0 1 1 -127842.26 0"/>
<path id="N" d="M 6449999.87 14150000.00 m -63921.13 0 a 63921.13 63921.13 0 1 1 127842.26 0a 63921.13 63921.13 0 1 1 -127842.26 0"/>
<path id="N" d="M 14499999.87 13800000.00 m -63921.13 0 a 63921.13 63921.13 0 1 1 127842.26 0a 63921.13 63921.13 0 1 1 -127842.26 0"/>
<path id="N" d="M 5999999.87 12600000.00 m -63921.13 0 a 63921.13 63921.13 0 1 1 127842.26 0a 63921.13 63921.13 0 1 1 -127842.26 0"/>
<path id="N" d="M 11923227.87 13450000.00 m -63921.13 0 a 63921.13 63921.13 0 1 1 127842.26 0a 63921.13 63921.13 0 1 1 -127842.26 0"/>
<path id="N" d="M 6299999.87 6800000.00 m -63921.13 0 a 63921.13 63921.13 0 1 1 127842.26 0a 63921.13 63921.13 0 1 1 -127842.26 0"/>
<path id="N" d="M 11249999.87 9350000.00 m -63921.13 0 a 63921.13 63921.13 0 1 1 127842.26 0a 63921.13 63921.13 0 1 1 -127842.26 0"/>
<path id="N" d="M 14699999.87 13750000.00 m -63921.13 0 a 63921.13 63921.13 0 1 1 127842.26 0a 63921.13 63921.13 0 1 1 -127842.26 0"/>
<path id="N" d="M 9825393.87 20300787.00 m -63921.13 0 a 63921.13 63921.13 0 1 1 127842.26 0a 63921.13 63921.13 0 1 1 -127842.26 0"/>
<path id="N" d="M 10449213.87 20300787.00 m -63921.13 0 a 63921.13 63921.13 0 1 1 127842.26 0a 63921.13 63921.13 0 1 1 -127842.26 0"/>
<path id="N" d="M 7399999.87 20150000.00 m -63921.13 0 a 63921.13 63921.13 0 1 1 127842.26 0a 63921.13 63921.13 0 1 1 -127842.26 0"/>
<path id="N" d="M 8223227.87 21300000.00 m -63921.13 0 a 63921.13 63921.13 0 1 1 127842.26 0a 63921.13 63921.13 0 1 1 -127842.26 0"/>
<path id="N" d="M 12949999.87 10517324.00 m -63921.13 0 a 63921.13 63921.13 0 1 1 127842.26 0a 63921.13 63921.13 0 1 1 -127842.26 0"/>
<path id="N" d="M 5999999.87 12950000.00 m -63921.13 0 a 63921.13 63921.13 0 1 1 127842.26 0a 63921.13 63921.13 0 1 1 -127842.26 0"/>
<path id="N" d="M 15099999.87 12900000.00 m -63921.13 0 a 63921.13 63921.13 0 1 1 127842.26 0a 63921.13 63921.13 0 1 1 -127842.26 0"/>
<path id="N" d="M 6749999.87 6800000.00 m -63921.13 0 a 63921.13 63921.13 0 1 1 127842.26 0a 63921.13 63921.13 0 1 1 -127842.26 0"/>
<path id="N" d="M 9399999.87 7250000.00 m -63921.13 0 a 63921.13 63921.13 0 1 1 127842.26 0a 63921.13 63921.13 0 1 1 -127842.26 0"/>
<path id="N" d="M 4449999.87 8300000.00 m -63921.13 0 a 63921.13 63921.13 0 1 1 127842.26 0a 63921.13 63921.13 0 1 1 -127842.26 0"/>
<path id="N" d="M 5349999.87 9300000.00 m -63921.13 0 a 63921.13 63921.13 0 1 1 127842.26 0a 63921.13 63921.13 0 1 1 -127842.26 0"/>
<path id="N" d="M 10845417.87 18598194.00 m -63921.13 0 a 63921.13 63921.13 0 1 1 127842.26 0a 63921.13 63921.13 0 1 1 -127842.26 0"/>
<path id="N" d="M 10749999.87 14350000.00 m -63921.13 0 a 63921.13 63921.13 0 1 1 127842.26 0a 63921.13 63921.13 0 1 1 -127842.26 0"/>
<path id="N" d="M 9446370.87 18569281.00 m -63921.13 0 a 63921.13 63921.13 0 1 1 127842.26 0a 63921.13 63921.13 0 1 1 -127842.26 0"/>
<path id="N" d="M 6099999.87 6800000.00 m -63921.13 0 a 63921.13 63921.13 0 1 1 127842.26 0a 63921.13 63921.13 0 1 1 -127842.26 0"/>
<path id="N" d="M 8999999.87 19650000.00 m -63921.13 0 a 63921.13 63921.13 0 1 1 127842.26 0a 63921.13 63921.13 0 1 1 -127842.26 0"/>
<path id="N" d="M 9930096.87 18408465.00 m -63921.13 0 a 63921.13 63921.13 0 1 1 127842.26 0a 63921.13 63921.13 0 1 1 -127842.26 0"/>
<path id="N" d="M 11049999.87 19650000.00 m -63921.13 0 a 63921.13 63921.13 0 1 1 127842.26 0a 63921.13 63921.13 0 1 1 -127842.26 0"/>
<path id="N" d="M 8349999.87 18900000.00 m -63921.13 0 a 63921.13 63921.13 0 1 1 127842.26 0a 63921.13 63921.13 0 1 1 -127842.26 0"/>
<path id="N" d="M 7999999.87 18923228.00 m -63921.13 0 a 63921.13 63921.13 0 1 1 127842.26 0a 63921.13 63921.13 0 1 1 -127842.26 0"/>
<path id="N" d="M 12449999.87 18950000.00 m -63921.13 0 a 63921.13 63921.13 0 1 1 127842.26 0a 63921.13 63921.13 0 1 1 -127842.26 0"/>
<path id="N" d="M 9566928.87 19614961.00 m -63921.13 0 a 63921.13 63921.13 0 1 1 127842.26 0a 63921.13 63921.13 0 1 1 -127842.26 0"/>
<path id="N" d="M 6499999.87 6800000.00 m -63921.13 0 a 63921.13 63921.13 0 1 1 127842.26 0a 63921.13 63921.13 0 1 1 -127842.26 0"/>
<path id="N" d="M 5899999.87 6800000.00 m -63921.13 0 a 63921.13 63921.13 0 1 1 127842.26 0a 63921.13 63921.13 0 1 1 -127842.26 0"/>
<path id="N" d="M 4699999.87 19750000.00 m -63921.13 0 a 63921.13 63921.13 0 1 1 127842.26 0a 63921.13 63921.13 0 1 1 -127842.26 0"/>
<path id="N" d="M 10867716.87 19600000.00 m -63921.13 0 a 63921.13 63921.13 0 1 1 127842.26 0a 63921.13 63921.13 0 1 1 -127842.26 0"/>
<path id="N" d="M 12449999.87 19500000.00 m -63921.13 0 a 63921.13 63921.13 0 1 1 127842.26 0a 63921.13 63921.13 0 1 1 -127842.26 0"/>
<path id="N" d="M 15537401.00 15157481.00 L 13962599.00 15157481.00 L 13962599.00 15551181.00 L 15537401.00 15551181.00 L 15537401.00 15157481.00  z"/>
<path id="N" d="M 8700788.00 21773229.00 L 8169292.00 21773229.00 L 8169292.00 23426771.00 L 8700788.00 23426771.00 L 8700788.00 21773229.00  z"/>
<path id="N" d="M 6476378.00 21773229.00 L 5944882.00 21773229.00 L 5944882.00 23426771.00 L 6476378.00 23426771.00 L 6476378.00 21773229.00  z"/>
<path id="N" d="M 10528433.00 14472693.00 L 10518536.63 14496585.00 L 10176717.99 14496585.00 L 9615066.00 13934934.00 L 9600000.00 13928693.00 L 6655095.37 13928693.00 L 6645199.00 13904801.00 A 63921.13 63921.13 0 1 0 6645199.00 13995199.00 L 6655095.37 13971307.00 L 9591174.99 13971307.00 L 10152826.00 14532959.00 L 10167892.00 14539199.00 L 10518536.63 14539199.00 L 10528433.00 14563091.00 A 63921.13 63921.13 0 1 0 10528433.00 14472693.00  z"/>
<path id="N" d="M 8384141.76 15954120.00 L 10350001.00 15954121.00 L 10388270.00 15938269.00 L 10966838.03 15359700.00 L 11041242.27 15359700.00 L 11044020.00 15373665.00 A 240860.29 240860.29 0 0 0 11266535.00 15522344.00 L 12132677.00 15522344.00 A 240838.32 240838.32 0 1 0 12132677.00 15040648.00 L 11266535.00 15040648.00 A 240838.32 240838.32 0 0 0 11044020.00 15189327.00 L 11031661.35 15251460.00 L 10944421.00 15251459.00 L 10906151.29 15267312.71 L 10327583.03 15845880.00 L 8384141.76 15845880.00 L 8360480.00 15836079.00 A 63920.91 63920.91 0 0 0 8360480.00 15963921.00 L 8384141.76 15954120.00  z"/>
<path id="N" d="M 12105063.00 20552168.00 L 12079039.86 20562947.11 L 11959817.00 20443725.00 L 11946258.00 20438108.00 L 11788655.06 20438108.00 L 11777876.00 20412085.00 A 63921.13 63921.13 0 1 0 11777876.00 20502483.00 L 11788655.06 20476460.00 L 11938315.96 20476460.00 L 12051921.11 20590065.86 L 12041142.00 20616089.00 A 63920.91 63920.91 0 1 0 12105063.00 20552168.00  z"/>
<path id="N" d="M 6249999.87 17766208.00 m -63921.13 0 a 63921.13 63921.13 0 1 1 127842.26 0a 63921.13 63921.13 0 1 1 -127842.26 0"/>
<path id="N" d="M 7349999.87 18235606.00 m -63921.13 0 a 63921.13 63921.13 0 1 1 127842.26 0a 63921.13 63921.13 0 1 1 -127842.26 0"/>
<path id="N" d="M 10749999.87 15950000.00 m -63921.13 0 a 63921.13 63921.13 0 1 1 127842.26 0a 63921.13 63921.13 0 1 1 -127842.26 0"/>
<path id="N" d="M 7599999.87 17678740.00 m -63921.13 0 a 63921.13 63921.13 0 1 1 127842.26 0a 63921.13 63921.13 0 1 1 -127842.26 0"/>
<path id="N" d="M 10897099.87 15061597.00 m -63921.13 0 a 63921.13 63921.13 0 1 1 127842.26 0a 63921.13 63921.13 0 1 1 -127842.26 0"/>
<path id="N" d="M 10363921.00 13050000.00 L 10354120.00 13026338.24 L 10354120.00 12814627.99 L 12622210.00 10546538.00 L 12638061.00 10508269.00 L 12638061.00 10362125.00 L 13188977.00 10362125.00 A 200706.53 200706.53 0 0 0 13188977.00 9960711.00 L 12598425.00 9960711.00 A 200706.53 200706.53 0 0 0 12521618.00 10346847.00 L 12529821.00 10348478.69 L 12529821.00 10485851.99 L 10261731.00 12753941.00 L 10245880.00 12792212.41 L 10245880.00 13026338.24 L 10236079.00 13050000.00 A 63920.91 63920.91 0 1 0 10363921.00 13050000.00  z"/>
<path id="N" d="M 15537401.00 17519686.00 L 13962599.00 17519686.00 L 13962599.00 17695229.00 L 13825361.00 17695229.00 L 13315066.00 17184934.00 L 13300000.00 17178693.00 L 10259646.00 17178692.00 L 10244580.00 17184932.00 L 9973892.36 17455620.52 L 9950000.00 17445724.00 A 63920.91 63920.91 0 1 0 10013921.00 17509645.00 L 10004024.48 17485752.64 L 10268471.98 17221306.00 L 13291175.00 17221307.00 L 13801470.00 17731602.00 L 13816536.00 17737843.00 L 13962599.00 17737843.00 L 13962599.00 17913386.00 L 15537401.00 17913386.00 L 15537401.00 17519686.00  z"/>
<path id="N" d="M 6199897.87 17250075.00 m -63921.13 0 a 63921.13 63921.13 0 1 1 127842.26 0a 63921.13 63921.13 0 1 1 -127842.26 0"/>
<path id="N" d="M 6949999.87 17300000.00 m -63921.13 0 a 63921.13 63921.13 0 1 1 127842.26 0a 63921.13 63921.13 0 1 1 -127842.26 0"/>
<path id="N" d="M 7099999.87 12750000.00 m -63921.13 0 a 63921.13 63921.13 0 1 1 127842.26 0a 63921.13 63921.13 0 1 1 -127842.26 0"/>
<path id="N" d="M 12599999.87 16500000.00 m -63921.13 0 a 63921.13 63921.13 0 1 1 127842.26 0a 63921.13 63921.13 0 1 1 -127842.26 0"/>
<path id="N" d="M 10549999.87 15400000.00 m -63921.13 0 a 63921.13 63921.13 0 1 1 127842.26 0a 63921.13 63921.13 0 1 1 -127842.26 0"/>
<path id="N" d="M 6699999.87 17900000.00 m -63921.13 0 a 63921.13 63921.13 0 1 1 127842.26 0a 63921.13 63921.13 0 1 1 -127842.26 0"/>
<path id="N" d="M 6899999.87 19250000.00 m -63921.13 0 a 63921.13 63921.13 0 1 1 127842.26 0a 63921.13 63921.13 0 1 1 -127842.26 0"/>
<path id="N" d="M 4349999.87 20177166.00 m -63921.13 0 a 63921.13 63921.13 0 1 1 127842.26 0a 63921.13 63921.13 0 1 1 -127842.26 0"/>
<path id="N" d="M 8963921.00 13050000.00 L 8954120.00 13026338.24 L 8954121.00 10950000.00 L 8938269.00 10911731.00 L 7269127.63 9242589.63 L 7272044.00 9238225.00 A 200704.69 200704.69 0 0 0 7086615.00 8960711.00 L 6496063.00 8960711.00 A 200706.53 200706.53 0 0 0 6496063.00 9362125.00 L 7086615.00 9362125.00 L 7163422.00 9346847.00 L 7197523.20 9324061.20 L 8845880.00 10972418.00 L 8845880.00 13026338.24 L 8836079.00 13050000.00 A 63920.91 63920.91 0 1 0 8963921.00 13050000.00  z"/>
<path id="N" d="M 6055980.00 16948468.00 L 6063548.19 16910419.00 L 6703826.00 16910420.00 L 6742095.00 16894568.00 L 6934218.00 16702445.00 L 6950069.00 16664173.59 L 6950069.00 16505884.92 L 7113072.97 16342880.11 L 7136735.00 16333079.00 A 63921.13 63921.13 0 0 0 7046337.00 16242681.00 L 7036535.89 16266343.03 L 6857680.00 16445198.00 L 6841829.00 16483469.41 L 6841829.00 16641758.00 L 6681408.00 16802179.00 L 6063548.19 16802179.00 L 6055980.00 16764130.00 A 240860.29 240860.29 0 0 0 5833465.00 16615451.00 L 4967323.00 16615451.00 A 240838.32 240838.32 0 0 0 4967323.00 17097147.00 L 5833465.00 17097147.00 A 240860.29 240860.29 0 0 0 6055980.00 16948468.00  z"/>
<path id="N" d="M 6681889.87 19250000.00 m -63921.13 0 a 63921.13 63921.13 0 1 1 127842.26 0a 63921.13 63921.13 0 1 1 -127842.26 0"/>
<path id="N" d="M 4499999.87 19400000.00 m -63921.13 0 a 63921.13 63921.13 0 1 1 127842.26 0a 63921.13 63921.13 0 1 1 -127842.26 0"/>
<path id="N" d="M 10231207.00 13928431.00 L 10241007.47 13904770.52 L 12594339.00 11551439.00 L 12610190.00 11513167.59 L 12610190.00 11362125.00 L 13188977.00 11362125.00 A 200706.53 200706.53 0 0 0 13188977.00 10960711.00 L 12598425.00 10960711.00 A 200706.53 200706.53 0 0 0 12456504.00 11303339.00 L 12501950.00 11333705.20 L 12501950.00 11490752.99 L 10164469.48 13828232.53 L 10140809.00 13838033.00 A 63921.13 63921.13 0 0 0 10231207.00 13928431.00  z"/>
<path id="N" d="M 13188977.00 7960711.00 L 12947821.00 7960711.00 L 12947821.00 7362125.00 L 13188977.00 7362125.00 A 200706.53 200706.53 0 0 0 13374406.00 7238225.00 L 13378918.57 7215539.00 L 13611810.00 7215540.00 L 13650079.00 7199688.00 L 14071536.89 6778229.15 L 14095199.00 6768428.00 A 63921.13 63921.13 0 0 0 14004801.00 6678030.00 L 13994999.85 6701692.11 L 13589392.04 7107299.00 L 13378918.96 7107299.00 L 13374406.00 7084611.00 A 200709.51 200709.51 0 0 0 13188977.00 6960711.00 L 12598425.00 6960711.00 A 200706.53 200706.53 0 1 0 12598425.00 7362125.00 L 12839581.00 7362125.00 L 12839581.00 7960711.00 L 12598425.00 7960711.00 A 200706.53 200706.53 0 1 0 12598425.00 8362125.00 L 13188977.00 8362125.00 A 200709.51 200709.51 0 0 0 13188977.00 7960711.00  z"/>
<path id="N" d="M 12132677.00 16615451.00 L 11266535.00 16615451.00 A 240838.32 240838.32 0 0 0 11266535.00 17097147.00 L 12132677.00 17097147.00 A 240860.29 240860.29 0 0 0 12132677.00 16615451.00  z"/>
<path id="N" d="M 6686893.87 16550000.00 m -63921.13 0 a 63921.13 63921.13 0 1 1 127842.26 0a 63921.13 63921.13 0 1 1 -127842.26 0"/>
<path id="N" d="M 5549999.87 8800000.00 m -63921.13 0 a 63921.13 63921.13 0 1 1 127842.26 0a 63921.13 63921.13 0 1 1 -127842.26 0"/>
<path id="N" d="M 4449999.87 7800000.00 m -63921.13 0 a 63921.13 63921.13 0 1 1 127842.26 0a 63921.13 63921.13 0 1 1 -127842.26 0"/>
<path id="N" d="M 12649999.87 17378740.00 m -63921.13 0 a 63921.13 63921.13 0 1 1 127842.26 0a 63921.13 63921.13 0 1 1 -127842.26 0"/>
<path id="N" d="M 4526770.87 16200000.00 m -63921.13 0 a 63921.13 63921.13 0 1 1 127842.26 0a 63921.13 63921.13 0 1 1 -127842.26 0"/>
<path id="N" d="M 4499999.87 15619291.00 m -63921.13 0 a 63921.13 63921.13 0 1 1 127842.26 0a 63921.13 63921.13 0 1 1 -127842.26 0"/>
<path id="N" d="M 8371259.87 19800000.00 m -63921.13 0 a 63921.13 63921.13 0 1 1 127842.26 0a 63921.13 63921.13 0 1 1 -127842.26 0"/>
<path id="N" d="M 7849999.87 21300000.00 m -63921.13 0 a 63921.13 63921.13 0 1 1 127842.26 0a 63921.13 63921.13 0 1 1 -127842.26 0"/>
<path id="N" d="M 7349999.87 20900000.00 m -63921.13 0 a 63921.13 63921.13 0 1 1 127842.26 0a 63921.13 63921.13 0 1 1 -127842.26 0"/>
<path id="N" d="M 8349999.87 20200000.00 m -63921.13 0 a 63921.13 63921.13 0 1 1 127842.26 0a 63921.13 63921.13 0 1 1 -127842.26 0"/>
<path id="N" d="M 5099999.87 12200000.00 m -63921.13 0 a 63921.13 63921.13 0 1 1 127842.26 0a 63921.13 63921.13 0 1 1 -127842.26 0"/>
<path id="N" d="M 5499999.87 11250000.00 m -63921.13 0 a 63921.13 63921.13 0 1 1 127842.26 0a 63921.13 63921.13 0 1 1 -127842.26 0"/>
<path id="N" d="M 13049999.87 17378740.00 m -63921.13 0 a 63921.13 63921.13 0 1 1 127842.26 0a 63921.13 63921.13 0 1 1 -127842.26 0"/>
<path id="N" d="M 7349999.87 19800000.00 m -63921.13 0 a 63921.13 63921.13 0 1 1 127842.26 0a 63921.13 63921.13 0 1 1 -127842.26 0"/>
<path id="N" d="M 6049999.87 18850000.00 m -63921.13 0 a 63921.13 63921.13 0 1 1 127842.26 0a 63921.13 63921.13 0 1 1 -127842.26 0"/>
<path id="N" d="M 7649999.87 18950000.00 m -63921.13 0 a 63921.13 63921.13 0 1 1 127842.26 0a 63921.13 63921.13 0 1 1 -127842.26 0"/>
<path id="N" d="M 15537401.00 18307087.00 L 13962599.00 18307087.00 L 13962599.00 18700787.00 L 15537401.00 18700787.00 L 15537401.00 18307087.00  z"/>
<path id="N" d="M 12132677.00 18190254.00 L 11266535.00 18190254.00 A 240838.32 240838.32 0 0 0 11266535.00 18671950.00 L 12132677.00 18671950.00 A 240860.29 240860.29 0 1 0 12132677.00 18190254.00  z"/>
<path id="N" d="M 12132677.00 15828050.00 L 11266535.00 15828050.00 A 240838.32 240838.32 0 0 0 11266535.00 16309746.00 L 12132677.00 16309746.00 A 240860.29 240860.29 0 1 0 12132677.00 15828050.00  z"/>
<path id="N" d="M 5833465.00 18977656.00 L 4967323.00 18977656.00 A 240838.32 240838.32 0 1 0 4967323.00 19459352.00 L 5833465.00 19459352.00 A 240860.29 240860.29 0 1 0 5833465.00 18977656.00  z"/>
<path id="N" d="M 12132677.00 17402853.00 L 11266535.00 17402853.00 A 240838.32 240838.32 0 0 0 11266535.00 17884549.00 L 12132677.00 17884549.00 A 240860.29 240860.29 0 0 0 12132677.00 17402853.00  z"/>
<path id="N" d="M 13188977.00 5960711.00 L 12598425.00 5960711.00 A 200706.53 200706.53 0 1 0 12598425.00 6362125.00 L 13188977.00 6362125.00 A 200709.51 200709.51 0 0 0 13188977.00 5960711.00  z"/>
<path id="N" d="M 7086615.00 7960711.00 L 6496063.00 7960711.00 A 200706.53 200706.53 0 0 0 6496063.00 8362125.00 L 7086615.00 8362125.00 A 200709.51 200709.51 0 1 0 7086615.00 7960711.00  z"/>
<path id="N" d="M 7086615.00 9960711.00 L 6496063.00 9960711.00 A 200706.53 200706.53 0 0 0 6496063.00 10362125.00 L 7086615.00 10362125.00 A 200709.51 200709.51 0 1 0 7086615.00 9960711.00  z"/>
<path id="N" d="M 7086615.00 5960711.00 L 6496063.00 5960711.00 A 200706.53 200706.53 0 0 0 6496063.00 6362125.00 L 7086615.00 6362125.00 A 200709.51 200709.51 0 1 0 7086615.00 5960711.00  z"/>
<path id="N" d="M 7086615.00 6960711.00 L 6496063.00 6960711.00 A 200706.53 200706.53 0 0 0 6496063.00 7362125.00 L 7086615.00 7362125.00 A 200709.51 200709.51 0 1 0 7086615.00 6960711.00  z"/>
<path id="N" d="M 15537401.00 16732284.00 L 13962599.00 16732284.00 L 13962599.00 17125984.00 L 15537401.00 17125984.00 L 15537401.00 16732284.00  z"/>
<path id="N" d="M 15537401.00 15944882.00 L 13962599.00 15944882.00 L 13962599.00 16338582.00 L 15537401.00 16338582.00 L 15537401.00 15944882.00  z"/>
<path id="N" d="M 14549999.87 9250000.00 m -63921.13 0 a 63921.13 63921.13 0 1 1 127842.26 0a 63921.13 63921.13 0 1 1 -127842.26 0"/>
<path id="N" d="M 14749999.87 19600000.00 m -63921.13 0 a 63921.13 63921.13 0 1 1 127842.26 0a 63921.13 63921.13 0 1 1 -127842.26 0"/>
<path id="N" d="M 10499999.87 5700000.00 m -63921.13 0 a 63921.13 63921.13 0 1 1 127842.26 0a 63921.13 63921.13 0 1 1 -127842.26 0"/>
<path id="N" d="M 10299999.87 5500000.00 m -63921.13 0 a 63921.13 63921.13 0 1 1 127842.26 0a 63921.13 63921.13 0 1 1 -127842.26 0"/>
<path id="N" d="M 14299999.87 9250000.00 m -63921.13 0 a 63921.13 63921.13 0 1 1 127842.26 0a 63921.13 63921.13 0 1 1 -127842.26 0"/>
<path id="N" d="M 8384141.76 15651208.00 L 10002912.00 15651209.00 L 10041181.00 15635357.00 L 10771721.00 14904817.00 L 10787572.00 14866545.59 L 10787572.00 14738967.00 L 10933365.00 14593174.00 L 11048637.89 14593174.00 L 11096230.00 14664399.00 L 11174366.00 14716609.00 L 11266535.00 14734942.00 L 12132677.00 14734942.00 A 240838.32 240838.32 0 1 0 12132677.00 14253246.00 L 11266535.00 14253246.00 A 240838.32 240838.32 0 0 0 11044020.00 14401925.00 L 11027508.98 14484934.00 L 10910947.00 14484933.00 L 10872678.00 14500785.00 L 10695183.00 14678280.00 L 10679332.00 14716551.41 L 10679332.00 14844130.98 L 9980494.02 15542968.00 L 8384141.76 15542968.00 L 8360480.00 15533167.00 A 63920.91 63920.91 0 1 0 8360480.00 15661009.00 L 8384141.76 15651208.00  z"/>
<path id="N" d="M 12132677.00 19765058.00 L 11266535.00 19765058.00 A 240838.32 240838.32 0 0 0 11266535.00 20246754.00 L 12132677.00 20246754.00 A 240860.29 240860.29 0 1 0 12132677.00 19765058.00  z"/>
<path id="N" d="M 7572835.00 21970079.00 L 7072835.00 21970079.00 L 7072835.00 23387401.00 L 7572835.00 23387401.00 L 7572835.00 21970079.00  z"/>
<path id="N" d="M 6074313.00 17643701.00 L 6070300.22 17623526.78 L 6099882.59 17611273.00 L 7042847.00 17611274.00 L 7081116.00 17595422.00 L 7238269.00 17438269.00 L 7254120.00 17399997.59 L 7254120.00 17318984.00 L 7932278.53 16640825.47 L 7955939.00 16631025.00 A 63921.13 63921.13 0 1 0 7865541.00 16540627.00 L 7855740.53 16564287.47 L 7161731.00 17258297.00 L 7145880.00 17296568.41 L 7145880.00 17377582.00 L 7020429.00 17503033.00 L 6078265.00 17503033.00 L 6041362.49 17518318.00 L 6033786.61 17518318.00 L 6003770.00 17473396.00 L 5925634.00 17421186.00 L 5833465.00 17402853.00 L 4967323.00 17402853.00 A 240838.32 240838.32 0 0 0 4967323.00 17884549.00 L 5833465.00 17884549.00 A 240860.29 240860.29 0 0 0 6074313.00 17643701.00  z"/>
<path id="N" d="M 4749999.87 20750000.00 m -63921.13 0 a 63921.13 63921.13 0 1 1 127842.26 0a 63921.13 63921.13 0 1 1 -127842.26 0"/>
<path id="N" d="M 6565995.87 20429870.00 m -63921.13 0 a 63921.13 63921.13 0 1 1 127842.26 0a 63921.13 63921.13 0 1 1 -127842.26 0"/>
<path id="N" d="M 4675425.87 20272438.00 m -63921.13 0 a 63921.13 63921.13 0 1 1 127842.26 0a 63921.13 63921.13 0 1 1 -127842.26 0"/>
<path id="N" d="M 11349999.87 10200000.00 m -63921.13 0 a 63921.13 63921.13 0 1 1 127842.26 0a 63921.13 63921.13 0 1 1 -127842.26 0"/>
<path id="N" d="M 4688436.87 18938386.00 m -63921.13 0 a 63921.13 63921.13 0 1 1 127842.26 0a 63921.13 63921.13 0 1 1 -127842.26 0"/>
<path id="N" d="M 6601574.87 18750000.00 m -63921.13 0 a 63921.13 63921.13 0 1 1 127842.26 0a 63921.13 63921.13 0 1 1 -127842.26 0"/>
</g>
</svg>
