<svg width="29.99999842mm" height="49.99999906mm" viewBox="0 0 11811023 19685039"  version="1.1" xmlns="http://www.w3.org/2000/svg" xmlns:xlink="http://www.w3.org/1999/xlink">
<desc>
Origin 0 0 Bound 3937008 3937008 11811023 19685039
</desc>
<g fill-rule="evenodd" fill="rgb(255, 0, 255)" stroke="black" stroke-width="1" transform="translate(0, 19685039) scale(1, -1) translate(-3937008, -3937008)">
<path id="N" d="M 14589564.00 23622046.00 A 119403.94 119403.94 0 0 0 14667948.00 23432809.00 L 14614046.00 23374616.00 A 629926.01 629926.01 0 0 1 15558792.00 22541965.00 A 119406.16 119406.16 0 0 0 15748029.00 22463580.00 L 15748030.10 14685039.00 L 14549340.00 14685039.00 A 120429.94 120429.94 0 0 1 14549340.00 14448819.00 L 15748030.08 14448819.00 L 15748030.00 5095473.00 A 119403.94 119403.94 0 0 0 15558793.00 5017089.00 L 15500600.00 5070991.00 A 629926.01 629926.01 0 0 1 14667949.00 4126245.00 A 119406.16 119406.16 0 0 0 14589564.00 3937008.00 L 5095473.00 3937007.00 A 119403.94 119403.94 0 0 0 5017089.00 4126244.00 L 5070991.00 4184437.00 A 629926.01 629926.01 0 0 1 4126245.00 5017088.00 A 119406.16 119406.16 0 0 0 3937008.00 5095473.00 L 3937007.00 9643297.00 A 721075.40 721075.40 0 0 0 4041430.00 9964024.00 L 4074802.00 10009842.00 L 4106273.00 10056828.00 A 718876.83 718876.83 0 0 1 4212598.00 10433071.00 L 4212597.00 10826772.00 L 4210372.00 10883279.00 A 718868.63 718868.63 0 0 1 4074802.00 11249999.00 L 4041430.00 11295817.00 A 721094.89 721094.89 0 0 0 3937007.00 11616544.00 L 3937007.00 16237785.00 A 721075.40 721075.40 0 0 0 4041430.00 16558512.00 L 4074802.00 16604330.00 L 4106273.00 16651316.00 A 718876.83 718876.83 0 0 1 4212598.00 17027559.00 L 4212597.00 17421260.00 L 4210372.00 17477767.00 A 718868.63 718868.63 0 0 1 4074802.00 17844487.00 L 4041430.00 17890305.00 A 721116.06 721116.06 0 0 0 3937007.00 18211033.00 L 3937009.00 22463580.00 A 119400.25 119400.25 0 0 0 4126245.00 22541965.00 L 4184437.00 22488062.00 A 629926.01 629926.01 0 0 1 5017088.00 23432808.00 A 119406.16 119406.16 0 0 0 5095473.00 23622045.00 L 14589564.00 23622046.00  zM 7086616.00 6382197.00 L 6496064.00 6382197.00 A 220780.35 220780.35 0 0 1 6496064.00 5940643.00 L 7086616.00 5940643.00 A 220780.35 220780.35 0 0 1 7086616.00 6382197.00  zM 7086616.00 7382197.00 L 6496064.00 7382197.00 A 220780.35 220780.35 0 0 1 6496064.00 6940643.00 L 7086616.00 6940643.00 A 220780.35 220780.35 0 0 1 7086616.00 7382197.00  zM 7086616.00 8382197.00 L 6496064.00 8382197.00 A 220780.35 220780.35 0 0 1 6496064.00 7940643.00 L 7086616.00 7940643.00 A 220780.35 220780.35 0 0 1 7086616.00 8382197.00  zM 7086616.00 9382197.00 L 6496064.00 9382197.00 A 220780.35 220780.35 0 1 1 6496064.00 8940643.00 L 7086616.00 8940643.00 A 220780.35 220780.35 0 1 1 7086616.00 9382197.00  zM 7086616.00 10382197.00 L 6496064.00 10382197.00 A 220780.35 220780.35 0 0 1 6496064.00 9940643.00 L 7086616.00 9940643.00 A 220780.35 220780.35 0 0 1 7086616.00 10382197.00  zM 7086616.00 11382197.00 L 6496064.00 11382197.00 A 220780.35 220780.35 0 0 1 6496064.00 10940643.00 L 7086616.00 10940643.00 A 220780.35 220780.35 0 0 1 7086616.00 11382197.00  zM 5833471.00 14752213.00 L 4967329.00 14752213.00 A 258108.52 258108.52 0 0 1 4967329.00 14235987.00 L 5833471.00 14235987.00 A 258108.52 258108.52 0 0 1 5833471.00 14752213.00  zM 5833471.00 15539613.00 L 4967329.00 15539613.00 A 258108.52 258108.52 0 0 1 4967329.00 15023387.00 L 5833471.00 15023387.00 A 258108.52 258108.52 0 1 1 5833471.00 15539613.00  zM 12132671.00 15539613.00 L 11266529.00 15539613.00 A 258108.52 258108.52 0 0 1 11266529.00 15023387.00 L 12132671.00 15023387.00 A 258108.52 258108.52 0 0 1 12132671.00 15539613.00  zM 12132671.00 14752213.00 L 11266529.00 14752213.00 A 258108.52 258108.52 0 0 1 11266529.00 14235987.00 L 12132671.00 14235987.00 A 258108.52 258108.52 0 0 1 12132671.00 14752213.00  zM 13188976.00 6382197.00 L 12598424.00 6382197.00 A 220780.35 220780.35 0 1 1 12598424.00 5940643.00 L 13188976.00 5940643.00 A 220780.35 220780.35 0 0 1 13188976.00 6382197.00  zM 13188976.00 7382197.00 L 12598424.00 7382197.00 A 220780.35 220780.35 0 1 1 12598424.00 6940643.00 L 13188976.00 6940643.00 A 220780.35 220780.35 0 0 1 13188976.00 7382197.00  zM 13188976.00 8382197.00 L 12598424.00 8382197.00 A 220780.35 220780.35 0 0 1 12598424.00 7940643.00 L 13188976.00 7940643.00 A 220780.35 220780.35 0 0 1 13188976.00 8382197.00  zM 13188976.00 9382197.00 L 12598424.00 9382197.00 A 220780.35 220780.35 0 1 1 12598424.00 8940643.00 L 13188976.00 8940643.00 A 220780.35 220780.35 0 0 1 13188976.00 9382197.00  zM 13188976.00 10382197.00 L 12598424.00 10382197.00 A 220780.35 220780.35 0 1 1 12598424.00 9940643.00 L 13188976.00 9940643.00 A 220780.35 220780.35 0 0 1 13188976.00 10382197.00  zM 13188976.00 11382197.00 L 12598424.00 11382197.00 A 220780.35 220780.35 0 1 1 12598424.00 10940643.00 L 13188976.00 10940643.00 A 220780.35 220780.35 0 0 1 13188976.00 11382197.00  zM 15557086.00 13602355.00 L 13942914.00 13602355.00 L 13942914.00 13169285.00 L 15557086.00 13169285.00 L 15557086.00 13602355.00  zM 15557086.00 14389755.00 L 13942914.00 14389755.00 L 13942914.00 13956685.00 L 15557086.00 13956685.00 L 15557086.00 14389755.00  zM 15557086.00 15177175.00 L 13942914.00 15177175.00 L 13942914.00 14744105.00 L 15557086.00 14744105.00 L 15557086.00 15177175.00  zM 15557086.00 15964575.00 L 13942914.00 15964575.00 L 13942914.00 15531505.00 L 15557086.00 15531505.00 L 15557086.00 15964575.00  zM 5833471.00 16327013.00 L 4967329.00 16327013.00 A 258108.52 258108.52 0 1 1 4967329.00 15810787.00 L 5833471.00 15810787.00 A 258108.52 258108.52 0 1 1 5833471.00 16327013.00  zM 5833471.00 17114413.00 L 4967329.00 17114413.00 A 258108.52 258108.52 0 0 1 4967329.00 16598187.00 L 5833471.00 16598187.00 A 258108.52 258108.52 0 1 1 5833471.00 17114413.00  zM 5833471.00 17901813.00 L 4967329.00 17901813.00 A 258108.52 258108.52 0 0 1 4967329.00 17385587.00 L 5833471.00 17385587.00 A 258108.52 258108.52 0 0 1 5833471.00 17901813.00  zM 5833471.00 18689213.00 L 4967329.00 18689213.00 A 258108.52 258108.52 0 1 1 4967329.00 18172987.00 L 5833471.00 18172987.00 A 258108.52 258108.52 0 1 1 5833471.00 18689213.00  zM 5833471.00 19476613.00 L 4967329.00 19476613.00 A 258108.52 258108.52 0 0 1 4967329.00 18960387.00 L 5833471.00 18960387.00 A 258108.52 258108.52 0 1 1 5833471.00 19476613.00  zM 5833471.00 20264013.00 L 4967329.00 20264013.00 A 258108.52 258108.52 0 0 1 4967329.00 19747787.00 L 5833471.00 19747787.00 A 258108.52 258108.52 0 0 1 5833471.00 20264013.00  zM 5946363.00 21442980.00 L 5946363.00 21128020.00 A 220780.35 220780.35 0 0 1 6387917.00 21128020.00 L 6387917.00 21442980.00 A 220780.35 220780.35 0 0 1 5946363.00 21442980.00  zM 5943003.00 23214181.00 L 5943003.00 22741739.00 A 220780.35 220780.35 0 1 1 6384557.00 22741739.00 L 6384557.00 23214181.00 A 220780.35 220780.35 0 0 1 5943003.00 23214181.00  zM 9343003.00 21489760.00 L 9343003.00 21174800.00 A 220780.35 220780.35 0 0 1 9784557.00 21174800.00 L 9784557.00 21489760.00 A 220780.35 220780.35 0 1 1 9343003.00 21489760.00  zM 9343003.00 23214181.00 L 9343003.00 22741739.00 A 220780.35 220780.35 0 1 1 9784557.00 22741739.00 L 9784557.00 23214181.00 A 220780.35 220780.35 0 1 1 9343003.00 23214181.00  zM 12132671.00 16327013.00 L 11266529.00 16327013.00 A 258108.52 258108.52 0 1 1 11266529.00 15810787.00 L 12132671.00 15810787.00 A 258108.52 258108.52 0 1 1 12132671.00 16327013.00  zM 12132671.00 17114413.00 L 11266529.00 17114413.00 A 258108.52 258108.52 0 1 1 11266529.00 16598187.00 L 12132671.00 16598187.00 A 258108.52 258108.52 0 0 1 12132671.00 17114413.00  zM 12132671.00 17901813.00 L 11266529.00 17901813.00 A 258108.52 258108.52 0 0 1 11266529.00 17385587.00 L 12132671.00 17385587.00 A 258108.52 258108.52 0 0 1 12132671.00 17901813.00  zM 12132671.00 18689213.00 L 11266529.00 18689213.00 A 258108.52 258108.52 0 1 1 11266529.00 18172987.00 L 12132671.00 18172987.00 A 258108.52 258108.52 0 1 1 12132671.00 18689213.00  zM 15557086.00 16751975.00 L 13942914.00 16751975.00 L 13942914.00 16318905.00 L 15557086.00 16318905.00 L 15557086.00 16751975.00  zM 12132671.00 19476613.00 L 11266529.00 19476613.00 A 258108.52 258108.52 0 1 1 11266529.00 18960387.00 L 12132671.00 18960387.00 A 258108.52 258108.52 0 0 1 12132671.00 19476613.00  zM 12132671.00 20264013.00 L 11266529.00 20264013.00 A 258108.52 258108.52 0 0 1 11266529.00 19747787.00 L 12132671.00 19747787.00 A 258108.52 258108.52 0 0 1 12132671.00 20264013.00  zM 11553548.00 23448031.00 L 11022052.00 23448031.00 L 11022052.00 21794489.00 L 11553548.00 21794489.00 L 11553548.00 23448031.00  zM 13777948.00 23448031.00 L 13246452.00 23448031.00 L 13246452.00 21794489.00 L 13777948.00 21794489.00 L 13777948.00 23448031.00  zM 12650000.00 23408661.00 L 12150000.00 23408661.00 L 12150000.00 21991339.00 L 12650000.00 21991339.00 L 12650000.00 23408661.00  z"/>
</g>
</svg>
