<svg width="52.00000014mm" height="115.00000114mm" viewBox="0 0 20472441 45275591"  version="1.1" xmlns="http://www.w3.org/2000/svg" xmlns:xlink="http://www.w3.org/1999/xlink">
<desc>
Origin 0 0 Bound 3937008 3937008 20472441 45275591
</desc>
<g fill-rule="evenodd" fill="rgb(128, 128, 0)" stroke="black" stroke-width="1" transform="translate(0, 45275591) scale(1, -1) translate(-3937008, -3937008)">
<path id="N" d="M 24133858.00 15616929.00 L 22165354.00 15616929.00 L 22165354.00 23775590.00 L 24133858.00 23775590.00 L 24133858.00 15616929.00  zM 22930387.00 16429975.00 L 22677589.00 16429975.00 L 22677589.00 16381927.00 L 22629541.00 16381927.00 L 22629541.00 16333333.00 L 22581493.00 16333333.00 L 22581493.00 16081081.00 L 22629541.00 16081081.00 L 22629541.00 16033033.00 L 22677589.00 16033033.00 L 22677589.00 15984985.00 L 22930387.00 15984985.00 L 22930387.00 16044499.00 L 22882339.00 16044499.00 L 22882339.00 16370461.00 L 22930387.00 16370461.00 L 22930387.00 16429975.00  zM 23324053.00 16429975.00 L 23215945.00 16429975.00 L 23215945.00 16381927.00 L 23167897.00 16381927.00 L 23167897.00 16333333.00 L 23119303.00 16333333.00 L 23119303.00 16285285.00 L 23083267.00 16285285.00 L 23083267.00 16429975.00 L 22975159.00 16429975.00 L 22975159.00 15984985.00 L 23083267.00 15984985.00 L 23083267.00 16129129.00 L 23131315.00 16129129.00 L 23131315.00 16177723.00 L 23179909.00 16177723.00 L 23179909.00 16225771.00 L 23215945.00 16225771.00 L 23215945.00 15984985.00 L 23324053.00 15984985.00 L 23324053.00 16429975.00  zM 23621623.00 16429975.00 L 23416873.00 16429975.00 L 23416873.00 16381927.00 L 23368825.00 16381927.00 L 23368825.00 16273819.00 L 23428885.00 16273819.00 L 23428885.00 16321867.00 L 23476933.00 16321867.00 L 23476933.00 16370461.00 L 23561563.00 16370461.00 L 23561563.00 16321867.00 L 23609611.00 16321867.00 L 23609611.00 16092547.00 L 23561563.00 16092547.00 L 23561563.00 16044499.00 L 23476933.00 16044499.00 L 23476933.00 16129129.00 L 23573575.00 16129129.00 L 23573575.00 16189189.00 L 23368825.00 16189189.00 L 23368825.00 15984985.00 L 23428885.00 15984985.00 L 23428885.00 16033033.00 L 23464921.00 16033033.00 L 23464921.00 15984985.00 L 23621623.00 15984985.00 L 23621623.00 16033033.00 L 23669671.00 16033033.00 L 23669671.00 16081081.00 L 23717719.00 16081081.00 L 23717719.00 16333333.00 L 23669671.00 16333333.00 L 23669671.00 16381927.00 L 23621623.00 16381927.00 L 23621623.00 16429975.00  zM 23227957.00 17429975.00 L 23023207.00 17429975.00 L 23023207.00 17381927.00 L 22975159.00 17381927.00 L 22975159.00 17273819.00 L 23035219.00 17273819.00 L 23035219.00 17321867.00 L 23083267.00 17321867.00 L 23083267.00 17370461.00 L 23167897.00 17370461.00 L 23167897.00 17321867.00 L 23215945.00 17321867.00 L 23215945.00 17092547.00 L 23167897.00 17092547.00 L 23167897.00 17044499.00 L 23083267.00 17044499.00 L 23083267.00 17092547.00 L 23035219.00 17092547.00 L 23035219.00 17140595.00 L 22975159.00 17140595.00 L 22975159.00 17033033.00 L 23023207.00 17033033.00 L 23023207.00 16984985.00 L 23227957.00 16984985.00 L 23227957.00 17033033.00 L 23276005.00 17033033.00 L 23276005.00 17081081.00 L 23324053.00 17081081.00 L 23324053.00 17333333.00 L 23276005.00 17333333.00 L 23276005.00 17381927.00 L 23227957.00 17381927.00 L 23227957.00 17429975.00  zM 22930387.00 17429975.00 L 22774231.00 17429975.00 L 22774231.00 17237237.00 L 22737649.00 17237237.00 L 22737649.00 17333333.00 L 22689601.00 17333333.00 L 22689601.00 17429975.00 L 22581493.00 17429975.00 L 22581493.00 17321867.00 L 22629541.00 17321867.00 L 22629541.00 17225771.00 L 22677589.00 17225771.00 L 22677589.00 17189189.00 L 22629541.00 17189189.00 L 22629541.00 17092547.00 L 22581493.00 17092547.00 L 22581493.00 16984985.00 L 22689601.00 16984985.00 L 22689601.00 17081081.00 L 22737649.00 17081081.00 L 22737649.00 17177723.00 L 22774231.00 17177723.00 L 22774231.00 16984985.00 L 22930387.00 16984985.00 L 22930387.00 17044499.00 L 22882339.00 17044499.00 L 22882339.00 17370461.00 L 22930387.00 17370461.00 L 22930387.00 17429975.00  zM 23669671.00 17429975.00 L 23416873.00 17429975.00 L 23416873.00 17381927.00 L 23368825.00 17381927.00 L 23368825.00 17273819.00 L 23476933.00 17273819.00 L 23476933.00 17370461.00 L 23609611.00 17370461.00 L 23609611.00 17285285.00 L 23561563.00 17285285.00 L 23561563.00 17237237.00 L 23464921.00 17237237.00 L 23464921.00 17189189.00 L 23416873.00 17189189.00 L 23416873.00 17140595.00 L 23368825.00 17140595.00 L 23368825.00 17033033.00 L 23416873.00 17033033.00 L 23416873.00 16984985.00 L 23669671.00 16984985.00 L 23669671.00 17033033.00 L 23717719.00 17033033.00 L 23717719.00 17140595.00 L 23609611.00 17140595.00 L 23609611.00 17044499.00 L 23476933.00 17044499.00 L 23476933.00 17129129.00 L 23524981.00 17129129.00 L 23524981.00 17177723.00 L 23621623.00 17177723.00 L 23621623.00 17225771.00 L 23669671.00 17225771.00 L 23669671.00 17273819.00 L 23717719.00 17273819.00 L 23717719.00 17381927.00 L 23669671.00 17381927.00 L 23669671.00 17429975.00  zM 22613434.00 18429975.00 L 22408684.00 18429975.00 L 22408684.00 18370461.00 L 22456732.00 18370461.00 L 22456732.00 18044499.00 L 22408684.00 18044499.00 L 22408684.00 17984985.00 L 22613434.00 17984985.00 L 22613434.00 18044499.00 L 22565386.00 18044499.00 L 22565386.00 18370461.00 L 22613434.00 18370461.00 L 22613434.00 18429975.00  zM 23055148.00 18429975.00 L 22802350.00 18429975.00 L 22802350.00 18381927.00 L 22754302.00 18381927.00 L 22754302.00 18273819.00 L 22862410.00 18273819.00 L 22862410.00 18370461.00 L 22995088.00 18370461.00 L 22995088.00 18285285.00 L 22947040.00 18285285.00 L 22947040.00 18237237.00 L 22850398.00 18237237.00 L 22850398.00 18189189.00 L 22802350.00 18189189.00 L 22802350.00 18140595.00 L 22754302.00 18140595.00 L 22754302.00 18033033.00 L 22802350.00 18033033.00 L 22802350.00 17984985.00 L 23055148.00 17984985.00 L 23055148.00 18033033.00 L 23103196.00 18033033.00 L 23103196.00 18140595.00 L 22995088.00 18140595.00 L 22995088.00 18044499.00 L 22862410.00 18044499.00 L 22862410.00 18129129.00 L 22910458.00 18129129.00 L 22910458.00 18177723.00 L 23007100.00 18177723.00 L 23007100.00 18225771.00 L 23055148.00 18225771.00 L 23055148.00 18273819.00 L 23103196.00 18273819.00 L 23103196.00 18381927.00 L 23055148.00 18381927.00 L 23055148.00 18429975.00  zM 23400766.00 18429975.00 L 23244064.00 18429975.00 L 23244064.00 18381927.00 L 23196016.00 18381927.00 L 23196016.00 18333333.00 L 23147968.00 18333333.00 L 23147968.00 18081081.00 L 23196016.00 18081081.00 L 23196016.00 18033033.00 L 23244064.00 18033033.00 L 23244064.00 17984985.00 L 23400766.00 17984985.00 L 23400766.00 18033033.00 L 23448814.00 18033033.00 L 23448814.00 18081081.00 L 23496862.00 18081081.00 L 23496862.00 18333333.00 L 23448814.00 18333333.00 L 23448814.00 18381927.00 L 23400766.00 18381927.00 L 23400766.00 18429975.00  zM 22637458.00 19429975.00 L 22480756.00 19429975.00 L 22480756.00 19381927.00 L 22432708.00 19381927.00 L 22432708.00 19333333.00 L 22384660.00 19333333.00 L 22384660.00 19081081.00 L 22432708.00 19081081.00 L 22432708.00 19033033.00 L 22480756.00 19033033.00 L 22480756.00 18984985.00 L 22637458.00 18984985.00 L 22637458.00 19033033.00 L 22685506.00 19033033.00 L 22685506.00 19081081.00 L 22733554.00 19081081.00 L 22733554.00 19333333.00 L 22685506.00 19333333.00 L 22685506.00 19381927.00 L 22637458.00 19381927.00 L 22637458.00 19429975.00  zM 23890528.00 18429975.00 L 23782420.00 18429975.00 L 23782420.00 18381927.00 L 23734372.00 18381927.00 L 23734372.00 18333333.00 L 23697790.00 18333333.00 L 23697790.00 18381927.00 L 23649742.00 18381927.00 L 23649742.00 18429975.00 L 23541634.00 18429975.00 L 23541634.00 17984985.00 L 23649742.00 17984985.00 L 23649742.00 18225771.00 L 23685778.00 18225771.00 L 23685778.00 18177723.00 L 23746384.00 18177723.00 L 23746384.00 18225771.00 L 23782420.00 18225771.00 L 23782420.00 17984985.00 L 23890528.00 17984985.00 L 23890528.00 18429975.00  zM 23424790.00 19429975.00 L 23220040.00 19429975.00 L 23220040.00 19370461.00 L 23268088.00 19370461.00 L 23268088.00 19044499.00 L 23220040.00 19044499.00 L 23220040.00 18984985.00 L 23424790.00 18984985.00 L 23424790.00 19044499.00 L 23376742.00 19044499.00 L 23376742.00 19370461.00 L 23424790.00 19370461.00 L 23424790.00 19429975.00  zM 23914552.00 19429975.00 L 23806444.00 19429975.00 L 23806444.00 19381927.00 L 23758396.00 19381927.00 L 23758396.00 19333333.00 L 23721814.00 19333333.00 L 23721814.00 19381927.00 L 23673766.00 19381927.00 L 23673766.00 19429975.00 L 23565658.00 19429975.00 L 23565658.00 18984985.00 L 23673766.00 18984985.00 L 23673766.00 19225771.00 L 23709802.00 19225771.00 L 23709802.00 19177723.00 L 23770408.00 19177723.00 L 23770408.00 19225771.00 L 23806444.00 19225771.00 L 23806444.00 18984985.00 L 23914552.00 18984985.00 L 23914552.00 19429975.00  zM 23079172.00 19429975.00 L 22826374.00 19429975.00 L 22826374.00 19381927.00 L 22778326.00 19381927.00 L 22778326.00 19273819.00 L 22886434.00 19273819.00 L 22886434.00 19370461.00 L 23019112.00 19370461.00 L 23019112.00 19285285.00 L 22971064.00 19285285.00 L 22971064.00 19237237.00 L 22874422.00 19237237.00 L 22874422.00 19189189.00 L 22826374.00 19189189.00 L 22826374.00 19140595.00 L 22778326.00 19140595.00 L 22778326.00 19033033.00 L 22826374.00 19033033.00 L 22826374.00 18984985.00 L 23079172.00 18984985.00 L 23079172.00 19033033.00 L 23127220.00 19033033.00 L 23127220.00 19140595.00 L 23019112.00 19140595.00 L 23019112.00 19044499.00 L 22886434.00 19044499.00 L 22886434.00 19129129.00 L 22934482.00 19129129.00 L 22934482.00 19177723.00 L 23031124.00 19177723.00 L 23031124.00 19225771.00 L 23079172.00 19225771.00 L 23079172.00 19273819.00 L 23127220.00 19273819.00 L 23127220.00 19381927.00 L 23079172.00 19381927.00 L 23079172.00 19429975.00  zM 23770408.00 20429975.00 L 23709802.00 20429975.00 L 23709802.00 20381927.00 L 23661754.00 20381927.00 L 23661754.00 20333333.00 L 23613706.00 20333333.00 L 23613706.00 20285285.00 L 23565658.00 20285285.00 L 23565658.00 19984985.00 L 23673766.00 19984985.00 L 23673766.00 20129129.00 L 23806444.00 20129129.00 L 23806444.00 19984985.00 L 23914552.00 19984985.00 L 23914552.00 20285285.00 L 23866504.00 20285285.00 L 23866504.00 20333333.00 L 23818456.00 20333333.00 L 23818456.00 20381927.00 L 23770408.00 20381927.00 L 23770408.00 20429975.00  zM 23031124.00 20429975.00 L 22826374.00 20429975.00 L 22826374.00 20381927.00 L 22778326.00 20381927.00 L 22778326.00 20273819.00 L 22838386.00 20273819.00 L 22838386.00 20321867.00 L 22886434.00 20321867.00 L 22886434.00 20370461.00 L 22971064.00 20370461.00 L 22971064.00 20321867.00 L 23019112.00 20321867.00 L 23019112.00 20092547.00 L 22971064.00 20092547.00 L 22971064.00 20044499.00 L 22886434.00 20044499.00 L 22886434.00 20092547.00 L 22838386.00 20092547.00 L 22838386.00 20140595.00 L 22778326.00 20140595.00 L 22778326.00 20033033.00 L 22826374.00 20033033.00 L 22826374.00 19984985.00 L 23031124.00 19984985.00 L 23031124.00 20033033.00 L 23079172.00 20033033.00 L 23079172.00 20081081.00 L 23127220.00 20081081.00 L 23127220.00 20333333.00 L 23079172.00 20333333.00 L 23079172.00 20381927.00 L 23031124.00 20381927.00 L 23031124.00 20429975.00  zM 23520886.00 20429975.00 L 23268088.00 20429975.00 L 23268088.00 20381927.00 L 23220040.00 20381927.00 L 23220040.00 20333333.00 L 23171992.00 20333333.00 L 23171992.00 20081081.00 L 23220040.00 20081081.00 L 23220040.00 20033033.00 L 23268088.00 20033033.00 L 23268088.00 19984985.00 L 23520886.00 19984985.00 L 23520886.00 20044499.00 L 23472838.00 20044499.00 L 23472838.00 20370461.00 L 23520886.00 20370461.00 L 23520886.00 20429975.00  zM 22589410.00 20429975.00 L 22480756.00 20429975.00 L 22480756.00 20044499.00 L 22384660.00 20044499.00 L 22384660.00 19984985.00 L 22685506.00 19984985.00 L 22685506.00 20044499.00 L 22589410.00 20044499.00 L 22589410.00 20273819.00 L 22685506.00 20273819.00 L 22685506.00 20333333.00 L 22637458.00 20333333.00 L 22637458.00 20381927.00 L 22589410.00 20381927.00 L 22589410.00 20429975.00  zM 23669671.00 21429975.00 L 23416873.00 21429975.00 L 23416873.00 21381927.00 L 23368825.00 21381927.00 L 23368825.00 21273819.00 L 23476933.00 21273819.00 L 23476933.00 21370461.00 L 23609611.00 21370461.00 L 23609611.00 21285285.00 L 23561563.00 21285285.00 L 23561563.00 21237237.00 L 23464921.00 21237237.00 L 23464921.00 21189189.00 L 23416873.00 21189189.00 L 23416873.00 21140595.00 L 23368825.00 21140595.00 L 23368825.00 21033033.00 L 23416873.00 21033033.00 L 23416873.00 20984985.00 L 23669671.00 20984985.00 L 23669671.00 21033033.00 L 23717719.00 21033033.00 L 23717719.00 21140595.00 L 23609611.00 21140595.00 L 23609611.00 21044499.00 L 23476933.00 21044499.00 L 23476933.00 21129129.00 L 23524981.00 21129129.00 L 23524981.00 21177723.00 L 23621623.00 21177723.00 L 23621623.00 21225771.00 L 23669671.00 21225771.00 L 23669671.00 21273819.00 L 23717719.00 21273819.00 L 23717719.00 21381927.00 L 23669671.00 21381927.00 L 23669671.00 21429975.00  zM 23227957.00 21429975.00 L 23023207.00 21429975.00 L 23023207.00 21381927.00 L 22975159.00 21381927.00 L 22975159.00 21273819.00 L 23035219.00 21273819.00 L 23035219.00 21321867.00 L 23083267.00 21321867.00 L 23083267.00 21370461.00 L 23167897.00 21370461.00 L 23167897.00 21321867.00 L 23215945.00 21321867.00 L 23215945.00 21092547.00 L 23167897.00 21092547.00 L 23167897.00 21044499.00 L 23083267.00 21044499.00 L 23083267.00 21092547.00 L 23035219.00 21092547.00 L 23035219.00 21140595.00 L 22975159.00 21140595.00 L 22975159.00 21033033.00 L 23023207.00 21033033.00 L 23023207.00 20984985.00 L 23227957.00 20984985.00 L 23227957.00 21033033.00 L 23276005.00 21033033.00 L 23276005.00 21081081.00 L 23324053.00 21081081.00 L 23324053.00 21333333.00 L 23276005.00 21333333.00 L 23276005.00 21381927.00 L 23227957.00 21381927.00 L 23227957.00 21429975.00  zM 22930387.00 21429975.00 L 22725637.00 21429975.00 L 22725637.00 21370461.00 L 22774231.00 21370461.00 L 22774231.00 21044499.00 L 22689601.00 21044499.00 L 22689601.00 21092547.00 L 22641553.00 21092547.00 L 22641553.00 21140595.00 L 22581493.00 21140595.00 L 22581493.00 20984985.00 L 22930387.00 20984985.00 L 22930387.00 21044499.00 L 22882339.00 21044499.00 L 22882339.00 21370461.00 L 22930387.00 21370461.00 L 22930387.00 21429975.00  zM 23324053.00 22429975.00 L 23071255.00 22429975.00 L 23071255.00 22381927.00 L 23023207.00 22381927.00 L 23023207.00 22333333.00 L 22975159.00 22333333.00 L 22975159.00 22081081.00 L 23023207.00 22081081.00 L 23023207.00 22033033.00 L 23071255.00 22033033.00 L 23071255.00 21984985.00 L 23324053.00 21984985.00 L 23324053.00 22044499.00 L 23276005.00 22044499.00 L 23276005.00 22370461.00 L 23324053.00 22370461.00 L 23324053.00 22429975.00  zM 22786243.00 22429975.00 L 22725637.00 22429975.00 L 22725637.00 22381927.00 L 22677589.00 22381927.00 L 22677589.00 22333333.00 L 22629541.00 22333333.00 L 22629541.00 22285285.00 L 22581493.00 22285285.00 L 22581493.00 21984985.00 L 22689601.00 21984985.00 L 22689601.00 22129129.00 L 22822279.00 22129129.00 L 22822279.00 21984985.00 L 22930387.00 21984985.00 L 22930387.00 22285285.00 L 22882339.00 22285285.00 L 22882339.00 22333333.00 L 22834291.00 22333333.00 L 22834291.00 22381927.00 L 22786243.00 22381927.00 L 22786243.00 22429975.00  zM 23669671.00 22429975.00 L 23416873.00 22429975.00 L 23416873.00 22381927.00 L 23368825.00 22381927.00 L 23368825.00 22273819.00 L 23476933.00 22273819.00 L 23476933.00 22370461.00 L 23609611.00 22370461.00 L 23609611.00 22285285.00 L 23561563.00 22285285.00 L 23561563.00 22237237.00 L 23464921.00 22237237.00 L 23464921.00 22189189.00 L 23416873.00 22189189.00 L 23416873.00 22140595.00 L 23368825.00 22140595.00 L 23368825.00 22033033.00 L 23416873.00 22033033.00 L 23416873.00 21984985.00 L 23669671.00 21984985.00 L 23669671.00 22033033.00 L 23717719.00 22033033.00 L 23717719.00 22140595.00 L 23609611.00 22140595.00 L 23609611.00 22044499.00 L 23476933.00 22044499.00 L 23476933.00 22129129.00 L 23524981.00 22129129.00 L 23524981.00 22177723.00 L 23621623.00 22177723.00 L 23621623.00 22225771.00 L 23669671.00 22225771.00 L 23669671.00 22273819.00 L 23717719.00 22273819.00 L 23717719.00 22381927.00 L 23669671.00 22381927.00 L 23669671.00 22429975.00  zM 22882339.00 23407534.00 L 22629541.00 23407534.00 L 22629541.00 23359486.00 L 22581493.00 23359486.00 L 22581493.00 23203330.00 L 22629541.00 23203330.00 L 22629541.00 23166748.00 L 22581493.00 23166748.00 L 22581493.00 23010592.00 L 22629541.00 23010592.00 L 22629541.00 22962544.00 L 22882339.00 22962544.00 L 22882339.00 23010592.00 L 22930387.00 23010592.00 L 22930387.00 23070106.00 L 22822279.00 23070106.00 L 22822279.00 23022058.00 L 22689601.00 23022058.00 L 22689601.00 23155282.00 L 22834291.00 23155282.00 L 22834291.00 23214796.00 L 22689601.00 23214796.00 L 22689601.00 23348020.00 L 22822279.00 23348020.00 L 22822279.00 23299426.00 L 22930387.00 23299426.00 L 22930387.00 23359486.00 L 22882339.00 23359486.00 L 22882339.00 23407534.00  zM 23324053.00 23407534.00 L 23215945.00 23407534.00 L 23215945.00 23118154.00 L 23167897.00 23118154.00 L 23167897.00 23070106.00 L 23131315.00 23070106.00 L 23131315.00 23118154.00 L 23083267.00 23118154.00 L 23083267.00 23407534.00 L 22975159.00 23407534.00 L 22975159.00 23106688.00 L 23023207.00 23106688.00 L 23023207.00 23058640.00 L 23071255.00 23058640.00 L 23071255.00 23010592.00 L 23119303.00 23010592.00 L 23119303.00 22962544.00 L 23179909.00 22962544.00 L 23179909.00 23010592.00 L 23227957.00 23010592.00 L 23227957.00 23058640.00 L 23276005.00 23058640.00 L 23276005.00 23106688.00 L 23324053.00 23106688.00 L 23324053.00 23407534.00  zM 23669671.00 23407534.00 L 23416873.00 23407534.00 L 23416873.00 23359486.00 L 23368825.00 23359486.00 L 23368825.00 23203330.00 L 23416873.00 23203330.00 L 23416873.00 23166748.00 L 23368825.00 23166748.00 L 23368825.00 23010592.00 L 23416873.00 23010592.00 L 23416873.00 22962544.00 L 23669671.00 22962544.00 L 23669671.00 23010592.00 L 23717719.00 23010592.00 L 23717719.00 23070106.00 L 23609611.00 23070106.00 L 23609611.00 23022058.00 L 23476933.00 23022058.00 L 23476933.00 23155282.00 L 23621623.00 23155282.00 L 23621623.00 23214796.00 L 23476933.00 23214796.00 L 23476933.00 23348020.00 L 23609611.00 23348020.00 L 23609611.00 23299426.00 L 23717719.00 23299426.00 L 23717719.00 23359486.00 L 23669671.00 23359486.00 L 23669671.00 23407534.00  z"/>
<path id="N" d="M 6181101.00 15616929.00 L 4212597.00 15616929.00 L 4212597.00 23798031.00 L 6181101.00 23798031.00 L 6181101.00 15616929.00  zM 4929582.00 16429975.00 L 4676784.00 16429975.00 L 4676784.00 16381927.00 L 4628736.00 16381927.00 L 4628736.00 16225771.00 L 4676784.00 16225771.00 L 4676784.00 16189189.00 L 4628736.00 16189189.00 L 4628736.00 16033033.00 L 4676784.00 16033033.00 L 4676784.00 15984985.00 L 4929582.00 15984985.00 L 4929582.00 16033033.00 L 4977630.00 16033033.00 L 4977630.00 16092547.00 L 4869522.00 16092547.00 L 4869522.00 16044499.00 L 4736844.00 16044499.00 L 4736844.00 16177723.00 L 4881534.00 16177723.00 L 4881534.00 16237237.00 L 4736844.00 16237237.00 L 4736844.00 16370461.00 L 4869522.00 16370461.00 L 4869522.00 16321867.00 L 4977630.00 16321867.00 L 4977630.00 16381927.00 L 4929582.00 16381927.00 L 4929582.00 16429975.00  zM 5371296.00 16429975.00 L 5263188.00 16429975.00 L 5263188.00 16140595.00 L 5215140.00 16140595.00 L 5215140.00 16092547.00 L 5178558.00 16092547.00 L 5178558.00 16140595.00 L 5130510.00 16140595.00 L 5130510.00 16429975.00 L 5022402.00 16429975.00 L 5022402.00 16129129.00 L 5070450.00 16129129.00 L 5070450.00 16081081.00 L 5118498.00 16081081.00 L 5118498.00 16033033.00 L 5166546.00 16033033.00 L 5166546.00 15984985.00 L 5227152.00 15984985.00 L 5227152.00 16033033.00 L 5275200.00 16033033.00 L 5275200.00 16081081.00 L 5323248.00 16081081.00 L 5323248.00 16129129.00 L 5371296.00 16129129.00 L 5371296.00 16429975.00  zM 5174463.00 17429975.00 L 5066355.00 17429975.00 L 5066355.00 17333333.00 L 5018307.00 17333333.00 L 5018307.00 17285285.00 L 4981725.00 17285285.00 L 4981725.00 17333333.00 L 4933677.00 17333333.00 L 4933677.00 17429975.00 L 4825569.00 17429975.00 L 4825569.00 17321867.00 L 4873617.00 17321867.00 L 4873617.00 17273819.00 L 4921665.00 17273819.00 L 4921665.00 17140595.00 L 4873617.00 17140595.00 L 4873617.00 17092547.00 L 4825569.00 17092547.00 L 4825569.00 16984985.00 L 4933677.00 16984985.00 L 4933677.00 17081081.00 L 4981725.00 17081081.00 L 4981725.00 17129129.00 L 5018307.00 17129129.00 L 5018307.00 17081081.00 L 5066355.00 17081081.00 L 5066355.00 16984985.00 L 5174463.00 16984985.00 L 5174463.00 17092547.00 L 5126415.00 17092547.00 L 5126415.00 17140595.00 L 5078367.00 17140595.00 L 5078367.00 17273819.00 L 5126415.00 17273819.00 L 5126415.00 17321867.00 L 5174463.00 17321867.00 L 5174463.00 17429975.00  zM 5568129.00 17429975.00 L 5267283.00 17429975.00 L 5267283.00 17381927.00 L 5219235.00 17381927.00 L 5219235.00 17225771.00 L 5267283.00 17225771.00 L 5267283.00 17140595.00 L 5219235.00 17140595.00 L 5219235.00 16984985.00 L 5327343.00 16984985.00 L 5327343.00 17129129.00 L 5375391.00 17129129.00 L 5375391.00 17177723.00 L 5411973.00 17177723.00 L 5411973.00 16984985.00 L 5568129.00 16984985.00 L 5568129.00 17044499.00 L 5520081.00 17044499.00 L 5520081.00 17370461.00 L 5568129.00 17370461.00 L 5568129.00 17429975.00  zM 5198487.00 18429975.00 L 5090379.00 18429975.00 L 5090379.00 18333333.00 L 5042331.00 18333333.00 L 5042331.00 18285285.00 L 5005749.00 18285285.00 L 5005749.00 18333333.00 L 4957701.00 18333333.00 L 4957701.00 18429975.00 L 4849593.00 18429975.00 L 4849593.00 18321867.00 L 4897641.00 18321867.00 L 4897641.00 18273819.00 L 4945689.00 18273819.00 L 4945689.00 18140595.00 L 4897641.00 18140595.00 L 4897641.00 18092547.00 L 4849593.00 18092547.00 L 4849593.00 17984985.00 L 4957701.00 17984985.00 L 4957701.00 18081081.00 L 5005749.00 18081081.00 L 5005749.00 18129129.00 L 5042331.00 18129129.00 L 5042331.00 18081081.00 L 5090379.00 18081081.00 L 5090379.00 17984985.00 L 5198487.00 17984985.00 L 5198487.00 18092547.00 L 5150439.00 18092547.00 L 5150439.00 18140595.00 L 5102391.00 18140595.00 L 5102391.00 18273819.00 L 5150439.00 18273819.00 L 5150439.00 18321867.00 L 5198487.00 18321867.00 L 5198487.00 18429975.00  zM 5544105.00 18429975.00 L 5243259.00 18429975.00 L 5243259.00 18273819.00 L 5303319.00 18273819.00 L 5303319.00 18321867.00 L 5339355.00 18321867.00 L 5339355.00 18044499.00 L 5291307.00 18044499.00 L 5291307.00 17984985.00 L 5496057.00 17984985.00 L 5496057.00 18044499.00 L 5448009.00 18044499.00 L 5448009.00 18321867.00 L 5484045.00 18321867.00 L 5484045.00 18273819.00 L 5544105.00 18273819.00 L 5544105.00 18429975.00  zM 4881534.00 19429975.00 L 4772880.00 19429975.00 L 4772880.00 19044499.00 L 4676784.00 19044499.00 L 4676784.00 18984985.00 L 4977630.00 18984985.00 L 4977630.00 19044499.00 L 4881534.00 19044499.00 L 4881534.00 19273819.00 L 4977630.00 19273819.00 L 4977630.00 19333333.00 L 4929582.00 19333333.00 L 4929582.00 19381927.00 L 4881534.00 19381927.00 L 4881534.00 19429975.00  zM 5323248.00 19429975.00 L 5166546.00 19429975.00 L 5166546.00 19381927.00 L 5118498.00 19381927.00 L 5118498.00 19333333.00 L 5070450.00 19333333.00 L 5070450.00 19081081.00 L 5118498.00 19081081.00 L 5118498.00 19033033.00 L 5166546.00 19033033.00 L 5166546.00 18984985.00 L 5323248.00 18984985.00 L 5323248.00 19033033.00 L 5371296.00 19033033.00 L 5371296.00 19081081.00 L 5419344.00 19081081.00 L 5419344.00 19333333.00 L 5371296.00 19333333.00 L 5371296.00 19381927.00 L 5323248.00 19381927.00 L 5323248.00 19429975.00  zM 5716914.00 16429975.00 L 5464116.00 16429975.00 L 5464116.00 16381927.00 L 5416068.00 16381927.00 L 5416068.00 16225771.00 L 5464116.00 16225771.00 L 5464116.00 16189189.00 L 5416068.00 16189189.00 L 5416068.00 16033033.00 L 5464116.00 16033033.00 L 5464116.00 15984985.00 L 5716914.00 15984985.00 L 5716914.00 16033033.00 L 5764962.00 16033033.00 L 5764962.00 16092547.00 L 5656854.00 16092547.00 L 5656854.00 16044499.00 L 5524176.00 16044499.00 L 5524176.00 16177723.00 L 5668866.00 16177723.00 L 5668866.00 16237237.00 L 5524176.00 16237237.00 L 5524176.00 16370461.00 L 5656854.00 16370461.00 L 5656854.00 16321867.00 L 5764962.00 16321867.00 L 5764962.00 16381927.00 L 5716914.00 16381927.00 L 5716914.00 16429975.00  zM 5716914.00 19429975.00 L 5512164.00 19429975.00 L 5512164.00 19370461.00 L 5560212.00 19370461.00 L 5560212.00 19044499.00 L 5512164.00 19044499.00 L 5512164.00 18984985.00 L 5716914.00 18984985.00 L 5716914.00 19044499.00 L 5668866.00 19044499.00 L 5668866.00 19370461.00 L 5716914.00 19370461.00 L 5716914.00 19429975.00  zM 4977630.00 20429975.00 L 4724832.00 20429975.00 L 4724832.00 20381927.00 L 4676784.00 20381927.00 L 4676784.00 20273819.00 L 4724832.00 20273819.00 L 4724832.00 20225771.00 L 4772880.00 20225771.00 L 4772880.00 20177723.00 L 4820928.00 20177723.00 L 4820928.00 20129129.00 L 4869522.00 20129129.00 L 4869522.00 20081081.00 L 4917570.00 20081081.00 L 4917570.00 20044499.00 L 4784892.00 20044499.00 L 4784892.00 20092547.00 L 4676784.00 20092547.00 L 4676784.00 19984985.00 L 5025678.00 19984985.00 L 5025678.00 20092547.00 L 4977630.00 20092547.00 L 4977630.00 20140595.00 L 4929582.00 20140595.00 L 4929582.00 20189189.00 L 4881534.00 20189189.00 L 4881534.00 20237237.00 L 4832940.00 20237237.00 L 4832940.00 20285285.00 L 4784892.00 20285285.00 L 4784892.00 20370461.00 L 4917570.00 20370461.00 L 4917570.00 20321867.00 L 5025678.00 20321867.00 L 5025678.00 20381927.00 L 4977630.00 20381927.00 L 4977630.00 20429975.00  zM 5323248.00 20429975.00 L 5166546.00 20429975.00 L 5166546.00 20381927.00 L 5118498.00 20381927.00 L 5118498.00 20333333.00 L 5070450.00 20333333.00 L 5070450.00 20081081.00 L 5118498.00 20081081.00 L 5118498.00 20033033.00 L 5166546.00 20033033.00 L 5166546.00 19984985.00 L 5323248.00 19984985.00 L 5323248.00 20033033.00 L 5371296.00 20033033.00 L 5371296.00 20081081.00 L 5419344.00 20081081.00 L 5419344.00 20333333.00 L 5371296.00 20333333.00 L 5371296.00 20381927.00 L 5323248.00 20381927.00 L 5323248.00 20429975.00  zM 4977630.00 21429975.00 L 4724832.00 21429975.00 L 4724832.00 21381927.00 L 4676784.00 21381927.00 L 4676784.00 21225771.00 L 4724832.00 21225771.00 L 4724832.00 21189189.00 L 4676784.00 21189189.00 L 4676784.00 21033033.00 L 4724832.00 21033033.00 L 4724832.00 20984985.00 L 4977630.00 20984985.00 L 4977630.00 21033033.00 L 5025678.00 21033033.00 L 5025678.00 21092547.00 L 4917570.00 21092547.00 L 4917570.00 21044499.00 L 4784892.00 21044499.00 L 4784892.00 21177723.00 L 4929582.00 21177723.00 L 4929582.00 21237237.00 L 4784892.00 21237237.00 L 4784892.00 21370461.00 L 4917570.00 21370461.00 L 4917570.00 21321867.00 L 5025678.00 21321867.00 L 5025678.00 21381927.00 L 4977630.00 21381927.00 L 4977630.00 21429975.00  zM 5323248.00 21429975.00 L 5166546.00 21429975.00 L 5166546.00 21381927.00 L 5118498.00 21381927.00 L 5118498.00 21333333.00 L 5070450.00 21333333.00 L 5070450.00 21081081.00 L 5118498.00 21081081.00 L 5118498.00 21033033.00 L 5166546.00 21033033.00 L 5166546.00 20984985.00 L 5323248.00 20984985.00 L 5323248.00 21033033.00 L 5371296.00 21033033.00 L 5371296.00 21081081.00 L 5419344.00 21081081.00 L 5419344.00 21333333.00 L 5371296.00 21333333.00 L 5371296.00 21381927.00 L 5323248.00 21381927.00 L 5323248.00 21429975.00  zM 5174463.00 22429975.00 L 5066355.00 22429975.00 L 5066355.00 22140595.00 L 5018307.00 22140595.00 L 5018307.00 22092547.00 L 4981725.00 22092547.00 L 4981725.00 22140595.00 L 4933677.00 22140595.00 L 4933677.00 22429975.00 L 4825569.00 22429975.00 L 4825569.00 22129129.00 L 4873617.00 22129129.00 L 4873617.00 22081081.00 L 4921665.00 22081081.00 L 4921665.00 22033033.00 L 4969713.00 22033033.00 L 4969713.00 21984985.00 L 5030319.00 21984985.00 L 5030319.00 22033033.00 L 5078367.00 22033033.00 L 5078367.00 22081081.00 L 5126415.00 22081081.00 L 5126415.00 22129129.00 L 5174463.00 22129129.00 L 5174463.00 22429975.00  zM 4977630.00 23429975.00 L 4724832.00 23429975.00 L 4724832.00 23381927.00 L 4676784.00 23381927.00 L 4676784.00 23333333.00 L 4628736.00 23333333.00 L 4628736.00 23081081.00 L 4676784.00 23081081.00 L 4676784.00 23033033.00 L 4724832.00 23033033.00 L 4724832.00 22984985.00 L 4977630.00 22984985.00 L 4977630.00 23044499.00 L 4929582.00 23044499.00 L 4929582.00 23370461.00 L 4977630.00 23370461.00 L 4977630.00 23429975.00  zM 5371296.00 23429975.00 L 5263188.00 23429975.00 L 5263188.00 23381927.00 L 5215140.00 23381927.00 L 5215140.00 23333333.00 L 5166546.00 23333333.00 L 5166546.00 23285285.00 L 5130510.00 23285285.00 L 5130510.00 23429975.00 L 5022402.00 23429975.00 L 5022402.00 22984985.00 L 5130510.00 22984985.00 L 5130510.00 23129129.00 L 5178558.00 23129129.00 L 5178558.00 23177723.00 L 5227152.00 23177723.00 L 5227152.00 23225771.00 L 5263188.00 23225771.00 L 5263188.00 22984985.00 L 5371296.00 22984985.00 L 5371296.00 23429975.00  zM 5716914.00 20429975.00 L 5512164.00 20429975.00 L 5512164.00 20370461.00 L 5560212.00 20370461.00 L 5560212.00 20044499.00 L 5512164.00 20044499.00 L 5512164.00 19984985.00 L 5716914.00 19984985.00 L 5716914.00 20044499.00 L 5668866.00 20044499.00 L 5668866.00 20370461.00 L 5716914.00 20370461.00 L 5716914.00 20429975.00  zM 5716914.00 21429975.00 L 5512164.00 21429975.00 L 5512164.00 21370461.00 L 5560212.00 21370461.00 L 5560212.00 21044499.00 L 5512164.00 21044499.00 L 5512164.00 20984985.00 L 5716914.00 20984985.00 L 5716914.00 21044499.00 L 5668866.00 21044499.00 L 5668866.00 21370461.00 L 5716914.00 21370461.00 L 5716914.00 21429975.00  zM 5568129.00 22429975.00 L 5219235.00 22429975.00 L 5219235.00 22370461.00 L 5460021.00 22370461.00 L 5460021.00 22237237.00 L 5267283.00 22237237.00 L 5267283.00 22189189.00 L 5219235.00 22189189.00 L 5219235.00 22033033.00 L 5267283.00 22033033.00 L 5267283.00 21984985.00 L 5520081.00 21984985.00 L 5520081.00 22033033.00 L 5568129.00 22033033.00 L 5568129.00 22092547.00 L 5460021.00 22092547.00 L 5460021.00 22044499.00 L 5327343.00 22044499.00 L 5327343.00 22177723.00 L 5568129.00 22177723.00 L 5568129.00 22429975.00  zM 5668866.00 23429975.00 L 5464116.00 23429975.00 L 5464116.00 23381927.00 L 5416068.00 23381927.00 L 5416068.00 23273819.00 L 5476128.00 23273819.00 L 5476128.00 23321867.00 L 5524176.00 23321867.00 L 5524176.00 23370461.00 L 5608806.00 23370461.00 L 5608806.00 23321867.00 L 5656854.00 23321867.00 L 5656854.00 23092547.00 L 5608806.00 23092547.00 L 5608806.00 23044499.00 L 5524176.00 23044499.00 L 5524176.00 23129129.00 L 5620818.00 23129129.00 L 5620818.00 23189189.00 L 5416068.00 23189189.00 L 5416068.00 22984985.00 L 5476128.00 22984985.00 L 5476128.00 23033033.00 L 5512164.00 23033033.00 L 5512164.00 22984985.00 L 5668866.00 22984985.00 L 5668866.00 23033033.00 L 5716914.00 23033033.00 L 5716914.00 23081081.00 L 5764962.00 23081081.00 L 5764962.00 23333333.00 L 5716914.00 23333333.00 L 5716914.00 23381927.00 L 5668866.00 23381927.00 L 5668866.00 23429975.00  z"/>
<path id="N" d="M 9448820.00 26131890.00 L 7677166.00 26131890.00 L 7677166.00 33809056.00 L 9448820.00 33809056.00 L 9448820.00 26131890.00  zM 8146941.00 26555348.00 L 7798047.00 26555348.00 L 7798047.00 26495834.00 L 8146941.00 26495834.00 L 8146941.00 26555348.00  zM 8492559.00 26748086.00 L 8191713.00 26748086.00 L 8191713.00 26591930.00 L 8251773.00 26591930.00 L 8251773.00 26639978.00 L 8287809.00 26639978.00 L 8287809.00 26362610.00 L 8239761.00 26362610.00 L 8239761.00 26303096.00 L 8444511.00 26303096.00 L 8444511.00 26362610.00 L 8396463.00 26362610.00 L 8396463.00 26639978.00 L 8432499.00 26639978.00 L 8432499.00 26591930.00 L 8492559.00 26591930.00 L 8492559.00 26748086.00  zM 8790129.00 26748086.00 L 8729523.00 26748086.00 L 8729523.00 26700038.00 L 8681475.00 26700038.00 L 8681475.00 26651444.00 L 8633427.00 26651444.00 L 8633427.00 26603396.00 L 8585379.00 26603396.00 L 8585379.00 26303096.00 L 8693487.00 26303096.00 L 8693487.00 26447240.00 L 8826165.00 26447240.00 L 8826165.00 26303096.00 L 8934273.00 26303096.00 L 8934273.00 26603396.00 L 8886225.00 26603396.00 L 8886225.00 26651444.00 L 8838177.00 26651444.00 L 8838177.00 26700038.00 L 8790129.00 26700038.00 L 8790129.00 26748086.00  zM 9327939.00 26748086.00 L 9027093.00 26748086.00 L 9027093.00 26700038.00 L 8979045.00 26700038.00 L 8979045.00 26543882.00 L 9027093.00 26543882.00 L 9027093.00 26507300.00 L 8979045.00 26507300.00 L 8979045.00 26351144.00 L 9027093.00 26351144.00 L 9027093.00 26303096.00 L 9327939.00 26303096.00 L 9327939.00 26362610.00 L 9279891.00 26362610.00 L 9279891.00 26688572.00 L 9327939.00 26688572.00 L 9327939.00 26748086.00  zM 8002797.00 28029397.00 L 7894143.00 28029397.00 L 7894143.00 27933301.00 L 7798047.00 27933301.00 L 7798047.00 27873787.00 L 7894143.00 27873787.00 L 7894143.00 27777145.00 L 8002797.00 27777145.00 L 8002797.00 27873787.00 L 8098893.00 27873787.00 L 8098893.00 27933301.00 L 8002797.00 27933301.00 L 8002797.00 28029397.00  zM 8492559.00 28126039.00 L 8191713.00 28126039.00 L 8191713.00 27969883.00 L 8251773.00 27969883.00 L 8251773.00 28017931.00 L 8287809.00 28017931.00 L 8287809.00 27740563.00 L 8239761.00 27740563.00 L 8239761.00 27681049.00 L 8444511.00 27681049.00 L 8444511.00 27740563.00 L 8396463.00 27740563.00 L 8396463.00 28017931.00 L 8432499.00 28017931.00 L 8432499.00 27969883.00 L 8492559.00 27969883.00 L 8492559.00 28126039.00  zM 8790129.00 28126039.00 L 8729523.00 28126039.00 L 8729523.00 28077991.00 L 8681475.00 28077991.00 L 8681475.00 28029397.00 L 8633427.00 28029397.00 L 8633427.00 27981349.00 L 8585379.00 27981349.00 L 8585379.00 27681049.00 L 8693487.00 27681049.00 L 8693487.00 27825193.00 L 8826165.00 27825193.00 L 8826165.00 27681049.00 L 8934273.00 27681049.00 L 8934273.00 27981349.00 L 8886225.00 27981349.00 L 8886225.00 28029397.00 L 8838177.00 28029397.00 L 8838177.00 28077991.00 L 8790129.00 28077991.00 L 8790129.00 28126039.00  zM 9327939.00 28126039.00 L 9027093.00 28126039.00 L 9027093.00 28077991.00 L 8979045.00 28077991.00 L 8979045.00 27921835.00 L 9027093.00 27921835.00 L 9027093.00 27885253.00 L 8979045.00 27885253.00 L 8979045.00 27729097.00 L 9027093.00 27729097.00 L 9027093.00 27681049.00 L 9327939.00 27681049.00 L 9327939.00 27740563.00 L 9279891.00 27740563.00 L 9279891.00 28066525.00 L 9327939.00 28066525.00 L 9327939.00 28126039.00  zM 8540607.00 29503992.00 L 8432499.00 29503992.00 L 8432499.00 29214612.00 L 8396463.00 29214612.00 L 8396463.00 29311254.00 L 8335857.00 29311254.00 L 8335857.00 29214612.00 L 8299821.00 29214612.00 L 8299821.00 29503992.00 L 8191713.00 29503992.00 L 8191713.00 29155098.00 L 8239761.00 29155098.00 L 8239761.00 29059002.00 L 8347869.00 29059002.00 L 8347869.00 29107050.00 L 8384451.00 29107050.00 L 8384451.00 29059002.00 L 8492559.00 29059002.00 L 8492559.00 29155098.00 L 8540607.00 29155098.00 L 8540607.00 29503992.00  zM 8934273.00 29503992.00 L 8633427.00 29503992.00 L 8633427.00 29455944.00 L 8585379.00 29455944.00 L 8585379.00 29299788.00 L 8633427.00 29299788.00 L 8633427.00 29214612.00 L 8585379.00 29214612.00 L 8585379.00 29059002.00 L 8693487.00 29059002.00 L 8693487.00 29203146.00 L 8741535.00 29203146.00 L 8741535.00 29251740.00 L 8778117.00 29251740.00 L 8778117.00 29059002.00 L 8934273.00 29059002.00 L 8934273.00 29118516.00 L 8886225.00 29118516.00 L 8886225.00 29444478.00 L 8934273.00 29444478.00 L 8934273.00 29503992.00  zM 8146941.00 29311254.00 L 7798047.00 29311254.00 L 7798047.00 29251740.00 L 8146941.00 29251740.00 L 8146941.00 29311254.00  zM 9327939.00 29503992.00 L 9027093.00 29503992.00 L 9027093.00 29455944.00 L 8979045.00 29455944.00 L 8979045.00 29299788.00 L 9027093.00 29299788.00 L 9027093.00 29263206.00 L 8979045.00 29263206.00 L 8979045.00 29107050.00 L 9027093.00 29107050.00 L 9027093.00 29059002.00 L 9327939.00 29059002.00 L 9327939.00 29118516.00 L 9279891.00 29118516.00 L 9279891.00 29444478.00 L 9327939.00 29444478.00 L 9327939.00 29503992.00  zM 8002797.00 30785302.00 L 7894143.00 30785302.00 L 7894143.00 30689206.00 L 7798047.00 30689206.00 L 7798047.00 30629692.00 L 7894143.00 30629692.00 L 7894143.00 30533050.00 L 8002797.00 30533050.00 L 8002797.00 30629692.00 L 8098893.00 30629692.00 L 8098893.00 30689206.00 L 8002797.00 30689206.00 L 8002797.00 30785302.00  zM 8934273.00 30881944.00 L 8633427.00 30881944.00 L 8633427.00 30833896.00 L 8585379.00 30833896.00 L 8585379.00 30677740.00 L 8633427.00 30677740.00 L 8633427.00 30592564.00 L 8585379.00 30592564.00 L 8585379.00 30436954.00 L 8693487.00 30436954.00 L 8693487.00 30581098.00 L 8741535.00 30581098.00 L 8741535.00 30629692.00 L 8778117.00 30629692.00 L 8778117.00 30436954.00 L 8934273.00 30436954.00 L 8934273.00 30496468.00 L 8886225.00 30496468.00 L 8886225.00 30822430.00 L 8934273.00 30822430.00 L 8934273.00 30881944.00  zM 8540607.00 30881944.00 L 8432499.00 30881944.00 L 8432499.00 30592564.00 L 8396463.00 30592564.00 L 8396463.00 30689206.00 L 8335857.00 30689206.00 L 8335857.00 30592564.00 L 8299821.00 30592564.00 L 8299821.00 30881944.00 L 8191713.00 30881944.00 L 8191713.00 30533050.00 L 8239761.00 30533050.00 L 8239761.00 30436954.00 L 8347869.00 30436954.00 L 8347869.00 30485002.00 L 8384451.00 30485002.00 L 8384451.00 30436954.00 L 8492559.00 30436954.00 L 8492559.00 30533050.00 L 8540607.00 30533050.00 L 8540607.00 30881944.00  zM 8343774.00 32067159.00 L 7994880.00 32067159.00 L 7994880.00 32007645.00 L 8343774.00 32007645.00 L 8343774.00 32067159.00  zM 8737440.00 32259897.00 L 8629332.00 32259897.00 L 8629332.00 31970517.00 L 8593296.00 31970517.00 L 8593296.00 32067159.00 L 8532690.00 32067159.00 L 8532690.00 31970517.00 L 8496654.00 31970517.00 L 8496654.00 32259897.00 L 8388546.00 32259897.00 L 8388546.00 31911003.00 L 8436594.00 31911003.00 L 8436594.00 31814907.00 L 8544702.00 31814907.00 L 8544702.00 31862955.00 L 8581284.00 31862955.00 L 8581284.00 31814907.00 L 8689392.00 31814907.00 L 8689392.00 31911003.00 L 8737440.00 31911003.00 L 8737440.00 32259897.00  zM 9327939.00 30881944.00 L 9027093.00 30881944.00 L 9027093.00 30833896.00 L 8979045.00 30833896.00 L 8979045.00 30677740.00 L 9027093.00 30677740.00 L 9027093.00 30641158.00 L 8979045.00 30641158.00 L 8979045.00 30485002.00 L 9027093.00 30485002.00 L 9027093.00 30436954.00 L 9327939.00 30436954.00 L 9327939.00 30496468.00 L 9279891.00 30496468.00 L 9279891.00 30822430.00 L 9327939.00 30822430.00 L 9327939.00 30881944.00  zM 8199630.00 33541208.00 L 8090976.00 33541208.00 L 8090976.00 33445112.00 L 7994880.00 33445112.00 L 7994880.00 33385598.00 L 8090976.00 33385598.00 L 8090976.00 33288956.00 L 8199630.00 33288956.00 L 8199630.00 33385598.00 L 8295726.00 33385598.00 L 8295726.00 33445112.00 L 8199630.00 33445112.00 L 8199630.00 33541208.00  zM 8737440.00 33637850.00 L 8629332.00 33637850.00 L 8629332.00 33348470.00 L 8593296.00 33348470.00 L 8593296.00 33445112.00 L 8532690.00 33445112.00 L 8532690.00 33348470.00 L 8496654.00 33348470.00 L 8496654.00 33637850.00 L 8388546.00 33637850.00 L 8388546.00 33288956.00 L 8436594.00 33288956.00 L 8436594.00 33192860.00 L 8544702.00 33192860.00 L 8544702.00 33240908.00 L 8581284.00 33240908.00 L 8581284.00 33192860.00 L 8689392.00 33192860.00 L 8689392.00 33288956.00 L 8737440.00 33288956.00 L 8737440.00 33637850.00  zM 9083058.00 33637850.00 L 8830260.00 33637850.00 L 8830260.00 33589802.00 L 8782212.00 33589802.00 L 8782212.00 33481694.00 L 8890320.00 33481694.00 L 8890320.00 33578336.00 L 9022998.00 33578336.00 L 9022998.00 33493160.00 L 8974950.00 33493160.00 L 8974950.00 33445112.00 L 8878308.00 33445112.00 L 8878308.00 33397064.00 L 8830260.00 33397064.00 L 8830260.00 33348470.00 L 8782212.00 33348470.00 L 8782212.00 33240908.00 L 8830260.00 33240908.00 L 8830260.00 33192860.00 L 9083058.00 33192860.00 L 9083058.00 33240908.00 L 9131106.00 33240908.00 L 9131106.00 33348470.00 L 9022998.00 33348470.00 L 9022998.00 33252374.00 L 8890320.00 33252374.00 L 8890320.00 33337004.00 L 8938368.00 33337004.00 L 8938368.00 33385598.00 L 9035010.00 33385598.00 L 9035010.00 33433646.00 L 9083058.00 33433646.00 L 9083058.00 33481694.00 L 9131106.00 33481694.00 L 9131106.00 33589802.00 L 9083058.00 33589802.00 L 9083058.00 33637850.00  zM 9083058.00 32259897.00 L 8830260.00 32259897.00 L 8830260.00 32211849.00 L 8782212.00 32211849.00 L 8782212.00 32103741.00 L 8890320.00 32103741.00 L 8890320.00 32200383.00 L 9022998.00 32200383.00 L 9022998.00 32115207.00 L 8974950.00 32115207.00 L 8974950.00 32067159.00 L 8878308.00 32067159.00 L 8878308.00 32019111.00 L 8830260.00 32019111.00 L 8830260.00 31970517.00 L 8782212.00 31970517.00 L 8782212.00 31862955.00 L 8830260.00 31862955.00 L 8830260.00 31814907.00 L 9083058.00 31814907.00 L 9083058.00 31862955.00 L 9131106.00 31862955.00 L 9131106.00 31970517.00 L 9022998.00 31970517.00 L 9022998.00 31874421.00 L 8890320.00 31874421.00 L 8890320.00 31959051.00 L 8938368.00 31959051.00 L 8938368.00 32007645.00 L 9035010.00 32007645.00 L 9035010.00 32055693.00 L 9083058.00 32055693.00 L 9083058.00 32103741.00 L 9131106.00 32103741.00 L 9131106.00 32211849.00 L 9083058.00 32211849.00 L 9083058.00 32259897.00  z"/>
<path id="N" d="M 20669292.00 26230315.00 L 18897638.00 26230315.00 L 18897638.00 33907481.00 L 20669292.00 33907481.00 L 20669292.00 26230315.00  zM 19420102.00 28127822.00 L 19311448.00 28127822.00 L 19311448.00 28031726.00 L 19215352.00 28031726.00 L 19215352.00 27972212.00 L 19311448.00 27972212.00 L 19311448.00 27875570.00 L 19420102.00 27875570.00 L 19420102.00 27972212.00 L 19516198.00 27972212.00 L 19516198.00 28031726.00 L 19420102.00 28031726.00 L 19420102.00 28127822.00  zM 19420102.00 29505775.00 L 19311448.00 29505775.00 L 19311448.00 29409679.00 L 19215352.00 29409679.00 L 19215352.00 29350165.00 L 19311448.00 29350165.00 L 19311448.00 29253523.00 L 19420102.00 29253523.00 L 19420102.00 29350165.00 L 19516198.00 29350165.00 L 19516198.00 29409679.00 L 19420102.00 29409679.00 L 19420102.00 29505775.00  zM 19564246.00 26653773.00 L 19215352.00 26653773.00 L 19215352.00 26594259.00 L 19564246.00 26594259.00 L 19564246.00 26653773.00  zM 19813768.00 28224464.00 L 19705114.00 28224464.00 L 19705114.00 27838988.00 L 19609018.00 27838988.00 L 19609018.00 27779474.00 L 19909864.00 27779474.00 L 19909864.00 27838988.00 L 19813768.00 27838988.00 L 19813768.00 28068308.00 L 19909864.00 28068308.00 L 19909864.00 28127822.00 L 19861816.00 28127822.00 L 19861816.00 28176416.00 L 19813768.00 28176416.00 L 19813768.00 28224464.00  zM 19564246.00 30787631.00 L 19215352.00 30787631.00 L 19215352.00 30728117.00 L 19564246.00 30728117.00 L 19564246.00 30787631.00  zM 19813768.00 26846511.00 L 19705114.00 26846511.00 L 19705114.00 26461035.00 L 19609018.00 26461035.00 L 19609018.00 26401521.00 L 19909864.00 26401521.00 L 19909864.00 26461035.00 L 19813768.00 26461035.00 L 19813768.00 26690355.00 L 19909864.00 26690355.00 L 19909864.00 26749869.00 L 19861816.00 26749869.00 L 19861816.00 26798463.00 L 19813768.00 26798463.00 L 19813768.00 26846511.00  zM 20351578.00 26846511.00 L 20050732.00 26846511.00 L 20050732.00 26798463.00 L 20002684.00 26798463.00 L 20002684.00 26642307.00 L 20050732.00 26642307.00 L 20050732.00 26594259.00 L 20195422.00 26594259.00 L 20195422.00 26461035.00 L 20146828.00 26461035.00 L 20146828.00 26401521.00 L 20351578.00 26401521.00 L 20351578.00 26461035.00 L 20303530.00 26461035.00 L 20303530.00 26786997.00 L 20351578.00 26786997.00 L 20351578.00 26846511.00  zM 20351578.00 28224464.00 L 20050732.00 28224464.00 L 20050732.00 28176416.00 L 20002684.00 28176416.00 L 20002684.00 28020260.00 L 20050732.00 28020260.00 L 20050732.00 27972212.00 L 20195422.00 27972212.00 L 20195422.00 27838988.00 L 20146828.00 27838988.00 L 20146828.00 27779474.00 L 20351578.00 27779474.00 L 20351578.00 27838988.00 L 20303530.00 27838988.00 L 20303530.00 28164950.00 L 20351578.00 28164950.00 L 20351578.00 28224464.00  zM 20351578.00 29602417.00 L 20050732.00 29602417.00 L 20050732.00 29554369.00 L 20002684.00 29554369.00 L 20002684.00 29398213.00 L 20050732.00 29398213.00 L 20050732.00 29350165.00 L 20195422.00 29350165.00 L 20195422.00 29216941.00 L 20146828.00 29216941.00 L 20146828.00 29157427.00 L 20351578.00 29157427.00 L 20351578.00 29216941.00 L 20303530.00 29216941.00 L 20303530.00 29542903.00 L 20351578.00 29542903.00 L 20351578.00 29602417.00  zM 19909864.00 29602417.00 L 19657066.00 29602417.00 L 19657066.00 29554369.00 L 19609018.00 29554369.00 L 19609018.00 29446261.00 L 19657066.00 29446261.00 L 19657066.00 29398213.00 L 19705114.00 29398213.00 L 19705114.00 29350165.00 L 19753162.00 29350165.00 L 19753162.00 29301571.00 L 19801756.00 29301571.00 L 19801756.00 29253523.00 L 19849804.00 29253523.00 L 19849804.00 29216941.00 L 19717126.00 29216941.00 L 19717126.00 29264989.00 L 19609018.00 29264989.00 L 19609018.00 29157427.00 L 19957912.00 29157427.00 L 19957912.00 29264989.00 L 19909864.00 29264989.00 L 19909864.00 29313037.00 L 19861816.00 29313037.00 L 19861816.00 29361631.00 L 19813768.00 29361631.00 L 19813768.00 29409679.00 L 19765174.00 29409679.00 L 19765174.00 29457727.00 L 19717126.00 29457727.00 L 19717126.00 29542903.00 L 19849804.00 29542903.00 L 19849804.00 29494309.00 L 19957912.00 29494309.00 L 19957912.00 29554369.00 L 19909864.00 29554369.00 L 19909864.00 29602417.00  zM 20351578.00 30980369.00 L 20050732.00 30980369.00 L 20050732.00 30932321.00 L 20002684.00 30932321.00 L 20002684.00 30776165.00 L 20050732.00 30776165.00 L 20050732.00 30728117.00 L 20195422.00 30728117.00 L 20195422.00 30594893.00 L 20146828.00 30594893.00 L 20146828.00 30535379.00 L 20351578.00 30535379.00 L 20351578.00 30594893.00 L 20303530.00 30594893.00 L 20303530.00 30920855.00 L 20351578.00 30920855.00 L 20351578.00 30980369.00  zM 19909864.00 30980369.00 L 19657066.00 30980369.00 L 19657066.00 30932321.00 L 19609018.00 30932321.00 L 19609018.00 30824213.00 L 19657066.00 30824213.00 L 19657066.00 30776165.00 L 19705114.00 30776165.00 L 19705114.00 30728117.00 L 19753162.00 30728117.00 L 19753162.00 30679523.00 L 19801756.00 30679523.00 L 19801756.00 30631475.00 L 19849804.00 30631475.00 L 19849804.00 30594893.00 L 19717126.00 30594893.00 L 19717126.00 30642941.00 L 19609018.00 30642941.00 L 19609018.00 30535379.00 L 19957912.00 30535379.00 L 19957912.00 30642941.00 L 19909864.00 30642941.00 L 19909864.00 30690989.00 L 19861816.00 30690989.00 L 19861816.00 30739583.00 L 19813768.00 30739583.00 L 19813768.00 30787631.00 L 19765174.00 30787631.00 L 19765174.00 30835679.00 L 19717126.00 30835679.00 L 19717126.00 30920855.00 L 19849804.00 30920855.00 L 19849804.00 30872261.00 L 19957912.00 30872261.00 L 19957912.00 30932321.00 L 19909864.00 30932321.00 L 19909864.00 30980369.00  zM 19223269.00 32261680.00 L 19114615.00 32261680.00 L 19114615.00 32165584.00 L 19018519.00 32165584.00 L 19018519.00 32106070.00 L 19114615.00 32106070.00 L 19114615.00 32009428.00 L 19223269.00 32009428.00 L 19223269.00 32106070.00 L 19319365.00 32106070.00 L 19319365.00 32165584.00 L 19223269.00 32165584.00 L 19223269.00 32261680.00  zM 19761079.00 32358322.00 L 19652971.00 32358322.00 L 19652971.00 32310274.00 L 19604923.00 32310274.00 L 19604923.00 32261680.00 L 19556329.00 32261680.00 L 19556329.00 32213632.00 L 19520293.00 32213632.00 L 19520293.00 32358322.00 L 19412185.00 32358322.00 L 19412185.00 31913332.00 L 19520293.00 31913332.00 L 19520293.00 32057476.00 L 19568341.00 32057476.00 L 19568341.00 32106070.00 L 19616935.00 32106070.00 L 19616935.00 32154118.00 L 19652971.00 32154118.00 L 19652971.00 31913332.00 L 19761079.00 31913332.00 L 19761079.00 32358322.00  zM 20154745.00 32358322.00 L 19805851.00 32358322.00 L 19805851.00 32202166.00 L 19865911.00 32202166.00 L 19865911.00 32250214.00 L 19913959.00 32250214.00 L 19913959.00 32298808.00 L 19998589.00 32298808.00 L 19998589.00 32165584.00 L 19962007.00 32165584.00 L 19962007.00 32213632.00 L 19901947.00 32213632.00 L 19901947.00 32057476.00 L 19962007.00 32057476.00 L 19962007.00 32106070.00 L 19998589.00 32106070.00 L 19998589.00 31972846.00 L 19913959.00 31972846.00 L 19913959.00 32020894.00 L 19865911.00 32020894.00 L 19865911.00 32068942.00 L 19805851.00 32068942.00 L 19805851.00 31913332.00 L 20154745.00 31913332.00 L 20154745.00 31972846.00 L 20106697.00 31972846.00 L 20106697.00 32298808.00 L 20154745.00 32298808.00 L 20154745.00 32358322.00  zM 20548411.00 32358322.00 L 20247565.00 32358322.00 L 20247565.00 32310274.00 L 20199517.00 32310274.00 L 20199517.00 32154118.00 L 20247565.00 32154118.00 L 20247565.00 32106070.00 L 20392255.00 32106070.00 L 20392255.00 31972846.00 L 20343661.00 31972846.00 L 20343661.00 31913332.00 L 20548411.00 31913332.00 L 20548411.00 31972846.00 L 20500363.00 31972846.00 L 20500363.00 32298808.00 L 20548411.00 32298808.00 L 20548411.00 32358322.00  zM 19367413.00 33543537.00 L 19018519.00 33543537.00 L 19018519.00 33484023.00 L 19367413.00 33484023.00 L 19367413.00 33543537.00  zM 20154745.00 33736275.00 L 19805851.00 33736275.00 L 19805851.00 33580119.00 L 19865911.00 33580119.00 L 19865911.00 33628167.00 L 19913959.00 33628167.00 L 19913959.00 33676761.00 L 19998589.00 33676761.00 L 19998589.00 33543537.00 L 19962007.00 33543537.00 L 19962007.00 33591585.00 L 19901947.00 33591585.00 L 19901947.00 33435429.00 L 19962007.00 33435429.00 L 19962007.00 33484023.00 L 19998589.00 33484023.00 L 19998589.00 33350799.00 L 19913959.00 33350799.00 L 19913959.00 33398847.00 L 19865911.00 33398847.00 L 19865911.00 33446895.00 L 19805851.00 33446895.00 L 19805851.00 33291285.00 L 20154745.00 33291285.00 L 20154745.00 33350799.00 L 20106697.00 33350799.00 L 20106697.00 33676761.00 L 20154745.00 33676761.00 L 20154745.00 33736275.00  zM 20548411.00 33736275.00 L 20247565.00 33736275.00 L 20247565.00 33688227.00 L 20199517.00 33688227.00 L 20199517.00 33532071.00 L 20247565.00 33532071.00 L 20247565.00 33484023.00 L 20392255.00 33484023.00 L 20392255.00 33350799.00 L 20343661.00 33350799.00 L 20343661.00 33291285.00 L 20548411.00 33291285.00 L 20548411.00 33350799.00 L 20500363.00 33350799.00 L 20500363.00 33676761.00 L 20548411.00 33676761.00 L 20548411.00 33736275.00  zM 19761079.00 33736275.00 L 19652971.00 33736275.00 L 19652971.00 33688227.00 L 19604923.00 33688227.00 L 19604923.00 33639633.00 L 19556329.00 33639633.00 L 19556329.00 33591585.00 L 19520293.00 33591585.00 L 19520293.00 33736275.00 L 19412185.00 33736275.00 L 19412185.00 33291285.00 L 19520293.00 33291285.00 L 19520293.00 33435429.00 L 19568341.00 33435429.00 L 19568341.00 33484023.00 L 19616935.00 33484023.00 L 19616935.00 33532071.00 L 19652971.00 33532071.00 L 19652971.00 33291285.00 L 19761079.00 33291285.00 L 19761079.00 33736275.00  z"/>
<path id="N" d="M 19384672.55 47529188.10 L 19634129.52 47529188.10 L 19634129.52 47030274.17 L 19883586.48 47030274.17 L 19883586.48 46531360.24 L 20133043.45 46531360.24 L 20133043.45 46281903.28 L 20382500.41 46281903.28 L 20382500.41 46032446.31 L 20133043.45 46032446.31 L 20133043.45 46281903.28 L 19883586.48 46281903.28 L 19883586.48 46032446.31 L 20133043.45 46032446.31 L 20133043.45 45533532.38 L 20382500.41 45533532.38 L 20382500.41 45284075.41 L 19634129.52 45284075.41 L 19634129.52 45034618.45 L 19883586.48 45034618.45 L 19883586.48 44535704.52 L 20133043.45 44535704.52 L 20133043.45 44785161.48 L 20382500.41 44785161.48 L 20382500.41 44286247.55 L 20133043.45 44286247.55 L 20133043.45 44036790.59 L 20382500.41 44036790.59 L 20382500.41 43537876.66 L 20133043.45 43537876.66 L 20133043.45 43787333.62 L 19883586.48 43787333.62 L 19883586.48 44286247.55 L 19634129.52 44286247.55 L 19634129.52 44535704.52 L 19135215.59 44535704.52 L 19135215.59 44286247.55 L 18885758.62 44286247.55 L 18885758.62 44036790.59 L 19135215.59 44036790.59 L 19135215.59 43537876.66 L 18885758.62 43537876.66 L 18885758.62 43038962.72 L 19135215.59 43038962.72 L 19135215.59 42789505.76 L 18885758.62 42789505.76 L 18885758.62 42540048.79 L 19135215.59 42540048.79 L 19135215.59 42041134.86 L 19384672.55 42041134.86 L 19384672.55 42540048.79 L 19634129.52 42540048.79 L 19634129.52 42041134.86 L 20133043.45 42041134.86 L 20133043.45 42789505.76 L 19883586.48 42789505.76 L 19883586.48 43038962.72 L 20133043.45 43038962.72 L 20133043.45 43288419.69 L 20631957.38 43288419.69 L 20631957.38 43537876.66 L 20881414.34 43537876.66 L 20881414.34 42789505.76 L 20631957.38 42789505.76 L 20631957.38 43038962.72 L 20382500.41 43038962.72 L 20382500.41 42290591.83 L 20631957.38 42290591.83 L 20631957.38 42540048.79 L 20881414.34 42540048.79 L 20881414.34 42041134.86 L 20631957.38 42041134.86 L 20631957.38 41791677.90 L 20881414.34 41791677.90 L 20881414.34 41542220.93 L 19634129.52 41542220.93 L 19634129.52 41791677.90 L 18885758.62 41791677.90 L 18885758.62 42540048.79 L 18636301.66 42540048.79 L 18636301.66 42041134.86 L 18137387.72 42041134.86 L 18137387.72 42540048.79 L 17887930.76 42540048.79 L 17887930.76 41791677.90 L 18636301.66 41791677.90 L 18636301.66 41542220.93 L 16640645.93 41542220.93 L 16640645.93 41791677.90 L 17139559.86 41791677.90 L 17139559.86 42041134.86 L 16890102.90 42041134.86 L 16890102.90 42290591.83 L 16640645.93 42290591.83 L 16640645.93 42540048.79 L 16890102.90 42540048.79 L 16890102.90 42789505.76 L 16640645.93 42789505.76 L 16640645.93 44036790.59 L 16890102.90 44036790.59 L 16890102.90 43787333.62 L 17638473.79 43787333.62 L 17638473.79 44785161.48 L 17389016.83 44785161.48 L 17389016.83 44535704.52 L 16890102.90 44535704.52 L 16890102.90 44286247.55 L 17389016.83 44286247.55 L 17389016.83 44036790.59 L 16890102.90 44036790.59 L 16890102.90 44286247.55 L 16640645.93 44286247.55 L 16640645.93 44785161.48 L 17139559.86 44785161.48 L 17139559.86 45034618.45 L 17638473.79 45034618.45 L 17638473.79 44785161.48 L 17887930.76 44785161.48 L 17887930.76 45533532.38 L 18137387.72 45533532.38 L 18137387.72 44785161.48 L 18636301.66 44785161.48 L 18636301.66 45284075.41 L 18386844.69 45284075.41 L 18386844.69 45533532.38 L 18137387.72 45533532.38 L 18137387.72 45782989.34 L 18386844.69 45782989.34 L 18386844.69 45533532.38 L 18636301.66 45533532.38 L 18636301.66 46281903.28 L 18885758.62 46281903.28 L 18885758.62 45034618.45 L 19384672.55 45034618.45 L 19384672.55 45533532.38 L 19135215.59 45533532.38 L 19135215.59 46531360.24 L 18636301.66 46531360.24 L 18636301.66 46780817.21 L 18885758.62 46780817.21 L 18885758.62 47030274.17 L 19135215.59 47030274.17 L 19135215.59 46780817.21 L 19384672.55 46780817.21 L 19384672.55 47030274.17 L 19135215.59 47030274.17 L 19135215.59 47778645.07 L 19384672.55 47778645.07 L 19384672.55 47529188.10  zM 17638473.79 42290591.83 L 17389016.83 42290591.83 L 17389016.83 41791677.90 L 17638473.79 41791677.90 L 17638473.79 42290591.83  zM 17638473.79 43537876.66 L 17389016.83 43537876.66 L 17389016.83 43038962.72 L 16890102.90 43038962.72 L 16890102.90 42789505.76 L 17139559.86 42789505.76 L 17139559.86 42540048.79 L 17389016.83 42540048.79 L 17389016.83 42789505.76 L 17638473.79 42789505.76 L 17638473.79 43537876.66  zM 17139559.86 43537876.66 L 16890102.90 43537876.66 L 16890102.90 43288419.69 L 17139559.86 43288419.69 L 17139559.86 43537876.66  zM 18636301.66 43537876.66 L 17887930.76 43537876.66 L 17887930.76 42789505.76 L 18636301.66 42789505.76 L 18636301.66 43537876.66  zM 18636301.66 44535704.52 L 18386844.69 44535704.52 L 18386844.69 44286247.55 L 17887930.76 44286247.55 L 17887930.76 44036790.59 L 18137387.72 44036790.59 L 18137387.72 43787333.62 L 18885758.62 43787333.62 L 18885758.62 44036790.59 L 18636301.66 44036790.59 L 18636301.66 44535704.52  zM 19634129.52 46531360.24 L 19384672.55 46531360.24 L 19384672.55 45533532.38 L 19883586.48 45533532.38 L 19883586.48 45782989.34 L 19634129.52 45782989.34 L 19634129.52 46531360.24  z"/>
<path id="N" d="M 10627953.00 14321837.00 L 13049606.00 14321837.00 A 54118.70 54118.70 0 0 0 13049606.00 14213597.00 L 6750394.00 14213597.00 A 54118.70 54118.70 0 1 0 6750394.00 14321837.00 L 7872047.00 14321837.00 L 7872047.00 15093701.00 L 10627953.00 15093701.00 L 10627953.00 14321837.00  zM 8513639.90 14851207.63 L 8455911.90 14851207.62 L 8455911.89 14909591.62 L 8398183.89 14909591.61 L 8398183.88 14967319.61 L 8209911.88 14967319.58 L 8209911.89 14909591.58 L 8152183.89 14909591.57 L 8152183.90 14851207.57 L 8094455.90 14851207.56 L 8094455.96 14548135.56 L 8152183.96 14548135.57 L 8152183.97 14490407.57 L 8209911.97 14490407.58 L 8209911.98 14432679.58 L 8513639.98 14432679.63 L 8513639.90 14851207.63  zM 8871159.88 14967319.69 L 8625159.88 14967319.65 L 8625159.90 14895815.65 L 8682887.90 14895815.66 L 8682887.97 14504183.66 L 8625159.97 14504183.65 L 8625159.98 14432679.65 L 8871159.98 14432679.69 L 8871159.88 14967319.69  zM 9459591.88 14967319.80 L 9155863.88 14967319.74 L 9155863.89 14909591.74 L 9098135.89 14909591.73 L 9098135.90 14851207.73 L 9040407.90 14851207.72 L 9040407.96 14548135.72 L 9098135.96 14548135.73 L 9098135.97 14490407.73 L 9155863.97 14490407.74 L 9155863.98 14432679.74 L 9459591.98 14432679.80 L 9459591.88 14967319.80  zM 9932567.91 14793479.88 L 9874839.91 14793479.87 L 9874839.90 14851207.87 L 9817111.90 14851207.86 L 9817111.89 14909591.86 L 9759383.89 14909591.85 L 9759383.88 14967319.85 L 9686567.88 14967319.84 L 9686567.89 14909591.84 L 9628839.89 14909591.83 L 9628839.90 14851207.83 L 9571111.90 14851207.82 L 9571111.91 14793479.82 L 9513383.91 14793479.81 L 9513383.98 14432679.81 L 9643271.98 14432679.83 L 9643271.95 14605863.83 L 9802679.95 14605863.86 L 9802679.98 14432679.86 L 9932567.98 14432679.88 L 9932567.91 14793479.88  zM 10405543.88 14967319.96 L 10044087.88 14967319.90 L 10044087.89 14909591.90 L 9986359.89 14909591.89 L 9986359.93 14721975.89 L 10044087.93 14721975.90 L 10044087.95 14619639.90 L 9986359.95 14619639.89 L 9986359.98 14432679.89 L 10405543.98 14432679.96 L 10405543.88 14967319.96  z"/>
<path id="N" d="M 20987401.00 12639735.69 L 21014385.00 12628559.00 L 21026866.00 12598426.00 L 21014385.00 12568293.00 L 20984252.00 12555812.00 L 16223716.00 12555812.00 L 16223716.00 12204725.00 L 16211235.00 12174592.00 L 16181102.00 12162111.00 L 16150969.00 12174592.00 L 16138488.00 12204725.00 L 16138488.00 12598426.00 L 16150969.00 12628559.00 L 16181102.00 12641040.00 L 19412598.00 12641040.00 L 19412598.00 13393701.00 L 20987401.00 13393701.00 L 20987401.00 12639735.69  zM 20173103.88 13267319.86 L 19753919.88 13267319.78 L 19753919.96 12848135.78 L 19811647.96 12848135.79 L 19811647.97 12790407.79 L 19869375.97 12790407.80 L 19869375.98 12732679.80 L 20173103.98 12732679.86 L 20173103.97 12804183.86 L 20115375.97 12804183.85 L 20115375.90 13195815.85 L 20173103.90 13195815.86 L 20173103.88 13267319.86  zM 20588351.88 13267319.93 L 20226895.88 13267319.87 L 20226895.97 12790407.87 L 20284623.97 12790407.88 L 20284623.98 12732679.88 L 20646079.98 12732679.94 L 20646079.95 12919639.94 L 20516191.95 12919639.92 L 20516191.97 12804183.92 L 20356783.97 12804183.89 L 20356783.95 12905863.89 L 20414511.95 12905863.90 L 20414511.94 12964247.90 L 20530623.94 12964247.92 L 20530623.93 13021975.92 L 20588351.93 13021975.93 L 20588351.92 13079703.93 L 20646079.92 13079703.94 L 20646079.89 13209591.94 L 20588351.89 13209591.93 L 20588351.88 13267319.93  z"/>
<path id="N" d="M 9862810.00 47057692.00 L 9875291.00 47027559.00 L 9862810.00 46997426.00 L 9832677.00 46984945.00 L 7513087.00 46984945.00 L 7513087.00 39432377.00 L 9832677.00 39432377.00 L 9862810.00 39419896.00 L 9875291.00 39389763.00 L 9862810.00 39359630.00 L 9832677.00 39347149.00 L 7470473.00 39347149.00 L 7440340.00 39359630.00 L 7427859.00 39389763.00 L 7427859.00 40908770.00 L 7331209.00 40812120.00 L 7292940.00 40796269.00 L 7093005.00 40796268.00 L 7054736.00 40812120.00 L 6954768.00 40912088.00 A 54121.84 54121.84 0 0 0 7031306.00 40988626.00 L 7115423.00 40904509.00 L 7270522.00 40904509.00 L 7338788.00 40972775.00 L 7338788.00 41027906.00 L 6954768.00 41411926.00 A 54119.43 54119.43 0 0 0 6993039.41 41504315.00 L 7392908.00 41504315.00 L 7427859.00 41489838.31 L 7427859.00 47027559.00 L 7440340.00 47057692.00 L 7470473.00 47070173.00 L 9832677.00 47070173.00 L 9862810.00 47057692.00  zM 7427859.00 41410551.69 L 7392908.00 41396075.00 L 7123695.00 41396075.00 L 7427859.00 41091911.00 L 7427859.00 41410551.69  z"/>
<path id="N" d="M 5354699.41 46020230.00 L 5554632.00 46020230.00 L 5592901.00 46004379.00 L 5692869.00 45904411.00 A 54119.43 54119.43 0 0 0 5616331.00 45827873.00 L 5532214.00 45911990.00 L 5377115.00 45911990.00 L 5308849.00 45843724.00 L 5308849.00 45788593.00 L 5377115.00 45720327.00 L 5454665.00 45720327.00 A 54118.70 54118.70 0 0 0 5454665.00 45612087.00 L 5377115.00 45612087.00 L 5308849.00 45543821.00 L 5308849.00 45488690.00 L 5377115.00 45420424.00 L 5532214.00 45420424.00 L 5616331.00 45504541.00 A 54121.84 54121.84 0 0 0 5692869.00 45428003.00 L 5592901.00 45328035.00 L 5554629.59 45312184.00 L 5354697.00 45312184.00 L 5316428.00 45328035.00 L 5216460.00 45428003.00 L 5200609.00 45466274.41 L 5200609.00 45566239.00 L 5216460.00 45604508.00 L 5278159.00 45666207.00 L 5216460.00 45727906.00 L 5200609.00 45766177.41 L 5200609.00 45866142.00 L 5216460.00 45904411.00 L 5316428.00 46004379.00 L 5354699.41 46020230.00  z"/>
<path id="N" d="M 5341681.00 44091361.00 L 5441649.00 43991393.00 L 5457500.00 43953124.00 L 5457501.00 43753189.00 L 5441649.00 43714920.00 L 5429933.56 43703204.56 L 5441648.00 43691490.00 A 54118.22 54118.22 0 1 0 5365111.00 43614953.00 L 5353396.50 43626667.50 L 5341681.00 43614952.00 L 5303412.00 43599101.00 L 4903542.00 43599100.00 L 4865273.00 43614952.00 L 4765305.00 43714920.00 L 4749454.00 43753189.00 L 4749453.00 43953124.00 L 4765305.00 43991393.00 L 4865273.00 44091361.00 L 4903542.00 44107212.00 L 5303412.00 44107213.00 L 5341681.00 44091361.00  zM 5280994.00 43998972.00 L 4925960.00 43998972.00 L 4857694.00 43930706.00 L 4857694.00 43775607.00 L 4925960.00 43707341.00 L 5272723.00 43707341.00 L 5165176.00 43814888.00 A 54119.43 54119.43 0 1 0 5241714.00 43891426.00 L 5349260.00 43783878.92 L 5349260.00 43930706.00 L 5280994.00 43998972.00  z"/>
<path id="N" d="M 5341681.00 43491555.00 L 5441649.00 43391587.00 L 5457500.00 43353318.00 L 5457501.00 43153383.00 L 5441649.00 43115114.00 L 5341681.00 43015146.00 L 5303412.00 42999295.00 L 5203445.00 42999294.00 L 5165176.00 43015146.00 L 5065208.00 43115114.00 L 5049357.00 43153383.00 L 5049357.00 43322628.54 L 4948019.03 43221290.06 L 4851980.00 43029212.00 A 54118.07 54118.07 0 0 0 4755168.00 43077618.00 L 4855135.00 43277554.00 L 4861863.98 43283390.14 L 4865273.00 43291620.00 L 5065208.00 43491555.00 L 5103479.41 43507406.00 L 5303412.00 43507407.00 L 5341681.00 43491555.00  zM 5280994.00 43399166.00 L 5157597.00 43399166.00 L 5157597.00 43175801.00 L 5225863.00 43107535.00 L 5280994.00 43107535.00 L 5349260.00 43175801.00 L 5349260.00 43330900.00 L 5280994.00 43399166.00  z"/>
<path id="N" d="M 6231564.00 41411926.00 L 6115029.32 41295391.32 L 6131597.00 41288529.00 L 6231565.00 41188561.00 L 6247416.00 41150289.59 L 6247416.00 40950357.00 L 6231565.00 40912088.00 L 6131597.00 40812120.00 L 6093325.59 40796269.00 L 5793425.00 40796269.00 L 5755156.00 40812120.00 L 5739305.00 40850389.00 L 5739305.00 41450195.00 A 54118.70 54118.70 0 0 0 5847545.00 41450195.00 L 5847545.00 41304380.00 L 5970942.16 41304380.00 L 6155027.00 41488463.00 A 54118.22 54118.22 0 0 0 6231564.00 41411926.00  zM 6070910.00 41196140.00 L 5847545.00 41196140.00 L 5847545.00 40904509.00 L 6070910.00 40904509.00 L 6139176.00 40972775.00 L 6139176.00 41127874.00 L 6070910.00 41196140.00  z"/>
<path id="N" d="M 6554311.41 46020230.00 L 6854212.00 46020230.00 L 6892481.00 46004379.00 L 6908332.00 45966110.00 L 6908332.00 45366304.00 A 54118.70 54118.70 0 0 0 6800092.00 45366304.00 L 6800092.00 45512119.00 L 6676694.84 45512119.00 L 6492610.00 45328036.00 A 54118.22 54118.22 0 0 0 6416073.00 45404573.00 L 6532607.68 45521107.68 L 6516040.00 45527970.00 L 6416072.00 45627938.00 L 6400221.00 45666209.41 L 6400221.00 45866142.00 L 6416072.00 45904411.00 L 6516040.00 46004379.00 L 6554311.41 46020230.00  zM 6800092.00 45911990.00 L 6576727.00 45911990.00 L 6508461.00 45843724.00 L 6508461.00 45688625.00 L 6576727.00 45620359.00 L 6800092.00 45620359.00 L 6800092.00 45911990.00  z"/>
<path id="N" d="M 5992772.00 46004379.00 L 6292675.00 45704476.00 A 54119.43 54119.43 0 0 0 6254403.59 45612087.00 L 6008623.00 45612087.00 L 6008623.00 45366304.00 A 54118.70 54118.70 0 0 0 5900383.00 45366304.00 L 5900383.00 45612087.00 L 5854535.00 45612087.00 A 54118.70 54118.70 0 0 0 5854535.00 45720327.00 L 5900383.00 45720327.00 L 5900382.00 45966110.00 A 54122.11 54122.11 0 0 0 5992772.00 46004379.00  zM 6008623.00 45835452.00 L 6008623.00 45720327.00 L 6123748.00 45720327.00 L 6008623.00 45835452.00  z"/>
<path id="N" d="M 6747254.00 41450195.00 L 6747254.00 41204412.00 L 6793102.00 41204412.00 A 54118.70 54118.70 0 0 0 6793102.00 41096172.00 L 6747254.00 41096172.00 L 6747255.00 40850389.00 A 54122.11 54122.11 0 0 0 6654865.00 40812120.00 L 6354962.00 41112023.00 A 54119.43 54119.43 0 0 0 6393233.41 41204412.00 L 6639014.00 41204412.00 L 6639014.00 41450195.00 A 54118.70 54118.70 0 0 0 6747254.00 41450195.00  zM 6639014.00 41096172.00 L 6523889.00 41096172.00 L 6639014.00 40981047.00 L 6639014.00 41096172.00  z"/>
<path id="N" d="M 11699994.00 13749992.29 m -299421.33 0 a 299421.33 299421.33 0 1 1 598842.67 0a 299421.33 299421.33 0 1 1 -598842.67 0"/>
<path id="N" d="M 13425802.00 47057692.00 L 13438283.00 47027559.00 L 13438283.00 39389763.00 L 13425802.00 39359630.00 L 13395669.00 39347149.00 L 11033465.00 39347149.00 L 11003332.00 39359630.00 L 10990851.00 39389763.00 L 11003332.00 39419896.00 L 11033465.00 39432377.00 L 13353055.00 39432377.00 L 13353055.00 46984945.00 L 11033465.00 46984945.00 L 11003332.00 46997426.00 L 10990851.00 47027559.00 L 11003332.00 47057692.00 L 11033465.00 47070173.00 L 13395669.00 47070173.00 L 13425802.00 47057692.00  z"/>
<path id="N" d="M 20881414.34 44286247.55 L 21629785.24 44286247.55 L 21629785.24 44036790.59 L 21879242.21 44036790.59 L 21879242.21 43787333.62 L 22378156.14 43787333.62 L 22378156.14 43537876.66 L 21629785.24 43537876.66 L 21629785.24 44036790.59 L 21130871.31 44036790.59 L 21130871.31 43787333.62 L 21380328.28 43787333.62 L 21380328.28 43537876.66 L 21130871.31 43537876.66 L 21130871.31 43787333.62 L 20631957.38 43787333.62 L 20631957.38 44785161.48 L 20881414.34 44785161.48 L 20881414.34 44286247.55  z"/>
<path id="N" d="M 12853467.00 36436646.00 L 12203861.00 36436646.00 A 80284.08 80284.08 0 0 0 12203861.00 36597212.00 L 12853467.00 36597212.00 A 80279.37 80279.37 0 0 0 12853467.00 36436646.00  z"/>
<path id="N" d="M 11906910.00 36345209.00 L 11257304.00 36345209.00 A 80284.08 80284.08 0 0 0 11257304.00 36505775.00 L 11906910.00 36505775.00 A 80279.37 80279.37 0 0 0 11906910.00 36345209.00  z"/>
<path id="N" d="M 20631957.38 45533532.38 L 20881414.34 45533532.38 L 20881414.34 45284075.41 L 21380328.28 45284075.41 L 21380328.28 45034618.45 L 21130871.31 45034618.45 L 21130871.31 44785161.48 L 21629785.24 44785161.48 L 21629785.24 44535704.52 L 21130871.31 44535704.52 L 21130871.31 44785161.48 L 20881414.34 44785161.48 L 20881414.34 45034618.45 L 20631957.38 45034618.45 L 20631957.38 45533532.38 L 20382500.41 45533532.38 L 20382500.41 45782989.34 L 20631957.38 45782989.34 L 20631957.38 45533532.38  z"/>
<path id="N" d="M 17088581.95 29471259.95 m -101959.21 0 a 101959.21 101959.21 0 1 1 203918.42 0a 101959.21 101959.21 0 1 1 -203918.42 0"/>
<path id="N" d="M 17753152.92 14800002.92 m -80279.37 0 a 80279.37 80279.37 0 1 1 160558.73 0a 80279.37 80279.37 0 1 1 -160558.73 0"/>
<path id="N" d="M 13838581.47 26829032.47 m -100354.75 0 a 100354.75 100354.75 0 1 1 200709.51 0a 100354.75 100354.75 0 1 1 -200709.51 0"/>
<path id="N" d="M 14324408.47 34421946.47 m -100354.75 0 a 100354.75 100354.75 0 1 1 200709.51 0a 100354.75 100354.75 0 1 1 -200709.51 0"/>
<path id="N" d="M 20614171.47 6830707.47 m -100354.75 0 a 100354.75 100354.75 0 1 1 200709.51 0a 100354.75 100354.75 0 1 1 -200709.51 0"/>
<path id="N" d="M 13218503.47 24104328.47 m -100354.75 0 a 100354.75 100354.75 0 1 1 200709.51 0a 100354.75 100354.75 0 1 1 -200709.51 0"/>
<path id="N" d="M 15364778.00 30728952.00 L 15377259.00 30698819.00 L 15377259.00 30521653.00 L 15364778.00 30491520.00 L 15334645.00 30479039.00 L 14192913.00 30479039.00 L 14162780.00 30491520.00 L 14150299.00 30521653.00 L 14150299.00 30698819.00 L 14162780.00 30728952.00 L 14192913.00 30741433.00 L 15334645.00 30741433.00 L 15364778.00 30728952.00  zM 15292031.00 30656205.00 L 14235527.00 30656205.00 L 14235527.00 30564267.00 L 15292031.00 30564267.00 L 15292031.00 30656205.00  z"/>
<path id="N" d="M 15305725.00 24469109.00 L 15318206.00 24438976.00 L 15318206.00 22017716.00 L 15305725.00 21987583.00 L 15275592.00 21975102.00 L 13464568.00 21975102.00 L 13434435.00 21987583.00 L 13421954.00 22017716.00 L 13421954.00 24438976.00 L 13434435.00 24469109.00 L 13464568.00 24481590.00 L 15275592.00 24481590.00 L 15305725.00 24469109.00  zM 15232978.00 24396362.00 L 13507182.00 24396362.00 L 13507182.00 22060330.00 L 15232978.00 22060330.00 L 15232978.00 24396362.00  z"/>
<path id="N" d="M 16017929.00 36511136.00 L 16030410.00 36481003.00 L 16030410.00 34512499.00 L 16017929.00 34482366.00 L 15987796.00 34469885.00 L 14727953.00 34469885.00 L 14697820.00 34482366.00 L 14685339.00 34512499.00 L 14685339.00 36481003.00 L 14697820.00 36511136.00 L 14727953.00 36523617.00 L 15987796.00 36523617.00 L 16017929.00 36511136.00  zM 15945182.00 36438389.00 L 14770567.00 36438389.00 L 14770567.00 34555113.00 L 15945182.00 34555113.00 L 15945182.00 36438389.00  z"/>
<path id="N" d="M 15121645.06 34906191.06 m -240860.29 0 a 240860.29 240860.29 0 1 1 481720.58 0a 240860.29 240860.29 0 1 1 -481720.58 0"/>
<path id="N" d="M 6949380.00 43458226.00 L 6961861.00 43428093.00 L 6961861.00 43113132.00 L 6949380.00 43082999.00 L 6919247.00 43070518.00 L 6633814.00 43070518.00 L 6603681.00 43082999.00 L 6591200.00 43113132.00 L 6603681.00 43143265.00 L 6633814.00 43155746.00 L 6876633.00 43155746.00 L 6876633.00 43428093.00 L 6889114.00 43458226.00 L 6919247.00 43470707.00 L 6949380.00 43458226.00  z"/>
<path id="N" d="M 12805724.00 27685939.00 L 12818205.00 27655806.00 L 12805724.00 27625673.00 L 12775591.00 27613192.00 L 12522929.00 27613192.00 L 12522929.00 27143995.00 L 12510448.00 27113862.00 L 12480315.00 27101381.00 L 12450182.00 27113862.00 L 12437701.00 27143995.00 L 12437701.00 27655806.00 L 12450182.00 27685939.00 L 12480315.00 27698420.00 L 12775591.00 27698420.00 L 12805724.00 27685939.00  z"/>
<path id="N" d="M 16211235.00 9163992.00 L 16223716.00 9133859.00 L 16223716.00 7129228.00 L 21377952.00 7129228.00 L 21408085.00 7116747.00 L 21420566.00 7086614.00 L 21408085.00 7056481.00 L 21377952.00 7044000.00 L 16181102.00 7044000.00 L 16150969.00 7056481.00 L 16138488.00 7086614.00 L 16138488.00 9133859.00 L 16150969.00 9163992.00 L 16181102.00 9176473.00 L 16211235.00 9163992.00  z"/>
<path id="N" d="M 22195487.00 12628559.00 L 22207968.00 12598426.00 L 22207968.00 7677166.00 L 22195487.00 7647033.00 L 22165354.00 7634552.00 L 22135221.00 7647033.00 L 22122740.00 7677166.00 L 22122740.00 12555812.00 L 22047244.00 12555812.00 L 22017111.00 12568293.00 L 22004630.00 12598426.00 L 22017111.00 12628559.00 L 22047244.00 12641040.00 L 22165354.00 12641040.00 L 22195487.00 12628559.00  z"/>
<path id="N" d="M 13730920.00 27685939.00 L 13743401.00 27655806.00 L 13743401.00 27143995.00 L 13730920.00 27113862.00 L 13700787.00 27101381.00 L 13670654.00 27113862.00 L 13658173.00 27143995.00 L 13658173.00 27613192.00 L 13405512.00 27613192.00 L 13375379.00 27625673.00 L 13362898.00 27655806.00 L 13375379.00 27685939.00 L 13405512.00 27698420.00 L 13700787.00 27698420.00 L 13730920.00 27685939.00  z"/>
<path id="N" d="M 5807648.00 43458226.00 L 5820129.00 43428093.00 L 5820129.00 43155746.00 L 6062948.00 43155746.00 L 6093081.00 43143265.00 L 6105562.00 43113132.00 L 6093081.00 43082999.00 L 6062948.00 43070518.00 L 5777515.00 43070518.00 L 5747382.00 43082999.00 L 5734901.00 43113132.00 L 5734901.00 43428093.00 L 5747382.00 43458226.00 L 5777515.00 43470707.00 L 5807648.00 43458226.00  z"/>
<path id="N" d="M 10630133.00 19500999.00 L 10642614.00 19470866.00 L 10630133.00 19440733.00 L 10600000.00 19428252.00 L 10327653.00 19428252.00 L 10327653.00 19185433.00 L 10315172.00 19155300.00 L 10285039.00 19142819.00 L 10254906.00 19155300.00 L 10242425.00 19185433.00 L 10242425.00 19470866.00 L 10254906.00 19500999.00 L 10285039.00 19513480.00 L 10600000.00 19513480.00 L 10630133.00 19500999.00  z"/>
<path id="N" d="M 10315172.00 18644700.00 L 10327653.00 18614567.00 L 10327653.00 18371748.00 L 10600000.00 18371748.00 L 10630133.00 18359267.00 L 10642614.00 18329134.00 L 10630133.00 18299001.00 L 10600000.00 18286520.00 L 10285039.00 18286520.00 L 10254906.00 18299001.00 L 10242425.00 18329134.00 L 10242425.00 18614567.00 L 10254906.00 18644700.00 L 10285039.00 18657181.00 L 10315172.00 18644700.00  z"/>
<path id="N" d="M 5263188.00 21321867.00 L 5311236.00 21321867.00 L 5311236.00 21092547.00 L 5263188.00 21092547.00 L 5263188.00 21044499.00 L 5226606.00 21044499.00 L 5226606.00 21092547.00 L 5178558.00 21092547.00 L 5178558.00 21321867.00 L 5226606.00 21321867.00 L 5226606.00 21370461.00 L 5263188.00 21370461.00 L 5263188.00 21321867.00  z"/>
<path id="N" d="M 5263188.00 20321867.00 L 5311236.00 20321867.00 L 5311236.00 20092547.00 L 5263188.00 20092547.00 L 5263188.00 20044499.00 L 5226606.00 20044499.00 L 5226606.00 20092547.00 L 5178558.00 20092547.00 L 5178558.00 20321867.00 L 5226606.00 20321867.00 L 5226606.00 20370461.00 L 5263188.00 20370461.00 L 5263188.00 20321867.00  z"/>
<path id="N" d="M 23340706.00 18321867.00 L 23388754.00 18321867.00 L 23388754.00 18092547.00 L 23340706.00 18092547.00 L 23340706.00 18044499.00 L 23304124.00 18044499.00 L 23304124.00 18092547.00 L 23256076.00 18092547.00 L 23256076.00 18321867.00 L 23304124.00 18321867.00 L 23304124.00 18370461.00 L 23340706.00 18370461.00 L 23340706.00 18321867.00  z"/>
<path id="N" d="M 22577398.00 19321867.00 L 22625446.00 19321867.00 L 22625446.00 19092547.00 L 22577398.00 19092547.00 L 22577398.00 19044499.00 L 22540816.00 19044499.00 L 22540816.00 19092547.00 L 22492768.00 19092547.00 L 22492768.00 19321867.00 L 22540816.00 19321867.00 L 22540816.00 19370461.00 L 22577398.00 19370461.00 L 22577398.00 19321867.00  z"/>
<path id="N" d="M 5263188.00 19321867.00 L 5311236.00 19321867.00 L 5311236.00 19092547.00 L 5263188.00 19092547.00 L 5263188.00 19044499.00 L 5226606.00 19044499.00 L 5226606.00 19092547.00 L 5178558.00 19092547.00 L 5178558.00 19321867.00 L 5226606.00 19321867.00 L 5226606.00 19370461.00 L 5263188.00 19370461.00 L 5263188.00 19321867.00  z"/>
<path id="N" d="M 8326023.91 14837431.60 L 8383751.91 14837431.61 L 8383751.96 14561911.61 L 8326023.96 14561911.60 L 8326023.97 14504183.60 L 8282071.97 14504183.59 L 8282071.96 14561911.59 L 8224343.96 14561911.58 L 8224343.91 14837431.58 L 8282071.91 14837431.59 L 8282071.90 14895815.59 L 8326023.90 14895815.60 L 8326023.91 14837431.60  z"/>
<path id="N" d="M 10482748.98 38868934.99 L 10551180.98 38868935.00 L 10551180.98 38840179.00 L 10482748.98 38840178.99 L 10482748.99 38771018.99 L 10453628.99 38771018.98 L 10453628.98 38840178.98 L 10385196.98 38840178.97 L 10385196.98 38868934.97 L 10453628.98 38868934.98 L 10453628.96 38937366.98 L 10482748.96 38937366.99 L 10482748.98 38868934.99  z"/>
<path id="N" d="M 20516191.91 13093479.92 L 20458463.91 13093479.91 L 20458463.92 13035751.91 L 20342351.92 13035751.89 L 20342351.94 12978023.89 L 20284623.94 12978023.88 L 20284623.95 12919639.88 L 20226895.95 12919639.87 L 20226895.92 13079703.87 L 20356783.92 13079703.89 L 20356783.90 13195815.89 L 20516191.90 13195815.92 L 20516191.91 13093479.92  z"/>
<path id="N" d="M 16211235.00 10919897.00 L 16223716.00 10889764.00 L 16223716.00 9960630.00 L 16211235.00 9930497.00 L 16181102.00 9918016.00 L 16150969.00 9930497.00 L 16138488.00 9960630.00 L 16138488.00 10889764.00 L 16150969.00 10919897.00 L 16181102.00 10932378.00 L 16211235.00 10919897.00  z"/>
<path id="N" d="M 12164035.00 15226239.00 L 12176516.00 15196106.00 L 12164035.00 15165973.00 L 12133902.00 15153492.00 L 11166098.00 15153492.00 L 11135965.00 15165973.00 L 11123484.00 15196106.00 L 11135965.00 15226239.00 L 11166098.00 15238720.00 L 12133902.00 15238720.00 L 12164035.00 15226239.00  z"/>
<path id="N" d="M 22627613.10 44036790.59 L 22877070.07 44036790.59 L 22877070.07 43787333.62 L 22627613.10 43787333.62 L 22627613.10 44036790.59 L 21879242.21 44036790.59 L 21879242.21 44286247.55 L 22378156.14 44286247.55 L 22378156.14 44785161.48 L 22627613.10 44785161.48 L 22627613.10 44036790.59  z"/>
<path id="N" d="M 17717141.00 26563891.00 L 17729622.00 26533758.00 L 17729622.00 24919585.00 L 17717141.00 24889452.00 L 17687008.00 24876971.00 L 17656875.00 24889452.00 L 17644394.00 24919585.00 L 17644394.00 26533758.00 L 17656875.00 26563891.00 L 17687008.00 26576372.00 L 17717141.00 26563891.00  z"/>
<path id="N" d="M 13049606.00 7678163.00 L 6750394.00 7678163.00 A 54118.70 54118.70 0 1 0 6750394.00 7786403.00 L 13049606.00 7786403.00 A 54121.84 54121.84 0 0 0 13049606.00 7678163.00  z"/>
<path id="N" d="M 22378156.14 45034618.45 L 22128699.17 45034618.45 L 22128699.17 44535704.52 L 21879242.21 44535704.52 L 21879242.21 45284075.41 L 22128699.17 45284075.41 L 22128699.17 45533532.38 L 21879242.21 45533532.38 L 21879242.21 45782989.34 L 22378156.14 45782989.34 L 22378156.14 45034618.45  z"/>
<path id="N" d="M 16758504.00 13029764.00 L 16766430.00 13010630.00 L 16758504.00 12991496.00 L 16739370.00 12983570.00 L 14660630.00 12983570.00 L 14641496.00 12991496.00 L 14633570.00 13010630.00 L 14641496.00 13029764.00 L 14660630.00 13037690.00 L 16739370.00 13037690.00 L 16758504.00 13029764.00  z"/>
<path id="N" d="M 12164035.00 14534027.00 L 12176516.00 14503894.00 L 12164035.00 14473761.00 L 12133902.00 14461280.00 L 11166098.00 14461280.00 L 11135965.00 14473761.00 L 11123484.00 14503894.00 L 11135965.00 14534027.00 L 11166098.00 14546508.00 L 12133902.00 14546508.00 L 12164035.00 14534027.00  z"/>
<path id="N" d="M 16595093.00 26563891.00 L 16607574.00 26533758.00 L 16607574.00 25155806.00 L 16595093.00 25125673.00 L 16564960.00 25113192.00 L 16534827.00 25125673.00 L 16522346.00 25155806.00 L 16522346.00 26533758.00 L 16534827.00 26563891.00 L 16564960.00 26576372.00 L 16595093.00 26563891.00  z"/>
<path id="N" d="M 16758504.00 15108504.00 L 16766430.00 15089370.00 L 16758504.00 15070236.00 L 16739370.00 15062310.00 L 14660630.00 15062310.00 L 14641496.00 15070236.00 L 14633570.00 15089370.00 L 14641496.00 15108504.00 L 14660630.00 15116430.00 L 16739370.00 15116430.00 L 16758504.00 15108504.00  z"/>
<path id="N" d="M 14203361.00 31280133.00 L 14215842.00 31250000.00 L 14215842.00 30836614.00 L 14203361.00 30806481.00 L 14173228.00 30794000.00 L 14143095.00 30806481.00 L 14130614.00 30836614.00 L 14130614.00 31250000.00 L 14143095.00 31280133.00 L 14173228.00 31292614.00 L 14203361.00 31280133.00  z"/>
<path id="N" d="M 22877070.07 46032446.31 L 21130871.31 46032446.31 L 21130871.31 47778645.07 L 22877070.07 47778645.07 L 22877070.07 46032446.31  zM 22615140.26 47516715.26 L 21392801.12 47516715.26 L 21392801.12 46294376.12 L 22615140.26 46294376.12 L 22615140.26 47516715.26  z"/>
<path id="N" d="M 23758396.00 20273819.00 L 23806444.00 20273819.00 L 23806444.00 20189189.00 L 23673766.00 20189189.00 L 23673766.00 20273819.00 L 23721814.00 20273819.00 L 23721814.00 20321867.00 L 23758396.00 20321867.00 L 23758396.00 20273819.00  z"/>
<path id="N" d="M 18386844.69 46032446.31 L 16640645.93 46032446.31 L 16640645.93 47778645.07 L 18386844.69 47778645.07 L 18386844.69 46032446.31  zM 18124914.88 47516715.26 L 16902575.74 47516715.26 L 16902575.74 46294376.12 L 18124914.88 46294376.12 L 18124914.88 47516715.26  z"/>
<path id="N" d="M 9271975.97 14504183.76 L 9228023.97 14504183.76 L 9228023.96 14561911.76 L 9170295.96 14561911.75 L 9170295.91 14837431.75 L 9228023.91 14837431.76 L 9228023.90 14895815.76 L 9271975.90 14895815.76 L 9271975.97 14504183.76  z"/>
<path id="N" d="M 19985487.97 12804183.82 L 19941535.97 12804183.82 L 19941535.96 12861911.82 L 19883807.96 12861911.81 L 19883807.91 13137431.81 L 19941535.91 13137431.82 L 19941535.90 13195815.82 L 19985487.90 13195815.82 L 19985487.97 12804183.82  z"/>
<path id="N" d="M 19883586.48 43537876.66 L 19634129.52 43537876.66 L 19634129.52 43038962.72 L 19135215.59 43038962.72 L 19135215.59 43288419.69 L 19384672.55 43288419.69 L 19384672.55 43787333.62 L 19883586.48 43787333.62 L 19883586.48 43537876.66  z"/>
<path id="N" d="M 23167897.00 22044499.00 L 23131315.00 22044499.00 L 23131315.00 22092547.00 L 23083267.00 22092547.00 L 23083267.00 22321867.00 L 23131315.00 22321867.00 L 23131315.00 22370461.00 L 23167897.00 22370461.00 L 23167897.00 22044499.00  z"/>
<path id="N" d="M 22774231.00 16044499.00 L 22737649.00 16044499.00 L 22737649.00 16092547.00 L 22689601.00 16092547.00 L 22689601.00 16321867.00 L 22737649.00 16321867.00 L 22737649.00 16370461.00 L 22774231.00 16370461.00 L 22774231.00 16044499.00  z"/>
<path id="N" d="M 4821474.00 23044499.00 L 4784892.00 23044499.00 L 4784892.00 23092547.00 L 4736844.00 23092547.00 L 4736844.00 23321867.00 L 4784892.00 23321867.00 L 4784892.00 23370461.00 L 4821474.00 23370461.00 L 4821474.00 23044499.00  z"/>
<path id="N" d="M 23364730.00 20044499.00 L 23328148.00 20044499.00 L 23328148.00 20092547.00 L 23280100.00 20092547.00 L 23280100.00 20321867.00 L 23328148.00 20321867.00 L 23328148.00 20370461.00 L 23364730.00 20370461.00 L 23364730.00 20044499.00  z"/>
<path id="N" d="M 20881414.34 45782989.34 L 21629785.24 45782989.34 L 21629785.24 45533532.38 L 20881414.34 45533532.38 L 20881414.34 45782989.34 L 20631957.38 45782989.34 L 20631957.38 46281903.28 L 20881414.34 46281903.28 L 20881414.34 45782989.34  z"/>
<path id="N" d="M 17349011.00 20440961.00 L 17361492.00 20410828.00 L 17349011.00 20380695.00 L 17318878.00 20368214.00 L 17288745.00 20380695.00 L 17276264.00 20410828.00 L 17288745.00 20440961.00 L 17318878.00 20453442.00 L 17349011.00 20440961.00  z"/>
<path id="N" d="M 15935644.00 29291944.00 L 15948125.00 29261811.00 L 15935644.00 29231678.00 L 15905511.00 29219197.00 L 15875378.00 29231678.00 L 15862897.00 29261811.00 L 15875378.00 29291944.00 L 15905511.00 29304425.00 L 15935644.00 29291944.00  z"/>
<path id="N" d="M 8778117.00 27969883.00 L 8826165.00 27969883.00 L 8826165.00 27885253.00 L 8693487.00 27885253.00 L 8693487.00 27969883.00 L 8741535.00 27969883.00 L 8741535.00 28017931.00 L 8778117.00 28017931.00 L 8778117.00 27969883.00  z"/>
<path id="N" d="M 9744951.92 14779703.85 L 9802679.92 14779703.86 L 9802679.94 14678023.86 L 9643271.94 14678023.83 L 9643271.92 14779703.83 L 9700999.92 14779703.84 L 9700999.91 14837431.84 L 9744951.91 14837431.85 L 9744951.92 14779703.85  z"/>
<path id="N" d="M 22774231.00 22273819.00 L 22822279.00 22273819.00 L 22822279.00 22189189.00 L 22689601.00 22189189.00 L 22689601.00 22273819.00 L 22737649.00 22273819.00 L 22737649.00 22321867.00 L 22774231.00 22321867.00 L 22774231.00 22273819.00  z"/>
<path id="N" d="M 8778117.00 26591930.00 L 8826165.00 26591930.00 L 8826165.00 26507300.00 L 8693487.00 26507300.00 L 8693487.00 26591930.00 L 8741535.00 26591930.00 L 8741535.00 26639978.00 L 8778117.00 26639978.00 L 8778117.00 26591930.00  z"/>
<path id="N" d="M 22877070.07 41542220.93 L 21130871.31 41542220.93 L 21130871.31 43288419.69 L 22877070.07 43288419.69 L 22877070.07 41542220.93  zM 22615140.26 43026489.88 L 21392801.12 43026489.88 L 21392801.12 41804150.74 L 22615140.26 41804150.74 L 22615140.26 43026489.88  z"/>
<path id="N" d="M 20382500.41 47279731.14 L 20133043.45 47279731.14 L 20133043.45 47529188.10 L 19634129.52 47529188.10 L 19634129.52 47778645.07 L 20382500.41 47778645.07 L 20382500.41 47279731.14  z"/>
<path id="N" d="M 17139559.86 45284075.41 L 16890102.90 45284075.41 L 16890102.90 45533532.38 L 16640645.93 45533532.38 L 16640645.93 45782989.34 L 17139559.86 45782989.34 L 17139559.86 45284075.41  z"/>
<path id="N" d="M 20881414.34 46780817.21 L 20631957.38 46780817.21 L 20631957.38 46531360.24 L 20382500.41 46531360.24 L 20382500.41 47030274.17 L 20881414.34 47030274.17 L 20881414.34 46780817.21  z"/>
<path id="N" d="M 19869375.89 13209591.80 L 19811647.89 13209591.79 L 19811647.90 13151207.79 L 19753919.90 13151207.78 L 19753919.88 13267319.78 L 19869375.88 13267319.80 L 19869375.89 13209591.80  z"/>
<path id="N" d="M 8513639.98 14432679.63 L 8398183.98 14432679.61 L 8398183.97 14490407.61 L 8455911.97 14490407.62 L 8455911.96 14548135.62 L 8513639.96 14548135.63 L 8513639.98 14432679.63  z"/>
<path id="N" d="M 10217927.98 14432679.93 L 10116247.98 14432679.91 L 10116247.95 14605863.91 L 10173975.95 14605863.92 L 10173975.94 14664247.92 L 10217927.94 14664247.93 L 10217927.98 14432679.93  z"/>
<path id="N" d="M 5411973.00 17237237.00 L 5327343.00 17237237.00 L 5327343.00 17370461.00 L 5411973.00 17370461.00 L 5411973.00 17237237.00  z"/>
<path id="N" d="M 17887930.76 46531360.24 L 17139559.86 46531360.24 L 17139559.86 47279731.14 L 17887930.76 47279731.14 L 17887930.76 46531360.24  z"/>
<path id="N" d="M 22378156.14 42041134.86 L 21629785.24 42041134.86 L 21629785.24 42789505.76 L 22378156.14 42789505.76 L 22378156.14 42041134.86  z"/>
<path id="N" d="M 23476933.00 16033033.00 L 23464921.00 16033033.00 L 23464921.00 16044499.00 L 23476933.00 16044499.00 L 23476933.00 16033033.00  z"/>
<path id="N" d="M 5524176.00 23033033.00 L 5512164.00 23033033.00 L 5512164.00 23044499.00 L 5524176.00 23044499.00 L 5524176.00 23033033.00  z"/>
<path id="N" d="M 9171783.00 29118516.00 L 9087153.00 29118516.00 L 9087153.00 29251740.00 L 9171783.00 29251740.00 L 9171783.00 29118516.00  z"/>
<path id="N" d="M 9171783.00 27933301.00 L 9087153.00 27933301.00 L 9087153.00 28066525.00 L 9171783.00 28066525.00 L 9171783.00 27933301.00  z"/>
<path id="N" d="M 20646079.98 12732679.94 L 20588351.98 12732679.93 L 20588351.97 12790407.93 L 20646079.97 12790407.94 L 20646079.98 12732679.94  z"/>
<path id="N" d="M 20195422.00 28031726.00 L 20110792.00 28031726.00 L 20110792.00 28164950.00 L 20195422.00 28164950.00 L 20195422.00 28031726.00  z"/>
<path id="N" d="M 22378156.14 46531360.24 L 21629785.24 46531360.24 L 21629785.24 47279731.14 L 22378156.14 47279731.14 L 22378156.14 46531360.24  z"/>
<path id="N" d="M 9171783.00 30496468.00 L 9087153.00 30496468.00 L 9087153.00 30629692.00 L 9171783.00 30629692.00 L 9171783.00 30496468.00  z"/>
<path id="N" d="M 20284623.89 13209591.88 L 20226895.89 13209591.87 L 20226895.88 13267319.87 L 20284623.88 13267319.88 L 20284623.89 13209591.88  z"/>
<path id="N" d="M 9171783.00 27740563.00 L 9087153.00 27740563.00 L 9087153.00 27873787.00 L 9171783.00 27873787.00 L 9171783.00 27740563.00  z"/>
<path id="N" d="M 8871159.97 14504183.69 L 8813431.97 14504183.68 L 8813431.90 14895815.68 L 8871159.90 14895815.69 L 8871159.97 14504183.69  z"/>
<path id="N" d="M 17638473.79 45533532.38 L 17389016.83 45533532.38 L 17389016.83 45782989.34 L 17638473.79 45782989.34 L 17638473.79 45533532.38  z"/>
<path id="N" d="M 10405543.97 14504183.96 L 10347815.97 14504183.95 L 10347815.90 14895815.95 L 10405543.90 14895815.96 L 10405543.97 14504183.96  z"/>
<path id="N" d="M 20881414.34 47279731.14 L 20631957.38 47279731.14 L 20631957.38 47778645.07 L 20881414.34 47778645.07 L 20881414.34 47279731.14  z"/>
<path id="N" d="M 20195422.00 26653773.00 L 20110792.00 26653773.00 L 20110792.00 26786997.00 L 20195422.00 26786997.00 L 20195422.00 26653773.00  z"/>
<path id="N" d="M 22877070.07 45533532.38 L 22627613.10 45533532.38 L 22627613.10 45782989.34 L 22877070.07 45782989.34 L 22877070.07 45533532.38  z"/>
<path id="N" d="M 18885758.62 47529188.10 L 18636301.66 47529188.10 L 18636301.66 47778645.07 L 18885758.62 47778645.07 L 18885758.62 47529188.10  z"/>
<path id="N" d="M 10217927.92 14735751.93 L 10116247.92 14735751.91 L 10116247.90 14895815.91 L 10217927.90 14895815.93 L 10217927.92 14735751.93  z"/>
<path id="N" d="M 20133043.45 47030274.17 L 19883586.48 47030274.17 L 19883586.48 47279731.14 L 20133043.45 47279731.14 L 20133043.45 47030274.17  z"/>
<path id="N" d="M 18386844.69 43038962.72 L 18137387.72 43038962.72 L 18137387.72 43288419.69 L 18386844.69 43288419.69 L 18386844.69 43038962.72  z"/>
<path id="N" d="M 22877070.07 44785161.48 L 22627613.10 44785161.48 L 22627613.10 45034618.45 L 22877070.07 45034618.45 L 22877070.07 44785161.48  z"/>
<path id="N" d="M 20195422.00 29409679.00 L 20110792.00 29409679.00 L 20110792.00 29542903.00 L 20195422.00 29542903.00 L 20195422.00 29409679.00  z"/>
<path id="N" d="M 20195422.00 30787631.00 L 20110792.00 30787631.00 L 20110792.00 30920855.00 L 20195422.00 30920855.00 L 20195422.00 30787631.00  z"/>
<path id="N" d="M 20392255.00 32165584.00 L 20307625.00 32165584.00 L 20307625.00 32298808.00 L 20392255.00 32298808.00 L 20392255.00 32165584.00  z"/>
<path id="N" d="M 8778117.00 30689206.00 L 8693487.00 30689206.00 L 8693487.00 30822430.00 L 8778117.00 30822430.00 L 8778117.00 30689206.00  z"/>
<path id="N" d="M 20392255.00 33543537.00 L 20307625.00 33543537.00 L 20307625.00 33676761.00 L 20392255.00 33676761.00 L 20392255.00 33543537.00  z"/>
<path id="N" d="M 9171783.00 30689206.00 L 9087153.00 30689206.00 L 9087153.00 30822430.00 L 9171783.00 30822430.00 L 9171783.00 30689206.00  z"/>
<path id="N" d="M 9171783.00 26362610.00 L 9087153.00 26362610.00 L 9087153.00 26495834.00 L 9171783.00 26495834.00 L 9171783.00 26362610.00  z"/>
<path id="N" d="M 9459591.97 14504183.80 L 9401863.97 14504183.79 L 9401863.90 14895815.79 L 9459591.90 14895815.80 L 9459591.97 14504183.80  z"/>
<path id="N" d="M 9171783.00 26555348.00 L 9087153.00 26555348.00 L 9087153.00 26688572.00 L 9171783.00 26688572.00 L 9171783.00 26555348.00  z"/>
<path id="N" d="M 8778117.00 29311254.00 L 8693487.00 29311254.00 L 8693487.00 29444478.00 L 8778117.00 29444478.00 L 8778117.00 29311254.00  z"/>
<path id="N" d="M 9171783.00 29311254.00 L 9087153.00 29311254.00 L 9087153.00 29444478.00 L 9171783.00 29444478.00 L 9171783.00 29311254.00  z"/>
</g>
</svg>
