**ABCDEFGHIJKLMNOPQRSTUVWXYZabcdefghijklmnopqrstuvwxyz**************************
**PARASOLID !"#$%&'()*+,-./:;<=>?@[\]^_`{|}~0123456789**************************
**PART1;
MC=AMD64;
MC_MODEL=AMD64 Family 23 Model 1 Stepping 2, AuthenticAMD;
MC_ID=unknown;
OS=Windows_NT;
OS_RELEASE=unknown;
FRU=CAD Exchanger 3.13.0 (cadexchanger.com);
APPL=unknown;
SITE=unknown;
USER=unknown;
FORMAT=text;
GUISE=transmit;
KEY=KXG1203C_CMP-059-000000-1;
FILE=KXG1203C_CMP-059-000000-1.x_t;
DATE=Mon Mar 20 19:50:09 2023;
**PART2;
SCH=SCH_1200000_12103;
USFLD_SIZE=0;
**PART3;
**END_OF_HEADER*****************************************************************
T51 : TRANSMIT FILE created by modeller version 120000017 SCH_1200000_121030 74
 5 1 5 0 2 63 122 181 240 12 2 40 0 3 0 0 0 0 1000.0 1.0e-08 0 0 0 1 0 1 1 12 14
 20 18 9 19 17 70 3 0 2 0 0 4 1 20 0 4 4 1 T74 20 4 1 0 5 0 0 0 0 0 0 0 0 0 0 0
 0 0 0 0 0 0 0 0 81 1 5 7 6 13 0 0 42 0 8 80 1 6 0 7 8001 0 0 0 0 3 5 0 0 0 FFFF
TFTFFFFFFF2 79 15 7 SDL/TYSA_COLOUR83 3 8 0.5 0.5 0.5 19 9 1 0 2 11 0 10 V13 10
 2 0 2 0 0 0 0 9 13 19 11 3 0 2 0 9 12 S13 12 4 0 2 0 13 0 0 11 0 14 13 5 5 1.0e
-08 40 0 15 12 14 +0 0 40 0 10 51 14 6 0 13 41 0 0 +3.367778697655e-19 0.0 2.0e-
05 0.0 0.0 -1.0 0.0055 1.0 0.0 0.0 15 15 8 0 16 13 0 17 16 0 15 24 36 17 21 19 0
 29 +18 17 9 0 16 0 22 18 ?2 29 18 10 0 17 23 0 -1.0103336144539998e-18 -0.0055
 2.0e-05 16 19 11 0 ?16 0 27 20 0 0 2 31 20 12 0 19 28 0 0 +3.367778697655e-19 0
.0 2.0e-05 0.0 0.0 1.0 1.0 0.0 0.0 0.0055 17 21 0 57 48 48 22 16 19 0 36 -18 22
 13 0 21 17 25 23 ?2 29 23 14 0 22 26 18 3.9971095090970002e-19 0.0055 2.0e-05 1
7 24 0 15 30 16 25 29 27 0 35 +18 25 15 0 24 22 31 26 ?2 29 26 16 0 25 32 23 -1.
0103336144539998e-18 -0.0055 0.00949 16 27 17 0 ?24 19 33 28 0 0 2 30 28 18 0 27
 34 20 0 +-1.0103336144539998e-18 -0.0055 2.0e-05 0.0 0.0 1.0 17 29 0 44 45 49 1
7 24 27 0 48 -17 30 0 15 36 24 31 35 33 0 39 -18 31 19 0 30 25 0 32 ?2 29 32 20
 0 31 0 26 3.9971095090970002e-19 0.0055 0.00949 16 33 21 0 ?35 27 37 34 0 0 2 3
1 34 22 0 33 38 28 0 +3.367778697655e-19 0.0 0.00949 0.0 0.0 1.0 1.0 0.0 0.0 0.0
055 17 35 0 62 52 52 25 30 33 0 49 +17 36 0 15 16 30 22 39 37 0 45 -16 37 23 0 ?
39 33 46 38 0 0 2 30 38 24 0 37 47 34 0 +3.9971095090970002e-19 0.0055 2.0e-05 0
.0 0.0 1.0 17 39 0 44 49 45 31 36 37 0 52 +14 40 25 42 1.0e-08 53 13 44 12 41 +0
 0 53 13 10 51 41 26 0 40 54 14 0 +-3.367778697655e-19 0.0 2.0e-05 0.0 0.0 -1.0
 0.0055 1.0 0.0 0.0 81 1 42 27 6 40 0 0 55 5 43 83 3 43 0.5 0.5 0.5 15 44 28 0 4
5 40 0 17 45 0 44 39 29 22 48 46 0 0 +16 46 29 0 ?45 37 50 47 0 0 2 31 47 30 0 4
6 51 38 0 +-3.367778697655e-19 0.0 2.0e-05 0.0 0.0 1.0 1.0 0.0 0.0 0.0055 17 48
 0 57 21 21 17 45 46 0 0 -17 49 0 44 29 39 25 52 50 0 0 -16 50 31 0 ?52 46 0 51
 0 0 2 31 51 32 0 50 0 47 0 +-3.367778697655e-19 0.0 0.00949 0.0 0.0 1.0 1.0 0.0
 0.0 0.0055 17 52 0 62 35 35 31 49 50 0 0 +14 53 33 55 1.0e-08 58 40 57 12 54 -0
 0 58 40 10 50 54 34 0 53 59 41 0 +-1.2660687598240002e-19 -1.076579902667e-18 2
.0e-05 1.427400618513e-35 8.4889474132769998e-35 1.0 0.0 1.0 -8.4889474132769998
e-35 81 1 55 35 6 53 0 0 60 42 56 83 3 56 0.5 0.5 0.5 15 57 36 0 48 53 0 14 58 3
7 60 1.0e-08 0 53 62 12 59 +0 0 0 53 10 50 59 38 0 58 0 54 0 +-1.266068759824000
2e-19 -1.076579902667e-18 0.00949 1.427400618513e-35 8.4889474132769998e-35 1.0
 0.0 1.0 -8.4889474132769998e-35 81 1 60 39 6 58 0 0 0 55 61 83 3 61 0.5 0.5 0.5
 15 62 40 0 35 58 0 12 63 40 0 64 0 0 0 0 1000.0 1.0e-08 0 0 0 1 0 1 1 71 73 79
 77 68 78 76 70 64 0 63 0 0 4 1 20 0 65 65 1 T74 20 65 1 0 66 0 0 0 0 0 0 0 0 0
 0 0 0 0 0 0 0 0 0 0 81 1 66 7 6 72 0 0 101 0 67 83 3 67 0.734000027179718 0.773
0000019073486 0.796999990940094 19 68 1 0 63 70 0 69 V13 69 2 0 63 0 0 0 0 68 72
 19 70 3 0 63 0 68 71 S13 71 4 0 63 0 72 0 0 70 0 14 72 5 66 1.0e-08 99 0 74 71
 73 +0 0 99 0 69 51 73 6 0 72 100 0 0 +1.836970198721e-20 0.0038 -0.0045 0.0 0.0
 -1.0 2.9999999999999996e-04 1.0 0.0 0.0 15 74 8 0 75 72 0 17 75 0 74 83 95 76 8
0 78 0 88 +18 76 9 0 75 0 81 77 ?63 29 77 10 0 76 82 0 -5.5109111777510008e-20 0
.0035 -0.0045 16 78 11 0 ?75 0 86 79 0 0 63 31 79 12 0 78 87 0 0 +1.836970198721
e-20 0.0038 -0.0045 0.0 0.0 1.0 1.0 0.0 0.0 2.9999999999999996e-04 17 80 0 116 1
07 107 81 75 78 0 95 -18 81 13 0 80 76 84 82 ?63 29 82 14 0 81 85 77 2.180241309
7819997e-20 0.0041 -0.0045 17 83 0 74 89 75 84 88 86 0 94 +18 84 15 0 83 81 90 8
5 ?63 29 85 16 0 84 91 82 -5.5109111777510008e-20 0.0035 0.0 16 86 17 0 ?83 78 9
2 87 0 0 63 30 87 18 0 86 93 79 0 +-5.5109111777510008e-20 0.0035 -0.0045 0.0 0.
0 1.0 17 88 0 103 104 108 76 83 86 0 107 -17 89 0 74 95 83 90 94 92 0 98 -18 90
 19 0 89 84 0 91 ?63 29 91 20 0 90 0 85 2.1802413097819997e-20 0.0041 0.0 16 92
 21 0 ?94 86 96 93 0 0 63 31 93 22 0 92 97 87 0 +1.836970198721e-20 0.0038 0.0 0
.0 0.0 1.0 1.0 0.0 0.0 2.9999999999999996e-04 17 94 0 121 111 111 84 89 92 0 108
 +17 95 0 74 75 89 81 98 96 0 104 -16 96 23 0 ?98 92 105 97 0 0 63 30 97 24 0 96
 106 93 0 +2.1802413097819997e-20 0.0041 -0.0045 0.0 0.0 1.0 17 98 0 103 108 104
 90 95 96 0 111 +14 99 25 101 1.0e-08 112 72 103 71 100 +0 0 112 72 69 51 100 26
 0 99 113 73 0 +-1.836970198721e-20 0.0038 -0.0045 0.0 0.0 -1.0 2.99999999999999
96e-04 1.0 0.0 0.0 81 1 101 27 6 99 0 0 114 66 102 83 3 102 0.734000027179718 0.
7730000019073486 0.796999990940094 15 103 28 0 104 99 0 17 104 0 103 98 88 81 10
7 105 0 0 +16 105 29 0 ?104 96 109 106 0 0 63 31 106 30 0 105 110 97 0 +-1.83697
0198721e-20 0.0038 -0.0045 0.0 0.0 1.0 1.0 0.0 0.0 2.9999999999999996e-04 17 107
 0 116 80 80 76 104 105 0 0 -17 108 0 103 88 98 84 111 109 0 0 -16 109 31 0 ?111
 105 0 110 0 0 63 31 110 32 0 109 0 106 0 +-1.836970198721e-20 0.0038 0.0 0.0 0.
0 1.0 1.0 0.0 0.0 2.9999999999999996e-04 17 111 0 121 94 94 90 108 109 0 0 +14 1
12 33 114 1.0e-08 117 99 116 71 113 -0 0 117 99 69 50 113 34 0 112 118 100 0 +-2
.5641480319930002e-20 0.0038 -0.0045 0.0 0.0 1.0 1.0 0.0 0.0 81 1 114 35 6 112 0
 0 119 101 115 83 3 115 0.734000027179718 0.7730000019073486 0.796999990940094 1
5 116 36 0 107 112 0 14 117 37 119 1.0e-08 0 112 121 71 118 +0 0 0 112 69 50 118
 38 0 117 0 113 0 +-2.5641480319930002e-20 0.0038 0.0 0.0 0.0 1.0 1.0 0.0 0.0 81
 1 119 39 6 117 0 0 0 114 120 83 3 120 0.734000027179718 0.7730000019073486 0.79
6999990940094 15 121 40 0 94 117 0 12 122 40 0 123 0 0 0 0 1000.0 1.0e-08 0 0 0
 1 0 1 1 130 132 138 136 127 137 135 70 123 0 122 0 0 4 1 20 0 124 124 1 T74 20
 124 1 0 125 0 0 0 0 0 0 0 0 0 0 0 0 0 0 0 0 0 0 0 81 1 125 7 6 131 0 0 160 0 12
6 83 3 126 0.734000027179718 0.7730000019073486 0.796999990940094 19 127 1 0 122
 129 0 128 V13 128 2 0 122 0 0 0 0 127 131 19 129 3 0 122 0 127 130 S13 130 4 0
 122 0 131 0 0 129 0 14 131 5 125 1.0e-08 158 0 133 130 132 +0 0 158 0 128 51 13
2 6 0 131 159 0 0 +-1.836970198721e-20 -0.0038 -0.0045 0.0 0.0 -1.0 2.9999999999
999996e-04 1.0 0.0 0.0 15 133 8 0 134 131 0 17 134 0 133 142 154 135 139 137 0 1
47 +18 135 9 0 134 0 140 136 ?122 29 136 10 0 135 141 0 2.1802417347929999e-20 -
0.0035 -0.0045 16 137 11 0 ?134 0 145 138 0 0 122 31 138 12 0 137 146 0 0 +-1.83
6970198721e-20 -0.0038 -0.0045 0.0 0.0 1.0 1.0 0.0 0.0 2.9999999999999996e-04 17
 139 0 175 166 166 140 134 137 0 154 -18 140 13 0 139 135 143 141 ?122 29 141 14
 0 140 144 136 -5.5109100145749998e-20 -0.0041 -0.0045 17 142 0 133 148 134 143
 147 145 0 153 +18 143 15 0 142 140 149 144 ?122 29 144 16 0 143 150 141 2.18024
17347929999e-20 -0.0035 0.0 16 145 17 0 ?142 137 151 146 0 0 122 30 146 18 0 145
 152 138 0 +2.1802417347929999e-20 -0.0035 -0.0045 0.0 0.0 1.0 17 147 0 162 163
 167 135 142 145 0 166 -17 148 0 133 154 142 149 153 151 0 157 -18 149 19 0 148
 143 0 150 ?122 29 150 20 0 149 0 144 -5.5109100145749998e-20 -0.0041 0.0 16 151
 21 0 ?153 145 155 152 0 0 122 31 152 22 0 151 156 146 0 +-1.836970198721e-20 -0
.0038 0.0 0.0 0.0 1.0 1.0 0.0 0.0 2.9999999999999996e-04 17 153 0 180 170 170 14
3 148 151 0 167 +17 154 0 133 134 148 140 157 155 0 163 -16 155 23 0 ?157 151 16
4 156 0 0 122 30 156 24 0 155 165 152 0 +-5.5109100145749998e-20 -0.0041 -0.0045
 0.0 0.0 1.0 17 157 0 162 167 163 149 154 155 0 170 +14 158 25 160 1.0e-08 171 1
31 162 130 159 +0 0 171 131 128 51 159 26 0 158 172 132 0 +1.836970198721e-20 -0
.0038 -0.0045 0.0 0.0 -1.0 2.9999999999999996e-04 1.0 0.0 0.0 81 1 160 27 6 158
 0 0 173 125 161 83 3 161 0.734000027179718 0.7730000019073486 0.796999990940094
 15 162 28 0 163 158 0 17 163 0 162 157 147 140 166 164 0 0 +16 164 29 0 ?163 15
5 168 165 0 0 122 31 165 30 0 164 169 156 0 +1.836970198721e-20 -0.0038 -0.0045
 0.0 0.0 1.0 1.0 0.0 0.0 2.9999999999999996e-04 17 166 0 175 139 139 135 163 164
 0 0 -17 167 0 162 147 157 143 170 168 0 0 -16 168 31 0 ?170 164 0 169 0 0 122 3
1 169 32 0 168 0 165 0 +1.836970198721e-20 -0.0038 0.0 0.0 0.0 1.0 1.0 0.0 0.0 2
.9999999999999996e-04 17 170 0 180 153 153 149 167 168 0 0 +14 171 33 173 1.0e-0
8 176 158 175 130 172 -0 0 176 158 128 50 172 34 0 171 177 159 0 +-3.39011454596
80002e-20 -0.0038 -0.0045 0.0 0.0 1.0 1.0 0.0 0.0 81 1 173 35 6 171 0 0 178 160
 174 83 3 174 0.734000027179718 0.7730000019073486 0.796999990940094 15 175 36 0
 166 171 0 14 176 37 178 1.0e-08 0 171 180 130 177 +0 0 0 171 128 50 177 38 0 17
6 0 172 0 +-3.3901145459680002e-20 -0.0038 0.0 0.0 0.0 1.0 1.0 0.0 0.0 81 1 178
 39 6 176 0 0 0 173 179 83 3 179 0.734000027179718 0.7730000019073486 0.79699999
0940094 15 180 40 0 153 176 0 12 181 40 0 182 0 0 0 0 1000.0 1.0e-08 0 0 0 1 0 1
 1 189 191 197 195 186 196 194 70 182 0 181 0 0 4 1 20 0 183 183 1 T74 20 183 1
 0 184 0 0 0 0 0 0 0 0 0 0 0 0 0 0 0 0 0 0 0 81 1 184 7 6 190 0 0 219 0 185 83 3
 185 0.1000000014901161 0.1000000014901161 0.1000000014901161 19 186 1 0 181 188
 0 187 V13 187 2 0 181 0 0 0 0 186 190 19 188 3 0 181 0 186 189 S13 189 4 0 181
 0 190 0 0 188 0 14 190 5 184 1.0e-08 217 0 192 189 191 +0 0 217 0 187 51 191 6
 0 190 218 0 0 +-3.6739403974420006e-19 0.0 0.0 0.0 0.0 -1.0 0.006 1.0 0.0 0.0 1
5 192 8 0 193 190 0 17 193 0 192 201 213 194 198 196 0 206 +18 194 9 0 193 0 199
 195 ?181 29 195 10 0 194 200 0 4.3604830725400001e-19 0.006 0.0 16 196 11 0 ?19
3 0 204 197 0 0 181 31 197 12 0 196 205 0 0 +-3.6739403974420006e-19 0.0 0.0 0.0
 0.0 1.0 1.0 0.0 0.0 0.006 17 198 0 234 225 225 199 193 196 0 213 -18 199 13 0 1
98 194 202 200 ?181 29 200 14 0 199 203 195 -1.102182122029e-18 -0.006 0.0 17 20
1 0 192 207 193 202 206 204 0 212 +18 202 15 0 201 199 208 203 ?181 29 203 16 0
 202 209 200 4.3604830725400001e-19 0.006 0.00948 16 204 17 0 ?201 196 210 205 0
 0 181 30 205 18 0 204 211 197 0 +4.3604830725400001e-19 0.006 0.0 0.0 0.0 1.0 1
7 206 0 221 222 226 194 201 204 0 225 -17 207 0 192 213 201 208 212 210 0 216 -1
8 208 19 0 207 202 0 209 ?181 29 209 20 0 208 0 203 -1.102182122029e-18 -0.006 0
.00948 16 210 21 0 ?212 204 214 211 0 0 181 31 211 22 0 210 215 205 0 +-3.673940
3974420006e-19 0.0 0.00948 0.0 0.0 1.0 1.0 0.0 0.0 0.006 17 212 0 239 229 229 20
2 207 210 0 226 +17 213 0 192 193 207 199 216 214 0 222 -16 214 23 0 ?216 210 22
3 215 0 0 181 30 215 24 0 214 224 211 0 +-1.102182122029e-18 -0.006 0.0 0.0 0.0
 1.0 17 216 0 221 226 222 208 213 214 0 229 +14 217 25 219 1.0e-08 230 190 221 1
89 218 +0 0 230 190 187 51 218 26 0 217 231 191 0 +3.6739403974420006e-19 0.0 0.
0 0.0 0.0 -1.0 0.006 1.0 0.0 0.0 81 1 219 27 6 217 0 0 232 184 220 83 3 220 0.10
00000014901161 0.1000000014901161 0.1000000014901161 15 221 28 0 222 217 0 17 22
2 0 221 216 206 199 225 223 0 0 +16 223 29 0 ?222 214 227 224 0 0 181 31 224 30
 0 223 228 215 0 +3.6739403974420006e-19 0.0 0.0 0.0 0.0 1.0 1.0 0.0 0.0 0.006 1
7 225 0 234 198 198 194 222 223 0 0 -17 226 0 221 206 216 202 229 227 0 0 -16 22
7 31 0 ?229 223 0 228 0 0 181 31 228 32 0 227 0 224 0 +3.6739403974420006e-19 0.
0 0.00948 0.0 0.0 1.0 1.0 0.0 0.0 0.006 17 229 0 239 212 212 208 226 227 0 0 +14
 230 33 232 1.0e-08 235 217 234 189 231 -0 0 235 217 187 50 231 34 0 230 236 218
 0 +-2.5860532211300002e-19 -1.480297366167e-18 0.0 0.0 0.0 1.0 1.0 0.0 0.0 81 1
 232 35 6 230 0 0 237 219 233 83 3 233 0.1000000014901161 0.1000000014901161 0.1
000000014901161 15 234 36 0 225 230 0 14 235 37 237 1.0e-08 0 230 239 189 236 +0
 0 0 230 187 50 236 38 0 235 0 231 0 +-2.5860532211300002e-19 -1.480297366167e-1
8 0.00948 0.0 0.0 1.0 1.0 0.0 0.0 81 1 237 39 6 235 0 0 0 232 238 83 3 238 0.100
0000014901161 0.1000000014901161 0.1000000014901161 15 239 40 0 212 235 0 12 240
 40 0 241 0 0 0 0 1000.0 1.0e-08 0 0 0 1 0 1 1 248 250 256 254 245 255 253 70 24
1 0 240 0 0 4 1 20 0 242 242 1 T74 20 242 1 0 243 0 0 0 0 0 0 0 0 0 0 0 0 0 0 0
 0 0 0 0 81 1 243 7 6 249 0 0 278 0 244 83 3 244 0.1000000014901161 0.1000000014
901161 0.1000000014901161 19 245 1 0 240 247 0 246 V13 246 2 0 240 0 0 0 0 245 2
49 19 247 3 0 240 0 245 248 S13 248 4 0 240 0 249 0 0 247 0 14 249 5 243 1.0e-08
 276 0 251 248 250 +0 0 276 0 246 51 250 6 0 249 277 0 0 +6.1232339957370003e-20
 0.0 0.0 0.0 0.0 -1.0 0.001 1.0 0.0 0.0 15 251 8 0 252 249 0 17 252 0 251 260 27
2 253 257 255 0 284 +18 253 9 0 252 0 258 254 ?240 29 254 10 0 253 259 0 -1.8369
70172002e-19 -0.001 0.0 16 255 11 0 ?252 0 263 256 0 0 240 31 256 12 0 255 264 0
 0 +6.1232339957370003e-20 0.0 0.0 0.0 0.0 1.0 1.0 0.0 0.0 0.001 17 257 0 293 28
4 284 258 252 255 0 281 -18 258 13 0 272 253 261 259 ?240 29 259 14 0 258 262 25
4 7.2674714737699997e-20 0.001 0.0 17 260 0 251 266 252 261 265 263 0 271 +18 26
1 15 0 260 258 267 262 ?240 29 262 16 0 261 268 259 -1.836970172002e-19 -0.001 0
.0095 16 263 17 0 ?260 255 269 264 0 0 240 30 264 18 0 263 270 256 0 +-1.8369701
72002e-19 -0.001 0.0 0.0 0.0 1.0 17 265 0 280 281 285 253 260 263 0 0 -17 266 0
 251 272 260 267 271 269 0 0 -18 267 19 0 275 261 0 268 ?240 29 268 20 0 267 0 2
62 7.2674714737699997e-20 0.001 0.0095 16 269 21 0 ?271 263 273 270 0 0 240 31 2
70 22 0 269 274 264 0 +6.1232339957370003e-20 0.0 0.0095 0.0 0.0 1.0 1.0 0.0 0.0
 0.001 17 271 0 298 288 288 261 266 269 0 285 +17 272 0 251 252 266 258 275 273
 0 257 -16 273 23 0 ?275 269 282 274 0 0 240 30 274 24 0 273 283 270 0 +7.267471
4737699997e-20 0.001 0.0 0.0 0.0 1.0 17 275 0 280 285 281 267 272 273 0 288 +14
 276 25 278 1.0e-08 289 249 280 248 277 +0 0 289 249 246 51 277 26 0 276 290 250
 0 +-6.1232339957370003e-20 0.0 0.0 0.0 0.0 -1.0 0.001 1.0 0.0 0.0 81 1 278 27 6
 276 0 0 291 243 279 83 3 279 0.1000000014901161 0.1000000014901161 0.1000000014
901161 15 280 28 0 281 276 0 17 281 0 280 275 265 258 284 282 0 0 +16 282 29 0 ?
281 273 286 283 0 0 240 31 283 30 0 282 287 274 0 +-6.1232339957370003e-20 0.0 0
.0 0.0 0.0 1.0 1.0 0.0 0.0 0.001 17 284 0 293 257 257 253 281 282 0 265 -17 285
 0 280 265 275 261 288 286 0 0 -16 286 31 0 ?288 282 0 287 0 0 240 31 287 32 0 2
86 0 283 0 +-6.1232339957370003e-20 0.0 0.0095 0.0 0.0 1.0 1.0 0.0 0.0 0.001 17
 288 0 298 271 271 267 285 286 0 266 +14 289 33 291 1.0e-08 294 276 293 248 290
 -0 0 294 276 246 50 290 34 0 289 295 277 0 +2.041077998579e-20 -1.8503717077090
004e-19 0.0 0.0 0.0 1.0 1.0 0.0 0.0 81 1 291 35 6 289 0 0 296 278 292 83 3 292 0
.1000000014901161 0.1000000014901161 0.1000000014901161 15 293 36 0 284 289 0 14
 294 37 296 1.0e-08 0 289 298 248 295 +0 0 0 289 246 50 295 38 0 294 0 290 0 +2.
041077998579e-20 -1.8503717077090004e-19 0.0095 0.0 0.0 1.0 1.0 0.0 0.0 81 1 296
 39 6 294 0 0 0 291 297 83 3 297 0.1000000014901161 0.1000000014901161 0.1000000
014901161 15 298 40 0 271 294 0 1 0 
