**ABCDEFGHIJKLMNOPQRSTUVWXYZabcdefghijklmnopqrstuvwxyz**************************
**PARASOLID !"#$%&'()*+,-./:;<=>?@[\]^_`{|}~0123456789**************************
**PART1;
MC=AMD64;
MC_MODEL=AMD64 Family 23 Model 1 Stepping 2, AuthenticAMD;
MC_ID=unknown;
OS=Windows_NT;
OS_RELEASE=unknown;
FRU=CAD Exchanger 3.13.0 (cadexchanger.com);
APPL=unknown;
SITE=unknown;
USER=unknown;
FORMAT=text;
GUISE=transmit;
KEY=MCC-SOD123_V_CMP-004-00005-3;
FILE=MCC-SOD123_V_CMP-004-00005-3.x_t;
DATE=Wed Mar 29 22:53:43 2023;
**PART2;
SCH=SCH_1200000_12103;
USFLD_SIZE=0;
**PART3;
**END_OF_HEADER*****************************************************************
T51 : TRANSMIT FILE created by modeller version 120000017 SCH_1200000_121030 74
 2 1 2 0 2 105 12 2 68 0 3 0 0 0 0 1000.0 1.0e-08 0 0 0 1 0 1 1 12 14 20 18 9 19
 17 70 3 0 2 0 0 4 1 20 0 4 4 1 T74 20 4 1 0 5 0 0 0 0 0 0 0 0 0 0 0 0 0 0 0 0 0
 0 0 81 1 5 7 6 13 0 0 42 0 8 80 1 6 0 7 8001 0 0 0 0 3 5 0 0 0 FFFFTFTFFFFFFF2
 79 15 7 SDL/TYSA_COLOUR83 3 8 0.501960813999176 0.501960813999176 0.50196081399
9176 19 9 1 0 2 11 0 10 V13 10 2 0 2 0 0 0 0 9 13 19 11 3 0 2 0 9 12 S13 12 4 0
 2 0 13 0 0 11 0 14 13 5 5 1.0e-08 40 0 15 12 14 -0 0 40 0 10 50 14 6 0 13 41 0
 0 +-0.00134999984 8.0000094000000015e-04 0.0 1.0 -1.8369701987210296e-16 0.0 -1
.8369701987210296e-16 -1.0 0.0 15 15 8 0 16 13 0 17 16 0 15 24 36 17 21 19 0 50
 +18 17 9 0 29 0 22 18 ?2 29 18 10 0 17 23 0 -0.00134999984 -8.0000093999999979e
-04 0.0 16 19 11 0 ?16 0 27 20 0 0 2 30 20 12 0 19 28 0 0 +-0.00134999984 8.0000
094000000015e-04 0.0 -1.8369701987210296e-16 -1.0 0.0 17 21 0 99 90 50 22 16 19
 0 87 -18 22 13 0 36 17 25 23 ?2 29 23 14 0 22 26 18 -0.00134999984 8.0000094000
000015e-04 0.0 17 24 0 15 30 16 25 29 27 0 57 +18 25 15 0 35 22 31 26 ?2 29 26 1
6 0 25 32 23 -0.00134999984 -8.0000093999999979e-04 0.00134999984 16 27 17 0 ?24
 19 33 28 0 0 2 30 28 18 0 27 34 20 0 +-0.00134999984 -8.0000093999999979e-04 0.
0 0.0 0.0 1.0 17 29 0 44 45 57 17 24 27 0 16 -17 30 0 15 36 24 31 35 33 0 94 -18
 31 19 0 39 25 46 32 ?2 29 32 20 0 31 47 26 -0.00134999984 8.0000094000000015e-0
4 0.00134999984 16 33 21 0 ?35 27 37 34 0 0 2 30 34 22 0 33 38 28 0 +-0.00134999
984 8.0000094000000015e-04 0.00134999984 -1.8369701987210296e-16 -1.0 0.0 17 35
 0 104 60 94 25 30 33 0 24 +17 36 0 15 16 30 22 39 37 0 21 -16 37 23 0 ?39 33 48
 38 0 0 2 30 38 24 0 37 49 34 0 +-0.00134999984 8.0000094000000015e-04 0.0 0.0 0
.0 1.0 17 39 0 86 91 87 31 36 37 0 30 +14 40 25 42 1.0e-08 61 13 44 12 41 -0 0 6
1 13 10 50 41 26 0 40 62 14 0 +-0.00134999984 -8.0000093999999979e-04 0.0 1.8369
701987210296e-16 1.0 0.0 1.0 -1.8369701987210296e-16 0.0 81 1 42 27 6 40 0 0 63
 5 43 83 3 43 0.501960813999176 0.501960813999176 0.501960813999176 15 44 28 0 4
5 40 0 17 45 0 44 51 29 46 50 48 0 71 +18 46 29 0 56 31 52 47 ?2 29 47 30 0 46 5
3 32 0.00134999984 -8.0000094000000015e-04 0.0 16 48 31 0 ?45 37 54 49 0 0 2 30
 49 32 0 48 55 38 0 +-0.00134999984 -8.0000093999999979e-04 0.0 1.0 -1.836970198
7210296e-16 0.0 17 50 0 99 21 71 17 45 48 0 0 -17 51 0 44 57 45 52 56 54 0 78 +1
8 52 33 0 60 46 67 53 ?2 29 53 34 0 52 68 47 0.00134999984 -8.0000094000000015e-
04 0.00134999984 16 54 35 0 ?51 48 58 55 0 0 2 30 55 36 0 54 59 49 0 +0.00134999
984 -8.0000094000000015e-04 0.0 0.0 0.0 1.0 17 56 0 65 66 78 46 51 54 0 45 -17 5
7 0 44 29 51 25 60 58 0 0 -16 58 37 0 ?60 54 69 59 0 0 2 30 59 38 0 58 70 55 0 +
-0.00134999984 -8.0000093999999979e-04 0.00134999984 1.0 -1.8369701987210296e-16
 0.0 17 60 0 104 81 35 52 57 58 0 51 +14 61 39 63 1.0e-08 82 40 65 12 62 -0 0 82
 40 10 50 62 40 0 61 83 41 0 +0.00134999984 -8.0000094000000015e-04 0.0 -1.0 1.8
369701987210296e-16 0.0 1.8369701987210296e-16 1.0 0.0 81 1 63 41 6 61 0 0 84 42
 64 83 3 64 0.501960813999176 0.501960813999176 0.501960813999176 15 65 42 0 66
 61 0 17 66 0 65 72 56 67 71 69 0 90 +18 67 43 0 77 52 73 68 ?2 29 68 44 0 67 74
 53 0.00134999984 8.0000093999999979e-04 0.0 16 69 45 0 ?66 58 75 70 0 0 2 30 70
 46 0 69 76 59 0 +0.00134999984 -8.0000094000000015e-04 0.0 1.8369701987210296e-
16 1.0 0.0 17 71 0 99 50 90 46 66 69 0 0 -17 72 0 65 78 66 73 77 75 0 91 +18 73
 47 0 81 67 0 74 ?2 29 74 48 0 73 0 68 0.00134999984 8.0000093999999979e-04 0.00
134999984 16 75 49 0 ?72 69 79 76 0 0 2 30 76 50 0 75 80 70 0 +0.00134999984 8.0
000093999999979e-04 0.0 0.0 0.0 1.0 17 77 0 86 87 91 67 72 75 0 66 -17 78 0 65 5
6 72 52 81 79 0 0 -16 79 51 0 ?81 75 88 80 0 0 2 30 80 52 0 79 89 76 0 +0.001349
99984 -8.0000094000000015e-04 0.00134999984 1.8369701987210296e-16 1.0 0.0 17 81
 0 104 94 60 73 78 79 0 72 +14 82 53 84 1.0e-08 95 61 86 12 83 -0 0 95 61 10 50
 83 54 0 82 96 62 0 +0.00134999984 8.0000093999999979e-04 0.0 -1.836970198721029
6e-16 -1.0 0.0 -1.0 1.8369701987210296e-16 0.0 81 1 84 55 6 82 0 0 97 63 85 83 3
 85 0.501960813999176 0.501960813999176 0.501960813999176 15 86 56 0 87 82 0 17
 87 0 86 39 77 22 90 88 0 0 +16 88 57 0 ?87 79 92 89 0 0 2 30 89 58 0 88 93 80 0
 +0.00134999984 8.0000093999999979e-04 0.0 -1.0 1.8369701987210296e-16 0.0 17 90
 0 99 71 21 67 87 88 0 0 -17 91 0 86 77 39 73 94 92 0 0 -16 92 59 0 ?94 88 0 93
 0 0 2 30 93 60 0 92 0 89 0 +0.00134999984 8.0000093999999979e-04 0.00134999984
 -1.0 1.8369701987210296e-16 0.0 17 94 0 104 35 81 31 91 92 0 0 +14 95 61 97 1.0
e-08 100 82 99 12 96 -0 0 100 82 10 50 96 62 0 95 101 83 0 +-1.414888364586e-17
 3.5630400422060028e-18 0.0 0.0 0.0 1.0 -1.8369701987210296e-16 -1.0 0.0 81 1 97
 63 6 95 0 0 102 84 98 83 3 98 0.501960813999176 0.501960813999176 0.50196081399
9176 15 99 64 0 90 95 0 14 100 65 102 1.0e-08 0 95 104 12 101 +0 0 0 95 10 50 10
1 66 0 100 0 96 0 +-1.414888364586e-17 3.5630400422060028e-18 0.00134999984 0.0
 0.0 1.0 -1.8369701987210296e-16 -1.0 0.0 81 1 102 67 6 100 0 0 0 97 103 83 3 10
3 0.501960813999176 0.501960813999176 0.501960813999176 15 104 68 0 35 100 0 12
 105 68 0 106 0 0 0 0 1000.0 1.0e-08 0 0 0 1 0 1 1 113 115 121 119 110 120 118 7
0 106 0 105 0 0 4 1 20 0 107 107 1 T74 20 107 1 0 108 0 0 0 0 0 0 0 0 0 0 0 0 0
 0 0 0 0 0 0 81 1 108 7 6 114 0 0 143 0 109 83 3 109 0.0313725508749485 0.050980
3928434849 0.0078431377187371 19 110 1 0 105 112 0 111 V13 111 2 0 105 0 0 0 0 1
10 114 19 112 3 0 105 0 110 113 S13 113 4 0 105 0 114 0 0 112 0 14 114 5 108 1.0
e-08 141 0 116 113 115 -0 0 141 0 111 50 115 6 0 114 142 0 0 +0.00134999984 -8.0
000093999999997e-04 0.00134999984 -1.0 1.8369701987210296e-16 0.0 1.836970198721
0296e-16 1.0 0.0 15 116 8 0 117 114 0 17 117 0 116 125 137 118 122 120 0 151 +18
 118 9 0 130 0 123 119 ?105 29 119 10 0 118 124 0 0.00134999984 8.00000939999999
97e-04 0.00134999984 16 120 11 0 ?117 0 128 121 0 0 105 30 121 12 0 120 129 0 0
 +0.00134999984 -8.0000093999999997e-04 0.00134999984 1.8369701987210296e-16 1.0
 0.0 17 122 0 200 191 151 123 117 120 0 188 -18 123 13 0 137 118 126 124 ?105 29
 124 14 0 123 127 119 0.00134999984 -8.0000093999999997e-04 0.00134999984 17 125
 0 116 131 117 126 130 128 0 158 +18 126 15 0 136 123 132 127 ?105 29 127 16 0 1
26 133 124 0.00134999984 8.0000093999999997e-04 0.0013510006 16 128 17 0 ?125 12
0 134 129 0 0 105 30 129 18 0 128 135 121 0 +0.00134999984 8.0000093999999997e-0
4 0.00134999984 0.0 0.0 1.0 17 130 0 145 146 158 118 125 128 0 117 -17 131 0 116
 137 125 132 136 134 0 195 -18 132 19 0 140 126 147 133 ?105 29 133 20 0 132 148
 127 0.00134999984 -8.0000093999999997e-04 0.0013510006 16 134 21 0 ?136 128 138
 135 0 0 105 30 135 22 0 134 139 129 0 +0.00134999984 -8.0000093999999997e-04 0.
0013510006 1.8369701987210296e-16 1.0 0.0 17 136 0 205 161 195 126 131 134 0 125
 +17 137 0 116 117 131 123 140 138 0 122 -16 138 23 0 ?140 134 149 139 0 0 105 3
0 139 24 0 138 150 135 0 +0.00134999984 -8.0000093999999997e-04 0.00134999984 0.
0 0.0 1.0 17 140 0 187 192 188 132 137 138 0 131 +14 141 25 143 1.0e-08 162 114
 145 113 142 -0 0 162 114 111 50 142 26 0 141 163 115 0 +0.00134999984 8.0000093
999999997e-04 0.00134999984 -1.8369701987210296e-16 -1.0 0.0 -1.0 1.836970198721
0296e-16 0.0 81 1 143 27 6 141 0 0 164 108 144 83 3 144 0.0313725508749485 0.050
9803928434849 0.0078431377187371 15 145 28 0 146 141 0 17 146 0 145 152 130 147
 151 149 0 172 +18 147 29 0 157 132 153 148 ?105 29 148 30 0 147 154 133 9.80000
58000000028e-04 8.0000093999999997e-04 0.00134999984 16 149 31 0 ?146 138 155 15
0 0 0 105 30 150 32 0 149 156 139 0 +0.00134999984 8.0000093999999997e-04 0.0013
4999984 -1.0 1.8369701987210296e-16 0.0 17 151 0 200 122 172 118 146 149 0 0 -17
 152 0 145 158 146 153 157 155 0 179 +18 153 33 0 161 147 168 154 ?105 29 154 34
 0 153 169 148 9.8000058000000028e-04 8.0000093999999997e-04 0.0013510006 16 155
 35 0 ?152 149 159 156 0 0 105 30 156 36 0 155 160 150 0 +9.8000058000000028e-04
 8.0000093999999997e-04 0.00134999984 0.0 0.0 1.0 17 157 0 166 167 179 147 152 1
55 0 146 -17 158 0 145 130 152 126 161 159 0 0 -16 159 37 0 ?161 155 170 160 0 0
 105 30 160 38 0 159 171 156 0 +0.00134999984 8.0000093999999997e-04 0.001351000
6 -1.0 1.8369701987210296e-16 0.0 17 161 0 205 182 136 153 158 159 0 152 +14 162
 39 164 1.0e-08 183 141 166 113 163 -0 0 183 141 111 50 163 40 0 162 184 142 0 +
9.8000058000000028e-04 8.0000093999999997e-04 0.00134999984 1.0 -1.8369701987210
296e-16 0.0 -1.8369701987210296e-16 -1.0 0.0 81 1 164 41 6 162 0 0 185 143 165 8
3 3 165 0.0313725508749485 0.0509803928434849 0.0078431377187371 15 166 42 0 167
 162 0 17 167 0 166 173 157 168 172 170 0 191 +18 168 43 0 178 153 174 169 ?105
 29 169 44 0 168 175 154 9.8000057999999974e-04 -8.0000093999999997e-04 0.001349
99984 16 170 45 0 ?167 159 176 171 0 0 105 30 171 46 0 170 177 160 0 +9.80000580
00000028e-04 8.0000093999999997e-04 0.00134999984 -1.8369701987210296e-16 -1.0 0
.0 17 172 0 200 151 191 147 167 170 0 0 -17 173 0 166 179 167 174 178 176 0 192
 +18 174 47 0 182 168 0 175 ?105 29 175 48 0 174 0 169 9.8000057999999974e-04 -8
.0000093999999997e-04 0.0013510006 16 176 49 0 ?173 170 180 177 0 0 105 30 177 5
0 0 176 181 171 0 +9.8000057999999974e-04 -8.0000093999999997e-04 0.00134999984
 0.0 0.0 1.0 17 178 0 187 188 192 168 173 176 0 167 -17 179 0 166 157 173 153 18
2 180 0 0 -16 180 51 0 ?182 176 189 181 0 0 105 30 181 52 0 180 190 177 0 +9.800
0058000000028e-04 8.0000093999999997e-04 0.0013510006 -1.8369701987210296e-16 -1
.0 0.0 17 182 0 205 195 161 174 179 180 0 173 +14 183 53 185 1.0e-08 196 162 187
 113 184 -0 0 196 162 111 50 184 54 0 183 197 163 0 +9.8000057999999974e-04 -8.0
000093999999997e-04 0.00134999984 1.8369701987210296e-16 1.0 0.0 1.0 -1.83697019
87210296e-16 0.0 81 1 185 55 6 183 0 0 198 164 186 83 3 186 0.0313725508749485 0
.0509803928434849 0.0078431377187371 15 187 56 0 188 183 0 17 188 0 187 140 178
 123 191 189 0 0 +16 189 57 0 ?188 180 193 190 0 0 105 30 190 58 0 189 194 181 0
 +9.8000057999999974e-04 -8.0000093999999997e-04 0.00134999984 1.0 -1.8369701987
210296e-16 0.0 17 191 0 200 172 122 168 188 189 0 0 -17 192 0 187 178 140 174 19
5 193 0 0 -16 193 59 0 ?195 189 0 194 0 0 105 30 194 60 0 193 0 190 0 +9.8000057
999999974e-04 -8.0000093999999997e-04 0.0013510006 1.0 -1.8369701987210296e-16 0
.0 17 195 0 205 136 182 132 192 193 0 0 +14 196 61 198 1.0e-08 201 183 200 113 1
97 -0 0 201 183 111 50 197 62 0 196 202 184 0 +0.00116500021 3.5504571309777854e
-18 0.00134999984 0.0 0.0 1.0 -1.8369701987210296e-16 -1.0 0.0 81 1 198 63 6 196
 0 0 203 185 199 83 3 199 0.0313725508749485 0.0509803928434849 0.00784313771873
71 15 200 64 0 191 196 0 14 201 65 203 1.0e-08 0 196 205 113 202 +0 0 0 196 111
 50 202 66 0 201 0 197 0 +0.00116500021 3.5504571309777854e-18 0.0013510006 0.0
 0.0 1.0 -1.8369701987210296e-16 -1.0 0.0 81 1 203 67 6 201 0 0 0 198 204 83 3 2
04 0.0313725508749485 0.0509803928434849 0.0078431377187371 15 205 68 0 136 201
 0 1 0 
