**ABCDEFGHIJKLMNOPQRSTUVWXYZabcdefghijklmnopqrstuvwxyz**************************
**PARASOLID !"#$%&'()*+,-./:;<=>?@[\]^_`{|}~0123456789**************************
**PART1;
MC=AMD64;
MC_MODEL=AMD64 Family 23 Model 96 Stepping 1, AuthenticAMD;
MC_ID=unknown;
OS=Windows_NT;
OS_RELEASE=unknown;
FRU=CAD Exchanger 3.10.1 (cadexchanger.com);
APPL=unknown;
SITE=unknown;
USER=unknown;
FORMAT=text;
GUISE=transmit;
KEY=RESC1608X55X25ML10T15_CMP-009-00177-3;
FILE=RESC1608X55X25ML10T15_CMP-009-00177-3.x_t;
DATE=Tue Apr 12 20:03:48 2022;
**PART2;
SCH=SCH_1200000_12103;
USFLD_SIZE=0;
**PART3;
**END_OF_HEADER*****************************************************************
T51 : TRANSMIT FILE created by modeller version 120000017 SCH_1200000_121030 74
 3 1 3 0 2 105 206 12 2 68 0 3 0 0 0 0 1000 1e-008 0 0 0 1 0 1 1 12 14 20 18 9 1
9 17 70 3 0 2 0 0 4 1 20 0 4 4 1 T74 20 4 1 0 5 0 0 0 0 0 0 0 0 0 0 0 0 0 0 0 0
 0 0 0 81 1 5 7 6 13 0 0 42 0 8 80 1 6 0 7 8001 0 0 0 0 3 5 0 0 0 FFFFTFTFFFFFFF
2 79 15 7 SDL/TYSA_COLOUR83 3 8 0.8117647171020508 0.7882353067398071 0.70980393
88656616 19 9 1 0 2 11 0 10 V13 10 2 0 2 0 0 0 0 9 13 19 11 3 0 2 0 9 12 S13 12
 4 0 2 0 13 0 0 11 0 14 13 5 5 1e-008 40 0 15 12 14 -0 0 40 0 10 50 14 6 0 13 41
 0 0 +0.0005999988000000001 -0.0004499991000000001 0 -1 6.123233995736766e-017 0
 6.123233995736766e-017 1 0 15 15 8 0 16 13 0 17 16 0 15 24 36 17 21 19 0 0 +18
 17 9 0 50 0 22 18 ?2 29 18 10 0 17 23 0 0.0005999988000000001 0.000450001639999
9999 0 16 19 11 0 ?16 0 27 20 0 0 2 30 20 12 0 19 28 0 0 +0.0005999988000000001
 -0.0004499991000000001 0 6.123233995736766e-017 1 0 17 21 0 99 90 50 22 16 19 0
 0 -18 22 13 0 36 17 25 23 ?2 29 23 14 0 22 26 18 0.0005999988000000001 -0.00044
99991000000001 0 17 24 0 15 30 16 25 29 27 0 57 +18 25 15 0 35 22 31 26 ?2 29 26
 16 0 25 32 23 0.0005999988000000001 0.0004500016399999999 0.0005499989 16 27 17
 0 ?24 19 33 28 0 0 2 30 28 18 0 27 34 20 0 +0.0005999988000000001 0.00045000163
99999999 0 0 0 1 17 29 0 44 45 57 17 24 27 0 16 -17 30 0 15 36 24 31 35 33 0 94
 -18 31 19 0 39 25 46 32 ?2 29 32 20 0 31 47 26 0.0005999988000000001 -0.0004499
991000000001 0.0005499989 16 33 21 0 ?35 27 37 34 0 0 2 30 34 22 0 33 38 28 0 +0
.0005999988000000001 -0.0004499991000000001 0.0005499989 6.123233995736766e-017
 1 0 17 35 0 104 60 94 25 30 33 0 24 +17 36 0 15 16 30 22 39 37 0 87 -16 37 23 0
 ?39 33 48 38 0 0 2 30 38 24 0 37 49 34 0 +0.0005999988000000001 -0.000449999100
0000001 0 0 0 1 17 39 0 86 91 87 31 36 37 0 30 +14 40 25 42 1e-008 61 13 44 12 4
1 -0 0 61 13 10 50 41 26 0 40 62 14 0 +0.0005999988000000001 0.00045000163999999
99 0 -6.123233995736766e-017 -1 0 -1 6.123233995736766e-017 0 81 1 42 27 6 40 0
 0 63 5 43 83 3 43 0.8117647171020508 0.7882353067398071 0.7098039388656616 15 4
4 28 0 45 40 0 17 45 0 44 51 29 46 50 48 0 71 +18 46 29 0 45 31 52 47 ?2 29 47 3
0 0 46 53 32 -0.00060000134 0.0004500016400000001 0 16 48 31 0 ?45 37 54 49 0 0
 2 30 49 32 0 48 55 38 0 +0.0005999988000000001 0.0004500016399999999 0 -1 6.123
233995736766e-017 0 17 50 0 99 21 71 17 45 48 0 29 -17 51 0 44 57 45 52 56 54 0
 0 +18 52 33 0 78 46 67 53 ?2 29 53 34 0 52 68 47 -0.00060000134 0.0004500016400
000001 0.0005499989 16 54 35 0 ?51 48 58 55 0 0 2 30 55 36 0 54 59 49 0 +-0.0006
0000134 0.0004500016400000001 0 0 0 1 17 56 0 65 66 78 46 51 54 0 0 -17 57 0 44
 29 51 25 60 58 0 0 -16 58 37 0 ?60 54 69 59 0 0 2 30 59 38 0 58 70 55 0 +0.0005
999988000000001 0.0004500016399999999 0.0005499989 -1 6.123233995736766e-017 0 1
7 60 0 104 81 35 52 57 58 0 51 +14 61 39 63 1e-008 82 40 65 12 62 -0 0 82 40 10
 50 62 40 0 61 83 41 0 +-0.00060000134 0.0004500016400000001 0 1 -6.123233995736
766e-017 0 -6.123233995736766e-017 -1 0 81 1 63 41 6 61 0 0 84 42 64 83 3 64 0.8
117647171020508 0.7882353067398071 0.7098039388656616 15 65 42 0 66 61 0 17 66 0
 65 72 56 67 71 69 0 90 +18 67 43 0 77 52 73 68 ?2 29 68 44 0 67 74 53 -0.000600
00134 -0.0004499991 0 16 69 45 0 ?66 58 75 70 0 0 2 30 70 46 0 69 76 59 0 +-0.00
060000134 0.0004500016400000001 0 -6.123233995736766e-017 -1 0 17 71 0 99 50 90
 46 66 69 0 56 -17 72 0 65 78 66 73 77 75 0 91 +18 73 47 0 81 67 0 74 ?2 29 74 4
8 0 73 0 68 -0.00060000134 -0.0004499991 0.0005499989 16 75 49 0 ?72 69 79 76 0
 0 2 30 76 50 0 75 80 70 0 +-0.00060000134 -0.0004499991 0 0 0 1 17 77 0 86 87 9
1 67 72 75 0 66 -17 78 0 65 56 72 52 81 79 0 60 -16 79 51 0 ?81 75 88 80 0 0 2 3
0 80 52 0 79 89 76 0 +-0.00060000134 0.0004500016400000001 0.0005499989 -6.12323
3995736766e-017 -1 0 17 81 0 104 94 60 73 78 79 0 72 +14 82 53 84 1e-008 95 61 8
6 12 83 -0 0 95 61 10 50 83 54 0 82 96 62 0 +-0.00060000134 -0.0004499991 0 6.12
3233995736766e-017 1 0 1 -6.123233995736766e-017 0 81 1 84 55 6 82 0 0 97 63 85
 83 3 85 0.8117647171020508 0.7882353067398071 0.7098039388656616 15 86 56 0 87
 82 0 17 87 0 86 39 77 22 90 88 0 21 +16 88 57 0 ?87 79 92 89 0 0 2 30 89 58 0 8
8 93 80 0 +-0.00060000134 -0.0004499991 0 1 -6.123233995736766e-017 0 17 90 0 99
 71 21 67 87 88 0 0 -17 91 0 86 77 39 73 94 92 0 0 -16 92 59 0 ?94 88 0 93 0 0 2
 30 93 60 0 92 0 89 0 +-0.00060000134 -0.0004499991 0.0005499989 1 -6.1232339957
36766e-017 0 17 94 0 104 35 81 31 91 92 0 0 +14 95 61 97 1e-008 100 82 99 12 96
 +0 0 100 82 10 50 96 62 0 95 101 83 0 +0.0005999988000000001 -0.000449999100000
0001 0 0 0 -1 -6.123233995736766e-017 -1 0 81 1 97 63 6 95 0 0 102 84 98 83 3 98
 0.8117647171020508 0.7882353067398071 0.7098039388656616 15 99 64 0 90 95 0 14
 100 65 102 1e-008 0 95 104 12 101 -0 0 0 95 10 50 101 66 0 100 0 96 0 +0.000599
9988000000001 -0.0004499991000000001 0.0005499989 0 0 -1 -6.123233995736766e-017
 -1 0 81 1 102 67 6 100 0 0 0 97 103 83 3 103 0.8117647171020508 0.7882353067398
071 0.7098039388656616 15 104 68 0 35 100 0 12 105 68 0 106 0 0 0 0 1000 1e-008
 0 0 0 1 0 1 1 113 115 121 119 110 120 118 70 106 0 105 0 0 4 1 20 0 107 107 1 T
74 20 107 1 0 108 0 0 0 0 0 0 0 0 0 0 0 0 0 0 0 0 0 0 0 81 1 108 7 6 114 0 0 143
 0 109 83 3 109 0.7529411911964417 0.7529411911964417 0.7529411911964417 19 110
 1 0 105 112 0 111 V13 111 2 0 105 0 0 0 0 110 114 19 112 3 0 105 0 110 113 S13
 113 4 0 105 0 114 0 0 112 0 14 114 5 108 1e-008 141 0 116 113 115 -0 0 141 0 11
1 50 115 6 0 114 142 0 0 +-0.0006000013399999999 -0.0004499991 0 -1 6.1232339957
36766e-017 0 6.123233995736766e-017 1 0 15 116 8 0 117 114 0 17 117 0 116 125 13
7 118 122 120 0 151 +18 118 9 0 130 0 123 119 ?105 29 119 10 0 118 124 0 -0.0006
000013399999999 0.00045000164 0 16 120 11 0 ?117 0 128 121 0 0 105 30 121 12 0 1
20 129 0 0 +-0.0006000013399999999 -0.0004499991 0 6.123233995736766e-017 1 0 17
 122 0 200 191 151 123 117 120 0 188 -18 123 13 0 137 118 126 124 ?105 29 124 14
 0 123 127 119 -0.0006000013399999999 -0.0004499991 0 17 125 0 116 131 117 126 1
30 128 0 158 +18 126 15 0 136 123 132 127 ?105 29 127 16 0 126 133 124 -0.000600
0013399999999 0.00045000164 0.0005499989 16 128 17 0 ?125 120 134 129 0 0 105 30
 129 18 0 128 135 121 0 +-0.0006000013399999999 0.00045000164 0 0 0 1 17 130 0 1
45 146 158 118 125 128 0 117 -17 131 0 116 137 125 132 136 134 0 195 -18 132 19
 0 140 126 147 133 ?105 29 133 20 0 132 148 127 -0.0006000013399999999 -0.000449
9991 0.0005499989 16 134 21 0 ?136 128 138 135 0 0 105 30 135 22 0 134 139 129 0
 +-0.0006000013399999999 -0.0004499991 0.0005499989 6.123233995736766e-017 1 0 1
7 136 0 205 161 195 126 131 134 0 125 +17 137 0 116 117 131 123 140 138 0 122 -1
6 138 23 0 ?140 134 149 139 0 0 105 30 139 24 0 138 150 135 0 +-0.00060000133999
99999 -0.0004499991 0 0 0 1 17 140 0 187 192 188 132 137 138 0 131 +14 141 25 14
3 1e-008 162 114 145 113 142 -0 0 162 114 111 50 142 26 0 141 163 115 0 +-0.0006
000013399999999 0.00045000164 0 -6.123233995736766e-017 -1 0 -1 6.12323399573676
6e-017 0 81 1 143 27 6 141 0 0 164 108 144 83 3 144 0.7529411911964417 0.7529411
911964417 0.7529411911964417 15 145 28 0 146 141 0 17 146 0 145 152 130 147 151
 149 0 172 +18 147 29 0 157 132 153 148 ?105 29 148 30 0 147 154 133 -0.00085000
08399999999 0.00045000164 0 16 149 31 0 ?146 138 155 150 0 0 105 30 150 32 0 149
 156 139 0 +-0.0006000013399999999 0.00045000164 0 -1 6.123233995736766e-017 0 1
7 151 0 200 122 172 118 146 149 0 0 -17 152 0 145 158 146 153 157 155 0 179 +18
 153 33 0 161 147 168 154 ?105 29 154 34 0 153 169 148 -0.0008500008399999999 0.
00045000164 0.0005499989 16 155 35 0 ?152 149 159 156 0 0 105 30 156 36 0 155 16
0 150 0 +-0.0008500008399999999 0.00045000164 0 0 0 1 17 157 0 166 167 179 147 1
52 155 0 146 -17 158 0 145 130 152 126 161 159 0 0 -16 159 37 0 ?161 155 170 160
 0 0 105 30 160 38 0 159 171 156 0 +-0.0006000013399999999 0.00045000164 0.00054
99989 -1 6.123233995736766e-017 0 17 161 0 205 182 136 153 158 159 0 152 +14 162
 39 164 1e-008 183 141 166 113 163 -0 0 183 141 111 50 163 40 0 162 184 142 0 +-
0.0008500008399999999 0.00045000164 0 1 -6.123233995736766e-017 0 -6.12323399573
6766e-017 -1 0 81 1 164 41 6 162 0 0 185 143 165 83 3 165 0.7529411911964417 0.7
529411911964417 0.7529411911964417 15 166 42 0 167 162 0 17 167 0 166 173 157 16
8 172 170 0 191 +18 168 43 0 178 153 174 169 ?105 29 169 44 0 168 175 154 -0.000
85000084 -0.0004499991 0 16 170 45 0 ?167 159 176 171 0 0 105 30 171 46 0 170 17
7 160 0 +-0.0008500008399999999 0.00045000164 0 -6.123233995736766e-017 -1 0 17
 172 0 200 151 191 147 167 170 0 0 -17 173 0 166 179 167 174 178 176 0 192 +18 1
74 47 0 182 168 0 175 ?105 29 175 48 0 174 0 169 -0.00085000084 -0.0004499991 0.
0005499989 16 176 49 0 ?173 170 180 177 0 0 105 30 177 50 0 176 181 171 0 +-0.00
085000084 -0.0004499991 0 0 0 1 17 178 0 187 188 192 168 173 176 0 167 -17 179 0
 166 157 173 153 182 180 0 0 -16 180 51 0 ?182 176 189 181 0 0 105 30 181 52 0 1
80 190 177 0 +-0.0008500008399999999 0.00045000164 0.0005499989 -6.1232339957367
66e-017 -1 0 17 182 0 205 195 161 174 179 180 0 173 +14 183 53 185 1e-008 196 16
2 187 113 184 -0 0 196 162 111 50 184 54 0 183 197 163 0 +-0.00085000084 -0.0004
499991 0 6.123233995736766e-017 1 0 1 -6.123233995736766e-017 0 81 1 185 55 6 18
3 0 0 198 164 186 83 3 186 0.7529411911964417 0.7529411911964417 0.7529411911964
417 15 187 56 0 188 183 0 17 188 0 187 140 178 123 191 189 0 0 +16 189 57 0 ?188
 180 193 190 0 0 105 30 190 58 0 189 194 181 0 +-0.00085000084 -0.0004499991 0 1
 -6.123233995736766e-017 0 17 191 0 200 172 122 168 188 189 0 0 -17 192 0 187 17
8 140 174 195 193 0 0 -16 193 59 0 ?195 189 0 194 0 0 105 30 194 60 0 193 0 190
 0 +-0.00085000084 -0.0004499991 0.0005499989 1 -6.123233995736766e-017 0 17 195
 0 205 136 182 132 192 193 0 0 +14 196 61 198 1e-008 201 183 200 113 197 +0 0 20
1 183 111 50 197 62 0 196 202 184 0 +-0.0006000013399999999 -0.0004499991 0 0 0
 -1 -6.123233995736766e-017 -1 0 81 1 198 63 6 196 0 0 203 185 199 83 3 199 0.75
29411911964417 0.7529411911964417 0.7529411911964417 15 200 64 0 191 196 0 14 20
1 65 203 1e-008 0 196 205 113 202 -0 0 0 196 111 50 202 66 0 201 0 197 0 +-0.000
6000013399999999 -0.0004499991 0.0005499989 0 0 -1 -6.123233995736766e-017 -1 0
 81 1 203 67 6 201 0 0 0 198 204 83 3 204 0.7529411911964417 0.7529411911964417
 0.7529411911964417 15 205 68 0 136 201 0 12 206 68 0 207 0 0 0 0 1000 1e-008 0
 0 0 1 0 1 1 214 216 222 220 211 221 219 70 207 0 206 0 0 4 1 20 0 208 208 1 T74
 20 208 1 0 209 0 0 0 0 0 0 0 0 0 0 0 0 0 0 0 0 0 0 0 81 1 209 7 6 215 0 0 244 0
 210 83 3 210 0.7529411911964417 0.7529411911964417 0.7529411911964417 19 211 1
 0 206 213 0 212 V13 212 2 0 206 0 0 0 0 211 215 19 213 3 0 206 0 211 214 S13 21
4 4 0 206 0 215 0 0 213 0 14 215 5 209 1e-008 242 0 217 214 216 -0 0 242 0 212 5
0 216 6 0 215 243 0 0 +0.0008499957599999999 -0.0004499991 0 -1 6.12323399573676
6e-017 0 6.123233995736766e-017 1 0 15 217 8 0 218 215 0 17 218 0 217 226 238 21
9 223 221 0 252 +18 219 9 0 231 0 224 220 ?206 29 220 10 0 219 225 0 0.000849995
76 0.00045000164 0 16 221 11 0 ?218 0 229 222 0 0 206 30 222 12 0 221 230 0 0 +0
.0008499957599999999 -0.0004499991 0 6.123233995736766e-017 1 0 17 223 0 301 292
 252 224 218 221 0 289 -18 224 13 0 238 219 227 225 ?206 29 225 14 0 224 228 220
 0.0008499957599999999 -0.0004499991 0 17 226 0 217 232 218 227 231 229 0 259 +1
8 227 15 0 237 224 233 228 ?206 29 228 16 0 227 234 225 0.00084999576 0.00045000
164 0.0005499989 16 229 17 0 ?226 221 235 230 0 0 206 30 230 18 0 229 236 222 0
 +0.00084999576 0.00045000164 0 0 0 1 17 231 0 246 247 259 219 226 229 0 218 -17
 232 0 217 238 226 233 237 235 0 296 -18 233 19 0 241 227 248 234 ?206 29 234 20
 0 233 249 228 0.0008499957599999999 -0.0004499991 0.0005499989 16 235 21 0 ?237
 229 239 236 0 0 206 30 236 22 0 235 240 230 0 +0.0008499957599999999 -0.0004499
991 0.0005499989 6.123233995736766e-017 1 0 17 237 0 306 262 296 227 232 235 0 2
26 +17 238 0 217 218 232 224 241 239 0 223 -16 239 23 0 ?241 235 250 240 0 0 206
 30 240 24 0 239 251 236 0 +0.0008499957599999999 -0.0004499991 0 0 0 1 17 241 0
 288 293 289 233 238 239 0 232 +14 242 25 244 1e-008 263 215 246 214 243 -0 0 26
3 215 212 50 243 26 0 242 264 216 0 +0.00084999576 0.00045000164 0 -6.1232339957
36766e-017 -1 0 -1 6.123233995736766e-017 0 81 1 244 27 6 242 0 0 265 209 245 83
 3 245 0.7529411911964417 0.7529411911964417 0.7529411911964417 15 246 28 0 247
 242 0 17 247 0 246 253 231 248 252 250 0 273 +18 248 29 0 258 233 254 249 ?206
 29 249 30 0 248 255 234 0.0005999962599999999 0.00045000164 0 16 250 31 0 ?247
 239 256 251 0 0 206 30 251 32 0 250 257 240 0 +0.00084999576 0.00045000164 0 -1
 6.123233995736766e-017 0 17 252 0 301 223 273 219 247 250 0 0 -17 253 0 246 259
 247 254 258 256 0 280 +18 254 33 0 262 248 269 255 ?206 29 255 34 0 254 270 249
 0.0005999962599999999 0.00045000164 0.0005499989 16 256 35 0 ?253 250 260 257 0
 0 206 30 257 36 0 256 261 251 0 +0.0005999962599999999 0.00045000164 0 0 0 1 17
 258 0 267 268 280 248 253 256 0 247 -17 259 0 246 231 253 227 262 260 0 0 -16 2
60 37 0 ?262 256 271 261 0 0 206 30 261 38 0 260 272 257 0 +0.00084999576 0.0004
5000164 0.0005499989 -1 6.123233995736766e-017 0 17 262 0 306 283 237 254 259 26
0 0 253 +14 263 39 265 1e-008 284 242 267 214 264 -0 0 284 242 212 50 264 40 0 2
63 285 243 0 +0.0005999962599999999 0.00045000164 0 1 -6.123233995736766e-017 0
 -6.123233995736766e-017 -1 0 81 1 265 41 6 263 0 0 286 244 266 83 3 266 0.75294
11911964417 0.7529411911964417 0.7529411911964417 15 267 42 0 268 263 0 17 268 0
 267 274 258 269 273 271 0 292 +18 269 43 0 279 254 275 270 ?206 29 270 44 0 269
 276 255 0.0005999962599999999 -0.0004499991 0 16 271 45 0 ?268 260 277 272 0 0
 206 30 272 46 0 271 278 261 0 +0.0005999962599999999 0.00045000164 0 -6.1232339
95736766e-017 -1 0 17 273 0 301 252 292 248 268 271 0 0 -17 274 0 267 280 268 27
5 279 277 0 293 +18 275 47 0 283 269 0 276 ?206 29 276 48 0 275 0 270 0.00059999
62599999999 -0.0004499991 0.0005499989 16 277 49 0 ?274 271 281 278 0 0 206 30 2
78 50 0 277 282 272 0 +0.0005999962599999999 -0.0004499991 0 0 0 1 17 279 0 288
 289 293 269 274 277 0 268 -17 280 0 267 258 274 254 283 281 0 0 -16 281 51 0 ?2
83 277 290 282 0 0 206 30 282 52 0 281 291 278 0 +0.0005999962599999999 0.000450
00164 0.0005499989 -6.123233995736766e-017 -1 0 17 283 0 306 296 262 275 280 281
 0 274 +14 284 53 286 1e-008 297 263 288 214 285 -0 0 297 263 212 50 285 54 0 28
4 298 264 0 +0.0005999962599999999 -0.0004499991 0 6.123233995736766e-017 1 0 1
 -6.123233995736766e-017 0 81 1 286 55 6 284 0 0 299 265 287 83 3 287 0.75294119
11964417 0.7529411911964417 0.7529411911964417 15 288 56 0 289 284 0 17 289 0 28
8 241 279 224 292 290 0 0 +16 290 57 0 ?289 281 294 291 0 0 206 30 291 58 0 290
 295 282 0 +0.0005999962599999999 -0.0004499991 0 1 -6.123233995736766e-017 0 17
 292 0 301 273 223 269 289 290 0 0 -17 293 0 288 279 241 275 296 294 0 0 -16 294
 59 0 ?296 290 0 295 0 0 206 30 295 60 0 294 0 291 0 +0.0005999962599999999 -0.0
004499991 0.0005499989 1 -6.123233995736766e-017 0 17 296 0 306 237 283 233 293
 294 0 0 +14 297 61 299 1e-008 302 284 301 214 298 +0 0 302 284 212 50 298 62 0
 297 303 285 0 +0.0008499957599999999 -0.0004499991 0 0 0 -1 -6.123233995736766e
-017 -1 0 81 1 299 63 6 297 0 0 304 286 300 83 3 300 0.7529411911964417 0.752941
1911964417 0.7529411911964417 15 301 64 0 292 297 0 14 302 65 304 1e-008 0 297 3
06 214 303 -0 0 0 297 212 50 303 66 0 302 0 298 0 +0.0008499957599999999 -0.0004
499991 0.0005499989 0 0 -1 -6.123233995736766e-017 -1 0 81 1 304 67 6 302 0 0 0
 299 305 83 3 305 0.7529411911964417 0.7529411911964417 0.7529411911964417 15 30
6 68 0 237 302 0 1 0 
