**ABCDEFGHIJKLMNOPQRSTUVWXYZabcdefghijklmnopqrstuvwxyz**************************
**PARASOLID !"#$%&'()*+,-./:;<=>?@[\]^_`{|}~0123456789**************************
**PART1;
MC=AMD64;
MC_MODEL=AMD64 Family 23 Model 1 Stepping 2, AuthenticAMD;
MC_ID=unknown;
OS=Windows_NT;
OS_RELEASE=unknown;
FRU=CAD Exchanger 3.13.0 (cadexchanger.com);
APPL=unknown;
SITE=unknown;
USER=unknown;
FORMAT=text;
GUISE=transmit;
KEY=THRMC1608X95N_CMP-038-000000-2;
FILE=THRMC1608X95N_CMP-038-000000-2.x_t;
DATE=Fri Mar 10 21:19:15 2023;
**PART2;
SCH=SCH_1200000_12103;
USFLD_SIZE=0;
**PART3;
**END_OF_HEADER*****************************************************************
T51 : TRANSMIT FILE created by modeller version 120000017 SCH_1200000_121030 12
 1 549 0 2 0 0 0 0 1000.0 1.0e-08 0 0 0 1 0 1 1 11 13 19 17 8 18 16 70 2 0 1 0 0
 4 1 20 0 3 3 1 T74 20 3 1 0 4 0 0 0 0 0 0 0 0 0 0 0 0 0 0 0 0 0 0 0 81 1 4 7 5
 12 0 0 41 0 7 80 1 5 0 6 8001 0 0 0 0 3 5 0 0 0 FFFFTFTFFFFFFF2 79 15 6 SDL/TYS
A_COLOUR83 3 7 1.0 1.0 1.0 19 8 1 0 1 10 0 9 V13 9 2 0 1 0 0 0 0 8 12 19 10 3 0
 1 0 8 11 S13 11 4 0 1 0 12 0 0 10 0 14 12 5 4 1.0e-08 39 0 14 11 13 -0 0 39 0 9
 50 13 6 0 12 40 0 0 +2.763520000000098e-06 4.0221488000000001e-04 2.28599999999
99996e-04 -2.4492935982947066e-16 -1.0 6.1232339957367659e-17 1.0 -2.44929359829
47066e-16 0.0 15 14 8 0 15 12 0 17 15 0 14 23 35 16 20 18 0 251 +18 16 9 0 28 0
 21 17 ?1 29 17 10 0 16 22 0 7.1276352000000012e-04 4.0221487999999983e-04 9.359
9999999999959e-05 16 18 11 0 ?15 0 26 19 0 0 1 30 19 12 0 18 27 0 0 +7.127635200
0000012e-04 4.0221487999999983e-04 3.6360000000000002e-04 -1.4997597826618576e-3
2 -6.1232339957367659e-17 -1.0 17 20 0 250 155 251 21 15 18 0 152 -18 21 13 0 35
 16 24 22 ?1 29 22 14 0 21 25 17 7.1276352000000012e-04 4.0221487999999983e-04 3
.6360000000000002e-04 17 23 0 14 29 15 24 28 26 0 653 +18 24 15 0 34 21 30 25 ?1
 29 25 16 0 24 31 22 -7.0723647999999981e-04 4.022148800000001e-04 9.35999999999
99959e-05 16 26 17 0 ?23 18 32 27 0 0 1 30 27 18 0 26 33 19 0 +7.127635200000001
2e-04 4.0221487999999983e-04 9.3599999999999959e-05 -1.0 2.4492935982947066e-16
 0.0 17 28 0 673 254 653 16 23 26 0 15 -17 29 0 14 35 23 30 34 32 0 49 +18 30 19
 0 38 24 45 31 ?1 29 31 20 0 30 46 25 -7.0723647999999981e-04 4.022148800000001e
-04 3.6360000000000002e-04 16 32 21 0 ?29 26 36 33 0 0 1 30 33 22 0 32 37 27 0 +
-7.0723647999999981e-04 4.022148800000001e-04 9.3599999999999959e-05 1.499759782
6618576e-32 6.1232339957367659e-17 1.0 17 34 0 649 650 49 24 29 32 0 23 -17 35 0
 14 15 29 21 38 36 0 20 +16 36 23 0 ?35 32 47 37 0 0 1 30 37 24 0 36 48 33 0 +-7
.0723647999999981e-04 4.022148800000001e-04 3.6360000000000002e-04 1.0 -2.449293
5982947066e-16 0.0 17 38 0 43 44 152 30 35 36 0 29 -14 39 25 41 1.0e-08 181 12 4
3 11 40 -0 0 181 12 9 50 40 26 0 39 182 13 0 +-7.0723648000000008e-04 -3.9778511
99999999e-04 3.6360000000000006e-04 -1.4997597826618576e-32 -6.1232339957367659e
-17 -1.0 1.0 -2.4492935982947066e-16 0.0 81 1 41 27 5 39 0 0 183 4 42 83 3 42 1.
0 1.0 1.0 15 43 28 0 44 39 156 17 44 0 43 50 38 45 49 47 0 328 -18 45 29 0 55 30
 51 46 ?1 29 46 30 0 45 52 31 -7.0723647999999981e-04 3.9221488000000018e-04 3.6
360000000000002e-04 16 47 31 0 ?49 36 53 48 0 0 1 30 48 32 0 47 54 37 0 +-7.0723
647999999981e-04 3.9221488000000018e-04 3.6360000000000002e-04 2.449293598294706
6e-16 1.0 -6.1232339957367659e-17 17 49 0 649 34 328 30 44 47 0 0 +17 50 0 43 56
 44 51 55 53 0 319 +18 51 33 0 61 45 57 52 ?1 29 52 34 0 51 58 46 -6.57236479999
9999e-04 3.9221488000000018e-04 3.6360000000000002e-04 16 53 35 0 ?50 47 59 54 0
 0 1 30 54 36 0 53 60 48 0 +-7.0723647999999981e-04 3.9221488000000018e-04 3.636
0000000000002e-04 1.0 -2.4492935982947066e-16 0.0 17 55 0 286 323 319 45 50 53 0
 44 -17 56 0 43 62 50 57 61 59 0 527 +18 57 37 0 67 51 63 58 ?1 29 58 38 0 57 64
 52 -6.572364799999999e-04 3.1221488000000011e-04 3.6360000000000002e-04 16 59 3
9 0 ?56 53 65 60 0 0 1 30 60 40 0 59 66 54 0 +-6.572364799999999e-04 3.922148800
0000018e-04 3.6360000000000002e-04 -2.4492935982947066e-16 -1.0 6.12323399573676
59e-17 17 61 0 526 322 527 51 56 59 0 50 -17 62 0 43 68 56 63 67 65 0 536 +18 63
 41 0 73 57 69 64 ?1 29 64 42 0 63 70 58 -5.072364799999999e-04 3.12214880000000
06e-04 3.6360000000000002e-04 16 65 43 0 ?62 59 71 66 0 0 1 30 66 44 0 65 72 60
 0 +-6.572364799999999e-04 3.1221488000000011e-04 3.6360000000000002e-04 1.0 -2.
4492935982947066e-16 0.0 17 67 0 535 530 536 57 62 65 0 56 -17 68 0 43 74 62 69
 73 71 0 545 +18 69 45 0 79 63 75 70 ?1 29 70 46 0 69 76 64 -5.0723648000000017e
-04 -3.0778511999999996e-04 3.6360000000000006e-04 16 71 47 0 ?68 65 77 72 0 0 1
 30 72 48 0 71 78 66 0 +-5.072364799999999e-04 3.1221488000000006e-04 3.63600000
00000002e-04 -2.4492935982947066e-16 -1.0 6.1232339957367659e-17 17 73 0 544 539
 545 63 68 71 0 62 -17 74 0 43 80 68 75 79 77 0 554 +18 75 49 0 85 69 81 76 ?1 2
9 76 50 0 75 82 70 -6.5723648000000008e-04 -3.0778511999999987e-04 3.63600000000
00006e-04 16 77 51 0 ?74 71 83 78 0 0 1 30 78 52 0 77 84 72 0 +-5.07236480000000
17e-04 -3.0778511999999996e-04 3.6360000000000006e-04 -1.0 2.4492935982947066e-1
6 0.0 17 79 0 553 548 554 69 74 77 0 68 -17 80 0 43 86 74 81 85 83 0 563 +18 81
 53 0 91 75 87 82 ?1 29 82 54 0 81 88 76 -6.5723648000000008e-04 -3.877851199999
999e-04 3.6360000000000006e-04 16 83 55 0 ?80 77 89 84 0 0 1 30 84 56 0 83 90 78
 0 +-6.5723648000000008e-04 -3.0778511999999987e-04 3.6360000000000006e-04 -2.44
92935982947066e-16 -1.0 6.1232339957367659e-17 17 85 0 562 557 563 75 80 83 0 74
 -17 86 0 43 92 80 87 91 89 0 584 -18 87 57 0 97 81 93 88 ?1 29 88 58 0 87 94 82
 -7.0723647999999999e-04 -3.877851199999999e-04 3.6360000000000006e-04 16 89 59
 0 ?91 83 95 90 0 0 1 30 90 60 0 89 96 84 0 +-7.0723647999999999e-04 -3.87785119
9999999e-04 3.6360000000000006e-04 1.0 -4.2433404295589474e-14 2.583299039549341
4e-30 17 91 0 571 566 584 81 86 89 0 80 +17 92 0 43 98 86 93 97 95 0 665 -18 93
 61 0 103 87 99 94 ?1 29 94 62 0 93 100 88 -7.0723647999999999e-04 -3.9778511999
99999e-04 3.6360000000000006e-04 16 95 63 0 ?97 89 101 96 0 0 1 30 96 64 0 95 10
2 90 0 +-7.0723647999999999e-04 -3.977851199999999e-04 3.6360000000000006e-04 2.
4492935982947066e-16 1.0 -6.1232339957367659e-17 17 97 0 658 587 665 87 92 95 0
 86 +17 98 0 43 104 92 99 103 101 0 271 -18 99 65 0 109 93 105 100 ?1 29 100 66
 0 99 106 94 7.1276351999999994e-04 -3.9778512000000022e-04 3.6360000000000006e-
04 16 101 67 0 ?103 95 107 102 0 0 1 30 102 68 0 101 108 96 0 +7.127635199999999
4e-04 -3.9778512000000022e-04 3.6360000000000006e-04 -1.0 2.4492935982947066e-16
 0.0 17 103 0 695 668 271 93 98 101 0 92 +17 104 0 43 110 98 105 109 107 0 278 +
18 105 69 0 115 99 111 106 ?1 29 106 70 0 105 112 100 7.1276351999999994e-04 -3.
8778512000000022e-04 3.6360000000000006e-04 16 107 71 0 ?104 101 113 108 0 0 1 3
0 108 72 0 107 114 102 0 +7.1276351999999994e-04 -3.9778512000000022e-04 3.63600
00000000006e-04 2.4492935982947066e-16 1.0 -6.1232339957367659e-17 17 109 0 265
 266 278 99 104 107 0 98 -17 110 0 43 116 104 111 115 113 0 613 -18 111 73 0 121
 105 117 112 ?1 29 112 74 0 111 118 106 6.6276351999999994e-04 -3.87785120000000
22e-04 3.6360000000000006e-04 16 113 75 0 ?115 107 119 114 0 0 1 30 114 76 0 113
 120 108 0 +6.6276351999999994e-04 -3.8778512000000022e-04 3.6360000000000006e-0
4 1.0 4.1943545575930532e-14 -2.5832990395493414e-30 17 115 0 592 281 613 105 11
0 113 0 104 +17 116 0 43 122 110 117 121 119 0 788 +18 117 77 0 127 111 123 118
 ?1 29 118 78 0 117 124 112 6.6276351999999994e-04 -3.0778512000000022e-04 3.636
0000000000006e-04 16 119 79 0 ?116 113 125 120 0 0 1 30 120 80 0 119 126 114 0 +
6.6276351999999994e-04 -3.8778512000000022e-04 3.6360000000000006e-04 2.44929359
82947066e-16 1.0 -6.1232339957367659e-17 17 121 0 787 616 788 111 116 119 0 110
 -17 122 0 43 128 116 123 127 125 0 797 +18 123 81 0 133 117 129 124 ?1 29 124 8
2 0 123 130 118 5.1276351999999994e-04 -3.0778512000000013e-04 3.636000000000000
6e-04 16 125 83 0 ?122 119 131 126 0 0 1 30 126 84 0 125 132 120 0 +6.6276351999
999994e-04 -3.0778512000000022e-04 3.6360000000000006e-04 -1.0 2.449293598294706
6e-16 0.0 17 127 0 796 791 797 117 122 125 0 116 -17 128 0 43 134 122 129 133 13
1 0 806 -18 129 85 0 139 123 135 130 ?1 29 130 86 0 129 136 124 5.12763520000000
12e-04 3.1221487999999984e-04 3.6360000000000002e-04 16 131 87 0 ?133 125 137 13
2 0 0 1 30 132 88 0 131 138 126 0 +5.1276352000000012e-04 3.1221487999999984e-04
 3.6360000000000002e-04 -2.4492935982947066e-16 -1.0 6.1232339957367659e-17 17 1
33 0 805 800 806 123 128 131 0 122 +17 134 0 43 140 128 135 139 137 0 815 +18 13
5 89 0 145 129 141 136 ?1 29 136 90 0 135 142 130 6.6276352000000012e-04 3.12214
8799999998e-04 3.6360000000000002e-04 16 137 91 0 ?134 131 143 138 0 0 1 30 138
 92 0 137 144 132 0 +5.1276352000000012e-04 3.1221487999999984e-04 3.63600000000
00002e-04 1.0 -2.4492935982947066e-16 0.0 17 139 0 814 809 815 129 134 137 0 128
 -17 140 0 43 146 134 141 145 143 0 379 +18 141 93 0 151 135 147 142 ?1 29 142 9
4 0 141 148 136 6.6276352000000012e-04 3.9221487999999982e-04 3.6360000000000002
e-04 16 143 95 0 ?140 137 149 144 0 0 1 30 144 96 0 143 150 138 0 +6.62763520000
00012e-04 3.122148799999998e-04 3.6360000000000002e-04 2.4492935982947066e-16 1.
0 -6.1232339957367659e-17 17 145 0 823 818 379 135 140 143 0 134 -17 146 0 43 15
2 140 147 151 149 0 260 +18 147 97 0 155 141 158 148 ?1 29 148 98 0 147 159 142
 7.1276352000000012e-04 3.9221487999999982e-04 3.6360000000000002e-04 16 149 99
 0 ?146 143 153 150 0 0 1 30 150 100 0 149 154 144 0 +6.6276352000000012e-04 3.9
221487999999982e-04 3.6360000000000002e-04 1.0 -2.4492935982947066e-16 0.0 17 15
1 0 349 374 260 141 146 149 0 140 -17 152 0 43 38 146 21 155 153 0 0 +16 153 101
 0 ?152 149 160 154 0 0 1 30 154 102 0 153 161 150 0 +7.1276352000000012e-04 3.9
221487999999982e-04 3.6360000000000002e-04 2.4492935982947066e-16 1.0 -6.1232339
957367659e-17 17 155 0 250 257 20 147 152 153 0 146 -15 156 103 0 157 39 0 17 15
7 0 156 165 177 158 162 160 0 235 +18 158 104 0 170 147 163 159 ?1 29 159 105 0
 158 164 148 -4.9723647999999994e-04 3.5221488000000006e-04 3.6360000000000002e-
04 16 160 106 0 ?157 153 168 161 0 0 1 30 161 107 0 160 169 154 0 +-4.9723648000
000012e-04 -3.4778511999999986e-04 3.6360000000000006e-04 2.4492935982947066e-16
 1.0 -6.1232339957367659e-17 17 162 0 240 189 235 163 157 160 0 186 -18 163 108
 0 177 158 166 164 ?1 29 164 109 0 163 167 159 -4.9723648000000012e-04 -3.477851
1999999986e-04 3.6360000000000006e-04 17 165 0 156 171 157 166 170 168 0 228 +18
 166 110 0 176 163 172 167 ?1 29 167 111 0 166 173 164 5.0276352000000015e-04 3.
5221487999999984e-04 3.6360000000000002e-04 16 168 112 0 ?165 160 174 169 0 0 1
 30 169 113 0 168 175 161 0 +-4.9723647999999994e-04 3.5221488000000006e-04 3.63
60000000000002e-04 1.0 -2.4492935982947066e-16 0.0 17 170 0 227 232 228 158 165
 168 0 157 -17 171 0 156 177 165 172 176 174 0 197 -18 172 114 0 180 166 190 173
 ?1 29 173 115 0 172 191 167 5.0276351999999989e-04 -3.4778512000000008e-04 3.63
60000000000006e-04 16 174 116 0 ?176 168 178 175 0 0 1 30 175 117 0 174 179 169
 0 +5.0276351999999989e-04 -3.4778512000000008e-04 3.6360000000000006e-04 2.4492
935982947066e-16 1.0 -6.1232339957367659e-17 17 176 0 245 231 197 166 171 174 0
 165 +17 177 0 156 157 171 163 180 178 0 162 +16 178 118 0 ?177 174 187 179 0 0
 1 30 179 119 0 178 188 175 0 +5.0276351999999989e-04 -3.4778512000000008e-04 3.
6360000000000006e-04 -1.0 2.4492935982947066e-16 0.0 17 180 0 185 192 186 172 17
7 178 0 171 -14 181 120 183 1.0e-08 202 39 185 11 182 -0 0 202 39 9 50 182 121 0
 181 203 40 0 +5.0276351999999989e-04 -3.4778512000000008e-04 4.5360000000000006
e-04 2.4492935982947066e-16 1.0 -6.1232339957367659e-17 -1.0 2.4492935982947066e
-16 0.0 81 1 183 122 5 181 0 0 204 41 184 83 3 184 1.0 1.0 1.0 15 185 123 0 186
 181 0 17 186 0 185 180 198 163 189 187 0 0 -16 187 124 0 ?189 178 195 188 0 0 1
 30 188 125 0 187 196 179 0 +-4.9723648000000012e-04 -3.4778511999999986e-04 3.6
360000000000006e-04 1.4997597826618576e-32 6.1232339957367659e-17 1.0 17 189 0 2
40 210 162 190 186 187 0 207 +18 190 126 0 198 172 193 191 ?1 29 191 127 0 190 1
94 173 -4.9723648000000012e-04 -3.4778511999999986e-04 4.5360000000000006e-04 17
 192 0 185 198 180 193 197 195 0 218 -18 193 128 0 201 190 211 194 ?1 29 194 129
 0 193 212 191 5.0276351999999989e-04 -3.4778512000000008e-04 4.5360000000000006
e-04 16 195 130 0 ?197 187 199 196 0 0 1 30 196 131 0 195 200 188 0 +5.027635199
9999989e-04 -3.4778512000000008e-04 4.5360000000000006e-04 -1.4997597826618576e-
32 -6.1232339957367659e-17 -1.0 17 197 0 245 176 218 172 192 195 0 0 +17 198 0 1
85 186 192 190 201 199 0 189 +16 199 132 0 ?198 195 208 200 0 0 1 30 200 133 0 1
99 209 196 0 +5.0276351999999989e-04 -3.4778512000000008e-04 4.5360000000000006e
-04 -1.0 2.4492935982947066e-16 0.0 17 201 0 206 213 207 193 198 199 0 192 -14 2
02 134 204 1.0e-08 223 181 206 11 203 +0 0 223 181 9 50 203 135 0 202 224 182 0
 +8.0276352000000024e-04 4.0221487999999983e-04 4.5360000000000006e-04 1.4997597
826618576e-32 6.1232339957367659e-17 1.0 -1.0 2.4492935982947066e-16 0.0 81 1 20
4 136 5 202 0 0 225 183 205 83 3 205 1.0 1.0 1.0 15 206 137 0 207 202 0 17 207 0
 206 201 219 190 210 208 0 0 +16 208 138 0 ?207 199 216 209 0 0 1 30 209 139 0 2
08 217 200 0 +-4.9723647999999994e-04 3.5221488000000006e-04 4.5360000000000006e
-04 -2.4492935982947066e-16 -1.0 6.1232339957367659e-17 17 210 0 240 235 189 211
 207 208 0 232 -18 211 140 0 219 193 214 212 ?1 29 212 141 0 211 215 194 -4.9723
647999999994e-04 3.5221488000000006e-04 4.5360000000000006e-04 17 213 0 206 219
 201 214 218 216 0 231 -18 214 142 0 222 211 255 215 ?1 29 215 143 0 214 256 212
 5.0276352000000015e-04 3.5221487999999984e-04 4.5360000000000006e-04 16 216 144
 0 ?218 208 220 217 0 0 1 30 217 145 0 216 221 209 0 +5.0276352000000015e-04 3.5
221487999999984e-04 4.5360000000000006e-04 -2.4492935982947066e-16 -1.0 6.123233
9957367659e-17 17 218 0 245 197 231 193 213 216 0 0 +17 219 0 206 207 213 211 22
2 220 0 210 +16 220 146 0 ?219 216 229 221 0 0 1 30 221 147 0 220 230 217 0 +5.0
276352000000015e-04 3.5221487999999984e-04 4.5360000000000006e-04 -1.0 2.4492935
982947066e-16 0.0 17 222 0 227 228 232 214 219 220 0 213 -14 223 148 225 1.0e-08
 236 202 227 11 224 -0 0 236 202 9 50 224 149 0 223 237 203 0 +-4.97236479999999
94e-04 3.5221488000000006e-04 4.5360000000000006e-04 -2.4492935982947066e-16 -1.
0 6.1232339957367659e-17 1.0 -2.4492935982947066e-16 0.0 81 1 225 150 5 223 0 0
 238 204 226 83 3 226 1.0 1.0 1.0 15 227 151 0 228 223 0 17 228 0 227 170 222 16
6 231 229 0 0 +16 229 152 0 ?228 220 233 230 0 0 1 30 230 153 0 229 234 221 0 +5
.0276352000000015e-04 3.5221487999999984e-04 4.5360000000000006e-04 -1.499759782
6618576e-32 -6.1232339957367659e-17 -1.0 17 231 0 245 218 176 214 228 229 0 0 -1
7 232 0 227 222 170 211 235 233 0 0 +16 233 154 0 ?232 229 252 234 0 0 1 30 234
 155 0 233 253 230 0 +-4.9723647999999994e-04 3.5221488000000006e-04 3.636000000
0000002e-04 1.4997597826618576e-32 6.1232339957367659e-17 1.0 17 235 0 240 162 2
10 158 232 233 0 0 -14 236 156 238 1.0e-08 241 223 240 11 237 -0 0 241 223 9 50
 237 157 0 236 242 224 0 +-4.9723648000000012e-04 -3.9778511999999994e-04 3.6360
000000000006e-04 1.0 -2.4492935982947066e-16 0.0 1.4997597826618576e-32 6.123233
9957367659e-17 1.0 81 1 238 158 5 236 0 0 243 225 239 83 3 239 1.0 1.0 1.0 15 24
0 159 0 162 236 0 14 241 160 243 1.0e-08 246 236 245 11 242 -0 0 246 236 9 50 24
2 161 0 241 247 237 0 +5.0276351999999989e-04 -3.9778512000000016e-04 4.53600000
00000006e-04 -1.0 2.4492935982947066e-16 0.0 -1.4997597826618576e-32 -6.12323399
57367659e-17 -1.0 81 1 243 162 5 241 0 0 248 238 244 83 3 244 1.0 1.0 1.0 15 245
 163 0 218 241 0 14 246 164 248 1.0e-08 261 241 250 11 247 -0 0 261 241 9 50 247
 165 0 246 262 242 0 +7.1276351999999994e-04 -3.9778512000000022e-04 3.636000000
0000006e-04 -1.0 2.4492935982947066e-16 0.0 -1.4997597826618576e-32 -6.123233995
7367659e-17 -1.0 81 1 248 166 5 246 0 0 263 243 249 83 3 249 1.0 1.0 1.0 15 250
 167 0 251 246 0 17 251 0 250 20 257 16 254 252 0 0 +16 252 168 0 ?251 233 258 2
53 0 0 1 30 253 169 0 252 259 234 0 +7.1276352000000012e-04 3.9221487999999982e-
04 9.3599999999999959e-05 2.4492935982947066e-16 1.0 -6.1232339957367659e-17 17
 254 0 673 373 28 255 251 252 0 370 -18 255 170 0 257 214 267 256 ?1 29 256 171
 0 255 268 215 7.1276352000000012e-04 3.9221487999999982e-04 9.3599999999999959e
-05 17 257 0 250 251 155 255 260 258 0 254 +16 258 172 0 ?257 252 269 259 0 0 1
 30 259 173 0 258 270 253 0 +7.1276352000000012e-04 3.9221487999999982e-04 3.636
0000000000002e-04 -1.4997597826618576e-32 -6.1232339957367659e-17 -1.0 17 260 0
 349 151 370 147 257 258 0 0 -14 261 174 263 1.0e-08 282 246 265 11 262 -0 0 282
 246 9 50 262 175 0 261 283 247 0 +7.1276351999999994e-04 -3.9778512000000022e-0
4 3.6360000000000006e-04 -1.0 2.4492935982947066e-16 0.0 -1.4997597826618576e-32
 -6.1232339957367659e-17 -1.0 81 1 263 176 5 261 0 0 284 248 264 83 3 264 1.0 1.
0 1.0 15 265 177 0 109 261 0 17 266 0 265 272 109 267 271 269 0 681 +18 267 178
 0 277 255 273 268 ?1 29 268 179 0 267 274 256 7.1276351999999994e-04 -3.9778512
000000022e-04 9.3600000000000012e-05 16 269 180 0 ?266 258 275 270 0 0 1 30 270
 181 0 269 276 259 0 +7.1276351999999994e-04 -3.9778512000000022e-04 3.636000000
0000006e-04 -1.4997597826618576e-32 -6.1232339957367659e-17 -1.0 17 271 0 695 10
3 681 99 266 269 0 0 -17 272 0 265 278 266 273 277 275 0 0 +18 273 182 0 622 267
 288 274 ?1 29 274 183 0 273 289 268 7.1276351999999994e-04 -3.8778512000000022e
-04 9.3600000000000012e-05 16 275 184 0 ?272 269 279 276 0 0 1 30 276 185 0 275
 280 270 0 +7.1276351999999994e-04 -3.9778512000000022e-04 9.3600000000000012e-0
5 2.4492935982947066e-16 1.0 -6.1232339957367659e-17 17 277 0 673 678 622 267 27
2 275 0 266 -17 278 0 265 109 272 105 281 279 0 0 -16 279 186 0 ?281 275 290 280
 0 0 1 30 280 187 0 279 291 276 0 +7.1276351999999994e-04 -3.8778512000000022e-0
4 3.6360000000000006e-04 -1.4997597826618576e-32 -6.1232339957367659e-17 -1.0 17
 281 0 592 617 115 273 278 279 0 272 +14 282 188 284 1.0e-08 345 261 286 11 283
 -0 0 345 261 9 50 283 189 0 282 346 262 0 +2.7635200000000952e-06 3.9221488e-04
 2.2859999999999996e-04 -2.4492935982947066e-16 -1.0 6.1232339957367659e-17 1.0
 -2.4492935982947066e-16 0.0 81 1 284 190 5 282 0 0 347 263 285 83 3 285 1.0 1.0
 1.0 15 286 191 0 287 282 0 17 287 0 286 295 341 288 292 290 0 0 -18 288 192 0 4
34 273 293 289 ?1 29 289 193 0 288 294 274 -7.7723647999999984e-04 3.92214880000
00018e-04 3.5999999999999642e-06 16 290 194 0 ?292 279 298 291 0 0 1 30 291 195
 0 290 299 280 0 +-7.7723647999999984e-04 3.9221488000000018e-04 3.5999999999999
642e-06 1.0 -2.4492935982947066e-16 0.0 17 292 0 427 422 434 293 287 290 0 0 +18
 293 196 0 419 288 296 294 ?1 29 294 197 0 293 297 289 -5.1723647999999987e-04 3
.9221488000000014e-04 3.5999999999999642e-06 17 295 0 286 301 287 296 300 298 0
 0 +18 296 198 0 449 293 302 297 ?1 29 297 199 0 296 303 294 -7.9723647999999994
e-04 3.9221488000000018e-04 2.3599999999999981e-05 16 298 200 0 ?295 290 304 299
 0 0 1 31 299 201 0 298 305 291 0 +-7.7723647999999984e-04 3.9221488000000018e-0
4 2.3599999999999986e-05 2.4492935982947066e-16 1.0 -6.1232339957367659e-17 -1.4
997597826618576e-32 -6.1232339957367659e-17 -1.0 2.0e-05 17 300 0 442 437 449 28
8 295 298 0 287 -17 301 0 286 307 295 302 306 304 0 0 -18 302 202 0 464 296 308
 303 ?1 29 303 203 0 302 309 297 -7.9723647999999994e-04 3.9221488000000022e-04
 4.3359999999999994e-04 16 304 204 0 ?306 298 310 305 0 0 1 30 305 205 0 304 311
 299 0 +-7.9723647999999994e-04 3.9221488000000022e-04 4.3359999999999994e-04 -1
.4997597826618576e-32 -6.1232339957367659e-17 -1.0 17 306 0 457 452 464 296 301
 304 0 295 +17 307 0 286 313 301 308 312 310 0 0 +18 308 206 0 479 302 314 309 ?
1 29 309 207 0 308 315 303 -7.7723647999999984e-04 3.9221488000000022e-04 4.5360
000000000006e-04 16 310 208 0 ?307 304 316 311 0 0 1 31 311 209 0 310 317 305 0
 +-7.7723647999999984e-04 3.9221488000000022e-04 4.3359999999999994e-04 2.449293
5982947066e-16 1.0 -6.1232339957367659e-17 -1.0 2.4492935982947066e-16 0.0 2.0e-
05 17 312 0 472 467 479 302 307 310 0 301 -17 313 0 286 319 307 314 318 316 0 0
 -18 314 210 0 518 308 324 315 ?1 29 315 211 0 314 325 309 -6.572364799999999e-0
4 3.9221488000000018e-04 4.5360000000000006e-04 16 316 212 0 ?318 310 320 317 0
 0 1 30 317 213 0 316 321 311 0 +-6.572364799999999e-04 3.9221488000000018e-04 4
.5360000000000006e-04 -1.0 2.4492935982947066e-16 0.0 17 318 0 487 482 518 308 3
13 316 0 307 +17 319 0 286 55 313 51 322 320 0 0 +16 320 214 0 ?319 316 326 321
 0 0 1 30 321 215 0 320 327 317 0 +-6.572364799999999e-04 3.9221488000000018e-04
 4.5360000000000006e-04 -1.4997597826618576e-32 -6.1232339957367659e-17 -1.0 17
 322 0 526 521 61 314 319 320 0 313 -17 323 0 286 329 55 324 328 326 0 0 -18 324
 216 0 650 314 330 325 ?1 29 325 217 0 324 331 315 -7.0723647999999981e-04 3.922
1488000000018e-04 9.3599999999999959e-05 16 326 218 0 ?328 320 332 327 0 0 1 30
 327 219 0 326 333 321 0 +-7.0723647999999981e-04 3.9221488000000018e-04 9.35999
99999999959e-05 1.4997597826618576e-32 6.1232339957367659e-17 1.0 17 328 0 649 4
9 650 45 323 326 0 0 +17 329 0 286 335 323 330 334 332 0 0 -18 330 220 0 340 324
 336 331 ?1 29 331 221 0 330 337 325 -4.9723647999999994e-04 3.9221488000000014e
-04 9.3599999999999959e-05 16 332 222 0 ?334 326 338 333 0 0 1 30 333 223 0 332
 339 327 0 +-4.9723647999999994e-04 3.9221488000000014e-04 9.3599999999999959e-0
5 -1.0 2.4492935982947066e-16 0.0 17 334 0 673 653 682 324 329 332 0 323 +17 335
 0 286 341 329 336 340 338 0 0 -18 336 224 0 412 330 351 337 ?1 29 337 225 0 336
 352 331 -4.9723647999999994e-04 3.9221488000000014e-04 2.3599999999999981e-05 1
6 338 226 0 ?340 332 342 339 0 0 1 30 339 227 0 338 343 333 0 +-4.97236479999999
94e-04 3.9221488000000014e-04 2.3599999999999981e-05 1.4997597826618576e-32 6.12
32339957367659e-17 1.0 17 340 0 690 685 412 330 335 338 0 682 +17 341 0 286 287
 335 293 344 342 0 292 +16 342 228 0 ?341 338 353 343 0 0 1 31 343 229 0 342 354
 339 0 +-5.1723647999999996e-04 3.9221488000000014e-04 2.3599999999999986e-05 2.
4492935982947066e-16 1.0 -6.1232339957367659e-17 1.0 -2.4492935982947066e-16 0.0
 2.0e-05 17 344 0 406 407 419 336 341 342 0 335 -14 345 230 347 1.0e-08 402 282
 349 11 346 -0 0 402 282 9 50 346 231 0 345 403 283 0 +2.7635200000000952e-06 3.
9221488e-04 2.2859999999999996e-04 -2.4492935982947066e-16 -1.0 6.12323399573676
59e-17 1.0 -2.4492935982947066e-16 0.0 81 1 347 232 5 345 0 0 404 284 348 83 3 3
48 1.0 1.0 1.0 15 349 233 0 350 345 0 17 350 0 349 358 398 351 355 353 0 713 -18
 351 234 0 363 336 356 352 ?1 29 352 235 0 351 357 337 5.2276352000000017e-04 3.
9221487999999982e-04 3.5999999999999642e-06 16 353 236 0 ?355 342 361 354 0 0 1
 30 354 237 0 353 362 343 0 +5.2276352000000017e-04 3.9221487999999982e-04 3.599
9999999999642e-06 1.0 -2.4492935982947066e-16 0.0 17 355 0 718 719 713 356 350 3
53 0 722 +18 356 238 0 355 351 359 357 ?1 29 357 239 0 356 360 352 7.82763520000
00014e-04 3.9221487999999978e-04 3.5999999999999642e-06 17 358 0 349 364 350 359
 363 361 0 704 +18 359 240 0 358 356 365 360 ?1 29 360 241 0 359 366 357 5.02763
52000000015e-04 3.9221487999999992e-04 2.3599999999999981e-05 16 361 242 0 ?358
 353 367 362 0 0 1 31 362 243 0 361 368 354 0 +5.2276352000000017e-04 3.92214879
99999982e-04 2.3599999999999986e-05 2.4492935982947066e-16 1.0 -6.12323399573676
59e-17 -1.4997597826618576e-32 -6.1232339957367659e-17 -1.0 2.0e-05 17 363 0 709
 710 704 351 358 361 0 350 -17 364 0 349 370 358 365 369 367 0 0 -18 365 244 0 6
77 359 375 366 ?1 29 366 245 0 365 376 360 5.0276352000000015e-04 3.922148799999
9992e-04 9.3599999999999959e-05 16 367 246 0 ?369 361 371 368 0 0 1 30 368 247 0
 367 372 362 0 +5.0276352000000015e-04 3.9221487999999992e-04 9.3599999999999959
e-05 -1.4997597826618576e-32 -6.1232339957367659e-17 -1.0 17 369 0 700 701 677 3
59 364 367 0 0 +17 370 0 349 260 364 255 373 371 0 0 +16 371 248 0 ?370 367 377
 372 0 0 1 30 372 249 0 371 378 368 0 +5.0276352000000015e-04 3.9221487999999992
e-04 9.3599999999999959e-05 1.0 -2.4492935982947066e-16 0.0 17 373 0 673 674 254
 365 370 371 0 364 -17 374 0 349 380 151 375 379 377 0 0 -18 375 250 0 385 365 3
81 376 ?1 29 376 251 0 375 382 366 6.6276352000000012e-04 3.9221487999999982e-04
 4.5360000000000006e-04 16 377 252 0 ?379 371 383 378 0 0 1 30 378 253 0 377 384
 372 0 +6.6276352000000012e-04 3.9221487999999982e-04 4.5360000000000006e-04 -1.
4997597826618576e-32 -6.1232339957367659e-17 -1.0 17 379 0 823 145 760 141 374 3
77 0 0 +17 380 0 349 386 374 381 385 383 0 0 -18 381 254 0 749 375 387 382 ?1 29
 382 255 0 381 388 376 7.8276352000000014e-04 3.9221487999999982e-04 4.536000000
0000006e-04 16 383 256 0 ?385 377 389 384 0 0 1 30 384 257 0 383 390 378 0 +7.82
76352000000014e-04 3.9221487999999982e-04 4.5360000000000006e-04 -1.0 2.44929359
82947066e-16 0.0 17 385 0 754 755 749 375 380 383 0 760 +17 386 0 349 392 380 38
7 391 389 0 0 +18 387 258 0 740 381 393 388 ?1 29 388 259 0 387 394 382 8.027635
2000000024e-04 3.9221487999999982e-04 4.3359999999999994e-04 16 389 260 0 ?386 3
83 395 390 0 0 1 31 390 261 0 389 396 384 0 +7.8276352000000022e-04 3.9221487999
999982e-04 4.3359999999999994e-04 2.4492935982947066e-16 1.0 -6.1232339957367659
e-17 1.4997597826618576e-32 6.1232339957367659e-17 1.0 2.0e-05 17 391 0 745 746
 740 381 386 389 0 380 -17 392 0 349 398 386 393 397 395 0 0 -18 393 262 0 731 3
87 408 394 ?1 29 394 263 0 393 409 388 8.0276352000000024e-04 3.9221487999999978
e-04 2.3599999999999981e-05 16 395 264 0 ?397 389 399 396 0 0 1 30 396 265 0 395
 400 390 0 +8.0276352000000024e-04 3.9221487999999978e-04 2.3599999999999981e-05
 1.4997597826618576e-32 6.1232339957367659e-17 1.0 17 397 0 736 737 731 387 392
 395 0 386 +17 398 0 349 350 392 356 401 399 0 0 +16 399 266 0 ?398 395 410 400
 0 0 1 31 400 267 0 399 411 396 0 +7.8276352000000022e-04 3.9221487999999978e-04
 2.3599999999999986e-05 2.4492935982947066e-16 1.0 -6.1232339957367659e-17 1.0 -
2.4492935982947066e-16 0.0 2.0e-05 17 401 0 727 728 722 393 398 399 0 392 -14 40
2 268 404 1.0e-08 423 345 406 11 403 +0 0 423 345 9 51 403 269 0 402 424 346 0 +
-5.172364800000004e-04 -0.00144066512 2.3600000000000092e-05 2.4492935982947066e
-16 1.0 -6.1232339957367659e-17 2.0e-05 1.0 -2.4492935982947066e-16 0.0 81 1 404
 270 5 402 0 0 425 347 405 83 3 405 1.0 1.0 1.0 15 406 271 0 407 402 0 17 407 0
 406 413 344 408 412 410 0 418 -18 408 272 0 407 393 414 409 ?1 29 409 273 0 408
 415 394 -4.9723648000000012e-04 -3.8778511999999994e-04 2.3600000000000039e-05
 16 410 274 0 ?412 399 416 411 0 0 1 30 411 275 0 410 417 400 0 +-4.972364800000
0012e-04 -3.8778511999999994e-04 2.3600000000000039e-05 2.4492935982947066e-16 1
.0 -6.1232339957367659e-17 17 412 0 690 340 577 336 407 410 0 344 +17 413 0 406
 419 407 414 418 416 0 422 -18 414 276 0 413 408 429 415 ?1 29 415 277 0 414 430
 409 -5.1723648000000013e-04 -3.8778511999999994e-04 3.6000000000000196e-06 16 4
16 278 0 ?418 410 420 417 0 0 1 31 417 279 0 416 421 411 0 +-5.1723648000000013e
-04 -3.8778511999999994e-04 2.3600000000000039e-05 -2.4492935982947066e-16 -1.0
 6.1232339957367659e-17 -1.4997597826618576e-32 -6.1232339957367659e-17 -1.0 2.0
e-05 17 418 0 571 572 433 408 413 416 0 577 +17 419 0 406 344 413 293 422 420 0
 341 +16 420 280 0 ?419 416 431 421 0 0 1 30 421 281 0 420 432 417 0 +-5.1723648
000000013e-04 -3.8778511999999994e-04 3.6000000000000196e-06 2.4492935982947066e
-16 1.0 -6.1232339957367659e-17 17 422 0 427 428 292 414 419 420 0 433 -14 423 2
82 425 1.0e-08 438 402 427 11 424 +0 0 438 402 9 50 424 283 0 423 439 403 0 +-7.
9723647999999994e-04 3.9221488000000018e-04 3.5999999999999642e-06 -1.4997597826
618576e-32 -6.1232339957367659e-17 -1.0 1.0 -2.4492935982947066e-16 0.0 81 1 425
 284 5 423 0 0 440 404 426 83 3 426 1.0 1.0 1.0 15 427 285 0 428 423 0 17 428 0
 427 434 422 429 433 431 0 448 -18 429 286 0 437 414 444 430 ?1 29 430 287 0 429
 445 415 -7.772364800000001e-04 -3.877851199999999e-04 3.6000000000000196e-06 16
 431 288 0 ?433 420 435 432 0 0 1 30 432 289 0 431 436 421 0 +-7.772364800000001
e-04 -3.877851199999999e-04 3.6000000000000196e-06 1.0 -2.4492935982947066e-16 0
.0 17 433 0 571 418 448 414 428 431 0 0 +17 434 0 427 292 428 288 437 435 0 300
 +16 435 290 0 ?434 431 446 436 0 0 1 30 436 291 0 435 447 432 0 +-7.77236480000
0001e-04 -3.877851199999999e-04 3.6000000000000196e-06 2.4492935982947066e-16 1.
0 -6.1232339957367659e-17 17 437 0 442 443 300 429 434 435 0 428 -14 438 292 440
 1.0e-08 453 423 442 11 439 +0 0 453 423 9 51 439 293 0 438 454 424 0 +-7.772364
8000000046e-04 -0.00144066512 2.3600000000000092e-05 2.4492935982947066e-16 1.0
 -6.1232339957367659e-17 2.0e-05 -1.4997597826618576e-32 -6.1232339957367659e-17
 -1.0 81 1 440 294 5 438 0 0 455 425 441 83 3 441 1.0 1.0 1.0 15 442 295 0 437 4
38 0 17 443 0 442 449 437 444 448 446 0 452 -18 444 296 0 443 429 459 445 ?1 29
 445 297 0 444 460 430 -7.9723648000000012e-04 -3.877851199999999e-04 2.36000000
00000039e-05 16 446 298 0 ?448 435 450 447 0 0 1 31 447 299 0 446 451 436 0 +-7.
772364800000001e-04 -3.877851199999999e-04 2.3600000000000039e-05 -2.44929359829
47066e-16 -1.0 6.1232339957367659e-17 -1.0 2.4492935982947066e-16 0.0 2.0e-05 17
 448 0 571 433 463 429 443 446 0 0 +17 449 0 442 300 443 296 452 450 0 306 +16 4
50 300 0 ?449 446 461 451 0 0 1 30 451 301 0 450 462 447 0 +-7.9723648000000012e
-04 -3.877851199999999e-04 2.3600000000000039e-05 2.4492935982947066e-16 1.0 -6.
1232339957367659e-17 17 452 0 457 458 306 444 449 450 0 463 -14 453 302 455 1.0e
-08 468 438 457 11 454 +0 0 468 438 9 50 454 303 0 453 469 439 0 +-7.97236479999
99994e-04 3.9221488000000022e-04 4.5360000000000006e-04 -1.0 2.4492935982947066e
-16 0.0 -1.4997597826618576e-32 -6.1232339957367659e-17 -1.0 81 1 455 304 5 453
 0 0 470 440 456 83 3 456 1.0 1.0 1.0 15 457 305 0 458 453 0 17 458 0 457 464 45
2 459 463 461 0 478 -18 459 306 0 467 444 474 460 ?1 29 460 307 0 459 475 445 -7
.9723648000000012e-04 -3.8778511999999982e-04 4.3359999999999994e-04 16 461 308
 0 ?463 450 465 462 0 0 1 30 462 309 0 461 466 451 0 +-7.9723648000000012e-04 -3
.8778511999999982e-04 4.3359999999999994e-04 -1.4997597826618576e-32 -6.12323399
57367659e-17 -1.0 17 463 0 571 448 478 444 458 461 0 0 +17 464 0 457 306 458 302
 467 465 0 312 +16 465 310 0 ?464 461 476 466 0 0 1 30 466 311 0 465 477 462 0 +
-7.9723648000000012e-04 -3.8778511999999982e-04 4.3359999999999994e-04 2.4492935
982947066e-16 1.0 -6.1232339957367659e-17 17 467 0 472 473 312 459 464 465 0 458
 -14 468 312 470 1.0e-08 483 453 472 11 469 +0 0 483 453 9 51 469 313 0 468 484
 454 0 +-7.7723648000000046e-04 -0.00144066512 4.3360000000000012e-04 2.44929359
82947066e-16 1.0 -6.1232339957367659e-17 2.0e-05 -1.0 2.4492935982947066e-16 0.0
 81 1 470 314 5 468 0 0 485 455 471 83 3 471 1.0 1.0 1.0 15 472 315 0 467 468 0
 17 473 0 472 479 467 474 478 476 0 482 -18 474 316 0 473 459 489 475 ?1 29 475
 317 0 474 490 460 -7.772364800000001e-04 -3.8778511999999982e-04 4.536000000000
0006e-04 16 476 318 0 ?478 465 480 477 0 0 1 31 477 319 0 476 481 466 0 +-7.7723
64800000001e-04 -3.8778511999999982e-04 4.3359999999999994e-04 -2.44929359829470
66e-16 -1.0 6.1232339957367659e-17 1.4997597826618576e-32 6.1232339957367659e-17
 1.0 2.0e-05 17 478 0 571 463 493 459 473 476 0 0 +17 479 0 472 312 473 308 482
 480 0 318 +16 480 320 0 ?479 476 491 481 0 0 1 30 481 321 0 480 492 477 0 +-7.7
72364800000001e-04 -3.8778511999999982e-04 4.5360000000000006e-04 2.449293598294
7066e-16 1.0 -6.1232339957367659e-17 17 482 0 487 488 318 474 479 480 0 493 -14
 483 322 485 1.0e-08 522 468 487 11 484 +0 0 522 468 9 50 484 323 0 483 523 469
 0 +-5.072364799999999e-04 3.9221488000000014e-04 4.5360000000000006e-04 1.49975
97826618576e-32 6.1232339957367659e-17 1.0 -1.0 2.4492935982947066e-16 0.0 81 1
 485 324 5 483 0 0 524 470 486 83 3 486 1.0 1.0 1.0 15 487 325 0 488 483 0 17 48
8 0 487 494 482 489 493 491 0 566 -18 489 326 0 499 474 495 490 ?1 29 490 327 0
 489 496 475 -6.5723648000000008e-04 -3.877851199999999e-04 4.5360000000000006e-
04 16 491 328 0 ?493 480 497 492 0 0 1 30 492 329 0 491 498 481 0 +-6.5723648000
000008e-04 -3.877851199999999e-04 4.5360000000000006e-04 -1.0 2.4492935982947066
e-16 0.0 17 493 0 571 478 566 474 488 491 0 0 +17 494 0 487 500 488 495 499 497
 0 557 +18 495 330 0 505 489 501 496 ?1 29 496 331 0 495 502 490 -6.572364800000
0008e-04 -3.0778511999999987e-04 4.5360000000000006e-04 16 497 332 0 ?494 491 50
3 498 0 0 1 30 498 333 0 497 504 492 0 +-6.5723648000000008e-04 -3.8778511999999
99e-04 4.5360000000000006e-04 2.4492935982947066e-16 1.0 -6.1232339957367659e-17
 17 499 0 562 563 557 489 494 497 0 488 -17 500 0 487 506 494 501 505 503 0 548
 -18 501 334 0 511 495 507 502 ?1 29 502 335 0 501 508 496 -5.0723648000000017e-
04 -3.0778511999999996e-04 4.5360000000000006e-04 16 503 336 0 ?505 497 509 504
 0 0 1 30 504 337 0 503 510 498 0 +-5.0723648000000017e-04 -3.0778511999999996e-
04 4.5360000000000006e-04 -1.0 2.4492935982947066e-16 0.0 17 505 0 553 554 548 4
95 500 503 0 494 +17 506 0 487 512 500 507 511 509 0 539 -18 507 338 0 517 501 5
13 508 ?1 29 508 339 0 507 514 502 -5.072364799999999e-04 3.1221488000000006e-04
 4.5360000000000006e-04 16 509 340 0 ?511 503 515 510 0 0 1 30 510 341 0 509 516
 504 0 +-5.072364799999999e-04 3.1221488000000006e-04 4.5360000000000006e-04 -2.
4492935982947066e-16 -1.0 6.1232339957367659e-17 17 511 0 544 545 539 501 506 50
9 0 500 +17 512 0 487 518 506 513 517 515 0 530 +18 513 342 0 521 507 573 514 ?1
 29 514 343 0 513 574 508 -6.572364799999999e-04 3.1221488000000011e-04 4.536000
0000000006e-04 16 515 344 0 ?512 509 519 516 0 0 1 30 516 345 0 515 520 510 0 +-
5.072364799999999e-04 3.1221488000000006e-04 4.5360000000000006e-04 -1.0 2.44929
35982947066e-16 0.0 17 517 0 535 536 530 507 512 515 0 506 -17 518 0 487 318 512
 314 521 519 0 322 -16 519 346 0 ?521 515 528 520 0 0 1 30 520 347 0 519 529 516
 0 +-6.572364799999999e-04 3.9221488000000018e-04 4.5360000000000006e-04 -2.4492
935982947066e-16 -1.0 6.1232339957367659e-17 17 521 0 526 527 322 513 518 519 0
 512 +14 522 348 524 1.0e-08 531 483 526 11 523 -0 0 531 483 9 50 523 349 0 522
 532 484 0 +-6.572364799999999e-04 3.9221488000000018e-04 4.5360000000000006e-04
 -1.0 2.4492935982947066e-16 0.0 -2.4492935982947066e-16 -1.0 6.1232339957367659
e-17 81 1 524 350 5 522 0 0 533 485 525 83 3 525 1.0 1.0 1.0 15 526 351 0 521 52
2 0 17 527 0 526 61 521 57 530 528 0 0 +16 528 352 0 ?527 519 537 529 0 0 1 30 5
29 353 0 528 538 520 0 +-6.572364799999999e-04 3.1221488000000011e-04 4.53600000
00000006e-04 -1.4997597826618576e-32 -6.1232339957367659e-17 -1.0 17 530 0 535 5
17 67 513 527 528 0 0 -14 531 354 533 1.0e-08 540 522 535 11 532 -0 0 540 522 9
 50 532 355 0 531 541 523 0 +-6.572364799999999e-04 3.1221488000000011e-04 4.536
0000000000006e-04 -2.4492935982947066e-16 -1.0 6.1232339957367659e-17 1.0 -2.449
2935982947066e-16 0.0 81 1 533 356 5 531 0 0 542 524 534 83 3 534 1.0 1.0 1.0 15
 535 357 0 67 531 0 17 536 0 535 67 517 63 539 537 0 0 -16 537 358 0 ?539 528 54
6 538 0 0 1 30 538 359 0 537 547 529 0 +-5.072364799999999e-04 3.122148800000000
6e-04 3.6360000000000002e-04 1.4997597826618576e-32 6.1232339957367659e-17 1.0 1
7 539 0 544 511 73 507 536 537 0 0 +14 540 360 542 1.0e-08 549 531 544 11 541 +0
 0 549 531 9 50 541 361 0 540 550 532 0 +-5.072364799999999e-04 3.92214880000000
14e-04 3.6360000000000002e-04 1.0 -2.4492935982947066e-16 0.0 1.4997597826618576
e-32 6.1232339957367659e-17 1.0 81 1 542 362 5 540 0 0 551 533 543 83 3 543 1.0
 1.0 1.0 15 544 363 0 511 540 0 17 545 0 544 73 511 69 548 546 0 0 -16 546 364 0
 ?548 537 555 547 0 0 1 30 547 365 0 546 556 538 0 +-5.0723648000000017e-04 -3.0
778511999999996e-04 3.6360000000000006e-04 1.4997597826618576e-32 6.123233995736
7659e-17 1.0 17 548 0 553 505 79 501 545 546 0 0 +14 549 366 551 1.0e-08 558 540
 553 11 550 -0 0 558 540 9 50 550 367 0 549 559 541 0 +-4.9723648000000012e-04 -
3.0778511999999996e-04 4.5360000000000006e-04 2.4492935982947066e-16 1.0 -6.1232
339957367659e-17 -1.0 2.4492935982947066e-16 0.0 81 1 551 368 5 549 0 0 560 542
 552 83 3 552 1.0 1.0 1.0 15 553 369 0 505 549 0 17 554 0 553 79 505 75 557 555
 0 0 +16 555 370 0 ?554 546 564 556 0 0 1 30 556 371 0 555 565 547 0 +-6.5723648
000000008e-04 -3.0778511999999987e-04 4.5360000000000006e-04 -1.4997597826618576
e-32 -6.1232339957367659e-17 -1.0 17 557 0 562 499 85 495 554 555 0 0 -14 558 37
2 560 1.0e-08 567 549 562 11 559 -0 0 567 549 9 50 559 373 0 558 568 550 0 +-6.5
723648000000008e-04 -3.0778511999999987e-04 4.5360000000000006e-04 -1.0 2.449293
5982947066e-16 0.0 -2.4492935982947066e-16 -1.0 6.1232339957367659e-17 81 1 560
 374 5 558 0 0 569 551 561 83 3 561 1.0 1.0 1.0 15 562 375 0 85 558 0 17 563 0 5
62 85 499 81 566 564 0 0 +16 564 376 0 ?563 555 575 565 0 0 1 30 565 377 0 564 5
76 556 0 +-6.5723648000000008e-04 -3.877851199999999e-04 4.5360000000000006e-04
 -5.4535218916134172e-30 -2.2265692832457371e-14 -1.0 17 566 0 571 493 91 489 56
3 564 0 0 -14 567 378 569 1.0e-08 588 558 571 11 568 +0 0 588 558 9 50 568 379 0
 567 589 559 0 +2.7635199999999044e-06 -3.8778512000000004e-04 2.286000000000000
5e-04 -2.4492935982947066e-16 -1.0 6.1232339957367659e-17 1.0 -2.449293598294706
6e-16 0.0 81 1 569 380 5 567 0 0 590 560 570 83 3 570 1.0 1.0 1.0 15 571 381 0 5
72 567 0 17 572 0 571 578 418 573 577 575 0 685 +18 573 382 0 583 513 579 574 ?1
 29 574 383 0 573 580 514 -4.9723648000000012e-04 -3.8778511999999994e-04 9.3600
000000000012e-05 16 575 384 0 ?572 564 581 576 0 0 1 30 576 385 0 575 582 565 0
 +-4.9723648000000012e-04 -3.8778511999999994e-04 2.3600000000000039e-05 1.49975
97826618576e-32 6.1232339957367659e-17 1.0 17 577 0 690 412 685 408 572 575 0 0
 -17 578 0 571 584 572 579 583 581 0 664 +18 579 386 0 587 573 594 580 ?1 29 580
 387 0 579 595 574 -7.0723647999999999e-04 -3.877851199999999e-04 9.360000000000
0012e-05 16 581 388 0 ?578 575 585 582 0 0 1 30 582 389 0 581 586 576 0 +-4.9723
648000000012e-04 -3.8778511999999994e-04 9.3600000000000012e-05 -1.0 2.449293598
2947066e-16 0.0 17 583 0 673 682 664 573 578 581 0 572 -17 584 0 571 91 578 87 5
87 585 0 0 +16 585 390 0 ?584 581 596 586 0 0 1 30 586 391 0 585 597 582 0 +-7.0
723647999999999e-04 -3.877851199999999e-04 9.3600000000000012e-05 1.499759782661
8576e-32 6.1232339957367659e-17 1.0 17 587 0 658 659 97 579 584 585 0 578 -14 58
8 392 590 1.0e-08 645 567 592 11 589 +0 0 645 567 9 50 589 393 0 588 646 568 0 +
2.7635199999999044e-06 -3.8778512000000004e-04 2.2860000000000005e-04 -2.4492935
982947066e-16 -1.0 6.1232339957367659e-17 1.0 -2.4492935982947066e-16 0.0 81 1 5
90 394 5 588 0 0 647 569 591 83 3 591 1.0 1.0 1.0 15 592 395 0 593 588 0 17 593
 0 592 601 641 594 598 596 0 737 +18 594 396 0 606 579 599 595 ?1 29 595 397 0 5
94 600 580 8.0276351999999989e-04 -3.8778512000000022e-04 4.3359999999999994e-04
 16 596 398 0 ?593 585 604 597 0 0 1 30 597 399 0 596 605 586 0 +8.0276351999999
989e-04 -3.8778512000000026e-04 2.3600000000000039e-05 1.4997597826618576e-32 6.
1232339957367659e-17 1.0 17 598 0 736 731 737 599 593 596 0 728 -18 599 400 0 64
1 594 602 600 ?1 29 600 401 0 599 603 595 8.0276351999999989e-04 -3.877851200000
0026e-04 2.3600000000000039e-05 17 601 0 592 607 593 602 606 604 0 746 +18 602 4
02 0 612 599 608 603 ?1 29 603 403 0 602 609 600 7.8276351999999988e-04 -3.87785
12000000022e-04 4.5360000000000006e-04 16 604 404 0 ?601 596 610 605 0 0 1 31 60
5 405 0 604 611 597 0 +7.8276351999999996e-04 -3.8778512000000022e-04 4.33599999
99999994e-04 -2.4492935982947066e-16 -1.0 6.1232339957367659e-17 1.0 -2.44929359
82947066e-16 0.0 2.0e-05 17 606 0 745 740 746 594 601 604 0 593 -17 607 0 592 61
3 601 608 612 610 0 779 +18 608 406 0 616 602 618 609 ?1 29 609 407 0 608 619 60
3 6.6276351999999994e-04 -3.8778512000000022e-04 4.5360000000000006e-04 16 610 4
08 0 ?607 604 614 611 0 0 1 30 611 409 0 610 615 605 0 +7.8276351999999988e-04 -
3.8778512000000022e-04 4.5360000000000006e-04 -1.0 2.4492935982947066e-16 0.0 17
 612 0 754 749 779 602 607 610 0 601 -17 613 0 592 115 607 111 616 614 0 0 +16 6
14 410 0 ?613 610 620 615 0 0 1 30 615 411 0 614 621 611 0 +6.6276351999999994e-
04 -3.8778512000000022e-04 4.5360000000000006e-04 -5.7556621301590322e-30 -2.349
9273970937367e-14 -1.0 17 616 0 787 782 121 608 613 614 0 607 -17 617 0 592 623
 281 618 622 620 0 674 -18 618 412 0 628 608 624 619 ?1 29 619 413 0 618 625 609
 5.0276351999999989e-04 -3.8778512000000016e-04 9.3600000000000012e-05 16 620 41
4 0 ?622 614 626 621 0 0 1 30 621 415 0 620 627 615 0 +5.0276351999999989e-04 -3
.8778512000000016e-04 9.3600000000000012e-05 1.0 -2.4492935982947066e-16 0.0 17
 622 0 673 277 674 273 617 620 0 281 +17 623 0 592 629 617 624 628 626 0 701 +18
 624 416 0 634 618 630 625 ?1 29 625 417 0 624 631 619 5.0276351999999989e-04 -3
.8778512000000016e-04 2.3600000000000039e-05 16 626 418 0 ?623 620 632 627 0 0 1
 30 627 419 0 626 633 621 0 +5.0276351999999989e-04 -3.8778512000000016e-04 9.36
00000000000012e-05 -1.4997597826618576e-32 -6.1232339957367659e-17 -1.0 17 628 0
 700 677 701 618 623 626 0 617 -17 629 0 592 635 623 630 634 632 0 710 +18 630 4
20 0 640 624 636 631 ?1 29 631 421 0 630 637 625 5.2276352e-04 -3.87785120000000
22e-04 3.6000000000000196e-06 16 632 422 0 ?629 626 638 633 0 0 1 31 633 423 0 6
32 639 627 0 +5.2276352e-04 -3.8778512000000022e-04 2.3600000000000039e-05 -2.44
92935982947066e-16 -1.0 6.1232339957367659e-17 -1.0 2.4492935982947066e-16 0.0 2
.0e-05 17 634 0 709 704 710 624 629 632 0 623 -17 635 0 592 641 629 636 640 638
 0 719 +18 636 424 0 644 630 660 637 ?1 29 637 425 0 636 661 631 7.8276351999999
988e-04 -3.8778512000000026e-04 3.6000000000000196e-06 16 638 426 0 ?635 632 642
 639 0 0 1 30 639 427 0 638 643 633 0 +5.2276352e-04 -3.8778512000000022e-04 3.6
000000000000196e-06 1.0 -2.4492935982947066e-16 0.0 17 640 0 718 713 719 630 635
 638 0 629 -17 641 0 592 593 635 599 644 642 0 598 +16 642 428 0 ?641 638 651 64
3 0 0 1 31 643 429 0 642 652 639 0 +7.8276351999999996e-04 -3.8778512000000026e-
04 2.3600000000000039e-05 -2.4492935982947066e-16 -1.0 6.1232339957367659e-17 -1
.4997597826618576e-32 -6.1232339957367659e-17 -1.0 2.0e-05 17 644 0 727 722 728
 636 641 642 0 635 -14 645 430 647 1.0e-08 654 588 649 11 646 -0 0 654 588 9 50
 646 431 0 645 655 589 0 +-7.0723648000000008e-04 -3.977851199999999e-04 9.36000
00000000012e-05 1.0 -2.4492935982947066e-16 0.0 1.4997597826618576e-32 6.1232339
957367659e-17 1.0 81 1 647 432 5 645 0 0 656 590 648 83 3 648 1.0 1.0 1.0 15 649
 433 0 49 645 0 17 650 0 649 328 34 324 653 651 0 334 -16 651 434 0 ?653 642 662
 652 0 0 1 30 652 435 0 651 663 643 0 +-7.0723647999999981e-04 3.922148800000001
8e-04 9.3599999999999959e-05 2.4492935982947066e-16 1.0 -6.1232339957367659e-17
 17 653 0 673 28 334 24 650 651 0 0 +14 654 436 656 1.0e-08 669 645 658 11 655 -
0 0 669 645 9 50 655 437 0 654 670 646 0 +-7.0723648000000008e-04 -3.97785119999
9999e-04 9.3600000000000012e-05 1.0 -2.4492935982947066e-16 0.0 1.49975978266185
76e-32 6.1232339957367659e-17 1.0 81 1 656 438 5 654 0 0 671 647 657 83 3 657 1.
0 1.0 1.0 15 658 439 0 659 654 0 17 659 0 658 665 587 660 664 662 0 678 -18 660
 440 0 668 636 756 661 ?1 29 661 441 0 660 757 637 -7.0723647999999999e-04 -3.97
7851199999999e-04 9.3600000000000012e-05 16 662 442 0 ?664 651 666 663 0 0 1 30
 663 443 0 662 667 652 0 +-7.0723647999999999e-04 -3.977851199999999e-04 9.36000
00000000012e-05 2.4492935982947066e-16 1.0 -6.1232339957367659e-17 17 664 0 673
 583 678 579 659 662 0 0 +17 665 0 658 97 659 93 668 666 0 0 +16 666 444 0 ?665
 662 675 667 0 0 1 30 667 445 0 666 676 663 0 +-7.0723647999999999e-04 -3.977851
199999999e-04 9.3600000000000012e-05 1.4997597826618576e-32 6.1232339957367659e-
17 1.0 17 668 0 695 681 103 660 665 666 0 659 -14 669 446 671 1.0e-08 686 654 67
3 11 670 -0 0 686 654 9 50 670 447 0 669 687 655 0 +7.1276351999999994e-04 -3.97
78512000000022e-04 9.3600000000000012e-05 1.4997597826618576e-32 6.1232339957367
659e-17 1.0 -1.0 2.4492935982947066e-16 0.0 81 1 671 448 5 669 0 0 688 656 672 8
3 3 672 1.0 1.0 1.0 15 673 449 0 674 669 0 17 674 0 673 622 373 618 677 675 0 0
 +16 675 450 0 ?674 666 679 676 0 0 1 30 676 451 0 675 680 667 0 +5.027635200000
0015e-04 3.9221487999999992e-04 9.3599999999999959e-05 -2.4492935982947066e-16 -
1.0 6.1232339957367659e-17 17 677 0 700 369 628 365 674 675 0 373 -17 678 0 673
 664 277 660 681 679 0 0 +16 679 452 0 ?678 675 683 680 0 0 1 30 680 453 0 679 6
84 676 0 +7.1276351999999994e-04 -3.9778512000000022e-04 9.3600000000000012e-05
 -1.0 2.4492935982947066e-16 0.0 17 681 0 695 271 668 267 678 679 0 0 -17 682 0
 673 334 583 330 685 683 0 329 -16 683 454 0 ?685 679 702 684 0 0 1 30 684 455 0
 683 703 680 0 +-4.9723647999999994e-04 3.9221488000000014e-04 9.359999999999995
9e-05 -2.4492935982947066e-16 -1.0 6.1232339957367659e-17 17 685 0 690 577 340 5
73 682 683 0 0 +14 686 456 688 1.0e-08 691 669 690 11 687 +0 0 691 669 9 50 687
 457 0 686 692 670 0 +-4.9723647999999994e-04 3.9221488000000014e-04 3.599999999
9999642e-06 1.0 -2.4492935982947066e-16 0.0 1.4997597826618576e-32 6.12323399573
67659e-17 1.0 81 1 688 458 5 686 0 0 693 671 689 83 3 689 1.0 1.0 1.0 15 690 459
 0 340 686 0 14 691 460 693 1.0e-08 696 686 695 11 692 +0 0 696 686 9 50 692 461
 0 691 697 687 0 +2.7635199999999016e-06 -3.9778512000000008e-04 2.2860000000000
005e-04 -2.4492935982947066e-16 -1.0 6.1232339957367659e-17 1.0 -2.4492935982947
066e-16 0.0 81 1 693 462 5 691 0 0 698 688 694 83 3 694 1.0 1.0 1.0 15 695 463 0
 668 691 0 14 696 464 698 1.0e-08 705 691 700 11 697 +0 0 705 691 9 50 697 465 0
 696 706 692 0 +5.0276352000000015e-04 3.9221487999999992e-04 9.3599999999999959
e-05 -1.0 2.4492935982947066e-16 0.0 -1.4997597826618576e-32 -6.1232339957367659
e-17 -1.0 81 1 698 466 5 696 0 0 707 693 699 83 3 699 1.0 1.0 1.0 15 700 467 0 6
28 696 0 17 701 0 700 628 369 624 704 702 0 0 -16 702 468 0 ?704 683 711 703 0 0
 1 30 703 469 0 702 712 684 0 +5.0276351999999989e-04 -3.8778512000000016e-04 2.
3600000000000039e-05 2.4492935982947066e-16 1.0 -6.1232339957367659e-17 17 704 0
 709 363 634 359 701 702 0 369 +14 705 470 707 1.0e-08 714 696 709 11 706 +0 0 7
14 696 9 51 706 471 0 705 715 697 0 +5.2276351999999973e-04 -0.00144066512 2.360
0000000000092e-05 2.4492935982947066e-16 1.0 -6.1232339957367659e-17 2.0e-05 -1.
4997597826618576e-32 -6.1232339957367659e-17 -1.0 81 1 707 472 5 705 0 0 716 698
 708 83 3 708 1.0 1.0 1.0 15 709 473 0 710 705 0 17 710 0 709 634 363 630 713 71
1 0 0 -16 711 474 0 ?713 702 720 712 0 0 1 30 712 475 0 711 721 703 0 +5.2276352
e-04 -3.8778512000000022e-04 3.6000000000000196e-06 2.4492935982947066e-16 1.0 -
6.1232339957367659e-17 17 713 0 718 355 640 351 710 711 0 0 +14 714 476 716 1.0e
-08 723 705 718 11 715 +0 0 723 705 9 50 715 477 0 714 724 706 0 +5.027635200000
0015e-04 3.9221487999999992e-04 3.5999999999999642e-06 -1.4997597826618576e-32 -
6.1232339957367659e-17 -1.0 1.0 -2.4492935982947066e-16 0.0 81 1 716 478 5 714 0
 0 725 707 717 83 3 717 1.0 1.0 1.0 15 718 479 0 640 714 0 17 719 0 718 640 355
 636 722 720 0 0 -16 720 480 0 ?722 711 729 721 0 0 1 30 721 481 0 720 730 712 0
 +7.8276351999999988e-04 -3.8778512000000026e-04 3.6000000000000196e-06 2.449293
5982947066e-16 1.0 -6.1232339957367659e-17 17 722 0 727 401 644 356 719 720 0 39
8 +14 723 482 725 1.0e-08 732 714 727 11 724 +0 0 732 714 9 51 724 483 0 723 733
 715 0 +7.8276351999999978e-04 -0.00144066512 2.3600000000000092e-05 2.449293598
2947066e-16 1.0 -6.1232339957367659e-17 2.0e-05 1.0 -2.4492935982947066e-16 0.0
 81 1 725 484 5 723 0 0 734 716 726 83 3 726 1.0 1.0 1.0 15 727 485 0 728 723 0
 17 728 0 727 644 401 599 731 729 0 0 -16 729 486 0 ?731 720 738 730 0 0 1 30 73
0 487 0 729 739 721 0 +8.0276351999999989e-04 -3.8778512000000026e-04 2.36000000
00000039e-05 2.4492935982947066e-16 1.0 -6.1232339957367659e-17 17 731 0 736 397
 598 393 728 729 0 401 +14 732 488 734 1.0e-08 741 723 736 11 733 +0 0 741 723 9
 50 733 489 0 732 742 724 0 +8.0276352000000024e-04 3.9221487999999978e-04 3.599
9999999999642e-06 1.0 -2.4492935982947066e-16 0.0 1.4997597826618576e-32 6.12323
39957367659e-17 1.0 81 1 734 490 5 732 0 0 743 725 735 83 3 735 1.0 1.0 1.0 15 7
36 491 0 397 732 0 17 737 0 736 598 397 594 740 738 0 0 -16 738 492 0 ?740 729 7
47 739 0 0 1 30 739 493 0 738 748 730 0 +8.0276351999999989e-04 -3.8778512000000
022e-04 4.3359999999999994e-04 2.4492935982947066e-16 1.0 -6.1232339957367659e-1
7 17 740 0 745 391 606 387 737 738 0 397 +14 741 494 743 1.0e-08 750 732 745 11
 742 +0 0 750 732 9 51 742 495 0 741 751 733 0 +7.8276351999999978e-04 -0.001440
66512 4.3360000000000012e-04 2.4492935982947066e-16 1.0 -6.1232339957367659e-17
 2.0e-05 1.4997597826618576e-32 6.1232339957367659e-17 1.0 81 1 743 496 5 741 0
 0 752 734 744 83 3 744 1.0 1.0 1.0 15 745 497 0 746 741 0 17 746 0 745 606 391
 602 749 747 0 0 -16 747 498 0 ?749 738 758 748 0 0 1 30 748 499 0 747 759 739 0
 +7.8276351999999988e-04 -3.8778512000000022e-04 4.5360000000000006e-04 2.449293
5982947066e-16 1.0 -6.1232339957367659e-17 17 749 0 754 385 612 381 746 747 0 39
1 +14 750 500 752 1.0e-08 783 741 754 11 751 +0 0 783 741 9 50 751 501 0 750 784
 742 0 +8.0276352000000024e-04 3.9221487999999982e-04 4.5360000000000006e-04 1.4
997597826618576e-32 6.1232339957367659e-17 1.0 -1.0 2.4492935982947066e-16 0.0 8
1 1 752 502 5 750 0 0 785 743 753 83 3 753 1.0 1.0 1.0 15 754 503 0 385 750 0 17
 755 0 754 761 385 756 760 758 0 818 +18 756 504 0 766 660 762 757 ?1 29 757 505
 0 756 763 661 6.6276352000000012e-04 3.122148799999998e-04 4.5360000000000006e-
04 16 758 506 0 ?755 747 764 759 0 0 1 30 759 507 0 758 765 748 0 +6.62763520000
00012e-04 3.9221487999999982e-04 4.5360000000000006e-04 -2.4492935982947066e-16
 -1.0 6.1232339957367659e-17 17 760 0 823 379 818 375 755 758 0 374 -17 761 0 75
4 767 755 762 766 764 0 809 -18 762 508 0 772 756 768 763 ?1 29 763 509 0 762 76
9 757 5.1276352000000012e-04 3.1221487999999984e-04 4.5360000000000006e-04 16 76
4 510 0 ?766 758 770 765 0 0 1 30 765 511 0 764 771 759 0 +5.1276352000000012e-0
4 3.1221487999999984e-04 4.5360000000000006e-04 1.0 -2.4492935982947066e-16 0.0
 17 766 0 814 815 809 756 761 764 0 755 +17 767 0 754 773 761 768 772 770 0 800
 +18 768 512 0 778 762 774 769 ?1 29 769 513 0 768 775 763 5.1276351999999994e-0
4 -3.0778512000000013e-04 4.5360000000000006e-04 16 770 514 0 ?767 764 776 771 0
 0 1 30 771 515 0 770 777 765 0 +5.1276352000000012e-04 3.1221487999999984e-04 4
.5360000000000006e-04 -2.4492935982947066e-16 -1.0 6.1232339957367659e-17 17 772
 0 805 806 800 762 767 770 0 761 -17 773 0 754 779 767 774 778 776 0 791 +18 774
 516 0 782 768 0 775 ?1 29 775 517 0 774 0 769 6.6276351999999994e-04 -3.0778512
000000022e-04 4.5360000000000006e-04 16 776 518 0 ?773 770 780 777 0 0 1 30 777
 519 0 776 781 771 0 +5.1276351999999994e-04 -3.0778512000000013e-04 4.536000000
0000006e-04 1.0 -2.4492935982947066e-16 0.0 17 778 0 796 797 791 768 773 776 0 7
67 -17 779 0 754 612 773 608 782 780 0 0 -16 780 520 0 ?782 776 789 781 0 0 1 30
 781 521 0 780 790 777 0 +6.6276351999999994e-04 -3.8778512000000022e-04 4.53600
00000000006e-04 2.4492935982947066e-16 1.0 -6.1232339957367659e-17 17 782 0 787
 788 616 774 779 780 0 773 +14 783 522 785 1.0e-08 792 750 787 11 784 -0 0 792 7
50 9 50 784 523 0 783 793 751 0 +6.6276352000000004e-04 -3.8778512000000022e-04
 4.5360000000000006e-04 1.0 -2.4492935982947066e-16 0.0 2.4492935982947066e-16 1
.0 -6.1232339957367659e-17 81 1 785 524 5 783 0 0 794 752 786 83 3 786 1.0 1.0 1
.0 15 787 525 0 782 783 0 17 788 0 787 121 782 117 791 789 0 0 +16 789 526 0 ?78
8 780 798 790 0 0 1 30 790 527 0 789 799 781 0 +6.6276351999999994e-04 -3.077851
2000000022e-04 4.5360000000000006e-04 -1.4997597826618576e-32 -6.123233995736765
9e-17 -1.0 17 791 0 796 778 127 774 788 789 0 0 -14 792 528 794 1.0e-08 801 783
 796 11 793 -0 0 801 783 9 50 793 529 0 792 802 784 0 +6.6276352000000004e-04 -3
.0778512000000022e-04 4.5360000000000006e-04 2.4492935982947066e-16 1.0 -6.12323
39957367659e-17 -1.0 2.4492935982947066e-16 0.0 81 1 794 530 5 792 0 0 803 785 7
95 83 3 795 1.0 1.0 1.0 15 796 531 0 797 792 0 17 797 0 796 127 778 123 800 798
 0 0 +16 798 532 0 ?797 789 807 799 0 0 1 30 799 533 0 798 808 790 0 +5.12763519
99999994e-04 -3.0778512000000013e-04 4.5360000000000006e-04 -1.4997597826618576e
-32 -6.1232339957367659e-17 -1.0 17 800 0 805 772 133 768 797 798 0 0 -14 801 53
4 803 1.0e-08 810 792 805 11 802 +0 0 810 792 9 50 802 535 0 801 811 793 0 +5.12
76352000000012e-04 3.9221487999999992e-04 4.5360000000000006e-04 -1.0 2.44929359
82947066e-16 0.0 -1.4997597826618576e-32 -6.1232339957367659e-17 -1.0 81 1 803 5
36 5 801 0 0 812 794 804 83 3 804 1.0 1.0 1.0 15 805 537 0 133 801 0 17 806 0 80
5 133 772 129 809 807 0 0 +16 807 538 0 ?806 798 816 808 0 0 1 30 808 539 0 807
 817 799 0 +5.1276352000000012e-04 3.1221487999999984e-04 4.5360000000000006e-04
 -1.4997597826618576e-32 -6.1232339957367659e-17 -1.0 17 809 0 814 766 139 762 8
06 807 0 0 -14 810 540 812 1.0e-08 819 801 814 11 811 -0 0 819 801 9 50 811 541
 0 810 820 802 0 +5.0276352000000015e-04 3.1221487999999984e-04 4.53600000000000
06e-04 -2.4492935982947066e-16 -1.0 6.1232339957367659e-17 1.0 -2.44929359829470
66e-16 0.0 81 1 812 542 5 810 0 0 821 803 813 83 3 813 1.0 1.0 1.0 15 814 543 0
 809 810 0 17 815 0 814 139 766 135 818 816 0 0 +16 816 544 0 ?815 807 0 817 0 0
 1 30 817 545 0 816 0 808 0 +6.6276352000000012e-04 3.122148799999998e-04 4.5360
000000000006e-04 -1.4997597826618576e-32 -6.1232339957367659e-17 -1.0 17 818 0 8
23 760 145 756 815 816 0 0 -14 819 546 821 1.0e-08 0 810 823 11 820 -0 0 0 810 9
 50 820 547 0 819 0 811 0 +6.6276352000000022e-04 3.122148799999998e-04 4.536000
0000000006e-04 1.0 -2.4492935982947066e-16 0.0 2.4492935982947066e-16 1.0 -6.123
2339957367659e-17 81 1 821 548 5 819 0 0 0 812 822 83 3 822 1.0 1.0 1.0 15 823 5
49 0 818 819 0 1 0 
