<svg width="29.99999842mm" height="34.00000058mm" viewBox="0 0 11811023 13385827"  version="1.1" xmlns="http://www.w3.org/2000/svg" xmlns:xlink="http://www.w3.org/1999/xlink">
<desc>
Origin 0 0 Bound 3937008 10236220 11811023 13385827
</desc>
<g fill-rule="evenodd" fill="rgb(128, 128, 0)" stroke="black" stroke-width="1" transform="translate(0, 13385827) scale(1, -1) translate(-3937008, -10236220)">
<path id="N" d="M 11786039.00 12244700.00 L 11798520.00 12214567.00 L 11798520.00 11919917.00 L 12337327.00 11919918.00 A 54122.11 54122.11 0 0 0 12375596.00 11827528.00 L 12275628.00 11727560.00 A 54121.84 54121.84 0 1 0 12206669.00 11811677.00 L 11798520.00 11811677.00 L 11799220.00 11504195.00 L 11837491.41 11520046.00 L 12283207.00 11520046.00 L 12283207.00 11565894.00 A 54118.70 54118.70 0 0 0 12391447.00 11565894.00 L 12391447.00 11365958.00 A 54118.70 54118.70 0 0 0 12283207.00 11365958.00 L 12283207.00 11411806.00 L 11859907.00 11411806.00 L 11791641.00 11343540.00 L 11791641.00 11288409.00 L 11875758.00 11204292.00 A 54121.84 54121.84 0 0 0 11799220.00 11127754.00 L 11699252.00 11227722.00 L 11683401.00 11265993.41 L 11683401.00 11365958.00 L 11700388.90 11405363.90 L 11699512.00 11407481.00 L 11713292.00 11438152.04 L 11713292.00 11721744.64 L 11699252.00 11727560.00 L 11683401.00 11765829.00 L 11683401.00 11965764.00 L 11699252.00 12004033.00 L 11713292.00 12009848.36 L 11713292.00 12183895.96 L 11699512.00 12214567.00 L 11711993.00 12244700.00 L 11742126.00 12257181.00 L 11755906.00 12257181.00 L 11786039.00 12244700.00  z"/>
<path id="N" d="M 8352361.47 12687006.47 m -100354.75 0 a 100354.75 100354.75 0 1 1 200709.51 0a 100354.75 100354.75 0 1 1 -200709.51 0"/>
<path id="N" d="M 7973047.00 12244700.00 L 7985528.00 12214567.00 L 7971748.00 12183895.96 L 7971748.00 11438152.04 L 7985528.00 11407481.00 L 7973047.00 11377348.00 L 7942914.00 11364867.00 L 7929134.00 11364867.00 L 7899001.00 11377348.00 L 7886520.00 11407481.00 L 7886520.00 12214567.00 L 7899001.00 12244700.00 L 7929134.00 12257181.00 L 7942914.00 12257181.00 L 7973047.00 12244700.00  z"/>
</g>
</svg>
