<svg width="29.99999842mm" height="34.00000058mm" viewBox="0 0 11811023 13385827"  version="1.1" xmlns="http://www.w3.org/2000/svg" xmlns:xlink="http://www.w3.org/1999/xlink">
<desc>
Origin 0 0 Bound 3937008 10236220 11811023 13385827
</desc>
<g fill-rule="evenodd" fill="rgb(0, 0, 255)" stroke="black" stroke-width="1" transform="translate(0, 13385827) scale(1, -1) translate(-3937008, -10236220)">
<path id="N" d="M 11068897.00 12214568.00 L 10978347.00 12214568.00 L 10978347.00 12474410.00 L 11068897.00 12474410.00 L 11068897.00 12214568.00  z"/>
<path id="N" d="M 10911417.00 12214568.00 L 10820867.00 12214568.00 L 10820867.00 12474410.00 L 10911417.00 12474410.00 L 10911417.00 12214568.00  z"/>
<path id="N" d="M 9966535.00 12214568.00 L 9875985.00 12214568.00 L 9875985.00 12474410.00 L 9966535.00 12474410.00 L 9966535.00 12214568.00  z"/>
<path id="N" d="M 9021653.00 12214568.00 L 8931103.00 12214568.00 L 8931103.00 12474410.00 L 9021653.00 12474410.00 L 9021653.00 12214568.00  z"/>
<path id="N" d="M 8864173.00 12214568.00 L 8773623.00 12214568.00 L 8773623.00 12474410.00 L 8864173.00 12474410.00 L 8864173.00 12214568.00  z"/>
<path id="N" d="M 11383858.00 12214568.00 L 11293308.00 12214568.00 L 11293308.00 12474410.00 L 11383858.00 12474410.00 L 11383858.00 12214568.00  z"/>
<path id="N" d="M 10124015.00 12214568.00 L 10033465.00 12214568.00 L 10033465.00 12474410.00 L 10124015.00 12474410.00 L 10124015.00 12214568.00  z"/>
<path id="N" d="M 10596456.00 12214568.00 L 10505906.00 12214568.00 L 10505906.00 12474410.00 L 10596456.00 12474410.00 L 10596456.00 12214568.00  z"/>
<path id="N" d="M 10281496.00 12214568.00 L 10190946.00 12214568.00 L 10190946.00 12474410.00 L 10281496.00 12474410.00 L 10281496.00 12214568.00  z"/>
<path id="N" d="M 11226378.00 12214568.00 L 11135828.00 12214568.00 L 11135828.00 12474410.00 L 11226378.00 12474410.00 L 11226378.00 12214568.00  z"/>
<path id="N" d="M 10753937.00 12214568.00 L 10663387.00 12214568.00 L 10663387.00 12474410.00 L 10753937.00 12474410.00 L 10753937.00 12214568.00  z"/>
<path id="N" d="M 8228346.00 11147638.00 L 8090552.00 11147638.00 L 8090552.00 11407480.00 L 8228346.00 11407480.00 L 8228346.00 11147638.00  z"/>
<path id="N" d="M 9494094.00 12214568.00 L 9403544.00 12214568.00 L 9403544.00 12474410.00 L 9494094.00 12474410.00 L 9494094.00 12214568.00  z"/>
<path id="N" d="M 11594488.00 12214568.00 L 11456694.00 12214568.00 L 11456694.00 12474410.00 L 11594488.00 12474410.00 L 11594488.00 12214568.00  z"/>
<path id="N" d="M 11594488.00 11147638.00 L 11456694.00 11147638.00 L 11456694.00 11407480.00 L 11594488.00 11407480.00 L 11594488.00 11147638.00  z"/>
<path id="N" d="M 8228346.00 12214568.00 L 8090552.00 12214568.00 L 8090552.00 12474410.00 L 8228346.00 12474410.00 L 8228346.00 12214568.00  z"/>
<path id="N" d="M 9336614.00 12214568.00 L 9246064.00 12214568.00 L 9246064.00 12474410.00 L 9336614.00 12474410.00 L 9336614.00 12214568.00  z"/>
<path id="N" d="M 8706693.00 12214568.00 L 8616143.00 12214568.00 L 8616143.00 12474410.00 L 8706693.00 12474410.00 L 8706693.00 12214568.00  z"/>
<path id="N" d="M 8549212.00 12214568.00 L 8458662.00 12214568.00 L 8458662.00 12474410.00 L 8549212.00 12474410.00 L 8549212.00 12214568.00  z"/>
<path id="N" d="M 9179134.00 12214568.00 L 9088584.00 12214568.00 L 9088584.00 12474410.00 L 9179134.00 12474410.00 L 9179134.00 12214568.00  z"/>
<path id="N" d="M 9809055.00 12214568.00 L 9718505.00 12214568.00 L 9718505.00 12474410.00 L 9809055.00 12474410.00 L 9809055.00 12214568.00  z"/>
<path id="N" d="M 9651575.00 12214568.00 L 9561025.00 12214568.00 L 9561025.00 12474410.00 L 9651575.00 12474410.00 L 9651575.00 12214568.00  z"/>
<path id="N" d="M 11383858.00 11147638.00 L 11293308.00 11147638.00 L 11293308.00 11407480.00 L 11383858.00 11407480.00 L 11383858.00 11147638.00  z"/>
<path id="N" d="M 8391732.00 11147638.00 L 8301182.00 11147638.00 L 8301182.00 11407480.00 L 8391732.00 11407480.00 L 8391732.00 11147638.00  z"/>
<path id="N" d="M 11068897.00 11147638.00 L 10978347.00 11147638.00 L 10978347.00 11407480.00 L 11068897.00 11407480.00 L 11068897.00 11147638.00  z"/>
<path id="N" d="M 9179134.00 11147638.00 L 9088584.00 11147638.00 L 9088584.00 11407480.00 L 9179134.00 11407480.00 L 9179134.00 11147638.00  z"/>
<path id="N" d="M 11226378.00 11147638.00 L 11135828.00 11147638.00 L 11135828.00 11407480.00 L 11226378.00 11407480.00 L 11226378.00 11147638.00  z"/>
<path id="N" d="M 8549212.00 11147638.00 L 8458662.00 11147638.00 L 8458662.00 11407480.00 L 8549212.00 11407480.00 L 8549212.00 11147638.00  z"/>
<path id="N" d="M 10911417.00 11147638.00 L 10820867.00 11147638.00 L 10820867.00 11407480.00 L 10911417.00 11407480.00 L 10911417.00 11147638.00  z"/>
<path id="N" d="M 10753937.00 11147638.00 L 10663387.00 11147638.00 L 10663387.00 11407480.00 L 10753937.00 11407480.00 L 10753937.00 11147638.00  z"/>
<path id="N" d="M 10596456.00 11147638.00 L 10505906.00 11147638.00 L 10505906.00 11407480.00 L 10596456.00 11407480.00 L 10596456.00 11147638.00  z"/>
<path id="N" d="M 10438976.00 11147638.00 L 10348426.00 11147638.00 L 10348426.00 11407480.00 L 10438976.00 11407480.00 L 10438976.00 11147638.00  z"/>
<path id="N" d="M 10281496.00 11147638.00 L 10190946.00 11147638.00 L 10190946.00 11407480.00 L 10281496.00 11407480.00 L 10281496.00 11147638.00  z"/>
<path id="N" d="M 9494094.00 11147638.00 L 9403544.00 11147638.00 L 9403544.00 11407480.00 L 9494094.00 11407480.00 L 9494094.00 11147638.00  z"/>
<path id="N" d="M 9809055.00 11147638.00 L 9718505.00 11147638.00 L 9718505.00 11407480.00 L 9809055.00 11407480.00 L 9809055.00 11147638.00  z"/>
<path id="N" d="M 9651575.00 11147638.00 L 9561025.00 11147638.00 L 9561025.00 11407480.00 L 9651575.00 11407480.00 L 9651575.00 11147638.00  z"/>
<path id="N" d="M 10438976.00 12214568.00 L 10348426.00 12214568.00 L 10348426.00 12474410.00 L 10438976.00 12474410.00 L 10438976.00 12214568.00  z"/>
<path id="N" d="M 8391732.00 12214568.00 L 8301182.00 12214568.00 L 8301182.00 12474410.00 L 8391732.00 12474410.00 L 8391732.00 12214568.00  z"/>
<path id="N" d="M 10124015.00 11147638.00 L 10033465.00 11147638.00 L 10033465.00 11407480.00 L 10124015.00 11407480.00 L 10124015.00 11147638.00  z"/>
<path id="N" d="M 9021653.00 11147638.00 L 8931103.00 11147638.00 L 8931103.00 11407480.00 L 9021653.00 11407480.00 L 9021653.00 11147638.00  z"/>
<path id="N" d="M 9336614.00 11147638.00 L 9246064.00 11147638.00 L 9246064.00 11407480.00 L 9336614.00 11407480.00 L 9336614.00 11147638.00  z"/>
<path id="N" d="M 8706693.00 11147638.00 L 8616143.00 11147638.00 L 8616143.00 11407480.00 L 8706693.00 11407480.00 L 8706693.00 11147638.00  z"/>
<path id="N" d="M 9966535.00 11147638.00 L 9875985.00 11147638.00 L 9875985.00 11407480.00 L 9966535.00 11407480.00 L 9966535.00 11147638.00  z"/>
<path id="N" d="M 8864173.00 11147638.00 L 8773623.00 11147638.00 L 8773623.00 11407480.00 L 8864173.00 11407480.00 L 8864173.00 11147638.00  z"/>
</g>
</svg>
