<svg width="29.99999842mm" height="34.00000058mm" viewBox="0 0 11811023 13385827"  version="1.1" xmlns="http://www.w3.org/2000/svg" xmlns:xlink="http://www.w3.org/1999/xlink">
<desc>
Origin 0 0 Bound 3937008 10236220 11811023 13385827
</desc>
<g fill-rule="evenodd" fill="rgb(255, 0, 0)" stroke="black" stroke-width="1" transform="translate(0, 13385827) scale(1, -1) translate(-3937008, -10236220)">
<path id="N" d="M 11309057.00 18987233.00 L 10659449.00 18987233.00 A 70244.85 70244.85 0 1 0 10659449.00 19127727.00 L 11309057.00 19127727.00 A 70250.25 70250.25 0 1 0 11309057.00 18987233.00  z"/>
<path id="N" d="M 9025592.00 18987233.00 L 8375984.00 18987233.00 A 70244.85 70244.85 0 0 0 8375984.00 19127727.00 L 9025592.00 19127727.00 A 70250.25 70250.25 0 0 0 9025592.00 18987233.00  z"/>
<path id="N" d="M 11309057.00 18731327.00 L 10659449.00 18731327.00 A 70244.85 70244.85 0 1 0 10659449.00 18871821.00 L 11309057.00 18871821.00 A 70250.25 70250.25 0 0 0 11309057.00 18731327.00  z"/>
<path id="N" d="M 9025592.00 18731327.00 L 8375984.00 18731327.00 A 70244.85 70244.85 0 0 0 8375984.00 18871821.00 L 9025592.00 18871821.00 A 70250.25 70250.25 0 0 0 9025592.00 18731327.00  z"/>
<path id="N" d="M 11309057.00 18475422.00 L 10659449.00 18475422.00 A 70244.85 70244.85 0 0 0 10659449.00 18615916.00 L 11309057.00 18615916.00 A 70250.25 70250.25 0 0 0 11309057.00 18475422.00  z"/>
<path id="N" d="M 9025592.00 18475422.00 L 8375984.00 18475422.00 A 70244.85 70244.85 0 0 0 8375984.00 18615916.00 L 9025592.00 18615916.00 A 70250.25 70250.25 0 0 0 9025592.00 18475422.00  z"/>
<path id="N" d="M 11309057.00 18219516.00 L 10659449.00 18219516.00 A 70244.85 70244.85 0 0 0 10659449.00 18360010.00 L 11309057.00 18360010.00 A 70250.25 70250.25 0 0 0 11309057.00 18219516.00  z"/>
<path id="N" d="M 9025592.00 18219516.00 L 8375984.00 18219516.00 A 70244.85 70244.85 0 0 0 8375984.00 18360010.00 L 9025592.00 18360010.00 A 70250.25 70250.25 0 0 0 9025592.00 18219516.00  z"/>
<path id="N" d="M 11309057.00 17963611.00 L 10659449.00 17963611.00 A 70244.85 70244.85 0 1 0 10659449.00 18104105.00 L 11309057.00 18104105.00 A 70250.25 70250.25 0 1 0 11309057.00 17963611.00  z"/>
<path id="N" d="M 9025592.00 17963611.00 L 8375984.00 17963611.00 A 70244.85 70244.85 0 0 0 8375984.00 18104105.00 L 9025592.00 18104105.00 A 70250.25 70250.25 0 0 0 9025592.00 17963611.00  z"/>
<path id="N" d="M 11309057.00 17707705.00 L 10659449.00 17707705.00 A 70244.85 70244.85 0 1 0 10659449.00 17848199.00 L 11309057.00 17848199.00 A 70250.25 70250.25 0 0 0 11309057.00 17707705.00  z"/>
<path id="N" d="M 9025592.00 17707705.00 L 8375984.00 17707705.00 A 70244.85 70244.85 0 0 0 8375984.00 17848199.00 L 9025592.00 17848199.00 A 70250.25 70250.25 0 0 0 9025592.00 17707705.00  z"/>
<path id="N" d="M 11309057.00 17451800.00 L 10659449.00 17451800.00 A 70244.85 70244.85 0 1 0 10659449.00 17592294.00 L 11309057.00 17592294.00 A 70250.25 70250.25 0 0 0 11309057.00 17451800.00  z"/>
<path id="N" d="M 9025592.00 17451800.00 L 8375984.00 17451800.00 A 70244.85 70244.85 0 0 0 8375984.00 17592294.00 L 9025592.00 17592294.00 A 70250.25 70250.25 0 0 0 9025592.00 17451800.00  z"/>
<path id="N" d="M 11309057.00 17195894.00 L 10659449.00 17195894.00 A 70244.85 70244.85 0 1 0 10659449.00 17336388.00 L 11309057.00 17336388.00 A 70250.25 70250.25 0 1 0 11309057.00 17195894.00  z"/>
<path id="N" d="M 9025592.00 17195894.00 L 8375984.00 17195894.00 A 70244.85 70244.85 0 0 0 8375984.00 17336388.00 L 9025592.00 17336388.00 A 70250.25 70250.25 0 0 0 9025592.00 17195894.00  z"/>
<path id="N" d="M 11309057.00 16939989.00 L 10659449.00 16939989.00 A 70244.85 70244.85 0 0 0 10659449.00 17080483.00 L 11309057.00 17080483.00 A 70250.25 70250.25 0 0 0 11309057.00 16939989.00  z"/>
<path id="N" d="M 9025592.00 16939989.00 L 8375984.00 16939989.00 A 70244.85 70244.85 0 0 0 8375984.00 17080483.00 L 9025592.00 17080483.00 A 70250.25 70250.25 0 0 0 9025592.00 16939989.00  z"/>
<path id="N" d="M 11309057.00 16684083.00 L 10659449.00 16684083.00 A 70244.85 70244.85 0 1 0 10659449.00 16824577.00 L 11309057.00 16824577.00 A 70250.25 70250.25 0 0 0 11309057.00 16684083.00  z"/>
<path id="N" d="M 9025592.00 16684083.00 L 8375984.00 16684083.00 A 70244.85 70244.85 0 0 0 8375984.00 16824577.00 L 9025592.00 16824577.00 A 70250.25 70250.25 0 0 0 9025592.00 16684083.00  z"/>
<path id="N" d="M 11309057.00 16428178.00 L 10659449.00 16428178.00 A 70244.85 70244.85 0 1 0 10659449.00 16568672.00 L 11309057.00 16568672.00 A 70250.25 70250.25 0 0 0 11309057.00 16428178.00  z"/>
<path id="N" d="M 9025592.00 16428178.00 L 8375984.00 16428178.00 A 70244.85 70244.85 0 0 0 8375984.00 16568672.00 L 9025592.00 16568672.00 A 70250.25 70250.25 0 0 0 9025592.00 16428178.00  z"/>
<path id="N" d="M 11309057.00 16172272.00 L 10659449.00 16172272.00 A 70244.85 70244.85 0 1 0 10659449.00 16312766.00 L 11309057.00 16312766.00 A 70250.25 70250.25 0 1 0 11309057.00 16172272.00  z"/>
<path id="N" d="M 9025592.00 16172272.00 L 8375984.00 16172272.00 A 70244.85 70244.85 0 0 0 8375984.00 16312766.00 L 9025592.00 16312766.00 A 70250.25 70250.25 0 0 0 9025592.00 16172272.00  z"/>
<path id="N" d="M 11968503.00 10433071.00 L 11377953.00 10433071.00 L 11377953.00 11771653.00 L 11968503.00 11771653.00 L 11968503.00 10433071.00  z"/>
<path id="N" d="M 14606299.00 10433071.00 L 14015749.00 10433071.00 L 14015749.00 11771653.00 L 14606299.00 11771653.00 L 14606299.00 10433071.00  z"/>
<path id="N" d="M 12795275.00 12677166.00 L 12401575.00 12677166.00 L 12401575.00 14055118.00 L 12795275.00 14055118.00 L 12795275.00 12677166.00  z"/>
<path id="N" d="M 13582677.00 12677166.00 L 13188977.00 12677166.00 L 13188977.00 14055118.00 L 13582677.00 14055118.00 L 13582677.00 12677166.00  z"/>
</g>
</svg>
