<svg width="29.99999842mm" height="34.00000058mm" viewBox="0 0 11811023 13385827"  version="1.1" xmlns="http://www.w3.org/2000/svg" xmlns:xlink="http://www.w3.org/1999/xlink">
<desc>
Origin 0 0 Bound 3937008 10236220 11811023 13385827
</desc>
<g fill-rule="evenodd" fill="rgb(255, 0, 255)" stroke="black" stroke-width="1" transform="translate(0, 13385827) scale(1, -1) translate(-3937008, -10236220)">
<path id="N" d="M 14589564.00 23622046.00 A 119403.94 119403.94 0 0 0 14667948.00 23432809.00 L 14614046.00 23374616.00 A 629926.01 629926.01 0 0 1 15558792.00 22541965.00 A 119406.16 119406.16 0 0 0 15748029.00 22463580.00 L 15748030.00 11339908.00 A 1183659.99 1183659.99 0 0 0 14644342.00 10236220.00 L 5040695.00 10236220.00 A 1183641.20 1183641.20 0 0 0 3937007.00 11339908.00 L 3937008.00 22463580.00 A 119390.75 119390.75 0 0 0 4126245.00 22541965.00 L 4184437.00 22488062.00 A 629926.01 629926.01 0 0 1 5017088.00 23432808.00 A 119406.16 119406.16 0 0 0 5095473.00 23622045.00 L 14589564.00 23622046.00  zM 8228346.00 11407480.00 L 8090552.00 11407480.00 L 8090552.00 11147638.00 L 8228346.00 11147638.00 L 8228346.00 11407480.00  zM 8391732.00 11407480.00 L 8301182.00 11407480.00 L 8301182.00 11147638.00 L 8391732.00 11147638.00 L 8391732.00 11407480.00  zM 8549212.00 11407480.00 L 8458662.00 11407480.00 L 8458662.00 11147638.00 L 8549212.00 11147638.00 L 8549212.00 11407480.00  zM 8706693.00 11407480.00 L 8616143.00 11407480.00 L 8616143.00 11147638.00 L 8706693.00 11147638.00 L 8706693.00 11407480.00  zM 8864173.00 11407480.00 L 8773623.00 11407480.00 L 8773623.00 11147638.00 L 8864173.00 11147638.00 L 8864173.00 11407480.00  zM 9021653.00 11407480.00 L 8931103.00 11407480.00 L 8931103.00 11147638.00 L 9021653.00 11147638.00 L 9021653.00 11407480.00  zM 8228346.00 12474410.00 L 8090552.00 12474410.00 L 8090552.00 12214568.00 L 8228346.00 12214568.00 L 8228346.00 12474410.00  zM 8391732.00 12474410.00 L 8301182.00 12474410.00 L 8301182.00 12214568.00 L 8391732.00 12214568.00 L 8391732.00 12474410.00  zM 8549212.00 12474410.00 L 8458662.00 12474410.00 L 8458662.00 12214568.00 L 8549212.00 12214568.00 L 8549212.00 12474410.00  zM 8864173.00 12474410.00 L 8773623.00 12474410.00 L 8773623.00 12214568.00 L 8864173.00 12214568.00 L 8864173.00 12474410.00  zM 8706693.00 12474410.00 L 8616143.00 12474410.00 L 8616143.00 12214568.00 L 8706693.00 12214568.00 L 8706693.00 12474410.00  zM 9179134.00 11407480.00 L 9088584.00 11407480.00 L 9088584.00 11147638.00 L 9179134.00 11147638.00 L 9179134.00 11407480.00  zM 9494094.00 11407480.00 L 9403544.00 11407480.00 L 9403544.00 11147638.00 L 9494094.00 11147638.00 L 9494094.00 11407480.00  zM 9809055.00 11407480.00 L 9718505.00 11407480.00 L 9718505.00 11147638.00 L 9809055.00 11147638.00 L 9809055.00 11407480.00  zM 9336614.00 11407480.00 L 9246064.00 11407480.00 L 9246064.00 11147638.00 L 9336614.00 11147638.00 L 9336614.00 11407480.00  zM 9651575.00 11407480.00 L 9561025.00 11407480.00 L 9561025.00 11147638.00 L 9651575.00 11147638.00 L 9651575.00 11407480.00  zM 9021653.00 12474410.00 L 8931103.00 12474410.00 L 8931103.00 12214568.00 L 9021653.00 12214568.00 L 9021653.00 12474410.00  zM 9179134.00 12474410.00 L 9088584.00 12474410.00 L 9088584.00 12214568.00 L 9179134.00 12214568.00 L 9179134.00 12474410.00  zM 9336614.00 12474410.00 L 9246064.00 12474410.00 L 9246064.00 12214568.00 L 9336614.00 12214568.00 L 9336614.00 12474410.00  zM 9494094.00 12474410.00 L 9403544.00 12474410.00 L 9403544.00 12214568.00 L 9494094.00 12214568.00 L 9494094.00 12474410.00  zM 9651575.00 12474410.00 L 9561025.00 12474410.00 L 9561025.00 12214568.00 L 9651575.00 12214568.00 L 9651575.00 12474410.00  zM 9809055.00 12474410.00 L 9718505.00 12474410.00 L 9718505.00 12214568.00 L 9809055.00 12214568.00 L 9809055.00 12474410.00  zM 9966535.00 11407480.00 L 9875985.00 11407480.00 L 9875985.00 11147638.00 L 9966535.00 11147638.00 L 9966535.00 11407480.00  zM 10281496.00 11407480.00 L 10190946.00 11407480.00 L 10190946.00 11147638.00 L 10281496.00 11147638.00 L 10281496.00 11407480.00  zM 10438976.00 11407480.00 L 10348426.00 11407480.00 L 10348426.00 11147638.00 L 10438976.00 11147638.00 L 10438976.00 11407480.00  zM 10124015.00 11407480.00 L 10033465.00 11407480.00 L 10033465.00 11147638.00 L 10124015.00 11147638.00 L 10124015.00 11407480.00  zM 10596456.00 11407480.00 L 10505906.00 11407480.00 L 10505906.00 11147638.00 L 10596456.00 11147638.00 L 10596456.00 11407480.00  zM 10124015.00 12474410.00 L 10033465.00 12474410.00 L 10033465.00 12214568.00 L 10124015.00 12214568.00 L 10124015.00 12474410.00  zM 9966535.00 12474410.00 L 9875985.00 12474410.00 L 9875985.00 12214568.00 L 9966535.00 12214568.00 L 9966535.00 12474410.00  zM 10281496.00 12474410.00 L 10190946.00 12474410.00 L 10190946.00 12214568.00 L 10281496.00 12214568.00 L 10281496.00 12474410.00  zM 10438976.00 12474410.00 L 10348426.00 12474410.00 L 10348426.00 12214568.00 L 10438976.00 12214568.00 L 10438976.00 12474410.00  zM 10596456.00 12474410.00 L 10505906.00 12474410.00 L 10505906.00 12214568.00 L 10596456.00 12214568.00 L 10596456.00 12474410.00  zM 10753937.00 12474410.00 L 10663387.00 12474410.00 L 10663387.00 12214568.00 L 10753937.00 12214568.00 L 10753937.00 12474410.00  zM 10753937.00 11407480.00 L 10663387.00 11407480.00 L 10663387.00 11147638.00 L 10753937.00 11147638.00 L 10753937.00 11407480.00  zM 10911417.00 11407480.00 L 10820867.00 11407480.00 L 10820867.00 11147638.00 L 10911417.00 11147638.00 L 10911417.00 11407480.00  zM 11068897.00 11407480.00 L 10978347.00 11407480.00 L 10978347.00 11147638.00 L 11068897.00 11147638.00 L 11068897.00 11407480.00  zM 11226378.00 11407480.00 L 11135828.00 11407480.00 L 11135828.00 11147638.00 L 11226378.00 11147638.00 L 11226378.00 11407480.00  zM 11383858.00 11407480.00 L 11293308.00 11407480.00 L 11293308.00 11147638.00 L 11383858.00 11147638.00 L 11383858.00 11407480.00  zM 11594488.00 11407480.00 L 11456694.00 11407480.00 L 11456694.00 11147638.00 L 11594488.00 11147638.00 L 11594488.00 11407480.00  zM 10911417.00 12474410.00 L 10820867.00 12474410.00 L 10820867.00 12214568.00 L 10911417.00 12214568.00 L 10911417.00 12474410.00  zM 11068897.00 12474410.00 L 10978347.00 12474410.00 L 10978347.00 12214568.00 L 11068897.00 12214568.00 L 11068897.00 12474410.00  zM 11226378.00 12474410.00 L 11135828.00 12474410.00 L 11135828.00 12214568.00 L 11226378.00 12214568.00 L 11226378.00 12474410.00  zM 11383858.00 12474410.00 L 11293308.00 12474410.00 L 11293308.00 12214568.00 L 11383858.00 12214568.00 L 11383858.00 12474410.00  zM 11594488.00 12474410.00 L 11456694.00 12474410.00 L 11456694.00 12214568.00 L 11594488.00 12214568.00 L 11594488.00 12474410.00  z"/>
</g>
</svg>
