<svg width="29.99999842mm" height="33.99999804mm" viewBox="0 0 11811023 13385826"  version="1.1" xmlns="http://www.w3.org/2000/svg" xmlns:xlink="http://www.w3.org/1999/xlink">
<desc>
Origin 0 0 Bound 3937008 10236221 11811023 13385826
</desc>
<g fill-rule="evenodd" fill="rgb(255, 0, 255)" stroke="black" stroke-width="1" transform="translate(0, 13385826) scale(1, -1) translate(-3937008, -10236221)">
<path id="N" d="M 14589564.00 23622046.00 A 119403.94 119403.94 0 0 0 14667948.00 23432809.00 L 14614046.00 23374616.00 A 629926.01 629926.01 0 0 1 15558792.00 22541965.00 A 119406.16 119406.16 0 0 0 15748029.00 22463580.00 L 15748030.00 11339908.00 A 1183659.99 1183659.99 0 0 0 14644342.00 10236220.00 L 5040696.00 10236222.00 A 1183546.33 1183546.33 0 0 0 3937009.00 11339909.00 L 3937008.00 22463580.00 A 119390.75 119390.75 0 0 0 4126245.00 22541965.00 L 4184437.00 22488062.00 A 629926.01 629926.01 0 0 1 5017088.00 23432808.00 A 119406.16 119406.16 0 0 0 5095473.00 23622045.00 L 8680508.00 23622046.00 A 395601.38 395601.38 0 0 0 9035432.00 23267122.00 L 9035433.00 20866142.00 L 9037328.00 20827552.00 A 393706.48 393706.48 0 0 1 9429134.00 20472441.00 L 12618110.00 20472441.00 L 12656699.00 20474336.00 A 393706.48 393706.48 0 0 1 13011811.00 20866142.00 L 13011812.00 23267122.00 A 395575.49 395575.49 0 0 0 13366735.00 23622046.00 L 14589564.00 23622046.00  zM 8622047.00 11407480.00 L 8484253.00 11407480.00 L 8484253.00 11147638.00 L 8622047.00 11147638.00 L 8622047.00 11407480.00  zM 8785433.00 11407480.00 L 8694883.00 11407480.00 L 8694883.00 11147638.00 L 8785433.00 11147638.00 L 8785433.00 11407480.00  zM 8942913.00 11407480.00 L 8852363.00 11407480.00 L 8852363.00 11147638.00 L 8942913.00 11147638.00 L 8942913.00 11407480.00  zM 9257874.00 11407480.00 L 9167324.00 11407480.00 L 9167324.00 11147638.00 L 9257874.00 11147638.00 L 9257874.00 11407480.00  zM 9100393.00 11407480.00 L 9009843.00 11407480.00 L 9009843.00 11147638.00 L 9100393.00 11147638.00 L 9100393.00 11407480.00  zM 8622047.00 12474410.00 L 8484253.00 12474410.00 L 8484253.00 12214568.00 L 8622047.00 12214568.00 L 8622047.00 12474410.00  zM 8785433.00 12474410.00 L 8694883.00 12474410.00 L 8694883.00 12214568.00 L 8785433.00 12214568.00 L 8785433.00 12474410.00  zM 9100393.00 12474410.00 L 9009843.00 12474410.00 L 9009843.00 12214568.00 L 9100393.00 12214568.00 L 9100393.00 12474410.00  zM 8942913.00 12474410.00 L 8852363.00 12474410.00 L 8852363.00 12214568.00 L 8942913.00 12214568.00 L 8942913.00 12474410.00  zM 9572834.00 11407480.00 L 9482284.00 11407480.00 L 9482284.00 11147638.00 L 9572834.00 11147638.00 L 9572834.00 11407480.00  zM 9415354.00 11407480.00 L 9324804.00 11407480.00 L 9324804.00 11147638.00 L 9415354.00 11147638.00 L 9415354.00 11407480.00  zM 9730315.00 11407480.00 L 9639765.00 11407480.00 L 9639765.00 11147638.00 L 9730315.00 11147638.00 L 9730315.00 11407480.00  zM 9257874.00 12474410.00 L 9167324.00 12474410.00 L 9167324.00 12214568.00 L 9257874.00 12214568.00 L 9257874.00 12474410.00  zM 9415354.00 12474410.00 L 9324804.00 12474410.00 L 9324804.00 12214568.00 L 9415354.00 12214568.00 L 9415354.00 12474410.00  zM 9572834.00 12474410.00 L 9482284.00 12474410.00 L 9482284.00 12214568.00 L 9572834.00 12214568.00 L 9572834.00 12474410.00  zM 9730315.00 12474410.00 L 9639765.00 12474410.00 L 9639765.00 12214568.00 L 9730315.00 12214568.00 L 9730315.00 12474410.00  zM 9887795.00 12474410.00 L 9797245.00 12474410.00 L 9797245.00 12214568.00 L 9887795.00 12214568.00 L 9887795.00 12474410.00  zM 9887795.00 11407480.00 L 9797245.00 11407480.00 L 9797245.00 11147638.00 L 9887795.00 11147638.00 L 9887795.00 11407480.00  zM 10045275.00 11407480.00 L 9954725.00 11407480.00 L 9954725.00 11147638.00 L 10045275.00 11147638.00 L 10045275.00 11407480.00  zM 10202756.00 11407480.00 L 10112206.00 11407480.00 L 10112206.00 11147638.00 L 10202756.00 11147638.00 L 10202756.00 11407480.00  zM 10517716.00 11407480.00 L 10427166.00 11407480.00 L 10427166.00 11147638.00 L 10517716.00 11147638.00 L 10517716.00 11407480.00  zM 10360236.00 11407480.00 L 10269686.00 11407480.00 L 10269686.00 11147638.00 L 10360236.00 11147638.00 L 10360236.00 11407480.00  zM 10045275.00 12474410.00 L 9954725.00 12474410.00 L 9954725.00 12214568.00 L 10045275.00 12214568.00 L 10045275.00 12474410.00  zM 10202756.00 12474410.00 L 10112206.00 12474410.00 L 10112206.00 12214568.00 L 10202756.00 12214568.00 L 10202756.00 12474410.00  zM 10360236.00 12474410.00 L 10269686.00 12474410.00 L 10269686.00 12214568.00 L 10360236.00 12214568.00 L 10360236.00 12474410.00  zM 10517716.00 12474410.00 L 10427166.00 12474410.00 L 10427166.00 12214568.00 L 10517716.00 12214568.00 L 10517716.00 12474410.00  zM 10675197.00 11407480.00 L 10584647.00 11407480.00 L 10584647.00 11147638.00 L 10675197.00 11147638.00 L 10675197.00 11407480.00  zM 10832677.00 11407480.00 L 10742127.00 11407480.00 L 10742127.00 11147638.00 L 10832677.00 11147638.00 L 10832677.00 11407480.00  zM 10990157.00 11407480.00 L 10899607.00 11407480.00 L 10899607.00 11147638.00 L 10990157.00 11147638.00 L 10990157.00 11407480.00  zM 11200787.00 11407480.00 L 11062993.00 11407480.00 L 11062993.00 11147638.00 L 11200787.00 11147638.00 L 11200787.00 11407480.00  zM 10675197.00 12474410.00 L 10584647.00 12474410.00 L 10584647.00 12214568.00 L 10675197.00 12214568.00 L 10675197.00 12474410.00  zM 10832677.00 12474410.00 L 10742127.00 12474410.00 L 10742127.00 12214568.00 L 10832677.00 12214568.00 L 10832677.00 12474410.00  zM 10990157.00 12474410.00 L 10899607.00 12474410.00 L 10899607.00 12214568.00 L 10990157.00 12214568.00 L 10990157.00 12474410.00  zM 11200787.00 12474410.00 L 11062993.00 12474410.00 L 11062993.00 12214568.00 L 11200787.00 12214568.00 L 11200787.00 12474410.00  z"/>
</g>
</svg>
