<svg width="29.99999842mm" height="33.99999804mm" viewBox="0 0 11811023 13385826"  version="1.1" xmlns="http://www.w3.org/2000/svg" xmlns:xlink="http://www.w3.org/1999/xlink">
<desc>
Origin 0 0 Bound 3937008 10236221 11811023 13385826
</desc>
<g fill-rule="evenodd" fill="rgb(128, 128, 0)" stroke="black" stroke-width="1" transform="translate(0, 13385826) scale(1, -1) translate(-3937008, -10236221)">
<path id="N" d="M 12391447.00 11565894.00 L 12391447.00 11365958.00 A 54118.70 54118.70 0 0 0 12283207.00 11365958.00 L 12283207.00 11411806.00 L 11859907.00 11411806.00 L 11791641.00 11343540.00 L 11791641.00 11288409.00 L 11875758.00 11204292.00 A 54121.84 54121.84 0 0 0 11799220.00 11127754.00 L 11699252.00 11227722.00 L 11683401.00 11265993.41 L 11683401.00 11365958.00 L 11699252.00 11404227.00 L 11799220.00 11504195.00 L 11837491.41 11520046.00 L 12283207.00 11520046.00 L 12283207.00 11565894.00 A 54118.70 54118.70 0 0 0 12391447.00 11565894.00  z"/>
<path id="N" d="M 11791641.00 11965764.00 L 11791641.00 11919917.00 L 12337327.00 11919918.00 A 54122.11 54122.11 0 0 0 12375596.00 11827528.00 L 12275628.00 11727560.00 A 54121.84 54121.84 0 1 0 12206669.00 11811677.00 L 11791641.00 11811677.00 L 11791641.00 11765829.00 A 54118.70 54118.70 0 1 0 11683401.00 11765829.00 L 11683401.00 11965764.00 A 54118.70 54118.70 0 0 0 11791641.00 11965764.00  z"/>
<path id="N" d="M 8746061.47 12716534.47 m -100354.75 0 a 100354.75 100354.75 0 1 1 200709.51 0a 100354.75 100354.75 0 1 1 -200709.51 0"/>
<path id="N" d="M 8366747.00 12244700.00 L 8379228.00 12214567.00 L 8365449.00 12183896.37 L 8365449.00 11438151.63 L 8379228.00 11407481.00 L 8366747.00 11377348.00 L 8336614.00 11364867.00 L 8322835.00 11364867.00 L 8292702.00 11377348.00 L 8280221.00 11407481.00 L 8280221.00 12214567.00 L 8292702.00 12244700.00 L 8322835.00 12257181.00 L 8336614.00 12257181.00 L 8366747.00 12244700.00  z"/>
<path id="N" d="M 11392338.00 12244700.00 L 11404819.00 12214567.00 L 11404819.00 11407481.00 L 11392338.00 11377348.00 L 11362205.00 11364867.00 L 11348426.00 11364867.00 L 11318293.00 11377348.00 L 11305812.00 11407481.00 L 11319591.00 11438151.63 L 11319591.00 12183896.37 L 11305812.00 12214567.00 L 11318293.00 12244700.00 L 11348426.00 12257181.00 L 11362205.00 12257181.00 L 11392338.00 12244700.00  z"/>
</g>
</svg>
