<svg width="29.99999842mm" height="33.99999804mm" viewBox="0 0 11811023 13385826"  version="1.1" xmlns="http://www.w3.org/2000/svg" xmlns:xlink="http://www.w3.org/1999/xlink">
<desc>
Origin 0 0 Bound 3937008 10236221 11811023 13385826
</desc>
<g fill-rule="evenodd" fill="rgb(128, 0, 128)" stroke="black" stroke-width="1" transform="translate(0, 13385826) scale(1, -1) translate(-3937008, -10236221)">
<path id="N" d="M 14589564.00 23622046.00 A 119403.94 119403.94 0 0 0 14667948.00 23432809.00 L 14614046.00 23374616.00 A 629926.01 629926.01 0 0 1 15558792.00 22541965.00 A 119406.16 119406.16 0 0 0 15748029.00 22463580.00 L 15748030.00 11339908.00 A 1183659.99 1183659.99 0 0 0 14644342.00 10236220.00 L 5040696.00 10236222.00 A 1183546.33 1183546.33 0 0 0 3937009.00 11339909.00 L 3937008.00 22463580.00 A 119390.75 119390.75 0 0 0 4126245.00 22541965.00 L 4184437.00 22488062.00 A 629926.01 629926.01 0 0 1 5017088.00 23432808.00 A 119406.16 119406.16 0 0 0 5095473.00 23622045.00 L 8680508.00 23622046.00 A 395601.38 395601.38 0 0 0 9035432.00 23267122.00 L 9035433.00 20866142.00 L 9037328.00 20827552.00 A 393706.48 393706.48 0 0 1 9429134.00 20472441.00 L 12618110.00 20472441.00 L 12656699.00 20474336.00 A 393706.48 393706.48 0 0 1 13011811.00 20866142.00 L 13011812.00 23267122.00 A 395575.49 395575.49 0 0 0 13366735.00 23622046.00 L 14589564.00 23622046.00  zM 12008503.00 11811653.00 L 11337953.00 11811653.00 L 11337953.00 10393071.00 L 12008503.00 10393071.00 L 12008503.00 11811653.00  zM 11309057.00 16353549.00 L 10659449.00 16353549.00 A 111034.84 111034.84 0 0 1 10659449.00 16131489.00 L 11309057.00 16131489.00 A 111034.84 111034.84 0 0 1 11309057.00 16353549.00  zM 9025592.00 16353549.00 L 8375984.00 16353549.00 A 111034.84 111034.84 0 0 1 8375984.00 16131489.00 L 9025592.00 16131489.00 A 111034.84 111034.84 0 0 1 9025592.00 16353549.00  zM 11309057.00 16609455.00 L 10659449.00 16609455.00 A 111034.84 111034.84 0 0 1 10659449.00 16387395.00 L 11309057.00 16387395.00 A 111034.84 111034.84 0 0 1 11309057.00 16609455.00  zM 14646299.00 11811653.00 L 13975749.00 11811653.00 L 13975749.00 10393071.00 L 14646299.00 10393071.00 L 14646299.00 11811653.00  zM 12835275.00 14095118.00 L 12361575.00 14095118.00 L 12361575.00 12637166.00 L 12835275.00 12637166.00 L 12835275.00 14095118.00  zM 13622677.00 14095118.00 L 13148977.00 14095118.00 L 13148977.00 12637166.00 L 13622677.00 12637166.00 L 13622677.00 14095118.00  zM 9025592.00 16609455.00 L 8375984.00 16609455.00 A 111034.84 111034.84 0 0 1 8375984.00 16387395.00 L 9025592.00 16387395.00 A 111034.84 111034.84 0 0 1 9025592.00 16609455.00  zM 9025592.00 16865360.00 L 8375984.00 16865360.00 A 111034.84 111034.84 0 0 1 8375984.00 16643300.00 L 9025592.00 16643300.00 A 111034.84 111034.84 0 0 1 9025592.00 16865360.00  zM 9025592.00 17121266.00 L 8375984.00 17121266.00 A 111034.84 111034.84 0 0 1 8375984.00 16899206.00 L 9025592.00 16899206.00 A 111034.84 111034.84 0 0 1 9025592.00 17121266.00  zM 9025592.00 17377171.00 L 8375984.00 17377171.00 A 111034.84 111034.84 0 0 1 8375984.00 17155111.00 L 9025592.00 17155111.00 A 111034.84 111034.84 0 0 1 9025592.00 17377171.00  zM 11309057.00 17377171.00 L 10659449.00 17377171.00 A 111034.84 111034.84 0 0 1 10659449.00 17155111.00 L 11309057.00 17155111.00 A 111034.84 111034.84 0 0 1 11309057.00 17377171.00  zM 11309057.00 16865360.00 L 10659449.00 16865360.00 A 111034.84 111034.84 0 0 1 10659449.00 16643300.00 L 11309057.00 16643300.00 A 111034.84 111034.84 0 0 1 11309057.00 16865360.00  zM 11309057.00 17121266.00 L 10659449.00 17121266.00 A 111034.84 111034.84 0 0 1 10659449.00 16899206.00 L 11309057.00 16899206.00 A 111034.84 111034.84 0 0 1 11309057.00 17121266.00  zM 9025592.00 17633077.00 L 8375984.00 17633077.00 A 111034.84 111034.84 0 0 1 8375984.00 17411017.00 L 9025592.00 17411017.00 A 111034.84 111034.84 0 0 1 9025592.00 17633077.00  zM 9025592.00 17888982.00 L 8375984.00 17888982.00 A 111034.84 111034.84 0 0 1 8375984.00 17666922.00 L 9025592.00 17666922.00 A 111034.84 111034.84 0 0 1 9025592.00 17888982.00  zM 9025592.00 18144888.00 L 8375984.00 18144888.00 A 111034.84 111034.84 0 0 1 8375984.00 17922828.00 L 9025592.00 17922828.00 A 111034.84 111034.84 0 0 1 9025592.00 18144888.00  zM 9025592.00 18400793.00 L 8375984.00 18400793.00 A 111034.84 111034.84 0 0 1 8375984.00 18178733.00 L 9025592.00 18178733.00 A 111034.84 111034.84 0 0 1 9025592.00 18400793.00  zM 9025592.00 18912604.00 L 8375984.00 18912604.00 A 111034.84 111034.84 0 0 1 8375984.00 18690544.00 L 9025592.00 18690544.00 A 111034.84 111034.84 0 0 1 9025592.00 18912604.00  zM 9025592.00 18656699.00 L 8375984.00 18656699.00 A 111034.84 111034.84 0 0 1 8375984.00 18434639.00 L 9025592.00 18434639.00 A 111034.84 111034.84 0 0 1 9025592.00 18656699.00  zM 9025592.00 19168510.00 L 8375984.00 19168510.00 A 111034.84 111034.84 0 0 1 8375984.00 18946450.00 L 9025592.00 18946450.00 A 111034.84 111034.84 0 0 1 9025592.00 19168510.00  zM 11309057.00 17633077.00 L 10659449.00 17633077.00 A 111034.84 111034.84 0 0 1 10659449.00 17411017.00 L 11309057.00 17411017.00 A 111034.84 111034.84 0 0 1 11309057.00 17633077.00  zM 11309057.00 17888982.00 L 10659449.00 17888982.00 A 111034.84 111034.84 0 0 1 10659449.00 17666922.00 L 11309057.00 17666922.00 A 111034.84 111034.84 0 0 1 11309057.00 17888982.00  zM 11309057.00 18144888.00 L 10659449.00 18144888.00 A 111034.84 111034.84 0 0 1 10659449.00 17922828.00 L 11309057.00 17922828.00 A 111034.84 111034.84 0 0 1 11309057.00 18144888.00  zM 11309057.00 18400793.00 L 10659449.00 18400793.00 A 111034.84 111034.84 0 0 1 10659449.00 18178733.00 L 11309057.00 18178733.00 A 111034.84 111034.84 0 0 1 11309057.00 18400793.00  zM 11309057.00 19168510.00 L 10659449.00 19168510.00 A 111034.84 111034.84 0 0 1 10659449.00 18946450.00 L 11309057.00 18946450.00 A 111034.84 111034.84 0 0 1 11309057.00 19168510.00  zM 11309057.00 18656699.00 L 10659449.00 18656699.00 A 111034.84 111034.84 0 0 1 10659449.00 18434639.00 L 11309057.00 18434639.00 A 111034.84 111034.84 0 0 1 11309057.00 18656699.00  zM 11309057.00 18912604.00 L 10659449.00 18912604.00 A 111034.84 111034.84 0 0 1 10659449.00 18690544.00 L 11309057.00 18690544.00 A 111034.84 111034.84 0 0 1 11309057.00 18912604.00  z"/>
</g>
</svg>
