<svg width="29.99999842mm" height="33.99999804mm" viewBox="0 0 11811023 13385826"  version="1.1" xmlns="http://www.w3.org/2000/svg" xmlns:xlink="http://www.w3.org/1999/xlink">
<desc>
Origin 0 0 Bound 3937008 10236221 11811023 13385826
</desc>
<g fill-rule="evenodd" fill="rgb(0, 0, 255)" stroke="black" stroke-width="1" transform="translate(0, 13385826) scale(1, -1) translate(-3937008, -10236221)">
<path id="N" d="M 10675197.00 12214568.00 L 10584647.00 12214568.00 L 10584647.00 12474410.00 L 10675197.00 12474410.00 L 10675197.00 12214568.00  z"/>
<path id="N" d="M 10832677.00 12214568.00 L 10742127.00 12214568.00 L 10742127.00 12474410.00 L 10832677.00 12474410.00 L 10832677.00 12214568.00  z"/>
<path id="N" d="M 9100393.00 12214568.00 L 9009843.00 12214568.00 L 9009843.00 12474410.00 L 9100393.00 12474410.00 L 9100393.00 12214568.00  z"/>
<path id="N" d="M 9257874.00 12214568.00 L 9167324.00 12214568.00 L 9167324.00 12474410.00 L 9257874.00 12474410.00 L 9257874.00 12214568.00  z"/>
<path id="N" d="M 10045275.00 12214568.00 L 9954725.00 12214568.00 L 9954725.00 12474410.00 L 10045275.00 12474410.00 L 10045275.00 12214568.00  z"/>
<path id="N" d="M 10202756.00 12214568.00 L 10112206.00 12214568.00 L 10112206.00 12474410.00 L 10202756.00 12474410.00 L 10202756.00 12214568.00  z"/>
<path id="N" d="M 10990157.00 12214568.00 L 10899607.00 12214568.00 L 10899607.00 12474410.00 L 10990157.00 12474410.00 L 10990157.00 12214568.00  z"/>
<path id="N" d="M 10517716.00 12214568.00 L 10427166.00 12214568.00 L 10427166.00 12474410.00 L 10517716.00 12474410.00 L 10517716.00 12214568.00  z"/>
<path id="N" d="M 8942913.00 12214568.00 L 8852363.00 12214568.00 L 8852363.00 12474410.00 L 8942913.00 12474410.00 L 8942913.00 12214568.00  z"/>
<path id="N" d="M 11200787.00 12214568.00 L 11062993.00 12214568.00 L 11062993.00 12474410.00 L 11200787.00 12474410.00 L 11200787.00 12214568.00  z"/>
<path id="N" d="M 8622047.00 11147638.00 L 8484253.00 11147638.00 L 8484253.00 11407480.00 L 8622047.00 11407480.00 L 8622047.00 11147638.00  z"/>
<path id="N" d="M 11200787.00 11147638.00 L 11062993.00 11147638.00 L 11062993.00 11407480.00 L 11200787.00 11407480.00 L 11200787.00 11147638.00  z"/>
<path id="N" d="M 8622047.00 12214568.00 L 8484253.00 12214568.00 L 8484253.00 12474410.00 L 8622047.00 12474410.00 L 8622047.00 12214568.00  z"/>
<path id="N" d="M 9887795.00 12214568.00 L 9797245.00 12214568.00 L 9797245.00 12474410.00 L 9887795.00 12474410.00 L 9887795.00 12214568.00  z"/>
<path id="N" d="M 9415354.00 12214568.00 L 9324804.00 12214568.00 L 9324804.00 12474410.00 L 9415354.00 12474410.00 L 9415354.00 12214568.00  z"/>
<path id="N" d="M 9572834.00 12214568.00 L 9482284.00 12214568.00 L 9482284.00 12474410.00 L 9572834.00 12474410.00 L 9572834.00 12214568.00  z"/>
<path id="N" d="M 9730315.00 12214568.00 L 9639765.00 12214568.00 L 9639765.00 12474410.00 L 9730315.00 12474410.00 L 9730315.00 12214568.00  z"/>
<path id="N" d="M 8942913.00 11147638.00 L 8852363.00 11147638.00 L 8852363.00 11407480.00 L 8942913.00 11407480.00 L 8942913.00 11147638.00  z"/>
<path id="N" d="M 8785433.00 11147638.00 L 8694883.00 11147638.00 L 8694883.00 11407480.00 L 8785433.00 11407480.00 L 8785433.00 11147638.00  z"/>
<path id="N" d="M 10202756.00 11147638.00 L 10112206.00 11147638.00 L 10112206.00 11407480.00 L 10202756.00 11407480.00 L 10202756.00 11147638.00  z"/>
<path id="N" d="M 10990157.00 11147638.00 L 10899607.00 11147638.00 L 10899607.00 11407480.00 L 10990157.00 11407480.00 L 10990157.00 11147638.00  z"/>
<path id="N" d="M 10517716.00 11147638.00 L 10427166.00 11147638.00 L 10427166.00 11407480.00 L 10517716.00 11407480.00 L 10517716.00 11147638.00  z"/>
<path id="N" d="M 10675197.00 11147638.00 L 10584647.00 11147638.00 L 10584647.00 11407480.00 L 10675197.00 11407480.00 L 10675197.00 11147638.00  z"/>
<path id="N" d="M 10832677.00 11147638.00 L 10742127.00 11147638.00 L 10742127.00 11407480.00 L 10832677.00 11407480.00 L 10832677.00 11147638.00  z"/>
<path id="N" d="M 10360236.00 11147638.00 L 10269686.00 11147638.00 L 10269686.00 11407480.00 L 10360236.00 11407480.00 L 10360236.00 11147638.00  z"/>
<path id="N" d="M 9415354.00 11147638.00 L 9324804.00 11147638.00 L 9324804.00 11407480.00 L 9415354.00 11407480.00 L 9415354.00 11147638.00  z"/>
<path id="N" d="M 9730315.00 11147638.00 L 9639765.00 11147638.00 L 9639765.00 11407480.00 L 9730315.00 11407480.00 L 9730315.00 11147638.00  z"/>
<path id="N" d="M 9887795.00 11147638.00 L 9797245.00 11147638.00 L 9797245.00 11407480.00 L 9887795.00 11407480.00 L 9887795.00 11147638.00  z"/>
<path id="N" d="M 10360236.00 12214568.00 L 10269686.00 12214568.00 L 10269686.00 12474410.00 L 10360236.00 12474410.00 L 10360236.00 12214568.00  z"/>
<path id="N" d="M 8785433.00 12214568.00 L 8694883.00 12214568.00 L 8694883.00 12474410.00 L 8785433.00 12474410.00 L 8785433.00 12214568.00  z"/>
<path id="N" d="M 9100393.00 11147638.00 L 9009843.00 11147638.00 L 9009843.00 11407480.00 L 9100393.00 11407480.00 L 9100393.00 11147638.00  z"/>
<path id="N" d="M 9257874.00 11147638.00 L 9167324.00 11147638.00 L 9167324.00 11407480.00 L 9257874.00 11407480.00 L 9257874.00 11147638.00  z"/>
<path id="N" d="M 10045275.00 11147638.00 L 9954725.00 11147638.00 L 9954725.00 11407480.00 L 10045275.00 11407480.00 L 10045275.00 11147638.00  z"/>
<path id="N" d="M 9572834.00 11147638.00 L 9482284.00 11147638.00 L 9482284.00 11407480.00 L 9572834.00 11407480.00 L 9572834.00 11147638.00  z"/>
</g>
</svg>
