<svg width="29.99999842mm" height="33.99999804mm" viewBox="0 0 11811023 13385826"  version="1.1" xmlns="http://www.w3.org/2000/svg" xmlns:xlink="http://www.w3.org/1999/xlink">
<desc>
Origin 0 0 Bound 3937008 10236221 11811023 13385826
</desc>
<g fill-rule="evenodd" fill="rgb(255, 255, 0)" stroke="black" stroke-width="1" transform="translate(0, 13385826) scale(1, -1) translate(-3937008, -10236221)">
<path id="N" d="M 11765298.00 15310949.00 L 11865266.00 15210981.00 L 11881117.00 15172712.00 L 11881118.00 14972777.00 L 11865266.00 14934508.00 L 11765298.00 14834540.00 L 11727029.00 14818689.00 L 11481246.00 14818689.00 L 11481246.00 14672874.00 A 54118.70 54118.70 0 0 0 11373006.00 14672874.00 L 11373006.00 15272680.00 L 11388857.00 15310949.00 L 11427126.00 15326800.00 L 11727029.00 15326801.00 L 11765298.00 15310949.00  zM 11704611.00 15218560.00 L 11481246.00 15218560.00 L 11481246.00 14926929.00 L 11704611.00 14926929.00 L 11772877.00 14995195.00 L 11772877.00 15150294.00 L 11704611.00 15218560.00  z"/>
<path id="N" d="M 8651511.00 20344806.00 L 8651511.00 19844968.00 L 8635660.00 19806699.00 L 8535692.00 19706731.00 L 8497420.59 19690880.00 L 8297488.00 19690880.00 L 8259219.00 19706731.00 L 8159251.00 19806699.00 L 8143400.00 19844970.41 L 8143400.00 20344806.00 A 54118.70 54118.70 0 1 0 8251640.00 20344806.00 L 8251640.00 19867386.00 L 8319906.00 19799120.00 L 8475005.00 19799120.00 L 8543271.00 19867386.00 L 8543271.00 20344806.00 A 54118.70 54118.70 0 1 0 8651511.00 20344806.00  z"/>
<path id="N" d="M 11782102.00 13534070.00 L 11794583.00 13503937.00 L 11794583.00 12916630.00 L 12244095.00 12916630.00 L 12274228.00 12904149.00 L 12286709.00 12874016.00 L 12274228.00 12843883.00 L 12244095.00 12831402.00 L 11751969.00 12831402.00 L 11721836.00 12843883.00 L 11709355.00 12874016.00 L 11709355.00 13461323.00 L 11479622.00 13461323.00 L 11479622.00 11929134.00 L 11467141.00 11899001.00 L 11437008.00 11886520.00 L 11406875.00 11899001.00 L 11394394.00 11929134.00 L 11394394.00 13503937.00 L 11406875.00 13534070.00 L 11437008.00 13546551.00 L 11751969.00 13546551.00 L 11782102.00 13534070.00  z"/>
<path id="N" d="M 14577377.00 13534070.00 L 14589858.00 13503937.00 L 14589858.00 11929134.00 L 14577377.00 11899001.00 L 14547244.00 11886520.00 L 14517111.00 11899001.00 L 14504630.00 11929134.00 L 14504630.00 13461323.00 L 14274897.00 13461323.00 L 14274897.00 12874016.00 L 14262416.00 12843883.00 L 14232283.00 12831402.00 L 13740157.00 12831402.00 L 13710024.00 12843883.00 L 13697543.00 12874016.00 L 13710024.00 12904149.00 L 13740157.00 12916630.00 L 14189669.00 12916630.00 L 14189669.00 13503937.00 L 14202150.00 13534070.00 L 14232283.00 13546551.00 L 14547244.00 13546551.00 L 14577377.00 13534070.00  z"/>
<path id="N" d="M 12181020.00 15272677.59 L 12181020.00 14726994.00 L 12226867.00 14726994.00 A 54118.70 54118.70 0 1 0 12226867.00 14618754.00 L 12026932.00 14618754.00 A 54118.70 54118.70 0 1 0 12026932.00 14726994.00 L 12072780.00 14726994.00 L 12072780.00 15142022.00 L 12065201.00 15134443.00 A 54121.84 54121.84 0 0 0 11988663.00 15210981.00 L 12088631.00 15310949.00 A 54119.43 54119.43 0 0 0 12181020.00 15272677.59  z"/>
<path id="N" d="M 8951414.00 20344803.59 L 8951414.00 19799120.00 L 8997261.00 19799120.00 A 54118.70 54118.70 0 0 0 8997261.00 19690880.00 L 8797326.00 19690880.00 A 54118.70 54118.70 0 0 0 8797326.00 19799120.00 L 8843174.00 19799120.00 L 8843174.00 20214148.00 L 8835595.00 20206569.00 A 54121.84 54121.84 0 0 0 8759057.00 20283107.00 L 8859025.00 20383075.00 A 54119.43 54119.43 0 0 0 8951414.00 20344803.59  z"/>
<path id="N" d="M 8700786.47 19342911.47 m -100354.75 0 a 100354.75 100354.75 0 1 1 200709.51 0a 100354.75 100354.75 0 1 1 -200709.51 0"/>
<path id="N" d="M 10463204.00 19235251.00 L 10475685.00 19205118.00 L 10475685.00 16094882.00 L 10463204.00 16064749.00 L 10433071.00 16052268.00 L 9251969.00 16052268.00 L 9221836.00 16064749.00 L 9209355.00 16094882.00 L 9209355.00 19205118.00 L 9221836.00 19235251.00 L 9251969.00 19247732.00 L 10433071.00 19247732.00 L 10463204.00 19235251.00  zM 10390457.00 19162504.00 L 9294583.00 19162504.00 L 9294583.00 16137496.00 L 10390457.00 16137496.00 L 10390457.00 19162504.00  z"/>
<path id="N" d="M 12598423.47 14271652.47 m -100354.75 0 a 100354.75 100354.75 0 1 1 200709.51 0a 100354.75 100354.75 0 1 1 -200709.51 0"/>
<path id="N" d="M 9645661.06 18811408.06 m -240860.29 0 a 240860.29 240860.29 0 1 1 481720.58 0a 240860.29 240860.29 0 1 1 -481720.58 0"/>
<path id="N" d="M 13888401.00 10541944.00 L 13900882.00 10511811.00 L 13888401.00 10481678.00 L 13858268.00 10469197.00 L 12125984.00 10469197.00 L 12095851.00 10481678.00 L 12083370.00 10511811.00 L 12095851.00 10541944.00 L 12125984.00 10554425.00 L 13858268.00 10554425.00 L 13888401.00 10541944.00  z"/>
</g>
</svg>
