**ABCDEFGHIJKLMNOPQRSTUVWXYZabcdefghijklmnopqrstuvwxyz**************************
**PARASOLID !"#$%&'()*+,-./:;<=>?@[\]^_`{|}~0123456789**************************
**PART1;
MC=AMD64;
MC_MODEL=AMD64 Family 23 Model 1 Stepping 2, AuthenticAMD;
MC_ID=unknown;
OS=Windows_NT;
OS_RELEASE=unknown;
FRU=CAD Exchanger 3.13.0 (cadexchanger.com);
APPL=unknown;
SITE=unknown;
USER=unknown;
FORMAT=text;
GUISE=transmit;
KEY=FAIR-DO-41-2_CMP-004-00007-2;
FILE=FAIR-DO-41-2_CMP-004-00007-2.x_t;
DATE=Tue Mar 28 18:34:45 2023;
**PART2;
SCH=SCH_1200000_12103;
USFLD_SIZE=0;
**PART3;
**END_OF_HEADER*****************************************************************
T51 : TRANSMIT FILE created by modeller version 120000017 SCH_1200000_121030 74
 7 1 7 0 2 42 80 100 120 158 196 12 2 26 0 3 0 0 0 0 1000.0 1.0e-08 0 0 0 1 0 1
 1 12 14 20 18 9 19 17 70 3 0 2 0 0 4 1 20 0 4 4 1 T74 20 4 1 0 5 0 0 0 0 0 0 0
 0 0 0 0 0 0 0 0 0 0 0 0 81 1 5 7 6 13 0 0 34 0 8 80 1 6 0 7 8001 0 0 0 0 3 5 0
 0 0 FFFFTFTFFFFFFF2 79 15 7 SDL/TYSA_COLOUR83 3 8 1.0 1.0 0.800000011920929 19
 9 1 0 2 11 0 10 V13 10 2 0 2 0 0 0 0 9 13 19 11 3 0 2 0 9 12 S13 12 4 0 2 0 13
 0 0 11 0 14 13 5 5 1.0e-08 32 0 15 12 14 +0 0 32 0 10 51 14 6 0 13 33 0 0 +-0.0
0234933998 4.0640000000000001e-08 0.00117499892 1.0 -1.2246467991473533e-16 -6.1
232339957367659e-17 3.9250111999999998e-04 -6.1232339957367659e-17 7.49879891330
92876e-33 -1.0 15 15 8 0 16 13 0 17 16 0 15 22 27 17 21 19 0 21 +18 17 9 0 16 0
 23 18 ?2 29 18 10 0 17 24 0 -0.00234933998 4.0640000000000001e-08 7.82497799999
99998e-04 16 19 11 0 ?16 0 25 20 0 0 2 31 20 12 0 19 26 0 0 +-0.00234933998 4.06
40000000000001e-08 0.00117499892 -1.0 1.2246467991473533e-16 6.1232339957367659e
-17 -6.1232339957367659e-17 7.4987989133092876e-33 -1.0 3.9250111999999998e-04 1
7 21 0 36 21 21 17 16 19 0 27 -17 22 0 15 28 16 23 27 25 0 31 +18 23 13 0 22 17
 0 24 ?2 29 24 14 0 23 0 18 -0.00389933942 4.0640000000189822e-08 7.824977999999
9998e-04 16 25 15 0 ?22 19 29 26 0 0 2 30 26 16 0 25 30 20 0 +-0.00234933998 4.0
640000000000001e-08 7.8249779999999998e-04 -1.0 1.2246467991473533e-16 6.1232339
957367659e-17 17 27 0 15 16 28 17 22 25 0 0 -17 28 0 15 27 22 23 31 29 0 0 -16 2
9 17 0 ?31 25 0 30 0 0 2 31 30 18 0 29 0 26 0 +-0.00389933942 4.0640000000189822
e-08 0.00117499892 -1.0 1.2246467991473533e-16 6.1232339957367659e-17 -6.1232339
957367659e-17 7.4987989133092876e-33 -1.0 3.9250111999999998e-04 17 31 0 41 31 3
1 23 28 29 0 28 +14 32 19 34 1.0e-08 37 13 36 12 33 -0 0 37 13 10 50 33 20 0 32
 38 14 0 +-0.00234933998 4.0639999999988801e-08 0.00117499892 -1.0 1.22464679914
73533e-16 6.1232339957367659e-17 -6.1232339957367659e-17 7.4987989133092876e-33
 -1.0 81 1 34 21 6 32 0 0 39 5 35 83 3 35 1.0 1.0 0.800000011920929 15 36 22 0 2
1 32 0 14 37 23 39 1.0e-08 0 32 41 12 38 +0 0 0 32 10 50 38 24 0 37 0 33 0 +-0.0
0389933942 4.0640000000178622e-08 0.00117499892 -1.0 1.2246467991473533e-16 6.12
32339957367659e-17 -6.1232339957367659e-17 7.4987989133092876e-33 -1.0 81 1 39 2
5 6 37 0 0 0 34 40 83 3 40 1.0 1.0 0.800000011920929 15 41 26 0 31 37 0 12 42 26
 0 43 0 0 0 0 1000.0 1.0e-08 0 0 0 1 0 1 1 50 52 58 56 47 57 55 70 43 0 42 0 0 4
 1 20 0 44 44 1 T74 20 44 1 0 45 0 0 0 0 0 0 0 0 0 0 0 0 0 0 0 0 0 0 0 81 1 45 7
 6 51 0 0 72 0 46 83 3 46 1.0 1.0 0.800000011920929 19 47 1 0 42 49 0 48 V13 48
 2 0 42 0 0 0 0 47 51 19 49 3 0 42 0 47 50 S13 50 4 0 42 0 51 0 0 49 0 14 51 5 4
5 1.0e-08 70 0 53 50 52 +0 0 70 0 48 51 52 6 0 51 71 0 0 +-0.00389951976 1.6256e
-07 -0.00200000108 0.0 0.0 -1.0 3.9250111999999998e-04 -1.0 1.2246467991473533e-
16 0.0 15 53 8 0 54 51 0 17 54 0 53 60 65 55 59 57 0 59 +18 55 9 0 54 0 61 56 ?4
2 29 56 10 0 55 62 0 -0.00429202088 1.6256000000004804e-07 -0.00200000108 16 57
 11 0 ?54 0 63 58 0 0 42 31 58 12 0 57 64 0 0 +-0.00389951976 1.6256e-07 -0.0020
0000108 0.0 0.0 1.0 -1.0 1.2246467991473533e-16 0.0 3.9250111999999998e-04 17 59
 0 74 59 59 55 54 57 0 65 -17 60 0 53 66 54 61 65 63 0 69 +18 61 13 0 60 55 0 62
 ?42 29 62 14 0 61 0 56 -0.00429202088 1.6256000000004804e-07 0.00117499892 16 6
3 15 0 ?60 57 67 64 0 0 42 30 64 16 0 63 68 58 0 +-0.00429202088 1.6256000000004
804e-07 -0.00200000108 0.0 0.0 1.0 17 65 0 53 54 66 55 60 63 0 0 -17 66 0 53 65
 60 61 69 67 0 0 -16 67 17 0 ?69 63 0 68 0 0 42 31 68 18 0 67 0 64 0 +-0.0038995
1976 1.6256e-07 0.00117499892 0.0 0.0 1.0 -1.0 1.2246467991473533e-16 0.0 3.9250
111999999998e-04 17 69 0 79 69 69 61 66 67 0 66 +14 70 19 72 1.0e-08 75 51 74 50
 71 -0 0 75 51 48 50 71 20 0 70 76 52 0 +-0.00389951976 1.625599999999888e-07 -0
.00200000108 0.0 0.0 1.0 -1.0 1.2246467991473533e-16 0.0 81 1 72 21 6 70 0 0 77
 45 73 83 3 73 1.0 1.0 0.800000011920929 15 74 22 0 59 70 0 14 75 23 77 1.0e-08
 0 70 79 50 76 +0 0 0 70 48 50 76 24 0 75 0 71 0 +-0.00389951976 1.6255999999998
88e-07 0.00117499892 0.0 0.0 1.0 -1.0 1.2246467991473533e-16 0.0 81 1 77 25 6 75
 0 0 0 72 78 83 3 78 1.0 1.0 0.800000011920929 15 79 26 0 69 75 0 12 80 14 0 81
 0 0 0 0 1000.0 1.0e-08 0 0 0 1 0 1 1 88 90 96 94 85 95 93 70 81 0 80 0 0 4 1 20
 0 82 82 1 T74 20 82 1 0 83 0 0 0 0 0 0 0 0 0 0 0 0 0 0 0 0 0 0 0 81 1 83 7 6 89
 0 0 0 0 84 83 3 84 1.0 1.0 0.800000011920929 19 85 1 0 80 87 0 86 V13 86 2 0 80
 0 0 0 0 85 89 19 87 3 0 80 0 85 88 S13 88 4 0 80 0 89 0 0 87 0 14 89 5 83 1.0e-
08 0 0 91 88 90 +0 0 0 0 86 53 90 6 0 89 0 0 0 +-0.00389943848 1.219200000000000
1e-07 0.00117499892 3.9250111999999998e-04 0.0 0.0 1.0 -1.0 1.2246467991473533e-
16 0.0 15 91 8 0 92 89 0 17 92 0 91 97 97 93 97 95 0 0 -18 93 9 0 92 0 98 94 ?80
 29 94 10 0 93 99 0 -0.00389943848 1.2192000000000001e-07 7.8249779999999998e-04
 16 95 11 0 ?97 0 0 96 0 0 80 31 96 12 0 95 0 0 0 +-0.00389943848 1.219200000000
0001e-07 0.00117499892 1.2246467991473533e-16 1.0 0.0 -1.0 1.2246467991473533e-1
6 0.0 3.9250111999999998e-04 17 97 0 91 92 92 98 92 95 0 0 +18 98 13 0 97 93 0 9
9 ?80 29 99 14 0 98 0 94 -0.00389943848 1.2192000000000001e-07 0.00156750004 12
 100 14 0 101 0 0 0 0 1000.0 1.0e-08 0 0 0 1 0 1 1 108 110 116 114 105 115 113 7
0 101 0 100 0 0 4 1 20 0 102 102 1 T74 20 102 1 0 103 0 0 0 0 0 0 0 0 0 0 0 0 0
 0 0 0 0 0 0 81 1 103 7 6 109 0 0 0 0 104 83 3 104 1.0 1.0 0.800000011920929 19
 105 1 0 100 107 0 106 V13 106 2 0 100 0 0 0 0 105 109 19 107 3 0 100 0 105 108
 S13 108 4 0 100 0 109 0 0 107 0 14 109 5 103 1.0e-08 0 0 111 108 110 +0 0 0 0 1
06 53 110 6 0 109 0 0 0 +0.00389968232 1.2192000000000001e-07 0.00117499892 3.92
50111999999998e-04 0.0 0.0 1.0 1.0 -2.4492935982947066e-16 0.0 15 111 8 0 112 10
9 0 17 112 0 111 117 117 113 117 115 0 0 -18 113 9 0 112 0 118 114 ?100 29 114 1
0 0 113 119 0 0.00389968232 1.2192000000000001e-07 7.8249779999999998e-04 16 115
 11 0 ?117 0 0 116 0 0 100 31 116 12 0 115 0 0 0 +0.00389968232 1.21920000000000
01e-07 0.00117499892 -2.4492935982947066e-16 -1.0 0.0 1.0 -2.4492935982947066e-1
6 0.0 3.9250111999999998e-04 17 117 0 111 112 112 118 112 115 0 0 +18 118 13 0 1
17 113 0 119 ?100 29 119 14 0 118 0 114 0.00389968232 1.2192000000000001e-07 0.0
0156750004 12 120 26 0 121 0 0 0 0 1000.0 1.0e-08 0 0 0 1 0 1 1 128 130 136 134
 125 135 133 70 121 0 120 0 0 4 1 20 0 122 122 1 T74 20 122 1 0 123 0 0 0 0 0 0
 0 0 0 0 0 0 0 0 0 0 0 0 0 81 1 123 7 6 129 0 0 150 0 124 83 3 124 1.0 1.0 0.800
000011920929 19 125 1 0 120 127 0 126 V13 126 2 0 120 0 0 0 0 125 129 19 127 3 0
 120 0 125 128 S13 128 4 0 120 0 129 0 0 127 0 14 129 5 123 1.0e-08 148 0 131 12
8 130 +0 0 148 0 126 51 130 6 0 129 149 0 0 +0.0038997636 1.6256e-07 -0.00200000
108 0.0 0.0 -1.0 3.9250111999999998e-04 1.0 -2.4492935982947066e-16 0.0 15 131 8
 0 132 129 0 17 132 0 131 138 143 133 137 135 0 137 +18 133 9 0 132 0 139 134 ?1
20 29 134 10 0 133 140 0 0.00429226472 1.6255999999990386e-07 -0.00200000108 16
 135 11 0 ?132 0 141 136 0 0 120 31 136 12 0 135 142 0 0 +0.0038997636 1.6256e-0
7 -0.00200000108 0.0 0.0 1.0 1.0 -2.4492935982947066e-16 0.0 3.9250111999999998e
-04 17 137 0 152 137 137 133 132 135 0 143 -17 138 0 131 144 132 139 143 141 0 1
47 +18 139 13 0 138 133 0 140 ?120 29 140 14 0 139 0 134 0.00429226472 1.6255999
999990386e-07 0.00117499892 16 141 15 0 ?138 135 145 142 0 0 120 30 142 16 0 141
 146 136 0 +0.00429226472 1.6255999999990386e-07 -0.00200000108 0.0 0.0 1.0 17 1
43 0 131 132 144 133 138 141 0 0 -17 144 0 131 143 138 139 147 145 0 0 -16 145 1
7 0 ?147 141 0 146 0 0 120 31 146 18 0 145 0 142 0 +0.0038997636 1.6256e-07 0.00
117499892 0.0 0.0 1.0 1.0 -2.4492935982947066e-16 0.0 3.9250111999999998e-04 17
 147 0 157 147 147 139 144 145 0 144 +14 148 19 150 1.0e-08 153 129 152 128 149
 -0 0 153 129 126 50 149 20 0 148 154 130 0 +0.0038997636 1.6256000000001118e-07
 -0.00200000108 0.0 0.0 1.0 1.0 -2.4492935982947066e-16 0.0 81 1 150 21 6 148 0
 0 155 123 151 83 3 151 1.0 1.0 0.800000011920929 15 152 22 0 137 148 0 14 153 2
3 155 1.0e-08 0 148 157 128 154 +0 0 0 148 126 50 154 24 0 153 0 149 0 +0.003899
7636 1.6256000000001118e-07 0.00117499892 0.0 0.0 1.0 1.0 -2.4492935982947066e-1
6 0.0 81 1 155 25 6 153 0 0 0 150 156 83 3 156 1.0 1.0 0.800000011920929 15 157
 26 0 147 153 0 12 158 26 0 159 0 0 0 0 1000.0 1.0e-08 0 0 0 1 0 1 1 166 168 174
 172 163 173 171 70 159 0 158 0 0 4 1 20 0 160 160 1 T74 20 160 1 0 161 0 0 0 0
 0 0 0 0 0 0 0 0 0 0 0 0 0 0 0 81 1 161 7 6 167 0 0 188 0 162 83 3 162 1.0 1.0 0
.800000011920929 19 163 1 0 158 165 0 164 V13 164 2 0 158 0 0 0 0 163 167 19 165
 3 0 158 0 163 166 S13 166 4 0 158 0 167 0 0 165 0 14 167 5 161 1.0e-08 186 0 16
9 166 168 +0 0 186 0 164 51 168 6 0 167 187 0 0 +0.00234958382 4.064000000000000
1e-08 0.00117499892 -1.0 2.4492935982947066e-16 -6.1232339957367659e-17 3.925011
1999999998e-04 6.1232339957367659e-17 -1.4997597826618576e-32 -1.0 15 169 8 0 17
0 167 0 17 170 0 169 176 181 171 175 173 0 175 +18 171 9 0 170 0 177 172 ?158 29
 172 10 0 171 178 0 0.00234958382 4.0640000000000001e-08 7.8249779999999998e-04
 16 173 11 0 ?170 0 179 174 0 0 158 31 174 12 0 173 180 0 0 +0.00234958382 4.064
0000000000001e-08 0.00117499892 1.0 -2.4492935982947066e-16 6.1232339957367659e-
17 6.1232339957367659e-17 -1.4997597826618576e-32 -1.0 3.9250111999999998e-04 17
 175 0 190 175 175 171 170 173 0 181 -17 176 0 169 182 170 177 181 179 0 185 +18
 177 13 0 176 171 0 178 ?158 29 178 14 0 177 0 172 0.00389958326 4.0639999999620
358e-08 7.8249779999999998e-04 16 179 15 0 ?176 173 183 180 0 0 158 30 180 16 0
 179 184 174 0 +0.00234958382 4.0640000000000001e-08 7.8249779999999998e-04 1.0
 -2.4492935982947066e-16 6.1232339957367659e-17 17 181 0 169 170 182 171 176 179
 0 0 -17 182 0 169 181 176 177 185 183 0 0 -16 183 17 0 ?185 179 0 184 0 0 158 3
1 184 18 0 183 0 180 0 +0.00389958326 4.0639999999620358e-08 0.00117499892 1.0 -
2.4492935982947066e-16 6.1232339957367659e-17 6.1232339957367659e-17 -1.49975978
26618576e-32 -1.0 3.9250111999999998e-04 17 185 0 195 185 185 177 182 183 0 182
 +14 186 19 188 1.0e-08 191 167 190 166 187 -0 0 191 167 164 50 187 20 0 186 192
 168 0 +0.00234958382 4.0640000000011192e-08 0.00117499892 1.0 -2.44929359829470
66e-16 6.1232339957367659e-17 6.1232339957367659e-17 -1.4997597826618576e-32 -1.
0 81 1 188 21 6 186 0 0 193 161 189 83 3 189 1.0 1.0 0.800000011920929 15 190 22
 0 175 186 0 14 191 23 193 1.0e-08 0 186 195 166 192 +0 0 0 186 164 50 192 24 0
 191 0 187 0 +0.00389958326 4.0639999999631549e-08 0.00117499892 1.0 -2.44929359
82947066e-16 6.1232339957367659e-17 6.1232339957367659e-17 -1.4997597826618576e-
32 -1.0 81 1 193 25 6 191 0 0 0 188 194 83 3 194 1.0 1.0 0.800000011920929 15 19
5 26 0 185 191 0 12 196 26 0 197 0 0 0 0 1000.0 1.0e-08 0 0 0 1 0 1 1 204 206 21
2 210 201 211 209 70 197 0 196 0 0 4 1 20 0 198 198 1 T74 20 198 1 0 199 0 0 0 0
 0 0 0 0 0 0 0 0 0 0 0 0 0 0 0 81 1 199 7 6 205 0 0 226 0 200 83 3 200 0.2509803
771972656 0.2509803771972656 0.2509803771972656 19 201 1 0 196 203 0 202 V13 202
 2 0 196 0 0 0 0 201 205 19 203 3 0 196 0 201 204 S13 204 4 0 196 0 205 0 0 203
 0 14 205 5 199 1.0e-08 224 0 207 204 206 +0 0 224 0 202 51 206 6 0 205 225 0 0
 +-0.00234993688 4.0640000000000001e-08 0.00117499892 -1.0 2.4492935982947066e-1
6 -6.1232339957367659e-17 0.00117499892 6.1232339957367659e-17 -1.49975978266185
76e-32 -1.0 15 207 8 0 208 205 0 17 208 0 207 214 219 209 213 211 0 213 +18 209
 9 0 208 0 215 210 ?196 29 210 10 0 209 216 0 -0.00234993688 4.0640000000000001e
-08 0.0 16 211 11 0 ?208 0 217 212 0 0 196 31 212 12 0 211 218 0 0 +-0.002349936
88 4.0640000000000001e-08 0.00117499892 1.0 -2.4492935982947066e-16 6.1232339957
367659e-17 6.1232339957367659e-17 -1.4997597826618576e-32 -1.0 0.00117499892 17
 213 0 228 213 213 209 208 211 0 219 -17 214 0 207 220 208 215 219 217 0 223 +18
 215 13 0 214 209 0 216 ?196 29 216 14 0 215 0 210 0.00235006388 4.0639999998848
833e-08 2.2204460492503131e-19 16 217 15 0 ?214 211 221 218 0 0 196 30 218 16 0
 217 222 212 0 +-0.00234993688 4.0640000000000001e-08 0.0 1.0 -2.449293598294706
6e-16 6.1232339957367659e-17 17 219 0 207 208 220 209 214 217 0 0 -17 220 0 207
 219 214 215 223 221 0 0 -16 221 17 0 ?223 217 0 222 0 0 196 31 222 18 0 221 0 2
18 0 +0.00235006388 4.0639999998848833e-08 0.00117499892 1.0 -2.4492935982947066
e-16 6.1232339957367659e-17 6.1232339957367659e-17 -1.4997597826618576e-32 -1.0
 0.00117499892 17 223 0 233 223 223 215 220 221 0 220 +14 224 19 226 1.0e-08 229
 205 228 204 225 -0 0 229 205 202 50 225 20 0 224 230 206 0 +-0.00234993688 4.06
40000000024772e-08 0.00117499892 1.0 -2.4492935982947066e-16 6.1232339957367659e
-17 6.1232339957367659e-17 -1.4997597826618576e-32 -1.0 81 1 226 21 6 224 0 0 23
1 199 227 83 3 227 0.2509803771972656 0.2509803771972656 0.2509803771972656 15 2
28 22 0 213 224 0 14 229 23 231 1.0e-08 0 224 233 204 230 +0 0 0 224 202 50 230
 24 0 229 0 225 0 +0.00235006388 4.0639999998873595e-08 0.00117499892 1.0 -2.449
2935982947066e-16 6.1232339957367659e-17 6.1232339957367659e-17 -1.4997597826618
576e-32 -1.0 81 1 231 25 6 229 0 0 0 226 232 83 3 232 0.2509803771972656 0.25098
03771972656 0.2509803771972656 15 233 26 0 223 229 0 1 0 
