<svg width="69.9999997mm" height="20.00000064mm" viewBox="0 0 27559055 7874016"  version="1.1" xmlns="http://www.w3.org/2000/svg" xmlns:xlink="http://www.w3.org/1999/xlink">
<desc>
Origin 0 0 Bound 1 0 27559055 7874016
</desc>
<g fill-rule="evenodd" fill="rgb(0, 0, 255)" stroke="black" stroke-width="1" transform="translate(0, 7874016) scale(1, -1) translate(-1, 0)">
<path id="N" d="M 1181106.73 1181113.76 m -791198.52 0 a 791198.52 791198.52 0 1 1 1582397.04 0a 791198.52 791198.52 0 1 1 -1582397.04 0M 1181099.04 1181116.86 m -632954.14 0 a 632954.14 632954.14 0 1 1 1265908.28 0a 632954.14 632954.14 0 1 1 -1265908.28 0"/>
<path id="N" d="M 26377957.73 6692924.76 m -791198.52 0 a 791198.52 791198.52 0 1 1 1582397.04 0a 791198.52 791198.52 0 1 1 -1582397.04 0M 26377950.04 6692927.86 m -632954.14 0 a 632954.14 632954.14 0 1 1 1265908.28 0a 632954.14 632954.14 0 1 1 -1265908.28 0"/>
<path id="N" d="M 1181106.73 6692924.76 m -791198.52 0 a 791198.52 791198.52 0 1 1 1582397.04 0a 791198.52 791198.52 0 1 1 -1582397.04 0M 1181099.04 6692927.86 m -632954.14 0 a 632954.14 632954.14 0 1 1 1265908.28 0a 632954.14 632954.14 0 1 1 -1265908.28 0"/>
<path id="N" d="M 26377957.73 1181113.76 m -791198.52 0 a 791198.52 791198.52 0 1 1 1582397.04 0a 791198.52 791198.52 0 1 1 -1582397.04 0M 26377950.04 1181116.86 m -632954.14 0 a 632954.14 632954.14 0 1 1 1265908.28 0a 632954.14 632954.14 0 1 1 -1265908.28 0"/>
<path id="N" d="M 10236220.64 5905511.27 m -402062.40 0 a 402062.40 402062.40 0 1 1 804124.79 0a 402062.40 402062.40 0 1 1 -804124.79 0M 10236217.20 5905526.37 m -268026.63 0 a 268026.63 268026.63 0 1 1 536053.26 0a 268026.63 268026.63 0 1 1 -536053.26 0"/>
<path id="N" d="M 10236220.64 3149605.27 m -402062.40 0 a 402062.40 402062.40 0 1 1 804124.79 0a 402062.40 402062.40 0 1 1 -804124.79 0M 10236217.20 3149620.37 m -268026.63 0 a 268026.63 268026.63 0 1 1 536053.26 0a 268026.63 268026.63 0 1 1 -536053.26 0"/>
<path id="N" d="M 20472442.97 5472446.69 m -327599.99 0 a 327599.99 327599.99 0 1 1 655199.97 0a 327599.99 327599.99 0 1 1 -655199.97 0M 20472442.68 5472439.06 m -230814.94 0 a 230814.94 230814.94 0 1 1 461629.88 0a 230814.94 230814.94 0 1 1 -461629.88 0"/>
<path id="N" d="M 7480315.64 3149605.27 m -402062.40 0 a 402062.40 402062.40 0 1 1 804124.79 0a 402062.40 402062.40 0 1 1 -804124.79 0M 7480312.20 3149620.37 m -268026.63 0 a 268026.63 268026.63 0 1 1 536053.26 0a 268026.63 268026.63 0 1 1 -536053.26 0"/>
<path id="N" d="M 7480315.64 5905511.27 m -402062.40 0 a 402062.40 402062.40 0 1 1 804124.79 0a 402062.40 402062.40 0 1 1 -804124.79 0M 7480312.20 5905526.37 m -268026.63 0 a 268026.63 268026.63 0 1 1 536053.26 0a 268026.63 268026.63 0 1 1 -536053.26 0"/>
<path id="N" d="M 4724409.64 5905511.27 m -402062.40 0 a 402062.40 402062.40 0 1 1 804124.79 0a 402062.40 402062.40 0 1 1 -804124.79 0M 4724406.20 5905526.37 m -268026.63 0 a 268026.63 268026.63 0 1 1 536053.26 0a 268026.63 268026.63 0 1 1 -536053.26 0"/>
<path id="N" d="M 20472442.97 2401580.69 m -327599.99 0 a 327599.99 327599.99 0 1 1 655199.97 0a 327599.99 327599.99 0 1 1 -655199.97 0M 20472442.68 2401573.06 m -230814.94 0 a 230814.94 230814.94 0 1 1 461629.88 0a 230814.94 230814.94 0 1 1 -461629.88 0"/>
<path id="N" d="M 5123031.00 2750984.00 L 4325787.00 2750984.00 L 4325787.00 3548228.00 L 5123031.00 3548228.00 L 5123031.00 2750984.00  zM 4724406.20 3149620.37 m -268026.63 0 a 268026.63 268026.63 0 1 1 536053.26 0a 268026.63 268026.63 0 1 1 -536053.26 0"/>
<path id="N" d="M 27478778.00 80278.00 L 80279.00 80278.00 L 80279.00 7793738.00 L 27478778.00 7793738.00 L 27478778.00 80278.00  zM 1181102.00 1181095.43 m -891701.25 0 a 891701.25 891701.25 0 1 1 1783402.50 0a 891701.25 891701.25 0 1 1 -1783402.50 0M 5223031.00 3648228.00 L 4225787.00 3648228.00 L 4225787.00 2650984.00 L 5223031.00 2650984.00 L 5223031.00 3648228.00  zM 5706882.68 3099606.00 L 5603740.00 3099606.00 L 5603740.00 3083961.00 A 502917.28 502917.28 0 0 1 6036717.00 2650984.00 L 6052362.00 2650984.00 L 6052362.00 2754126.68 L 5998301.00 2761244.00 A 402062.40 402062.40 0 0 0 5714000.00 3045545.00 L 5706882.68 3099606.00  zM 6052362.00 3648228.00 L 6036717.00 3648228.00 A 502917.28 502917.28 0 0 1 5603740.00 3215251.00 L 5603740.00 3199606.00 L 5706882.68 3199606.00 L 5714000.00 3253667.00 A 402062.40 402062.40 0 0 0 5998301.00 3537968.00 L 6052362.00 3545085.32 L 6052362.00 3648228.00  zM 6102359.20 3149620.37 m -268026.63 0 a 268026.63 268026.63 0 1 1 536053.26 0a 268026.63 268026.63 0 1 1 -536053.26 0M 6168007.00 3648228.00 L 6152362.00 3648228.00 L 6152362.00 3545085.32 L 6206423.00 3537968.00 A 402062.40 402062.40 0 0 0 6490724.00 3253667.00 L 6497841.32 3199606.00 L 6600984.00 3199606.00 L 6600984.00 3215251.00 A 502917.28 502917.28 0 0 1 6168007.00 3648228.00  zM 1181102.00 6692906.43 m -891701.25 0 a 891701.25 891701.25 0 1 1 1783402.50 0a 891701.25 891701.25 0 1 1 -1783402.50 0M 4724409.00 5905508.18 m -502928.40 0 a 502928.40 502928.40 0 1 1 1005856.80 0a 502928.40 502928.40 0 1 1 -1005856.80 0M 5706882.68 5855512.00 L 5603740.00 5855512.00 L 5603740.00 5839867.00 A 502917.28 502917.28 0 0 1 6036717.00 5406890.00 L 6052362.00 5406890.00 L 6052362.00 5510032.68 L 5998301.00 5517150.00 A 402062.40 402062.40 0 0 0 5714000.00 5801451.00 L 5706882.68 5855512.00  zM 6052362.00 6404134.00 L 6036717.00 6404134.00 A 502917.28 502917.28 0 0 1 5603740.00 5971157.00 L 5603740.00 5955512.00 L 5706882.68 5955512.00 L 5714000.00 6009573.00 A 402062.40 402062.40 0 0 0 5998301.00 6293874.00 L 6052362.00 6300991.32 L 6052362.00 6404134.00  zM 6102359.20 5905526.37 m -268026.63 0 a 268026.63 268026.63 0 1 1 536053.26 0a 268026.63 268026.63 0 1 1 -536053.26 0M 6600984.00 3099606.00 L 6497841.32 3099606.00 L 6490724.00 3045545.00 A 402062.40 402062.40 0 0 0 6206423.00 2761244.00 L 6152362.00 2754126.68 L 6152362.00 2650984.00 L 6168007.00 2650984.00 A 502917.28 502917.28 0 0 1 6600984.00 3083961.00 L 6600984.00 3099606.00  zM 7480315.00 3149602.18 m -502928.40 0 a 502928.40 502928.40 0 1 1 1005856.80 0a 502928.40 502928.40 0 1 1 -1005856.80 0M 8808267.00 3648228.00 L 8792622.00 3648228.00 A 502917.28 502917.28 0 0 1 8359645.00 3215251.00 L 8359645.00 3199606.00 L 8462787.68 3199606.00 L 8469905.00 3253667.00 A 402062.40 402062.40 0 0 0 8754206.00 3537968.00 L 8808267.00 3545085.32 L 8808267.00 3648228.00  zM 8462787.68 3099606.00 L 8359645.00 3099606.00 L 8359645.00 3083961.00 A 502917.28 502917.28 0 0 1 8792622.00 2650984.00 L 8808267.00 2650984.00 L 8808267.00 2754126.68 L 8754206.00 2761244.00 A 402062.40 402062.40 0 0 0 8469905.00 3045545.00 L 8462787.68 3099606.00  zM 8858264.20 3149620.37 m -268026.63 0 a 268026.63 268026.63 0 1 1 536053.26 0a 268026.63 268026.63 0 1 1 -536053.26 0M 6600984.00 5855512.00 L 6497841.32 5855512.00 L 6490724.00 5801451.00 A 402062.40 402062.40 0 0 0 6206423.00 5517150.00 L 6152362.00 5510032.68 L 6152362.00 5406890.00 L 6168007.00 5406890.00 A 502917.28 502917.28 0 0 1 6600984.00 5839867.00 L 6600984.00 5855512.00  zM 6168007.00 6404134.00 L 6152362.00 6404134.00 L 6152362.00 6300991.32 L 6206423.00 6293874.00 A 402062.40 402062.40 0 0 0 6490724.00 6009573.00 L 6497841.32 5955512.00 L 6600984.00 5955512.00 L 6600984.00 5971157.00 A 502917.28 502917.28 0 0 1 6168007.00 6404134.00  zM 7480315.00 5905508.18 m -502928.40 0 a 502928.40 502928.40 0 1 1 1005856.80 0a 502928.40 502928.40 0 1 1 -1005856.80 0M 8462787.68 5855512.00 L 8359645.00 5855512.00 L 8359645.00 5839867.00 A 502917.28 502917.28 0 0 1 8792622.00 5406890.00 L 8808267.00 5406890.00 L 8808267.00 5510032.68 L 8754206.00 5517150.00 A 402062.40 402062.40 0 0 0 8469905.00 5801451.00 L 8462787.68 5855512.00  zM 8808267.00 6404134.00 L 8792622.00 6404134.00 A 502917.28 502917.28 0 0 1 8359645.00 5971157.00 L 8359645.00 5955512.00 L 8462787.68 5955512.00 L 8469905.00 6009573.00 A 402062.40 402062.40 0 0 0 8754206.00 6293874.00 L 8808267.00 6300991.32 L 8808267.00 6404134.00  zM 9356889.00 3099606.00 L 9253746.32 3099606.00 L 9246629.00 3045545.00 A 402062.40 402062.40 0 0 0 8962328.00 2761244.00 L 8908267.00 2754126.68 L 8908267.00 2650984.00 L 8923912.00 2650984.00 A 502917.28 502917.28 0 0 1 9356889.00 3083961.00 L 9356889.00 3099606.00  zM 10236220.00 3149602.18 m -502928.40 0 a 502928.40 502928.40 0 1 1 1005856.80 0a 502928.40 502928.40 0 1 1 -1005856.80 0M 11218693.68 3099606.00 L 11115551.00 3099606.00 L 11115551.00 3083961.00 A 502917.28 502917.28 0 0 1 11548528.00 2650984.00 L 11564173.00 2650984.00 L 11564173.00 2754126.68 L 11510112.00 2761244.00 A 402062.40 402062.40 0 0 0 11225811.00 3045545.00 L 11218693.68 3099606.00  zM 8923912.00 3648228.00 L 8908267.00 3648228.00 L 8908267.00 3545085.32 L 8962328.00 3537968.00 A 402062.40 402062.40 0 0 0 9246629.00 3253667.00 L 9253746.32 3199606.00 L 9356889.00 3199606.00 L 9356889.00 3215251.00 A 502917.28 502917.28 0 0 1 8923912.00 3648228.00  zM 9356889.00 5855512.00 L 9253746.32 5855512.00 L 9246629.00 5801451.00 A 402062.40 402062.40 0 0 0 8962328.00 5517150.00 L 8908267.00 5510032.68 L 8908267.00 5406890.00 L 8923912.00 5406890.00 A 502917.28 502917.28 0 0 1 9356889.00 5839867.00 L 9356889.00 5855512.00  zM 11564173.00 3648228.00 L 11548528.00 3648228.00 A 502917.28 502917.28 0 0 1 11115551.00 3215251.00 L 11115551.00 3199606.00 L 11218693.68 3199606.00 L 11225811.00 3253667.00 A 402062.40 402062.40 0 0 0 11510112.00 3537968.00 L 11564173.00 3545085.32 L 11564173.00 3648228.00  zM 8858264.20 5905526.37 m -268026.63 0 a 268026.63 268026.63 0 1 1 536053.26 0a 268026.63 268026.63 0 1 1 -536053.26 0M 8923912.00 6404134.00 L 8908267.00 6404134.00 L 8908267.00 6300991.32 L 8962328.00 6293874.00 A 402062.40 402062.40 0 0 0 9246629.00 6009573.00 L 9253746.32 5955512.00 L 9356889.00 5955512.00 L 9356889.00 5971157.00 A 502917.28 502917.28 0 0 1 8923912.00 6404134.00  zM 10236220.00 5905508.18 m -502928.40 0 a 502928.40 502928.40 0 1 1 1005856.80 0a 502928.40 502928.40 0 1 1 -1005856.80 0M 11218693.68 5855512.00 L 11115551.00 5855512.00 L 11115551.00 5839867.00 A 502917.28 502917.28 0 0 1 11548528.00 5406890.00 L 11564173.00 5406890.00 L 11564173.00 5510032.68 L 11510112.00 5517150.00 A 402062.40 402062.40 0 0 0 11225811.00 5801451.00 L 11218693.68 5855512.00  zM 11564173.00 6404134.00 L 11548528.00 6404134.00 A 502917.28 502917.28 0 0 1 11115551.00 5971157.00 L 11115551.00 5955512.00 L 11218693.68 5955512.00 L 11225811.00 6009573.00 A 402062.40 402062.40 0 0 0 11510112.00 6293874.00 L 11564173.00 6300991.32 L 11564173.00 6404134.00  zM 11614170.20 3149620.37 m -268026.63 0 a 268026.63 268026.63 0 1 1 536053.26 0a 268026.63 268026.63 0 1 1 -536053.26 0M 12112795.00 3099606.00 L 12009652.32 3099606.00 L 12002535.00 3045545.00 A 402062.40 402062.40 0 0 0 11718234.00 2761244.00 L 11664173.00 2754126.68 L 11664173.00 2650984.00 L 11679818.00 2650984.00 A 502917.28 502917.28 0 0 1 12112795.00 3083961.00 L 12112795.00 3099606.00  zM 11679818.00 3648228.00 L 11664173.00 3648228.00 L 11664173.00 3545085.32 L 11718234.00 3537968.00 A 402062.40 402062.40 0 0 0 12002535.00 3253667.00 L 12009652.32 3199606.00 L 12112795.00 3199606.00 L 12112795.00 3215251.00 A 502917.28 502917.28 0 0 1 11679818.00 3648228.00  zM 11614170.20 5905526.37 m -268026.63 0 a 268026.63 268026.63 0 1 1 536053.26 0a 268026.63 268026.63 0 1 1 -536053.26 0M 11679818.00 6404134.00 L 11664173.00 6404134.00 L 11664173.00 6300991.32 L 11718234.00 6293874.00 A 402062.40 402062.40 0 0 0 12002535.00 6009573.00 L 12009652.32 5955512.00 L 12112795.00 5955512.00 L 12112795.00 5971157.00 A 502917.28 502917.28 0 0 1 11679818.00 6404134.00  zM 12112795.00 5855512.00 L 12009652.32 5855512.00 L 12002535.00 5801451.00 A 402062.40 402062.40 0 0 0 11718234.00 5517150.00 L 11664173.00 5510032.68 L 11664173.00 5406890.00 L 11679818.00 5406890.00 A 502917.28 502917.28 0 0 1 12112795.00 5839867.00 L 12112795.00 5855512.00  zM 20472441.00 2401564.84 m -428478.63 0 a 428478.63 428478.63 0 1 1 856957.26 0a 428478.63 428478.63 0 1 1 -856957.26 0M 20472441.00 5472430.84 m -428478.63 0 a 428478.63 428478.63 0 1 1 856957.26 0a 428478.63 428478.63 0 1 1 -856957.26 0M 26377953.00 1181095.43 m -891701.25 0 a 891701.25 891701.25 0 1 1 1783402.50 0a 891701.25 891701.25 0 1 1 -1783402.50 0M 26377953.00 6692906.43 m -891701.25 0 a 891701.25 891701.25 0 1 1 1783402.50 0a 891701.25 891701.25 0 1 1 -1783402.50 0"/>
</g>
</svg>
