<svg width="69.9999997mm" height="20.00000064mm" viewBox="0 0 27559055 7874016"  version="1.1" xmlns="http://www.w3.org/2000/svg" xmlns:xlink="http://www.w3.org/1999/xlink">
<desc>
Origin 0 0 Bound 1 0 27559055 7874016
</desc>
<g fill-rule="evenodd" fill="rgb(128, 128, 0)" stroke="black" stroke-width="1" transform="translate(0, 7874016) scale(1, -1) translate(-1, 0)">
<path id="N" d="M 17414861.75 5480529.95 L 17443202.76 5480529.95 L 17443202.76 5466359.45 L 17471543.78 5466359.45 L 17471543.78 5452188.94 L 17499884.79 5452188.94 L 17499884.79 5438018.43 L 17514055.30 5438018.43 L 17514055.30 5423847.93 L 17542396.31 5423847.93 L 17542396.31 5409677.42 L 17570737.33 5409677.42 L 17570737.33 5395506.91 L 17599078.34 5395506.91 L 17599078.34 5381336.41 L 17613248.85 5381336.41 L 17613248.85 5367165.90 L 17641589.86 5367165.90 L 17641589.86 5352995.39 L 17669930.88 5352995.39 L 17669930.88 5338824.88 L 17698271.89 5338824.88 L 17698271.89 5324654.38 L 17712442.40 5324654.38 L 17712442.40 5310483.87 L 17740783.41 5310483.87 L 17740783.41 5296313.36 L 17769124.42 5296313.36 L 17769124.42 5282142.86 L 17783294.93 5282142.86 L 17783294.93 5267972.35 L 17811635.94 5267972.35 L 17811635.94 5253801.84 L 17839976.96 5253801.84 L 17839976.96 5239631.34 L 17868317.97 5239631.34 L 17868317.97 5225460.83 L 17882488.48 5225460.83 L 17882488.48 5211290.32 L 17910829.49 5211290.32 L 17910829.49 5197119.82 L 17939170.51 5197119.82 L 17939170.51 5182949.31 L 17967511.52 5182949.31 L 17967511.52 5168778.80 L 17981682.03 5168778.80 L 17981682.03 5154608.29 L 18010023.04 5154608.29 L 18010023.04 5140437.79 L 18038364.06 5140437.79 L 18038364.06 5126267.28 L 18066705.07 5126267.28 L 18066705.07 5112096.77 L 18080875.58 5112096.77 L 18080875.58 5097926.27 L 18095046.08 5097926.27 L 18095046.08 5069585.25 L 18109216.59 5069585.25 L 18109216.59 5055414.75 L 18123387.10 5055414.75 L 18123387.10 3879262.67 L 18095046.08 3879262.67 L 18095046.08 3865092.17 L 18066705.07 3865092.17 L 18066705.07 3879262.67 L 18038364.06 3879262.67 L 18038364.06 3893433.18 L 18010023.04 3893433.18 L 18010023.04 3907603.69 L 17995852.53 3907603.69 L 17995852.53 3921774.19 L 17967511.52 3921774.19 L 17967511.52 3935944.70 L 17939170.51 3935944.70 L 17939170.51 3950115.21 L 17910829.49 3950115.21 L 17910829.49 3964285.71 L 17896658.99 3964285.71 L 17896658.99 3978456.22 L 17868317.97 3978456.22 L 17868317.97 3992626.73 L 17839976.96 3992626.73 L 17839976.96 4006797.24 L 17825806.45 4006797.24 L 17825806.45 4020967.74 L 17797465.44 4020967.74 L 17797465.44 4035138.25 L 17769124.42 4035138.25 L 17769124.42 4049308.76 L 17740783.41 4049308.76 L 17740783.41 4063479.26 L 17726612.90 4063479.26 L 17726612.90 4077649.77 L 17698271.89 4077649.77 L 17698271.89 4091820.28 L 17669930.88 4091820.28 L 17669930.88 4105990.78 L 17655760.37 4105990.78 L 17655760.37 4120161.29 L 17627419.35 4120161.29 L 17627419.35 4134331.80 L 17599078.34 4134331.80 L 17599078.34 4148502.30 L 17584907.83 4148502.30 L 17584907.83 4162672.81 L 17556566.82 4162672.81 L 17556566.82 4176843.32 L 17528225.81 4176843.32 L 17528225.81 4191013.82 L 17514055.30 4191013.82 L 17514055.30 4205184.33 L 17499884.79 4205184.33 L 17499884.79 4871198.16 L 17485714.29 4871198.16 L 17485714.29 4857027.65 L 17457373.27 4857027.65 L 17457373.27 4842857.14 L 17443202.76 4842857.14 L 17443202.76 4828686.64 L 17414861.75 4828686.64 L 17414861.75 4814516.13 L 17386520.74 4814516.13 L 17386520.74 4800345.62 L 17358179.72 4800345.62 L 17358179.72 4786175.12 L 17344009.22 4786175.12 L 17344009.22 4772004.61 L 17315668.20 4772004.61 L 17315668.20 4757834.10 L 17287327.19 4757834.10 L 17287327.19 4743663.59 L 17273156.68 4743663.59 L 17273156.68 4729493.09 L 17244815.67 4729493.09 L 17244815.67 4715322.58 L 17216474.65 4715322.58 L 17216474.65 4701152.07 L 17188133.64 4701152.07 L 17188133.64 4686981.57 L 17173963.13 4686981.57 L 17173963.13 4672811.06 L 17145622.12 4672811.06 L 17145622.12 4658640.55 L 17117281.11 4658640.55 L 17117281.11 4644470.05 L 17088940.09 4644470.05 L 17088940.09 4630299.54 L 17074769.59 4630299.54 L 17074769.59 4616129.03 L 17046428.57 4616129.03 L 17046428.57 4601958.53 L 17018087.56 4601958.53 L 17018087.56 4587788.02 L 16989746.54 4587788.02 L 16989746.54 4573617.51 L 16975576.04 4573617.51 L 16975576.04 4559447.00 L 16947235.02 4559447.00 L 16947235.02 4545276.50 L 16918894.01 4545276.50 L 16918894.01 4531105.99 L 16904723.50 4531105.99 L 16904723.50 4516935.48 L 16876382.49 4516935.48 L 16876382.49 4502764.98 L 16848041.47 4502764.98 L 16848041.47 4488594.47 L 16819700.46 4488594.47 L 16819700.46 4474423.96 L 16805529.95 4474423.96 L 16805529.95 4460253.46 L 16777188.94 4460253.46 L 16777188.94 4446082.95 L 16748847.93 4446082.95 L 16748847.93 4431912.44 L 16720506.91 4431912.44 L 16720506.91 4417741.94 L 16706336.41 4417741.94 L 16706336.41 4403571.43 L 16677995.39 4403571.43 L 16677995.39 4389400.92 L 16649654.38 4389400.92 L 16649654.38 4375230.41 L 16621313.36 4375230.41 L 16621313.36 4361059.91 L 16607142.86 4361059.91 L 16607142.86 4346889.40 L 16578801.84 4346889.40 L 16578801.84 4332718.89 L 16550460.83 4332718.89 L 16550460.83 4318548.39 L 16536290.32 4318548.39 L 16536290.32 4304377.88 L 16507949.31 4304377.88 L 16507949.31 4290207.37 L 16479608.29 4290207.37 L 16479608.29 4276036.87 L 16451267.28 4276036.87 L 16451267.28 4261866.36 L 16437096.77 4261866.36 L 16437096.77 4247695.85 L 16408755.76 4247695.85 L 16408755.76 4233525.35 L 16380414.75 4233525.35 L 16380414.75 4219354.84 L 16352073.73 4219354.84 L 16352073.73 4205184.33 L 16337903.23 4205184.33 L 16337903.23 4191013.82 L 16323732.72 4191013.82 L 16323732.72 4176843.32 L 16309562.21 4176843.32 L 16309562.21 4162672.81 L 16295391.71 4162672.81 L 16295391.71 4134331.80 L 16281221.20 4134331.80 L 16281221.20 2802304.15 L 16295391.71 2802304.15 L 16295391.71 2788133.64 L 16309562.21 2788133.64 L 16309562.21 2759792.63 L 16323732.72 2759792.63 L 16323732.72 2745622.12 L 16352073.73 2745622.12 L 16352073.73 2731451.61 L 16366244.24 2731451.61 L 16366244.24 2717281.11 L 16394585.25 2717281.11 L 16394585.25 2703110.60 L 16422926.27 2703110.60 L 16422926.27 2688940.09 L 16451267.28 2688940.09 L 16451267.28 2674769.59 L 16465437.79 2674769.59 L 16465437.79 2660599.08 L 16493778.80 2660599.08 L 16493778.80 2646428.57 L 16522119.82 2646428.57 L 16522119.82 2632258.06 L 16536290.32 2632258.06 L 16536290.32 2618087.56 L 16564631.34 2618087.56 L 16564631.34 2603917.05 L 16592972.35 2603917.05 L 16592972.35 2589746.54 L 16621313.36 2589746.54 L 16621313.36 2575576.04 L 16635483.87 2575576.04 L 16635483.87 2561405.53 L 16663824.88 2561405.53 L 16663824.88 2547235.02 L 16692165.90 2547235.02 L 16692165.90 2533064.52 L 16720506.91 2533064.52 L 16720506.91 2518894.01 L 16734677.42 2518894.01 L 16734677.42 2504723.50 L 16763018.43 2504723.50 L 16763018.43 2490553.00 L 16791359.45 2490553.00 L 16791359.45 2476382.49 L 16819700.46 2476382.49 L 16819700.46 2462211.98 L 16833870.97 2462211.98 L 16833870.97 2448041.47 L 16862211.98 2448041.47 L 16862211.98 2433870.97 L 16890553.00 2433870.97 L 16890553.00 2419700.46 L 16904723.50 2419700.46 L 16904723.50 2405529.95 L 16933064.52 2405529.95 L 16933064.52 2391359.45 L 16961405.53 2391359.45 L 16961405.53 2377188.94 L 16989746.54 2377188.94 L 16989746.54 2363018.43 L 17003917.05 2363018.43 L 17003917.05 2348847.93 L 17032258.06 2348847.93 L 17032258.06 2334677.42 L 17060599.08 2334677.42 L 17060599.08 2320506.91 L 17088940.09 2320506.91 L 17088940.09 2306336.41 L 17103110.60 2306336.41 L 17103110.60 2292165.90 L 17131451.61 2292165.90 L 17131451.61 2277995.39 L 17159792.63 2277995.39 L 17159792.63 2263824.88 L 17173963.13 2263824.88 L 17173963.13 2249654.38 L 17202304.15 2249654.38 L 17202304.15 2235483.87 L 17230645.16 2235483.87 L 17230645.16 2221313.36 L 17258986.18 2221313.36 L 17258986.18 2207142.86 L 17273156.68 2207142.86 L 17273156.68 2192972.35 L 17301497.70 2192972.35 L 17301497.70 2178801.84 L 17329838.71 2178801.84 L 17329838.71 2164631.34 L 17358179.72 2164631.34 L 17358179.72 2150460.83 L 17372350.23 2150460.83 L 17372350.23 2136290.32 L 17400691.24 2136290.32 L 17400691.24 2122119.82 L 17429032.26 2122119.82 L 17429032.26 2107949.31 L 17457373.27 2107949.31 L 17457373.27 2093778.80 L 17471543.78 2093778.80 L 17471543.78 2079608.29 L 17499884.79 2079608.29 L 17499884.79 2788133.64 L 17471543.78 2788133.64 L 17471543.78 2802304.15 L 17457373.27 2802304.15 L 17457373.27 2816474.65 L 17429032.26 2816474.65 L 17429032.26 2830645.16 L 17400691.24 2830645.16 L 17400691.24 2844815.67 L 17372350.23 2844815.67 L 17372350.23 2858986.18 L 17358179.72 2858986.18 L 17358179.72 2873156.68 L 17329838.71 2873156.68 L 17329838.71 2887327.19 L 17301497.70 2887327.19 L 17301497.70 2901497.70 L 17287327.19 2901497.70 L 17287327.19 2915668.20 L 17258986.18 2915668.20 L 17258986.18 2929838.71 L 17230645.16 2929838.71 L 17230645.16 2944009.22 L 17202304.15 2944009.22 L 17202304.15 2958179.72 L 17188133.64 2958179.72 L 17188133.64 2972350.23 L 17159792.63 2972350.23 L 17159792.63 2986520.74 L 17131451.61 2986520.74 L 17131451.61 3000691.24 L 17103110.60 3000691.24 L 17103110.60 3014861.75 L 17088940.09 3014861.75 L 17088940.09 3029032.26 L 17060599.08 3029032.26 L 17060599.08 3043202.76 L 17032258.06 3043202.76 L 17032258.06 3057373.27 L 17003917.05 3057373.27 L 17003917.05 3071543.78 L 16989746.54 3071543.78 L 16989746.54 3085714.29 L 16961405.53 3085714.29 L 16961405.53 3099884.79 L 16933064.52 3099884.79 L 16933064.52 3114055.30 L 16904723.50 3114055.30 L 16904723.50 3128225.81 L 16890553.00 3128225.81 L 16890553.00 3808410.14 L 16904723.50 3808410.14 L 16904723.50 3822580.65 L 16933064.52 3822580.65 L 16933064.52 3808410.14 L 16961405.53 3808410.14 L 16961405.53 3794239.63 L 16989746.54 3794239.63 L 16989746.54 3780069.12 L 17003917.05 3780069.12 L 17003917.05 3765898.62 L 17032258.06 3765898.62 L 17032258.06 3751728.11 L 17060599.08 3751728.11 L 17060599.08 3737557.60 L 17074769.59 3737557.60 L 17074769.59 3723387.10 L 17103110.60 3723387.10 L 17103110.60 3709216.59 L 17131451.61 3709216.59 L 17131451.61 3695046.08 L 17159792.63 3695046.08 L 17159792.63 3680875.58 L 17173963.13 3680875.58 L 17173963.13 3666705.07 L 17202304.15 3666705.07 L 17202304.15 3652534.56 L 17230645.16 3652534.56 L 17230645.16 3638364.06 L 17258986.18 3638364.06 L 17258986.18 3624193.55 L 17273156.68 3624193.55 L 17273156.68 3610023.04 L 17301497.70 3610023.04 L 17301497.70 3595852.53 L 17329838.71 3595852.53 L 17329838.71 3581682.03 L 17358179.72 3581682.03 L 17358179.72 3567511.52 L 17372350.23 3567511.52 L 17372350.23 3553341.01 L 17400691.24 3553341.01 L 17400691.24 3539170.51 L 17429032.26 3539170.51 L 17429032.26 3525000.00 L 17443202.76 3525000.00 L 17443202.76 3510829.49 L 17471543.78 3510829.49 L 17471543.78 3496658.99 L 17499884.79 3496658.99 L 17499884.79 3482488.48 L 17528225.81 3482488.48 L 17528225.81 3468317.97 L 17542396.31 3468317.97 L 17542396.31 3454147.47 L 17570737.33 3454147.47 L 17570737.33 3439976.96 L 17599078.34 3439976.96 L 17599078.34 3425806.45 L 17613248.85 3425806.45 L 17613248.85 3411635.94 L 17641589.86 3411635.94 L 17641589.86 3397465.44 L 17669930.88 3397465.44 L 17669930.88 3383294.93 L 17698271.89 3383294.93 L 17698271.89 3369124.42 L 17712442.40 3369124.42 L 17712442.40 3354953.92 L 17740783.41 3354953.92 L 17740783.41 3340783.41 L 17769124.42 3340783.41 L 17769124.42 3326612.90 L 17797465.44 3326612.90 L 17797465.44 3312442.40 L 17811635.94 3312442.40 L 17811635.94 3298271.89 L 17839976.96 3298271.89 L 17839976.96 3284101.38 L 17868317.97 3284101.38 L 17868317.97 3269930.88 L 17882488.48 3269930.88 L 17882488.48 3255760.37 L 17910829.49 3255760.37 L 17910829.49 3241589.86 L 17939170.51 3241589.86 L 17939170.51 3227419.35 L 17967511.52 3227419.35 L 17967511.52 3213248.85 L 17981682.03 3213248.85 L 17981682.03 3199078.34 L 18010023.04 3199078.34 L 18010023.04 3184907.83 L 18038364.06 3184907.83 L 18038364.06 3170737.33 L 18052534.56 3170737.33 L 18052534.56 3156566.82 L 18066705.07 3156566.82 L 18066705.07 3142396.31 L 18080875.58 3142396.31 L 18080875.58 3128225.81 L 18095046.08 3128225.81 L 18095046.08 3099884.79 L 18109216.59 3099884.79 L 18109216.59 3071543.78 L 18123387.10 3071543.78 L 18123387.10 1909562.21 L 18109216.59 1909562.21 L 18109216.59 1881221.20 L 18095046.08 1881221.20 L 18095046.08 1852880.18 L 18080875.58 1852880.18 L 18080875.58 1838709.68 L 18066705.07 1838709.68 L 18066705.07 1824539.17 L 18052534.56 1824539.17 L 18052534.56 1810368.66 L 18024193.55 1810368.66 L 18024193.55 1796198.16 L 17995852.53 1796198.16 L 17995852.53 1782027.65 L 17967511.52 1782027.65 L 17967511.52 1767857.14 L 17953341.01 1767857.14 L 17953341.01 1753686.64 L 17925000.00 1753686.64 L 17925000.00 1739516.13 L 17896658.99 1739516.13 L 17896658.99 1725345.62 L 17868317.97 1725345.62 L 17868317.97 1711175.12 L 17854147.47 1711175.12 L 17854147.47 1697004.61 L 17825806.45 1697004.61 L 17825806.45 1682834.10 L 17797465.44 1682834.10 L 17797465.44 1668663.59 L 17769124.42 1668663.59 L 17769124.42 1654493.09 L 17754953.92 1654493.09 L 17754953.92 1640322.58 L 17726612.90 1640322.58 L 17726612.90 1626152.07 L 17698271.89 1626152.07 L 17698271.89 1611981.57 L 17669930.88 1611981.57 L 17669930.88 1597811.06 L 17655760.37 1597811.06 L 17655760.37 1583640.55 L 17627419.35 1583640.55 L 17627419.35 1569470.05 L 17599078.34 1569470.05 L 17599078.34 1555299.54 L 17570737.33 1555299.54 L 17570737.33 1541129.03 L 17556566.82 1541129.03 L 17556566.82 1526958.53 L 17528225.81 1526958.53 L 17528225.81 1512788.02 L 17499884.79 1512788.02 L 17499884.79 1498617.51 L 17471543.78 1498617.51 L 17471543.78 1484447.00 L 17457373.27 1484447.00 L 17457373.27 1470276.50 L 17414861.75 1470276.50 L 17414861.75 1456105.99 L 17344009.22 1456105.99 L 17344009.22 1470276.50 L 17315668.20 1470276.50 L 17315668.20 1484447.00 L 17287327.19 1484447.00 L 17287327.19 1498617.51 L 17258986.18 1498617.51 L 17258986.18 1512788.02 L 17230645.16 1512788.02 L 17230645.16 1526958.53 L 17216474.65 1526958.53 L 17216474.65 1541129.03 L 17188133.64 1541129.03 L 17188133.64 1555299.54 L 17159792.63 1555299.54 L 17159792.63 1569470.05 L 17145622.12 1569470.05 L 17145622.12 1583640.55 L 17117281.11 1583640.55 L 17117281.11 1597811.06 L 17088940.09 1597811.06 L 17088940.09 1611981.57 L 17060599.08 1611981.57 L 17060599.08 1626152.07 L 17046428.57 1626152.07 L 17046428.57 1640322.58 L 17018087.56 1640322.58 L 17018087.56 1654493.09 L 16989746.54 1654493.09 L 16989746.54 1668663.59 L 16961405.53 1668663.59 L 16961405.53 1682834.10 L 16947235.02 1682834.10 L 16947235.02 1697004.61 L 16918894.01 1697004.61 L 16918894.01 1711175.12 L 16890553.00 1711175.12 L 16890553.00 1725345.62 L 16862211.98 1725345.62 L 16862211.98 1739516.13 L 16848041.47 1739516.13 L 16848041.47 1753686.64 L 16819700.46 1753686.64 L 16819700.46 1767857.14 L 16791359.45 1767857.14 L 16791359.45 1782027.65 L 16777188.94 1782027.65 L 16777188.94 1796198.16 L 16748847.93 1796198.16 L 16748847.93 1810368.66 L 16720506.91 1810368.66 L 16720506.91 1824539.17 L 16692165.90 1824539.17 L 16692165.90 1838709.68 L 16677995.39 1838709.68 L 16677995.39 1852880.18 L 16649654.38 1852880.18 L 16649654.38 1867050.69 L 16621313.36 1867050.69 L 16621313.36 1881221.20 L 16592972.35 1881221.20 L 16592972.35 1895391.71 L 16578801.84 1895391.71 L 16578801.84 1909562.21 L 16550460.83 1909562.21 L 16550460.83 1923732.72 L 16522119.82 1923732.72 L 16522119.82 1937903.23 L 16493778.80 1937903.23 L 16493778.80 1952073.73 L 16479608.29 1952073.73 L 16479608.29 1966244.24 L 16451267.28 1966244.24 L 16451267.28 1980414.75 L 16422926.27 1980414.75 L 16422926.27 1994585.25 L 16408755.76 1994585.25 L 16408755.76 2008755.76 L 16380414.75 2008755.76 L 16380414.75 2022926.27 L 16352073.73 2022926.27 L 16352073.73 2037096.77 L 16323732.72 2037096.77 L 16323732.72 2051267.28 L 16309562.21 2051267.28 L 16309562.21 2065437.79 L 16281221.20 2065437.79 L 16281221.20 2079608.29 L 16252880.18 2079608.29 L 16252880.18 2093778.80 L 16224539.17 2093778.80 L 16224539.17 2107949.31 L 16210368.66 2107949.31 L 16210368.66 2122119.82 L 16182027.65 2122119.82 L 16182027.65 2136290.32 L 16153686.64 2136290.32 L 16153686.64 2150460.83 L 16125345.62 2150460.83 L 16125345.62 2164631.34 L 16111175.12 2164631.34 L 16111175.12 2178801.84 L 16082834.10 2178801.84 L 16082834.10 2192972.35 L 16054493.09 2192972.35 L 16054493.09 2207142.86 L 16040322.58 2207142.86 L 16040322.58 2221313.36 L 16011981.57 2221313.36 L 16011981.57 2235483.87 L 15983640.55 2235483.87 L 15983640.55 2249654.38 L 15955299.54 2249654.38 L 15955299.54 2263824.88 L 15941129.03 2263824.88 L 15941129.03 2277995.39 L 15912788.02 2277995.39 L 15912788.02 2292165.90 L 15884447.00 2292165.90 L 15884447.00 2306336.41 L 15856105.99 2306336.41 L 15856105.99 2320506.91 L 15841935.48 2320506.91 L 15841935.48 2334677.42 L 15813594.47 2334677.42 L 15813594.47 2348847.93 L 15785253.46 2348847.93 L 15785253.46 2363018.43 L 15756912.44 2363018.43 L 15756912.44 2377188.94 L 15742741.94 2377188.94 L 15742741.94 2391359.45 L 15728571.43 2391359.45 L 15728571.43 2405529.95 L 15714400.92 2405529.95 L 15714400.92 2419700.46 L 15700230.41 2419700.46 L 15700230.41 2433870.97 L 15686059.91 2433870.97 L 15686059.91 2476382.49 L 15671889.40 2476382.49 L 15671889.40 4460253.46 L 15686059.91 4460253.46 L 15686059.91 4488594.47 L 15700230.41 4488594.47 L 15700230.41 4516935.48 L 15714400.92 4516935.48 L 15714400.92 4531105.99 L 15728571.43 4531105.99 L 15728571.43 4545276.50 L 15756912.44 4545276.50 L 15756912.44 4559447.00 L 15771082.95 4559447.00 L 15771082.95 4573617.51 L 15799423.96 4573617.51 L 15799423.96 4587788.02 L 15827764.98 4587788.02 L 15827764.98 4601958.53 L 15841935.48 4601958.53 L 15841935.48 4616129.03 L 15870276.50 4616129.03 L 15870276.50 4630299.54 L 15898617.51 4630299.54 L 15898617.51 4644470.05 L 15926958.53 4644470.05 L 15926958.53 4658640.55 L 15941129.03 4658640.55 L 15941129.03 4672811.06 L 15969470.05 4672811.06 L 15969470.05 4686981.57 L 15997811.06 4686981.57 L 15997811.06 4701152.07 L 16026152.07 4701152.07 L 16026152.07 4715322.58 L 16040322.58 4715322.58 L 16040322.58 4729493.09 L 16068663.59 4729493.09 L 16068663.59 4743663.59 L 16097004.61 4743663.59 L 16097004.61 4757834.10 L 16111175.12 4757834.10 L 16111175.12 4772004.61 L 16139516.13 4772004.61 L 16139516.13 4786175.12 L 16167857.14 4786175.12 L 16167857.14 4800345.62 L 16196198.16 4800345.62 L 16196198.16 4814516.13 L 16210368.66 4814516.13 L 16210368.66 4828686.64 L 16238709.68 4828686.64 L 16238709.68 4842857.14 L 16267050.69 4842857.14 L 16267050.69 4857027.65 L 16295391.71 4857027.65 L 16295391.71 4871198.16 L 16309562.21 4871198.16 L 16309562.21 4885368.66 L 16337903.23 4885368.66 L 16337903.23 4899539.17 L 16366244.24 4899539.17 L 16366244.24 4913709.68 L 16394585.25 4913709.68 L 16394585.25 4927880.18 L 16408755.76 4927880.18 L 16408755.76 4942050.69 L 16437096.77 4942050.69 L 16437096.77 4956221.20 L 16465437.79 4956221.20 L 16465437.79 4970391.71 L 16479608.29 4970391.71 L 16479608.29 4984562.21 L 16507949.31 4984562.21 L 16507949.31 4998732.72 L 16536290.32 4998732.72 L 16536290.32 5012903.23 L 16564631.34 5012903.23 L 16564631.34 5027073.73 L 16578801.84 5027073.73 L 16578801.84 5041244.24 L 16607142.86 5041244.24 L 16607142.86 5055414.75 L 16635483.87 5055414.75 L 16635483.87 5069585.25 L 16663824.88 5069585.25 L 16663824.88 5083755.76 L 16677995.39 5083755.76 L 16677995.39 5097926.27 L 16706336.41 5097926.27 L 16706336.41 5112096.77 L 16734677.42 5112096.77 L 16734677.42 5126267.28 L 16748847.93 5126267.28 L 16748847.93 5140437.79 L 16777188.94 5140437.79 L 16777188.94 5154608.29 L 16805529.95 5154608.29 L 16805529.95 5168778.80 L 16833870.97 5168778.80 L 16833870.97 5182949.31 L 16848041.47 5182949.31 L 16848041.47 5197119.82 L 16876382.49 5197119.82 L 16876382.49 5211290.32 L 16904723.50 5211290.32 L 16904723.50 5225460.83 L 16933064.52 5225460.83 L 16933064.52 5239631.34 L 16947235.02 5239631.34 L 16947235.02 5253801.84 L 16975576.04 5253801.84 L 16975576.04 5267972.35 L 17003917.05 5267972.35 L 17003917.05 5282142.86 L 17018087.56 5282142.86 L 17018087.56 5296313.36 L 17046428.57 5296313.36 L 17046428.57 5310483.87 L 17074769.59 5310483.87 L 17074769.59 5324654.38 L 17103110.60 5324654.38 L 17103110.60 5338824.88 L 17117281.11 5338824.88 L 17117281.11 5352995.39 L 17145622.12 5352995.39 L 17145622.12 5367165.90 L 17173963.13 5367165.90 L 17173963.13 5381336.41 L 17188133.64 5381336.41 L 17188133.64 5395506.91 L 17216474.65 5395506.91 L 17216474.65 5409677.42 L 17244815.67 5409677.42 L 17244815.67 5423847.93 L 17273156.68 5423847.93 L 17273156.68 5438018.43 L 17287327.19 5438018.43 L 17287327.19 5452188.94 L 17315668.20 5452188.94 L 17315668.20 5466359.45 L 17344009.22 5466359.45 L 17344009.22 5480529.95 L 17372350.23 5480529.95 L 17372350.23 5494700.46 L 17414861.75 5494700.46 L 17414861.75 5480529.95  z"/>
<path id="N" d="M 17088940.09 6344930.88 L 17131451.61 6344930.88 L 17131451.61 6330760.37 L 17159792.63 6330760.37 L 17159792.63 6316589.86 L 17188133.64 6316589.86 L 17188133.64 6302419.35 L 17202304.15 6302419.35 L 17202304.15 6288248.85 L 17216474.65 6288248.85 L 17216474.65 6274078.34 L 17230645.16 6274078.34 L 17230645.16 6259907.83 L 17244815.67 6259907.83 L 17244815.67 6245737.33 L 17258986.18 6245737.33 L 17258986.18 6217396.31 L 17273156.68 6217396.31 L 17273156.68 6189055.30 L 17287327.19 6189055.30 L 17287327.19 6146543.78 L 17301497.70 6146543.78 L 17301497.70 6033179.72 L 17315668.20 6033179.72 L 17315668.20 6019009.22 L 17301497.70 6019009.22 L 17301497.70 5905645.16 L 17287327.19 5905645.16 L 17287327.19 5863133.64 L 17273156.68 5863133.64 L 17273156.68 5834792.63 L 17258986.18 5834792.63 L 17258986.18 5806451.61 L 17244815.67 5806451.61 L 17244815.67 5792281.11 L 17230645.16 5792281.11 L 17230645.16 5778110.60 L 17216474.65 5778110.60 L 17216474.65 5763940.09 L 17202304.15 5763940.09 L 17202304.15 5749769.59 L 17188133.64 5749769.59 L 17188133.64 5735599.08 L 17159792.63 5735599.08 L 17159792.63 5721428.57 L 17131451.61 5721428.57 L 17131451.61 5707258.06 L 17088940.09 5707258.06 L 17088940.09 5693087.56 L 16933064.52 5693087.56 L 16933064.52 5707258.06 L 16890553.00 5707258.06 L 16890553.00 5721428.57 L 16862211.98 5721428.57 L 16862211.98 5735599.08 L 16833870.97 5735599.08 L 16833870.97 5749769.59 L 16819700.46 5749769.59 L 16819700.46 5763940.09 L 16805529.95 5763940.09 L 16805529.95 5778110.60 L 16791359.45 5778110.60 L 16791359.45 5792281.11 L 16777188.94 5792281.11 L 16777188.94 5820622.12 L 16763018.43 5820622.12 L 16763018.43 5834792.63 L 16748847.93 5834792.63 L 16748847.93 5877304.15 L 16734677.42 5877304.15 L 16734677.42 5919815.67 L 16720506.91 5919815.67 L 16720506.91 6132373.27 L 16734677.42 6132373.27 L 16734677.42 6174884.79 L 16748847.93 6174884.79 L 16748847.93 6217396.31 L 16763018.43 6217396.31 L 16763018.43 6231566.82 L 16777188.94 6231566.82 L 16777188.94 6259907.83 L 16791359.45 6259907.83 L 16791359.45 6274078.34 L 16805529.95 6274078.34 L 16805529.95 6288248.85 L 16819700.46 6288248.85 L 16819700.46 6302419.35 L 16833870.97 6302419.35 L 16833870.97 6316589.86 L 16862211.98 6316589.86 L 16862211.98 6330760.37 L 16890553.00 6330760.37 L 16890553.00 6344930.88 L 16947235.02 6344930.88 L 16947235.02 6359101.38 L 17088940.09 6359101.38 L 17088940.09 6344930.88  zM 17074769.59 6288248.85 L 16961405.53 6288248.85 L 16961405.53 6274078.34 L 16918894.01 6274078.34 L 16918894.01 6259907.83 L 16890553.00 6259907.83 L 16890553.00 6245737.33 L 16876382.49 6245737.33 L 16876382.49 6231566.82 L 16862211.98 6231566.82 L 16862211.98 6217396.31 L 16848041.47 6217396.31 L 16848041.47 6189055.30 L 16833870.97 6189055.30 L 16833870.97 6160714.29 L 16819700.46 6160714.29 L 16819700.46 6118202.76 L 16805529.95 6118202.76 L 16805529.95 5933986.18 L 16819700.46 5933986.18 L 16819700.46 5891474.65 L 16833870.97 5891474.65 L 16833870.97 5863133.64 L 16848041.47 5863133.64 L 16848041.47 5834792.63 L 16862211.98 5834792.63 L 16862211.98 5820622.12 L 16876382.49 5820622.12 L 16876382.49 5806451.61 L 16890553.00 5806451.61 L 16890553.00 5792281.11 L 16918894.01 5792281.11 L 16918894.01 5778110.60 L 16961405.53 5778110.60 L 16961405.53 5763940.09 L 17074769.59 5763940.09 L 17074769.59 5778110.60 L 17103110.60 5778110.60 L 17103110.60 5792281.11 L 17131451.61 5792281.11 L 17131451.61 5806451.61 L 17145622.12 5806451.61 L 17145622.12 5820622.12 L 17159792.63 5820622.12 L 17159792.63 5834792.63 L 17173963.13 5834792.63 L 17173963.13 5848963.13 L 17188133.64 5848963.13 L 17188133.64 5877304.15 L 17202304.15 5877304.15 L 17202304.15 5919815.67 L 17216474.65 5919815.67 L 17216474.65 6132373.27 L 17202304.15 6132373.27 L 17202304.15 6174884.79 L 17188133.64 6174884.79 L 17188133.64 6203225.81 L 17173963.13 6203225.81 L 17173963.13 6217396.31 L 17159792.63 6217396.31 L 17159792.63 6231566.82 L 17145622.12 6231566.82 L 17145622.12 6245737.33 L 17131451.61 6245737.33 L 17131451.61 6259907.83 L 17103110.60 6259907.83 L 17103110.60 6274078.34 L 17074769.59 6274078.34 L 17074769.59 6288248.85  z"/>
<path id="N" d="M 16649654.38 6316589.86 L 16635483.87 6316589.86 L 16635483.87 6274078.34 L 16621313.36 6274078.34 L 16621313.36 6245737.33 L 16607142.86 6245737.33 L 16607142.86 6203225.81 L 16592972.35 6203225.81 L 16592972.35 6160714.29 L 16578801.84 6160714.29 L 16578801.84 6118202.76 L 16564631.34 6118202.76 L 16564631.34 6089861.75 L 16550460.83 6089861.75 L 16550460.83 6047350.23 L 16536290.32 6047350.23 L 16536290.32 6004838.71 L 16522119.82 6004838.71 L 16522119.82 5962327.19 L 16507949.31 5962327.19 L 16507949.31 5933986.18 L 16493778.80 5933986.18 L 16493778.80 5891474.65 L 16479608.29 5891474.65 L 16479608.29 5848963.13 L 16465437.79 5848963.13 L 16465437.79 5806451.61 L 16451267.28 5806451.61 L 16451267.28 5778110.60 L 16437096.77 5778110.60 L 16437096.77 5735599.08 L 16422926.27 5735599.08 L 16422926.27 5707258.06 L 16309562.21 5707258.06 L 16309562.21 5721428.57 L 16295391.71 5721428.57 L 16295391.71 5763940.09 L 16281221.20 5763940.09 L 16281221.20 5792281.11 L 16267050.69 5792281.11 L 16267050.69 5834792.63 L 16252880.18 5834792.63 L 16252880.18 5877304.15 L 16238709.68 5877304.15 L 16238709.68 5919815.67 L 16224539.17 5919815.67 L 16224539.17 5948156.68 L 16210368.66 5948156.68 L 16210368.66 5990668.20 L 16196198.16 5990668.20 L 16196198.16 6033179.72 L 16182027.65 6033179.72 L 16182027.65 6075691.24 L 16167857.14 6075691.24 L 16167857.14 6104032.26 L 16153686.64 6104032.26 L 16153686.64 6146543.78 L 16139516.13 6146543.78 L 16139516.13 6189055.30 L 16125345.62 6189055.30 L 16125345.62 6231566.82 L 16111175.12 6231566.82 L 16111175.12 6259907.83 L 16097004.61 6259907.83 L 16097004.61 6302419.35 L 16082834.10 6302419.35 L 16082834.10 6344930.88 L 16167857.14 6344930.88 L 16167857.14 6302419.35 L 16182027.65 6302419.35 L 16182027.65 6259907.83 L 16196198.16 6259907.83 L 16196198.16 6231566.82 L 16210368.66 6231566.82 L 16210368.66 6189055.30 L 16224539.17 6189055.30 L 16224539.17 6146543.78 L 16238709.68 6146543.78 L 16238709.68 6104032.26 L 16252880.18 6104032.26 L 16252880.18 6061520.74 L 16267050.69 6061520.74 L 16267050.69 6033179.72 L 16281221.20 6033179.72 L 16281221.20 5990668.20 L 16295391.71 5990668.20 L 16295391.71 5948156.68 L 16309562.21 5948156.68 L 16309562.21 5905645.16 L 16323732.72 5905645.16 L 16323732.72 5863133.64 L 16337903.23 5863133.64 L 16337903.23 5834792.63 L 16352073.73 5834792.63 L 16352073.73 5792281.11 L 16366244.24 5792281.11 L 16366244.24 5820622.12 L 16380414.75 5820622.12 L 16380414.75 5863133.64 L 16394585.25 5863133.64 L 16394585.25 5891474.65 L 16408755.76 5891474.65 L 16408755.76 5933986.18 L 16422926.27 5933986.18 L 16422926.27 5976497.70 L 16437096.77 5976497.70 L 16437096.77 6019009.22 L 16451267.28 6019009.22 L 16451267.28 6061520.74 L 16465437.79 6061520.74 L 16465437.79 6089861.75 L 16479608.29 6089861.75 L 16479608.29 6132373.27 L 16493778.80 6132373.27 L 16493778.80 6174884.79 L 16507949.31 6174884.79 L 16507949.31 6217396.31 L 16522119.82 6217396.31 L 16522119.82 6259907.83 L 16536290.32 6259907.83 L 16536290.32 6288248.85 L 16550460.83 6288248.85 L 16550460.83 6330760.37 L 16564631.34 6330760.37 L 16564631.34 6344930.88 L 16649654.38 6344930.88 L 16649654.38 6316589.86  z"/>
<path id="N" d="M 18350115.21 1257718.89 L 18364285.71 1257718.89 L 18364285.71 1215207.37 L 18378456.22 1215207.37 L 18378456.22 1186866.36 L 18392626.73 1186866.36 L 18392626.73 1144354.84 L 18406797.24 1144354.84 L 18406797.24 1101843.32 L 18420967.74 1101843.32 L 18420967.74 1059331.80 L 18435138.25 1059331.80 L 18435138.25 1030990.78 L 18449308.76 1030990.78 L 18449308.76 988479.26 L 18463479.26 988479.26 L 18463479.26 945967.74 L 18477649.77 945967.74 L 18477649.77 903456.22 L 18491820.28 903456.22 L 18491820.28 875115.21 L 18505990.78 875115.21 L 18505990.78 832603.69 L 18520161.29 832603.69 L 18520161.29 790092.17 L 18534331.80 790092.17 L 18534331.80 747580.65 L 18548502.30 747580.65 L 18548502.30 719239.63 L 18562672.81 719239.63 L 18562672.81 676728.11 L 18576843.32 676728.11 L 18576843.32 648387.10 L 18491820.28 648387.10 L 18491820.28 676728.11 L 18477649.77 676728.11 L 18477649.77 719239.63 L 18463479.26 719239.63 L 18463479.26 761751.15 L 18449308.76 761751.15 L 18449308.76 804262.67 L 18435138.25 804262.67 L 18435138.25 832603.69 L 18151728.11 832603.69 L 18151728.11 804262.67 L 18137557.60 804262.67 L 18137557.60 761751.15 L 18123387.10 761751.15 L 18123387.10 719239.63 L 18109216.59 719239.63 L 18109216.59 676728.11 L 18095046.08 676728.11 L 18095046.08 648387.10 L 18010023.04 648387.10 L 18010023.04 690898.62 L 18024193.55 690898.62 L 18024193.55 733410.14 L 18038364.06 733410.14 L 18038364.06 761751.15 L 18052534.56 761751.15 L 18052534.56 804262.67 L 18066705.07 804262.67 L 18066705.07 846774.19 L 18080875.58 846774.19 L 18080875.58 889285.71 L 18095046.08 889285.71 L 18095046.08 917626.73 L 18109216.59 917626.73 L 18109216.59 960138.25 L 18123387.10 960138.25 L 18123387.10 1002649.77 L 18137557.60 1002649.77 L 18137557.60 1045161.29 L 18151728.11 1045161.29 L 18151728.11 1073502.30 L 18165898.62 1073502.30 L 18165898.62 1116013.82 L 18180069.12 1116013.82 L 18180069.12 1158525.35 L 18194239.63 1158525.35 L 18194239.63 1201036.87 L 18208410.14 1201036.87 L 18208410.14 1229377.88 L 18222580.65 1229377.88 L 18222580.65 1271889.40 L 18236751.15 1271889.40 L 18236751.15 1286059.91 L 18350115.21 1286059.91 L 18350115.21 1257718.89  zM 18293433.18 1201036.87 L 18279262.67 1201036.87 L 18279262.67 1158525.35 L 18265092.17 1158525.35 L 18265092.17 1116013.82 L 18250921.66 1116013.82 L 18250921.66 1073502.30 L 18236751.15 1073502.30 L 18236751.15 1030990.78 L 18222580.65 1030990.78 L 18222580.65 1002649.77 L 18208410.14 1002649.77 L 18208410.14 960138.25 L 18194239.63 960138.25 L 18194239.63 917626.73 L 18180069.12 917626.73 L 18180069.12 903456.22 L 18406797.24 903456.22 L 18406797.24 917626.73 L 18392626.73 917626.73 L 18392626.73 960138.25 L 18378456.22 960138.25 L 18378456.22 1002649.77 L 18364285.71 1002649.77 L 18364285.71 1030990.78 L 18350115.21 1030990.78 L 18350115.21 1073502.30 L 18335944.70 1073502.30 L 18335944.70 1116013.82 L 18321774.19 1116013.82 L 18321774.19 1158525.35 L 18307603.69 1158525.35 L 18307603.69 1186866.36 L 18293433.18 1186866.36 L 18293433.18 1201036.87  z"/>
<path id="N" d="M 15955299.54 648387.10 L 15870276.50 648387.10 L 15870276.50 1172695.85 L 15856105.99 1172695.85 L 15856105.99 1144354.84 L 15841935.48 1144354.84 L 15841935.48 1116013.82 L 15827764.98 1116013.82 L 15827764.98 1073502.30 L 15813594.47 1073502.30 L 15813594.47 1045161.29 L 15799423.96 1045161.29 L 15799423.96 1016820.28 L 15785253.46 1016820.28 L 15785253.46 988479.26 L 15771082.95 988479.26 L 15771082.95 960138.25 L 15756912.44 960138.25 L 15756912.44 931797.24 L 15742741.94 931797.24 L 15742741.94 903456.22 L 15728571.43 903456.22 L 15728571.43 860944.70 L 15714400.92 860944.70 L 15714400.92 832603.69 L 15700230.41 832603.69 L 15700230.41 818433.18 L 15643548.39 818433.18 L 15643548.39 846774.19 L 15629377.88 846774.19 L 15629377.88 875115.21 L 15615207.37 875115.21 L 15615207.37 903456.22 L 15601036.87 903456.22 L 15601036.87 931797.24 L 15586866.36 931797.24 L 15586866.36 960138.25 L 15572695.85 960138.25 L 15572695.85 988479.26 L 15558525.35 988479.26 L 15558525.35 1030990.78 L 15544354.84 1030990.78 L 15544354.84 1059331.80 L 15530184.33 1059331.80 L 15530184.33 1087672.81 L 15516013.82 1087672.81 L 15516013.82 1116013.82 L 15501843.32 1116013.82 L 15501843.32 1144354.84 L 15487672.81 1144354.84 L 15487672.81 1172695.85 L 15473502.30 1172695.85 L 15473502.30 648387.10 L 15388479.26 648387.10 L 15388479.26 1286059.91 L 15501843.32 1286059.91 L 15501843.32 1271889.40 L 15516013.82 1271889.40 L 15516013.82 1243548.39 L 15530184.33 1243548.39 L 15530184.33 1215207.37 L 15544354.84 1215207.37 L 15544354.84 1186866.36 L 15558525.35 1186866.36 L 15558525.35 1144354.84 L 15572695.85 1144354.84 L 15572695.85 1116013.82 L 15586866.36 1116013.82 L 15586866.36 1087672.81 L 15601036.87 1087672.81 L 15601036.87 1059331.80 L 15615207.37 1059331.80 L 15615207.37 1030990.78 L 15629377.88 1030990.78 L 15629377.88 1002649.77 L 15643548.39 1002649.77 L 15643548.39 960138.25 L 15657718.89 960138.25 L 15657718.89 931797.24 L 15671889.40 931797.24 L 15671889.40 945967.74 L 15686059.91 945967.74 L 15686059.91 974308.76 L 15700230.41 974308.76 L 15700230.41 1002649.77 L 15714400.92 1002649.77 L 15714400.92 1045161.29 L 15728571.43 1045161.29 L 15728571.43 1073502.30 L 15742741.94 1073502.30 L 15742741.94 1101843.32 L 15756912.44 1101843.32 L 15756912.44 1130184.33 L 15771082.95 1130184.33 L 15771082.95 1158525.35 L 15785253.46 1158525.35 L 15785253.46 1186866.36 L 15799423.96 1186866.36 L 15799423.96 1215207.37 L 15813594.47 1215207.37 L 15813594.47 1243548.39 L 15827764.98 1243548.39 L 15827764.98 1271889.40 L 15841935.48 1271889.40 L 15841935.48 1286059.91 L 15955299.54 1286059.91 L 15955299.54 648387.10  z"/>
<path id="N" d="M 16607142.86 860944.70 L 16592972.35 860944.70 L 16592972.35 775921.66 L 16578801.84 775921.66 L 16578801.84 747580.65 L 16564631.34 747580.65 L 16564631.34 719239.63 L 16550460.83 719239.63 L 16550460.83 705069.12 L 16536290.32 705069.12 L 16536290.32 690898.62 L 16522119.82 690898.62 L 16522119.82 676728.11 L 16507949.31 676728.11 L 16507949.31 662557.60 L 16479608.29 662557.60 L 16479608.29 648387.10 L 16422926.27 648387.10 L 16422926.27 634216.59 L 16281221.20 634216.59 L 16281221.20 648387.10 L 16238709.68 648387.10 L 16238709.68 662557.60 L 16210368.66 662557.60 L 16210368.66 676728.11 L 16196198.16 676728.11 L 16196198.16 690898.62 L 16182027.65 690898.62 L 16182027.65 705069.12 L 16167857.14 705069.12 L 16167857.14 719239.63 L 16153686.64 719239.63 L 16153686.64 733410.14 L 16139516.13 733410.14 L 16139516.13 761751.15 L 16125345.62 761751.15 L 16125345.62 818433.18 L 16111175.12 818433.18 L 16111175.12 1286059.91 L 16196198.16 1286059.91 L 16196198.16 818433.18 L 16210368.66 818433.18 L 16210368.66 775921.66 L 16224539.17 775921.66 L 16224539.17 761751.15 L 16238709.68 761751.15 L 16238709.68 733410.14 L 16267050.69 733410.14 L 16267050.69 719239.63 L 16295391.71 719239.63 L 16295391.71 705069.12 L 16408755.76 705069.12 L 16408755.76 719239.63 L 16451267.28 719239.63 L 16451267.28 733410.14 L 16465437.79 733410.14 L 16465437.79 747580.65 L 16479608.29 747580.65 L 16479608.29 761751.15 L 16493778.80 761751.15 L 16493778.80 790092.17 L 16507949.31 790092.17 L 16507949.31 860944.70 L 16522119.82 860944.70 L 16522119.82 1286059.91 L 16607142.86 1286059.91 L 16607142.86 860944.70  z"/>
<path id="N" d="M 24635109.00 3014737.00 L 24731293.00 3014737.00 L 24731293.00 2894507.00 L 24514879.00 2894507.00 L 24514879.00 2991784.00 L 24249280.00 2991784.00 L 24249280.00 2821276.00 L 24345464.00 2821276.00 L 24345464.00 2725092.00 L 24442741.00 2725092.00 L 24442741.00 2628908.00 L 24538925.00 2628908.00 L 24538925.00 2531631.00 L 24635109.00 2531631.00 L 24635109.00 2435447.00 L 24731293.00 2435447.00 L 24731293.00 2220126.00 L 24032866.00 2220126.00 L 24032866.00 2435447.00 L 24249280.00 2435447.00 L 24249280.00 2339263.00 L 24514879.00 2339263.00 L 24514879.00 2412494.00 L 24418695.00 2412494.00 L 24418695.00 2508678.00 L 24321418.00 2508678.00 L 24321418.00 2605955.00 L 24225234.00 2605955.00 L 24225234.00 2702139.00 L 24129050.00 2702139.00 L 24129050.00 2798323.00 L 24032866.00 2798323.00 L 24032866.00 3014737.00 L 24129050.00 3014737.00 L 24129050.00 3110921.00 L 24635109.00 3110921.00 L 24635109.00 3014737.00  z"/>
<path id="N" d="M 23059003.00 3014737.00 L 23155187.00 3014737.00 L 23155187.00 2894507.00 L 22938773.00 2894507.00 L 22938773.00 2991784.00 L 22673174.00 2991784.00 L 22673174.00 2821276.00 L 22769358.00 2821276.00 L 22769358.00 2725092.00 L 22866635.00 2725092.00 L 22866635.00 2628908.00 L 22962819.00 2628908.00 L 22962819.00 2531631.00 L 23059003.00 2531631.00 L 23059003.00 2435447.00 L 23155187.00 2435447.00 L 23155187.00 2220126.00 L 22456760.00 2220126.00 L 22456760.00 2435447.00 L 22673174.00 2435447.00 L 22673174.00 2339263.00 L 22938773.00 2339263.00 L 22938773.00 2412494.00 L 22842589.00 2412494.00 L 22842589.00 2508678.00 L 22745312.00 2508678.00 L 22745312.00 2605955.00 L 22649128.00 2605955.00 L 22649128.00 2702139.00 L 22552944.00 2702139.00 L 22552944.00 2798323.00 L 22456760.00 2798323.00 L 22456760.00 3014737.00 L 22552944.00 3014737.00 L 22552944.00 3110921.00 L 23059003.00 3110921.00 L 23059003.00 3014737.00  z"/>
<path id="N" d="M 26999268.00 4083691.00 L 27095452.00 4083691.00 L 27095452.00 3867277.00 L 26999268.00 3867277.00 L 26999268.00 3771093.00 L 26903084.00 3771093.00 L 26903084.00 3674909.00 L 26709623.00 3674909.00 L 26709623.00 3577632.00 L 26613439.00 3577632.00 L 26613439.00 3408217.00 L 26879038.00 3408217.00 L 26879038.00 3600585.00 L 27095452.00 3600585.00 L 27095452.00 3385264.00 L 26999268.00 3385264.00 L 26999268.00 3289080.00 L 26493209.00 3289080.00 L 26493209.00 3385264.00 L 26397025.00 3385264.00 L 26397025.00 3600585.00 L 26493209.00 3600585.00 L 26493209.00 3697862.00 L 26589393.00 3697862.00 L 26589393.00 3794046.00 L 26782854.00 3794046.00 L 26782854.00 3890230.00 L 26879038.00 3890230.00 L 26879038.00 4060738.00 L 26613439.00 4060738.00 L 26613439.00 3867277.00 L 26397025.00 3867277.00 L 26397025.00 4083691.00 L 26493209.00 4083691.00 L 26493209.00 4179875.00 L 26999268.00 4179875.00 L 26999268.00 4083691.00  z"/>
<path id="N" d="M 22270950.00 4083691.00 L 22367134.00 4083691.00 L 22367134.00 3867277.00 L 22270950.00 3867277.00 L 22270950.00 3771093.00 L 22174766.00 3771093.00 L 22174766.00 3674909.00 L 21981305.00 3674909.00 L 21981305.00 3577632.00 L 21885121.00 3577632.00 L 21885121.00 3408217.00 L 22150720.00 3408217.00 L 22150720.00 3600585.00 L 22367134.00 3600585.00 L 22367134.00 3385264.00 L 22270950.00 3385264.00 L 22270950.00 3289080.00 L 21764891.00 3289080.00 L 21764891.00 3385264.00 L 21668707.00 3385264.00 L 21668707.00 3600585.00 L 21764891.00 3600585.00 L 21764891.00 3697862.00 L 21861075.00 3697862.00 L 21861075.00 3794046.00 L 22054536.00 3794046.00 L 22054536.00 3890230.00 L 22150720.00 3890230.00 L 22150720.00 4060738.00 L 21885121.00 4060738.00 L 21885121.00 3867277.00 L 21668707.00 3867277.00 L 21668707.00 4083691.00 L 21764891.00 4083691.00 L 21764891.00 4179875.00 L 22270950.00 4179875.00 L 22270950.00 4083691.00  z"/>
<path id="N" d="M 19906791.00 4083691.00 L 20002975.00 4083691.00 L 20002975.00 3867277.00 L 19906791.00 3867277.00 L 19906791.00 3771093.00 L 19810607.00 3771093.00 L 19810607.00 3674909.00 L 19617146.00 3674909.00 L 19617146.00 3577632.00 L 19520962.00 3577632.00 L 19520962.00 3408217.00 L 19786561.00 3408217.00 L 19786561.00 3600585.00 L 20002975.00 3600585.00 L 20002975.00 3385264.00 L 19906791.00 3385264.00 L 19906791.00 3289080.00 L 19400732.00 3289080.00 L 19400732.00 3385264.00 L 19304548.00 3385264.00 L 19304548.00 3600585.00 L 19400732.00 3600585.00 L 19400732.00 3697862.00 L 19496916.00 3697862.00 L 19496916.00 3794046.00 L 19690377.00 3794046.00 L 19690377.00 3890230.00 L 19786561.00 3890230.00 L 19786561.00 4060738.00 L 19520962.00 4060738.00 L 19520962.00 3867277.00 L 19304548.00 3867277.00 L 19304548.00 4083691.00 L 19400732.00 4083691.00 L 19400732.00 4179875.00 L 19906791.00 4179875.00 L 19906791.00 4083691.00  z"/>
<path id="N" d="M 23750872.00 3014737.00 L 23847056.00 3014737.00 L 23847056.00 2917460.00 L 23943240.00 2917460.00 L 23943240.00 2412494.00 L 23847056.00 2412494.00 L 23847056.00 2316310.00 L 23750872.00 2316310.00 L 23750872.00 2220126.00 L 23437181.00 2220126.00 L 23437181.00 2316310.00 L 23340997.00 2316310.00 L 23340997.00 2412494.00 L 23244813.00 2412494.00 L 23244813.00 2917460.00 L 23340997.00 2917460.00 L 23340997.00 3014737.00 L 23437181.00 3014737.00 L 23437181.00 3110921.00 L 23750872.00 3110921.00 L 23750872.00 3014737.00  zM 23630642.00 2991784.00 L 23557411.00 2991784.00 L 23557411.00 2894507.00 L 23461227.00 2894507.00 L 23461227.00 2435447.00 L 23557411.00 2435447.00 L 23557411.00 2339263.00 L 23630642.00 2339263.00 L 23630642.00 2435447.00 L 23726826.00 2435447.00 L 23726826.00 2894507.00 L 23630642.00 2894507.00 L 23630642.00 2991784.00  z"/>
<path id="N" d="M 22270950.00 3014737.00 L 22367134.00 3014737.00 L 22367134.00 2894507.00 L 22150720.00 2894507.00 L 22150720.00 2991784.00 L 21885121.00 2991784.00 L 21885121.00 2725092.00 L 22174766.00 2725092.00 L 22174766.00 2605955.00 L 21885121.00 2605955.00 L 21885121.00 2339263.00 L 22150720.00 2339263.00 L 22150720.00 2435447.00 L 22367134.00 2435447.00 L 22367134.00 2316310.00 L 22270950.00 2316310.00 L 22270950.00 2220126.00 L 21764891.00 2220126.00 L 21764891.00 2316310.00 L 21668707.00 2316310.00 L 21668707.00 2628908.00 L 21764891.00 2628908.00 L 21764891.00 2702139.00 L 21668707.00 2702139.00 L 21668707.00 3014737.00 L 21764891.00 3014737.00 L 21764891.00 3110921.00 L 22270950.00 3110921.00 L 22270950.00 3014737.00  z"/>
<path id="N" d="M 21579081.00 4060738.00 L 21482897.00 4060738.00 L 21482897.00 3408217.00 L 21579081.00 3408217.00 L 21579081.00 3289080.00 L 20880654.00 3289080.00 L 20880654.00 3600585.00 L 21000884.00 3600585.00 L 21000884.00 3504401.00 L 21097068.00 3504401.00 L 21097068.00 3408217.00 L 21266483.00 3408217.00 L 21266483.00 3674909.00 L 21193252.00 3674909.00 L 21193252.00 3577632.00 L 21073022.00 3577632.00 L 21073022.00 3890230.00 L 21193252.00 3890230.00 L 21193252.00 3794046.00 L 21266483.00 3794046.00 L 21266483.00 4060738.00 L 21097068.00 4060738.00 L 21097068.00 3963461.00 L 21000884.00 3963461.00 L 21000884.00 3867277.00 L 20880654.00 3867277.00 L 20880654.00 4179875.00 L 21579081.00 4179875.00 L 21579081.00 4060738.00  z"/>
<path id="N" d="M 24442741.00 4083691.00 L 24538925.00 4083691.00 L 24538925.00 3986414.00 L 24635109.00 3986414.00 L 24635109.00 3890230.00 L 24731293.00 3890230.00 L 24731293.00 3289080.00 L 24514879.00 3289080.00 L 24514879.00 3577632.00 L 24249280.00 3577632.00 L 24249280.00 3289080.00 L 24032866.00 3289080.00 L 24032866.00 3890230.00 L 24129050.00 3890230.00 L 24129050.00 3986414.00 L 24225234.00 3986414.00 L 24225234.00 4083691.00 L 24321418.00 4083691.00 L 24321418.00 4179875.00 L 24442741.00 4179875.00 L 24442741.00 4083691.00  zM 24418695.00 3963461.00 L 24345464.00 3963461.00 L 24345464.00 3867277.00 L 24249280.00 3867277.00 L 24249280.00 3697862.00 L 24514879.00 3697862.00 L 24514879.00 3867277.00 L 24418695.00 3867277.00 L 24418695.00 3963461.00  z"/>
<path id="N" d="M 20791028.00 4060738.00 L 20694844.00 4060738.00 L 20694844.00 3408217.00 L 20791028.00 3408217.00 L 20791028.00 3289080.00 L 20284969.00 3289080.00 L 20284969.00 3385264.00 L 20188785.00 3385264.00 L 20188785.00 3481448.00 L 20092601.00 3481448.00 L 20092601.00 3986414.00 L 20188785.00 3986414.00 L 20188785.00 4083691.00 L 20284969.00 4083691.00 L 20284969.00 4179875.00 L 20791028.00 4179875.00 L 20791028.00 4060738.00  zM 20478430.00 4060738.00 L 20405199.00 4060738.00 L 20405199.00 3963461.00 L 20309015.00 3963461.00 L 20309015.00 3504401.00 L 20405199.00 3504401.00 L 20405199.00 3408217.00 L 20478430.00 3408217.00 L 20478430.00 4060738.00  z"/>
<path id="N" d="M 25519346.00 4060738.00 L 25423162.00 4060738.00 L 25423162.00 3408217.00 L 25519346.00 3408217.00 L 25519346.00 3289080.00 L 25206748.00 3289080.00 L 25206748.00 3674909.00 L 25133517.00 3674909.00 L 25133517.00 3577632.00 L 25037333.00 3577632.00 L 25037333.00 3289080.00 L 24820919.00 3289080.00 L 24820919.00 3600585.00 L 24917103.00 3600585.00 L 24917103.00 3771093.00 L 24820919.00 3771093.00 L 24820919.00 4083691.00 L 24917103.00 4083691.00 L 24917103.00 4179875.00 L 25519346.00 4179875.00 L 25519346.00 4060738.00  zM 25206748.00 4060738.00 L 25037333.00 4060738.00 L 25037333.00 3794046.00 L 25206748.00 3794046.00 L 25206748.00 4060738.00  z"/>
<path id="N" d="M 23847056.00 3867277.00 L 23726826.00 3867277.00 L 23726826.00 3963461.00 L 23654688.00 3963461.00 L 23654688.00 3408217.00 L 23750872.00 3408217.00 L 23750872.00 3289080.00 L 23340997.00 3289080.00 L 23340997.00 3408217.00 L 23437181.00 3408217.00 L 23437181.00 3963461.00 L 23365043.00 3963461.00 L 23365043.00 3867277.00 L 23244813.00 3867277.00 L 23244813.00 4179875.00 L 23847056.00 4179875.00 L 23847056.00 3867277.00  z"/>
<path id="N" d="M 26211215.00 3867277.00 L 26090985.00 3867277.00 L 26090985.00 3963461.00 L 26018847.00 3963461.00 L 26018847.00 3408217.00 L 26115031.00 3408217.00 L 26115031.00 3289080.00 L 25705156.00 3289080.00 L 25705156.00 3408217.00 L 25801340.00 3408217.00 L 25801340.00 3963461.00 L 25729202.00 3963461.00 L 25729202.00 3867277.00 L 25608972.00 3867277.00 L 25608972.00 4179875.00 L 26211215.00 4179875.00 L 26211215.00 3867277.00  z"/>
<path id="N" d="M 16989746.54 1215207.37 L 16904723.50 1215207.37 L 16904723.50 719239.63 L 16989746.54 719239.63 L 16989746.54 648387.10 L 16734677.42 648387.10 L 16734677.42 719239.63 L 16819700.46 719239.63 L 16819700.46 1215207.37 L 16734677.42 1215207.37 L 16734677.42 1286059.91 L 16989746.54 1286059.91 L 16989746.54 1215207.37  z"/>
<path id="N" d="M 18463479.26 6274078.34 L 18378456.22 6274078.34 L 18378456.22 5778110.60 L 18463479.26 5778110.60 L 18463479.26 5707258.06 L 18208410.14 5707258.06 L 18208410.14 5778110.60 L 18293433.18 5778110.60 L 18293433.18 6274078.34 L 18208410.14 6274078.34 L 18208410.14 6344930.88 L 18463479.26 6344930.88 L 18463479.26 6274078.34  z"/>
<path id="N" d="M 15983640.55 5707258.06 L 15558525.35 5707258.06 L 15558525.35 5778110.60 L 15898617.51 5778110.60 L 15898617.51 6019009.22 L 15558525.35 6019009.22 L 15558525.35 6089861.75 L 15898617.51 6089861.75 L 15898617.51 6274078.34 L 15558525.35 6274078.34 L 15558525.35 6344930.88 L 15983640.55 6344930.88 L 15983640.55 5707258.06  z"/>
<path id="N" d="M 23155187.00 3289080.00 L 22938773.00 3289080.00 L 22938773.00 3674909.00 L 22673174.00 3674909.00 L 22673174.00 3289080.00 L 22456760.00 3289080.00 L 22456760.00 4179875.00 L 22673174.00 4179875.00 L 22673174.00 3794046.00 L 22938773.00 3794046.00 L 22938773.00 4179875.00 L 23155187.00 4179875.00 L 23155187.00 3289080.00  z"/>
<path id="N" d="M 17584907.83 1215207.37 L 17358179.72 1215207.37 L 17358179.72 648387.10 L 17273156.68 648387.10 L 17273156.68 1215207.37 L 17046428.57 1215207.37 L 17046428.57 1286059.91 L 17584907.83 1286059.91 L 17584907.83 1215207.37  z"/>
<path id="N" d="M 17910829.49 648387.10 L 17499884.79 648387.10 L 17499884.79 719239.63 L 17825806.45 719239.63 L 17825806.45 1286059.91 L 17910829.49 1286059.91 L 17910829.49 648387.10  z"/>
<path id="N" d="M 17754953.92 5707258.06 L 17344009.22 5707258.06 L 17344009.22 5778110.60 L 17669930.88 5778110.60 L 17669930.88 6344930.88 L 17754953.92 6344930.88 L 17754953.92 5707258.06  z"/>
<path id="N" d="M 23654688.00 2605955.00 L 23533365.00 2605955.00 L 23533365.00 2725092.00 L 23654688.00 2725092.00 L 23654688.00 2605955.00  z"/>
</g>
</svg>
