<svg width="69.9999997mm" height="20.00000064mm" viewBox="0 0 27559055 7874016"  version="1.1" xmlns="http://www.w3.org/2000/svg" xmlns:xlink="http://www.w3.org/1999/xlink">
<desc>
Origin 0 0 Bound 1 0 27559055 7874016
</desc>
<g fill-rule="evenodd" fill="rgb(255, 0, 0)" stroke="black" stroke-width="1" transform="translate(0, 7874016) scale(1, -1) translate(-1, 0)">
<path id="N" d="M 27478778.00 3937008.00 L 10900000.00 3937008.00 L 10900000.00 2550000.00 L 9650000.00 2550000.00 L 9650000.00 3937008.00 L 8224378.00 3937008.00 L 8224378.00 6550000.00 A 80284.08 80284.08 0 0 1 8144095.00 6630283.00 L 6894095.00 6630283.00 A 80284.08 80284.08 0 0 1 6813812.00 6550000.00 L 6813812.00 3937008.00 L 5464141.00 3937008.00 L 5464141.00 6496063.00 A 80284.08 80284.08 0 0 1 5383858.00 6576346.00 L 4133858.00 6576346.00 A 80284.08 80284.08 0 0 1 4053575.00 6496063.00 L 4053575.00 3937008.00 L 80279.00 3937008.00 L 80279.00 7793738.00 L 27478778.00 7793738.00 L 27478778.00 3937008.00  zM 1181102.00 6692906.43 m -891701.25 0 a 891701.25 891701.25 0 1 1 1783402.50 0a 891701.25 891701.25 0 1 1 -1783402.50 0M 6102362.00 5905508.18 m -502928.40 0 a 502928.40 502928.40 0 1 1 1005856.80 0a 502928.40 502928.40 0 1 1 -1005856.80 0M 8858267.00 5905508.18 m -502928.40 0 a 502928.40 502928.40 0 1 1 1005856.80 0a 502928.40 502928.40 0 1 1 -1005856.80 0M 9840740.68 3099606.00 L 9737598.00 3099606.00 L 9737598.00 3083961.00 A 502917.28 502917.28 0 0 1 10170575.00 2650984.00 L 10186220.00 2650984.00 L 10186220.00 2754126.68 L 10132159.00 2761244.00 A 402062.40 402062.40 0 0 0 9847858.00 3045545.00 L 9840740.68 3099606.00  zM 10186220.00 6404134.00 L 10170575.00 6404134.00 A 502917.28 502917.28 0 0 1 9737598.00 5971157.00 L 9737598.00 5955512.00 L 9840740.68 5955512.00 L 9847858.00 6009573.00 A 402062.40 402062.40 0 0 0 10132159.00 6293874.00 L 10186220.00 6300991.32 L 10186220.00 6404134.00  zM 10186220.00 3648228.00 L 10170575.00 3648228.00 A 502917.28 502917.28 0 0 1 9737598.00 3215251.00 L 9737598.00 3199606.00 L 9840740.68 3199606.00 L 9847858.00 3253667.00 A 402062.40 402062.40 0 0 0 10132159.00 3537968.00 L 10186220.00 3545085.32 L 10186220.00 3648228.00  zM 10236217.20 3149620.37 m -268026.63 0 a 268026.63 268026.63 0 1 1 536053.26 0a 268026.63 268026.63 0 1 1 -536053.26 0M 9840740.68 5855512.00 L 9737598.00 5855512.00 L 9737598.00 5839867.00 A 502917.28 502917.28 0 0 1 10170575.00 5406890.00 L 10186220.00 5406890.00 L 10186220.00 5510032.68 L 10132159.00 5517150.00 A 402062.40 402062.40 0 0 0 9847858.00 5801451.00 L 9840740.68 5855512.00  zM 10236217.20 5905526.37 m -268026.63 0 a 268026.63 268026.63 0 1 1 536053.26 0a 268026.63 268026.63 0 1 1 -536053.26 0M 10734842.00 5855512.00 L 10631699.32 5855512.00 L 10624582.00 5801451.00 A 402062.40 402062.40 0 0 0 10340281.00 5517150.00 L 10286220.00 5510032.68 L 10286220.00 5406890.00 L 10301865.00 5406890.00 A 502917.28 502917.28 0 0 1 10734842.00 5839867.00 L 10734842.00 5855512.00  zM 10734842.00 3099606.00 L 10631699.32 3099606.00 L 10624582.00 3045545.00 A 402062.40 402062.40 0 0 0 10340281.00 2761244.00 L 10286220.00 2754126.68 L 10286220.00 2650984.00 L 10301865.00 2650984.00 A 502917.28 502917.28 0 0 1 10734842.00 3083961.00 L 10734842.00 3099606.00  zM 10301865.00 3648228.00 L 10286220.00 3648228.00 L 10286220.00 3545085.32 L 10340281.00 3537968.00 A 402062.40 402062.40 0 0 0 10624582.00 3253667.00 L 10631699.32 3199606.00 L 10734842.00 3199606.00 L 10734842.00 3215251.00 A 502917.28 502917.28 0 0 1 10301865.00 3648228.00  zM 10301865.00 6404134.00 L 10286220.00 6404134.00 L 10286220.00 6300991.32 L 10340281.00 6293874.00 A 402062.40 402062.40 0 0 0 10624582.00 6009573.00 L 10631699.32 5955512.00 L 10734842.00 5955512.00 L 10734842.00 5971157.00 A 502917.28 502917.28 0 0 1 10301865.00 6404134.00  zM 11614173.00 5905508.18 m -502928.40 0 a 502928.40 502928.40 0 1 1 1005856.80 0a 502928.40 502928.40 0 1 1 -1005856.80 0M 20422439.98 5897244.00 L 20416515.00 5897244.00 A 428448.36 428448.36 0 0 1 20047638.00 5528367.00 L 20047638.00 5522441.98 L 20151417.79 5522441.99 L 20155998.00 5557232.00 A 327599.99 327599.99 0 0 0 20387650.00 5788884.00 L 20422439.99 5793464.21 L 20422439.98 5897244.00  zM 20151417.53 5422441.99 L 20047638.00 5422441.98 L 20047638.00 5416515.00 A 428448.36 428448.36 0 0 1 20416515.00 5047638.00 L 20422440.02 5047638.00 L 20422440.01 5151417.79 L 20387650.00 5155998.00 A 327599.99 327599.99 0 0 0 20155998.00 5387650.00 L 20151417.53 5422441.99  zM 20472442.68 5472439.06 m -230814.94 0 a 230814.94 230814.94 0 1 1 461629.88 0a 230814.94 230814.94 0 1 1 -461629.88 0M 20528367.00 5897244.00 L 20522439.98 5897244.00 L 20522439.99 5793464.48 L 20557232.00 5788884.00 A 327599.99 327599.99 0 0 0 20788884.00 5557232.00 L 20793464.21 5522442.01 L 20897244.00 5522442.02 L 20897244.00 5528367.00 A 428448.36 428448.36 0 0 1 20528367.00 5897244.00  zM 20897244.00 5422442.02 L 20793464.48 5422442.01 L 20788884.00 5387650.00 A 327599.99 327599.99 0 0 0 20557232.00 5155998.00 L 20522440.01 5151417.53 L 20522440.02 5047638.00 L 20528367.00 5047638.00 A 428448.36 428448.36 0 0 1 20897244.00 5416515.00 L 20897244.00 5422442.02  zM 26377953.00 6692906.43 m -891701.25 0 a 891701.25 891701.25 0 1 1 1783402.50 0a 891701.25 891701.25 0 1 1 -1783402.50 0"/>
<path id="N" d="M 1181106.73 6692924.76 m -791198.52 0 a 791198.52 791198.52 0 1 1 1582397.04 0a 791198.52 791198.52 0 1 1 -1582397.04 0M 1181099.04 6692927.86 m -632954.14 0 a 632954.14 632954.14 0 1 1 1265908.28 0a 632954.14 632954.14 0 1 1 -1265908.28 0"/>
<path id="N" d="M 26377957.73 6692924.76 m -791198.52 0 a 791198.52 791198.52 0 1 1 1582397.04 0a 791198.52 791198.52 0 1 1 -1582397.04 0M 26377950.04 6692927.86 m -632954.14 0 a 632954.14 632954.14 0 1 1 1265908.28 0a 632954.14 632954.14 0 1 1 -1265908.28 0"/>
<path id="N" d="M 26377957.73 1181113.76 m -791198.52 0 a 791198.52 791198.52 0 1 1 1582397.04 0a 791198.52 791198.52 0 1 1 -1582397.04 0M 26377950.04 1181116.86 m -632954.14 0 a 632954.14 632954.14 0 1 1 1265908.28 0a 632954.14 632954.14 0 1 1 -1265908.28 0"/>
<path id="N" d="M 1181106.73 1181113.76 m -791198.52 0 a 791198.52 791198.52 0 1 1 1582397.04 0a 791198.52 791198.52 0 1 1 -1582397.04 0M 1181099.04 1181116.86 m -632954.14 0 a 632954.14 632954.14 0 1 1 1265908.28 0a 632954.14 632954.14 0 1 1 -1265908.28 0"/>
<path id="N" d="M 8144095.00 3937008.00 A 80284.08 80284.08 0 0 1 8224378.00 3856725.00 L 9569717.00 3856725.00 L 9569717.00 2550000.00 A 80284.08 80284.08 0 0 1 9650000.00 2469717.00 L 10900000.00 2469717.00 A 80284.08 80284.08 0 0 1 10980283.00 2550000.00 L 10980283.00 3856725.00 L 27478778.00 3856725.00 L 27478778.00 80278.00 L 80279.00 80278.00 L 80279.00 3856725.00 L 4053575.00 3856725.00 A 80284.08 80284.08 0 0 1 4133858.00 3937008.00 L 4133858.00 6496063.00 L 5383858.00 6496063.00 L 5383858.00 3937008.00 A 80284.08 80284.08 0 0 1 5464141.00 3856725.00 L 6813812.00 3856725.00 A 80284.08 80284.08 0 0 1 6894095.00 3937008.00 L 6894095.00 6550000.00 L 8144095.00 6550000.00 L 8144095.00 3937008.00  zM 1181102.00 1181095.43 m -891701.25 0 a 891701.25 891701.25 0 1 1 1783402.50 0a 891701.25 891701.25 0 1 1 -1783402.50 0M 4325787.00 3099606.00 L 4225787.00 3099606.00 L 4225787.00 2650984.00 L 4674409.00 2650984.00 L 4674409.00 2750984.00 L 4325787.00 2750984.00 L 4325787.00 3099606.00  zM 4724406.20 3149620.37 m -268026.63 0 a 268026.63 268026.63 0 1 1 536053.26 0a 268026.63 268026.63 0 1 1 -536053.26 0M 5223031.00 3648228.00 L 4774409.00 3648228.00 L 4774409.00 3548228.00 L 5123031.00 3548228.00 L 5123031.00 3199606.00 L 5223031.00 3199606.00 L 5223031.00 3648228.00  zM 4674409.00 3648228.00 L 4225787.00 3648228.00 L 4225787.00 3199606.00 L 4325787.00 3199606.00 L 4325787.00 3548228.00 L 4674409.00 3548228.00 L 4674409.00 3648228.00  zM 4328929.68 5855512.00 L 4225787.00 5855512.00 L 4225787.00 5839867.00 A 502917.28 502917.28 0 0 1 4658764.00 5406890.00 L 4674409.00 5406890.00 L 4674409.00 5510032.68 L 4620348.00 5517150.00 A 402062.40 402062.40 0 0 0 4336047.00 5801451.00 L 4328929.68 5855512.00  zM 4674409.00 6404134.00 L 4658764.00 6404134.00 A 502917.28 502917.28 0 0 1 4225787.00 5971157.00 L 4225787.00 5955512.00 L 4328929.68 5955512.00 L 4336047.00 6009573.00 A 402062.40 402062.40 0 0 0 4620348.00 6293874.00 L 4674409.00 6300991.32 L 4674409.00 6404134.00  zM 4724406.20 5905526.37 m -268026.63 0 a 268026.63 268026.63 0 1 1 536053.26 0a 268026.63 268026.63 0 1 1 -536053.26 0M 5223031.00 3099606.00 L 5123031.00 3099606.00 L 5123031.00 2750984.00 L 4774409.00 2750984.00 L 4774409.00 2650984.00 L 5223031.00 2650984.00 L 5223031.00 3099606.00  zM 6102362.00 3149602.18 m -502928.40 0 a 502928.40 502928.40 0 1 1 1005856.80 0a 502928.40 502928.40 0 1 1 -1005856.80 0M 5223031.00 5855512.00 L 5119888.32 5855512.00 L 5112771.00 5801451.00 A 402062.40 402062.40 0 0 0 4828470.00 5517150.00 L 4774409.00 5510032.68 L 4774409.00 5406890.00 L 4790054.00 5406890.00 A 502917.28 502917.28 0 0 1 5223031.00 5839867.00 L 5223031.00 5855512.00  zM 7430315.00 3648228.00 L 7414670.00 3648228.00 A 502917.28 502917.28 0 0 1 6981693.00 3215251.00 L 6981693.00 3199606.00 L 7084835.68 3199606.00 L 7091953.00 3253667.00 A 402062.40 402062.40 0 0 0 7376254.00 3537968.00 L 7430315.00 3545085.32 L 7430315.00 3648228.00  zM 4790054.00 6404134.00 L 4774409.00 6404134.00 L 4774409.00 6300991.32 L 4828470.00 6293874.00 A 402062.40 402062.40 0 0 0 5112771.00 6009573.00 L 5119888.32 5955512.00 L 5223031.00 5955512.00 L 5223031.00 5971157.00 A 502917.28 502917.28 0 0 1 4790054.00 6404134.00  zM 7084835.68 5855512.00 L 6981693.00 5855512.00 L 6981693.00 5839867.00 A 502917.28 502917.28 0 0 1 7414670.00 5406890.00 L 7430315.00 5406890.00 L 7430315.00 5510032.68 L 7376254.00 5517150.00 A 402062.40 402062.40 0 0 0 7091953.00 5801451.00 L 7084835.68 5855512.00  zM 7430315.00 6404134.00 L 7414670.00 6404134.00 A 502917.28 502917.28 0 0 1 6981693.00 5971157.00 L 6981693.00 5955512.00 L 7084835.68 5955512.00 L 7091953.00 6009573.00 A 402062.40 402062.40 0 0 0 7376254.00 6293874.00 L 7430315.00 6300991.32 L 7430315.00 6404134.00  zM 7084835.68 3099606.00 L 6981693.00 3099606.00 L 6981693.00 3083961.00 A 502917.28 502917.28 0 0 1 7414670.00 2650984.00 L 7430315.00 2650984.00 L 7430315.00 2754126.68 L 7376254.00 2761244.00 A 402062.40 402062.40 0 0 0 7091953.00 3045545.00 L 7084835.68 3099606.00  zM 7480312.20 3149620.37 m -268026.63 0 a 268026.63 268026.63 0 1 1 536053.26 0a 268026.63 268026.63 0 1 1 -536053.26 0M 7978937.00 3099606.00 L 7875794.32 3099606.00 L 7868677.00 3045545.00 A 402062.40 402062.40 0 0 0 7584376.00 2761244.00 L 7530315.00 2754126.68 L 7530315.00 2650984.00 L 7545960.00 2650984.00 A 502917.28 502917.28 0 0 1 7978937.00 3083961.00 L 7978937.00 3099606.00  zM 8858267.00 3149602.18 m -502928.40 0 a 502928.40 502928.40 0 1 1 1005856.80 0a 502928.40 502928.40 0 1 1 -1005856.80 0M 7545960.00 3648228.00 L 7530315.00 3648228.00 L 7530315.00 3545085.32 L 7584376.00 3537968.00 A 402062.40 402062.40 0 0 0 7868677.00 3253667.00 L 7875794.32 3199606.00 L 7978937.00 3199606.00 L 7978937.00 3215251.00 A 502917.28 502917.28 0 0 1 7545960.00 3648228.00  zM 7978937.00 5855512.00 L 7875794.32 5855512.00 L 7868677.00 5801451.00 A 402062.40 402062.40 0 0 0 7584376.00 5517150.00 L 7530315.00 5510032.68 L 7530315.00 5406890.00 L 7545960.00 5406890.00 A 502917.28 502917.28 0 0 1 7978937.00 5839867.00 L 7978937.00 5855512.00  zM 7480312.20 5905526.37 m -268026.63 0 a 268026.63 268026.63 0 1 1 536053.26 0a 268026.63 268026.63 0 1 1 -536053.26 0M 7545960.00 6404134.00 L 7530315.00 6404134.00 L 7530315.00 6300991.32 L 7584376.00 6293874.00 A 402062.40 402062.40 0 0 0 7868677.00 6009573.00 L 7875794.32 5955512.00 L 7978937.00 5955512.00 L 7978937.00 5971157.00 A 502917.28 502917.28 0 0 1 7545960.00 6404134.00  zM 11614173.00 3149602.18 m -502928.40 0 a 502928.40 502928.40 0 1 1 1005856.80 0a 502928.40 502928.40 0 1 1 -1005856.80 0M 20422439.98 2826378.00 L 20416515.00 2826378.00 A 428448.36 428448.36 0 0 1 20047638.00 2457501.00 L 20047638.00 2451575.98 L 20151417.79 2451575.99 L 20155998.00 2486366.00 A 327599.99 327599.99 0 0 0 20387650.00 2718018.00 L 20422439.99 2722598.21 L 20422439.98 2826378.00  zM 20151417.53 2351575.99 L 20047638.00 2351575.98 L 20047638.00 2345649.00 A 428448.36 428448.36 0 0 1 20416515.00 1976772.00 L 20422440.02 1976772.00 L 20422440.01 2080551.79 L 20387650.00 2085132.00 A 327599.99 327599.99 0 0 0 20155998.00 2316784.00 L 20151417.53 2351575.99  zM 20472442.68 2401573.06 m -230814.94 0 a 230814.94 230814.94 0 1 1 461629.88 0a 230814.94 230814.94 0 1 1 -461629.88 0M 20897244.00 2351576.02 L 20793464.48 2351576.01 L 20788884.00 2316784.00 A 327599.99 327599.99 0 0 0 20557232.00 2085132.00 L 20522440.01 2080551.53 L 20522440.02 1976772.00 L 20528367.00 1976772.00 A 428448.36 428448.36 0 0 1 20897244.00 2345649.00 L 20897244.00 2351576.02  zM 20528367.00 2826378.00 L 20522439.98 2826378.00 L 20522439.99 2722598.48 L 20557232.00 2718018.00 A 327599.99 327599.99 0 0 0 20788884.00 2486366.00 L 20793464.21 2451576.01 L 20897244.00 2451576.02 L 20897244.00 2457501.00 A 428448.36 428448.36 0 0 1 20528367.00 2826378.00  zM 26377953.00 1181095.43 m -891701.25 0 a 891701.25 891701.25 0 1 1 1783402.50 0a 891701.25 891701.25 0 1 1 -1783402.50 0"/>
<path id="N" d="M 11614173.64 5905511.27 m -402062.40 0 a 402062.40 402062.40 0 1 1 804124.79 0a 402062.40 402062.40 0 1 1 -804124.79 0M 11614170.20 5905526.37 m -268026.63 0 a 268026.63 268026.63 0 1 1 536053.26 0a 268026.63 268026.63 0 1 1 -536053.26 0"/>
<path id="N" d="M 8858267.64 5905511.27 m -402062.40 0 a 402062.40 402062.40 0 1 1 804124.79 0a 402062.40 402062.40 0 1 1 -804124.79 0M 8858264.20 5905526.37 m -268026.63 0 a 268026.63 268026.63 0 1 1 536053.26 0a 268026.63 268026.63 0 1 1 -536053.26 0"/>
<path id="N" d="M 6102362.64 5905511.27 m -402062.40 0 a 402062.40 402062.40 0 1 1 804124.79 0a 402062.40 402062.40 0 1 1 -804124.79 0M 6102359.20 5905526.37 m -268026.63 0 a 268026.63 268026.63 0 1 1 536053.26 0a 268026.63 268026.63 0 1 1 -536053.26 0"/>
<path id="N" d="M 11614173.64 3149605.27 m -402062.40 0 a 402062.40 402062.40 0 1 1 804124.79 0a 402062.40 402062.40 0 1 1 -804124.79 0M 11614170.20 3149620.37 m -268026.63 0 a 268026.63 268026.63 0 1 1 536053.26 0a 268026.63 268026.63 0 1 1 -536053.26 0"/>
<path id="N" d="M 8858267.64 3149605.27 m -402062.40 0 a 402062.40 402062.40 0 1 1 804124.79 0a 402062.40 402062.40 0 1 1 -804124.79 0M 8858264.20 3149620.37 m -268026.63 0 a 268026.63 268026.63 0 1 1 536053.26 0a 268026.63 268026.63 0 1 1 -536053.26 0"/>
<path id="N" d="M 6102362.64 3149605.27 m -402062.40 0 a 402062.40 402062.40 0 1 1 804124.79 0a 402062.40 402062.40 0 1 1 -804124.79 0M 6102359.20 3149620.37 m -268026.63 0 a 268026.63 268026.63 0 1 1 536053.26 0a 268026.63 268026.63 0 1 1 -536053.26 0"/>
</g>
</svg>
