<svg width="69.9999997mm" height="20.00000064mm" viewBox="0 0 27559055 7874016"  version="1.1" xmlns="http://www.w3.org/2000/svg" xmlns:xlink="http://www.w3.org/1999/xlink">
<desc>
Origin 0 0 Bound 1 0 27559055 7874016
</desc>
<g fill-rule="evenodd" fill="rgb(128, 0, 128)" stroke="black" stroke-width="1" transform="translate(0, 7874016) scale(1, -1) translate(-1, 0)">
<path id="N" d="M 27559056.00 0.00 L 1.00 0.00 L 1.00 7874016.00 L 27559056.00 7874016.00 L 27559056.00 0.00  zM 1181103.54 1181093.16 m -810999.84 0 a 810999.84 810999.84 0 1 1 1621999.67 0a 810999.84 810999.84 0 1 1 -1621999.67 0M 5142716.00 3567913.00 L 4306102.00 3567913.00 L 4306102.00 2731299.00 L 5142716.00 2731299.00 L 5142716.00 3567913.00  zM 4724406.58 5905518.12 m -421910.88 0 a 421910.88 421910.88 0 1 1 843821.76 0a 421910.88 421910.88 0 1 1 -843821.76 0M 1181103.54 6692904.16 m -810999.84 0 a 810999.84 810999.84 0 1 1 1621999.67 0a 810999.84 810999.84 0 1 1 -1621999.67 0M 6102358.62 5905525.46 m -421903.54 0 a 421903.54 421903.54 0 1 1 843807.09 0a 421903.54 421903.54 0 1 1 -843807.09 0M 6102358.62 3149619.46 m -421903.54 0 a 421903.54 421903.54 0 1 1 843807.09 0a 421903.54 421903.54 0 1 1 -843807.09 0M 7480312.58 3149612.12 m -421910.88 0 a 421910.88 421910.88 0 1 1 843821.76 0a 421910.88 421910.88 0 1 1 -843821.76 0M 7480312.58 5905518.12 m -421910.88 0 a 421910.88 421910.88 0 1 1 843821.76 0a 421910.88 421910.88 0 1 1 -843821.76 0M 8858264.58 5905518.12 m -421910.88 0 a 421910.88 421910.88 0 1 1 843821.76 0a 421910.88 421910.88 0 1 1 -843821.76 0M 8858264.58 3149612.12 m -421910.88 0 a 421910.88 421910.88 0 1 1 843821.76 0a 421910.88 421910.88 0 1 1 -843821.76 0M 10236216.62 3149619.46 m -421903.54 0 a 421903.54 421903.54 0 1 1 843807.09 0a 421903.54 421903.54 0 1 1 -843807.09 0M 10236216.62 5905525.46 m -421903.54 0 a 421903.54 421903.54 0 1 1 843807.09 0a 421903.54 421903.54 0 1 1 -843807.09 0M 11614170.58 3149612.12 m -421910.88 0 a 421910.88 421910.88 0 1 1 843821.76 0a 421910.88 421910.88 0 1 1 -843821.76 0M 11614170.58 5905518.12 m -421910.88 0 a 421910.88 421910.88 0 1 1 843821.76 0a 421910.88 421910.88 0 1 1 -843821.76 0M 20472437.18 2401587.72 m -347448.28 0 a 347448.28 347448.28 0 1 1 694896.56 0a 347448.28 347448.28 0 1 1 -694896.56 0M 26377954.54 1181093.16 m -810999.84 0 a 810999.84 810999.84 0 1 1 1621999.67 0a 810999.84 810999.84 0 1 1 -1621999.67 0M 20472437.18 5472453.72 m -347448.28 0 a 347448.28 347448.28 0 1 1 694896.56 0a 347448.28 347448.28 0 1 1 -694896.56 0M 26377954.54 6692904.16 m -810999.84 0 a 810999.84 810999.84 0 1 1 1621999.67 0a 810999.84 810999.84 0 1 1 -1621999.67 0"/>
</g>
</svg>
