<svg width="55.99999976mm" height="64.99999954mm" viewBox="0 0 22047244 25590551"  version="1.1" xmlns="http://www.w3.org/2000/svg" xmlns:xlink="http://www.w3.org/1999/xlink">
<desc>
Origin 0 0 Bound 15722441 13637008 22047244 25590551
</desc>
<g fill-rule="evenodd" fill="rgb(255, 0, 255)" stroke="black" stroke-width="1" transform="translate(0, 25590551) scale(1, -1) translate(-15722441, -13637008)">
<path id="N" d="M 37769685.00 13637008.00 L 15722441.00 13637008.00 L 15722441.00 39227559.00 L 37769685.00 39227559.00 L 37769685.00 13637008.00  zM 17099998.22 14850007.46 m -613181.54 0 a 613181.54 613181.54 0 1 1 1226363.09 0a 613181.54 613181.54 0 1 1 -1226363.09 0M 22050003.68 21599988.54 m -277979.46 0 a 277979.46 277979.46 0 1 1 555958.91 0a 277979.46 277979.46 0 1 1 -555958.91 0M 23325590.00 21875590.00 L 22774410.00 21875590.00 L 22774410.00 21324410.00 L 23325590.00 21324410.00 L 23325590.00 21875590.00  zM 22050003.68 23149988.54 m -277979.46 0 a 277979.46 277979.46 0 1 1 555958.91 0a 277979.46 277979.46 0 1 1 -555958.91 0M 23325590.00 23425590.00 L 22774410.00 23425590.00 L 22774410.00 22874410.00 L 23325590.00 22874410.00 L 23325590.00 23425590.00  zM 34772441.12 21787010.43 m -315690.57 0 a 315690.57 315690.57 0 1 1 631381.15 0a 315690.57 315690.57 0 1 1 -631381.15 0M 34772441.12 25787010.43 m -315690.57 0 a 315690.57 315690.57 0 1 1 631381.15 0a 315690.57 315690.57 0 1 1 -631381.15 0M 34772441.12 16787010.43 m -315690.57 0 a 315690.57 315690.57 0 1 1 631381.15 0a 315690.57 315690.57 0 1 1 -631381.15 0M 34772441.12 18787010.43 m -315690.57 0 a 315690.57 315690.57 0 1 1 631381.15 0a 315690.57 315690.57 0 1 1 -631381.15 0M 34772441.12 19787010.43 m -315690.57 0 a 315690.57 315690.57 0 1 1 631381.15 0a 315690.57 315690.57 0 1 1 -631381.15 0M 34772441.12 20787010.43 m -315690.57 0 a 315690.57 315690.57 0 1 1 631381.15 0a 315690.57 315690.57 0 1 1 -631381.15 0M 34772441.12 22787010.43 m -315690.57 0 a 315690.57 315690.57 0 1 1 631381.15 0a 315690.57 315690.57 0 1 1 -631381.15 0M 34772441.12 23787010.43 m -315690.57 0 a 315690.57 315690.57 0 1 1 631381.15 0a 315690.57 315690.57 0 1 1 -631381.15 0M 34772441.12 24787010.43 m -315690.57 0 a 315690.57 315690.57 0 1 1 631381.15 0a 315690.57 315690.57 0 1 1 -631381.15 0M 36391337.22 14850007.46 m -613181.54 0 a 613181.54 613181.54 0 1 1 1226363.09 0a 613181.54 613181.54 0 1 1 -1226363.09 0M 35772441.12 16782286.43 m -315690.57 0 a 315690.57 315690.57 0 1 1 631381.15 0a 315690.57 315690.57 0 1 1 -631381.15 0M 34772441.12 17787010.43 m -315690.57 0 a 315690.57 315690.57 0 1 1 631381.15 0a 315690.57 315690.57 0 1 1 -631381.15 0M 35772441.12 17782286.43 m -315690.57 0 a 315690.57 315690.57 0 1 1 631381.15 0a 315690.57 315690.57 0 1 1 -631381.15 0M 35772441.12 18782286.43 m -315690.57 0 a 315690.57 315690.57 0 1 1 631381.15 0a 315690.57 315690.57 0 1 1 -631381.15 0M 35772441.12 19782286.43 m -315690.57 0 a 315690.57 315690.57 0 1 1 631381.15 0a 315690.57 315690.57 0 1 1 -631381.15 0M 35772441.12 20782286.43 m -315690.57 0 a 315690.57 315690.57 0 1 1 631381.15 0a 315690.57 315690.57 0 1 1 -631381.15 0M 35772441.12 21782286.43 m -315690.57 0 a 315690.57 315690.57 0 1 1 631381.15 0a 315690.57 315690.57 0 1 1 -631381.15 0M 35772441.12 22782286.43 m -315690.57 0 a 315690.57 315690.57 0 1 1 631381.15 0a 315690.57 315690.57 0 1 1 -631381.15 0M 35772441.12 23782286.43 m -315690.57 0 a 315690.57 315690.57 0 1 1 631381.15 0a 315690.57 315690.57 0 1 1 -631381.15 0M 35772441.12 24782286.43 m -315690.57 0 a 315690.57 315690.57 0 1 1 631381.15 0a 315690.57 315690.57 0 1 1 -631381.15 0M 35772441.12 25782286.43 m -315690.57 0 a 315690.57 315690.57 0 1 1 631381.15 0a 315690.57 315690.57 0 1 1 -631381.15 0M 35772441.12 26782286.43 m -315690.57 0 a 315690.57 315690.57 0 1 1 631381.15 0a 315690.57 315690.57 0 1 1 -631381.15 0M 17099998.22 37684653.46 m -613181.54 0 a 613181.54 613181.54 0 1 1 1226363.09 0a 613181.54 613181.54 0 1 1 -1226363.09 0M 25723620.52 36350004.68 m -516579.32 0 a 516579.32 516579.32 0 1 1 1033158.64 0a 516579.32 516579.32 0 1 1 -1033158.64 0M 25723620.52 38350004.68 m -516579.32 0 a 516579.32 516579.32 0 1 1 1033158.64 0a 516579.32 516579.32 0 1 1 -1033158.64 0M 27181102.00 37807480.00 L 26266142.00 37807480.00 L 26266142.00 36892520.00 L 27181102.00 36892520.00 L 27181102.00 37807480.00  zM 27723620.52 36350004.68 m -516579.32 0 a 516579.32 516579.32 0 1 1 1033158.64 0a 516579.32 516579.32 0 1 1 -1033158.64 0M 27723620.52 38350004.68 m -516579.32 0 a 516579.32 516579.32 0 1 1 1033158.64 0a 516579.32 516579.32 0 1 1 -1033158.64 0M 34772441.12 32787010.43 m -315690.57 0 a 315690.57 315690.57 0 1 1 631381.15 0a 315690.57 315690.57 0 1 1 -631381.15 0M 34772441.12 28787010.43 m -315690.57 0 a 315690.57 315690.57 0 1 1 631381.15 0a 315690.57 315690.57 0 1 1 -631381.15 0M 34772441.12 29787010.43 m -315690.57 0 a 315690.57 315690.57 0 1 1 631381.15 0a 315690.57 315690.57 0 1 1 -631381.15 0M 34772441.12 30787010.43 m -315690.57 0 a 315690.57 315690.57 0 1 1 631381.15 0a 315690.57 315690.57 0 1 1 -631381.15 0M 34772441.12 33787010.43 m -315690.57 0 a 315690.57 315690.57 0 1 1 631381.15 0a 315690.57 315690.57 0 1 1 -631381.15 0M 34772441.12 34787010.43 m -315690.57 0 a 315690.57 315690.57 0 1 1 631381.15 0a 315690.57 315690.57 0 1 1 -631381.15 0M 35085433.00 36100000.00 L 34459449.00 36100000.00 L 34459449.00 35474016.00 L 35085433.00 35474016.00 L 35085433.00 36100000.00  zM 34772441.12 26787010.43 m -315690.57 0 a 315690.57 315690.57 0 1 1 631381.15 0a 315690.57 315690.57 0 1 1 -631381.15 0M 35772441.12 27782286.43 m -315690.57 0 a 315690.57 315690.57 0 1 1 631381.15 0a 315690.57 315690.57 0 1 1 -631381.15 0M 34772441.12 27787010.43 m -315690.57 0 a 315690.57 315690.57 0 1 1 631381.15 0a 315690.57 315690.57 0 1 1 -631381.15 0M 35772441.12 28782286.43 m -315690.57 0 a 315690.57 315690.57 0 1 1 631381.15 0a 315690.57 315690.57 0 1 1 -631381.15 0M 35772441.12 29782286.43 m -315690.57 0 a 315690.57 315690.57 0 1 1 631381.15 0a 315690.57 315690.57 0 1 1 -631381.15 0M 35772441.12 30782286.43 m -315690.57 0 a 315690.57 315690.57 0 1 1 631381.15 0a 315690.57 315690.57 0 1 1 -631381.15 0M 35772441.12 31782286.43 m -315690.57 0 a 315690.57 315690.57 0 1 1 631381.15 0a 315690.57 315690.57 0 1 1 -631381.15 0M 34772441.12 31787010.43 m -315690.57 0 a 315690.57 315690.57 0 1 1 631381.15 0a 315690.57 315690.57 0 1 1 -631381.15 0M 35772441.12 32782286.43 m -315690.57 0 a 315690.57 315690.57 0 1 1 631381.15 0a 315690.57 315690.57 0 1 1 -631381.15 0M 35772441.12 33782286.43 m -315690.57 0 a 315690.57 315690.57 0 1 1 631381.15 0a 315690.57 315690.57 0 1 1 -631381.15 0M 35772441.12 34782286.43 m -315690.57 0 a 315690.57 315690.57 0 1 1 631381.15 0a 315690.57 315690.57 0 1 1 -631381.15 0M 36085433.00 36095276.00 L 35459449.00 36095276.00 L 35459449.00 35469292.00 L 36085433.00 35469292.00 L 36085433.00 36095276.00  zM 36391337.22 37684653.46 m -613181.54 0 a 613181.54 613181.54 0 1 1 1226363.09 0a 613181.54 613181.54 0 1 1 -1226363.09 0"/>
</g>
</svg>
