<svg width="55.99999976mm" height="64.99999954mm" viewBox="0 0 22047244 25590551"  version="1.1" xmlns="http://www.w3.org/2000/svg" xmlns:xlink="http://www.w3.org/1999/xlink">
<desc>
Origin 0 0 Bound 15722441 13637008 22047244 25590551
</desc>
<g fill-rule="evenodd" fill="rgb(255, 0, 0)" stroke="black" stroke-width="1" transform="translate(0, 25590551) scale(1, -1) translate(-15722441, -13637008)">
<path id="N" d="M 35772433.64 18782268.96 m -315709.31 0 a 315709.31 315709.31 0 1 1 631418.63 0a 315709.31 315709.31 0 1 1 -631418.63 0M 35772441.92 18782281.47 m -208737.53 0 a 208737.53 208737.53 0 1 1 417475.06 0a 208737.53 208737.53 0 1 1 -417475.06 0"/>
<path id="N" d="M 27181102.00 36892520.00 L 26850311.00 36892520.00 L 26850311.00 34856347.00 L 26851353.00 34856347.00 A 1127714.62 1127714.62 0 0 0 26635976.00 34193483.00 L 26541035.00 34082322.53 L 26541035.00 33565749.00 A 250882.20 250882.20 0 0 0 26039267.00 33565749.00 L 26039267.00 34451575.00 A 250882.20 250882.20 0 0 0 26521938.00 34547584.00 L 26528439.96 34514895.80 L 26531978.00 34521515.00 L 26581768.00 34685651.00 L 26598034.58 34850809.19 L 26596933.00 34856347.00 L 26596933.00 36892520.00 L 26266142.00 36892520.00 L 26266142.00 37807480.00 L 27181102.00 37807480.00 L 27181102.00 36892520.00  zM 26723618.07 37350015.00 m -302574.00 0 a 302574.00 302574.00 0 1 1 605148.00 0a 302574.00 302574.00 0 1 1 -605148.00 0"/>
<path id="N" d="M 35772433.64 30782268.96 m -315709.31 0 a 315709.31 315709.31 0 1 1 631418.63 0a 315709.31 315709.31 0 1 1 -631418.63 0M 35772441.92 30782281.47 m -208737.53 0 a 208737.53 208737.53 0 1 1 417475.06 0a 208737.53 208737.53 0 1 1 -417475.06 0"/>
<path id="N" d="M 35772433.64 25782268.96 m -315709.31 0 a 315709.31 315709.31 0 1 1 631418.63 0a 315709.31 315709.31 0 1 1 -631418.63 0M 35772441.92 25782281.47 m -208737.53 0 a 208737.53 208737.53 0 1 1 417475.06 0a 208737.53 208737.53 0 1 1 -417475.06 0"/>
<path id="N" d="M 34467505.00 28705301.00 L 34466815.40 28710539.00 L 33775376.00 28710539.00 L 27226980.59 22162143.59 L 27240673.00 22093307.00 L 27240673.00 21089371.00 A 190667.29 190667.29 0 0 0 26859329.00 21089371.00 L 26859329.00 22093307.00 A 190667.29 190667.29 0 0 0 27118835.92 22270286.92 L 33689629.00 28841080.00 L 33714437.00 28857656.00 L 33743701.00 28863477.00 L 34466815.40 28863477.00 L 34467505.00 28868715.00 A 315695.14 315695.14 0 1 0 34467505.00 28705301.00  zM 34772441.92 28787005.47 m -208737.53 0 a 208737.53 208737.53 0 1 1 417475.06 0a 208737.53 208737.53 0 1 1 -417475.06 0"/>
<path id="N" d="M 34469168.06 29701286.00 L 34266124.00 29701286.00 L 26726981.59 22162143.59 L 26740674.00 22093307.00 L 26740674.00 21089371.00 A 190667.29 190667.29 0 1 0 26359330.00 21089371.00 L 26359330.00 22093307.00 A 190667.29 190667.29 0 0 0 26618836.92 22270286.92 L 34180377.00 29831827.00 L 34205185.00 29848403.00 L 34234449.00 29854224.00 L 34465597.21 29854224.00 L 34467505.00 29868715.00 A 315695.14 315695.14 0 1 0 34469168.06 29701286.00  zM 34772441.92 29787005.47 m -208737.53 0 a 208737.53 208737.53 0 1 1 417475.06 0a 208737.53 208737.53 0 1 1 -417475.06 0"/>
<path id="N" d="M 37689407.00 13717286.00 L 15802719.00 13717286.00 L 15802719.00 39147281.00 L 37689407.00 39147281.00 L 37689407.00 13717286.00  zM 17100000.00 14850014.21 m -693878.11 0 a 693878.11 693878.11 0 1 1 1387756.22 0a 693878.11 693878.11 0 1 1 -1387756.22 0M 21798469.59 21549999.98 L 21694937.43 21549999.97 L 21718349.00 21462626.00 L 21765205.00 21381469.00 L 21831469.00 21315205.00 L 21912626.00 21268349.00 L 22000000.03 21244937.42 L 22000000.02 21348469.59 L 21983195.00 21350682.00 A 258122.37 258122.37 0 0 0 21800682.00 21533195.00 L 21798469.59 21549999.98  zM 22049998.59 21600001.48 m -160563.52 0 a 160563.52 160563.52 0 1 1 321127.04 0a 160563.52 160563.52 0 1 1 -321127.04 0M 22405062.58 21550000.03 L 22301530.41 21550000.02 L 22299318.00 21533195.00 A 258122.37 258122.37 0 0 0 22116805.00 21350682.00 L 22100000.02 21348469.59 L 22100000.03 21244937.43 L 22187374.00 21268349.00 L 22268531.00 21315205.00 L 22334795.00 21381469.00 L 22381651.00 21462626.00 L 22405062.58 21550000.03  zM 34463330.80 16737007.00 L 34359449.00 16737007.00 L 34359449.00 16732637.00 A 416536.95 416536.95 0 0 1 34718070.00 16374016.00 L 34722440.00 16374016.00 L 34722440.00 16477897.80 L 34690734.00 16482072.00 A 315709.31 315709.31 0 0 0 34467505.00 16705301.00 L 34463330.80 16737007.00  zM 34722440.00 17200000.00 L 34718070.00 17200000.00 A 416536.95 416536.95 0 0 1 34359449.00 16841379.00 L 34359449.00 16837007.00 L 34463330.54 16837007.00 L 34467505.00 16868715.00 A 315695.14 315695.14 0 0 0 34690734.00 17091944.00 L 34722440.00 17096118.20 L 34722440.00 17200000.00  zM 34772441.00 20786997.08 m -416566.46 0 a 416566.46 416566.46 0 1 1 833132.93 0a 416566.46 416566.46 0 1 1 -833132.93 0M 34772441.92 16787005.47 m -208737.53 0 a 208737.53 208737.53 0 1 1 417475.06 0a 208737.53 208737.53 0 1 1 -417475.06 0M 35185433.00 16737007.00 L 35081551.20 16737007.00 L 35077377.00 16705301.00 A 315695.14 315695.14 0 0 0 34854148.00 16482072.00 L 34822440.00 16477897.54 L 34822440.00 16374016.00 L 34826812.00 16374016.00 A 416536.95 416536.95 0 0 1 35185433.00 16732637.00 L 35185433.00 16737007.00  zM 34826812.00 17200000.00 L 34822440.00 17200000.00 L 34822440.00 17096118.46 L 34854148.00 17091944.00 A 315709.31 315709.31 0 0 0 35077377.00 16868715.00 L 35081551.46 16837007.00 L 35185433.00 16837007.00 L 35185433.00 16841379.00 A 416536.95 416536.95 0 0 1 34826812.00 17200000.00  zM 34772441.00 17786997.08 m -416566.46 0 a 416566.46 416566.46 0 1 1 833132.93 0a 416566.46 416566.46 0 1 1 -833132.93 0M 34772441.00 18786997.08 m -416566.46 0 a 416566.46 416566.46 0 1 1 833132.93 0a 416566.46 416566.46 0 1 1 -833132.93 0M 34772441.00 19786997.08 m -416566.46 0 a 416566.46 416566.46 0 1 1 833132.93 0a 416566.46 416566.46 0 1 1 -833132.93 0M 35772441.00 16782273.08 m -416566.46 0 a 416566.46 416566.46 0 1 1 833132.93 0a 416566.46 416566.46 0 1 1 -833132.93 0M 35772441.00 17782273.08 m -416566.46 0 a 416566.46 416566.46 0 1 1 833132.93 0a 416566.46 416566.46 0 1 1 -833132.93 0M 35772441.00 18782273.08 m -416566.46 0 a 416566.46 416566.46 0 1 1 833132.93 0a 416566.46 416566.46 0 1 1 -833132.93 0M 35463330.80 19732283.00 L 35359449.00 19732283.00 L 35359449.00 19727913.00 A 416536.95 416536.95 0 0 1 35718070.00 19369292.00 L 35722440.00 19369292.00 L 35722440.00 19473173.80 L 35690734.00 19477348.00 A 315709.31 315709.31 0 0 0 35467505.00 19700577.00 L 35463330.80 19732283.00  zM 35772441.92 19782281.47 m -208737.53 0 a 208737.53 208737.53 0 1 1 417475.06 0a 208737.53 208737.53 0 1 1 -417475.06 0M 36185433.00 19732283.00 L 36081551.20 19732283.00 L 36077377.00 19700577.00 A 315695.14 315695.14 0 0 0 35854148.00 19477348.00 L 35822440.00 19473173.54 L 35822440.00 19369292.00 L 35826812.00 19369292.00 A 416536.95 416536.95 0 0 1 36185433.00 19727913.00 L 36185433.00 19732283.00  zM 35722440.00 20195276.00 L 35718070.00 20195276.00 A 416536.95 416536.95 0 0 1 35359449.00 19836655.00 L 35359449.00 19832283.00 L 35463330.54 19832283.00 L 35467505.00 19863991.00 A 315695.14 315695.14 0 0 0 35690734.00 20087220.00 L 35722440.00 20091394.20 L 35722440.00 20195276.00  zM 35826812.00 20195276.00 L 35822440.00 20195276.00 L 35822440.00 20091394.46 L 35854148.00 20087220.00 A 315709.31 315709.31 0 0 0 36077377.00 19863991.00 L 36081551.46 19832283.00 L 36185433.00 19832283.00 L 36185433.00 19836655.00 A 416536.95 416536.95 0 0 1 35826812.00 20195276.00  zM 35772441.00 20782273.08 m -416566.46 0 a 416566.46 416566.46 0 1 1 833132.93 0a 416566.46 416566.46 0 1 1 -833132.93 0M 35463330.80 21732283.00 L 35359449.00 21732283.00 L 35359449.00 21727913.00 A 416536.95 416536.95 0 0 1 35718070.00 21369292.00 L 35722440.00 21369292.00 L 35722440.00 21473173.80 L 35690734.00 21477348.00 A 315709.31 315709.31 0 0 0 35467505.00 21700577.00 L 35463330.80 21732283.00  zM 35772441.92 21782281.47 m -208737.53 0 a 208737.53 208737.53 0 1 1 417475.06 0a 208737.53 208737.53 0 1 1 -417475.06 0M 36185433.00 21732283.00 L 36081551.20 21732283.00 L 36077377.00 21700577.00 A 315695.14 315695.14 0 0 0 35854148.00 21477348.00 L 35822440.00 21473173.54 L 35822440.00 21369292.00 L 35826812.00 21369292.00 A 416536.95 416536.95 0 0 1 36185433.00 21727913.00 L 36185433.00 21732283.00  zM 21999999.97 21955062.57 L 21912626.00 21931651.00 L 21831469.00 21884795.00 L 21765205.00 21818531.00 L 21718349.00 21737374.00 L 21694937.42 21649999.97 L 21798469.59 21649999.98 L 21800682.00 21666805.00 A 258122.37 258122.37 0 0 0 21983195.00 21849318.00 L 21999999.98 21851530.41 L 21999999.97 21955062.57  zM 22099999.97 21955062.58 L 22099999.98 21851530.41 L 22116805.00 21849318.00 A 258122.37 258122.37 0 0 0 22299318.00 21666805.00 L 22301530.41 21650000.02 L 22405062.57 21650000.03 L 22381651.00 21737374.00 L 22334795.00 21818531.00 L 22268531.00 21884795.00 L 22187374.00 21931651.00 L 22099999.97 21955062.58  zM 34772441.00 21786997.08 m -416566.46 0 a 416566.46 416566.46 0 1 1 833132.93 0a 416566.46 416566.46 0 1 1 -833132.93 0M 35722440.00 22195276.00 L 35718070.00 22195276.00 A 416536.95 416536.95 0 0 1 35359449.00 21836655.00 L 35359449.00 21832283.00 L 35463330.54 21832283.00 L 35467505.00 21863991.00 A 315695.14 315695.14 0 0 0 35690734.00 22087220.00 L 35722440.00 22091394.20 L 35722440.00 22195276.00  zM 35826812.00 22195276.00 L 35822440.00 22195276.00 L 35822440.00 22091394.46 L 35854148.00 22087220.00 A 315709.31 315709.31 0 0 0 36077377.00 21863991.00 L 36081551.46 21832283.00 L 36185433.00 21832283.00 L 36185433.00 21836655.00 A 416536.95 416536.95 0 0 1 35826812.00 22195276.00  zM 34359449.00 30732637.00 L 34378872.88 30660143.91 L 26076577.52 22357849.50 L 26050003.00 22361348.00 A 268033.96 268033.96 0 0 1 25781962.00 22093307.00 L 25781962.00 21089371.00 A 268033.96 268033.96 0 0 1 26239537.00 20899837.00 L 26270195.82 20939792.94 L 26282098.48 20943676.68 L 26317906.52 20943676.68 L 26329809.18 20939792.94 L 26360468.00 20899837.00 A 268067.42 268067.42 0 0 1 26739536.00 20899837.00 L 26770194.82 20939792.94 L 26782097.48 20943676.68 L 26817905.52 20943676.68 L 26829808.18 20939792.94 L 26860467.00 20899837.00 A 268053.24 268053.24 0 0 1 27239535.00 20899837.00 L 27270193.82 20939792.94 L 27282096.48 20943676.68 L 27317904.52 20943676.68 L 27329807.18 20939792.94 L 27360466.00 20899837.00 A 268067.42 268067.42 0 0 1 27739534.00 20899837.00 L 27770192.82 20939792.94 L 27782095.48 20943676.68 L 27817903.52 20943676.68 L 27829806.18 20939792.94 L 27860465.00 20899837.00 A 268053.24 268053.24 0 0 1 28239533.00 20899837.00 L 28270191.82 20939792.94 L 28282094.48 20943676.68 L 28317902.52 20943676.68 L 28329805.18 20939792.94 L 28360464.00 20899837.00 L 28371570.00 20891315.34 L 28371570.00 20250002.00 L 28385152.00 20181720.00 L 28423830.00 20123834.00 L 32923832.00 15623832.00 L 32981718.00 15585154.00 L 33050005.03 15571572.00 L 36222988.60 15571572.00 L 36227913.28 15521571.87 L 36189913.00 15514013.00 A 693897.10 693897.10 0 1 1 36459352.00 15540551.00 L 36384676.43 15540551.00 L 36379594.38 15554378.01 L 36376359.70 15590551.32 L 36426168.00 15623832.00 L 37076168.00 16273832.00 L 37114846.00 16331718.00 L 37128428.00 16400005.03 L 37128429.00 21604725.00 L 37114846.00 21673007.00 L 37076168.00 21730893.00 L 36162972.87 22644088.13 L 36185433.00 22727913.00 A 416566.46 416566.46 0 1 1 35826812.00 22369292.00 L 35910636.87 22391752.13 L 36771572.00 21530817.00 L 36771572.00 16473908.00 L 36226092.00 15928428.00 L 33123908.00 15928428.00 L 29359951.53 19692384.47 L 29371517.04 19715107.94 L 29389426.16 19733620.97 L 29450001.00 19721572.00 L 30700000.00 19721572.00 L 30768282.00 19735154.00 L 30826168.00 19773832.00 L 31319278.00 20266942.00 L 31357956.00 20324828.00 L 31371538.00 20393115.03 L 31371538.00 21319202.00 L 34513863.00 24461527.00 L 34518858.00 24456532.00 A 416536.95 416536.95 0 1 1 34359449.00 24841379.00 L 34359449.00 24799736.45 L 34323139.00 24775475.00 L 31066942.00 21519278.00 L 31028264.00 21461392.00 L 31014682.00 21393110.00 L 31014682.00 20467018.00 L 30626092.00 20078428.00 L 29523909.00 20078428.00 L 29228425.00 20373912.00 L 29228425.00 20891315.19 L 29239531.00 20899837.00 L 29270189.82 20939792.94 L 29282092.48 20943676.68 L 29317900.52 20943676.68 L 29329803.18 20939792.94 L 29360462.00 20899837.00 A 268067.42 268067.42 0 0 1 29739530.00 20899837.00 L 29770188.82 20939792.94 L 29782091.48 20943676.68 L 29817899.52 20943676.68 L 29829802.18 20939792.94 L 29860461.00 20899837.00 A 268053.24 268053.24 0 0 1 30318036.00 21089371.00 L 30318036.00 22093307.00 L 30316208.86 22107185.90 L 30373473.24 22164450.30 L 30415169.00 22228132.00 L 30478850.67 22269827.75 L 33817602.01 25608580.00 L 34398573.75 25608580.00 L 34441965.00 25533425.00 A 416564.38 416564.38 0 1 1 34441965.00 26040591.00 L 34398573.75 25965436.00 L 33745171.22 25965436.00 L 33742095.93 25968697.72 L 33720908.16 26011884.16 L 34308357.00 26599333.00 L 34403912.57 26599333.00 L 34441965.00 26533425.00 A 416564.38 416564.38 0 1 1 34441965.00 27040591.00 L 34393234.93 26956189.00 L 34234449.00 26956190.00 L 34166167.00 26942607.00 L 34108281.00 26903929.00 L 29563873.10 22359521.10 L 29549996.00 22361348.00 A 268026.63 268026.63 0 0 1 29360462.00 22282841.00 L 29329803.18 22242885.06 L 29317900.52 22239001.32 L 29282092.48 22239001.32 L 29270189.82 22242885.06 L 29239531.00 22282841.00 A 268053.24 268053.24 0 0 1 28860463.00 22282841.00 L 28829804.18 22242885.06 L 28817901.52 22239001.32 L 28782093.48 22239001.32 L 28770190.82 22242885.06 L 28739532.00 22282841.00 A 268067.42 268067.42 0 0 1 28360464.00 22282841.00 L 28329805.18 22242885.06 L 28317902.52 22239001.32 L 28282094.48 22239001.32 L 28270191.82 22242885.06 L 28239533.00 22282841.00 A 268053.24 268053.24 0 0 1 27860465.00 22282841.00 L 27829806.18 22242885.06 L 27817903.52 22239001.32 L 27782095.48 22239001.32 L 27770192.82 22242885.06 L 27739534.00 22282841.00 L 27684020.00 22325437.00 L 27628270.27 22348529.94 L 27607438.46 22398409.52 L 33817608.01 28608580.00 L 34398573.75 28608580.00 L 34441965.00 28533425.00 A 416564.38 416564.38 0 1 1 34441965.00 29040591.00 L 34398573.75 28965436.00 L 33745177.22 28965436.00 L 33742100.08 28968700.34 L 33720913.10 29011883.10 L 34308357.00 29599327.00 L 34403916.03 29599327.00 L 34441965.00 29533425.00 A 416564.38 416564.38 0 1 1 34441965.00 30040591.00 L 34393231.47 29956183.00 L 34250293.34 29956183.00 L 34228936.89 29997352.45 L 34227970.25 30004571.18 L 34622911.82 30399512.79 L 34718070.00 30374016.00 A 416566.46 416566.46 0 1 1 34359449.00 30732637.00  zM 21798469.59 23099999.98 L 21694937.43 23099999.97 L 21718349.00 23012626.00 L 21765205.00 22931469.00 L 21831469.00 22865205.00 L 21912626.00 22818349.00 L 22000000.03 22794937.42 L 22000000.02 22898469.59 L 21983195.00 22900682.00 A 258122.37 258122.37 0 0 0 21800682.00 23083195.00 L 21798469.59 23099999.98  zM 22049998.59 23150001.48 m -160563.52 0 a 160563.52 160563.52 0 1 1 321127.04 0a 160563.52 160563.52 0 1 1 -321127.04 0M 21999999.97 23505062.57 L 21912626.00 23481651.00 L 21831469.00 23434795.00 L 21765205.00 23368531.00 L 21718349.00 23287374.00 L 21694937.42 23199999.97 L 21798469.59 23199999.98 L 21800682.00 23216805.00 A 258122.37 258122.37 0 0 0 21983195.00 23399318.00 L 21999999.98 23401530.41 L 21999999.97 23505062.57  zM 22405062.58 23100000.03 L 22301530.41 23100000.02 L 22299318.00 23083195.00 A 258122.37 258122.37 0 0 0 22116805.00 22900682.00 L 22100000.02 22898469.59 L 22100000.03 22794937.43 L 22187374.00 22818349.00 L 22268531.00 22865205.00 L 22334795.00 22931469.00 L 22381651.00 23012626.00 L 22405062.58 23100000.03  zM 22099999.97 23505062.58 L 22099999.98 23401530.41 L 22116805.00 23399318.00 A 258122.37 258122.37 0 0 0 22299318.00 23216805.00 L 22301530.41 23200000.02 L 22405062.57 23200000.03 L 22381651.00 23287374.00 L 22334795.00 23368531.00 L 22268531.00 23434795.00 L 22187374.00 23481651.00 L 22099999.97 23505062.58  zM 34772441.00 22786997.08 m -416566.46 0 a 416566.46 416566.46 0 1 1 833132.93 0a 416566.46 416566.46 0 1 1 -833132.93 0M 31400000.00 28704496.00 L 31150000.00 28704496.00 L 31052609.00 28685124.00 L 30970044.00 28629956.00 L 25070155.00 22560690.00 L 25058170.07 22542191.74 L 25006039.43 22478670.68 L 24993550.00 22466215.00 L 24881449.48 22298938.12 L 24860471.00 22282841.00 A 268053.24 268053.24 0 0 1 24781964.00 22093307.00 L 24781964.00 21854496.00 L 23405905.00 21854496.00 L 23405905.00 21955905.00 L 23304496.00 21955905.00 L 23304496.00 22794095.00 L 23405905.00 22794095.00 L 23405905.00 23505905.00 L 22694095.00 23505905.00 L 22694095.00 22794095.00 L 22795504.00 22794095.00 L 22795504.00 21955905.00 L 22694095.00 21955905.00 L 22694095.00 21244095.00 L 23405905.00 21244095.00 L 23405905.00 21345504.00 L 24781964.00 21345504.00 L 24781964.00 21089371.00 A 268033.96 268033.96 0 0 1 25318046.00 21089371.00 L 25318046.00 22036130.55 L 25360585.33 22099607.92 L 25373846.00 22166274.00 L 25415179.00 22228132.00 L 25477037.00 22269465.00 L 25501671.17 22274365.03 L 31257532.25 28195504.00 L 31400000.00 28195504.00 A 254495.31 254495.31 0 0 1 31400000.00 28704496.00  zM 34722440.00 24200000.00 L 34718070.00 24200000.00 A 416536.95 416536.95 0 0 1 34359449.00 23841379.00 L 34359449.00 23837007.00 L 34463330.54 23837007.00 L 34467505.00 23868715.00 A 315695.14 315695.14 0 0 0 34690734.00 24091944.00 L 34722440.00 24096118.20 L 34722440.00 24200000.00  zM 34463330.80 23737007.00 L 34359449.00 23737007.00 L 34359449.00 23732637.00 A 416536.95 416536.95 0 0 1 34718070.00 23374016.00 L 34722440.00 23374016.00 L 34722440.00 23477897.80 L 34690734.00 23482072.00 A 315709.31 315709.31 0 0 0 34467505.00 23705301.00 L 34463330.80 23737007.00  zM 34772441.92 23787005.47 m -208737.53 0 a 208737.53 208737.53 0 1 1 417475.06 0a 208737.53 208737.53 0 1 1 -417475.06 0M 35185433.00 23737007.00 L 35081551.20 23737007.00 L 35077377.00 23705301.00 A 315695.14 315695.14 0 0 0 34854148.00 23482072.00 L 34822440.00 23477897.54 L 34822440.00 23374016.00 L 34826812.00 23374016.00 A 416536.95 416536.95 0 0 1 35185433.00 23732637.00 L 35185433.00 23737007.00  zM 34826812.00 24200000.00 L 34822440.00 24200000.00 L 34822440.00 24096118.46 L 34854148.00 24091944.00 A 315709.31 315709.31 0 0 0 35077377.00 23868715.00 L 35081551.46 23837007.00 L 35185433.00 23837007.00 L 35185433.00 23841379.00 A 416536.95 416536.95 0 0 1 34826812.00 24200000.00  zM 35772441.00 23782273.08 m -416566.46 0 a 416566.46 416566.46 0 1 1 833132.93 0a 416566.46 416566.46 0 1 1 -833132.93 0M 35772441.00 24782273.08 m -416566.46 0 a 416566.46 416566.46 0 1 1 833132.93 0a 416566.46 416566.46 0 1 1 -833132.93 0M 35772441.00 25782273.08 m -416566.46 0 a 416566.46 416566.46 0 1 1 833132.93 0a 416566.46 416566.46 0 1 1 -833132.93 0M 35463330.80 26732283.00 L 35359449.00 26732283.00 L 35359449.00 26727913.00 A 416536.95 416536.95 0 0 1 35718070.00 26369292.00 L 35722440.00 26369292.00 L 35722440.00 26473173.80 L 35690734.00 26477348.00 A 315709.31 315709.31 0 0 0 35467505.00 26700577.00 L 35463330.80 26732283.00  zM 35772441.92 26782281.47 m -208737.53 0 a 208737.53 208737.53 0 1 1 417475.06 0a 208737.53 208737.53 0 1 1 -417475.06 0M 36185433.00 26732283.00 L 36081551.20 26732283.00 L 36077377.00 26700577.00 A 315695.14 315695.14 0 0 0 35854148.00 26477348.00 L 35822440.00 26473173.54 L 35822440.00 26369292.00 L 35826812.00 26369292.00 A 416536.95 416536.95 0 0 1 36185433.00 26727913.00 L 36185433.00 26732283.00  zM 35722440.00 27195276.00 L 35718070.00 27195276.00 A 416536.95 416536.95 0 0 1 35359449.00 26836655.00 L 35359449.00 26832283.00 L 35463330.54 26832283.00 L 35467505.00 26863991.00 A 315695.14 315695.14 0 0 0 35690734.00 27087220.00 L 35722440.00 27091394.20 L 35722440.00 27195276.00  zM 34772441.00 27786997.08 m -416566.46 0 a 416566.46 416566.46 0 1 1 833132.93 0a 416566.46 416566.46 0 1 1 -833132.93 0M 35826812.00 27195276.00 L 35822440.00 27195276.00 L 35822440.00 27091394.46 L 35854148.00 27087220.00 A 315709.31 315709.31 0 0 0 36077377.00 26863991.00 L 36081551.46 26832283.00 L 36185433.00 26832283.00 L 36185433.00 26836655.00 A 416536.95 416536.95 0 0 1 35826812.00 27195276.00  zM 35772441.00 27782273.08 m -416566.46 0 a 416566.46 416566.46 0 1 1 833132.93 0a 416566.46 416566.46 0 1 1 -833132.93 0M 35772441.00 28782273.08 m -416566.46 0 a 416566.46 416566.46 0 1 1 833132.93 0a 416566.46 416566.46 0 1 1 -833132.93 0M 35463330.80 29732283.00 L 35359449.00 29732283.00 L 35359449.00 29727913.00 A 416536.95 416536.95 0 0 1 35718070.00 29369292.00 L 35722440.00 29369292.00 L 35722440.00 29473173.80 L 35690734.00 29477348.00 A 315709.31 315709.31 0 0 0 35467505.00 29700577.00 L 35463330.80 29732283.00  zM 36185433.00 29732283.00 L 36081551.20 29732283.00 L 36077377.00 29700577.00 A 315695.14 315695.14 0 0 0 35854148.00 29477348.00 L 35822440.00 29473173.54 L 35822440.00 29369292.00 L 35826812.00 29369292.00 A 416536.95 416536.95 0 0 1 36185433.00 29727913.00 L 36185433.00 29732283.00  zM 35722440.00 30195276.00 L 35718070.00 30195276.00 A 416536.95 416536.95 0 0 1 35359449.00 29836655.00 L 35359449.00 29832283.00 L 35463330.54 29832283.00 L 35467505.00 29863991.00 A 315695.14 315695.14 0 0 0 35690734.00 30087220.00 L 35722440.00 30091394.20 L 35722440.00 30195276.00  zM 35772441.92 29782281.47 m -208737.53 0 a 208737.53 208737.53 0 1 1 417475.06 0a 208737.53 208737.53 0 1 1 -417475.06 0M 35826812.00 30195276.00 L 35822440.00 30195276.00 L 35822440.00 30091394.46 L 35854148.00 30087220.00 A 315709.31 315709.31 0 0 0 36077377.00 29863991.00 L 36081551.46 29832283.00 L 36185433.00 29832283.00 L 36185433.00 29836655.00 A 416536.95 416536.95 0 0 1 35826812.00 30195276.00  zM 34463330.80 31737007.00 L 34359449.00 31737007.00 L 34359449.00 31732637.00 A 416536.95 416536.95 0 0 1 34718070.00 31374016.00 L 34722440.00 31374016.00 L 34722440.00 31477897.80 L 34690734.00 31482072.00 A 315709.31 315709.31 0 0 0 34467505.00 31705301.00 L 34463330.80 31737007.00  zM 35185433.00 31737007.00 L 35081551.20 31737007.00 L 35077377.00 31705301.00 A 315695.14 315695.14 0 0 0 34854148.00 31482072.00 L 34822440.00 31477897.54 L 34822440.00 31374016.00 L 34826812.00 31374016.00 A 416536.95 416536.95 0 0 1 35185433.00 31732637.00 L 35185433.00 31737007.00  zM 35772441.00 30782273.08 m -416566.46 0 a 416566.46 416566.46 0 1 1 833132.93 0a 416566.46 416566.46 0 1 1 -833132.93 0M 32745669.00 35232759.00 L 29392199.00 35232759.00 L 29323917.00 35219177.00 L 29266031.00 35180499.00 L 29178163.00 35092631.00 L 29139485.00 35034745.00 L 29125903.00 34966463.00 L 29125903.00 34724067.71 L 29072679.00 34683227.00 A 327599.99 327599.99 0 0 1 28976725.00 34451575.00 L 28976725.00 33565749.00 A 327604.72 327604.72 0 0 1 29631937.00 33565749.00 L 29631937.00 34451575.00 A 327604.72 327604.72 0 0 1 29535983.00 34683227.00 L 29482759.00 34724067.71 L 29482759.00 34875903.00 L 32671761.04 34875903.00 L 33886824.00 33660840.00 L 33944711.00 33622162.00 L 34012992.00 33608580.00 L 34398573.75 33608580.00 L 34441965.00 33533425.00 A 416564.38 416564.38 0 1 1 34441965.00 34040591.00 L 34398573.75 33965436.00 L 34086899.04 33965436.00 L 32871837.00 35180499.00 L 32813951.00 35219177.00 L 32745669.00 35232759.00  zM 29764126.00 34451575.00 L 29764126.00 33565749.00 A 327604.72 327604.72 0 0 1 30375447.00 33401946.00 L 30400454.85 33462320.00 L 32485344.06 33462320.00 L 33286824.00 32660840.00 L 33344710.00 32622162.00 L 33412997.03 32608580.00 L 34398573.75 32608580.00 L 34441965.00 32533425.00 A 416564.38 416564.38 0 1 1 34441965.00 33040591.00 L 34398573.75 32965436.00 L 33486899.06 32965436.00 L 32685420.00 33766916.00 L 32627534.00 33805594.00 L 32559252.00 33819176.00 L 30419338.00 33819176.00 L 30419338.00 34451575.00 A 327604.72 327604.72 0 0 1 29764126.00 34451575.00  zM 34722440.00 32200000.00 L 34718070.00 32200000.00 A 416536.95 416536.95 0 0 1 34359449.00 31841379.00 L 34359449.00 31837007.00 L 34463330.54 31837007.00 L 34467505.00 31868715.00 A 315695.14 315695.14 0 0 0 34690734.00 32091944.00 L 34722440.00 32096118.20 L 34722440.00 32200000.00  zM 34772441.92 31787005.47 m -208737.53 0 a 208737.53 208737.53 0 1 1 417475.06 0a 208737.53 208737.53 0 1 1 -417475.06 0M 34826812.00 32200000.00 L 34822440.00 32200000.00 L 34822440.00 32096118.46 L 34854148.00 32091944.00 A 315709.31 315709.31 0 0 0 35077377.00 31868715.00 L 35081551.46 31837007.00 L 35185433.00 31837007.00 L 35185433.00 31841379.00 A 416536.95 416536.95 0 0 1 34826812.00 32200000.00  zM 35722440.00 34195276.00 L 35718070.00 34195276.00 A 416536.95 416536.95 0 0 1 35359449.00 33836655.00 L 35359449.00 33832283.00 L 35463330.54 33832283.00 L 35467505.00 33863991.00 A 315695.14 315695.14 0 0 0 35690734.00 34087220.00 L 35722440.00 34091394.20 L 35722440.00 34195276.00  zM 35772441.00 31782273.08 m -416566.46 0 a 416566.46 416566.46 0 1 1 833132.93 0a 416566.46 416566.46 0 1 1 -833132.93 0M 35772441.00 32782273.08 m -416566.46 0 a 416566.46 416566.46 0 1 1 833132.93 0a 416566.46 416566.46 0 1 1 -833132.93 0M 35463330.80 33732283.00 L 35359449.00 33732283.00 L 35359449.00 33727913.00 A 416536.95 416536.95 0 0 1 35718070.00 33369292.00 L 35722440.00 33369292.00 L 35722440.00 33473173.80 L 35690734.00 33477348.00 A 315709.31 315709.31 0 0 0 35467505.00 33700577.00 L 35463330.80 33732283.00  zM 35772441.92 33782281.47 m -208737.53 0 a 208737.53 208737.53 0 1 1 417475.06 0a 208737.53 208737.53 0 1 1 -417475.06 0M 36185433.00 33732283.00 L 36081551.20 33732283.00 L 36077377.00 33700577.00 A 315695.14 315695.14 0 0 0 35854148.00 33477348.00 L 35822440.00 33473173.54 L 35822440.00 33369292.00 L 35826812.00 33369292.00 A 416536.95 416536.95 0 0 1 36185433.00 33727913.00 L 36185433.00 33732283.00  zM 35826812.00 34195276.00 L 35822440.00 34195276.00 L 35822440.00 34091394.46 L 35854148.00 34087220.00 A 315709.31 315709.31 0 0 0 36077377.00 33863991.00 L 36081551.46 33832283.00 L 36185433.00 33832283.00 L 36185433.00 33836655.00 A 416536.95 416536.95 0 0 1 35826812.00 34195276.00  zM 17100000.00 37684660.21 m -693878.11 0 a 693878.11 693878.11 0 1 1 1387756.22 0a 693878.11 693878.11 0 1 1 -1387756.22 0M 25673621.99 36962165.00 L 25663329.00 36962165.00 A 615129.69 615129.69 0 0 1 25111457.00 36410293.00 L 25111457.00 36399999.99 L 25213620.55 36399999.99 L 25224640.00 36483702.00 A 516583.01 516583.01 0 0 0 25589920.00 36848982.00 L 25673621.99 36860001.45 L 25673621.99 36962165.00  zM 25673621.99 38962165.00 L 25663329.00 38962165.00 A 615129.69 615129.69 0 0 1 25111457.00 38410293.00 L 25111457.00 38399999.99 L 25213620.55 38399999.99 L 25224640.00 38483702.00 A 516583.01 516583.01 0 0 0 25589920.00 38848982.00 L 25673621.99 38860001.45 L 25673621.99 38962165.00  zM 25213620.55 36299999.99 L 25111457.00 36299999.99 L 25111457.00 36289707.00 A 615129.69 615129.69 0 0 1 25663329.00 35737835.00 L 25673622.01 35737835.00 L 25673622.01 35839998.55 L 25589920.00 35851018.00 A 516583.01 516583.01 0 0 0 25224640.00 36216298.00 L 25213620.55 36299999.99  zM 25213620.55 38299999.99 L 25111457.00 38299999.99 L 25111457.00 38289707.00 A 615129.69 615129.69 0 0 1 25663329.00 37737835.00 L 25673622.01 37737835.00 L 25673622.01 37839998.55 L 25589920.00 37851018.00 A 516583.01 516583.01 0 0 0 25224640.00 38216298.00 L 25213620.55 38299999.99  zM 25723618.81 38350011.25 m -337879.75 0 a 337879.75 337879.75 0 1 1 675759.50 0a 337879.75 337879.75 0 1 1 -675759.50 0M 26335787.00 38300000.01 L 26233623.45 38300000.01 L 26222604.00 38216298.00 A 516583.01 516583.01 0 0 0 25857324.00 37851018.00 L 25773622.01 37839998.55 L 25773622.01 37737835.00 L 25783915.00 37737835.00 L 25902184.00 37761360.00 L 26013591.00 37807506.00 L 26116141.57 37876787.57 L 26166142.00 37856076.72 L 26166142.00 36843923.28 L 26116141.57 36823212.43 L 26013591.00 36892494.00 L 25902184.00 36938640.00 L 25783915.00 36962165.00 L 25773621.99 36962165.00 L 25773621.99 36860001.45 L 25857324.00 36848982.00 A 516583.01 516583.01 0 0 0 26222604.00 36483702.00 L 26233623.45 36400000.01 L 26299004.61 36400000.01 L 26301907.00 36414591.00 L 26323661.00 36447148.00 L 26327893.59 36449976.14 L 26312262.00 36528562.00 L 26266116.00 36639969.00 L 26196834.43 36742519.57 L 26217545.28 36792520.00 L 26494974.00 36792520.00 L 26494974.00 34856347.00 L 26497062.10 34845849.49 L 26489141.72 34765431.05 L 26436637.15 34742462.91 L 26374942.00 34768018.00 A 327605.76 327605.76 0 0 1 25962545.00 34451575.00 L 25962545.00 33565749.00 A 327604.72 327604.72 0 0 1 26617757.00 33565749.00 L 26617757.00 34018174.37 L 26717128.00 34134523.00 A 1227986.37 1227986.37 0 0 1 26936544.00 34664239.00 L 26952270.00 34856347.00 L 26952270.00 36792520.00 L 27229698.72 36792520.00 L 27250409.57 36742519.57 L 27212286.43 36686600.60 L 27205365.00 36651805.00 L 27183611.00 36619248.00 L 27168310.42 36609024.43 L 27134982.00 36528562.00 L 27123583.00 36470450.00 L 27145337.00 36437893.00 L 27152874.55 36399999.99 L 27213620.55 36399999.99 L 27224640.00 36483702.00 A 516583.01 516583.01 0 0 0 27589920.00 36848982.00 L 27673621.99 36860001.45 L 27673621.99 36962165.00 L 27663329.00 36962165.00 L 27545060.00 36938640.00 L 27433653.00 36892494.00 L 27331102.43 36823212.43 L 27281102.00 36843923.28 L 27281102.00 37856076.72 L 27331102.43 37876787.57 L 27416720.98 37818819.68 L 27421817.00 37817806.00 L 27443069.03 37803605.78 L 27545060.00 37761360.00 L 27663329.00 37737835.00 L 27673622.01 37737835.00 L 27673622.01 37839998.55 L 27589920.00 37851018.00 A 516583.01 516583.01 0 0 0 27224640.00 38216298.00 L 27213620.55 38299999.99 L 27111457.00 38299999.99 L 27111457.00 38289707.00 L 27134982.00 38171438.00 L 27181128.00 38060031.00 L 27250409.57 37957480.43 L 27229698.72 37907480.00 L 26217545.28 37907480.00 L 26196834.43 37957480.43 L 26266116.00 38060031.00 L 26312262.00 38171438.00 L 26335787.00 38289707.00 L 26335787.00 38300000.01  zM 27213620.55 36299999.99 L 27111457.00 36299999.99 L 27111457.00 36289707.00 A 615129.69 615129.69 0 0 1 27663329.00 35737835.00 L 27673622.01 35737835.00 L 27673622.01 35839998.55 L 27589920.00 35851018.00 A 516583.01 516583.01 0 0 0 27224640.00 36216298.00 L 27213620.55 36299999.99  zM 26331485.21 36300000.01 L 26233623.45 36300000.01 L 26222604.00 36216298.00 A 516583.01 516583.01 0 0 0 25857324.00 35851018.00 L 25773622.01 35839998.55 L 25773622.01 35737835.00 L 25783915.00 35737835.00 A 615129.69 615129.69 0 0 1 26335787.00 36289707.00 L 26335787.00 36297125.63 L 26331485.21 36300000.01  zM 25723618.81 36350011.25 m -337879.75 0 a 337879.75 337879.75 0 1 1 675759.50 0a 337879.75 337879.75 0 1 1 -675759.50 0M 27673621.99 38962165.00 L 27663329.00 38962165.00 A 615129.69 615129.69 0 0 1 27111457.00 38410293.00 L 27111457.00 38399999.99 L 27213620.55 38399999.99 L 27224640.00 38483702.00 A 516583.01 516583.01 0 0 0 27589920.00 38848982.00 L 27673621.99 38860001.45 L 27673621.99 38962165.00  zM 25783915.00 38962165.00 L 25773621.99 38962165.00 L 25773621.99 38860001.45 L 25857324.00 38848982.00 A 516583.01 516583.01 0 0 0 26222604.00 38483702.00 L 26233623.45 38400000.01 L 26335787.00 38400000.01 L 26335787.00 38410293.00 A 615129.69 615129.69 0 0 1 25783915.00 38962165.00  zM 27723618.81 36350011.25 m -337879.75 0 a 337879.75 337879.75 0 1 1 675759.50 0a 337879.75 337879.75 0 1 1 -675759.50 0M 28335787.00 36300000.01 L 28233623.45 36300000.01 L 28222604.00 36216298.00 A 516583.01 516583.01 0 0 0 27857324.00 35851018.00 L 27773622.01 35839998.55 L 27773622.01 35737835.00 L 27783915.00 35737835.00 A 615129.69 615129.69 0 0 1 28335787.00 36289707.00 L 28335787.00 36300000.01  zM 27783915.00 36962165.00 L 27773621.99 36962165.00 L 27773621.99 36860001.45 L 27857324.00 36848982.00 A 516583.01 516583.01 0 0 0 28222604.00 36483702.00 L 28233623.45 36400000.01 L 28335787.00 36400000.01 L 28335787.00 36410293.00 A 615129.69 615129.69 0 0 1 27783915.00 36962165.00  zM 27723618.81 38350011.25 m -337879.75 0 a 337879.75 337879.75 0 1 1 675759.50 0a 337879.75 337879.75 0 1 1 -675759.50 0M 28335787.00 38300000.01 L 28233623.45 38300000.01 L 28222604.00 38216298.00 A 516583.01 516583.01 0 0 0 27857324.00 37851018.00 L 27773622.01 37839998.55 L 27773622.01 37737835.00 L 27783915.00 37737835.00 A 615129.69 615129.69 0 0 1 28335787.00 38289707.00 L 28335787.00 38300000.01  zM 27783915.00 38962165.00 L 27773621.99 38962165.00 L 27773621.99 38860001.45 L 27857324.00 38848982.00 A 516583.01 516583.01 0 0 0 28222604.00 38483702.00 L 28233623.45 38400000.01 L 28335787.00 38400000.01 L 28335787.00 38410293.00 A 615129.69 615129.69 0 0 1 27783915.00 38962165.00  zM 28800000.00 35900002.06 m -202310.31 0 a 202310.31 202310.31 0 1 1 404620.63 0a 202310.31 202310.31 0 1 1 -404620.63 0M 35185433.00 36200000.00 L 34359449.00 36200000.00 L 34359449.00 35374016.00 L 35185433.00 35374016.00 L 35185433.00 36200000.00  zM 34772441.00 34786997.08 m -416566.46 0 a 416566.46 416566.46 0 1 1 833132.93 0a 416566.46 416566.46 0 1 1 -833132.93 0M 35772441.00 34782273.08 m -416566.46 0 a 416566.46 416566.46 0 1 1 833132.93 0a 416566.46 416566.46 0 1 1 -833132.93 0M 36185433.00 36195276.00 L 35359449.00 36195276.00 L 35359449.00 35369292.00 L 36185433.00 35369292.00 L 36185433.00 36195276.00  zM 36391339.00 37684660.21 m -693878.11 0 a 693878.11 693878.11 0 1 1 1387756.22 0a 693878.11 693878.11 0 1 1 -1387756.22 0"/>
<path id="N" d="M 35772433.64 16782268.96 m -315709.31 0 a 315709.31 315709.31 0 1 1 631418.63 0a 315709.31 315709.31 0 1 1 -631418.63 0M 35772441.92 16782281.47 m -208737.53 0 a 208737.53 208737.53 0 1 1 417475.06 0a 208737.53 208737.53 0 1 1 -417475.06 0"/>
<path id="N" d="M 34549212.00 24563779.00 L 34536916.34 24579803.14 L 34505940.00 24572838.00 L 34480982.00 24572838.00 L 31269579.00 21361435.00 L 31269579.00 20393110.00 L 31263758.00 20363846.00 L 31247182.00 20339038.00 L 30754072.00 19845928.00 L 30729264.00 19829352.00 L 30700000.00 19823531.00 L 29450001.00 19823531.00 L 29420737.00 19829352.00 L 29395929.00 19845928.00 L 28995925.00 20245932.00 L 28979349.00 20270740.00 L 28973528.00 20300004.00 L 28973528.00 20915553.01 L 28915172.00 20954546.00 L 28873839.00 21016404.00 L 28859325.00 21089371.00 L 28859325.00 22093307.00 A 190667.29 190667.29 0 0 0 29240669.00 22093307.00 L 29240669.00 21089371.00 A 190667.29 190667.29 0 0 0 29126466.00 20915553.01 L 29126466.00 20331679.00 L 29481676.00 19976469.00 L 30668325.00 19976469.00 L 31116641.00 20424785.00 L 31116641.00 21393110.00 L 31122462.00 21422374.00 L 31139038.00 21447182.00 L 34395235.00 24703379.00 L 34420043.00 24719955.00 L 34449307.00 24725776.00 L 34464809.40 24725776.00 L 34456748.00 24787008.00 A 315697.91 315697.91 0 1 0 34549212.00 24563779.00  zM 34772441.92 24787005.47 m -208737.53 0 a 208737.53 208737.53 0 1 1 417475.06 0a 208737.53 208737.53 0 1 1 -417475.06 0"/>
<path id="N" d="M 32799741.00 35108403.00 L 34044666.02 33863477.00 L 34466815.40 33863477.00 L 34467505.00 33868715.00 A 315695.14 315695.14 0 1 0 34467505.00 33705301.00 L 34466815.40 33710539.00 L 34012992.00 33710539.00 L 33983729.00 33716360.00 L 33958917.99 33732939.01 L 32713994.02 34977862.00 L 29423874.00 34977862.00 L 29380800.00 34934788.00 L 29380800.00 34687248.67 L 29400340.00 34683362.00 A 250884.37 250884.37 0 0 0 29555215.00 34451575.00 L 29555215.00 33565749.00 A 250882.20 250882.20 0 0 0 29053447.00 33565749.00 L 29053447.00 34451575.00 A 250882.20 250882.20 0 0 0 29208322.00 34683362.00 L 29227862.00 34687248.67 L 29227862.00 34966463.00 L 29233683.00 34995727.00 L 29250259.00 35020535.00 L 29338127.00 35108403.00 L 29362935.00 35124979.00 L 29392199.00 35130800.00 L 32745669.00 35130800.00 L 32774933.00 35124979.00 L 32799741.00 35108403.00  zM 34772441.92 33787005.47 m -208737.53 0 a 208737.53 208737.53 0 1 1 417475.06 0a 208737.53 208737.53 0 1 1 -417475.06 0"/>
<path id="N" d="M 36045839.00 22624437.00 L 36042623.09 22620245.91 L 37004072.00 21658797.00 L 37020648.00 21633989.00 L 37026469.00 21604725.00 L 37026469.00 16400000.00 L 37020648.00 16370737.00 L 37004072.00 16345928.00 L 36354072.00 15695928.00 L 36329264.00 15679352.00 L 36300000.00 15673531.00 L 33050000.00 15673531.00 L 33020736.00 15679352.00 L 32995928.00 15695928.00 L 28495926.00 20195930.00 L 28479350.00 20220738.00 L 28473529.00 20250002.00 L 28473529.00 20915553.01 L 28415173.00 20954546.00 L 28373840.00 21016404.00 L 28359326.00 21089371.00 L 28359326.00 22093307.00 A 190667.29 190667.29 0 0 0 28740670.00 22093307.00 L 28740670.00 21089371.00 A 190667.29 190667.29 0 0 0 28626467.00 20915553.01 L 28626467.00 20281677.00 L 33081675.00 15826469.00 L 36268325.00 15826469.00 L 36873531.00 16431675.00 L 36873531.00 21573050.00 L 35934478.68 22512102.32 L 35930287.00 22508886.00 A 315690.57 315690.57 0 1 0 36045839.00 22624437.00  zM 35772441.92 22782281.47 m -208737.53 0 a 208737.53 208737.53 0 1 1 417475.06 0a 208737.53 208737.53 0 1 1 -417475.06 0"/>
<path id="N" d="M 35772433.64 24782268.96 m -315709.31 0 a 315709.31 315709.31 0 1 1 631418.63 0a 315709.31 315709.31 0 1 1 -631418.63 0M 35772441.92 24782281.47 m -208737.53 0 a 208737.53 208737.53 0 1 1 417475.06 0a 208737.53 208737.53 0 1 1 -417475.06 0"/>
<path id="N" d="M 35772433.64 28782268.96 m -315709.31 0 a 315709.31 315709.31 0 1 1 631418.63 0a 315709.31 315709.31 0 1 1 -631418.63 0M 35772441.92 28782281.47 m -208737.53 0 a 208737.53 208737.53 0 1 1 417475.06 0a 208737.53 208737.53 0 1 1 -417475.06 0"/>
<path id="N" d="M 35772433.64 32782268.96 m -315709.31 0 a 315709.31 315709.31 0 1 1 631418.63 0a 315709.31 315709.31 0 1 1 -631418.63 0M 35772441.92 32782281.47 m -208737.53 0 a 208737.53 208737.53 0 1 1 417475.06 0a 208737.53 208737.53 0 1 1 -417475.06 0"/>
<path id="N" d="M 35772433.64 31782268.96 m -315709.31 0 a 315709.31 315709.31 0 1 1 631418.63 0a 315709.31 315709.31 0 1 1 -631418.63 0M 35772441.92 31782281.47 m -208737.53 0 a 208737.53 208737.53 0 1 1 417475.06 0a 208737.53 208737.53 0 1 1 -417475.06 0"/>
<path id="N" d="M 34469165.57 26701292.00 L 34266124.00 26701292.00 L 29726975.59 22162143.59 L 29740668.00 22093307.00 L 29740668.00 21089371.00 A 190667.29 190667.29 0 0 0 29359324.00 21089371.00 L 29359324.00 22093307.00 A 190667.29 190667.29 0 0 0 29618830.92 22270286.92 L 34180377.00 26831833.00 L 34205185.00 26848409.00 L 34234449.00 26854230.00 L 34465598.00 26854230.00 L 34467505.00 26868715.00 A 315695.14 315695.14 0 1 0 34469165.57 26701292.00  zM 34772441.92 26787005.47 m -208737.53 0 a 208737.53 208737.53 0 1 1 417475.06 0a 208737.53 208737.53 0 1 1 -417475.06 0"/>
<path id="N" d="M 35772433.64 27782268.96 m -315709.31 0 a 315709.31 315709.31 0 1 1 631418.63 0a 315709.31 315709.31 0 1 1 -631418.63 0M 35772441.92 27782281.47 m -208737.53 0 a 208737.53 208737.53 0 1 1 417475.06 0a 208737.53 208737.53 0 1 1 -417475.06 0"/>
<path id="N" d="M 34614595.00 30513610.00 L 34602272.88 30523064.88 L 26229366.55 22150158.55 L 26240675.00 22093307.00 L 26240675.00 21089371.00 A 190667.29 190667.29 0 1 0 25859331.00 21089371.00 L 25859331.00 22093307.00 A 190667.29 190667.29 0 0 0 26122970.00 22269465.00 L 26128613.84 22265693.84 L 34497003.89 30634083.89 L 34467505.00 30705301.00 A 315689.64 315689.64 0 1 0 34614595.00 30513610.00  zM 34772441.92 30787005.47 m -208737.53 0 a 208737.53 208737.53 0 1 1 417475.06 0a 208737.53 208737.53 0 1 1 -417475.06 0"/>
<path id="N" d="M 30342616.00 34451575.00 L 30342616.00 33717217.00 L 32559252.00 33717217.00 L 32588516.00 33711396.00 L 32613324.00 33694820.00 L 33444667.00 32863477.00 L 34466815.40 32863477.00 L 34467505.00 32868715.00 A 315695.14 315695.14 0 1 0 34467505.00 32705301.00 L 34466815.40 32710539.00 L 33412992.00 32710538.00 L 33383729.00 32716360.00 L 33358920.00 32732936.00 L 32527577.00 33564279.00 L 30342323.60 33564279.00 A 248961.86 248961.86 0 0 0 29840848.00 33565749.00 L 29840848.00 34451575.00 A 250882.20 250882.20 0 0 0 30342616.00 34451575.00  zM 34772441.92 32787005.47 m -208737.53 0 a 208737.53 208737.53 0 1 1 417475.06 0a 208737.53 208737.53 0 1 1 -417475.06 0"/>
<path id="N" d="M 34467505.00 25705301.00 L 34466815.40 25710539.00 L 33775369.01 25710539.00 L 30226974.58 22162143.62 L 30240667.00 22093307.00 L 30240667.00 21089371.00 A 190667.29 190667.29 0 1 0 29859323.00 21089371.00 L 29859323.00 22093307.00 A 190667.29 190667.29 0 0 0 30118829.95 22270286.91 L 33689623.00 25841080.00 L 33714432.00 25857656.00 L 33743700.03 25863477.00 L 34466815.40 25863477.00 L 34467505.00 25868715.00 A 315695.14 315695.14 0 1 0 34467505.00 25705301.00  zM 34772441.92 25787005.47 m -208737.53 0 a 208737.53 208737.53 0 1 1 417475.06 0a 208737.53 208737.53 0 1 1 -417475.06 0"/>
<path id="N" d="M 35772433.64 17782268.96 m -315709.31 0 a 315709.31 315709.31 0 1 1 631418.63 0a 315709.31 315709.31 0 1 1 -631418.63 0M 35772441.92 17782281.47 m -208737.53 0 a 208737.53 208737.53 0 1 1 417475.06 0a 208737.53 208737.53 0 1 1 -417475.06 0"/>
<path id="N" d="M 31400000.00 28297463.00 L 31214451.98 28297463.00 L 25362012.00 22276639.00 L 25332951.00 22238766.00 L 25331677.00 22239619.00 L 25239063.18 22101420.25 L 25240677.00 22093307.00 L 25240677.00 21089371.00 A 190667.29 190667.29 0 0 0 24859333.00 21089371.00 L 24859333.00 21447463.00 L 23305905.00 21447463.00 L 23305905.00 21344095.00 L 22794095.00 21344095.00 L 22794095.00 21855905.00 L 22897463.00 21855905.00 L 22897463.00 22894095.00 L 22794095.00 22894095.00 L 22794095.00 23405905.00 L 23305905.00 23405905.00 L 23305905.00 22894095.00 L 23202537.00 22894095.00 L 23202537.00 21855905.00 L 23305905.00 21855905.00 L 23305905.00 21752537.00 L 24859333.00 21752537.00 L 24859333.00 22093307.00 A 190667.29 190667.29 0 0 0 24977038.00 22269465.00 L 24985572.26 22271162.57 L 25078248.00 22409454.00 L 25087726.38 22418906.74 L 25143434.30 22489797.19 L 31040624.00 28556323.00 L 31089638.00 28590085.00 L 31147841.00 28602522.00 L 31400000.00 28602537.00 A 152536.45 152536.45 0 0 0 31400000.00 28297463.00  zM 23049998.59 21600001.48 m -160563.52 0 a 160563.52 160563.52 0 1 1 321127.04 0a 160563.52 160563.52 0 1 1 -321127.04 0M 23049998.59 23150001.48 m -160563.52 0 a 160563.52 160563.52 0 1 1 321127.04 0a 160563.52 160563.52 0 1 1 -321127.04 0"/>
<path id="N" d="M 34772433.64 27786992.96 m -315709.31 0 a 315709.31 315709.31 0 1 1 631418.63 0a 315709.31 315709.31 0 1 1 -631418.63 0M 34772441.92 27787005.47 m -208737.53 0 a 208737.53 208737.53 0 1 1 417475.06 0a 208737.53 208737.53 0 1 1 -417475.06 0"/>
<path id="N" d="M 35085433.00 35474016.00 L 34459449.00 35474016.00 L 34459449.00 36100000.00 L 35085433.00 36100000.00 L 35085433.00 35474016.00  zM 34772441.92 35787005.47 m -208737.53 0 a 208737.53 208737.53 0 1 1 417475.06 0a 208737.53 208737.53 0 1 1 -417475.06 0"/>
<path id="N" d="M 35772433.64 23782268.96 m -315709.31 0 a 315709.31 315709.31 0 1 1 631418.63 0a 315709.31 315709.31 0 1 1 -631418.63 0M 35772441.92 23782281.47 m -208737.53 0 a 208737.53 208737.53 0 1 1 417475.06 0a 208737.53 208737.53 0 1 1 -417475.06 0"/>
<path id="N" d="M 36391340.79 14850002.99 m -593404.85 0 a 593404.85 593404.85 0 1 1 1186809.70 0a 593404.85 593404.85 0 1 1 -1186809.70 0M 36391340.69 14849992.57 m -436815.43 0 a 436815.43 436815.43 0 1 1 873630.85 0a 436815.43 436815.43 0 1 1 -873630.85 0"/>
<path id="N" d="M 17100001.79 37684648.99 m -593404.85 0 a 593404.85 593404.85 0 1 1 1186809.70 0a 593404.85 593404.85 0 1 1 -1186809.70 0M 17100001.69 37684638.57 m -436815.43 0 a 436815.43 436815.43 0 1 1 873630.85 0a 436815.43 436815.43 0 1 1 -873630.85 0"/>
<path id="N" d="M 36391340.79 37684648.99 m -593404.85 0 a 593404.85 593404.85 0 1 1 1186809.70 0a 593404.85 593404.85 0 1 1 -1186809.70 0M 36391340.69 37684638.57 m -436815.43 0 a 436815.43 436815.43 0 1 1 873630.85 0a 436815.43 436815.43 0 1 1 -873630.85 0"/>
<path id="N" d="M 17100001.79 14850002.99 m -593404.85 0 a 593404.85 593404.85 0 1 1 1186809.70 0a 593404.85 593404.85 0 1 1 -1186809.70 0M 17100001.69 14849992.57 m -436815.43 0 a 436815.43 436815.43 0 1 1 873630.85 0a 436815.43 436815.43 0 1 1 -873630.85 0"/>
<path id="N" d="M 34772433.64 20786992.96 m -315709.31 0 a 315709.31 315709.31 0 1 1 631418.63 0a 315709.31 315709.31 0 1 1 -631418.63 0M 34772441.92 20787005.47 m -208737.53 0 a 208737.53 208737.53 0 1 1 417475.06 0a 208737.53 208737.53 0 1 1 -417475.06 0"/>
<path id="N" d="M 34772433.64 19786992.96 m -315709.31 0 a 315709.31 315709.31 0 1 1 631418.63 0a 315709.31 315709.31 0 1 1 -631418.63 0M 34772441.92 19787005.47 m -208737.53 0 a 208737.53 208737.53 0 1 1 417475.06 0a 208737.53 208737.53 0 1 1 -417475.06 0"/>
<path id="N" d="M 34772433.64 18786992.96 m -315709.31 0 a 315709.31 315709.31 0 1 1 631418.63 0a 315709.31 315709.31 0 1 1 -631418.63 0M 34772441.92 18787005.47 m -208737.53 0 a 208737.53 208737.53 0 1 1 417475.06 0a 208737.53 208737.53 0 1 1 -417475.06 0"/>
<path id="N" d="M 34772433.64 17786992.96 m -315709.31 0 a 315709.31 315709.31 0 1 1 631418.63 0a 315709.31 315709.31 0 1 1 -631418.63 0M 34772441.92 17787005.47 m -208737.53 0 a 208737.53 208737.53 0 1 1 417475.06 0a 208737.53 208737.53 0 1 1 -417475.06 0"/>
<path id="N" d="M 34772433.64 22786992.96 m -315709.31 0 a 315709.31 315709.31 0 1 1 631418.63 0a 315709.31 315709.31 0 1 1 -631418.63 0M 34772441.92 22787005.47 m -208737.53 0 a 208737.53 208737.53 0 1 1 417475.06 0a 208737.53 208737.53 0 1 1 -417475.06 0"/>
<path id="N" d="M 34772433.64 34786992.96 m -315709.31 0 a 315709.31 315709.31 0 1 1 631418.63 0a 315709.31 315709.31 0 1 1 -631418.63 0M 34772441.92 34787005.47 m -208737.53 0 a 208737.53 208737.53 0 1 1 417475.06 0a 208737.53 208737.53 0 1 1 -417475.06 0"/>
<path id="N" d="M 34772433.64 21786992.96 m -315709.31 0 a 315709.31 315709.31 0 1 1 631418.63 0a 315709.31 315709.31 0 1 1 -631418.63 0M 34772441.92 21787005.47 m -208737.53 0 a 208737.53 208737.53 0 1 1 417475.06 0a 208737.53 208737.53 0 1 1 -417475.06 0"/>
<path id="N" d="M 28240671.00 22093307.00 L 28240671.00 21089371.00 A 190667.29 190667.29 0 0 0 27859327.00 21089371.00 L 27859327.00 22093307.00 A 190667.29 190667.29 0 0 0 28240671.00 22093307.00  z"/>
<path id="N" d="M 27740672.00 22093307.00 L 27740672.00 21089371.00 A 190667.29 190667.29 0 0 0 27359328.00 21089371.00 L 27359328.00 22093307.00 A 190667.29 190667.29 0 0 0 27740672.00 22093307.00  z"/>
<path id="N" d="M 28799998.47 35899998.47 m -100354.75 0 a 100354.75 100354.75 0 1 1 200709.51 0a 100354.75 100354.75 0 1 1 -200709.51 0"/>
<path id="N" d="M 27172375.00 16291981.00 L 27182678.00 16267106.00 L 27182678.00 16032894.00 L 27172375.00 16008019.00 L 27147500.00 15997716.00 L 26952500.00 15997716.00 L 26927625.00 16008019.00 L 26917322.00 16032894.00 L 26917322.00 16267106.00 L 26927625.00 16291981.00 L 26952500.00 16302284.00 L 27147500.00 16302284.00 L 27172375.00 16291981.00  z"/>
<path id="N" d="M 26621193.00 16291981.00 L 26631496.00 16267106.00 L 26631496.00 16032894.00 L 26621193.00 16008019.00 L 26596318.00 15997716.00 L 26401318.00 15997716.00 L 26376443.00 16008019.00 L 26366140.00 16032894.00 L 26366140.00 16267106.00 L 26376443.00 16291981.00 L 26401318.00 16302284.00 L 26596318.00 16302284.00 L 26621193.00 16291981.00  z"/>
<path id="N" d="M 35772433.64 34782268.96 m -315709.31 0 a 315709.31 315709.31 0 1 1 631418.63 0a 315709.31 315709.31 0 1 1 -631418.63 0M 35772441.92 34782281.47 m -208737.53 0 a 208737.53 208737.53 0 1 1 417475.06 0a 208737.53 208737.53 0 1 1 -417475.06 0"/>
<path id="N" d="M 36085433.00 35469292.00 L 35459449.00 35469292.00 L 35459449.00 36095276.00 L 36085433.00 36095276.00 L 36085433.00 35469292.00  zM 35772441.92 35782281.47 m -208737.53 0 a 208737.53 208737.53 0 1 1 417475.06 0a 208737.53 208737.53 0 1 1 -417475.06 0"/>
<path id="N" d="M 35772433.64 20782268.96 m -315709.31 0 a 315709.31 315709.31 0 1 1 631418.63 0a 315709.31 315709.31 0 1 1 -631418.63 0M 35772441.92 20782281.47 m -208737.53 0 a 208737.53 208737.53 0 1 1 417475.06 0a 208737.53 208737.53 0 1 1 -417475.06 0"/>
</g>
</svg>
