<svg width="55.99999976mm" height="64.99999954mm" viewBox="0 0 22047244 25590551"  version="1.1" xmlns="http://www.w3.org/2000/svg" xmlns:xlink="http://www.w3.org/1999/xlink">
<desc>
Origin 0 0 Bound 15722441 13637008 22047244 25590551
</desc>
<g fill-rule="evenodd" fill="rgb(255, 255, 0)" stroke="black" stroke-width="1" transform="translate(0, 25590551) scale(1, -1) translate(-15722441, -13637008)">
<path id="N" d="M 23580133.00 22256117.00 L 23592614.00 22225984.00 L 23592614.00 20974016.00 L 23580133.00 20943883.00 L 23550000.00 20931402.00 L 21550000.00 20931402.00 L 21519867.00 20943883.00 L 21507386.00 20974016.00 L 21507386.00 22225984.00 L 21519867.00 22256117.00 L 21550000.00 22268598.00 L 23550000.00 22268598.00 L 23580133.00 22256117.00  zM 23126929.00 22183370.00 L 22945847.15 22183370.00 L 22949314.00 22175000.00 L 22933463.00 22136731.00 L 22895194.00 22120880.00 L 22849346.00 22120880.00 L 22849346.00 21705852.00 L 22856925.00 21713431.00 A 54121.84 54121.84 0 1 0 22933463.00 21636893.00 L 22833495.00 21536925.00 A 54119.43 54119.43 0 0 0 22741106.00 21575196.41 L 22741106.00 22120880.00 L 22695259.00 22120880.00 L 22656990.00 22136731.00 L 22641139.00 22175000.00 L 22644605.85 22183370.00 L 21592614.00 22183370.00 L 21592614.00 21016630.00 L 23507386.00 21016630.00 L 23507386.00 21611010.00 L 23433301.00 21536925.00 L 23395029.59 21521074.00 L 23195097.00 21521074.00 L 23156828.00 21536925.00 L 23056860.00 21636893.00 A 54119.43 54119.43 0 1 0 23133398.00 21713431.00 L 23217515.00 21629314.00 L 23372614.00 21629314.00 L 23440880.00 21697580.00 L 23440880.00 22052614.00 L 23372614.00 22120880.00 L 23217515.00 22120880.00 L 23133398.00 22036763.00 A 54121.84 54121.84 0 0 0 23056860.00 22113301.00 L 23126929.00 22183370.00  zM 23507386.00 22183370.00 L 23463200.00 22183370.00 L 23507386.00 22139184.00 L 23507386.00 22183370.00  z"/>
<path id="N" d="M 27577117.00 35493269.00 L 27677085.00 35393301.00 A 54121.84 54121.84 0 0 0 27600547.00 35316763.00 L 27516430.00 35400880.00 L 27361331.00 35400880.00 L 27293065.00 35332614.00 L 27293065.00 35277483.00 L 27361331.00 35209217.00 L 27438881.00 35209217.00 A 54118.70 54118.70 0 1 0 27438881.00 35100977.00 L 27361331.00 35100977.00 L 27293065.00 35032711.00 L 27293065.00 34977580.00 L 27361331.00 34909314.00 L 27516430.00 34909314.00 L 27600547.00 34993431.00 A 54119.43 54119.43 0 0 0 27677085.00 34916893.00 L 27577117.00 34816925.00 L 27538848.00 34801074.00 L 27338913.00 34801073.00 L 27300644.00 34816925.00 L 27200676.00 34916893.00 L 27184825.00 34955162.00 L 27184824.00 35055129.00 L 27200676.00 35093398.00 L 27262375.00 35155097.00 L 27200676.00 35216796.00 L 27184825.00 35255065.00 L 27184824.00 35355032.00 L 27200676.00 35393301.00 L 27300644.00 35493269.00 L 27338913.00 35509120.00 L 27538848.00 35509121.00 L 27577117.00 35493269.00  z"/>
<path id="N" d="M 26727581.00 17333074.00 L 26827549.00 17233106.00 L 26843400.00 17194837.00 L 26843401.00 16994902.00 L 26827549.00 16956633.00 L 26727581.00 16856665.00 L 26711013.32 16849802.68 L 26827548.00 16733268.00 A 54118.22 54118.22 0 1 0 26751011.00 16656731.00 L 26566926.16 16840814.00 L 26443529.00 16840814.00 L 26443529.00 16694999.00 A 54118.70 54118.70 0 0 0 26335289.00 16694999.00 L 26335289.00 17294805.00 L 26351140.00 17333074.00 L 26389409.00 17348925.00 L 26689312.00 17348926.00 L 26727581.00 17333074.00  zM 26666894.00 17240685.00 L 26443529.00 17240685.00 L 26443529.00 16949054.00 L 26666894.00 16949054.00 L 26735160.00 17017320.00 L 26735160.00 17172419.00 L 26666894.00 17240685.00  z"/>
<path id="N" d="M 23195099.41 20679120.00 L 23395032.00 20679120.00 L 23433301.00 20663269.00 L 23533269.00 20563301.00 L 23549120.00 20525029.59 L 23549120.00 20125162.00 L 23533269.00 20086893.00 L 23433301.00 19986925.00 L 23395029.59 19971074.00 L 23195097.00 19971074.00 L 23156828.00 19986925.00 L 23056860.00 20086893.00 A 54119.43 54119.43 0 1 0 23133398.00 20163431.00 L 23217515.00 20079314.00 L 23372614.00 20079314.00 L 23440880.00 20147580.00 L 23440880.00 20502614.00 L 23372614.00 20570880.00 L 23217515.00 20570880.00 L 23133398.00 20486763.00 A 54121.84 54121.84 0 1 0 23056860.00 20563301.00 L 23156828.00 20663269.00 L 23195099.41 20679120.00  z"/>
<path id="N" d="M 22933463.00 20586731.00 L 22549443.00 20202711.00 L 22549443.00 20147580.00 L 22617709.00 20079314.00 L 22772808.00 20079314.00 L 22856925.00 20163431.00 A 54121.84 54121.84 0 1 0 22933463.00 20086893.00 L 22833495.00 19986925.00 L 22795223.59 19971074.00 L 22595291.00 19971074.00 L 22557022.00 19986925.00 L 22457054.00 20086893.00 L 22441203.00 20125164.41 L 22441202.00 20225129.00 L 22457054.00 20263398.00 L 22764536.00 20570880.00 L 22495323.00 20570880.00 A 54118.70 54118.70 0 0 0 22495323.00 20679120.00 L 22895194.00 20679121.00 A 54119.43 54119.43 0 0 0 22933463.00 20586731.00  z"/>
<path id="N" d="M 28176923.00 35493269.00 L 28276891.00 35393301.00 A 54121.84 54121.84 0 0 0 28200353.00 35316763.00 L 28116236.00 35400880.00 L 28061105.00 35400880.00 L 27992839.00 35332614.00 L 27992839.00 34909314.00 L 28038687.00 34909314.00 A 54118.70 54118.70 0 0 0 28038687.00 34801074.00 L 27838751.00 34801074.00 A 54118.70 54118.70 0 0 0 27838751.00 34909314.00 L 27884599.00 34909314.00 L 27884598.00 35355032.00 L 27900450.00 35393301.00 L 28000418.00 35493269.00 L 28038687.00 35509120.00 L 28138654.00 35509121.00 L 28176923.00 35493269.00  z"/>
<path id="N" d="M 24659056.00 35534806.00 L 24659056.00 35034968.00 L 24643205.00 34996699.00 L 24543237.00 34896731.00 L 24504965.59 34880880.00 L 24305033.00 34880880.00 L 24266764.00 34896731.00 L 24166796.00 34996699.00 L 24150945.00 35034970.41 L 24150945.00 35534806.00 A 54118.70 54118.70 0 1 0 24259185.00 35534806.00 L 24259185.00 35057386.00 L 24327451.00 34989120.00 L 24482550.00 34989120.00 L 24550816.00 35057386.00 L 24550816.00 35534806.00 A 54118.70 54118.70 0 0 0 24659056.00 35534806.00  z"/>
<path id="N" d="M 27143303.00 17294802.59 L 27143303.00 16749119.00 L 27189150.00 16749119.00 A 54118.70 54118.70 0 0 0 27189150.00 16640879.00 L 26989215.00 16640879.00 A 54118.70 54118.70 0 1 0 26989215.00 16749119.00 L 27035063.00 16749119.00 L 27035063.00 17164147.00 L 27027484.00 17156568.00 A 54121.84 54121.84 0 1 0 26950946.00 17233106.00 L 27050914.00 17333074.00 A 54119.43 54119.43 0 0 0 27143303.00 17294802.59  z"/>
<path id="N" d="M 24958959.00 35534803.59 L 24958959.00 34989120.00 L 25004806.00 34989120.00 A 54118.70 54118.70 0 0 0 25004806.00 34880880.00 L 24804871.00 34880880.00 A 54118.70 54118.70 0 0 0 24804871.00 34989120.00 L 24850719.00 34989120.00 L 24850719.00 35404148.00 L 24843140.00 35396569.00 A 54121.84 54121.84 0 0 0 24766602.00 35473107.00 L 24866570.00 35573075.00 A 54119.43 54119.43 0 0 0 24958959.00 35534803.59  z"/>
<path id="N" d="M 27999255.00 41980133.00 L 28011736.00 41950000.00 L 28011736.00 39009803.00 L 27999255.00 38979670.00 L 27969122.00 38967189.00 L 27938989.00 38979670.00 L 27926508.00 39009803.00 L 27926508.00 41907386.00 L 25520736.00 41907386.00 L 25520736.00 39009803.00 L 25508255.00 38979670.00 L 25478122.00 38967189.00 L 25447989.00 38979670.00 L 25435508.00 39009803.00 L 25435508.00 41950000.00 L 25447989.00 41980133.00 L 25478122.00 41992614.00 L 27969122.00 41992614.00 L 27999255.00 41980133.00  z"/>
<path id="N" d="M 28239368.47 37333856.47 m -100354.75 0 a 100354.75 100354.75 0 1 1 200709.51 0a 100354.75 100354.75 0 1 1 -200709.51 0"/>
<path id="N" d="M 24399998.47 21349998.47 m -100354.75 0 a 100354.75 100354.75 0 1 1 200709.51 0a 100354.75 100354.75 0 1 1 -200709.51 0"/>
<path id="N" d="M 23580133.00 23806117.00 L 23592614.00 23775984.00 L 23592614.00 22524016.00 L 23580133.00 22493883.00 L 23550000.00 22481402.00 L 21550000.00 22481402.00 L 21519867.00 22493883.00 L 21507386.00 22524016.00 L 21507386.00 23775984.00 L 21519867.00 23806117.00 L 21550000.00 23818598.00 L 23550000.00 23818598.00 L 23580133.00 23806117.00  zM 23507386.00 23733370.00 L 21592614.00 23733370.00 L 21592614.00 22566630.00 L 23507386.00 22566630.00 L 23507386.00 23733370.00  z"/>
<path id="N" d="M 31455322.00 34109661.00 L 31467803.00 34079528.00 L 31467803.00 31313780.00 L 31455322.00 31283647.00 L 31425189.00 31271166.00 L 31395056.00 31283647.00 L 31382575.00 31313780.00 L 31382575.00 34055766.36 L 31372733.00 34079528.00 L 31385214.00 34109661.00 L 31415347.00 34122142.00 L 31425189.00 34122142.00 L 31455322.00 34109661.00  z"/>
<path id="N" d="M 31305322.00 24386827.00 L 31317803.00 24356694.00 L 31317803.00 21590946.00 L 31305322.00 21560813.00 L 31275189.00 21548332.00 L 31265347.00 21548332.00 L 31235214.00 21560813.00 L 31222733.00 21590946.00 L 31232575.00 21614707.64 L 31232575.00 24356694.00 L 31245056.00 24386827.00 L 31275189.00 24399308.00 L 31305322.00 24386827.00  z"/>
<path id="N" d="M 24416740.00 24386827.00 L 24429221.00 24356694.00 L 24429221.00 21614707.64 L 24439063.00 21590946.00 L 24426582.00 21560813.00 L 24396449.00 21548332.00 L 24386607.00 21548332.00 L 24356474.00 21560813.00 L 24343993.00 21590946.00 L 24343993.00 24356694.00 L 24356474.00 24386827.00 L 24386607.00 24399308.00 L 24416740.00 24386827.00  z"/>
<path id="N" d="M 24676582.00 34059661.00 L 24689063.00 34029528.00 L 24679221.00 34005766.36 L 24679221.00 31263780.00 L 24666740.00 31233647.00 L 24636607.00 31221166.00 L 24606474.00 31233647.00 L 24593993.00 31263780.00 L 24593993.00 34029528.00 L 24606474.00 34059661.00 L 24636607.00 34072142.00 L 24646449.00 34072142.00 L 24676582.00 34059661.00  z"/>
<path id="N" d="M 26804542.00 16298242.00 L 26817023.00 16268109.00 L 26817023.00 16031889.00 L 26804542.00 16001756.00 L 26774409.00 15989275.00 L 26744276.00 16001756.00 L 26731795.00 16031889.00 L 26731795.00 16268109.00 L 26744276.00 16298242.00 L 26774409.00 16310723.00 L 26804542.00 16298242.00  z"/>
<path id="N" d="M 25508255.00 37720330.00 L 25520736.00 37690197.00 L 25520736.00 37009803.00 L 25508255.00 36979670.00 L 25478122.00 36967189.00 L 25447989.00 36979670.00 L 25435508.00 37009803.00 L 25435508.00 37690197.00 L 25447989.00 37720330.00 L 25478122.00 37732811.00 L 25508255.00 37720330.00  z"/>
<path id="N" d="M 27093952.00 35980133.00 L 27106433.00 35950000.00 L 27093952.00 35919867.00 L 27063819.00 35907386.00 L 26383425.00 35907386.00 L 26353292.00 35919867.00 L 26340811.00 35950000.00 L 26353292.00 35980133.00 L 26383425.00 35992614.00 L 27063819.00 35992614.00 L 27093952.00 35980133.00  z"/>
<path id="N" d="M 27999255.00 37720330.00 L 28011736.00 37690197.00 L 28011736.00 37009803.00 L 27999255.00 36979670.00 L 27969122.00 36967189.00 L 27938989.00 36979670.00 L 27926508.00 37009803.00 L 27926508.00 37690197.00 L 27938989.00 37720330.00 L 27969122.00 37732811.00 L 27999255.00 37720330.00  z"/>
</g>
</svg>
