<svg width="55.99999976mm" height="64.99999954mm" viewBox="0 0 22047244 25590551"  version="1.1" xmlns="http://www.w3.org/2000/svg" xmlns:xlink="http://www.w3.org/1999/xlink">
<desc>
Origin 0 0 Bound 15722441 13637008 22047244 25590551
</desc>
<g fill-rule="evenodd" fill="rgb(128, 128, 0)" stroke="black" stroke-width="1" transform="translate(0, 25590551) scale(1, -1) translate(-15722441, -13637008)">
<path id="N" d="M 35283846.20 36474504.00 L 36272441.00 36474504.00 L 36302574.00 36462023.00 L 36315055.00 36431890.00 L 36315055.00 16132678.00 L 36302574.00 16102545.00 L 36272441.00 16090064.00 L 35272441.00 16090064.00 L 35261035.80 16094788.00 L 34272441.00 16094788.00 L 34242308.00 16107269.00 L 34229827.00 16137402.00 L 34229827.00 36436614.00 L 34242308.00 36466747.00 L 34272441.00 36479228.00 L 35272441.00 36479228.00 L 35283846.20 36474504.00  zM 36229827.00 35239670.00 L 35315055.00 35239670.00 L 35315055.00 16175292.00 L 36229827.00 16175292.00 L 36229827.00 35239670.00  zM 35229827.00 35244394.00 L 34315055.00 35244394.00 L 34315055.00 16180016.00 L 35229827.00 16180016.00 L 35229827.00 35244394.00  zM 35229827.00 36394000.00 L 34315055.00 36394000.00 L 34315055.00 35329622.00 L 35229827.00 35329622.00 L 35229827.00 36394000.00  zM 36229827.00 36389276.00 L 35315055.00 36389276.00 L 35315055.00 35324898.00 L 36229827.00 35324898.00 L 36229827.00 36389276.00  z"/>
<path id="N" d="M 35397411.41 15811404.00 L 35497376.00 15811404.00 L 35535645.00 15795553.00 L 35635613.00 15695585.00 L 35651464.00 15657313.59 L 35651464.00 15211598.00 L 35697312.00 15211598.00 A 54118.70 54118.70 0 0 0 35697312.00 15103358.00 L 35497376.00 15103358.00 A 54118.70 54118.70 0 0 0 35497376.00 15211598.00 L 35543224.00 15211598.00 L 35543224.00 15634898.00 L 35474958.00 15703164.00 L 35419827.00 15703164.00 L 35335710.00 15619047.00 A 54121.84 54121.84 0 1 0 35259172.00 15695585.00 L 35359140.00 15795553.00 L 35397411.41 15811404.00  z"/>
<path id="N" d="M 34497379.41 15816128.00 L 34597344.00 15816128.00 L 34635613.00 15800277.00 L 34735581.00 15700309.00 L 34751432.00 15662037.59 L 34751432.00 15216322.00 L 34797280.00 15216322.00 A 54118.70 54118.70 0 0 0 34797280.00 15108082.00 L 34597344.00 15108082.00 A 54118.70 54118.70 0 0 0 34597344.00 15216322.00 L 34643192.00 15216322.00 L 34643192.00 15639622.00 L 34574926.00 15707888.00 L 34519795.00 15707888.00 L 34435678.00 15623771.00 A 54121.84 54121.84 0 0 0 34359140.00 15700309.00 L 34459108.00 15800277.00 L 34497379.41 15816128.00  z"/>
<path id="N" d="M 35197150.00 15707888.00 L 35151303.00 15707888.00 L 35151304.00 15162202.00 A 54122.11 54122.11 0 0 0 35058914.00 15123933.00 L 34958946.00 15223901.00 A 54121.84 54121.84 0 1 0 35043063.00 15292860.00 L 35043063.00 15707888.00 L 34997215.00 15707888.00 A 54118.70 54118.70 0 0 0 34997215.00 15816128.00 L 35197150.00 15816128.00 A 54121.84 54121.84 0 0 0 35197150.00 15707888.00  z"/>
<path id="N" d="M 35897249.41 15811404.00 L 36297118.00 15811404.00 A 54118.70 54118.70 0 0 0 36297118.00 15703164.00 L 36027905.00 15703164.00 L 36335387.00 15395682.00 L 36351238.00 15357410.59 L 36351238.00 15281528.55 L 36278285.00 15271924.00 L 36204492.37 15241358.37 L 36242998.00 15279864.00 L 36242998.00 15334995.00 L 35858978.00 15719015.00 A 54119.43 54119.43 0 0 0 35897249.41 15811404.00  z"/>
<path id="N" d="M 36461415.47 35782282.47 m -100354.75 0 a 100354.75 100354.75 0 1 1 200709.51 0a 100354.75 100354.75 0 1 1 -200709.51 0"/>
<path id="N" d="M 35461415.47 35787006.47 m -100354.75 0 a 100354.75 100354.75 0 1 1 200709.51 0a 100354.75 100354.75 0 1 1 -200709.51 0"/>
<path id="N" d="M 35935516.00 15295715.00 L 36019633.00 15211598.00 L 36151185.47 15211598.00 L 36082469.00 15158870.00 L 36039873.15 15103358.00 L 35997215.00 15103357.00 L 35958946.00 15119209.00 L 35858978.00 15219177.00 A 54121.84 54121.84 0 0 0 35935516.00 15295715.00  z"/>
</g>
</svg>
