<svg width="55.99999976mm" height="64.99999954mm" viewBox="0 0 22047244 25590551"  version="1.1" xmlns="http://www.w3.org/2000/svg" xmlns:xlink="http://www.w3.org/1999/xlink">
<desc>
Origin 0 0 Bound 15722441 13637008 22047244 25590551
</desc>
<g fill-rule="evenodd" fill="rgb(0, 0, 255)" stroke="black" stroke-width="1" transform="translate(0, 25590551) scale(1, -1) translate(-15722441, -13637008)">
<path id="N" d="M 35772433.64 18782268.96 m -315709.31 0 a 315709.31 315709.31 0 1 1 631418.63 0a 315709.31 315709.31 0 1 1 -631418.63 0M 35772441.92 18782281.47 m -208737.53 0 a 208737.53 208737.53 0 1 1 417475.06 0a 208737.53 208737.53 0 1 1 -417475.06 0"/>
<path id="N" d="M 35772433.64 30782268.96 m -315709.31 0 a 315709.31 315709.31 0 1 1 631418.63 0a 315709.31 315709.31 0 1 1 -631418.63 0M 35772441.92 30782281.47 m -208737.53 0 a 208737.53 208737.53 0 1 1 417475.06 0a 208737.53 208737.53 0 1 1 -417475.06 0"/>
<path id="N" d="M 35772433.64 25782268.96 m -315709.31 0 a 315709.31 315709.31 0 1 1 631418.63 0a 315709.31 315709.31 0 1 1 -631418.63 0M 35772441.92 25782281.47 m -208737.53 0 a 208737.53 208737.53 0 1 1 417475.06 0a 208737.53 208737.53 0 1 1 -417475.06 0"/>
<path id="N" d="M 35772433.64 23782268.96 m -315709.31 0 a 315709.31 315709.31 0 1 1 631418.63 0a 315709.31 315709.31 0 1 1 -631418.63 0M 35772441.92 23782281.47 m -208737.53 0 a 208737.53 208737.53 0 1 1 417475.06 0a 208737.53 208737.53 0 1 1 -417475.06 0"/>
<path id="N" d="M 34772433.64 28786992.96 m -315709.31 0 a 315709.31 315709.31 0 1 1 631418.63 0a 315709.31 315709.31 0 1 1 -631418.63 0M 34772441.92 28787005.47 m -208737.53 0 a 208737.53 208737.53 0 1 1 417475.06 0a 208737.53 208737.53 0 1 1 -417475.06 0"/>
<path id="N" d="M 34772433.64 29786992.96 m -315709.31 0 a 315709.31 315709.31 0 1 1 631418.63 0a 315709.31 315709.31 0 1 1 -631418.63 0M 34772441.92 29787005.47 m -208737.53 0 a 208737.53 208737.53 0 1 1 417475.06 0a 208737.53 208737.53 0 1 1 -417475.06 0"/>
<path id="N" d="M 35772433.64 16782268.96 m -315709.31 0 a 315709.31 315709.31 0 1 1 631418.63 0a 315709.31 315709.31 0 1 1 -631418.63 0M 35772441.92 16782281.47 m -208737.53 0 a 208737.53 208737.53 0 1 1 417475.06 0a 208737.53 208737.53 0 1 1 -417475.06 0"/>
<path id="N" d="M 37689407.00 13717286.00 L 15802719.00 13717286.00 L 15802719.00 39147281.00 L 37689407.00 39147281.00 L 37689407.00 13717286.00  zM 17100000.00 14850014.21 m -693878.11 0 a 693878.11 693878.11 0 1 1 1387756.22 0a 693878.11 693878.11 0 1 1 -1387756.22 0M 21798469.59 21549999.98 L 21694937.43 21549999.97 L 21718349.00 21462626.00 L 21765205.00 21381469.00 L 21831469.00 21315205.00 L 21912626.00 21268349.00 L 22000000.03 21244937.42 L 22000000.02 21348469.59 L 21983195.00 21350682.00 A 258122.37 258122.37 0 0 0 21800682.00 21533195.00 L 21798469.59 21549999.98  zM 22405062.58 21550000.03 L 22301530.41 21550000.02 L 22299318.00 21533195.00 A 258122.37 258122.37 0 0 0 22116805.00 21350682.00 L 22100000.02 21348469.59 L 22100000.03 21244937.43 L 22187374.00 21268349.00 L 22268531.00 21315205.00 L 22334795.00 21381469.00 L 22381651.00 21462626.00 L 22405062.58 21550000.03  zM 21999999.97 21955062.57 L 21912626.00 21931651.00 L 21831469.00 21884795.00 L 21765205.00 21818531.00 L 21718349.00 21737374.00 L 21694937.42 21649999.97 L 21798469.59 21649999.98 L 21800682.00 21666805.00 A 258122.37 258122.37 0 0 0 21983195.00 21849318.00 L 21999999.98 21851530.41 L 21999999.97 21955062.57  zM 22049998.59 21600001.48 m -160563.52 0 a 160563.52 160563.52 0 1 1 321127.04 0a 160563.52 160563.52 0 1 1 -321127.04 0M 23405905.00 21955905.00 L 22694095.00 21955905.00 L 22694095.00 21244095.00 L 23405905.00 21244095.00 L 23405905.00 21955905.00  zM 22099999.97 21955062.58 L 22099999.98 21851530.41 L 22116805.00 21849318.00 A 258122.37 258122.37 0 0 0 22299318.00 21666805.00 L 22301530.41 21650000.02 L 22405062.57 21650000.03 L 22381651.00 21737374.00 L 22334795.00 21818531.00 L 22268531.00 21884795.00 L 22187374.00 21931651.00 L 22099999.97 21955062.58  zM 21798469.59 23099999.98 L 21694937.43 23099999.97 L 21718349.00 23012626.00 L 21765205.00 22931469.00 L 21831469.00 22865205.00 L 21912626.00 22818349.00 L 22000000.03 22794937.42 L 22000000.02 22898469.59 L 21983195.00 22900682.00 A 258122.37 258122.37 0 0 0 21800682.00 23083195.00 L 21798469.59 23099999.98  zM 22405062.58 23100000.03 L 22301530.41 23100000.02 L 22299318.00 23083195.00 A 258122.37 258122.37 0 0 0 22116805.00 22900682.00 L 22100000.02 22898469.59 L 22100000.03 22794937.43 L 22187374.00 22818349.00 L 22268531.00 22865205.00 L 22334795.00 22931469.00 L 22381651.00 23012626.00 L 22405062.58 23100000.03  zM 21999999.97 23505062.57 L 21912626.00 23481651.00 L 21831469.00 23434795.00 L 21765205.00 23368531.00 L 21718349.00 23287374.00 L 21694937.42 23199999.97 L 21798469.59 23199999.98 L 21800682.00 23216805.00 A 258122.37 258122.37 0 0 0 21983195.00 23399318.00 L 21999999.98 23401530.41 L 21999999.97 23505062.57  zM 22049998.59 23150001.48 m -160563.52 0 a 160563.52 160563.52 0 1 1 321127.04 0a 160563.52 160563.52 0 1 1 -321127.04 0M 22099999.97 23505062.58 L 22099999.98 23401530.41 L 22116805.00 23399318.00 A 258122.37 258122.37 0 0 0 22299318.00 23216805.00 L 22301530.41 23200000.02 L 22405062.57 23200000.03 L 22381651.00 23287374.00 L 22334795.00 23368531.00 L 22268531.00 23434795.00 L 22187374.00 23481651.00 L 22099999.97 23505062.58  zM 23405905.00 23505905.00 L 22694095.00 23505905.00 L 22694095.00 22794095.00 L 23405905.00 22794095.00 L 23405905.00 23505905.00  zM 34722440.00 24200000.00 L 34718070.00 24200000.00 A 416536.95 416536.95 0 0 1 34359449.00 23841379.00 L 34359449.00 23837007.00 L 34463330.54 23837007.00 L 34467505.00 23868715.00 A 315695.14 315695.14 0 0 0 34690734.00 24091944.00 L 34722440.00 24096118.20 L 34722440.00 24200000.00  zM 34722440.00 17200000.00 L 34718070.00 17200000.00 A 416536.95 416536.95 0 0 1 34359449.00 16841379.00 L 34359449.00 16837007.00 L 34463330.54 16837007.00 L 34467505.00 16868715.00 A 315695.14 315695.14 0 0 0 34690734.00 17091944.00 L 34722440.00 17096118.20 L 34722440.00 17200000.00  zM 34463330.80 16737007.00 L 34359449.00 16737007.00 L 34359449.00 16732637.00 A 416536.95 416536.95 0 0 1 34718070.00 16374016.00 L 34722440.00 16374016.00 L 34722440.00 16477897.80 L 34690734.00 16482072.00 A 315709.31 315709.31 0 0 0 34467505.00 16705301.00 L 34463330.80 16737007.00  zM 34772441.00 20786997.08 m -416566.46 0 a 416566.46 416566.46 0 1 1 833132.93 0a 416566.46 416566.46 0 1 1 -833132.93 0M 34463330.80 23737007.00 L 34359449.00 23737007.00 L 34359449.00 23732637.00 A 416536.95 416536.95 0 0 1 34718070.00 23374016.00 L 34722440.00 23374016.00 L 34722440.00 23477897.80 L 34690734.00 23482072.00 A 315709.31 315709.31 0 0 0 34467505.00 23705301.00 L 34463330.80 23737007.00  zM 34772441.92 16787005.47 m -208737.53 0 a 208737.53 208737.53 0 1 1 417475.06 0a 208737.53 208737.53 0 1 1 -417475.06 0M 34772441.00 17786997.08 m -416566.46 0 a 416566.46 416566.46 0 1 1 833132.93 0a 416566.46 416566.46 0 1 1 -833132.93 0M 34772441.00 19786997.08 m -416566.46 0 a 416566.46 416566.46 0 1 1 833132.93 0a 416566.46 416566.46 0 1 1 -833132.93 0M 34772441.00 22786997.08 m -416566.46 0 a 416566.46 416566.46 0 1 1 833132.93 0a 416566.46 416566.46 0 1 1 -833132.93 0M 34772441.92 23787005.47 m -208737.53 0 a 208737.53 208737.53 0 1 1 417475.06 0a 208737.53 208737.53 0 1 1 -417475.06 0M 36391339.00 14850014.21 m -693878.11 0 a 693878.11 693878.11 0 1 1 1387756.22 0a 693878.11 693878.11 0 1 1 -1387756.22 0M 35185433.00 16737007.00 L 35081551.20 16737007.00 L 35077377.00 16705301.00 A 315695.14 315695.14 0 0 0 34854148.00 16482072.00 L 34822440.00 16477897.54 L 34822440.00 16374016.00 L 34826812.00 16374016.00 A 416536.95 416536.95 0 0 1 35185433.00 16732637.00 L 35185433.00 16737007.00  zM 35772441.00 16782273.08 m -416566.46 0 a 416566.46 416566.46 0 1 1 833132.93 0a 416566.46 416566.46 0 1 1 -833132.93 0M 34826812.00 17200000.00 L 34822440.00 17200000.00 L 34822440.00 17096118.46 L 34854148.00 17091944.00 A 315709.31 315709.31 0 0 0 35077377.00 16868715.00 L 35081551.46 16837007.00 L 35185433.00 16837007.00 L 35185433.00 16841379.00 A 416536.95 416536.95 0 0 1 34826812.00 17200000.00  zM 35772441.00 17782273.08 m -416566.46 0 a 416566.46 416566.46 0 1 1 833132.93 0a 416566.46 416566.46 0 1 1 -833132.93 0M 35772441.00 18782273.08 m -416566.46 0 a 416566.46 416566.46 0 1 1 833132.93 0a 416566.46 416566.46 0 1 1 -833132.93 0M 34772441.00 18786997.08 m -416566.46 0 a 416566.46 416566.46 0 1 1 833132.93 0a 416566.46 416566.46 0 1 1 -833132.93 0M 35463330.80 19732283.00 L 35359449.00 19732283.00 L 35359449.00 19727913.00 A 416536.95 416536.95 0 0 1 35718070.00 19369292.00 L 35722440.00 19369292.00 L 35722440.00 19473173.80 L 35690734.00 19477348.00 A 315709.31 315709.31 0 0 0 35467505.00 19700577.00 L 35463330.80 19732283.00  zM 35722440.00 20195276.00 L 35718070.00 20195276.00 A 416536.95 416536.95 0 0 1 35359449.00 19836655.00 L 35359449.00 19832283.00 L 35463330.54 19832283.00 L 35467505.00 19863991.00 A 315695.14 315695.14 0 0 0 35690734.00 20087220.00 L 35722440.00 20091394.20 L 35722440.00 20195276.00  zM 35772441.92 19782281.47 m -208737.53 0 a 208737.53 208737.53 0 1 1 417475.06 0a 208737.53 208737.53 0 1 1 -417475.06 0M 36185433.00 19732283.00 L 36081551.20 19732283.00 L 36077377.00 19700577.00 A 315695.14 315695.14 0 0 0 35854148.00 19477348.00 L 35822440.00 19473173.54 L 35822440.00 19369292.00 L 35826812.00 19369292.00 A 416536.95 416536.95 0 0 1 36185433.00 19727913.00 L 36185433.00 19732283.00  zM 35826812.00 20195276.00 L 35822440.00 20195276.00 L 35822440.00 20091394.46 L 35854148.00 20087220.00 A 315709.31 315709.31 0 0 0 36077377.00 19863991.00 L 36081551.46 19832283.00 L 36185433.00 19832283.00 L 36185433.00 19836655.00 A 416536.95 416536.95 0 0 1 35826812.00 20195276.00  zM 35772441.00 20782273.08 m -416566.46 0 a 416566.46 416566.46 0 1 1 833132.93 0a 416566.46 416566.46 0 1 1 -833132.93 0M 35463330.80 21732283.00 L 35359449.00 21732283.00 L 35359449.00 21727913.00 A 416536.95 416536.95 0 0 1 35718070.00 21369292.00 L 35722440.00 21369292.00 L 35722440.00 21473173.80 L 35690734.00 21477348.00 A 315709.31 315709.31 0 0 0 35467505.00 21700577.00 L 35463330.80 21732283.00  zM 34772441.00 21786997.08 m -416566.46 0 a 416566.46 416566.46 0 1 1 833132.93 0a 416566.46 416566.46 0 1 1 -833132.93 0M 35772441.92 21782281.47 m -208737.53 0 a 208737.53 208737.53 0 1 1 417475.06 0a 208737.53 208737.53 0 1 1 -417475.06 0M 36185433.00 21732283.00 L 36081551.20 21732283.00 L 36077377.00 21700577.00 A 315695.14 315695.14 0 0 0 35854148.00 21477348.00 L 35822440.00 21473173.54 L 35822440.00 21369292.00 L 35826812.00 21369292.00 A 416536.95 416536.95 0 0 1 36185433.00 21727913.00 L 36185433.00 21732283.00  zM 35722440.00 22195276.00 L 35718070.00 22195276.00 A 416536.95 416536.95 0 0 1 35359449.00 21836655.00 L 35359449.00 21832283.00 L 35463330.54 21832283.00 L 35467505.00 21863991.00 A 315695.14 315695.14 0 0 0 35690734.00 22087220.00 L 35722440.00 22091394.20 L 35722440.00 22195276.00  zM 35826812.00 22195276.00 L 35822440.00 22195276.00 L 35822440.00 22091394.46 L 35854148.00 22087220.00 A 315709.31 315709.31 0 0 0 36077377.00 21863991.00 L 36081551.46 21832283.00 L 36185433.00 21832283.00 L 36185433.00 21836655.00 A 416536.95 416536.95 0 0 1 35826812.00 22195276.00  zM 35772441.00 22782273.08 m -416566.46 0 a 416566.46 416566.46 0 1 1 833132.93 0a 416566.46 416566.46 0 1 1 -833132.93 0M 35185433.00 23737007.00 L 35081551.20 23737007.00 L 35077377.00 23705301.00 A 315695.14 315695.14 0 0 0 34854148.00 23482072.00 L 34822440.00 23477897.54 L 34822440.00 23374016.00 L 34826812.00 23374016.00 A 416536.95 416536.95 0 0 1 35185433.00 23732637.00 L 35185433.00 23737007.00  zM 35772441.00 23782273.08 m -416566.46 0 a 416566.46 416566.46 0 1 1 833132.93 0a 416566.46 416566.46 0 1 1 -833132.93 0M 17100000.00 37684660.21 m -693878.11 0 a 693878.11 693878.11 0 1 1 1387756.22 0a 693878.11 693878.11 0 1 1 -1387756.22 0M 28800000.00 35900002.06 m -202310.31 0 a 202310.31 202310.31 0 1 1 404620.63 0a 202310.31 202310.31 0 1 1 -404620.63 0M 33300000.00 28704496.00 L 31400000.00 28704496.00 A 254495.31 254495.31 0 0 1 31400000.00 28195504.00 L 33194584.00 28195504.00 L 33783036.00 27607052.00 L 33865601.00 27551884.00 L 33962992.00 27532512.00 L 34442878.00 27532512.00 A 414091.44 414091.44 0 1 1 34442878.00 28041504.00 L 34068408.00 28041504.00 L 33479956.00 28629956.00 L 33397392.00 28685124.00 L 33300000.00 28704496.00  zM 34463330.80 31737007.00 L 34359449.00 31737007.00 L 34359449.00 31732637.00 A 416536.95 416536.95 0 0 1 34718070.00 31374016.00 L 34722440.00 31374016.00 L 34722440.00 31477897.80 L 34690734.00 31482072.00 A 315709.31 315709.31 0 0 0 34467505.00 31705301.00 L 34463330.80 31737007.00  zM 34772441.92 31787005.47 m -208737.53 0 a 208737.53 208737.53 0 1 1 417475.06 0a 208737.53 208737.53 0 1 1 -417475.06 0M 34722440.00 32200000.00 L 34718070.00 32200000.00 A 416536.95 416536.95 0 0 1 34359449.00 31841379.00 L 34359449.00 31837007.00 L 34463330.54 31837007.00 L 34467505.00 31868715.00 A 315695.14 315695.14 0 0 0 34690734.00 32091944.00 L 34722440.00 32096118.20 L 34722440.00 32200000.00  zM 34772441.00 29786997.08 m -416566.46 0 a 416566.46 416566.46 0 1 1 833132.93 0a 416566.46 416566.46 0 1 1 -833132.93 0M 34772441.00 30786997.08 m -416566.46 0 a 416566.46 416566.46 0 1 1 833132.93 0a 416566.46 416566.46 0 1 1 -833132.93 0M 34772441.00 32786997.08 m -416566.46 0 a 416566.46 416566.46 0 1 1 833132.93 0a 416566.46 416566.46 0 1 1 -833132.93 0M 34772441.00 33786997.08 m -416566.46 0 a 416566.46 416566.46 0 1 1 833132.93 0a 416566.46 416566.46 0 1 1 -833132.93 0M 35185433.00 36200000.00 L 34359449.00 36200000.00 L 34359449.00 35374016.00 L 35185433.00 35374016.00 L 35185433.00 36200000.00  zM 34826812.00 24200000.00 L 34822440.00 24200000.00 L 34822440.00 24096118.46 L 34854148.00 24091944.00 A 315709.31 315709.31 0 0 0 35077377.00 23868715.00 L 35081551.46 23837007.00 L 35185433.00 23837007.00 L 35185433.00 23841379.00 A 416536.95 416536.95 0 0 1 34826812.00 24200000.00  zM 34772441.00 24786997.08 m -416566.46 0 a 416566.46 416566.46 0 1 1 833132.93 0a 416566.46 416566.46 0 1 1 -833132.93 0M 34772441.00 25786997.08 m -416566.46 0 a 416566.46 416566.46 0 1 1 833132.93 0a 416566.46 416566.46 0 1 1 -833132.93 0M 34772441.00 26786997.08 m -416566.46 0 a 416566.46 416566.46 0 1 1 833132.93 0a 416566.46 416566.46 0 1 1 -833132.93 0M 35722440.00 27195276.00 L 35718070.00 27195276.00 A 416536.95 416536.95 0 0 1 35359449.00 26836655.00 L 35359449.00 26832283.00 L 35463330.54 26832283.00 L 35467505.00 26863991.00 A 315695.14 315695.14 0 0 0 35690734.00 27087220.00 L 35722440.00 27091394.20 L 35722440.00 27195276.00  zM 34772441.00 28786997.08 m -416566.46 0 a 416566.46 416566.46 0 1 1 833132.93 0a 416566.46 416566.46 0 1 1 -833132.93 0M 35722440.00 30195276.00 L 35718070.00 30195276.00 A 416536.95 416536.95 0 0 1 35359449.00 29836655.00 L 35359449.00 29832283.00 L 35463330.54 29832283.00 L 35467505.00 29863991.00 A 315695.14 315695.14 0 0 0 35690734.00 30087220.00 L 35722440.00 30091394.20 L 35722440.00 30195276.00  zM 35185433.00 31737007.00 L 35081551.20 31737007.00 L 35077377.00 31705301.00 A 315695.14 315695.14 0 0 0 34854148.00 31482072.00 L 34822440.00 31477897.54 L 34822440.00 31374016.00 L 34826812.00 31374016.00 A 416536.95 416536.95 0 0 1 35185433.00 31732637.00 L 35185433.00 31737007.00  zM 34826812.00 32200000.00 L 34822440.00 32200000.00 L 34822440.00 32096118.46 L 34854148.00 32091944.00 A 315709.31 315709.31 0 0 0 35077377.00 31868715.00 L 35081551.46 31837007.00 L 35185433.00 31837007.00 L 35185433.00 31841379.00 A 416536.95 416536.95 0 0 1 34826812.00 32200000.00  zM 35722440.00 34195276.00 L 35718070.00 34195276.00 A 416536.95 416536.95 0 0 1 35359449.00 33836655.00 L 35359449.00 33832283.00 L 35463330.54 33832283.00 L 35467505.00 33863991.00 A 315695.14 315695.14 0 0 0 35690734.00 34087220.00 L 35722440.00 34091394.20 L 35722440.00 34195276.00  zM 34772441.00 34786997.08 m -416566.46 0 a 416566.46 416566.46 0 1 1 833132.93 0a 416566.46 416566.46 0 1 1 -833132.93 0M 35772441.00 24782273.08 m -416566.46 0 a 416566.46 416566.46 0 1 1 833132.93 0a 416566.46 416566.46 0 1 1 -833132.93 0M 35772441.00 25782273.08 m -416566.46 0 a 416566.46 416566.46 0 1 1 833132.93 0a 416566.46 416566.46 0 1 1 -833132.93 0M 35463330.80 26732283.00 L 35359449.00 26732283.00 L 35359449.00 26727913.00 A 416536.95 416536.95 0 0 1 35718070.00 26369292.00 L 35722440.00 26369292.00 L 35722440.00 26473173.80 L 35690734.00 26477348.00 A 315709.31 315709.31 0 0 0 35467505.00 26700577.00 L 35463330.80 26732283.00  zM 35772441.92 26782281.47 m -208737.53 0 a 208737.53 208737.53 0 1 1 417475.06 0a 208737.53 208737.53 0 1 1 -417475.06 0M 36185433.00 26732283.00 L 36081551.20 26732283.00 L 36077377.00 26700577.00 A 315695.14 315695.14 0 0 0 35854148.00 26477348.00 L 35822440.00 26473173.54 L 35822440.00 26369292.00 L 35826812.00 26369292.00 A 416536.95 416536.95 0 0 1 36185433.00 26727913.00 L 36185433.00 26732283.00  zM 35826812.00 27195276.00 L 35822440.00 27195276.00 L 35822440.00 27091394.46 L 35854148.00 27087220.00 A 315709.31 315709.31 0 0 0 36077377.00 26863991.00 L 36081551.46 26832283.00 L 36185433.00 26832283.00 L 36185433.00 26836655.00 A 416536.95 416536.95 0 0 1 35826812.00 27195276.00  zM 35772441.00 27782273.08 m -416566.46 0 a 416566.46 416566.46 0 1 1 833132.93 0a 416566.46 416566.46 0 1 1 -833132.93 0M 35772441.00 28782273.08 m -416566.46 0 a 416566.46 416566.46 0 1 1 833132.93 0a 416566.46 416566.46 0 1 1 -833132.93 0M 35463330.80 29732283.00 L 35359449.00 29732283.00 L 35359449.00 29727913.00 A 416536.95 416536.95 0 0 1 35718070.00 29369292.00 L 35722440.00 29369292.00 L 35722440.00 29473173.80 L 35690734.00 29477348.00 A 315709.31 315709.31 0 0 0 35467505.00 29700577.00 L 35463330.80 29732283.00  zM 35772441.92 29782281.47 m -208737.53 0 a 208737.53 208737.53 0 1 1 417475.06 0a 208737.53 208737.53 0 1 1 -417475.06 0M 36185433.00 29732283.00 L 36081551.20 29732283.00 L 36077377.00 29700577.00 A 315695.14 315695.14 0 0 0 35854148.00 29477348.00 L 35822440.00 29473173.54 L 35822440.00 29369292.00 L 35826812.00 29369292.00 A 416536.95 416536.95 0 0 1 36185433.00 29727913.00 L 36185433.00 29732283.00  zM 35826812.00 30195276.00 L 35822440.00 30195276.00 L 35822440.00 30091394.46 L 35854148.00 30087220.00 A 315709.31 315709.31 0 0 0 36077377.00 29863991.00 L 36081551.46 29832283.00 L 36185433.00 29832283.00 L 36185433.00 29836655.00 A 416536.95 416536.95 0 0 1 35826812.00 30195276.00  zM 35772441.00 30782273.08 m -416566.46 0 a 416566.46 416566.46 0 1 1 833132.93 0a 416566.46 416566.46 0 1 1 -833132.93 0M 35772441.00 31782273.08 m -416566.46 0 a 416566.46 416566.46 0 1 1 833132.93 0a 416566.46 416566.46 0 1 1 -833132.93 0M 35772441.00 32782273.08 m -416566.46 0 a 416566.46 416566.46 0 1 1 833132.93 0a 416566.46 416566.46 0 1 1 -833132.93 0M 35463330.80 33732283.00 L 35359449.00 33732283.00 L 35359449.00 33727913.00 A 416536.95 416536.95 0 0 1 35718070.00 33369292.00 L 35722440.00 33369292.00 L 35722440.00 33473173.80 L 35690734.00 33477348.00 A 315709.31 315709.31 0 0 0 35467505.00 33700577.00 L 35463330.80 33732283.00  zM 36185433.00 33732283.00 L 36081551.20 33732283.00 L 36077377.00 33700577.00 A 315695.14 315695.14 0 0 0 35854148.00 33477348.00 L 35822440.00 33473173.54 L 35822440.00 33369292.00 L 35826812.00 33369292.00 A 416536.95 416536.95 0 0 1 36185433.00 33727913.00 L 36185433.00 33732283.00  zM 35772441.92 33782281.47 m -208737.53 0 a 208737.53 208737.53 0 1 1 417475.06 0a 208737.53 208737.53 0 1 1 -417475.06 0M 35826812.00 34195276.00 L 35822440.00 34195276.00 L 35822440.00 34091394.46 L 35854148.00 34087220.00 A 315709.31 315709.31 0 0 0 36077377.00 33863991.00 L 36081551.46 33832283.00 L 36185433.00 33832283.00 L 36185433.00 33836655.00 A 416536.95 416536.95 0 0 1 35826812.00 34195276.00  zM 35772441.00 34782273.08 m -416566.46 0 a 416566.46 416566.46 0 1 1 833132.93 0a 416566.46 416566.46 0 1 1 -833132.93 0M 36185433.00 36195276.00 L 35359449.00 36195276.00 L 35359449.00 35369292.00 L 36185433.00 35369292.00 L 36185433.00 36195276.00  zM 36391339.00 37684660.21 m -693878.11 0 a 693878.11 693878.11 0 1 1 1387756.22 0a 693878.11 693878.11 0 1 1 -1387756.22 0"/>
<path id="N" d="M 34772433.64 24786992.96 m -315709.31 0 a 315709.31 315709.31 0 1 1 631418.63 0a 315709.31 315709.31 0 1 1 -631418.63 0M 34772441.92 24787005.47 m -208737.53 0 a 208737.53 208737.53 0 1 1 417475.06 0a 208737.53 208737.53 0 1 1 -417475.06 0"/>
<path id="N" d="M 35772433.64 22782268.96 m -315709.31 0 a 315709.31 315709.31 0 1 1 631418.63 0a 315709.31 315709.31 0 1 1 -631418.63 0M 35772441.92 22782281.47 m -208737.53 0 a 208737.53 208737.53 0 1 1 417475.06 0a 208737.53 208737.53 0 1 1 -417475.06 0"/>
<path id="N" d="M 34772433.64 33786992.96 m -315709.31 0 a 315709.31 315709.31 0 1 1 631418.63 0a 315709.31 315709.31 0 1 1 -631418.63 0M 34772441.92 33787005.47 m -208737.53 0 a 208737.53 208737.53 0 1 1 417475.06 0a 208737.53 208737.53 0 1 1 -417475.06 0"/>
<path id="N" d="M 35772433.64 28782268.96 m -315709.31 0 a 315709.31 315709.31 0 1 1 631418.63 0a 315709.31 315709.31 0 1 1 -631418.63 0M 35772441.92 28782281.47 m -208737.53 0 a 208737.53 208737.53 0 1 1 417475.06 0a 208737.53 208737.53 0 1 1 -417475.06 0"/>
<path id="N" d="M 35772433.64 32782268.96 m -315709.31 0 a 315709.31 315709.31 0 1 1 631418.63 0a 315709.31 315709.31 0 1 1 -631418.63 0M 35772441.92 32782281.47 m -208737.53 0 a 208737.53 208737.53 0 1 1 417475.06 0a 208737.53 208737.53 0 1 1 -417475.06 0"/>
<path id="N" d="M 35772433.64 34782268.96 m -315709.31 0 a 315709.31 315709.31 0 1 1 631418.63 0a 315709.31 315709.31 0 1 1 -631418.63 0M 35772441.92 34782281.47 m -208737.53 0 a 208737.53 208737.53 0 1 1 417475.06 0a 208737.53 208737.53 0 1 1 -417475.06 0"/>
<path id="N" d="M 36085433.00 35469292.00 L 35459449.00 35469292.00 L 35459449.00 36095276.00 L 36085433.00 36095276.00 L 36085433.00 35469292.00  zM 35772441.92 35782281.47 m -208737.53 0 a 208737.53 208737.53 0 1 1 417475.06 0a 208737.53 208737.53 0 1 1 -417475.06 0"/>
<path id="N" d="M 35772433.64 31782268.96 m -315709.31 0 a 315709.31 315709.31 0 1 1 631418.63 0a 315709.31 315709.31 0 1 1 -631418.63 0M 35772441.92 31782281.47 m -208737.53 0 a 208737.53 208737.53 0 1 1 417475.06 0a 208737.53 208737.53 0 1 1 -417475.06 0"/>
<path id="N" d="M 34772433.64 26786992.96 m -315709.31 0 a 315709.31 315709.31 0 1 1 631418.63 0a 315709.31 315709.31 0 1 1 -631418.63 0M 34772441.92 26787005.47 m -208737.53 0 a 208737.53 208737.53 0 1 1 417475.06 0a 208737.53 208737.53 0 1 1 -417475.06 0"/>
<path id="N" d="M 35772433.64 27782268.96 m -315709.31 0 a 315709.31 315709.31 0 1 1 631418.63 0a 315709.31 315709.31 0 1 1 -631418.63 0M 35772441.92 27782281.47 m -208737.53 0 a 208737.53 208737.53 0 1 1 417475.06 0a 208737.53 208737.53 0 1 1 -417475.06 0"/>
<path id="N" d="M 35772433.64 24782268.96 m -315709.31 0 a 315709.31 315709.31 0 1 1 631418.63 0a 315709.31 315709.31 0 1 1 -631418.63 0M 35772441.92 24782281.47 m -208737.53 0 a 208737.53 208737.53 0 1 1 417475.06 0a 208737.53 208737.53 0 1 1 -417475.06 0"/>
<path id="N" d="M 34772433.64 30786992.96 m -315709.31 0 a 315709.31 315709.31 0 1 1 631418.63 0a 315709.31 315709.31 0 1 1 -631418.63 0M 34772441.92 30787005.47 m -208737.53 0 a 208737.53 208737.53 0 1 1 417475.06 0a 208737.53 208737.53 0 1 1 -417475.06 0"/>
<path id="N" d="M 34772433.64 25786992.96 m -315709.31 0 a 315709.31 315709.31 0 1 1 631418.63 0a 315709.31 315709.31 0 1 1 -631418.63 0M 34772441.92 25787005.47 m -208737.53 0 a 208737.53 208737.53 0 1 1 417475.06 0a 208737.53 208737.53 0 1 1 -417475.06 0"/>
<path id="N" d="M 34772433.64 32786992.96 m -315709.31 0 a 315709.31 315709.31 0 1 1 631418.63 0a 315709.31 315709.31 0 1 1 -631418.63 0M 34772441.92 32787005.47 m -208737.53 0 a 208737.53 208737.53 0 1 1 417475.06 0a 208737.53 208737.53 0 1 1 -417475.06 0"/>
<path id="N" d="M 35772433.64 17782268.96 m -315709.31 0 a 315709.31 315709.31 0 1 1 631418.63 0a 315709.31 315709.31 0 1 1 -631418.63 0M 35772441.92 17782281.47 m -208737.53 0 a 208737.53 208737.53 0 1 1 417475.06 0a 208737.53 208737.53 0 1 1 -417475.06 0"/>
<path id="N" d="M 33407860.00 28557860.00 L 34026175.00 27939545.00 L 34496843.54 27939545.00 L 34499043.00 27944855.00 A 315675.40 315675.40 0 1 0 34499043.00 27629161.00 L 34496843.54 27634471.00 L 33962992.00 27634471.00 L 33904619.00 27646082.00 L 33855132.00 27679148.00 L 33236817.00 28297463.00 L 31400000.00 28297463.00 A 152537.16 152537.16 0 0 0 31400000.00 28602537.00 L 33300000.00 28602537.00 L 33358374.00 28590926.00 L 33407860.00 28557860.00  zM 34772441.92 27787005.47 m -208737.53 0 a 208737.53 208737.53 0 1 1 417475.06 0a 208737.53 208737.53 0 1 1 -417475.06 0"/>
<path id="N" d="M 23305905.00 22894095.00 L 22794095.00 22894095.00 L 22794095.00 23405905.00 L 23305905.00 23405905.00 L 23305905.00 22894095.00  zM 23049998.59 23150001.48 m -160563.52 0 a 160563.52 160563.52 0 1 1 321127.04 0a 160563.52 160563.52 0 1 1 -321127.04 0"/>
<path id="N" d="M 23305905.00 21344095.00 L 22794095.00 21344095.00 L 22794095.00 21855905.00 L 23305905.00 21855905.00 L 23305905.00 21344095.00  zM 23049998.59 21600001.48 m -160563.52 0 a 160563.52 160563.52 0 1 1 321127.04 0a 160563.52 160563.52 0 1 1 -321127.04 0"/>
<path id="N" d="M 36391340.79 14850002.99 m -593404.85 0 a 593404.85 593404.85 0 1 1 1186809.70 0a 593404.85 593404.85 0 1 1 -1186809.70 0M 36391340.69 14849992.57 m -436815.43 0 a 436815.43 436815.43 0 1 1 873630.85 0a 436815.43 436815.43 0 1 1 -873630.85 0"/>
<path id="N" d="M 17100001.79 14850002.99 m -593404.85 0 a 593404.85 593404.85 0 1 1 1186809.70 0a 593404.85 593404.85 0 1 1 -1186809.70 0M 17100001.69 14849992.57 m -436815.43 0 a 436815.43 436815.43 0 1 1 873630.85 0a 436815.43 436815.43 0 1 1 -873630.85 0"/>
<path id="N" d="M 36391340.79 37684648.99 m -593404.85 0 a 593404.85 593404.85 0 1 1 1186809.70 0a 593404.85 593404.85 0 1 1 -1186809.70 0M 36391340.69 37684638.57 m -436815.43 0 a 436815.43 436815.43 0 1 1 873630.85 0a 436815.43 436815.43 0 1 1 -873630.85 0"/>
<path id="N" d="M 17100001.79 37684648.99 m -593404.85 0 a 593404.85 593404.85 0 1 1 1186809.70 0a 593404.85 593404.85 0 1 1 -1186809.70 0M 17100001.69 37684638.57 m -436815.43 0 a 436815.43 436815.43 0 1 1 873630.85 0a 436815.43 436815.43 0 1 1 -873630.85 0"/>
<path id="N" d="M 34772433.64 20786992.96 m -315709.31 0 a 315709.31 315709.31 0 1 1 631418.63 0a 315709.31 315709.31 0 1 1 -631418.63 0M 34772441.92 20787005.47 m -208737.53 0 a 208737.53 208737.53 0 1 1 417475.06 0a 208737.53 208737.53 0 1 1 -417475.06 0"/>
<path id="N" d="M 34772433.64 21786992.96 m -315709.31 0 a 315709.31 315709.31 0 1 1 631418.63 0a 315709.31 315709.31 0 1 1 -631418.63 0M 34772441.92 21787005.47 m -208737.53 0 a 208737.53 208737.53 0 1 1 417475.06 0a 208737.53 208737.53 0 1 1 -417475.06 0"/>
<path id="N" d="M 34772433.64 34786992.96 m -315709.31 0 a 315709.31 315709.31 0 1 1 631418.63 0a 315709.31 315709.31 0 1 1 -631418.63 0M 34772441.92 34787005.47 m -208737.53 0 a 208737.53 208737.53 0 1 1 417475.06 0a 208737.53 208737.53 0 1 1 -417475.06 0"/>
<path id="N" d="M 34772433.64 22786992.96 m -315709.31 0 a 315709.31 315709.31 0 1 1 631418.63 0a 315709.31 315709.31 0 1 1 -631418.63 0M 34772441.92 22787005.47 m -208737.53 0 a 208737.53 208737.53 0 1 1 417475.06 0a 208737.53 208737.53 0 1 1 -417475.06 0"/>
<path id="N" d="M 34772433.64 19786992.96 m -315709.31 0 a 315709.31 315709.31 0 1 1 631418.63 0a 315709.31 315709.31 0 1 1 -631418.63 0M 34772441.92 19787005.47 m -208737.53 0 a 208737.53 208737.53 0 1 1 417475.06 0a 208737.53 208737.53 0 1 1 -417475.06 0"/>
<path id="N" d="M 34772433.64 18786992.96 m -315709.31 0 a 315709.31 315709.31 0 1 1 631418.63 0a 315709.31 315709.31 0 1 1 -631418.63 0M 34772441.92 18787005.47 m -208737.53 0 a 208737.53 208737.53 0 1 1 417475.06 0a 208737.53 208737.53 0 1 1 -417475.06 0"/>
<path id="N" d="M 34772433.64 17786992.96 m -315709.31 0 a 315709.31 315709.31 0 1 1 631418.63 0a 315709.31 315709.31 0 1 1 -631418.63 0M 34772441.92 17787005.47 m -208737.53 0 a 208737.53 208737.53 0 1 1 417475.06 0a 208737.53 208737.53 0 1 1 -417475.06 0"/>
<path id="N" d="M 35085433.00 35474016.00 L 34459449.00 35474016.00 L 34459449.00 36100000.00 L 35085433.00 36100000.00 L 35085433.00 35474016.00  zM 34772441.92 35787005.47 m -208737.53 0 a 208737.53 208737.53 0 1 1 417475.06 0a 208737.53 208737.53 0 1 1 -417475.06 0"/>
<path id="N" d="M 28799998.47 35899998.47 m -100354.75 0 a 100354.75 100354.75 0 1 1 200709.51 0a 100354.75 100354.75 0 1 1 -200709.51 0"/>
<path id="N" d="M 35772433.64 20782268.96 m -315709.31 0 a 315709.31 315709.31 0 1 1 631418.63 0a 315709.31 315709.31 0 1 1 -631418.63 0M 35772441.92 20782281.47 m -208737.53 0 a 208737.53 208737.53 0 1 1 417475.06 0a 208737.53 208737.53 0 1 1 -417475.06 0"/>
</g>
</svg>
