<svg width="55.99999976mm" height="64.99999954mm" viewBox="0 0 22047244 25590551"  version="1.1" xmlns="http://www.w3.org/2000/svg" xmlns:xlink="http://www.w3.org/1999/xlink">
<desc>
Origin 0 0 Bound 15722441 13637008 22047244 25590551
</desc>
<g fill-rule="evenodd" fill="rgb(255, 255, 0)" stroke="black" stroke-width="1" transform="translate(0, 25590551) scale(1, -1) translate(-15722441, -13637008)">
<path id="N" d="M 26699998.47 37214959.47 m -100354.75 0 a 100354.75 100354.75 0 1 1 200709.51 0a 100354.75 100354.75 0 1 1 -200709.51 0"/>
<path id="N" d="M 24399998.47 21349998.47 m -100354.75 0 a 100354.75 100354.75 0 1 1 200709.51 0a 100354.75 100354.75 0 1 1 -200709.51 0"/>
<path id="N" d="M 23580133.00 22256117.00 L 23592614.00 22225984.00 L 23592614.00 20974016.00 L 23580133.00 20943883.00 L 23550000.00 20931402.00 L 21550000.00 20931402.00 L 21519867.00 20943883.00 L 21507386.00 20974016.00 L 21507386.00 22225984.00 L 21519867.00 22256117.00 L 21550000.00 22268598.00 L 23550000.00 22268598.00 L 23580133.00 22256117.00  zM 23507386.00 22183370.00 L 21592614.00 22183370.00 L 21592614.00 21016630.00 L 23507386.00 21016630.00 L 23507386.00 22183370.00  z"/>
<path id="N" d="M 23580133.00 23806117.00 L 23592614.00 23775984.00 L 23592614.00 22524016.00 L 23580133.00 22493883.00 L 23550000.00 22481402.00 L 21550000.00 22481402.00 L 21519867.00 22493883.00 L 21507386.00 22524016.00 L 21507386.00 23775984.00 L 21519867.00 23806117.00 L 21550000.00 23818598.00 L 23550000.00 23818598.00 L 23580133.00 23806117.00  zM 23507386.00 23733370.00 L 21592614.00 23733370.00 L 21592614.00 22566630.00 L 23507386.00 22566630.00 L 23507386.00 23733370.00  z"/>
<path id="N" d="M 28265566.00 38764779.00 L 28278047.00 38734646.00 L 28278047.00 37218898.00 L 28265566.00 37188765.00 L 28235433.00 37176284.00 L 26936220.00 37176284.00 L 26906087.00 37188765.00 L 26893606.00 37218898.00 L 26906087.00 37249031.00 L 26936220.00 37261512.00 L 28192819.00 37261512.00 L 28192819.00 38734646.00 L 28205300.00 38764779.00 L 28235433.00 38777260.00 L 28265566.00 38764779.00  z"/>
<path id="N" d="M 25194700.00 38764779.00 L 25207181.00 38734646.00 L 25207181.00 37261512.00 L 26463780.00 37261512.00 L 26493913.00 37249031.00 L 26506394.00 37218898.00 L 26493913.00 37188765.00 L 26463780.00 37176284.00 L 25164567.00 37176284.00 L 25134434.00 37188765.00 L 25121953.00 37218898.00 L 25121953.00 38734646.00 L 25134434.00 38764779.00 L 25164567.00 38777260.00 L 25194700.00 38764779.00  z"/>
<path id="N" d="M 24676582.00 34059661.00 L 24689063.00 34029528.00 L 24679221.00 34005766.36 L 24679221.00 31263780.00 L 24666740.00 31233647.00 L 24636607.00 31221166.00 L 24606474.00 31233647.00 L 24593993.00 31263780.00 L 24593993.00 34029528.00 L 24606474.00 34059661.00 L 24636607.00 34072142.00 L 24646449.00 34072142.00 L 24676582.00 34059661.00  z"/>
<path id="N" d="M 31305322.00 24386827.00 L 31317803.00 24356694.00 L 31317803.00 21590946.00 L 31305322.00 21560813.00 L 31275189.00 21548332.00 L 31265347.00 21548332.00 L 31235214.00 21560813.00 L 31222733.00 21590946.00 L 31232575.00 21614707.64 L 31232575.00 24356694.00 L 31245056.00 24386827.00 L 31275189.00 24399308.00 L 31305322.00 24386827.00  z"/>
<path id="N" d="M 24416740.00 24386827.00 L 24429221.00 24356694.00 L 24429221.00 21614707.64 L 24439063.00 21590946.00 L 24426582.00 21560813.00 L 24396449.00 21548332.00 L 24386607.00 21548332.00 L 24356474.00 21560813.00 L 24343993.00 21590946.00 L 24343993.00 24356694.00 L 24356474.00 24386827.00 L 24386607.00 24399308.00 L 24416740.00 24386827.00  z"/>
<path id="N" d="M 31455322.00 34109661.00 L 31467803.00 34079528.00 L 31467803.00 31313780.00 L 31455322.00 31283647.00 L 31425189.00 31271166.00 L 31395056.00 31283647.00 L 31382575.00 31313780.00 L 31382575.00 34055766.36 L 31372733.00 34079528.00 L 31385214.00 34109661.00 L 31415347.00 34122142.00 L 31425189.00 34122142.00 L 31455322.00 34109661.00  z"/>
<path id="N" d="M 29730133.00 15848243.00 L 29742614.00 15818110.00 L 29742614.00 15581890.00 L 29730133.00 15551757.00 L 29700000.00 15539276.00 L 29669867.00 15551757.00 L 29657386.00 15581890.00 L 29657386.00 15818110.00 L 29669867.00 15848243.00 L 29700000.00 15860724.00 L 29730133.00 15848243.00  z"/>
<path id="N" d="M 29780133.00 17398243.00 L 29792614.00 17368110.00 L 29792614.00 17131890.00 L 29780133.00 17101757.00 L 29750000.00 17089276.00 L 29719867.00 17101757.00 L 29707386.00 17131890.00 L 29707386.00 17368110.00 L 29719867.00 17398243.00 L 29750000.00 17410724.00 L 29780133.00 17398243.00  z"/>
</g>
</svg>
